<svg xmlns="http://www.w3.org/2000/svg" xmlns:xlink="http://www.w3.org/1999/xlink" width="500" zoomAndPan="magnify" viewBox="0 0 375 74.999997" height="100" preserveAspectRatio="xMidYMid meet" version="1.0"><defs><g/><clipPath id="b54de36d24"><path d="M 50 37.5 L 56 37.5 L 56 60 L 50 60 Z M 50 37.5 " clip-rule="nonzero"/></clipPath><clipPath id="7c971ffd9b"><path d="M 116 37.5 L 122 37.5 L 122 60 L 116 60 Z M 116 37.5 " clip-rule="nonzero"/></clipPath><clipPath id="34388bd70a"><path d="M 320 39 L 329.25 39 L 329.25 55 L 320 55 Z M 320 39 " clip-rule="nonzero"/></clipPath></defs><path fill="#17191a" d="M 41.46875 46.367188 C 41.101562 46.390625 41.015625 46.410156 41.015625 46.605469 C 41.015625 46.824219 41.125 46.824219 41.511719 46.824219 L 42.503906 46.824219 C 44.339844 46.824219 45.160156 48.347656 45.160156 50.4375 C 45.160156 53.285156 43.691406 54.046875 42.636719 54.046875 C 41.597656 54.046875 39.828125 53.546875 39.203125 52.113281 C 39.894531 52.21875 40.519531 51.828125 40.519531 51.046875 C 40.519531 50.414062 40.066406 49.980469 39.464844 49.980469 C 38.945312 49.980469 38.382812 50.285156 38.382812 51.109375 C 38.382812 53.046875 40.304688 54.636719 42.699219 54.636719 C 45.265625 54.636719 47.167969 52.65625 47.167969 50.457031 C 47.167969 48.457031 45.570312 46.890625 43.496094 46.519531 C 45.375 45.976562 46.582031 44.386719 46.582031 42.691406 C 46.582031 40.96875 44.8125 39.707031 42.722656 39.707031 C 40.5625 39.707031 38.964844 41.035156 38.964844 42.625 C 38.964844 43.496094 39.636719 43.667969 39.960938 43.667969 C 40.414062 43.667969 40.929688 43.34375 40.929688 42.691406 C 40.929688 41.992188 40.414062 41.6875 39.9375 41.6875 C 39.808594 41.6875 39.765625 41.6875 39.699219 41.710938 C 40.519531 40.230469 42.546875 40.230469 42.65625 40.230469 C 43.367188 40.230469 44.769531 40.558594 44.769531 42.691406 C 44.769531 43.101562 44.707031 44.320312 44.082031 45.257812 C 43.433594 46.214844 42.699219 46.28125 42.117188 46.300781 Z M 41.46875 46.367188 " fill-opacity="1" fill-rule="nonzero"/><g clip-path="url(#b54de36d24)"><path fill="#17191a" d="M 55.074219 59.464844 C 55.074219 59.402344 55.074219 59.359375 54.710938 58.988281 C 52.550781 56.789062 51.34375 53.199219 51.34375 48.761719 C 51.34375 44.539062 52.355469 40.90625 54.859375 38.335938 C 55.074219 38.140625 55.074219 38.097656 55.074219 38.03125 C 55.074219 37.902344 54.96875 37.859375 54.882812 37.859375 C 54.601562 37.859375 52.832031 39.425781 51.773438 41.558594 C 50.675781 43.753906 50.179688 46.085938 50.179688 48.761719 C 50.179688 50.695312 50.480469 53.285156 51.601562 55.613281 C 52.875 58.226562 54.644531 59.640625 54.882812 59.640625 C 54.96875 59.640625 55.074219 59.597656 55.074219 59.464844 Z M 55.074219 59.464844 " fill-opacity="1" fill-rule="nonzero"/></g><path fill="#17191a" d="M 65.773438 50.523438 L 65.300781 50.523438 C 65.234375 50.894531 65.0625 52.089844 64.847656 52.4375 C 64.695312 52.632812 63.464844 52.632812 62.820312 52.632812 L 58.828125 52.632812 C 59.410156 52.132812 60.726562 50.742188 61.285156 50.21875 C 64.566406 47.171875 65.773438 46.039062 65.773438 43.886719 C 65.773438 41.382812 63.8125 39.707031 61.308594 39.707031 C 58.804688 39.707031 57.339844 41.863281 57.339844 43.734375 C 57.339844 44.84375 58.289062 44.84375 58.351562 44.84375 C 58.804688 44.84375 59.367188 44.515625 59.367188 43.820312 C 59.367188 43.210938 58.957031 42.796875 58.351562 42.796875 C 58.15625 42.796875 58.113281 42.796875 58.050781 42.820312 C 58.460938 41.339844 59.625 40.339844 61.027344 40.339844 C 62.863281 40.339844 63.984375 41.882812 63.984375 43.886719 C 63.984375 45.734375 62.925781 47.347656 61.695312 48.738281 L 57.339844 53.65625 L 57.339844 54.179688 L 65.214844 54.179688 Z M 65.773438 50.523438 " fill-opacity="1" fill-rule="nonzero"/><path fill="#17191a" d="M 77.070312 45.300781 C 76.382812 45.429688 76.121094 45.953125 76.121094 46.367188 C 76.121094 46.890625 76.53125 47.0625 76.835938 47.0625 C 77.480469 47.0625 77.933594 46.496094 77.933594 45.910156 C 77.933594 44.996094 76.898438 44.582031 75.992188 44.582031 C 74.675781 44.582031 73.945312 45.886719 73.75 46.300781 C 73.253906 44.667969 71.914062 44.582031 71.527344 44.582031 C 69.324219 44.582031 68.160156 47.433594 68.160156 47.910156 C 68.160156 48 68.246094 48.109375 68.398438 48.109375 C 68.570312 48.109375 68.613281 47.976562 68.65625 47.890625 C 69.390625 45.476562 70.835938 45.019531 71.460938 45.019531 C 72.433594 45.019531 72.628906 45.933594 72.628906 46.453125 C 72.628906 46.933594 72.496094 47.433594 72.238281 48.476562 L 71.503906 51.457031 C 71.179688 52.765625 70.554688 53.960938 69.414062 53.960938 C 69.304688 53.960938 68.765625 53.960938 68.3125 53.679688 C 69.089844 53.527344 69.261719 52.875 69.261719 52.613281 C 69.261719 52.175781 68.9375 51.914062 68.527344 51.914062 C 68.007812 51.914062 67.449219 52.371094 67.449219 53.070312 C 67.449219 53.984375 68.460938 54.394531 69.390625 54.394531 C 70.425781 54.394531 71.160156 53.570312 71.613281 52.675781 C 71.957031 53.960938 73.039062 54.394531 73.835938 54.394531 C 76.035156 54.394531 77.203125 51.546875 77.203125 51.066406 C 77.203125 50.957031 77.117188 50.871094 76.984375 50.871094 C 76.792969 50.871094 76.769531 50.980469 76.707031 51.152344 C 76.121094 53.070312 74.871094 53.960938 73.898438 53.960938 C 73.144531 53.960938 72.734375 53.394531 72.734375 52.503906 C 72.734375 52.023438 72.820312 51.675781 73.167969 50.242188 L 73.921875 47.28125 C 74.246094 45.976562 74.980469 45.019531 75.972656 45.019531 C 76.015625 45.019531 76.617188 45.019531 77.070312 45.300781 Z M 77.070312 45.300781 " fill-opacity="1" fill-rule="nonzero"/><path fill="#17191a" d="M 97.863281 49.175781 C 98.230469 49.175781 98.617188 49.175781 98.617188 48.738281 C 98.617188 48.304688 98.230469 48.304688 97.863281 48.304688 L 86.191406 48.304688 C 85.824219 48.304688 85.433594 48.304688 85.433594 48.738281 C 85.433594 49.175781 85.824219 49.175781 86.191406 49.175781 Z M 97.863281 49.175781 " fill-opacity="1" fill-rule="nonzero"/><path fill="#17191a" d="M 107.875 46.605469 C 107.875 41.101562 110.527344 40.230469 111.695312 40.230469 C 112.472656 40.230469 113.246094 40.46875 113.65625 41.121094 C 113.398438 41.121094 112.578125 41.121094 112.578125 42.015625 C 112.578125 42.492188 112.902344 42.90625 113.464844 42.90625 C 114.003906 42.90625 114.371094 42.582031 114.371094 41.949219 C 114.371094 40.816406 113.550781 39.707031 111.671875 39.707031 C 108.953125 39.707031 106.105469 42.515625 106.105469 47.300781 C 106.105469 53.285156 108.695312 54.636719 110.527344 54.636719 C 112.882812 54.636719 114.886719 52.570312 114.886719 49.738281 C 114.886719 46.84375 112.882812 44.910156 110.722656 44.910156 C 108.804688 44.910156 108.089844 46.585938 107.875 47.195312 Z M 110.527344 54.046875 C 109.167969 54.046875 108.523438 52.828125 108.328125 52.371094 C 108.132812 51.808594 107.917969 50.742188 107.917969 49.21875 C 107.917969 47.5 108.695312 45.34375 110.636719 45.34375 C 111.824219 45.34375 112.449219 46.148438 112.773438 46.890625 C 113.117188 47.695312 113.117188 48.78125 113.117188 49.71875 C 113.117188 50.828125 113.117188 51.808594 112.707031 52.632812 C 112.167969 53.679688 111.390625 54.046875 110.527344 54.046875 Z M 110.527344 54.046875 " fill-opacity="1" fill-rule="nonzero"/><g clip-path="url(#7c971ffd9b)"><path fill="#17191a" d="M 121.871094 48.761719 C 121.871094 47.105469 121.652344 44.410156 120.445312 41.882812 C 119.171875 39.273438 117.402344 37.859375 117.164062 37.859375 C 117.078125 37.859375 116.972656 37.902344 116.972656 38.03125 C 116.972656 38.097656 116.972656 38.140625 117.339844 38.511719 C 119.496094 40.710938 120.703125 44.300781 120.703125 48.738281 C 120.703125 52.960938 119.691406 56.59375 117.1875 59.160156 C 116.972656 59.359375 116.972656 59.402344 116.972656 59.464844 C 116.972656 59.597656 117.078125 59.640625 117.164062 59.640625 C 117.445312 59.640625 119.214844 58.074219 120.273438 55.941406 C 121.375 53.722656 121.871094 51.371094 121.871094 48.761719 Z M 121.871094 48.761719 " fill-opacity="1" fill-rule="nonzero"/></g><path fill="#17191a" d="M 137.40625 49.152344 L 143.359375 49.152344 C 143.664062 49.152344 144.050781 49.152344 144.050781 48.761719 C 144.050781 48.347656 143.683594 48.347656 143.359375 48.347656 L 137.40625 48.347656 L 137.40625 42.339844 C 137.40625 42.035156 137.40625 41.644531 137.015625 41.644531 C 136.605469 41.644531 136.605469 42.015625 136.605469 42.339844 L 136.605469 48.347656 L 130.652344 48.347656 C 130.347656 48.347656 129.960938 48.347656 129.960938 48.738281 C 129.960938 49.152344 130.328125 49.152344 130.652344 49.152344 L 136.605469 49.152344 L 136.605469 55.15625 C 136.605469 55.460938 136.605469 55.855469 136.996094 55.855469 C 137.40625 55.855469 137.40625 55.484375 137.40625 55.15625 Z M 137.40625 49.152344 " fill-opacity="1" fill-rule="nonzero"/><path fill="#17191a" d="M 159.691406 47.214844 C 159.691406 45.410156 159.582031 43.648438 158.804688 41.992188 C 157.921875 40.1875 156.367188 39.707031 155.3125 39.707031 C 154.058594 39.707031 152.527344 40.339844 151.730469 42.144531 C 151.125 43.515625 150.910156 44.867188 150.910156 47.214844 C 150.910156 49.328125 151.058594 50.914062 151.835938 52.460938 C 152.679688 54.113281 154.167969 54.636719 155.289062 54.636719 C 157.167969 54.636719 158.246094 53.503906 158.871094 52.242188 C 159.648438 50.609375 159.691406 48.476562 159.691406 47.214844 Z M 155.289062 54.199219 C 154.597656 54.199219 153.195312 53.808594 152.785156 51.4375 C 152.550781 50.132812 152.550781 48.476562 152.550781 46.953125 C 152.550781 45.171875 152.550781 43.558594 152.894531 42.277344 C 153.261719 40.816406 154.363281 40.144531 155.289062 40.144531 C 156.109375 40.144531 157.359375 40.644531 157.769531 42.515625 C 158.050781 43.753906 158.050781 45.476562 158.050781 46.953125 C 158.050781 48.414062 158.050781 50.066406 157.8125 51.394531 C 157.402344 53.789062 156.042969 54.199219 155.289062 54.199219 Z M 155.289062 54.199219 " fill-opacity="1" fill-rule="nonzero"/><path fill="#17191a" d="M 164.558594 53.132812 C 164.558594 52.503906 164.039062 52.066406 163.523438 52.066406 C 162.898438 52.066406 162.464844 52.589844 162.464844 53.113281 C 162.464844 53.742188 162.984375 54.179688 163.5 54.179688 C 164.128906 54.179688 164.558594 53.65625 164.558594 53.132812 Z M 164.558594 53.132812 " fill-opacity="1" fill-rule="nonzero"/><path fill="#17191a" d="M 170.425781 46.367188 C 170.058594 46.390625 169.972656 46.410156 169.972656 46.605469 C 169.972656 46.824219 170.082031 46.824219 170.46875 46.824219 L 171.460938 46.824219 C 173.296875 46.824219 174.117188 48.347656 174.117188 50.4375 C 174.117188 53.285156 172.648438 54.046875 171.589844 54.046875 C 170.554688 54.046875 168.785156 53.546875 168.160156 52.113281 C 168.851562 52.21875 169.476562 51.828125 169.476562 51.046875 C 169.476562 50.414062 169.023438 49.980469 168.417969 49.980469 C 167.902344 49.980469 167.339844 50.285156 167.339844 51.109375 C 167.339844 53.046875 169.261719 54.636719 171.65625 54.636719 C 174.222656 54.636719 176.121094 52.65625 176.121094 50.457031 C 176.121094 48.457031 174.527344 46.890625 172.453125 46.519531 C 174.332031 45.976562 175.539062 44.386719 175.539062 42.691406 C 175.539062 40.96875 173.769531 39.707031 171.675781 39.707031 C 169.519531 39.707031 167.921875 41.035156 167.921875 42.625 C 167.921875 43.496094 168.59375 43.667969 168.914062 43.667969 C 169.367188 43.667969 169.886719 43.34375 169.886719 42.691406 C 169.886719 41.992188 169.367188 41.6875 168.894531 41.6875 C 168.765625 41.6875 168.722656 41.6875 168.65625 41.710938 C 169.476562 40.230469 171.503906 40.230469 171.613281 40.230469 C 172.324219 40.230469 173.726562 40.558594 173.726562 42.691406 C 173.726562 43.101562 173.664062 44.320312 173.035156 45.257812 C 172.390625 46.214844 171.65625 46.28125 171.074219 46.300781 Z M 170.425781 46.367188 " fill-opacity="1" fill-rule="nonzero"/><path fill="#17191a" d="M 187.246094 45.300781 C 186.558594 45.429688 186.296875 45.953125 186.296875 46.367188 C 186.296875 46.890625 186.707031 47.0625 187.011719 47.0625 C 187.65625 47.0625 188.109375 46.496094 188.109375 45.910156 C 188.109375 44.996094 187.074219 44.582031 186.167969 44.582031 C 184.851562 44.582031 184.117188 45.886719 183.925781 46.300781 C 183.429688 44.667969 182.089844 44.582031 181.703125 44.582031 C 179.5 44.582031 178.335938 47.433594 178.335938 47.910156 C 178.335938 48 178.421875 48.109375 178.574219 48.109375 C 178.746094 48.109375 178.789062 47.976562 178.832031 47.890625 C 179.566406 45.476562 181.011719 45.019531 181.636719 45.019531 C 182.609375 45.019531 182.800781 45.933594 182.800781 46.453125 C 182.800781 46.933594 182.671875 47.433594 182.414062 48.476562 L 181.679688 51.457031 C 181.355469 52.765625 180.730469 53.960938 179.585938 53.960938 C 179.480469 53.960938 178.941406 53.960938 178.488281 53.679688 C 179.265625 53.527344 179.4375 52.875 179.4375 52.613281 C 179.4375 52.175781 179.113281 51.914062 178.703125 51.914062 C 178.183594 51.914062 177.625 52.371094 177.625 53.070312 C 177.625 53.984375 178.636719 54.394531 179.566406 54.394531 C 180.601562 54.394531 181.335938 53.570312 181.789062 52.675781 C 182.132812 53.960938 183.210938 54.394531 184.011719 54.394531 C 186.210938 54.394531 187.375 51.546875 187.375 51.066406 C 187.375 50.957031 187.289062 50.871094 187.160156 50.871094 C 186.96875 50.871094 186.945312 50.980469 186.878906 51.152344 C 186.296875 53.070312 185.046875 53.960938 184.074219 53.960938 C 183.320312 53.960938 182.910156 53.394531 182.910156 52.503906 C 182.910156 52.023438 182.996094 51.675781 183.34375 50.242188 L 184.097656 47.28125 C 184.421875 45.976562 185.15625 45.019531 186.148438 45.019531 C 186.191406 45.019531 186.792969 45.019531 187.246094 45.300781 Z M 187.246094 45.300781 " fill-opacity="1" fill-rule="nonzero"/><path fill="#17191a" d="M 208.039062 49.175781 C 208.40625 49.175781 208.796875 49.175781 208.796875 48.738281 C 208.796875 48.304688 208.40625 48.304688 208.039062 48.304688 L 196.367188 48.304688 C 196 48.304688 195.613281 48.304688 195.613281 48.738281 C 195.613281 49.175781 196 49.175781 196.367188 49.175781 Z M 208.039062 49.175781 " fill-opacity="1" fill-rule="nonzero"/><path fill="#17191a" d="M 218.160156 41.710938 C 219.085938 42.015625 219.84375 42.035156 220.082031 42.035156 C 222.519531 42.035156 224.070312 40.230469 224.070312 39.925781 C 224.070312 39.839844 224.027344 39.730469 223.898438 39.730469 C 223.855469 39.730469 223.8125 39.730469 223.617188 39.816406 C 222.410156 40.339844 221.375 40.40625 220.8125 40.40625 C 219.390625 40.40625 218.375 39.96875 217.964844 39.796875 C 217.816406 39.730469 217.773438 39.730469 217.75 39.730469 C 217.578125 39.730469 217.578125 39.859375 217.578125 40.207031 L 217.578125 46.671875 C 217.578125 47.0625 217.578125 47.195312 217.835938 47.195312 C 217.945312 47.195312 217.964844 47.171875 218.179688 46.910156 C 218.785156 46.019531 219.800781 45.496094 220.878906 45.496094 C 222.023438 45.496094 222.582031 46.5625 222.757812 46.933594 C 223.121094 47.78125 223.144531 48.847656 223.144531 49.675781 C 223.144531 50.5 223.144531 51.742188 222.539062 52.722656 C 222.066406 53.503906 221.222656 54.046875 220.273438 54.046875 C 218.851562 54.046875 217.449219 53.070312 217.058594 51.480469 C 217.167969 51.523438 217.296875 51.546875 217.40625 51.546875 C 217.773438 51.546875 218.355469 51.328125 218.355469 50.589844 C 218.355469 49.980469 217.945312 49.632812 217.40625 49.632812 C 217.015625 49.632812 216.457031 49.828125 216.457031 50.675781 C 216.457031 52.523438 217.921875 54.636719 220.316406 54.636719 C 222.757812 54.636719 224.890625 52.570312 224.890625 49.804688 C 224.890625 47.214844 223.164062 45.0625 220.898438 45.0625 C 219.671875 45.0625 218.722656 45.605469 218.160156 46.214844 Z M 218.160156 41.710938 " fill-opacity="1" fill-rule="nonzero"/><path fill="#17191a" d="M 246.519531 47.128906 C 246.824219 47.128906 247.210938 47.128906 247.210938 46.738281 C 247.210938 46.324219 246.84375 46.324219 246.519531 46.324219 L 233.8125 46.324219 C 233.507812 46.324219 233.121094 46.324219 233.121094 46.714844 C 233.121094 47.128906 233.488281 47.128906 233.8125 47.128906 Z M 246.519531 51.175781 C 246.824219 51.175781 247.210938 51.175781 247.210938 50.785156 C 247.210938 50.371094 246.84375 50.371094 246.519531 50.371094 L 233.8125 50.371094 C 233.507812 50.371094 233.121094 50.371094 233.121094 50.761719 C 233.121094 51.175781 233.488281 51.175781 233.8125 51.175781 Z M 246.519531 51.175781 " fill-opacity="1" fill-rule="nonzero"/><path fill="#17191a" d="M 262.28125 47.847656 C 262.28125 52.980469 260.015625 54.046875 258.71875 54.046875 C 258.203125 54.046875 257.058594 53.984375 256.519531 53.222656 L 256.648438 53.222656 C 256.800781 53.265625 257.578125 53.132812 257.578125 52.328125 C 257.578125 51.851562 257.253906 51.4375 256.691406 51.4375 C 256.128906 51.4375 255.785156 51.808594 255.785156 52.371094 C 255.785156 53.722656 256.863281 54.636719 258.742188 54.636719 C 261.4375 54.636719 264.050781 51.742188 264.050781 47.019531 C 264.050781 41.167969 261.632812 39.707031 259.734375 39.707031 C 257.359375 39.707031 255.265625 41.710938 255.265625 44.582031 C 255.265625 47.453125 257.273438 49.414062 259.433594 49.414062 C 261.027344 49.414062 261.847656 48.238281 262.28125 47.128906 Z M 259.519531 48.976562 C 258.160156 48.976562 257.578125 47.867188 257.382812 47.453125 C 257.035156 46.628906 257.035156 45.582031 257.035156 44.605469 C 257.035156 43.386719 257.035156 42.339844 257.597656 41.449219 C 257.984375 40.863281 258.570312 40.230469 259.734375 40.230469 C 260.964844 40.230469 261.589844 41.320312 261.804688 41.820312 C 262.238281 42.886719 262.238281 44.734375 262.238281 45.0625 C 262.238281 46.890625 261.417969 48.976562 259.519531 48.976562 Z M 259.519531 48.976562 " fill-opacity="1" fill-rule="nonzero"/><path fill="#17191a" d="M 275.175781 45.300781 C 274.484375 45.429688 274.226562 45.953125 274.226562 46.367188 C 274.226562 46.890625 274.636719 47.0625 274.9375 47.0625 C 275.585938 47.0625 276.039062 46.496094 276.039062 45.910156 C 276.039062 44.996094 275 44.582031 274.09375 44.582031 C 272.777344 44.582031 272.046875 45.886719 271.851562 46.300781 C 271.355469 44.667969 270.015625 44.582031 269.628906 44.582031 C 267.429688 44.582031 266.261719 47.433594 266.261719 47.910156 C 266.261719 48 266.347656 48.109375 266.5 48.109375 C 266.671875 48.109375 266.714844 47.976562 266.757812 47.890625 C 267.492188 45.476562 268.9375 45.019531 269.5625 45.019531 C 270.535156 45.019531 270.730469 45.933594 270.730469 46.453125 C 270.730469 46.933594 270.601562 47.433594 270.339844 48.476562 L 269.605469 51.457031 C 269.285156 52.765625 268.65625 53.960938 267.515625 53.960938 C 267.40625 53.960938 266.867188 53.960938 266.414062 53.679688 C 267.191406 53.527344 267.363281 52.875 267.363281 52.613281 C 267.363281 52.175781 267.039062 51.914062 266.628906 51.914062 C 266.113281 51.914062 265.550781 52.371094 265.550781 53.070312 C 265.550781 53.984375 266.566406 54.394531 267.492188 54.394531 C 268.527344 54.394531 269.261719 53.570312 269.714844 52.675781 C 270.058594 53.960938 271.140625 54.394531 271.9375 54.394531 C 274.136719 54.394531 275.304688 51.546875 275.304688 51.066406 C 275.304688 50.957031 275.21875 50.871094 275.089844 50.871094 C 274.894531 50.871094 274.871094 50.980469 274.808594 51.152344 C 274.226562 53.070312 272.972656 53.960938 272.003906 53.960938 C 271.246094 53.960938 270.835938 53.394531 270.835938 52.503906 C 270.835938 52.023438 270.921875 51.675781 271.269531 50.242188 L 272.023438 47.28125 C 272.347656 45.976562 273.082031 45.019531 274.074219 45.019531 C 274.117188 45.019531 274.722656 45.019531 275.175781 45.300781 Z M 275.175781 45.300781 " fill-opacity="1" fill-rule="nonzero"/><path fill="#17191a" d="M 295.964844 49.175781 C 296.332031 49.175781 296.722656 49.175781 296.722656 48.738281 C 296.722656 48.304688 296.332031 48.304688 295.964844 48.304688 L 284.292969 48.304688 C 283.925781 48.304688 283.539062 48.304688 283.539062 48.738281 C 283.539062 49.175781 283.925781 49.175781 284.292969 49.175781 Z M 295.964844 49.175781 " fill-opacity="1" fill-rule="nonzero"/><path fill="#17191a" d="M 312.992188 47.214844 C 312.992188 45.410156 312.882812 43.648438 312.105469 41.992188 C 311.222656 40.1875 309.667969 39.707031 308.613281 39.707031 C 307.359375 39.707031 305.828125 40.339844 305.03125 42.144531 C 304.425781 43.515625 304.210938 44.867188 304.210938 47.214844 C 304.210938 49.328125 304.359375 50.914062 305.136719 52.460938 C 305.980469 54.113281 307.46875 54.636719 308.589844 54.636719 C 310.46875 54.636719 311.546875 53.503906 312.171875 52.242188 C 312.949219 50.609375 312.992188 48.476562 312.992188 47.214844 Z M 308.589844 54.199219 C 307.898438 54.199219 306.496094 53.808594 306.085938 51.4375 C 305.847656 50.132812 305.847656 48.476562 305.847656 46.953125 C 305.847656 45.171875 305.847656 43.558594 306.195312 42.277344 C 306.5625 40.816406 307.660156 40.144531 308.589844 40.144531 C 309.410156 40.144531 310.660156 40.644531 311.070312 42.515625 C 311.351562 43.753906 311.351562 45.476562 311.351562 46.953125 C 311.351562 48.414062 311.351562 50.066406 311.113281 51.394531 C 310.703125 53.789062 309.34375 54.199219 308.589844 54.199219 Z M 308.589844 54.199219 " fill-opacity="1" fill-rule="nonzero"/><path fill="#17191a" d="M 317.859375 53.132812 C 317.859375 52.503906 317.339844 52.066406 316.824219 52.066406 C 316.199219 52.066406 315.765625 52.589844 315.765625 53.113281 C 315.765625 53.742188 316.285156 54.179688 316.800781 54.179688 C 317.425781 54.179688 317.859375 53.65625 317.859375 53.132812 Z M 317.859375 53.132812 " fill-opacity="1" fill-rule="nonzero"/><g clip-path="url(#34388bd70a)"><path fill="#17191a" d="M 329.25 50.523438 L 328.777344 50.523438 C 328.710938 50.894531 328.539062 52.089844 328.324219 52.4375 C 328.171875 52.632812 326.941406 52.632812 326.292969 52.632812 L 322.300781 52.632812 C 322.886719 52.132812 324.203125 50.742188 324.761719 50.21875 C 328.042969 47.171875 329.25 46.039062 329.25 43.886719 C 329.25 41.382812 327.285156 39.707031 324.785156 39.707031 C 322.28125 39.707031 320.8125 41.863281 320.8125 43.734375 C 320.8125 44.84375 321.761719 44.84375 321.828125 44.84375 C 322.28125 44.84375 322.84375 44.515625 322.84375 43.820312 C 322.84375 43.210938 322.433594 42.796875 321.828125 42.796875 C 321.632812 42.796875 321.589844 42.796875 321.527344 42.820312 C 321.9375 41.339844 323.101562 40.339844 324.503906 40.339844 C 326.335938 40.339844 327.460938 41.882812 327.460938 43.886719 C 327.460938 45.734375 326.402344 47.347656 325.171875 48.738281 L 320.8125 53.65625 L 320.8125 54.179688 L 328.6875 54.179688 Z M 329.25 50.523438 " fill-opacity="1" fill-rule="nonzero"/></g><g fill="#17191a" fill-opacity="1"><g transform="translate(15.000006, 31.534077)"><g><path d="M 6.40625 0 L 4.765625 0 L 4.765625 -10.84375 L 1.5 -9.640625 L 1.5 -11.109375 L 6.15625 -12.859375 L 6.40625 -12.859375 Z M 6.40625 0 "/></g></g></g><g fill="#17191a" fill-opacity="1"><g transform="translate(25.104909, 31.534077)"><g><path d="M 4.984375 -5.109375 C 4.984375 -3.796875 4.8125 -2.539062 4.46875 -1.34375 C 4.125 -0.144531 3.597656 0.957031 2.890625 1.96875 C 2.191406 2.976562 1.453125 3.695312 0.671875 4.125 L 0.328125 3.140625 C 1.234375 2.441406 1.957031 1.367188 2.5 -0.078125 C 3.050781 -1.535156 3.332031 -3.15625 3.34375 -4.9375 L 3.34375 -5.21875 C 3.34375 -6.445312 3.210938 -7.585938 2.953125 -8.640625 C 2.703125 -9.703125 2.347656 -10.648438 1.890625 -11.484375 C 1.429688 -12.328125 0.910156 -12.984375 0.328125 -13.453125 L 0.671875 -14.4375 C 1.453125 -14.007812 2.191406 -13.296875 2.890625 -12.296875 C 3.585938 -11.296875 4.109375 -10.191406 4.453125 -8.984375 C 4.804688 -7.773438 4.984375 -6.484375 4.984375 -5.109375 Z M 4.984375 -5.109375 "/></g></g></g><g fill="#17191a" fill-opacity="1"><g transform="translate(31.361161, 31.534077)"><g/></g></g><g fill="#17191a" fill-opacity="1"><g transform="translate(35.816106, 31.534077)"><g><path d="M 6.171875 -5.171875 L 3.171875 -5.171875 L 3.171875 0 L 1.484375 0 L 1.484375 -12.796875 L 5.71875 -12.796875 C 7.15625 -12.796875 8.257812 -12.46875 9.03125 -11.8125 C 9.8125 -11.15625 10.203125 -10.203125 10.203125 -8.953125 C 10.203125 -8.148438 9.984375 -7.453125 9.546875 -6.859375 C 9.117188 -6.273438 8.523438 -5.832031 7.765625 -5.53125 L 10.765625 -0.109375 L 10.765625 0 L 8.953125 0 Z M 3.171875 -6.5625 L 5.765625 -6.5625 C 6.597656 -6.5625 7.265625 -6.773438 7.765625 -7.203125 C 8.265625 -7.640625 8.515625 -8.222656 8.515625 -8.953125 C 8.515625 -9.742188 8.273438 -10.347656 7.796875 -10.765625 C 7.328125 -11.191406 6.644531 -11.40625 5.75 -11.40625 L 3.171875 -11.40625 Z M 3.171875 -6.5625 "/></g></g></g><g fill="#17191a" fill-opacity="1"><g transform="translate(46.896351, 31.534077)"><g><path d="M 3 0 L 1.375 0 L 1.375 -9.515625 L 3 -9.515625 Z M 1.234375 -12.03125 C 1.234375 -12.289062 1.3125 -12.507812 1.46875 -12.6875 C 1.632812 -12.875 1.875 -12.96875 2.1875 -12.96875 C 2.507812 -12.96875 2.753906 -12.875 2.921875 -12.6875 C 3.085938 -12.507812 3.171875 -12.289062 3.171875 -12.03125 C 3.171875 -11.769531 3.085938 -11.550781 2.921875 -11.375 C 2.753906 -11.195312 2.507812 -11.109375 2.1875 -11.109375 C 1.875 -11.109375 1.632812 -11.195312 1.46875 -11.375 C 1.3125 -11.550781 1.234375 -11.769531 1.234375 -12.03125 Z M 1.234375 -12.03125 "/></g></g></g><g fill="#17191a" fill-opacity="1"><g transform="translate(51.263426, 31.534077)"><g><path d="M 2.90625 -9.515625 L 2.90625 1.09375 C 2.90625 2.925781 2.078125 3.84375 0.421875 3.84375 C 0.0664062 3.84375 -0.265625 3.789062 -0.578125 3.6875 L -0.578125 2.375 C -0.390625 2.425781 -0.140625 2.453125 0.171875 2.453125 C 0.535156 2.453125 0.8125 2.351562 1 2.15625 C 1.1875 1.957031 1.28125 1.617188 1.28125 1.140625 L 1.28125 -9.515625 Z M 1.109375 -12.03125 C 1.109375 -12.289062 1.1875 -12.507812 1.34375 -12.6875 C 1.507812 -12.875 1.75 -12.96875 2.0625 -12.96875 C 2.382812 -12.96875 2.625 -12.875 2.78125 -12.6875 C 2.945312 -12.507812 3.03125 -12.289062 3.03125 -12.03125 C 3.03125 -11.769531 2.945312 -11.550781 2.78125 -11.375 C 2.625 -11.195312 2.382812 -11.109375 2.0625 -11.109375 C 1.75 -11.109375 1.507812 -11.195312 1.34375 -11.375 C 1.1875 -11.550781 1.109375 -11.769531 1.109375 -12.03125 Z M 1.109375 -12.03125 "/></g></g></g><g fill="#17191a" fill-opacity="1"><g transform="translate(55.560206, 31.534077)"><g><path d="M 5.171875 0.171875 C 3.890625 0.171875 2.84375 -0.25 2.03125 -1.09375 C 1.21875 -1.9375 0.8125 -3.066406 0.8125 -4.484375 L 0.8125 -4.796875 C 0.8125 -5.734375 0.992188 -6.570312 1.359375 -7.3125 C 1.722656 -8.050781 2.226562 -8.628906 2.875 -9.046875 C 3.519531 -9.472656 4.21875 -9.6875 4.96875 -9.6875 C 6.207031 -9.6875 7.171875 -9.28125 7.859375 -8.46875 C 8.546875 -7.65625 8.890625 -6.488281 8.890625 -4.96875 L 8.890625 -4.296875 L 2.4375 -4.296875 C 2.46875 -3.359375 2.742188 -2.597656 3.265625 -2.015625 C 3.785156 -1.441406 4.453125 -1.15625 5.265625 -1.15625 C 5.835938 -1.15625 6.320312 -1.269531 6.71875 -1.5 C 7.125 -1.738281 7.472656 -2.050781 7.765625 -2.4375 L 8.765625 -1.65625 C 7.960938 -0.4375 6.765625 0.171875 5.171875 0.171875 Z M 4.96875 -8.34375 C 4.3125 -8.34375 3.757812 -8.101562 3.3125 -7.625 C 2.875 -7.15625 2.601562 -6.488281 2.5 -5.625 L 7.265625 -5.625 L 7.265625 -5.75 C 7.210938 -6.570312 6.988281 -7.207031 6.59375 -7.65625 C 6.195312 -8.113281 5.65625 -8.34375 4.96875 -8.34375 Z M 4.96875 -8.34375 "/></g></g></g><g fill="#17191a" fill-opacity="1"><g transform="translate(65.093962, 31.534077)"><g><path d="M 6.765625 -2.515625 C 6.765625 -2.960938 6.597656 -3.304688 6.265625 -3.546875 C 5.941406 -3.785156 5.367188 -3.992188 4.546875 -4.171875 C 3.722656 -4.347656 3.066406 -4.554688 2.578125 -4.796875 C 2.097656 -5.046875 1.738281 -5.34375 1.5 -5.6875 C 1.269531 -6.03125 1.15625 -6.4375 1.15625 -6.90625 C 1.15625 -7.675781 1.484375 -8.332031 2.140625 -8.875 C 2.804688 -9.414062 3.648438 -9.6875 4.671875 -9.6875 C 5.753906 -9.6875 6.628906 -9.40625 7.296875 -8.84375 C 7.972656 -8.289062 8.3125 -7.582031 8.3125 -6.71875 L 6.671875 -6.71875 C 6.671875 -7.164062 6.476562 -7.546875 6.09375 -7.859375 C 5.71875 -8.179688 5.242188 -8.34375 4.671875 -8.34375 C 4.078125 -8.34375 3.613281 -8.210938 3.28125 -7.953125 C 2.945312 -7.703125 2.78125 -7.367188 2.78125 -6.953125 C 2.78125 -6.554688 2.9375 -6.257812 3.25 -6.0625 C 3.5625 -5.863281 4.125 -5.671875 4.9375 -5.484375 C 5.75 -5.304688 6.40625 -5.09375 6.90625 -4.84375 C 7.414062 -4.59375 7.789062 -4.289062 8.03125 -3.9375 C 8.269531 -3.582031 8.390625 -3.148438 8.390625 -2.640625 C 8.390625 -1.785156 8.050781 -1.101562 7.375 -0.59375 C 6.695312 -0.0820312 5.816406 0.171875 4.734375 0.171875 C 3.972656 0.171875 3.296875 0.0351562 2.703125 -0.234375 C 2.117188 -0.503906 1.660156 -0.878906 1.328125 -1.359375 C 0.992188 -1.835938 0.828125 -2.359375 0.828125 -2.921875 L 2.46875 -2.921875 C 2.488281 -2.378906 2.703125 -1.945312 3.109375 -1.625 C 3.523438 -1.3125 4.066406 -1.15625 4.734375 -1.15625 C 5.347656 -1.15625 5.835938 -1.28125 6.203125 -1.53125 C 6.578125 -1.78125 6.765625 -2.109375 6.765625 -2.515625 Z M 4.9375 -12.015625 L 6.25 -13.5 L 7.65625 -13.5 L 7.65625 -13.421875 L 5.421875 -11.015625 L 4.4375 -11.015625 L 2.21875 -13.421875 L 2.21875 -13.5 L 3.609375 -13.5 Z M 4.9375 -12.015625 "/></g></g></g><g fill="#17191a" fill-opacity="1"><g transform="translate(74.372899, 31.534077)"><g><path d="M 3 0 L 1.375 0 L 1.375 -9.515625 L 3 -9.515625 Z M 1.234375 -12.03125 C 1.234375 -12.289062 1.3125 -12.507812 1.46875 -12.6875 C 1.632812 -12.875 1.875 -12.96875 2.1875 -12.96875 C 2.507812 -12.96875 2.753906 -12.875 2.921875 -12.6875 C 3.085938 -12.507812 3.171875 -12.289062 3.171875 -12.03125 C 3.171875 -11.769531 3.085938 -11.550781 2.921875 -11.375 C 2.753906 -11.195312 2.507812 -11.109375 2.1875 -11.109375 C 1.875 -11.109375 1.632812 -11.195312 1.46875 -11.375 C 1.3125 -11.550781 1.234375 -11.769531 1.234375 -12.03125 Z M 1.234375 -12.03125 "/></g></g></g><g fill="#17191a" fill-opacity="1"><g transform="translate(78.739974, 31.534077)"><g/></g></g><g fill="#17191a" fill-opacity="1"><g transform="translate(83.194918, 31.534077)"><g><path d="M 2.90625 -9.515625 L 2.90625 1.09375 C 2.90625 2.925781 2.078125 3.84375 0.421875 3.84375 C 0.0664062 3.84375 -0.265625 3.789062 -0.578125 3.6875 L -0.578125 2.375 C -0.390625 2.425781 -0.140625 2.453125 0.171875 2.453125 C 0.535156 2.453125 0.8125 2.351562 1 2.15625 C 1.1875 1.957031 1.28125 1.617188 1.28125 1.140625 L 1.28125 -9.515625 Z M 1.109375 -12.03125 C 1.109375 -12.289062 1.1875 -12.507812 1.34375 -12.6875 C 1.507812 -12.875 1.75 -12.96875 2.0625 -12.96875 C 2.382812 -12.96875 2.625 -12.875 2.78125 -12.6875 C 2.945312 -12.507812 3.03125 -12.289062 3.03125 -12.03125 C 3.03125 -11.769531 2.945312 -11.550781 2.78125 -11.375 C 2.625 -11.195312 2.382812 -11.109375 2.0625 -11.109375 C 1.75 -11.109375 1.507812 -11.195312 1.34375 -11.375 C 1.1875 -11.550781 1.109375 -11.769531 1.109375 -12.03125 Z M 1.109375 -12.03125 "/></g></g></g><g fill="#17191a" fill-opacity="1"><g transform="translate(87.491699, 31.534077)"><g><path d="M 5.171875 0.171875 C 3.890625 0.171875 2.84375 -0.25 2.03125 -1.09375 C 1.21875 -1.9375 0.8125 -3.066406 0.8125 -4.484375 L 0.8125 -4.796875 C 0.8125 -5.734375 0.992188 -6.570312 1.359375 -7.3125 C 1.722656 -8.050781 2.226562 -8.628906 2.875 -9.046875 C 3.519531 -9.472656 4.21875 -9.6875 4.96875 -9.6875 C 6.207031 -9.6875 7.171875 -9.28125 7.859375 -8.46875 C 8.546875 -7.65625 8.890625 -6.488281 8.890625 -4.96875 L 8.890625 -4.296875 L 2.4375 -4.296875 C 2.46875 -3.359375 2.742188 -2.597656 3.265625 -2.015625 C 3.785156 -1.441406 4.453125 -1.15625 5.265625 -1.15625 C 5.835938 -1.15625 6.320312 -1.269531 6.71875 -1.5 C 7.125 -1.738281 7.472656 -2.050781 7.765625 -2.4375 L 8.765625 -1.65625 C 7.960938 -0.4375 6.765625 0.171875 5.171875 0.171875 Z M 4.96875 -8.34375 C 4.3125 -8.34375 3.757812 -8.101562 3.3125 -7.625 C 2.875 -7.15625 2.601562 -6.488281 2.5 -5.625 L 7.265625 -5.625 L 7.265625 -5.75 C 7.210938 -6.570312 6.988281 -7.207031 6.59375 -7.65625 C 6.195312 -8.113281 5.65625 -8.34375 4.96875 -8.34375 Z M 4.96875 -8.34375 "/></g></g></g><g fill="#17191a" fill-opacity="1"><g transform="translate(97.025455, 31.534077)"><g><path d="M 0.828125 -4.828125 C 0.828125 -6.285156 1.171875 -7.457031 1.859375 -8.34375 C 2.554688 -9.238281 3.46875 -9.6875 4.59375 -9.6875 C 5.707031 -9.6875 6.585938 -9.304688 7.234375 -8.546875 L 7.234375 -13.5 L 8.859375 -13.5 L 8.859375 0 L 7.359375 0 L 7.28125 -1.015625 C 6.632812 -0.222656 5.734375 0.171875 4.578125 0.171875 C 3.472656 0.171875 2.570312 -0.273438 1.875 -1.171875 C 1.175781 -2.078125 0.828125 -3.257812 0.828125 -4.71875 Z M 2.46875 -4.65625 C 2.46875 -3.570312 2.6875 -2.722656 3.125 -2.109375 C 3.570312 -1.503906 4.1875 -1.203125 4.96875 -1.203125 C 6 -1.203125 6.753906 -1.664062 7.234375 -2.59375 L 7.234375 -6.96875 C 6.742188 -7.863281 6 -8.3125 5 -8.3125 C 4.195312 -8.3125 3.570312 -8 3.125 -7.375 C 2.6875 -6.757812 2.46875 -5.851562 2.46875 -4.65625 Z M 2.46875 -4.65625 "/></g></g></g><g fill="#17191a" fill-opacity="1"><g transform="translate(107.174292, 31.534077)"><g><path d="M 2.765625 -9.515625 L 2.828125 -8.3125 C 3.546875 -9.226562 4.492188 -9.6875 5.671875 -9.6875 C 7.679688 -9.6875 8.691406 -8.550781 8.703125 -6.28125 L 8.703125 0 L 7.078125 0 L 7.078125 -6.296875 C 7.078125 -6.984375 6.921875 -7.488281 6.609375 -7.8125 C 6.304688 -8.144531 5.828125 -8.3125 5.171875 -8.3125 C 4.648438 -8.3125 4.1875 -8.171875 3.78125 -7.890625 C 3.382812 -7.609375 3.078125 -7.238281 2.859375 -6.78125 L 2.859375 0 L 1.234375 0 L 1.234375 -9.515625 Z M 2.765625 -9.515625 "/></g></g></g><g fill="#17191a" fill-opacity="1"><g transform="translate(117.103457, 31.534077)"><g><path d="M 7.109375 0 C 7.015625 -0.1875 6.9375 -0.519531 6.875 -1 C 6.113281 -0.21875 5.210938 0.171875 4.171875 0.171875 C 3.234375 0.171875 2.460938 -0.09375 1.859375 -0.625 C 1.253906 -1.15625 0.953125 -1.828125 0.953125 -2.640625 C 0.953125 -3.628906 1.328125 -4.394531 2.078125 -4.9375 C 2.835938 -5.488281 3.898438 -5.765625 5.265625 -5.765625 L 6.84375 -5.765625 L 6.84375 -6.515625 C 6.84375 -7.078125 6.671875 -7.523438 6.328125 -7.859375 C 5.992188 -8.203125 5.492188 -8.375 4.828125 -8.375 C 4.253906 -8.375 3.769531 -8.226562 3.375 -7.9375 C 2.976562 -7.644531 2.78125 -7.289062 2.78125 -6.875 L 1.15625 -6.875 C 1.15625 -7.34375 1.320312 -7.796875 1.65625 -8.234375 C 1.988281 -8.679688 2.441406 -9.035156 3.015625 -9.296875 C 3.597656 -9.554688 4.238281 -9.6875 4.9375 -9.6875 C 6.03125 -9.6875 6.882812 -9.410156 7.5 -8.859375 C 8.125 -8.316406 8.445312 -7.5625 8.46875 -6.59375 L 8.46875 -2.21875 C 8.46875 -1.351562 8.582031 -0.660156 8.8125 -0.140625 L 8.8125 0 Z M 4.40625 -1.234375 C 4.914062 -1.234375 5.398438 -1.363281 5.859375 -1.625 C 6.316406 -1.894531 6.644531 -2.238281 6.84375 -2.65625 L 6.84375 -4.609375 L 5.578125 -4.609375 C 3.578125 -4.609375 2.578125 -4.023438 2.578125 -2.859375 C 2.578125 -2.347656 2.75 -1.945312 3.09375 -1.65625 C 3.4375 -1.375 3.875 -1.234375 4.40625 -1.234375 Z M 4.40625 -1.234375 "/></g></g></g><g fill="#17191a" fill-opacity="1"><g transform="translate(126.892032, 31.534077)"><g><path d="M 0.828125 -4.828125 C 0.828125 -6.285156 1.171875 -7.457031 1.859375 -8.34375 C 2.554688 -9.238281 3.46875 -9.6875 4.59375 -9.6875 C 5.707031 -9.6875 6.585938 -9.304688 7.234375 -8.546875 L 7.234375 -13.5 L 8.859375 -13.5 L 8.859375 0 L 7.359375 0 L 7.28125 -1.015625 C 6.632812 -0.222656 5.734375 0.171875 4.578125 0.171875 C 3.472656 0.171875 2.570312 -0.273438 1.875 -1.171875 C 1.175781 -2.078125 0.828125 -3.257812 0.828125 -4.71875 Z M 2.46875 -4.65625 C 2.46875 -3.570312 2.6875 -2.722656 3.125 -2.109375 C 3.570312 -1.503906 4.1875 -1.203125 4.96875 -1.203125 C 6 -1.203125 6.753906 -1.664062 7.234375 -2.59375 L 7.234375 -6.96875 C 6.742188 -7.863281 6 -8.3125 5 -8.3125 C 4.195312 -8.3125 3.570312 -8 3.125 -7.375 C 2.6875 -6.757812 2.46875 -5.851562 2.46875 -4.65625 Z M 2.46875 -4.65625 "/></g></g></g><g fill="#17191a" fill-opacity="1"><g transform="translate(137.040869, 31.534077)"><g><path d="M 2.765625 -1.328125 L 8.328125 -1.328125 L 8.328125 0 L 0.78125 0 L 0.78125 -1.203125 L 6.015625 -8.171875 L 0.859375 -8.171875 L 0.859375 -9.515625 L 8.0625 -9.515625 L 8.0625 -8.359375 Z M 4.515625 -12.015625 L 5.828125 -13.5 L 7.234375 -13.5 L 7.234375 -13.421875 L 5 -11.015625 L 4.015625 -11.015625 L 1.796875 -13.421875 L 1.796875 -13.5 L 3.1875 -13.5 Z M 4.515625 -12.015625 "/></g></g></g><g fill="#17191a" fill-opacity="1"><g transform="translate(145.959544, 31.534077)"><g><path d="M 9.28125 -4.65625 C 9.28125 -3.195312 8.945312 -2.023438 8.28125 -1.140625 C 7.613281 -0.265625 6.71875 0.171875 5.59375 0.171875 C 4.382812 0.171875 3.453125 -0.25 2.796875 -1.09375 L 2.71875 0 L 1.234375 0 L 1.234375 -13.5 L 2.859375 -13.5 L 2.859375 -8.46875 C 3.515625 -9.28125 4.414062 -9.6875 5.5625 -9.6875 C 6.71875 -9.6875 7.625 -9.25 8.28125 -8.375 C 8.945312 -7.5 9.28125 -6.304688 9.28125 -4.796875 Z M 7.65625 -4.828125 C 7.65625 -5.941406 7.441406 -6.800781 7.015625 -7.40625 C 6.585938 -8.007812 5.972656 -8.3125 5.171875 -8.3125 C 4.097656 -8.3125 3.328125 -7.8125 2.859375 -6.8125 L 2.859375 -2.703125 C 3.359375 -1.703125 4.132812 -1.203125 5.1875 -1.203125 C 5.96875 -1.203125 6.570312 -1.503906 7 -2.109375 C 7.4375 -2.710938 7.65625 -3.617188 7.65625 -4.828125 Z M 7.65625 -4.828125 "/></g></g></g><g fill="#17191a" fill-opacity="1"><g transform="translate(156.05566, 31.534077)"><g><path d="M 7.109375 -0.9375 C 6.472656 -0.195312 5.539062 0.171875 4.3125 0.171875 C 3.300781 0.171875 2.53125 -0.117188 2 -0.703125 C 1.46875 -1.296875 1.203125 -2.171875 1.203125 -3.328125 L 1.203125 -9.515625 L 2.828125 -9.515625 L 2.828125 -3.359375 C 2.828125 -1.921875 3.410156 -1.203125 4.578125 -1.203125 C 5.816406 -1.203125 6.644531 -1.664062 7.0625 -2.59375 L 7.0625 -9.515625 L 8.6875 -9.515625 L 8.6875 0 L 7.140625 0 Z M 7.109375 -0.9375 "/></g></g></g><g fill="#17191a" fill-opacity="1"><g transform="translate(165.976038, 31.534077)"><g><path d="M 1.171875 -0.859375 C 1.171875 -1.140625 1.253906 -1.375 1.421875 -1.5625 C 1.585938 -1.75 1.835938 -1.84375 2.171875 -1.84375 C 2.503906 -1.84375 2.753906 -1.75 2.921875 -1.5625 C 3.097656 -1.375 3.1875 -1.140625 3.1875 -0.859375 C 3.1875 -0.585938 3.097656 -0.359375 2.921875 -0.171875 C 2.753906 0.00390625 2.503906 0.09375 2.171875 0.09375 C 1.835938 0.09375 1.585938 0.00390625 1.421875 -0.171875 C 1.253906 -0.359375 1.171875 -0.585938 1.171875 -0.859375 Z M 1.1875 -8.625 C 1.1875 -8.90625 1.269531 -9.140625 1.4375 -9.328125 C 1.601562 -9.515625 1.851562 -9.609375 2.1875 -9.609375 C 2.519531 -9.609375 2.769531 -9.515625 2.9375 -9.328125 C 3.113281 -9.140625 3.203125 -8.90625 3.203125 -8.625 C 3.203125 -8.351562 3.113281 -8.125 2.9375 -7.9375 C 2.769531 -7.757812 2.519531 -7.671875 2.1875 -7.671875 C 1.851562 -7.671875 1.601562 -7.757812 1.4375 -7.9375 C 1.269531 -8.125 1.1875 -8.351562 1.1875 -8.625 Z M 1.1875 -8.625 "/></g></g></g></svg>