<svg xmlns="http://www.w3.org/2000/svg" xmlns:xlink="http://www.w3.org/1999/xlink" width="500" zoomAndPan="magnify" viewBox="0 0 375 74.999997" height="100" preserveAspectRatio="xMidYMid meet" version="1.0"><defs><g/><clipPath id="7cd9fa1726"><path d="M 115 36.472656 L 122 36.472656 L 122 49 L 115 49 Z M 115 36.472656 " clip-rule="nonzero"/></clipPath><clipPath id="4729cd2538"><path d="M 113.757812 56 L 123 56 L 123 58 L 113.757812 58 Z M 113.757812 56 " clip-rule="nonzero"/></clipPath><clipPath id="74044c53c5"><path d="M 114 61 L 123 61 L 123 74.722656 L 114 74.722656 Z M 114 61 " clip-rule="nonzero"/></clipPath><clipPath id="caaed7aa75"><path d="M 278 48 L 285.507812 48 L 285.507812 62 L 278 62 Z M 278 48 " clip-rule="nonzero"/></clipPath></defs><g fill="#17191a" fill-opacity="1"><g transform="translate(15.000006, 31.534074)"><g><path d="M 9.453125 0 L 1.0625 0 L 1.0625 -1.171875 L 5.5 -6.09375 C 6.15625 -6.832031 6.601562 -7.4375 6.84375 -7.90625 C 7.09375 -8.375 7.21875 -8.859375 7.21875 -9.359375 C 7.21875 -10.023438 7.015625 -10.570312 6.609375 -11 C 6.210938 -11.425781 5.675781 -11.640625 5 -11.640625 C 4.1875 -11.640625 3.554688 -11.40625 3.109375 -10.9375 C 2.660156 -10.476562 2.4375 -9.84375 2.4375 -9.03125 L 0.8125 -9.03125 C 0.8125 -10.207031 1.191406 -11.15625 1.953125 -11.875 C 2.710938 -12.601562 3.726562 -12.96875 5 -12.96875 C 6.1875 -12.96875 7.125 -12.65625 7.8125 -12.03125 C 8.507812 -11.40625 8.859375 -10.578125 8.859375 -9.546875 C 8.859375 -8.285156 8.054688 -6.785156 6.453125 -5.046875 L 3.03125 -1.328125 L 9.453125 -1.328125 Z M 9.453125 0 "/></g></g></g><g fill="#17191a" fill-opacity="1"><g transform="translate(25.104909, 31.534074)"><g><path d="M 4.984375 -5.109375 C 4.984375 -3.796875 4.8125 -2.539062 4.46875 -1.34375 C 4.125 -0.144531 3.597656 0.957031 2.890625 1.96875 C 2.191406 2.976562 1.453125 3.695312 0.671875 4.125 L 0.328125 3.140625 C 1.234375 2.441406 1.957031 1.367188 2.5 -0.078125 C 3.050781 -1.535156 3.332031 -3.15625 3.34375 -4.9375 L 3.34375 -5.21875 C 3.34375 -6.445312 3.210938 -7.585938 2.953125 -8.640625 C 2.703125 -9.703125 2.347656 -10.648438 1.890625 -11.484375 C 1.429688 -12.328125 0.910156 -12.984375 0.328125 -13.453125 L 0.671875 -14.4375 C 1.453125 -14.007812 2.191406 -13.296875 2.890625 -12.296875 C 3.585938 -11.296875 4.109375 -10.191406 4.453125 -8.984375 C 4.804688 -7.773438 4.984375 -6.484375 4.984375 -5.109375 Z M 4.984375 -5.109375 "/></g></g></g><g fill="#17191a" fill-opacity="1"><g transform="translate(31.361161, 31.534074)"><g/></g></g><g fill="#17191a" fill-opacity="1"><g transform="translate(35.816106, 31.534074)"><g><path d="M 4.734375 -5.953125 L 3.171875 -4.328125 L 3.171875 0 L 1.484375 0 L 1.484375 -12.796875 L 3.171875 -12.796875 L 3.171875 -6.46875 L 8.859375 -12.796875 L 10.90625 -12.796875 L 5.859375 -7.140625 L 11.296875 0 L 9.265625 0 Z M 4.734375 -5.953125 "/></g></g></g><g fill="#17191a" fill-opacity="1"><g transform="translate(47.098449, 31.534074)"><g><path d="M 0.796875 -4.84375 C 0.796875 -5.769531 0.976562 -6.601562 1.34375 -7.34375 C 1.71875 -8.09375 2.226562 -8.671875 2.875 -9.078125 C 3.53125 -9.484375 4.273438 -9.6875 5.109375 -9.6875 C 6.410156 -9.6875 7.457031 -9.238281 8.25 -8.34375 C 9.050781 -7.445312 9.453125 -6.253906 9.453125 -4.765625 L 9.453125 -4.65625 C 9.453125 -3.726562 9.273438 -2.894531 8.921875 -2.15625 C 8.566406 -1.425781 8.0625 -0.851562 7.40625 -0.4375 C 6.75 -0.03125 5.992188 0.171875 5.140625 0.171875 C 3.847656 0.171875 2.800781 -0.273438 2 -1.171875 C 1.195312 -2.066406 0.796875 -3.253906 0.796875 -4.734375 Z M 2.4375 -4.65625 C 2.4375 -3.59375 2.679688 -2.742188 3.171875 -2.109375 C 3.660156 -1.472656 4.316406 -1.15625 5.140625 -1.15625 C 5.960938 -1.15625 6.613281 -1.476562 7.09375 -2.125 C 7.582031 -2.769531 7.828125 -3.675781 7.828125 -4.84375 C 7.828125 -5.882812 7.578125 -6.726562 7.078125 -7.375 C 6.585938 -8.019531 5.929688 -8.34375 5.109375 -8.34375 C 4.304688 -8.34375 3.660156 -8.023438 3.171875 -7.390625 C 2.679688 -6.753906 2.4375 -5.84375 2.4375 -4.65625 Z M 2.4375 -4.65625 "/></g></g></g><g fill="#17191a" fill-opacity="1"><g transform="translate(57.361515, 31.534074)"><g><path d="M 2.90625 -9.515625 L 2.90625 1.09375 C 2.90625 2.925781 2.078125 3.84375 0.421875 3.84375 C 0.0664062 3.84375 -0.265625 3.789062 -0.578125 3.6875 L -0.578125 2.375 C -0.390625 2.425781 -0.140625 2.453125 0.171875 2.453125 C 0.535156 2.453125 0.8125 2.351562 1 2.15625 C 1.1875 1.957031 1.28125 1.617188 1.28125 1.140625 L 1.28125 -9.515625 Z M 1.109375 -12.03125 C 1.109375 -12.289062 1.1875 -12.507812 1.34375 -12.6875 C 1.507812 -12.875 1.75 -12.96875 2.0625 -12.96875 C 2.382812 -12.96875 2.625 -12.875 2.78125 -12.6875 C 2.945312 -12.507812 3.03125 -12.289062 3.03125 -12.03125 C 3.03125 -11.769531 2.945312 -11.550781 2.78125 -11.375 C 2.625 -11.195312 2.382812 -11.109375 2.0625 -11.109375 C 1.75 -11.109375 1.507812 -11.195312 1.34375 -11.375 C 1.1875 -11.550781 1.109375 -11.769531 1.109375 -12.03125 Z M 1.109375 -12.03125 "/></g></g></g><g fill="#17191a" fill-opacity="1"><g transform="translate(61.658296, 31.534074)"><g><path d="M 3 0 L 1.375 0 L 1.375 -9.515625 L 3 -9.515625 Z M 1.234375 -12.03125 C 1.234375 -12.289062 1.3125 -12.507812 1.46875 -12.6875 C 1.632812 -12.875 1.875 -12.96875 2.1875 -12.96875 C 2.507812 -12.96875 2.753906 -12.875 2.921875 -12.6875 C 3.085938 -12.507812 3.171875 -12.289062 3.171875 -12.03125 C 3.171875 -11.769531 3.085938 -11.550781 2.921875 -11.375 C 2.753906 -11.195312 2.507812 -11.109375 2.1875 -11.109375 C 1.875 -11.109375 1.632812 -11.195312 1.46875 -11.375 C 1.3125 -11.550781 1.234375 -11.769531 1.234375 -12.03125 Z M 1.234375 -12.03125 "/></g></g></g><g fill="#17191a" fill-opacity="1"><g transform="translate(66.025371, 31.534074)"><g/></g></g><g fill="#17191a" fill-opacity="1"><g transform="translate(70.480315, 31.534074)"><g><path d="M 9.28125 -4.65625 C 9.28125 -3.195312 8.945312 -2.023438 8.28125 -1.140625 C 7.613281 -0.265625 6.71875 0.171875 5.59375 0.171875 C 4.382812 0.171875 3.453125 -0.25 2.796875 -1.09375 L 2.71875 0 L 1.234375 0 L 1.234375 -13.5 L 2.859375 -13.5 L 2.859375 -8.46875 C 3.515625 -9.28125 4.414062 -9.6875 5.5625 -9.6875 C 6.71875 -9.6875 7.625 -9.25 8.28125 -8.375 C 8.945312 -7.5 9.28125 -6.304688 9.28125 -4.796875 Z M 7.65625 -4.828125 C 7.65625 -5.941406 7.441406 -6.800781 7.015625 -7.40625 C 6.585938 -8.007812 5.972656 -8.3125 5.171875 -8.3125 C 4.097656 -8.3125 3.328125 -7.8125 2.859375 -6.8125 L 2.859375 -2.703125 C 3.359375 -1.703125 4.132812 -1.203125 5.1875 -1.203125 C 5.96875 -1.203125 6.570312 -1.503906 7 -2.109375 C 7.4375 -2.710938 7.65625 -3.617188 7.65625 -4.828125 Z M 7.65625 -4.828125 "/></g></g></g><g fill="#17191a" fill-opacity="1"><g transform="translate(80.576431, 31.534074)"><g><path d="M 5.828125 -8.046875 C 5.578125 -8.085938 5.3125 -8.109375 5.03125 -8.109375 C 3.957031 -8.109375 3.234375 -7.65625 2.859375 -6.75 L 2.859375 0 L 1.234375 0 L 1.234375 -9.515625 L 2.8125 -9.515625 L 2.84375 -8.40625 C 3.375 -9.257812 4.128906 -9.6875 5.109375 -9.6875 C 5.421875 -9.6875 5.660156 -9.644531 5.828125 -9.5625 Z M 5.828125 -8.046875 "/></g></g></g><g fill="#17191a" fill-opacity="1"><g transform="translate(86.665733, 31.534074)"><g><path d="M 0.796875 -4.84375 C 0.796875 -5.769531 0.976562 -6.601562 1.34375 -7.34375 C 1.71875 -8.09375 2.226562 -8.671875 2.875 -9.078125 C 3.53125 -9.484375 4.273438 -9.6875 5.109375 -9.6875 C 6.410156 -9.6875 7.457031 -9.238281 8.25 -8.34375 C 9.050781 -7.445312 9.453125 -6.253906 9.453125 -4.765625 L 9.453125 -4.65625 C 9.453125 -3.726562 9.273438 -2.894531 8.921875 -2.15625 C 8.566406 -1.425781 8.0625 -0.851562 7.40625 -0.4375 C 6.75 -0.03125 5.992188 0.171875 5.140625 0.171875 C 3.847656 0.171875 2.800781 -0.273438 2 -1.171875 C 1.195312 -2.066406 0.796875 -3.253906 0.796875 -4.734375 Z M 2.4375 -4.65625 C 2.4375 -3.59375 2.679688 -2.742188 3.171875 -2.109375 C 3.660156 -1.472656 4.316406 -1.15625 5.140625 -1.15625 C 5.960938 -1.15625 6.613281 -1.476562 7.09375 -2.125 C 7.582031 -2.769531 7.828125 -3.675781 7.828125 -4.84375 C 7.828125 -5.882812 7.578125 -6.726562 7.078125 -7.375 C 6.585938 -8.019531 5.929688 -8.34375 5.109375 -8.34375 C 4.304688 -8.34375 3.660156 -8.023438 3.171875 -7.390625 C 2.679688 -6.753906 2.4375 -5.84375 2.4375 -4.65625 Z M 2.4375 -4.65625 "/></g></g></g><g fill="#17191a" fill-opacity="1"><g transform="translate(96.928799, 31.534074)"><g><path d="M 2.90625 -9.515625 L 2.90625 1.09375 C 2.90625 2.925781 2.078125 3.84375 0.421875 3.84375 C 0.0664062 3.84375 -0.265625 3.789062 -0.578125 3.6875 L -0.578125 2.375 C -0.390625 2.425781 -0.140625 2.453125 0.171875 2.453125 C 0.535156 2.453125 0.8125 2.351562 1 2.15625 C 1.1875 1.957031 1.28125 1.617188 1.28125 1.140625 L 1.28125 -9.515625 Z M 1.109375 -12.03125 C 1.109375 -12.289062 1.1875 -12.507812 1.34375 -12.6875 C 1.507812 -12.875 1.75 -12.96875 2.0625 -12.96875 C 2.382812 -12.96875 2.625 -12.875 2.78125 -12.6875 C 2.945312 -12.507812 3.03125 -12.289062 3.03125 -12.03125 C 3.03125 -11.769531 2.945312 -11.550781 2.78125 -11.375 C 2.625 -11.195312 2.382812 -11.109375 2.0625 -11.109375 C 1.75 -11.109375 1.507812 -11.195312 1.34375 -11.375 C 1.1875 -11.550781 1.109375 -11.769531 1.109375 -12.03125 Z M 1.109375 -12.03125 "/></g></g></g><g fill="#17191a" fill-opacity="1"><g transform="translate(101.22558, 31.534074)"><g/></g></g><g fill="#17191a" fill-opacity="1"><g transform="translate(105.680524, 31.534074)"><g><path d="M 2.90625 -9.515625 L 2.90625 1.09375 C 2.90625 2.925781 2.078125 3.84375 0.421875 3.84375 C 0.0664062 3.84375 -0.265625 3.789062 -0.578125 3.6875 L -0.578125 2.375 C -0.390625 2.425781 -0.140625 2.453125 0.171875 2.453125 C 0.535156 2.453125 0.8125 2.351562 1 2.15625 C 1.1875 1.957031 1.28125 1.617188 1.28125 1.140625 L 1.28125 -9.515625 Z M 1.109375 -12.03125 C 1.109375 -12.289062 1.1875 -12.507812 1.34375 -12.6875 C 1.507812 -12.875 1.75 -12.96875 2.0625 -12.96875 C 2.382812 -12.96875 2.625 -12.875 2.78125 -12.6875 C 2.945312 -12.507812 3.03125 -12.289062 3.03125 -12.03125 C 3.03125 -11.769531 2.945312 -11.550781 2.78125 -11.375 C 2.625 -11.195312 2.382812 -11.109375 2.0625 -11.109375 C 1.75 -11.109375 1.507812 -11.195312 1.34375 -11.375 C 1.1875 -11.550781 1.109375 -11.769531 1.109375 -12.03125 Z M 1.109375 -12.03125 "/></g></g></g><g fill="#17191a" fill-opacity="1"><g transform="translate(109.977304, 31.534074)"><g><path d="M 5.171875 0.171875 C 3.890625 0.171875 2.84375 -0.25 2.03125 -1.09375 C 1.21875 -1.9375 0.8125 -3.066406 0.8125 -4.484375 L 0.8125 -4.796875 C 0.8125 -5.734375 0.992188 -6.570312 1.359375 -7.3125 C 1.722656 -8.050781 2.226562 -8.628906 2.875 -9.046875 C 3.519531 -9.472656 4.21875 -9.6875 4.96875 -9.6875 C 6.207031 -9.6875 7.171875 -9.28125 7.859375 -8.46875 C 8.546875 -7.65625 8.890625 -6.488281 8.890625 -4.96875 L 8.890625 -4.296875 L 2.4375 -4.296875 C 2.46875 -3.359375 2.742188 -2.597656 3.265625 -2.015625 C 3.785156 -1.441406 4.453125 -1.15625 5.265625 -1.15625 C 5.835938 -1.15625 6.320312 -1.269531 6.71875 -1.5 C 7.125 -1.738281 7.472656 -2.050781 7.765625 -2.4375 L 8.765625 -1.65625 C 7.960938 -0.4375 6.765625 0.171875 5.171875 0.171875 Z M 4.96875 -8.34375 C 4.3125 -8.34375 3.757812 -8.101562 3.3125 -7.625 C 2.875 -7.15625 2.601562 -6.488281 2.5 -5.625 L 7.265625 -5.625 L 7.265625 -5.75 C 7.210938 -6.570312 6.988281 -7.207031 6.59375 -7.65625 C 6.195312 -8.113281 5.65625 -8.34375 4.96875 -8.34375 Z M 4.96875 -8.34375 "/></g></g></g><g fill="#17191a" fill-opacity="1"><g transform="translate(119.51106, 31.534074)"><g/></g></g><g fill="#17191a" fill-opacity="1"><g transform="translate(123.966004, 31.534074)"><g><path d="M 3.421875 -7.1875 L 4.65625 -7.1875 C 5.414062 -7.195312 6.015625 -7.398438 6.453125 -7.796875 C 6.898438 -8.191406 7.125 -8.722656 7.125 -9.390625 C 7.125 -10.890625 6.375 -11.640625 4.875 -11.640625 C 4.175781 -11.640625 3.613281 -11.4375 3.1875 -11.03125 C 2.769531 -10.632812 2.5625 -10.101562 2.5625 -9.4375 L 0.9375 -9.4375 C 0.9375 -10.445312 1.304688 -11.285156 2.046875 -11.953125 C 2.796875 -12.628906 3.738281 -12.96875 4.875 -12.96875 C 6.082031 -12.96875 7.03125 -12.648438 7.71875 -12.015625 C 8.40625 -11.378906 8.75 -10.492188 8.75 -9.359375 C 8.75 -8.796875 8.566406 -8.253906 8.203125 -7.734375 C 7.847656 -7.210938 7.359375 -6.820312 6.734375 -6.5625 C 7.429688 -6.34375 7.972656 -5.972656 8.359375 -5.453125 C 8.742188 -4.941406 8.9375 -4.3125 8.9375 -3.5625 C 8.9375 -2.414062 8.5625 -1.503906 7.8125 -0.828125 C 7.0625 -0.160156 6.082031 0.171875 4.875 0.171875 C 3.675781 0.171875 2.703125 -0.148438 1.953125 -0.796875 C 1.203125 -1.453125 0.828125 -2.3125 0.828125 -3.375 L 2.46875 -3.375 C 2.46875 -2.695312 2.6875 -2.15625 3.125 -1.75 C 3.5625 -1.351562 4.148438 -1.15625 4.890625 -1.15625 C 5.671875 -1.15625 6.269531 -1.359375 6.6875 -1.765625 C 7.101562 -2.171875 7.3125 -2.757812 7.3125 -3.53125 C 7.3125 -4.28125 7.082031 -4.851562 6.625 -5.25 C 6.164062 -5.644531 5.507812 -5.847656 4.65625 -5.859375 L 3.421875 -5.859375 Z M 3.421875 -7.1875 "/></g></g></g><g fill="#17191a" fill-opacity="1"><g transform="translate(134.070906, 31.534074)"><g/></g></g><g fill="#17191a" fill-opacity="1"><g transform="translate(138.52585, 31.534074)"><g><path d="M 9.265625 -4.65625 C 9.265625 -3.207031 8.929688 -2.039062 8.265625 -1.15625 C 7.609375 -0.269531 6.710938 0.171875 5.578125 0.171875 C 4.421875 0.171875 3.515625 -0.191406 2.859375 -0.921875 L 2.859375 3.65625 L 1.234375 3.65625 L 1.234375 -9.515625 L 2.71875 -9.515625 L 2.796875 -8.453125 C 3.453125 -9.273438 4.375 -9.6875 5.5625 -9.6875 C 6.695312 -9.6875 7.597656 -9.253906 8.265625 -8.390625 C 8.929688 -7.535156 9.265625 -6.335938 9.265625 -4.796875 Z M 7.640625 -4.828125 C 7.640625 -5.898438 7.410156 -6.75 6.953125 -7.375 C 6.492188 -8 5.867188 -8.3125 5.078125 -8.3125 C 4.085938 -8.3125 3.347656 -7.875 2.859375 -7 L 2.859375 -2.453125 C 3.347656 -1.585938 4.09375 -1.15625 5.09375 -1.15625 C 5.875 -1.15625 6.492188 -1.460938 6.953125 -2.078125 C 7.410156 -2.691406 7.640625 -3.609375 7.640625 -4.828125 Z M 7.640625 -4.828125 "/></g></g></g><g fill="#17191a" fill-opacity="1"><g transform="translate(148.621966, 31.534074)"><g><path d="M 7.109375 -0.9375 C 6.472656 -0.195312 5.539062 0.171875 4.3125 0.171875 C 3.300781 0.171875 2.53125 -0.117188 2 -0.703125 C 1.46875 -1.296875 1.203125 -2.171875 1.203125 -3.328125 L 1.203125 -9.515625 L 2.828125 -9.515625 L 2.828125 -3.359375 C 2.828125 -1.921875 3.410156 -1.203125 4.578125 -1.203125 C 5.816406 -1.203125 6.644531 -1.664062 7.0625 -2.59375 L 7.0625 -9.515625 L 8.6875 -9.515625 L 8.6875 0 L 7.140625 0 Z M 7.109375 -0.9375 "/></g></g></g><g fill="#17191a" fill-opacity="1"><g transform="translate(158.542344, 31.534074)"><g><path d="M 3.4375 -11.8125 L 3.4375 -9.515625 L 5.21875 -9.515625 L 5.21875 -8.25 L 3.4375 -8.25 L 3.4375 -2.359375 C 3.4375 -1.972656 3.515625 -1.6875 3.671875 -1.5 C 3.828125 -1.3125 4.097656 -1.21875 4.484375 -1.21875 C 4.671875 -1.21875 4.925781 -1.25 5.25 -1.3125 L 5.25 0 C 4.820312 0.113281 4.410156 0.171875 4.015625 0.171875 C 3.285156 0.171875 2.734375 -0.046875 2.359375 -0.484375 C 1.992188 -0.921875 1.8125 -1.546875 1.8125 -2.359375 L 1.8125 -8.25 L 0.078125 -8.25 L 0.078125 -9.515625 L 1.8125 -9.515625 L 1.8125 -11.8125 Z M 3.4375 -11.8125 "/></g></g></g><g fill="#17191a" fill-opacity="1"><g transform="translate(164.420762, 31.534074)"><g><path d="M 7.109375 0 C 7.015625 -0.1875 6.9375 -0.519531 6.875 -1 C 6.113281 -0.21875 5.210938 0.171875 4.171875 0.171875 C 3.234375 0.171875 2.460938 -0.09375 1.859375 -0.625 C 1.253906 -1.15625 0.953125 -1.828125 0.953125 -2.640625 C 0.953125 -3.628906 1.328125 -4.394531 2.078125 -4.9375 C 2.835938 -5.488281 3.898438 -5.765625 5.265625 -5.765625 L 6.84375 -5.765625 L 6.84375 -6.515625 C 6.84375 -7.078125 6.671875 -7.523438 6.328125 -7.859375 C 5.992188 -8.203125 5.492188 -8.375 4.828125 -8.375 C 4.253906 -8.375 3.769531 -8.226562 3.375 -7.9375 C 2.976562 -7.644531 2.78125 -7.289062 2.78125 -6.875 L 1.15625 -6.875 C 1.15625 -7.34375 1.320312 -7.796875 1.65625 -8.234375 C 1.988281 -8.679688 2.441406 -9.035156 3.015625 -9.296875 C 3.597656 -9.554688 4.238281 -9.6875 4.9375 -9.6875 C 6.03125 -9.6875 6.882812 -9.410156 7.5 -8.859375 C 8.125 -8.316406 8.445312 -7.5625 8.46875 -6.59375 L 8.46875 -2.21875 C 8.46875 -1.351562 8.582031 -0.660156 8.8125 -0.140625 L 8.8125 0 Z M 4.40625 -1.234375 C 4.914062 -1.234375 5.398438 -1.363281 5.859375 -1.625 C 6.316406 -1.894531 6.644531 -2.238281 6.84375 -2.65625 L 6.84375 -4.609375 L 5.578125 -4.609375 C 3.578125 -4.609375 2.578125 -4.023438 2.578125 -2.859375 C 2.578125 -2.347656 2.75 -1.945312 3.09375 -1.65625 C 3.4375 -1.375 3.875 -1.234375 4.40625 -1.234375 Z M 4.40625 -1.234375 "/></g></g></g><g fill="#17191a" fill-opacity="1"><g transform="translate(174.209337, 31.534074)"><g/></g></g><g fill="#17191a" fill-opacity="1"><g transform="translate(178.664281, 31.534074)"><g><path d="M 4.375 -2.203125 L 6.71875 -9.515625 L 8.390625 -9.515625 L 4.96875 0 L 3.734375 0 L 0.296875 -9.515625 L 1.953125 -9.515625 Z M 4.375 -2.203125 "/></g></g></g><g fill="#17191a" fill-opacity="1"><g transform="translate(187.380858, 31.534074)"><g><path d="M 5.171875 0.171875 C 3.890625 0.171875 2.84375 -0.25 2.03125 -1.09375 C 1.21875 -1.9375 0.8125 -3.066406 0.8125 -4.484375 L 0.8125 -4.796875 C 0.8125 -5.734375 0.992188 -6.570312 1.359375 -7.3125 C 1.722656 -8.050781 2.226562 -8.628906 2.875 -9.046875 C 3.519531 -9.472656 4.21875 -9.6875 4.96875 -9.6875 C 6.207031 -9.6875 7.171875 -9.28125 7.859375 -8.46875 C 8.546875 -7.65625 8.890625 -6.488281 8.890625 -4.96875 L 8.890625 -4.296875 L 2.4375 -4.296875 C 2.46875 -3.359375 2.742188 -2.597656 3.265625 -2.015625 C 3.785156 -1.441406 4.453125 -1.15625 5.265625 -1.15625 C 5.835938 -1.15625 6.320312 -1.269531 6.71875 -1.5 C 7.125 -1.738281 7.472656 -2.050781 7.765625 -2.4375 L 8.765625 -1.65625 C 7.960938 -0.4375 6.765625 0.171875 5.171875 0.171875 Z M 4.96875 -8.34375 C 4.3125 -8.34375 3.757812 -8.101562 3.3125 -7.625 C 2.875 -7.15625 2.601562 -6.488281 2.5 -5.625 L 7.265625 -5.625 L 7.265625 -5.75 C 7.210938 -6.570312 6.988281 -7.207031 6.59375 -7.65625 C 6.195312 -8.113281 5.65625 -8.34375 4.96875 -8.34375 Z M 4.96875 -8.34375 "/></g></g></g><g fill="#17191a" fill-opacity="1"><g transform="translate(196.914613, 31.534074)"><g><path d="M 5.046875 -1.15625 C 5.628906 -1.15625 6.132812 -1.328125 6.5625 -1.671875 C 7 -2.023438 7.238281 -2.46875 7.28125 -3 L 8.828125 -3 C 8.796875 -2.457031 8.609375 -1.9375 8.265625 -1.4375 C 7.921875 -0.945312 7.457031 -0.554688 6.875 -0.265625 C 6.300781 0.0234375 5.691406 0.171875 5.046875 0.171875 C 3.753906 0.171875 2.722656 -0.257812 1.953125 -1.125 C 1.191406 -1.988281 0.8125 -3.171875 0.8125 -4.671875 L 0.8125 -4.9375 C 0.8125 -5.863281 0.976562 -6.6875 1.3125 -7.40625 C 1.65625 -8.125 2.144531 -8.679688 2.78125 -9.078125 C 3.414062 -9.484375 4.164062 -9.6875 5.03125 -9.6875 C 6.101562 -9.6875 6.988281 -9.363281 7.6875 -8.71875 C 8.394531 -8.082031 8.773438 -7.253906 8.828125 -6.234375 L 7.28125 -6.234375 C 7.238281 -6.847656 7.003906 -7.351562 6.578125 -7.75 C 6.160156 -8.144531 5.644531 -8.34375 5.03125 -8.34375 C 4.207031 -8.34375 3.566406 -8.046875 3.109375 -7.453125 C 2.660156 -6.859375 2.4375 -6 2.4375 -4.875 L 2.4375 -4.578125 C 2.4375 -3.472656 2.660156 -2.625 3.109375 -2.03125 C 3.554688 -1.445312 4.203125 -1.15625 5.046875 -1.15625 Z M 5.484375 -13.5 L 7.453125 -13.5 L 5.09375 -10.921875 L 3.78125 -10.921875 Z M 5.484375 -13.5 "/></g></g></g><g fill="#17191a" fill-opacity="1"><g transform="translate(206.33414, 31.534074)"><g><path d="M 3 0 L 1.375 0 L 1.375 -9.515625 L 3 -9.515625 Z M 1.234375 -12.03125 C 1.234375 -12.289062 1.3125 -12.507812 1.46875 -12.6875 C 1.632812 -12.875 1.875 -12.96875 2.1875 -12.96875 C 2.507812 -12.96875 2.753906 -12.875 2.921875 -12.6875 C 3.085938 -12.507812 3.171875 -12.289062 3.171875 -12.03125 C 3.171875 -11.769531 3.085938 -11.550781 2.921875 -11.375 C 2.753906 -11.195312 2.507812 -11.109375 2.1875 -11.109375 C 1.875 -11.109375 1.632812 -11.195312 1.46875 -11.375 C 1.3125 -11.550781 1.234375 -11.769531 1.234375 -12.03125 Z M 1.234375 -12.03125 "/></g></g></g><g fill="#17191a" fill-opacity="1"><g transform="translate(210.701215, 31.534074)"><g/></g></g><g fill="#17191a" fill-opacity="1"><g transform="translate(215.156159, 31.534074)"><g><path d="M 0.796875 -4.84375 C 0.796875 -5.769531 0.976562 -6.601562 1.34375 -7.34375 C 1.71875 -8.09375 2.226562 -8.671875 2.875 -9.078125 C 3.53125 -9.484375 4.273438 -9.6875 5.109375 -9.6875 C 6.410156 -9.6875 7.457031 -9.238281 8.25 -8.34375 C 9.050781 -7.445312 9.453125 -6.253906 9.453125 -4.765625 L 9.453125 -4.65625 C 9.453125 -3.726562 9.273438 -2.894531 8.921875 -2.15625 C 8.566406 -1.425781 8.0625 -0.851562 7.40625 -0.4375 C 6.75 -0.03125 5.992188 0.171875 5.140625 0.171875 C 3.847656 0.171875 2.800781 -0.273438 2 -1.171875 C 1.195312 -2.066406 0.796875 -3.253906 0.796875 -4.734375 Z M 2.4375 -4.65625 C 2.4375 -3.59375 2.679688 -2.742188 3.171875 -2.109375 C 3.660156 -1.472656 4.316406 -1.15625 5.140625 -1.15625 C 5.960938 -1.15625 6.613281 -1.476562 7.09375 -2.125 C 7.582031 -2.769531 7.828125 -3.675781 7.828125 -4.84375 C 7.828125 -5.882812 7.578125 -6.726562 7.078125 -7.375 C 6.585938 -8.019531 5.929688 -8.34375 5.109375 -8.34375 C 4.304688 -8.34375 3.660156 -8.023438 3.171875 -7.390625 C 2.679688 -6.753906 2.4375 -5.84375 2.4375 -4.65625 Z M 2.4375 -4.65625 "/></g></g></g><g fill="#17191a" fill-opacity="1"><g transform="translate(225.419226, 31.534074)"><g><path d="M 0.828125 -4.828125 C 0.828125 -6.285156 1.171875 -7.457031 1.859375 -8.34375 C 2.554688 -9.238281 3.46875 -9.6875 4.59375 -9.6875 C 5.707031 -9.6875 6.585938 -9.304688 7.234375 -8.546875 L 7.234375 -13.5 L 8.859375 -13.5 L 8.859375 0 L 7.359375 0 L 7.28125 -1.015625 C 6.632812 -0.222656 5.734375 0.171875 4.578125 0.171875 C 3.472656 0.171875 2.570312 -0.273438 1.875 -1.171875 C 1.175781 -2.078125 0.828125 -3.257812 0.828125 -4.71875 Z M 2.46875 -4.65625 C 2.46875 -3.570312 2.6875 -2.722656 3.125 -2.109375 C 3.570312 -1.503906 4.1875 -1.203125 4.96875 -1.203125 C 6 -1.203125 6.753906 -1.664062 7.234375 -2.59375 L 7.234375 -6.96875 C 6.742188 -7.863281 6 -8.3125 5 -8.3125 C 4.195312 -8.3125 3.570312 -8 3.125 -7.375 C 2.6875 -6.757812 2.46875 -5.851562 2.46875 -4.65625 Z M 2.46875 -4.65625 "/></g></g></g><g fill="#17191a" fill-opacity="1"><g transform="translate(235.568063, 31.534074)"><g/></g></g><g fill="#17191a" fill-opacity="1"><g transform="translate(240.02302, 31.534074)"><g><path d="M 5.828125 -8.046875 C 5.578125 -8.085938 5.3125 -8.109375 5.03125 -8.109375 C 3.957031 -8.109375 3.234375 -7.65625 2.859375 -6.75 L 2.859375 0 L 1.234375 0 L 1.234375 -9.515625 L 2.8125 -9.515625 L 2.84375 -8.40625 C 3.375 -9.257812 4.128906 -9.6875 5.109375 -9.6875 C 5.421875 -9.6875 5.660156 -9.644531 5.828125 -9.5625 Z M 5.828125 -8.046875 "/></g></g></g><g fill="#17191a" fill-opacity="1"><g transform="translate(246.112334, 31.534074)"><g><path d="M 2.90625 -9.515625 L 2.90625 1.09375 C 2.90625 2.925781 2.078125 3.84375 0.421875 3.84375 C 0.0664062 3.84375 -0.265625 3.789062 -0.578125 3.6875 L -0.578125 2.375 C -0.390625 2.425781 -0.140625 2.453125 0.171875 2.453125 C 0.535156 2.453125 0.8125 2.351562 1 2.15625 C 1.1875 1.957031 1.28125 1.617188 1.28125 1.140625 L 1.28125 -9.515625 Z M 1.109375 -12.03125 C 1.109375 -12.289062 1.1875 -12.507812 1.34375 -12.6875 C 1.507812 -12.875 1.75 -12.96875 2.0625 -12.96875 C 2.382812 -12.96875 2.625 -12.875 2.78125 -12.6875 C 2.945312 -12.507812 3.03125 -12.289062 3.03125 -12.03125 C 3.03125 -11.769531 2.945312 -11.550781 2.78125 -11.375 C 2.625 -11.195312 2.382812 -11.109375 2.0625 -11.109375 C 1.75 -11.109375 1.507812 -11.195312 1.34375 -11.375 C 1.1875 -11.550781 1.109375 -11.769531 1.109375 -12.03125 Z M 1.109375 -12.03125 "/></g></g></g><g fill="#17191a" fill-opacity="1"><g transform="translate(250.409128, 31.534074)"><g><path d="M 5.171875 0.171875 C 3.890625 0.171875 2.84375 -0.25 2.03125 -1.09375 C 1.21875 -1.9375 0.8125 -3.066406 0.8125 -4.484375 L 0.8125 -4.796875 C 0.8125 -5.734375 0.992188 -6.570312 1.359375 -7.3125 C 1.722656 -8.050781 2.226562 -8.628906 2.875 -9.046875 C 3.519531 -9.472656 4.21875 -9.6875 4.96875 -9.6875 C 6.207031 -9.6875 7.171875 -9.28125 7.859375 -8.46875 C 8.546875 -7.65625 8.890625 -6.488281 8.890625 -4.96875 L 8.890625 -4.296875 L 2.4375 -4.296875 C 2.46875 -3.359375 2.742188 -2.597656 3.265625 -2.015625 C 3.785156 -1.441406 4.453125 -1.15625 5.265625 -1.15625 C 5.835938 -1.15625 6.320312 -1.269531 6.71875 -1.5 C 7.125 -1.738281 7.472656 -2.050781 7.765625 -2.4375 L 8.765625 -1.65625 C 7.960938 -0.4375 6.765625 0.171875 5.171875 0.171875 Z M 4.96875 -8.34375 C 4.3125 -8.34375 3.757812 -8.101562 3.3125 -7.625 C 2.875 -7.15625 2.601562 -6.488281 2.5 -5.625 L 7.265625 -5.625 L 7.265625 -5.75 C 7.210938 -6.570312 6.988281 -7.207031 6.59375 -7.65625 C 6.195312 -8.113281 5.65625 -8.34375 4.96875 -8.34375 Z M 4.96875 -8.34375 "/></g></g></g><g fill="#17191a" fill-opacity="1"><g transform="translate(259.942896, 31.534074)"><g><path d="M 6.765625 -2.515625 C 6.765625 -2.960938 6.597656 -3.304688 6.265625 -3.546875 C 5.941406 -3.785156 5.367188 -3.992188 4.546875 -4.171875 C 3.722656 -4.347656 3.066406 -4.554688 2.578125 -4.796875 C 2.097656 -5.046875 1.738281 -5.34375 1.5 -5.6875 C 1.269531 -6.03125 1.15625 -6.4375 1.15625 -6.90625 C 1.15625 -7.675781 1.484375 -8.332031 2.140625 -8.875 C 2.804688 -9.414062 3.648438 -9.6875 4.671875 -9.6875 C 5.753906 -9.6875 6.628906 -9.40625 7.296875 -8.84375 C 7.972656 -8.289062 8.3125 -7.582031 8.3125 -6.71875 L 6.671875 -6.71875 C 6.671875 -7.164062 6.476562 -7.546875 6.09375 -7.859375 C 5.71875 -8.179688 5.242188 -8.34375 4.671875 -8.34375 C 4.078125 -8.34375 3.613281 -8.210938 3.28125 -7.953125 C 2.945312 -7.703125 2.78125 -7.367188 2.78125 -6.953125 C 2.78125 -6.554688 2.9375 -6.257812 3.25 -6.0625 C 3.5625 -5.863281 4.125 -5.671875 4.9375 -5.484375 C 5.75 -5.304688 6.40625 -5.09375 6.90625 -4.84375 C 7.414062 -4.59375 7.789062 -4.289062 8.03125 -3.9375 C 8.269531 -3.582031 8.390625 -3.148438 8.390625 -2.640625 C 8.390625 -1.785156 8.050781 -1.101562 7.375 -0.59375 C 6.695312 -0.0820312 5.816406 0.171875 4.734375 0.171875 C 3.972656 0.171875 3.296875 0.0351562 2.703125 -0.234375 C 2.117188 -0.503906 1.660156 -0.878906 1.328125 -1.359375 C 0.992188 -1.835938 0.828125 -2.359375 0.828125 -2.921875 L 2.46875 -2.921875 C 2.488281 -2.378906 2.703125 -1.945312 3.109375 -1.625 C 3.523438 -1.3125 4.066406 -1.15625 4.734375 -1.15625 C 5.347656 -1.15625 5.835938 -1.28125 6.203125 -1.53125 C 6.578125 -1.78125 6.765625 -2.109375 6.765625 -2.515625 Z M 4.9375 -12.015625 L 6.25 -13.5 L 7.65625 -13.5 L 7.65625 -13.421875 L 5.421875 -11.015625 L 4.4375 -11.015625 L 2.21875 -13.421875 L 2.21875 -13.5 L 3.609375 -13.5 Z M 4.9375 -12.015625 "/></g></g></g><g fill="#17191a" fill-opacity="1"><g transform="translate(269.221833, 31.534074)"><g><path d="M 5.171875 0.171875 C 3.890625 0.171875 2.84375 -0.25 2.03125 -1.09375 C 1.21875 -1.9375 0.8125 -3.066406 0.8125 -4.484375 L 0.8125 -4.796875 C 0.8125 -5.734375 0.992188 -6.570312 1.359375 -7.3125 C 1.722656 -8.050781 2.226562 -8.628906 2.875 -9.046875 C 3.519531 -9.472656 4.21875 -9.6875 4.96875 -9.6875 C 6.207031 -9.6875 7.171875 -9.28125 7.859375 -8.46875 C 8.546875 -7.65625 8.890625 -6.488281 8.890625 -4.96875 L 8.890625 -4.296875 L 2.4375 -4.296875 C 2.46875 -3.359375 2.742188 -2.597656 3.265625 -2.015625 C 3.785156 -1.441406 4.453125 -1.15625 5.265625 -1.15625 C 5.835938 -1.15625 6.320312 -1.269531 6.71875 -1.5 C 7.125 -1.738281 7.472656 -2.050781 7.765625 -2.4375 L 8.765625 -1.65625 C 7.960938 -0.4375 6.765625 0.171875 5.171875 0.171875 Z M 4.96875 -8.34375 C 4.3125 -8.34375 3.757812 -8.101562 3.3125 -7.625 C 2.875 -7.15625 2.601562 -6.488281 2.5 -5.625 L 7.265625 -5.625 L 7.265625 -5.75 C 7.210938 -6.570312 6.988281 -7.207031 6.59375 -7.65625 C 6.195312 -8.113281 5.65625 -8.34375 4.96875 -8.34375 Z M 4.96875 -8.34375 "/></g></g></g><g fill="#17191a" fill-opacity="1"><g transform="translate(278.755602, 31.534074)"><g><path d="M 2.765625 -9.515625 L 2.828125 -8.3125 C 3.546875 -9.226562 4.492188 -9.6875 5.671875 -9.6875 C 7.679688 -9.6875 8.691406 -8.550781 8.703125 -6.28125 L 8.703125 0 L 7.078125 0 L 7.078125 -6.296875 C 7.078125 -6.984375 6.921875 -7.488281 6.609375 -7.8125 C 6.304688 -8.144531 5.828125 -8.3125 5.171875 -8.3125 C 4.648438 -8.3125 4.1875 -8.171875 3.78125 -7.890625 C 3.382812 -7.609375 3.078125 -7.238281 2.859375 -6.78125 L 2.859375 0 L 1.234375 0 L 1.234375 -9.515625 Z M 2.765625 -9.515625 "/></g></g></g><g fill="#17191a" fill-opacity="1"><g transform="translate(288.684767, 31.534074)"><g><path d="M 2.90625 -9.515625 L 2.90625 1.09375 C 2.90625 2.925781 2.078125 3.84375 0.421875 3.84375 C 0.0664062 3.84375 -0.265625 3.789062 -0.578125 3.6875 L -0.578125 2.375 C -0.390625 2.425781 -0.140625 2.453125 0.171875 2.453125 C 0.535156 2.453125 0.8125 2.351562 1 2.15625 C 1.1875 1.957031 1.28125 1.617188 1.28125 1.140625 L 1.28125 -9.515625 Z M 1.109375 -12.03125 C 1.109375 -12.289062 1.1875 -12.507812 1.34375 -12.6875 C 1.507812 -12.875 1.75 -12.96875 2.0625 -12.96875 C 2.382812 -12.96875 2.625 -12.875 2.78125 -12.6875 C 2.945312 -12.507812 3.03125 -12.289062 3.03125 -12.03125 C 3.03125 -11.769531 2.945312 -11.550781 2.78125 -11.375 C 2.625 -11.195312 2.382812 -11.109375 2.0625 -11.109375 C 1.75 -11.109375 1.507812 -11.195312 1.34375 -11.375 C 1.1875 -11.550781 1.109375 -11.769531 1.109375 -12.03125 Z M 1.109375 -12.03125 "/></g></g></g><g fill="#17191a" fill-opacity="1"><g transform="translate(292.981535, 31.534074)"><g><path d="M 7.109375 0 C 7.015625 -0.1875 6.9375 -0.519531 6.875 -1 C 6.113281 -0.21875 5.210938 0.171875 4.171875 0.171875 C 3.234375 0.171875 2.460938 -0.09375 1.859375 -0.625 C 1.253906 -1.15625 0.953125 -1.828125 0.953125 -2.640625 C 0.953125 -3.628906 1.328125 -4.394531 2.078125 -4.9375 C 2.835938 -5.488281 3.898438 -5.765625 5.265625 -5.765625 L 6.84375 -5.765625 L 6.84375 -6.515625 C 6.84375 -7.078125 6.671875 -7.523438 6.328125 -7.859375 C 5.992188 -8.203125 5.492188 -8.375 4.828125 -8.375 C 4.253906 -8.375 3.769531 -8.226562 3.375 -7.9375 C 2.976562 -7.644531 2.78125 -7.289062 2.78125 -6.875 L 1.15625 -6.875 C 1.15625 -7.34375 1.320312 -7.796875 1.65625 -8.234375 C 1.988281 -8.679688 2.441406 -9.035156 3.015625 -9.296875 C 3.597656 -9.554688 4.238281 -9.6875 4.9375 -9.6875 C 6.03125 -9.6875 6.882812 -9.410156 7.5 -8.859375 C 8.125 -8.316406 8.445312 -7.5625 8.46875 -6.59375 L 8.46875 -2.21875 C 8.46875 -1.351562 8.582031 -0.660156 8.8125 -0.140625 L 8.8125 0 Z M 4.40625 -1.234375 C 4.914062 -1.234375 5.398438 -1.363281 5.859375 -1.625 C 6.316406 -1.894531 6.644531 -2.238281 6.84375 -2.65625 L 6.84375 -4.609375 L 5.578125 -4.609375 C 3.578125 -4.609375 2.578125 -4.023438 2.578125 -2.859375 C 2.578125 -2.347656 2.75 -1.945312 3.09375 -1.65625 C 3.4375 -1.375 3.875 -1.234375 4.40625 -1.234375 Z M 4.40625 -1.234375 "/></g></g></g><g fill="#17191a" fill-opacity="1"><g transform="translate(15.000006, 56.535077)"><g><path d="M 2.90625 -9.515625 L 2.90625 1.09375 C 2.90625 2.925781 2.078125 3.84375 0.421875 3.84375 C 0.0664062 3.84375 -0.265625 3.789062 -0.578125 3.6875 L -0.578125 2.375 C -0.390625 2.425781 -0.140625 2.453125 0.171875 2.453125 C 0.535156 2.453125 0.8125 2.351562 1 2.15625 C 1.1875 1.957031 1.28125 1.617188 1.28125 1.140625 L 1.28125 -9.515625 Z M 1.109375 -12.03125 C 1.109375 -12.289062 1.1875 -12.507812 1.34375 -12.6875 C 1.507812 -12.875 1.75 -12.96875 2.0625 -12.96875 C 2.382812 -12.96875 2.625 -12.875 2.78125 -12.6875 C 2.945312 -12.507812 3.03125 -12.289062 3.03125 -12.03125 C 3.03125 -11.769531 2.945312 -11.550781 2.78125 -11.375 C 2.625 -11.195312 2.382812 -11.109375 2.0625 -11.109375 C 1.75 -11.109375 1.507812 -11.195312 1.34375 -11.375 C 1.1875 -11.550781 1.109375 -11.769531 1.109375 -12.03125 Z M 1.109375 -12.03125 "/></g></g></g><g fill="#17191a" fill-opacity="1"><g transform="translate(19.296787, 56.535077)"><g><path d="M 5.171875 0.171875 C 3.890625 0.171875 2.84375 -0.25 2.03125 -1.09375 C 1.21875 -1.9375 0.8125 -3.066406 0.8125 -4.484375 L 0.8125 -4.796875 C 0.8125 -5.734375 0.992188 -6.570312 1.359375 -7.3125 C 1.722656 -8.050781 2.226562 -8.628906 2.875 -9.046875 C 3.519531 -9.472656 4.21875 -9.6875 4.96875 -9.6875 C 6.207031 -9.6875 7.171875 -9.28125 7.859375 -8.46875 C 8.546875 -7.65625 8.890625 -6.488281 8.890625 -4.96875 L 8.890625 -4.296875 L 2.4375 -4.296875 C 2.46875 -3.359375 2.742188 -2.597656 3.265625 -2.015625 C 3.785156 -1.441406 4.453125 -1.15625 5.265625 -1.15625 C 5.835938 -1.15625 6.320312 -1.269531 6.71875 -1.5 C 7.125 -1.738281 7.472656 -2.050781 7.765625 -2.4375 L 8.765625 -1.65625 C 7.960938 -0.4375 6.765625 0.171875 5.171875 0.171875 Z M 4.96875 -8.34375 C 4.3125 -8.34375 3.757812 -8.101562 3.3125 -7.625 C 2.875 -7.15625 2.601562 -6.488281 2.5 -5.625 L 7.265625 -5.625 L 7.265625 -5.75 C 7.210938 -6.570312 6.988281 -7.207031 6.59375 -7.65625 C 6.195312 -8.113281 5.65625 -8.34375 4.96875 -8.34375 Z M 4.96875 -8.34375 "/></g></g></g><g fill="#17191a" fill-opacity="1"><g transform="translate(28.830542, 56.535077)"><g><path d="M 0.828125 -4.828125 C 0.828125 -6.285156 1.171875 -7.457031 1.859375 -8.34375 C 2.554688 -9.238281 3.46875 -9.6875 4.59375 -9.6875 C 5.707031 -9.6875 6.585938 -9.304688 7.234375 -8.546875 L 7.234375 -13.5 L 8.859375 -13.5 L 8.859375 0 L 7.359375 0 L 7.28125 -1.015625 C 6.632812 -0.222656 5.734375 0.171875 4.578125 0.171875 C 3.472656 0.171875 2.570312 -0.273438 1.875 -1.171875 C 1.175781 -2.078125 0.828125 -3.257812 0.828125 -4.71875 Z M 2.46875 -4.65625 C 2.46875 -3.570312 2.6875 -2.722656 3.125 -2.109375 C 3.570312 -1.503906 4.1875 -1.203125 4.96875 -1.203125 C 6 -1.203125 6.753906 -1.664062 7.234375 -2.59375 L 7.234375 -6.96875 C 6.742188 -7.863281 6 -8.3125 5 -8.3125 C 4.195312 -8.3125 3.570312 -8 3.125 -7.375 C 2.6875 -6.757812 2.46875 -5.851562 2.46875 -4.65625 Z M 2.46875 -4.65625 "/></g></g></g><g fill="#17191a" fill-opacity="1"><g transform="translate(38.97938, 56.535077)"><g><path d="M 2.765625 -9.515625 L 2.828125 -8.3125 C 3.546875 -9.226562 4.492188 -9.6875 5.671875 -9.6875 C 7.679688 -9.6875 8.691406 -8.550781 8.703125 -6.28125 L 8.703125 0 L 7.078125 0 L 7.078125 -6.296875 C 7.078125 -6.984375 6.921875 -7.488281 6.609375 -7.8125 C 6.304688 -8.144531 5.828125 -8.3125 5.171875 -8.3125 C 4.648438 -8.3125 4.1875 -8.171875 3.78125 -7.890625 C 3.382812 -7.609375 3.078125 -7.238281 2.859375 -6.78125 L 2.859375 0 L 1.234375 0 L 1.234375 -9.515625 Z M 2.765625 -9.515625 "/></g></g></g><g fill="#17191a" fill-opacity="1"><g transform="translate(48.908545, 56.535077)"><g><path d="M 7.109375 0 C 7.015625 -0.1875 6.9375 -0.519531 6.875 -1 C 6.113281 -0.21875 5.210938 0.171875 4.171875 0.171875 C 3.234375 0.171875 2.460938 -0.09375 1.859375 -0.625 C 1.253906 -1.15625 0.953125 -1.828125 0.953125 -2.640625 C 0.953125 -3.628906 1.328125 -4.394531 2.078125 -4.9375 C 2.835938 -5.488281 3.898438 -5.765625 5.265625 -5.765625 L 6.84375 -5.765625 L 6.84375 -6.515625 C 6.84375 -7.078125 6.671875 -7.523438 6.328125 -7.859375 C 5.992188 -8.203125 5.492188 -8.375 4.828125 -8.375 C 4.253906 -8.375 3.769531 -8.226562 3.375 -7.9375 C 2.976562 -7.644531 2.78125 -7.289062 2.78125 -6.875 L 1.15625 -6.875 C 1.15625 -7.34375 1.320312 -7.796875 1.65625 -8.234375 C 1.988281 -8.679688 2.441406 -9.035156 3.015625 -9.296875 C 3.597656 -9.554688 4.238281 -9.6875 4.9375 -9.6875 C 6.03125 -9.6875 6.882812 -9.410156 7.5 -8.859375 C 8.125 -8.316406 8.445312 -7.5625 8.46875 -6.59375 L 8.46875 -2.21875 C 8.46875 -1.351562 8.582031 -0.660156 8.8125 -0.140625 L 8.8125 0 Z M 4.40625 -1.234375 C 4.914062 -1.234375 5.398438 -1.363281 5.859375 -1.625 C 6.316406 -1.894531 6.644531 -2.238281 6.84375 -2.65625 L 6.84375 -4.609375 L 5.578125 -4.609375 C 3.578125 -4.609375 2.578125 -4.023438 2.578125 -2.859375 C 2.578125 -2.347656 2.75 -1.945312 3.09375 -1.65625 C 3.4375 -1.375 3.875 -1.234375 4.40625 -1.234375 Z M 4.40625 -1.234375 "/></g></g></g><g fill="#17191a" fill-opacity="1"><g transform="translate(58.69712, 56.535077)"><g><path d="M 0.828125 -4.828125 C 0.828125 -6.285156 1.171875 -7.457031 1.859375 -8.34375 C 2.554688 -9.238281 3.46875 -9.6875 4.59375 -9.6875 C 5.707031 -9.6875 6.585938 -9.304688 7.234375 -8.546875 L 7.234375 -13.5 L 8.859375 -13.5 L 8.859375 0 L 7.359375 0 L 7.28125 -1.015625 C 6.632812 -0.222656 5.734375 0.171875 4.578125 0.171875 C 3.472656 0.171875 2.570312 -0.273438 1.875 -1.171875 C 1.175781 -2.078125 0.828125 -3.257812 0.828125 -4.71875 Z M 2.46875 -4.65625 C 2.46875 -3.570312 2.6875 -2.722656 3.125 -2.109375 C 3.570312 -1.503906 4.1875 -1.203125 4.96875 -1.203125 C 6 -1.203125 6.753906 -1.664062 7.234375 -2.59375 L 7.234375 -6.96875 C 6.742188 -7.863281 6 -8.3125 5 -8.3125 C 4.195312 -8.3125 3.570312 -8 3.125 -7.375 C 2.6875 -6.757812 2.46875 -5.851562 2.46875 -4.65625 Z M 2.46875 -4.65625 "/></g></g></g><g fill="#17191a" fill-opacity="1"><g transform="translate(68.845957, 56.535077)"><g><path d="M 2.765625 -1.328125 L 8.328125 -1.328125 L 8.328125 0 L 0.78125 0 L 0.78125 -1.203125 L 6.015625 -8.171875 L 0.859375 -8.171875 L 0.859375 -9.515625 L 8.0625 -9.515625 L 8.0625 -8.359375 Z M 4.515625 -12.015625 L 5.828125 -13.5 L 7.234375 -13.5 L 7.234375 -13.421875 L 5 -11.015625 L 4.015625 -11.015625 L 1.796875 -13.421875 L 1.796875 -13.5 L 3.1875 -13.5 Z M 4.515625 -12.015625 "/></g></g></g><g fill="#17191a" fill-opacity="1"><g transform="translate(77.764632, 56.535077)"><g><path d="M 9.28125 -4.65625 C 9.28125 -3.195312 8.945312 -2.023438 8.28125 -1.140625 C 7.613281 -0.265625 6.71875 0.171875 5.59375 0.171875 C 4.382812 0.171875 3.453125 -0.25 2.796875 -1.09375 L 2.71875 0 L 1.234375 0 L 1.234375 -13.5 L 2.859375 -13.5 L 2.859375 -8.46875 C 3.515625 -9.28125 4.414062 -9.6875 5.5625 -9.6875 C 6.71875 -9.6875 7.625 -9.25 8.28125 -8.375 C 8.945312 -7.5 9.28125 -6.304688 9.28125 -4.796875 Z M 7.65625 -4.828125 C 7.65625 -5.941406 7.441406 -6.800781 7.015625 -7.40625 C 6.585938 -8.007812 5.972656 -8.3125 5.171875 -8.3125 C 4.097656 -8.3125 3.328125 -7.8125 2.859375 -6.8125 L 2.859375 -2.703125 C 3.359375 -1.703125 4.132812 -1.203125 5.1875 -1.203125 C 5.96875 -1.203125 6.570312 -1.503906 7 -2.109375 C 7.4375 -2.710938 7.65625 -3.617188 7.65625 -4.828125 Z M 7.65625 -4.828125 "/></g></g></g><g fill="#17191a" fill-opacity="1"><g transform="translate(87.860748, 56.535077)"><g><path d="M 5.171875 0.171875 C 3.890625 0.171875 2.84375 -0.25 2.03125 -1.09375 C 1.21875 -1.9375 0.8125 -3.066406 0.8125 -4.484375 L 0.8125 -4.796875 C 0.8125 -5.734375 0.992188 -6.570312 1.359375 -7.3125 C 1.722656 -8.050781 2.226562 -8.628906 2.875 -9.046875 C 3.519531 -9.472656 4.21875 -9.6875 4.96875 -9.6875 C 6.207031 -9.6875 7.171875 -9.28125 7.859375 -8.46875 C 8.546875 -7.65625 8.890625 -6.488281 8.890625 -4.96875 L 8.890625 -4.296875 L 2.4375 -4.296875 C 2.46875 -3.359375 2.742188 -2.597656 3.265625 -2.015625 C 3.785156 -1.441406 4.453125 -1.15625 5.265625 -1.15625 C 5.835938 -1.15625 6.320312 -1.269531 6.71875 -1.5 C 7.125 -1.738281 7.472656 -2.050781 7.765625 -2.4375 L 8.765625 -1.65625 C 7.960938 -0.4375 6.765625 0.171875 5.171875 0.171875 Z M 4.96875 -8.34375 C 4.3125 -8.34375 3.757812 -8.101562 3.3125 -7.625 C 2.875 -7.15625 2.601562 -6.488281 2.5 -5.625 L 7.265625 -5.625 L 7.265625 -5.75 C 7.210938 -6.570312 6.988281 -7.207031 6.59375 -7.65625 C 6.195312 -8.113281 5.65625 -8.34375 4.96875 -8.34375 Z M 4.96875 -8.34375 "/></g></g></g><g fill="#17191a" fill-opacity="1"><g transform="translate(97.394504, 56.535077)"><g><path d="M 1.171875 -0.859375 C 1.171875 -1.140625 1.253906 -1.375 1.421875 -1.5625 C 1.585938 -1.75 1.835938 -1.84375 2.171875 -1.84375 C 2.503906 -1.84375 2.753906 -1.75 2.921875 -1.5625 C 3.097656 -1.375 3.1875 -1.140625 3.1875 -0.859375 C 3.1875 -0.585938 3.097656 -0.359375 2.921875 -0.171875 C 2.753906 0.00390625 2.503906 0.09375 2.171875 0.09375 C 1.835938 0.09375 1.585938 0.00390625 1.421875 -0.171875 C 1.253906 -0.359375 1.171875 -0.585938 1.171875 -0.859375 Z M 1.1875 -8.625 C 1.1875 -8.90625 1.269531 -9.140625 1.4375 -9.328125 C 1.601562 -9.515625 1.851562 -9.609375 2.1875 -9.609375 C 2.519531 -9.609375 2.769531 -9.515625 2.9375 -9.328125 C 3.113281 -9.140625 3.203125 -8.90625 3.203125 -8.625 C 3.203125 -8.351562 3.113281 -8.125 2.9375 -7.9375 C 2.769531 -7.757812 2.519531 -7.671875 2.1875 -7.671875 C 1.851562 -7.671875 1.601562 -7.757812 1.4375 -7.9375 C 1.269531 -8.125 1.1875 -8.351562 1.1875 -8.625 Z M 1.1875 -8.625 "/></g></g></g><g fill="#17191a" fill-opacity="1"><g transform="translate(101.748278, 56.535077)"><g/></g></g><g fill="#17191a" fill-opacity="1"><g transform="translate(106.203222, 56.535077)"><g/></g></g><g fill="#17191a" fill-opacity="1"><g transform="translate(110.658166, 56.535077)"><g/></g></g><g fill="#17191a" fill-opacity="1"><g transform="translate(115.11311, 56.535077)"><g/></g></g><g fill="#17191a" fill-opacity="1"><g transform="translate(119.568054, 56.535077)"><g/></g></g><g fill="#17191a" fill-opacity="1"><g transform="translate(124.022998, 56.535077)"><g/></g></g><g fill="#17191a" fill-opacity="1"><g transform="translate(128.477942, 56.535077)"><g/></g></g><g fill="#17191a" fill-opacity="1"><g transform="translate(132.932886, 56.535077)"><g/></g></g><g fill="#17191a" fill-opacity="1"><g transform="translate(137.38783, 56.535077)"><g/></g></g><g fill="#17191a" fill-opacity="1"><g transform="translate(141.842774, 56.535077)"><g/></g></g><g fill="#17191a" fill-opacity="1"><g transform="translate(146.297718, 56.535077)"><g/></g></g><g fill="#17191a" fill-opacity="1"><g transform="translate(150.752662, 56.535077)"><g/></g></g><g fill="#17191a" fill-opacity="1"><g transform="translate(155.207606, 56.535077)"><g/></g></g><g fill="#17191a" fill-opacity="1"><g transform="translate(159.66255, 56.535077)"><g/></g></g><g fill="#17191a" fill-opacity="1"><g transform="translate(164.117494, 56.535077)"><g/></g></g><g fill="#17191a" fill-opacity="1"><g transform="translate(168.572439, 56.535077)"><g/></g></g><g fill="#17191a" fill-opacity="1"><g transform="translate(173.027383, 56.535077)"><g/></g></g><g fill="#17191a" fill-opacity="1"><g transform="translate(177.482327, 56.535077)"><g/></g></g><g fill="#17191a" fill-opacity="1"><g transform="translate(181.937271, 56.535077)"><g/></g></g><g fill="#17191a" fill-opacity="1"><g transform="translate(186.392215, 56.535077)"><g/></g></g><g fill="#17191a" fill-opacity="1"><g transform="translate(190.847159, 56.535077)"><g/></g></g><g fill="#17191a" fill-opacity="1"><g transform="translate(195.302103, 56.535077)"><g/></g></g><g fill="#17191a" fill-opacity="1"><g transform="translate(199.757047, 56.535077)"><g/></g></g><g fill="#17191a" fill-opacity="1"><g transform="translate(204.211991, 56.535077)"><g/></g></g><g fill="#17191a" fill-opacity="1"><g transform="translate(208.666935, 56.535077)"><g/></g></g><g fill="#17191a" fill-opacity="1"><g transform="translate(213.121879, 56.535077)"><g/></g></g><g fill="#17191a" fill-opacity="1"><g transform="translate(217.576823, 56.535077)"><g/></g></g><g fill="#17191a" fill-opacity="1"><g transform="translate(222.031767, 56.535077)"><g/></g></g><g fill="#17191a" fill-opacity="1"><g transform="translate(226.486711, 56.535077)"><g/></g></g><g fill="#17191a" fill-opacity="1"><g transform="translate(230.941655, 56.535077)"><g/></g></g><g fill="#17191a" fill-opacity="1"><g transform="translate(235.396599, 56.535077)"><g/></g></g><g fill="#17191a" fill-opacity="1"><g transform="translate(239.851543, 56.535077)"><g/></g></g><g fill="#17191a" fill-opacity="1"><g transform="translate(244.306487, 56.535077)"><g/></g></g><g fill="#17191a" fill-opacity="1"><g transform="translate(248.761431, 56.535077)"><g/></g></g><g fill="#17191a" fill-opacity="1"><g transform="translate(253.216375, 56.535077)"><g/></g></g><g fill="#17191a" fill-opacity="1"><g transform="translate(257.671319, 56.535077)"><g/></g></g><g fill="#17191a" fill-opacity="1"><g transform="translate(262.126263, 56.535077)"><g/></g></g><g fill="#17191a" fill-opacity="1"><g transform="translate(266.581207, 56.535077)"><g/></g></g><g fill="#17191a" fill-opacity="1"><g transform="translate(271.036152, 56.535077)"><g/></g></g><g fill="#17191a" fill-opacity="1"><g transform="translate(275.491096, 56.535077)"><g/></g></g><g fill="#17191a" fill-opacity="1"><g transform="translate(279.94604, 56.535077)"><g/></g></g><g fill="#17191a" fill-opacity="1"><g transform="translate(284.400984, 56.535077)"><g/></g></g><g fill="#17191a" fill-opacity="1"><g transform="translate(288.855928, 56.535077)"><g/></g></g><g fill="#17191a" fill-opacity="1"><g transform="translate(293.310872, 56.535077)"><g/></g></g><g fill="#17191a" fill-opacity="1"><g transform="translate(297.765816, 56.535077)"><g/></g></g><g fill="#17191a" fill-opacity="1"><g transform="translate(302.22076, 56.535077)"><g/></g></g><g clip-path="url(#7cd9fa1726)"><path fill="#17191a" d="M 119.113281 37.105469 C 119.113281 36.679688 119.113281 36.660156 118.742188 36.660156 C 118.292969 37.160156 117.363281 37.84375 115.449219 37.84375 L 115.449219 38.378906 C 115.878906 38.378906 116.808594 38.378906 117.828125 37.898438 L 117.828125 47.53125 C 117.828125 48.199219 117.773438 48.421875 116.136719 48.421875 L 115.5625 48.421875 L 115.5625 48.957031 C 116.0625 48.917969 117.867188 48.917969 118.480469 48.917969 C 119.09375 48.917969 120.878906 48.917969 121.378906 48.957031 L 121.378906 48.421875 L 120.804688 48.421875 C 119.167969 48.421875 119.113281 48.199219 119.113281 47.53125 Z M 119.113281 37.105469 " fill-opacity="1" fill-rule="nonzero"/></g><g clip-path="url(#4729cd2538)"><path fill="#17191a" d="M 113.757812 56.472656 L 122.859375 56.472656 L 122.859375 57.210938 L 113.757812 57.210938 Z M 113.757812 56.472656 " fill-opacity="1" fill-rule="nonzero"/></g><g clip-path="url(#74044c53c5)"><path fill="#17191a" d="M 117.179688 67.507812 C 116.863281 67.527344 116.789062 67.546875 116.789062 67.710938 C 116.789062 67.898438 116.882812 67.898438 117.214844 67.898438 L 118.070312 67.898438 C 119.652344 67.898438 120.359375 69.191406 120.359375 70.964844 C 120.359375 73.390625 119.09375 74.035156 118.183594 74.035156 C 117.289062 74.035156 115.765625 73.609375 115.226562 72.390625 C 115.820312 72.484375 116.359375 72.148438 116.359375 71.484375 C 116.359375 70.949219 115.96875 70.578125 115.449219 70.578125 C 115.003906 70.578125 114.519531 70.835938 114.519531 71.539062 C 114.519531 73.183594 116.175781 74.535156 118.238281 74.535156 C 120.449219 74.535156 122.085938 72.851562 122.085938 70.984375 C 122.085938 69.285156 120.710938 67.953125 118.925781 67.636719 C 120.542969 67.175781 121.585938 65.828125 121.585938 64.382812 C 121.585938 62.921875 120.058594 61.851562 118.257812 61.851562 C 116.398438 61.851562 115.023438 62.980469 115.023438 64.328125 C 115.023438 65.070312 115.597656 65.214844 115.878906 65.214844 C 116.265625 65.214844 116.714844 64.9375 116.714844 64.382812 C 116.714844 63.792969 116.265625 63.535156 115.859375 63.535156 C 115.746094 63.535156 115.710938 63.535156 115.652344 63.550781 C 116.359375 62.296875 118.109375 62.296875 118.199219 62.296875 C 118.816406 62.296875 120.023438 62.574219 120.023438 64.382812 C 120.023438 64.734375 119.96875 65.769531 119.429688 66.566406 C 118.871094 67.378906 118.238281 67.433594 117.734375 67.453125 Z M 117.179688 67.507812 " fill-opacity="1" fill-rule="nonzero"/></g><path fill="#17191a" d="M 133.964844 53.570312 C 133.984375 53.308594 133.984375 52.867188 133.5 52.867188 C 133.203125 52.867188 132.960938 53.105469 133.015625 53.347656 L 133.015625 53.585938 L 133.277344 56.453125 L 130.894531 54.734375 C 130.730469 54.640625 130.691406 54.605469 130.5625 54.605469 C 130.300781 54.605469 130.058594 54.863281 130.058594 55.121094 C 130.058594 55.417969 130.246094 55.492188 130.429688 55.582031 L 133.070312 56.839844 L 130.503906 58.078125 C 130.207031 58.226562 130.058594 58.300781 130.058594 58.578125 C 130.058594 58.855469 130.300781 59.097656 130.5625 59.097656 C 130.691406 59.097656 130.730469 59.097656 131.195312 58.746094 L 133.277344 57.246094 L 132.996094 60.355469 C 132.996094 60.742188 133.332031 60.835938 133.480469 60.835938 C 133.703125 60.835938 133.984375 60.707031 133.984375 60.355469 L 133.703125 57.246094 L 136.082031 58.96875 C 136.25 59.058594 136.289062 59.097656 136.417969 59.097656 C 136.679688 59.097656 136.921875 58.839844 136.921875 58.578125 C 136.921875 58.300781 136.753906 58.210938 136.53125 58.097656 C 135.414062 57.542969 135.378906 57.542969 133.910156 56.859375 L 136.472656 55.621094 C 136.773438 55.472656 136.921875 55.398438 136.921875 55.121094 C 136.921875 54.84375 136.679688 54.605469 136.417969 54.605469 C 136.289062 54.605469 136.25 54.605469 135.785156 54.957031 L 133.703125 56.453125 Z M 133.964844 53.570312 " fill-opacity="1" fill-rule="nonzero"/><path fill="#17191a" d="M 144.566406 55.027344 C 144.566406 50.351562 146.851562 49.613281 147.855469 49.613281 C 148.527344 49.613281 149.195312 49.816406 149.546875 50.371094 C 149.324219 50.371094 148.617188 50.371094 148.617188 51.128906 C 148.617188 51.535156 148.898438 51.886719 149.382812 51.886719 C 149.847656 51.886719 150.164062 51.609375 150.164062 51.074219 C 150.164062 50.109375 149.457031 49.167969 147.839844 49.167969 C 145.496094 49.167969 143.042969 51.554688 143.042969 55.621094 C 143.042969 60.707031 145.273438 61.851562 146.851562 61.851562 C 148.878906 61.851562 150.609375 60.09375 150.609375 57.691406 C 150.609375 55.234375 148.878906 53.585938 147.019531 53.585938 C 145.367188 53.585938 144.75 55.011719 144.566406 55.527344 Z M 146.851562 61.351562 C 145.679688 61.351562 145.125 60.316406 144.957031 59.929688 C 144.789062 59.449219 144.601562 58.542969 144.601562 57.246094 C 144.601562 55.789062 145.273438 53.957031 146.945312 53.957031 C 147.96875 53.957031 148.507812 54.640625 148.785156 55.269531 C 149.082031 55.953125 149.082031 56.878906 149.082031 57.671875 C 149.082031 58.617188 149.082031 59.449219 148.730469 60.152344 C 148.265625 61.039062 147.597656 61.351562 146.851562 61.351562 Z M 146.851562 61.351562 " fill-opacity="1" fill-rule="nonzero"/><path fill="#17191a" d="M 154.878906 51.316406 C 155.074219 51.128906 155.597656 50.722656 155.792969 50.550781 C 156.5625 49.847656 157.292969 49.171875 157.292969 48.046875 C 157.292969 46.582031 156.054688 45.632812 154.503906 45.632812 C 153.019531 45.632812 152.039062 46.753906 152.039062 47.851562 C 152.039062 48.457031 152.523438 48.542969 152.695312 48.542969 C 152.957031 48.542969 153.339844 48.355469 153.339844 47.886719 C 153.339844 47.246094 152.71875 47.246094 152.570312 47.246094 C 152.929688 46.347656 153.761719 46.039062 154.367188 46.039062 C 155.523438 46.039062 156.117188 47.011719 156.117188 48.046875 C 156.117188 49.332031 155.210938 50.265625 153.75 51.757812 L 152.1875 53.359375 C 152.039062 53.496094 152.039062 53.523438 152.039062 53.828125 L 156.933594 53.828125 L 157.292969 51.625 L 156.910156 51.625 C 156.871094 51.871094 156.773438 52.484375 156.625 52.71875 C 156.550781 52.820312 155.609375 52.820312 155.410156 52.820312 L 153.203125 52.820312 Z M 154.878906 51.316406 " fill-opacity="1" fill-rule="nonzero"/><path fill="#17191a" d="M 164.175781 48.910156 C 163.632812 49.046875 163.605469 49.527344 163.605469 49.578125 C 163.605469 49.847656 163.816406 50.03125 164.089844 50.03125 C 164.363281 50.03125 164.785156 49.824219 164.785156 49.292969 C 164.785156 48.589844 164.003906 48.394531 163.542969 48.394531 C 162.960938 48.394531 162.492188 48.800781 162.207031 49.28125 C 161.933594 48.628906 161.289062 48.394531 160.78125 48.394531 C 159.429688 48.394531 158.671875 49.933594 158.671875 50.28125 C 158.671875 50.390625 158.757812 50.441406 158.859375 50.441406 C 159.007812 50.441406 159.03125 50.378906 159.070312 50.230469 C 159.355469 49.332031 160.097656 48.738281 160.742188 48.738281 C 161.226562 48.738281 161.460938 49.085938 161.460938 49.527344 C 161.460938 49.773438 161.3125 50.339844 161.214844 50.734375 C 161.128906 51.09375 160.855469 52.191406 160.792969 52.425781 C 160.617188 53.089844 160.171875 53.609375 159.613281 53.609375 C 159.566406 53.609375 159.242188 53.609375 158.984375 53.433594 C 159.554688 53.300781 159.554688 52.78125 159.554688 52.769531 C 159.554688 52.484375 159.328125 52.3125 159.058594 52.3125 C 158.722656 52.3125 158.363281 52.597656 158.363281 53.066406 C 158.363281 53.632812 158.96875 53.953125 159.601562 53.953125 C 160.257812 53.953125 160.71875 53.460938 160.941406 53.066406 C 161.214844 53.667969 161.785156 53.953125 162.378906 53.953125 C 163.730469 53.953125 164.472656 52.414062 164.472656 52.066406 C 164.472656 51.945312 164.375 51.90625 164.289062 51.90625 C 164.140625 51.90625 164.113281 51.992188 164.078125 52.117188 C 163.828125 52.941406 163.121094 53.609375 162.402344 53.609375 C 161.996094 53.609375 161.699219 53.335938 161.699219 52.820312 C 161.699219 52.574219 161.773438 52.289062 161.945312 51.597656 C 162.03125 51.230469 162.304688 50.144531 162.367188 49.910156 C 162.539062 49.269531 162.972656 48.738281 163.53125 48.738281 C 163.59375 48.738281 163.917969 48.738281 164.175781 48.910156 Z M 164.175781 48.910156 " fill-opacity="1" fill-rule="nonzero"/><path fill="#17191a" d="M 174.042969 51.03125 C 174.242188 51.03125 174.515625 51.03125 174.515625 50.75 C 174.515625 50.464844 174.242188 50.464844 174.042969 50.464844 L 166.941406 50.464844 C 166.742188 50.464844 166.472656 50.464844 166.472656 50.75 C 166.472656 51.03125 166.742188 51.03125 166.941406 51.03125 Z M 174.042969 51.03125 " fill-opacity="1" fill-rule="nonzero"/><path fill="#17191a" d="M 178.761719 49.710938 C 179.738281 49.710938 180.359375 50.425781 180.359375 51.722656 C 180.359375 53.261719 179.480469 53.71875 178.824219 53.71875 C 178.140625 53.71875 177.210938 53.472656 176.777344 52.820312 C 177.222656 52.820312 177.535156 52.535156 177.535156 52.128906 C 177.535156 51.734375 177.25 51.449219 176.851562 51.449219 C 176.515625 51.449219 176.171875 51.660156 176.171875 52.152344 C 176.171875 53.324219 177.433594 54.089844 178.847656 54.089844 C 180.496094 54.089844 181.648438 52.953125 181.648438 51.722656 C 181.648438 50.699219 180.832031 49.761719 179.566406 49.492188 C 180.546875 49.144531 181.277344 48.308594 181.277344 47.320312 C 181.277344 46.335938 180.160156 45.632812 178.871094 45.632812 C 177.546875 45.632812 176.542969 46.347656 176.542969 47.285156 C 176.542969 47.742188 176.851562 47.9375 177.175781 47.9375 C 177.558594 47.9375 177.804688 47.667969 177.804688 47.308594 C 177.804688 46.851562 177.410156 46.679688 177.136719 46.667969 C 177.65625 45.988281 178.613281 45.953125 178.835938 45.953125 C 179.15625 45.953125 180.097656 46.050781 180.097656 47.320312 C 180.097656 48.183594 179.738281 48.703125 179.566406 48.898438 C 179.195312 49.28125 178.910156 49.304688 178.152344 49.355469 C 177.917969 49.367188 177.820312 49.378906 177.820312 49.539062 C 177.820312 49.710938 177.929688 49.710938 178.140625 49.710938 Z M 178.761719 49.710938 " fill-opacity="1" fill-rule="nonzero"/><path fill="#17191a" d="M 200.699219 55.472656 C 200.960938 55.472656 201.292969 55.472656 201.292969 55.140625 C 201.292969 54.789062 200.976562 54.789062 200.699219 54.789062 L 189.746094 54.789062 C 189.488281 54.789062 189.152344 54.789062 189.152344 55.121094 C 189.152344 55.472656 189.46875 55.472656 189.746094 55.472656 Z M 200.699219 58.910156 C 200.960938 58.910156 201.292969 58.910156 201.292969 58.578125 C 201.292969 58.226562 200.976562 58.226562 200.699219 58.226562 L 189.746094 58.226562 C 189.488281 58.226562 189.152344 58.226562 189.152344 58.5625 C 189.152344 58.910156 189.46875 58.910156 189.746094 58.910156 Z M 200.699219 58.910156 " fill-opacity="1" fill-rule="nonzero"/><path fill="#17191a" d="M 215.652344 58.355469 L 215.246094 58.355469 C 215.1875 58.671875 215.039062 59.6875 214.855469 59.984375 C 214.722656 60.152344 213.664062 60.152344 213.105469 60.152344 L 209.667969 60.152344 C 210.167969 59.726562 211.304688 58.542969 211.785156 58.097656 C 214.613281 55.511719 215.652344 54.546875 215.652344 52.71875 C 215.652344 50.589844 213.960938 49.167969 211.804688 49.167969 C 209.648438 49.167969 208.382812 51 208.382812 52.589844 C 208.382812 53.53125 209.203125 53.53125 209.257812 53.53125 C 209.648438 53.53125 210.132812 53.253906 210.132812 52.664062 C 210.132812 52.144531 209.777344 51.792969 209.257812 51.792969 C 209.089844 51.792969 209.054688 51.792969 208.996094 51.8125 C 209.351562 50.554688 210.355469 49.703125 211.5625 49.703125 C 213.144531 49.703125 214.109375 51.015625 214.109375 52.71875 C 214.109375 54.289062 213.199219 55.65625 212.140625 56.839844 L 208.382812 61.019531 L 208.382812 61.464844 L 215.171875 61.464844 Z M 215.652344 58.355469 " fill-opacity="1" fill-rule="nonzero"/><path fill="#17191a" d="M 225.820312 53.570312 C 225.839844 53.308594 225.839844 52.867188 225.355469 52.867188 C 225.058594 52.867188 224.816406 53.105469 224.871094 53.347656 L 224.871094 53.585938 L 225.132812 56.453125 L 222.753906 54.734375 C 222.585938 54.640625 222.546875 54.605469 222.417969 54.605469 C 222.15625 54.605469 221.917969 54.863281 221.917969 55.121094 C 221.917969 55.417969 222.101562 55.492188 222.289062 55.582031 L 224.929688 56.839844 L 222.363281 58.078125 C 222.066406 58.226562 221.917969 58.300781 221.917969 58.578125 C 221.917969 58.855469 222.15625 59.097656 222.417969 59.097656 C 222.546875 59.097656 222.585938 59.097656 223.050781 58.746094 L 225.132812 57.246094 L 224.855469 60.355469 C 224.855469 60.742188 225.1875 60.835938 225.335938 60.835938 C 225.558594 60.835938 225.839844 60.707031 225.839844 60.355469 L 225.558594 57.246094 L 227.941406 58.96875 C 228.109375 59.058594 228.144531 59.097656 228.273438 59.097656 C 228.535156 59.097656 228.777344 58.839844 228.777344 58.578125 C 228.777344 58.300781 228.609375 58.210938 228.386719 58.097656 C 227.269531 57.542969 227.234375 57.542969 225.765625 56.859375 L 228.332031 55.621094 C 228.628906 55.472656 228.777344 55.398438 228.777344 55.121094 C 228.777344 54.84375 228.535156 54.605469 228.273438 54.605469 C 228.144531 54.605469 228.109375 54.605469 227.644531 54.957031 L 225.558594 56.453125 Z M 225.820312 53.570312 " fill-opacity="1" fill-rule="nonzero"/><path fill="#17191a" d="M 236.421875 55.027344 C 236.421875 50.351562 238.710938 49.613281 239.714844 49.613281 C 240.382812 49.613281 241.050781 49.816406 241.40625 50.371094 C 241.183594 50.371094 240.476562 50.371094 240.476562 51.128906 C 240.476562 51.535156 240.753906 51.886719 241.238281 51.886719 C 241.703125 51.886719 242.019531 51.609375 242.019531 51.074219 C 242.019531 50.109375 241.3125 49.167969 239.695312 49.167969 C 237.351562 49.167969 234.898438 51.554688 234.898438 55.621094 C 234.898438 60.707031 237.128906 61.851562 238.710938 61.851562 C 240.734375 61.851562 242.464844 60.09375 242.464844 57.691406 C 242.464844 55.234375 240.734375 53.585938 238.875 53.585938 C 237.222656 53.585938 236.609375 55.011719 236.421875 55.527344 Z M 238.710938 61.351562 C 237.539062 61.351562 236.980469 60.316406 236.8125 59.929688 C 236.644531 59.449219 236.460938 58.542969 236.460938 57.246094 C 236.460938 55.789062 237.128906 53.957031 238.800781 53.957031 C 239.824219 53.957031 240.363281 54.640625 240.644531 55.269531 C 240.941406 55.953125 240.941406 56.878906 240.941406 57.671875 C 240.941406 58.617188 240.941406 59.449219 240.585938 60.152344 C 240.121094 61.039062 239.453125 61.351562 238.710938 61.351562 Z M 238.710938 61.351562 " fill-opacity="1" fill-rule="nonzero"/><path fill="#17191a" d="M 244.972656 46.902344 C 245.136719 46.953125 245.628906 47.074219 246.152344 47.074219 C 247.699219 47.074219 248.644531 45.988281 248.644531 45.804688 C 248.644531 45.667969 248.554688 45.632812 248.492188 45.632812 C 248.46875 45.632812 248.445312 45.632812 248.332031 45.695312 C 247.847656 45.878906 247.277344 46.027344 246.609375 46.027344 C 245.878906 46.027344 245.269531 45.84375 244.886719 45.695312 C 244.761719 45.632812 244.738281 45.632812 244.726562 45.632812 C 244.566406 45.632812 244.566406 45.769531 244.566406 45.988281 L 244.566406 49.601562 C 244.566406 49.824219 244.566406 49.972656 244.761719 49.972656 C 244.863281 49.972656 244.898438 49.921875 244.960938 49.824219 C 245.109375 49.640625 245.582031 49.011719 246.632812 49.011719 C 247.328125 49.011719 247.664062 49.578125 247.773438 49.8125 C 247.984375 50.253906 248.011719 50.820312 248.011719 51.304688 C 248.011719 51.757812 248 52.425781 247.652344 52.96875 C 247.414062 53.335938 246.917969 53.71875 246.261719 53.71875 C 245.457031 53.71875 244.664062 53.214844 244.378906 52.414062 C 244.414062 52.425781 244.488281 52.425781 244.503906 52.425781 C 244.851562 52.425781 245.121094 52.203125 245.121094 51.820312 C 245.121094 51.363281 244.761719 51.203125 244.515625 51.203125 C 244.292969 51.203125 243.894531 51.328125 243.894531 51.859375 C 243.894531 52.96875 244.863281 54.089844 246.289062 54.089844 C 247.835938 54.089844 249.152344 52.894531 249.152344 51.363281 C 249.152344 49.933594 248.109375 48.664062 246.648438 48.664062 C 246.027344 48.664062 245.445312 48.863281 244.972656 49.28125 Z M 244.972656 46.902344 " fill-opacity="1" fill-rule="nonzero"/><path fill="#17191a" d="M 258.488281 51.03125 C 258.6875 51.03125 258.960938 51.03125 258.960938 50.75 C 258.960938 50.464844 258.6875 50.464844 258.488281 50.464844 L 251.386719 50.464844 C 251.1875 50.464844 250.914062 50.464844 250.914062 50.75 C 250.914062 51.03125 251.1875 51.03125 251.386719 51.03125 Z M 258.488281 51.03125 " fill-opacity="1" fill-rule="nonzero"/><path fill="#17191a" d="M 263.203125 49.710938 C 264.183594 49.710938 264.800781 50.425781 264.800781 51.722656 C 264.800781 53.261719 263.921875 53.71875 263.265625 53.71875 C 262.582031 53.71875 261.652344 53.472656 261.21875 52.820312 C 261.667969 52.820312 261.976562 52.535156 261.976562 52.128906 C 261.976562 51.734375 261.691406 51.449219 261.292969 51.449219 C 260.960938 51.449219 260.613281 51.660156 260.613281 52.152344 C 260.613281 53.324219 261.878906 54.089844 263.289062 54.089844 C 264.9375 54.089844 266.089844 52.953125 266.089844 51.722656 C 266.089844 50.699219 265.273438 49.761719 264.007812 49.492188 C 264.988281 49.144531 265.71875 48.308594 265.71875 47.320312 C 265.71875 46.335938 264.605469 45.632812 263.316406 45.632812 C 261.988281 45.632812 260.984375 46.347656 260.984375 47.285156 C 260.984375 47.742188 261.292969 47.9375 261.617188 47.9375 C 262 47.9375 262.25 47.667969 262.25 47.308594 C 262.25 46.851562 261.851562 46.679688 261.578125 46.667969 C 262.101562 45.988281 263.054688 45.953125 263.277344 45.953125 C 263.601562 45.953125 264.542969 46.050781 264.542969 47.320312 C 264.542969 48.183594 264.183594 48.703125 264.007812 48.898438 C 263.636719 49.28125 263.351562 49.304688 262.597656 49.355469 C 262.359375 49.367188 262.261719 49.378906 262.261719 49.539062 C 262.261719 49.710938 262.371094 49.710938 262.582031 49.710938 Z M 263.203125 49.710938 " fill-opacity="1" fill-rule="nonzero"/><path fill="#17191a" d="M 272.863281 48.910156 C 272.316406 49.046875 272.292969 49.527344 272.292969 49.578125 C 272.292969 49.847656 272.503906 50.03125 272.777344 50.03125 C 273.046875 50.03125 273.46875 49.824219 273.46875 49.292969 C 273.46875 48.589844 272.6875 48.394531 272.230469 48.394531 C 271.648438 48.394531 271.175781 48.800781 270.890625 49.28125 C 270.617188 48.628906 269.972656 48.394531 269.464844 48.394531 C 268.113281 48.394531 267.359375 49.933594 267.359375 50.28125 C 267.359375 50.390625 267.445312 50.441406 267.542969 50.441406 C 267.695312 50.441406 267.71875 50.378906 267.753906 50.230469 C 268.039062 49.332031 268.785156 48.738281 269.429688 48.738281 C 269.914062 48.738281 270.148438 49.085938 270.148438 49.527344 C 270.148438 49.773438 270 50.339844 269.898438 50.734375 C 269.8125 51.09375 269.539062 52.191406 269.476562 52.425781 C 269.304688 53.089844 268.859375 53.609375 268.300781 53.609375 C 268.25 53.609375 267.929688 53.609375 267.667969 53.433594 C 268.238281 53.300781 268.238281 52.78125 268.238281 52.769531 C 268.238281 52.484375 268.015625 52.3125 267.742188 52.3125 C 267.410156 52.3125 267.050781 52.597656 267.050781 53.066406 C 267.050781 53.632812 267.65625 53.953125 268.289062 53.953125 C 268.945312 53.953125 269.402344 53.460938 269.628906 53.066406 C 269.898438 53.667969 270.46875 53.953125 271.066406 53.953125 C 272.417969 53.953125 273.160156 52.414062 273.160156 52.066406 C 273.160156 51.945312 273.0625 51.90625 272.972656 51.90625 C 272.824219 51.90625 272.800781 51.992188 272.761719 52.117188 C 272.515625 52.941406 271.808594 53.609375 271.089844 53.609375 C 270.679688 53.609375 270.382812 53.335938 270.382812 52.820312 C 270.382812 52.574219 270.457031 52.289062 270.632812 51.597656 C 270.71875 51.230469 270.992188 50.144531 271.050781 49.910156 C 271.226562 49.269531 271.660156 48.738281 272.21875 48.738281 C 272.28125 48.738281 272.601562 48.738281 272.863281 48.910156 Z M 272.863281 48.910156 " fill-opacity="1" fill-rule="nonzero"/><g clip-path="url(#caaed7aa75)"><path fill="#17191a" d="M 282.179688 56.988281 C 282.179688 55.898438 282.625 54.269531 284.503906 52.882812 C 285.023438 52.496094 285.507812 51.921875 285.507812 50.960938 C 285.507812 49.832031 284.726562 48.445312 282.050781 48.445312 C 280.042969 48.445312 278.945312 49.742188 278.945312 50.925781 C 278.945312 51.589844 279.445312 51.738281 279.726562 51.738281 C 280.042969 51.738281 280.488281 51.515625 280.488281 50.960938 C 280.488281 50.535156 280.171875 50.203125 279.707031 50.203125 C 279.59375 50.203125 279.558594 50.203125 279.519531 50.222656 C 279.929688 49.261719 281.007812 48.816406 281.992188 48.816406 C 284.09375 48.816406 284.09375 50.167969 284.09375 50.867188 C 284.09375 51.960938 283.761719 52.3125 283.445312 52.644531 C 282.179688 53.992188 281.769531 55.714844 281.769531 56.839844 L 281.769531 57.730469 C 281.769531 58.0625 281.769531 58.136719 281.976562 58.136719 C 282.179688 58.136719 282.179688 58.007812 282.179688 57.671875 Z M 282.867188 60.558594 C 282.867188 60.078125 282.457031 59.671875 281.976562 59.671875 C 281.417969 59.671875 281.0625 60.113281 281.0625 60.558594 C 281.0625 61.113281 281.511719 61.464844 281.957031 61.464844 C 282.476562 61.464844 282.867188 61.058594 282.867188 60.558594 Z M 282.867188 60.558594 " fill-opacity="1" fill-rule="nonzero"/></g></svg>