<svg xmlns="http://www.w3.org/2000/svg" xmlns:xlink="http://www.w3.org/1999/xlink" width="500" zoomAndPan="magnify" viewBox="0 0 375 74.999997" height="100" preserveAspectRatio="xMidYMid meet" version="1.0"><defs><g/><clipPath id="b5c51d089c"><path d="M 39 40 L 46 40 L 46 64.5 L 39 64.5 Z M 39 40 " clip-rule="nonzero"/></clipPath><clipPath id="163048757e"><path d="M 103 40 L 110 40 L 110 64.5 L 103 64.5 Z M 103 40 " clip-rule="nonzero"/></clipPath><clipPath id="952fe8936a"><path d="M 112 37.5 L 120 37.5 L 120 49 L 112 49 Z M 112 37.5 " clip-rule="nonzero"/></clipPath><clipPath id="b8592049c0"><path d="M 185 47 L 197.25 47 L 197.25 59 L 185 59 Z M 185 47 " clip-rule="nonzero"/></clipPath></defs><g clip-path="url(#b5c51d089c)"><path fill="#17191a" d="M 45.457031 64.246094 C 45.457031 64.171875 45.457031 64.125 45.042969 63.710938 C 42.59375 61.257812 41.222656 57.253906 41.222656 52.300781 C 41.222656 47.589844 42.371094 43.535156 45.210938 40.667969 C 45.457031 40.449219 45.457031 40.402344 45.457031 40.328125 C 45.457031 40.183594 45.335938 40.136719 45.238281 40.136719 C 44.917969 40.136719 42.910156 41.882812 41.710938 44.261719 C 40.460938 46.714844 39.898438 49.3125 39.898438 52.300781 C 39.898438 54.460938 40.242188 57.351562 41.515625 59.949219 C 42.960938 62.859375 44.96875 64.4375 45.238281 64.4375 C 45.335938 64.4375 45.457031 64.390625 45.457031 64.246094 Z M 45.457031 64.246094 " fill-opacity="1" fill-rule="nonzero"/></g><path fill="#17191a" d="M 58.429688 48.4375 C 57.648438 48.585938 57.355469 49.167969 57.355469 49.628906 C 57.355469 50.210938 57.820312 50.40625 58.160156 50.40625 C 58.894531 50.40625 59.410156 49.773438 59.410156 49.117188 C 59.410156 48.097656 58.234375 47.636719 57.207031 47.636719 C 55.714844 47.636719 54.878906 49.09375 54.660156 49.554688 C 54.097656 47.734375 52.578125 47.636719 52.136719 47.636719 C 49.640625 47.636719 48.320312 50.820312 48.320312 51.351562 C 48.320312 51.449219 48.417969 51.570312 48.585938 51.570312 C 48.785156 51.570312 48.832031 51.425781 48.882812 51.328125 C 49.714844 48.632812 51.355469 48.125 52.066406 48.125 C 53.167969 48.125 53.386719 49.144531 53.386719 49.726562 C 53.386719 50.261719 53.238281 50.820312 52.945312 51.984375 L 52.113281 55.308594 C 51.746094 56.765625 51.035156 58.101562 49.738281 58.101562 C 49.617188 58.101562 49.003906 58.101562 48.488281 57.785156 C 49.371094 57.617188 49.566406 56.886719 49.566406 56.597656 C 49.566406 56.113281 49.199219 55.820312 48.734375 55.820312 C 48.148438 55.820312 47.511719 56.328125 47.511719 57.105469 C 47.511719 58.125 48.660156 58.589844 49.714844 58.589844 C 50.890625 58.589844 51.722656 57.664062 52.234375 56.667969 C 52.628906 58.101562 53.851562 58.589844 54.757812 58.589844 C 57.257812 58.589844 58.578125 55.40625 58.578125 54.875 C 58.578125 54.75 58.480469 54.65625 58.332031 54.65625 C 58.113281 54.65625 58.089844 54.777344 58.015625 54.96875 C 57.355469 57.105469 55.933594 58.101562 54.832031 58.101562 C 53.976562 58.101562 53.507812 57.472656 53.507812 56.476562 C 53.507812 55.941406 53.609375 55.554688 54 53.949219 L 54.855469 50.648438 C 55.222656 49.191406 56.054688 48.125 57.183594 48.125 C 57.230469 48.125 57.917969 48.125 58.429688 48.4375 Z M 58.429688 48.4375 " fill-opacity="1" fill-rule="nonzero"/><path fill="#17191a" d="M 82.027344 52.761719 C 82.441406 52.761719 82.882812 52.761719 82.882812 52.273438 C 82.882812 51.789062 82.441406 51.789062 82.027344 51.789062 L 68.777344 51.789062 C 68.363281 51.789062 67.921875 51.789062 67.921875 52.273438 C 67.921875 52.761719 68.363281 52.761719 68.777344 52.761719 Z M 82.027344 52.761719 " fill-opacity="1" fill-rule="nonzero"/><path fill="#17191a" d="M 101.152344 54.265625 L 100.613281 54.265625 C 100.539062 54.679688 100.34375 56.015625 100.097656 56.402344 C 99.925781 56.621094 98.53125 56.621094 97.796875 56.621094 L 93.265625 56.621094 C 93.925781 56.0625 95.421875 54.507812 96.058594 53.925781 C 99.78125 50.527344 101.152344 49.265625 101.152344 46.859375 C 101.152344 44.070312 98.921875 42.199219 96.082031 42.199219 C 93.242188 42.199219 91.578125 44.601562 91.578125 46.691406 C 91.578125 47.929688 92.652344 47.929688 92.726562 47.929688 C 93.242188 47.929688 93.878906 47.566406 93.878906 46.789062 C 93.878906 46.109375 93.414062 45.648438 92.726562 45.648438 C 92.507812 45.648438 92.457031 45.648438 92.386719 45.671875 C 92.851562 44.019531 94.171875 42.902344 95.765625 42.902344 C 97.84375 42.902344 99.117188 44.628906 99.117188 46.859375 C 99.117188 48.925781 97.917969 50.722656 96.523438 52.273438 L 91.578125 57.761719 L 91.578125 58.34375 L 100.515625 58.34375 Z M 101.152344 54.265625 " fill-opacity="1" fill-rule="nonzero"/><g clip-path="url(#163048757e)"><path fill="#17191a" d="M 109.269531 52.300781 C 109.269531 50.453125 109.023438 47.445312 107.652344 44.628906 C 106.207031 41.714844 104.199219 40.136719 103.929688 40.136719 C 103.832031 40.136719 103.710938 40.183594 103.710938 40.328125 C 103.710938 40.402344 103.710938 40.449219 104.125 40.863281 C 106.574219 43.316406 107.945312 47.320312 107.945312 52.273438 C 107.945312 56.984375 106.796875 61.039062 103.953125 63.90625 C 103.710938 64.125 103.710938 64.171875 103.710938 64.246094 C 103.710938 64.390625 103.832031 64.4375 103.929688 64.4375 C 104.25 64.4375 106.257812 62.691406 107.457031 60.3125 C 108.703125 57.835938 109.269531 55.214844 109.269531 52.300781 Z M 109.269531 52.300781 " fill-opacity="1" fill-rule="nonzero"/></g><g clip-path="url(#952fe8936a)"><path fill="#17191a" d="M 116.292969 45.019531 C 116.554688 44.777344 117.238281 44.242188 117.5 44.015625 C 118.511719 43.09375 119.476562 42.203125 119.476562 40.730469 C 119.476562 38.804688 117.84375 37.558594 115.800781 37.558594 C 113.84375 37.558594 112.554688 39.03125 112.554688 40.46875 C 112.554688 41.261719 113.191406 41.375 113.417969 41.375 C 113.761719 41.375 114.265625 41.132812 114.265625 40.519531 C 114.265625 39.675781 113.453125 39.675781 113.253906 39.675781 C 113.730469 38.496094 114.824219 38.089844 115.621094 38.089844 C 117.140625 38.089844 117.925781 39.371094 117.925781 40.730469 C 117.925781 42.414062 116.730469 43.644531 114.804688 45.601562 L 112.75 47.707031 C 112.554688 47.882812 112.554688 47.914062 112.554688 48.320312 L 119 48.320312 L 119.476562 45.421875 L 118.96875 45.421875 C 118.917969 45.746094 118.789062 46.554688 118.59375 46.863281 C 118.496094 46.992188 117.253906 46.992188 116.992188 46.992188 L 114.089844 46.992188 Z M 116.292969 45.019531 " fill-opacity="1" fill-rule="nonzero"/></g><path fill="#17191a" d="M 144.710938 50.480469 C 145.054688 50.480469 145.492188 50.480469 145.492188 50.042969 C 145.492188 49.582031 145.078125 49.582031 144.710938 49.582031 L 130.289062 49.582031 C 129.945312 49.582031 129.503906 49.582031 129.503906 50.015625 C 129.503906 50.480469 129.921875 50.480469 130.289062 50.480469 Z M 144.710938 54.996094 C 145.054688 54.996094 145.492188 54.996094 145.492188 54.558594 C 145.492188 54.097656 145.078125 54.097656 144.710938 54.097656 L 130.289062 54.097656 C 129.945312 54.097656 129.503906 54.097656 129.503906 54.535156 C 129.503906 54.996094 129.921875 54.996094 130.289062 54.996094 Z M 144.710938 54.996094 " fill-opacity="1" fill-rule="nonzero"/><path fill="#17191a" d="M 169.765625 52.761719 C 170.183594 52.761719 170.625 52.761719 170.625 52.273438 C 170.625 51.789062 170.183594 51.789062 169.765625 51.789062 L 156.519531 51.789062 C 156.105469 51.789062 155.664062 51.789062 155.664062 52.273438 C 155.664062 52.761719 156.105469 52.761719 156.519531 52.761719 Z M 169.765625 52.761719 " fill-opacity="1" fill-rule="nonzero"/><path fill="#17191a" d="M 179.972656 49.582031 C 181.199219 48.925781 182.984375 47.808594 182.984375 45.769531 C 182.984375 43.65625 180.929688 42.199219 178.675781 42.199219 C 176.25 42.199219 174.339844 43.972656 174.339844 46.179688 C 174.339844 47.007812 174.585938 47.832031 175.273438 48.65625 C 175.542969 48.972656 175.566406 48.996094 177.28125 50.1875 C 174.90625 51.28125 173.679688 52.90625 173.679688 54.679688 C 173.679688 57.253906 176.152344 58.855469 178.652344 58.855469 C 181.371094 58.855469 183.644531 56.863281 183.644531 54.316406 C 183.644531 51.839844 181.882812 50.746094 179.972656 49.582031 Z M 176.644531 47.394531 C 176.324219 47.175781 175.34375 46.546875 175.34375 45.355469 C 175.34375 43.777344 177.011719 42.78125 178.652344 42.78125 C 180.414062 42.78125 181.980469 44.042969 181.980469 45.792969 C 181.980469 47.273438 180.902344 48.464844 179.484375 49.242188 Z M 177.792969 50.527344 L 180.757812 52.445312 C 181.394531 52.859375 182.519531 53.609375 182.519531 55.089844 C 182.519531 56.9375 180.632812 58.199219 178.675781 58.199219 C 176.59375 58.199219 174.808594 56.695312 174.808594 54.679688 C 174.808594 52.785156 176.203125 51.253906 177.792969 50.527344 Z M 177.792969 50.527344 " fill-opacity="1" fill-rule="nonzero"/><g clip-path="url(#b8592049c0)"><path fill="#17191a" d="M 196.269531 48.4375 C 195.488281 48.585938 195.195312 49.167969 195.195312 49.628906 C 195.195312 50.210938 195.660156 50.40625 196 50.40625 C 196.734375 50.40625 197.25 49.773438 197.25 49.117188 C 197.25 48.097656 196.074219 47.636719 195.046875 47.636719 C 193.554688 47.636719 192.71875 49.09375 192.5 49.554688 C 191.9375 47.734375 190.417969 47.636719 189.976562 47.636719 C 187.480469 47.636719 186.15625 50.820312 186.15625 51.351562 C 186.15625 51.449219 186.257812 51.570312 186.425781 51.570312 C 186.625 51.570312 186.671875 51.425781 186.722656 51.328125 C 187.554688 48.632812 189.195312 48.125 189.90625 48.125 C 191.007812 48.125 191.226562 49.144531 191.226562 49.726562 C 191.226562 50.261719 191.078125 50.820312 190.785156 51.984375 L 189.953125 55.308594 C 189.585938 56.765625 188.875 58.101562 187.578125 58.101562 C 187.457031 58.101562 186.84375 58.101562 186.328125 57.785156 C 187.210938 57.617188 187.40625 56.886719 187.40625 56.597656 C 187.40625 56.113281 187.039062 55.820312 186.574219 55.820312 C 185.988281 55.820312 185.351562 56.328125 185.351562 57.105469 C 185.351562 58.125 186.5 58.589844 187.554688 58.589844 C 188.730469 58.589844 189.5625 57.664062 190.074219 56.667969 C 190.46875 58.101562 191.691406 58.589844 192.597656 58.589844 C 195.09375 58.589844 196.417969 55.40625 196.417969 54.875 C 196.417969 54.75 196.320312 54.65625 196.171875 54.65625 C 195.953125 54.65625 195.929688 54.777344 195.855469 54.96875 C 195.195312 57.105469 193.773438 58.101562 192.671875 58.101562 C 191.816406 58.101562 191.347656 57.472656 191.347656 56.476562 C 191.347656 55.941406 191.445312 55.554688 191.839844 53.949219 L 192.695312 50.648438 C 193.0625 49.191406 193.894531 48.125 195.023438 48.125 C 195.070312 48.125 195.757812 48.125 196.269531 48.4375 Z M 196.269531 48.4375 " fill-opacity="1" fill-rule="nonzero"/></g><g fill="#17191a" fill-opacity="1"><g transform="translate(15.000006, 31.534081)"><g><path d="M 3.421875 -7.1875 L 4.65625 -7.1875 C 5.414062 -7.195312 6.015625 -7.398438 6.453125 -7.796875 C 6.898438 -8.191406 7.125 -8.722656 7.125 -9.390625 C 7.125 -10.890625 6.375 -11.640625 4.875 -11.640625 C 4.175781 -11.640625 3.613281 -11.4375 3.1875 -11.03125 C 2.769531 -10.632812 2.5625 -10.101562 2.5625 -9.4375 L 0.9375 -9.4375 C 0.9375 -10.445312 1.304688 -11.285156 2.046875 -11.953125 C 2.796875 -12.628906 3.738281 -12.96875 4.875 -12.96875 C 6.082031 -12.96875 7.03125 -12.648438 7.71875 -12.015625 C 8.40625 -11.378906 8.75 -10.492188 8.75 -9.359375 C 8.75 -8.796875 8.566406 -8.253906 8.203125 -7.734375 C 7.847656 -7.210938 7.359375 -6.820312 6.734375 -6.5625 C 7.429688 -6.34375 7.972656 -5.972656 8.359375 -5.453125 C 8.742188 -4.941406 8.9375 -4.3125 8.9375 -3.5625 C 8.9375 -2.414062 8.5625 -1.503906 7.8125 -0.828125 C 7.0625 -0.160156 6.082031 0.171875 4.875 0.171875 C 3.675781 0.171875 2.703125 -0.148438 1.953125 -0.796875 C 1.203125 -1.453125 0.828125 -2.3125 0.828125 -3.375 L 2.46875 -3.375 C 2.46875 -2.695312 2.6875 -2.15625 3.125 -1.75 C 3.5625 -1.351562 4.148438 -1.15625 4.890625 -1.15625 C 5.671875 -1.15625 6.269531 -1.359375 6.6875 -1.765625 C 7.101562 -2.171875 7.3125 -2.757812 7.3125 -3.53125 C 7.3125 -4.28125 7.082031 -4.851562 6.625 -5.25 C 6.164062 -5.644531 5.507812 -5.847656 4.65625 -5.859375 L 3.421875 -5.859375 Z M 3.421875 -7.1875 "/></g></g></g><g fill="#17191a" fill-opacity="1"><g transform="translate(25.104909, 31.534081)"><g><path d="M 4.984375 -5.109375 C 4.984375 -3.796875 4.8125 -2.539062 4.46875 -1.34375 C 4.125 -0.144531 3.597656 0.957031 2.890625 1.96875 C 2.191406 2.976562 1.453125 3.695312 0.671875 4.125 L 0.328125 3.140625 C 1.234375 2.441406 1.957031 1.367188 2.5 -0.078125 C 3.050781 -1.535156 3.332031 -3.15625 3.34375 -4.9375 L 3.34375 -5.21875 C 3.34375 -6.445312 3.210938 -7.585938 2.953125 -8.640625 C 2.703125 -9.703125 2.347656 -10.648438 1.890625 -11.484375 C 1.429688 -12.328125 0.910156 -12.984375 0.328125 -13.453125 L 0.671875 -14.4375 C 1.453125 -14.007812 2.191406 -13.296875 2.890625 -12.296875 C 3.585938 -11.296875 4.109375 -10.191406 4.453125 -8.984375 C 4.804688 -7.773438 4.984375 -6.484375 4.984375 -5.109375 Z M 4.984375 -5.109375 "/></g></g></g><g fill="#17191a" fill-opacity="1"><g transform="translate(31.361161, 31.534081)"><g/></g></g><g fill="#17191a" fill-opacity="1"><g transform="translate(35.816106, 31.534081)"><g><path d="M 4.734375 -5.953125 L 3.171875 -4.328125 L 3.171875 0 L 1.484375 0 L 1.484375 -12.796875 L 3.171875 -12.796875 L 3.171875 -6.46875 L 8.859375 -12.796875 L 10.90625 -12.796875 L 5.859375 -7.140625 L 11.296875 0 L 9.265625 0 Z M 4.734375 -5.953125 "/></g></g></g><g fill="#17191a" fill-opacity="1"><g transform="translate(47.098449, 31.534081)"><g><path d="M 0.796875 -4.84375 C 0.796875 -5.769531 0.976562 -6.601562 1.34375 -7.34375 C 1.71875 -8.09375 2.226562 -8.671875 2.875 -9.078125 C 3.53125 -9.484375 4.273438 -9.6875 5.109375 -9.6875 C 6.410156 -9.6875 7.457031 -9.238281 8.25 -8.34375 C 9.050781 -7.445312 9.453125 -6.253906 9.453125 -4.765625 L 9.453125 -4.65625 C 9.453125 -3.726562 9.273438 -2.894531 8.921875 -2.15625 C 8.566406 -1.425781 8.0625 -0.851562 7.40625 -0.4375 C 6.75 -0.03125 5.992188 0.171875 5.140625 0.171875 C 3.847656 0.171875 2.800781 -0.273438 2 -1.171875 C 1.195312 -2.066406 0.796875 -3.253906 0.796875 -4.734375 Z M 2.4375 -4.65625 C 2.4375 -3.59375 2.679688 -2.742188 3.171875 -2.109375 C 3.660156 -1.472656 4.316406 -1.15625 5.140625 -1.15625 C 5.960938 -1.15625 6.613281 -1.476562 7.09375 -2.125 C 7.582031 -2.769531 7.828125 -3.675781 7.828125 -4.84375 C 7.828125 -5.882812 7.578125 -6.726562 7.078125 -7.375 C 6.585938 -8.019531 5.929688 -8.34375 5.109375 -8.34375 C 4.304688 -8.34375 3.660156 -8.023438 3.171875 -7.390625 C 2.679688 -6.753906 2.4375 -5.84375 2.4375 -4.65625 Z M 2.4375 -4.65625 "/></g></g></g><g fill="#17191a" fill-opacity="1"><g transform="translate(57.361515, 31.534081)"><g><path d="M 3 0 L 1.375 0 L 1.375 -13.5 L 3 -13.5 Z M 3 0 "/></g></g></g><g fill="#17191a" fill-opacity="1"><g transform="translate(61.728591, 31.534081)"><g><path d="M 3 0 L 1.375 0 L 1.375 -9.515625 L 3 -9.515625 Z M 1.234375 -12.03125 C 1.234375 -12.289062 1.3125 -12.507812 1.46875 -12.6875 C 1.632812 -12.875 1.875 -12.96875 2.1875 -12.96875 C 2.507812 -12.96875 2.753906 -12.875 2.921875 -12.6875 C 3.085938 -12.507812 3.171875 -12.289062 3.171875 -12.03125 C 3.171875 -11.769531 3.085938 -11.550781 2.921875 -11.375 C 2.753906 -11.195312 2.507812 -11.109375 2.1875 -11.109375 C 1.875 -11.109375 1.632812 -11.195312 1.46875 -11.375 C 1.3125 -11.550781 1.234375 -11.769531 1.234375 -12.03125 Z M 1.234375 -12.03125 "/></g></g></g><g fill="#17191a" fill-opacity="1"><g transform="translate(66.095666, 31.534081)"><g><path d="M 3.890625 -4.40625 L 2.859375 -3.34375 L 2.859375 0 L 1.234375 0 L 1.234375 -13.5 L 2.859375 -13.5 L 2.859375 -5.328125 L 3.734375 -6.375 L 6.703125 -9.515625 L 8.671875 -9.515625 L 4.96875 -5.53125 L 9.109375 0 L 7.203125 0 Z M 3.890625 -4.40625 "/></g></g></g><g fill="#17191a" fill-opacity="1"><g transform="translate(75.216439, 31.534081)"><g><path d="M 0.796875 -4.84375 C 0.796875 -5.769531 0.976562 -6.601562 1.34375 -7.34375 C 1.71875 -8.09375 2.226562 -8.671875 2.875 -9.078125 C 3.53125 -9.484375 4.273438 -9.6875 5.109375 -9.6875 C 6.410156 -9.6875 7.457031 -9.238281 8.25 -8.34375 C 9.050781 -7.445312 9.453125 -6.253906 9.453125 -4.765625 L 9.453125 -4.65625 C 9.453125 -3.726562 9.273438 -2.894531 8.921875 -2.15625 C 8.566406 -1.425781 8.0625 -0.851562 7.40625 -0.4375 C 6.75 -0.03125 5.992188 0.171875 5.140625 0.171875 C 3.847656 0.171875 2.800781 -0.273438 2 -1.171875 C 1.195312 -2.066406 0.796875 -3.253906 0.796875 -4.734375 Z M 2.4375 -4.65625 C 2.4375 -3.59375 2.679688 -2.742188 3.171875 -2.109375 C 3.660156 -1.472656 4.316406 -1.15625 5.140625 -1.15625 C 5.960938 -1.15625 6.613281 -1.476562 7.09375 -2.125 C 7.582031 -2.769531 7.828125 -3.675781 7.828125 -4.84375 C 7.828125 -5.882812 7.578125 -6.726562 7.078125 -7.375 C 6.585938 -8.019531 5.929688 -8.34375 5.109375 -8.34375 C 4.304688 -8.34375 3.660156 -8.023438 3.171875 -7.390625 C 2.679688 -6.753906 2.4375 -5.84375 2.4375 -4.65625 Z M 2.4375 -4.65625 "/></g></g></g><g fill="#17191a" fill-opacity="1"><g transform="translate(85.479505, 31.534081)"><g/></g></g><g fill="#17191a" fill-opacity="1"><g transform="translate(89.934449, 31.534081)"><g><path d="M 3 0 L 1.375 0 L 1.375 -9.515625 L 3 -9.515625 Z M 1.234375 -12.03125 C 1.234375 -12.289062 1.3125 -12.507812 1.46875 -12.6875 C 1.632812 -12.875 1.875 -12.96875 2.1875 -12.96875 C 2.507812 -12.96875 2.753906 -12.875 2.921875 -12.6875 C 3.085938 -12.507812 3.171875 -12.289062 3.171875 -12.03125 C 3.171875 -11.769531 3.085938 -11.550781 2.921875 -11.375 C 2.753906 -11.195312 2.507812 -11.109375 2.1875 -11.109375 C 1.875 -11.109375 1.632812 -11.195312 1.46875 -11.375 C 1.3125 -11.550781 1.234375 -11.769531 1.234375 -12.03125 Z M 1.234375 -12.03125 "/></g></g></g><g fill="#17191a" fill-opacity="1"><g transform="translate(94.301524, 31.534081)"><g><path d="M 2.765625 -1.328125 L 8.328125 -1.328125 L 8.328125 0 L 0.78125 0 L 0.78125 -1.203125 L 6.015625 -8.171875 L 0.859375 -8.171875 L 0.859375 -9.515625 L 8.0625 -9.515625 L 8.0625 -8.359375 Z M 2.765625 -1.328125 "/></g></g></g><g fill="#17191a" fill-opacity="1"><g transform="translate(103.220199, 31.534081)"><g><path d="M 2.765625 -9.515625 L 2.828125 -8.3125 C 3.546875 -9.226562 4.492188 -9.6875 5.671875 -9.6875 C 7.679688 -9.6875 8.691406 -8.550781 8.703125 -6.28125 L 8.703125 0 L 7.078125 0 L 7.078125 -6.296875 C 7.078125 -6.984375 6.921875 -7.488281 6.609375 -7.8125 C 6.304688 -8.144531 5.828125 -8.3125 5.171875 -8.3125 C 4.648438 -8.3125 4.1875 -8.171875 3.78125 -7.890625 C 3.382812 -7.609375 3.078125 -7.238281 2.859375 -6.78125 L 2.859375 0 L 1.234375 0 L 1.234375 -9.515625 Z M 2.765625 -9.515625 "/></g></g></g><g fill="#17191a" fill-opacity="1"><g transform="translate(113.149365, 31.534081)"><g><path d="M 0.796875 -4.84375 C 0.796875 -5.769531 0.976562 -6.601562 1.34375 -7.34375 C 1.71875 -8.09375 2.226562 -8.671875 2.875 -9.078125 C 3.53125 -9.484375 4.273438 -9.6875 5.109375 -9.6875 C 6.410156 -9.6875 7.457031 -9.238281 8.25 -8.34375 C 9.050781 -7.445312 9.453125 -6.253906 9.453125 -4.765625 L 9.453125 -4.65625 C 9.453125 -3.726562 9.273438 -2.894531 8.921875 -2.15625 C 8.566406 -1.425781 8.0625 -0.851562 7.40625 -0.4375 C 6.75 -0.03125 5.992188 0.171875 5.140625 0.171875 C 3.847656 0.171875 2.800781 -0.273438 2 -1.171875 C 1.195312 -2.066406 0.796875 -3.253906 0.796875 -4.734375 Z M 2.4375 -4.65625 C 2.4375 -3.59375 2.679688 -2.742188 3.171875 -2.109375 C 3.660156 -1.472656 4.316406 -1.15625 5.140625 -1.15625 C 5.960938 -1.15625 6.613281 -1.476562 7.09375 -2.125 C 7.582031 -2.769531 7.828125 -3.675781 7.828125 -4.84375 C 7.828125 -5.882812 7.578125 -6.726562 7.078125 -7.375 C 6.585938 -8.019531 5.929688 -8.34375 5.109375 -8.34375 C 4.304688 -8.34375 3.660156 -8.023438 3.171875 -7.390625 C 2.679688 -6.753906 2.4375 -5.84375 2.4375 -4.65625 Z M 2.4375 -4.65625 "/></g></g></g><g fill="#17191a" fill-opacity="1"><g transform="translate(123.412431, 31.534081)"><g><path d="M 6.765625 -2.515625 C 6.765625 -2.960938 6.597656 -3.304688 6.265625 -3.546875 C 5.941406 -3.785156 5.367188 -3.992188 4.546875 -4.171875 C 3.722656 -4.347656 3.066406 -4.554688 2.578125 -4.796875 C 2.097656 -5.046875 1.738281 -5.34375 1.5 -5.6875 C 1.269531 -6.03125 1.15625 -6.4375 1.15625 -6.90625 C 1.15625 -7.675781 1.484375 -8.332031 2.140625 -8.875 C 2.804688 -9.414062 3.648438 -9.6875 4.671875 -9.6875 C 5.753906 -9.6875 6.628906 -9.40625 7.296875 -8.84375 C 7.972656 -8.289062 8.3125 -7.582031 8.3125 -6.71875 L 6.671875 -6.71875 C 6.671875 -7.164062 6.476562 -7.546875 6.09375 -7.859375 C 5.71875 -8.179688 5.242188 -8.34375 4.671875 -8.34375 C 4.078125 -8.34375 3.613281 -8.210938 3.28125 -7.953125 C 2.945312 -7.703125 2.78125 -7.367188 2.78125 -6.953125 C 2.78125 -6.554688 2.9375 -6.257812 3.25 -6.0625 C 3.5625 -5.863281 4.125 -5.671875 4.9375 -5.484375 C 5.75 -5.304688 6.40625 -5.09375 6.90625 -4.84375 C 7.414062 -4.59375 7.789062 -4.289062 8.03125 -3.9375 C 8.269531 -3.582031 8.390625 -3.148438 8.390625 -2.640625 C 8.390625 -1.785156 8.050781 -1.101562 7.375 -0.59375 C 6.695312 -0.0820312 5.816406 0.171875 4.734375 0.171875 C 3.972656 0.171875 3.296875 0.0351562 2.703125 -0.234375 C 2.117188 -0.503906 1.660156 -0.878906 1.328125 -1.359375 C 0.992188 -1.835938 0.828125 -2.359375 0.828125 -2.921875 L 2.46875 -2.921875 C 2.488281 -2.378906 2.703125 -1.945312 3.109375 -1.625 C 3.523438 -1.3125 4.066406 -1.15625 4.734375 -1.15625 C 5.347656 -1.15625 5.835938 -1.28125 6.203125 -1.53125 C 6.578125 -1.78125 6.765625 -2.109375 6.765625 -2.515625 Z M 6.765625 -2.515625 "/></g></g></g><g fill="#17191a" fill-opacity="1"><g transform="translate(132.691368, 31.534081)"><g><path d="M 3 0 L 1.375 0 L 1.375 -9.515625 L 3 -9.515625 Z M 1.234375 -12.03125 C 1.234375 -12.289062 1.3125 -12.507812 1.46875 -12.6875 C 1.632812 -12.875 1.875 -12.96875 2.1875 -12.96875 C 2.507812 -12.96875 2.753906 -12.875 2.921875 -12.6875 C 3.085938 -12.507812 3.171875 -12.289062 3.171875 -12.03125 C 3.171875 -11.769531 3.085938 -11.550781 2.921875 -11.375 C 2.753906 -11.195312 2.507812 -11.109375 2.1875 -11.109375 C 1.875 -11.109375 1.632812 -11.195312 1.46875 -11.375 C 1.3125 -11.550781 1.234375 -11.769531 1.234375 -12.03125 Z M 1.234375 -12.03125 "/></g></g></g><g fill="#17191a" fill-opacity="1"><g transform="translate(137.058443, 31.534081)"><g/></g></g><g fill="#17191a" fill-opacity="1"><g transform="translate(141.513387, 31.534081)"><g><path d="M 3.890625 -4.40625 L 2.859375 -3.34375 L 2.859375 0 L 1.234375 0 L 1.234375 -13.5 L 2.859375 -13.5 L 2.859375 -5.328125 L 3.734375 -6.375 L 6.703125 -9.515625 L 8.671875 -9.515625 L 4.96875 -5.53125 L 9.109375 0 L 7.203125 0 Z M 3.890625 -4.40625 "/></g></g></g><g fill="#17191a" fill-opacity="1"><g transform="translate(150.63416, 31.534081)"><g><path d="M 0.796875 -4.84375 C 0.796875 -5.769531 0.976562 -6.601562 1.34375 -7.34375 C 1.71875 -8.09375 2.226562 -8.671875 2.875 -9.078125 C 3.53125 -9.484375 4.273438 -9.6875 5.109375 -9.6875 C 6.410156 -9.6875 7.457031 -9.238281 8.25 -8.34375 C 9.050781 -7.445312 9.453125 -6.253906 9.453125 -4.765625 L 9.453125 -4.65625 C 9.453125 -3.726562 9.273438 -2.894531 8.921875 -2.15625 C 8.566406 -1.425781 8.0625 -0.851562 7.40625 -0.4375 C 6.75 -0.03125 5.992188 0.171875 5.140625 0.171875 C 3.847656 0.171875 2.800781 -0.273438 2 -1.171875 C 1.195312 -2.066406 0.796875 -3.253906 0.796875 -4.734375 Z M 2.4375 -4.65625 C 2.4375 -3.59375 2.679688 -2.742188 3.171875 -2.109375 C 3.660156 -1.472656 4.316406 -1.15625 5.140625 -1.15625 C 5.960938 -1.15625 6.613281 -1.476562 7.09375 -2.125 C 7.582031 -2.769531 7.828125 -3.675781 7.828125 -4.84375 C 7.828125 -5.882812 7.578125 -6.726562 7.078125 -7.375 C 6.585938 -8.019531 5.929688 -8.34375 5.109375 -8.34375 C 4.304688 -8.34375 3.660156 -8.023438 3.171875 -7.390625 C 2.679688 -6.753906 2.4375 -5.84375 2.4375 -4.65625 Z M 2.4375 -4.65625 "/></g></g></g><g fill="#17191a" fill-opacity="1"><g transform="translate(160.897226, 31.534081)"><g><path d="M 3 0 L 1.375 0 L 1.375 -13.5 L 3 -13.5 Z M 3 0 "/></g></g></g><g fill="#17191a" fill-opacity="1"><g transform="translate(165.264302, 31.534081)"><g><path d="M 3 0 L 1.375 0 L 1.375 -9.515625 L 3 -9.515625 Z M 1.234375 -12.03125 C 1.234375 -12.289062 1.3125 -12.507812 1.46875 -12.6875 C 1.632812 -12.875 1.875 -12.96875 2.1875 -12.96875 C 2.507812 -12.96875 2.753906 -12.875 2.921875 -12.6875 C 3.085938 -12.507812 3.171875 -12.289062 3.171875 -12.03125 C 3.171875 -11.769531 3.085938 -11.550781 2.921875 -11.375 C 2.753906 -11.195312 2.507812 -11.109375 2.1875 -11.109375 C 1.875 -11.109375 1.632812 -11.195312 1.46875 -11.375 C 1.3125 -11.550781 1.234375 -11.769531 1.234375 -12.03125 Z M 1.234375 -12.03125 "/></g></g></g><g fill="#17191a" fill-opacity="1"><g transform="translate(169.631377, 31.534081)"><g><path d="M 5.046875 -1.15625 C 5.628906 -1.15625 6.132812 -1.328125 6.5625 -1.671875 C 7 -2.023438 7.238281 -2.46875 7.28125 -3 L 8.828125 -3 C 8.796875 -2.457031 8.609375 -1.9375 8.265625 -1.4375 C 7.921875 -0.945312 7.457031 -0.554688 6.875 -0.265625 C 6.300781 0.0234375 5.691406 0.171875 5.046875 0.171875 C 3.753906 0.171875 2.722656 -0.257812 1.953125 -1.125 C 1.191406 -1.988281 0.8125 -3.171875 0.8125 -4.671875 L 0.8125 -4.9375 C 0.8125 -5.863281 0.976562 -6.6875 1.3125 -7.40625 C 1.65625 -8.125 2.144531 -8.679688 2.78125 -9.078125 C 3.414062 -9.484375 4.164062 -9.6875 5.03125 -9.6875 C 6.101562 -9.6875 6.988281 -9.363281 7.6875 -8.71875 C 8.394531 -8.082031 8.773438 -7.253906 8.828125 -6.234375 L 7.28125 -6.234375 C 7.238281 -6.847656 7.003906 -7.351562 6.578125 -7.75 C 6.160156 -8.144531 5.644531 -8.34375 5.03125 -8.34375 C 4.207031 -8.34375 3.566406 -8.046875 3.109375 -7.453125 C 2.660156 -6.859375 2.4375 -6 2.4375 -4.875 L 2.4375 -4.578125 C 2.4375 -3.472656 2.660156 -2.625 3.109375 -2.03125 C 3.554688 -1.445312 4.203125 -1.15625 5.046875 -1.15625 Z M 4.671875 -12.015625 L 5.984375 -13.5 L 7.390625 -13.5 L 7.390625 -13.421875 L 5.15625 -11.015625 L 4.171875 -11.015625 L 1.953125 -13.421875 L 1.953125 -13.5 L 3.34375 -13.5 Z M 4.671875 -12.015625 "/></g></g></g><g fill="#17191a" fill-opacity="1"><g transform="translate(179.050904, 31.534081)"><g><path d="M 2.765625 -9.515625 L 2.828125 -8.3125 C 3.546875 -9.226562 4.492188 -9.6875 5.671875 -9.6875 C 7.679688 -9.6875 8.691406 -8.550781 8.703125 -6.28125 L 8.703125 0 L 7.078125 0 L 7.078125 -6.296875 C 7.078125 -6.984375 6.921875 -7.488281 6.609375 -7.8125 C 6.304688 -8.144531 5.828125 -8.3125 5.171875 -8.3125 C 4.648438 -8.3125 4.1875 -8.171875 3.78125 -7.890625 C 3.382812 -7.609375 3.078125 -7.238281 2.859375 -6.78125 L 2.859375 0 L 1.234375 0 L 1.234375 -9.515625 Z M 2.765625 -9.515625 "/></g></g></g><g fill="#17191a" fill-opacity="1"><g transform="translate(188.980069, 31.534081)"><g><path d="M 3 0 L 1.375 0 L 1.375 -9.515625 L 3 -9.515625 Z M 1.234375 -12.03125 C 1.234375 -12.289062 1.3125 -12.507812 1.46875 -12.6875 C 1.632812 -12.875 1.875 -12.96875 2.1875 -12.96875 C 2.507812 -12.96875 2.753906 -12.875 2.921875 -12.6875 C 3.085938 -12.507812 3.171875 -12.289062 3.171875 -12.03125 C 3.171875 -11.769531 3.085938 -11.550781 2.921875 -11.375 C 2.753906 -11.195312 2.507812 -11.109375 2.1875 -11.109375 C 1.875 -11.109375 1.632812 -11.195312 1.46875 -11.375 C 1.3125 -11.550781 1.234375 -11.769531 1.234375 -12.03125 Z M 1.234375 -12.03125 "/></g></g></g><g fill="#17191a" fill-opacity="1"><g transform="translate(193.347144, 31.534081)"><g><path d="M 3.890625 -4.40625 L 2.859375 -3.34375 L 2.859375 0 L 1.234375 0 L 1.234375 -13.5 L 2.859375 -13.5 L 2.859375 -5.328125 L 3.734375 -6.375 L 6.703125 -9.515625 L 8.671875 -9.515625 L 4.96875 -5.53125 L 9.109375 0 L 7.203125 0 Z M 3.890625 -4.40625 "/></g></g></g><g fill="#17191a" fill-opacity="1"><g transform="translate(202.467917, 31.534081)"><g/></g></g><g fill="#17191a" fill-opacity="1"><g transform="translate(206.922861, 31.534081)"><g><path d="M 5.828125 -8.046875 C 5.578125 -8.085938 5.3125 -8.109375 5.03125 -8.109375 C 3.957031 -8.109375 3.234375 -7.65625 2.859375 -6.75 L 2.859375 0 L 1.234375 0 L 1.234375 -9.515625 L 2.8125 -9.515625 L 2.84375 -8.40625 C 3.375 -9.257812 4.128906 -9.6875 5.109375 -9.6875 C 5.421875 -9.6875 5.660156 -9.644531 5.828125 -9.5625 Z M 5.828125 -8.046875 "/></g></g></g><g fill="#17191a" fill-opacity="1"><g transform="translate(213.012164, 31.534081)"><g><path d="M 2.90625 -9.515625 L 2.90625 1.09375 C 2.90625 2.925781 2.078125 3.84375 0.421875 3.84375 C 0.0664062 3.84375 -0.265625 3.789062 -0.578125 3.6875 L -0.578125 2.375 C -0.390625 2.425781 -0.140625 2.453125 0.171875 2.453125 C 0.535156 2.453125 0.8125 2.351562 1 2.15625 C 1.1875 1.957031 1.28125 1.617188 1.28125 1.140625 L 1.28125 -9.515625 Z M 1.109375 -12.03125 C 1.109375 -12.289062 1.1875 -12.507812 1.34375 -12.6875 C 1.507812 -12.875 1.75 -12.96875 2.0625 -12.96875 C 2.382812 -12.96875 2.625 -12.875 2.78125 -12.6875 C 2.945312 -12.507812 3.03125 -12.289062 3.03125 -12.03125 C 3.03125 -11.769531 2.945312 -11.550781 2.78125 -11.375 C 2.625 -11.195312 2.382812 -11.109375 2.0625 -11.109375 C 1.75 -11.109375 1.507812 -11.195312 1.34375 -11.375 C 1.1875 -11.550781 1.109375 -11.769531 1.109375 -12.03125 Z M 1.109375 -12.03125 "/></g></g></g><g fill="#17191a" fill-opacity="1"><g transform="translate(217.308944, 31.534081)"><g><path d="M 5.171875 0.171875 C 3.890625 0.171875 2.84375 -0.25 2.03125 -1.09375 C 1.21875 -1.9375 0.8125 -3.066406 0.8125 -4.484375 L 0.8125 -4.796875 C 0.8125 -5.734375 0.992188 -6.570312 1.359375 -7.3125 C 1.722656 -8.050781 2.226562 -8.628906 2.875 -9.046875 C 3.519531 -9.472656 4.21875 -9.6875 4.96875 -9.6875 C 6.207031 -9.6875 7.171875 -9.28125 7.859375 -8.46875 C 8.546875 -7.65625 8.890625 -6.488281 8.890625 -4.96875 L 8.890625 -4.296875 L 2.4375 -4.296875 C 2.46875 -3.359375 2.742188 -2.597656 3.265625 -2.015625 C 3.785156 -1.441406 4.453125 -1.15625 5.265625 -1.15625 C 5.835938 -1.15625 6.320312 -1.269531 6.71875 -1.5 C 7.125 -1.738281 7.472656 -2.050781 7.765625 -2.4375 L 8.765625 -1.65625 C 7.960938 -0.4375 6.765625 0.171875 5.171875 0.171875 Z M 4.96875 -8.34375 C 4.3125 -8.34375 3.757812 -8.101562 3.3125 -7.625 C 2.875 -7.15625 2.601562 -6.488281 2.5 -5.625 L 7.265625 -5.625 L 7.265625 -5.75 C 7.210938 -6.570312 6.988281 -7.207031 6.59375 -7.65625 C 6.195312 -8.113281 5.65625 -8.34375 4.96875 -8.34375 Z M 4.96875 -8.34375 "/></g></g></g><g fill="#17191a" fill-opacity="1"><g transform="translate(226.8427, 31.534081)"><g><path d="M 6.765625 -2.515625 C 6.765625 -2.960938 6.597656 -3.304688 6.265625 -3.546875 C 5.941406 -3.785156 5.367188 -3.992188 4.546875 -4.171875 C 3.722656 -4.347656 3.066406 -4.554688 2.578125 -4.796875 C 2.097656 -5.046875 1.738281 -5.34375 1.5 -5.6875 C 1.269531 -6.03125 1.15625 -6.4375 1.15625 -6.90625 C 1.15625 -7.675781 1.484375 -8.332031 2.140625 -8.875 C 2.804688 -9.414062 3.648438 -9.6875 4.671875 -9.6875 C 5.753906 -9.6875 6.628906 -9.40625 7.296875 -8.84375 C 7.972656 -8.289062 8.3125 -7.582031 8.3125 -6.71875 L 6.671875 -6.71875 C 6.671875 -7.164062 6.476562 -7.546875 6.09375 -7.859375 C 5.71875 -8.179688 5.242188 -8.34375 4.671875 -8.34375 C 4.078125 -8.34375 3.613281 -8.210938 3.28125 -7.953125 C 2.945312 -7.703125 2.78125 -7.367188 2.78125 -6.953125 C 2.78125 -6.554688 2.9375 -6.257812 3.25 -6.0625 C 3.5625 -5.863281 4.125 -5.671875 4.9375 -5.484375 C 5.75 -5.304688 6.40625 -5.09375 6.90625 -4.84375 C 7.414062 -4.59375 7.789062 -4.289062 8.03125 -3.9375 C 8.269531 -3.582031 8.390625 -3.148438 8.390625 -2.640625 C 8.390625 -1.785156 8.050781 -1.101562 7.375 -0.59375 C 6.695312 -0.0820312 5.816406 0.171875 4.734375 0.171875 C 3.972656 0.171875 3.296875 0.0351562 2.703125 -0.234375 C 2.117188 -0.503906 1.660156 -0.878906 1.328125 -1.359375 C 0.992188 -1.835938 0.828125 -2.359375 0.828125 -2.921875 L 2.46875 -2.921875 C 2.488281 -2.378906 2.703125 -1.945312 3.109375 -1.625 C 3.523438 -1.3125 4.066406 -1.15625 4.734375 -1.15625 C 5.347656 -1.15625 5.835938 -1.28125 6.203125 -1.53125 C 6.578125 -1.78125 6.765625 -2.109375 6.765625 -2.515625 Z M 4.9375 -12.015625 L 6.25 -13.5 L 7.65625 -13.5 L 7.65625 -13.421875 L 5.421875 -11.015625 L 4.4375 -11.015625 L 2.21875 -13.421875 L 2.21875 -13.5 L 3.609375 -13.5 Z M 4.9375 -12.015625 "/></g></g></g><g fill="#17191a" fill-opacity="1"><g transform="translate(236.121649, 31.534081)"><g><path d="M 5.171875 0.171875 C 3.890625 0.171875 2.84375 -0.25 2.03125 -1.09375 C 1.21875 -1.9375 0.8125 -3.066406 0.8125 -4.484375 L 0.8125 -4.796875 C 0.8125 -5.734375 0.992188 -6.570312 1.359375 -7.3125 C 1.722656 -8.050781 2.226562 -8.628906 2.875 -9.046875 C 3.519531 -9.472656 4.21875 -9.6875 4.96875 -9.6875 C 6.207031 -9.6875 7.171875 -9.28125 7.859375 -8.46875 C 8.546875 -7.65625 8.890625 -6.488281 8.890625 -4.96875 L 8.890625 -4.296875 L 2.4375 -4.296875 C 2.46875 -3.359375 2.742188 -2.597656 3.265625 -2.015625 C 3.785156 -1.441406 4.453125 -1.15625 5.265625 -1.15625 C 5.835938 -1.15625 6.320312 -1.269531 6.71875 -1.5 C 7.125 -1.738281 7.472656 -2.050781 7.765625 -2.4375 L 8.765625 -1.65625 C 7.960938 -0.4375 6.765625 0.171875 5.171875 0.171875 Z M 4.96875 -8.34375 C 4.3125 -8.34375 3.757812 -8.101562 3.3125 -7.625 C 2.875 -7.15625 2.601562 -6.488281 2.5 -5.625 L 7.265625 -5.625 L 7.265625 -5.75 C 7.210938 -6.570312 6.988281 -7.207031 6.59375 -7.65625 C 6.195312 -8.113281 5.65625 -8.34375 4.96875 -8.34375 Z M 4.96875 -8.34375 "/></g></g></g><g fill="#17191a" fill-opacity="1"><g transform="translate(245.655418, 31.534081)"><g><path d="M 2.765625 -9.515625 L 2.828125 -8.3125 C 3.546875 -9.226562 4.492188 -9.6875 5.671875 -9.6875 C 7.679688 -9.6875 8.691406 -8.550781 8.703125 -6.28125 L 8.703125 0 L 7.078125 0 L 7.078125 -6.296875 C 7.078125 -6.984375 6.921875 -7.488281 6.609375 -7.8125 C 6.304688 -8.144531 5.828125 -8.3125 5.171875 -8.3125 C 4.648438 -8.3125 4.1875 -8.171875 3.78125 -7.890625 C 3.382812 -7.609375 3.078125 -7.238281 2.859375 -6.78125 L 2.859375 0 L 1.234375 0 L 1.234375 -9.515625 Z M 2.765625 -9.515625 "/></g></g></g><g fill="#17191a" fill-opacity="1"><g transform="translate(255.584583, 31.534081)"><g><path d="M 2.90625 -9.515625 L 2.90625 1.09375 C 2.90625 2.925781 2.078125 3.84375 0.421875 3.84375 C 0.0664062 3.84375 -0.265625 3.789062 -0.578125 3.6875 L -0.578125 2.375 C -0.390625 2.425781 -0.140625 2.453125 0.171875 2.453125 C 0.535156 2.453125 0.8125 2.351562 1 2.15625 C 1.1875 1.957031 1.28125 1.617188 1.28125 1.140625 L 1.28125 -9.515625 Z M 1.109375 -12.03125 C 1.109375 -12.289062 1.1875 -12.507812 1.34375 -12.6875 C 1.507812 -12.875 1.75 -12.96875 2.0625 -12.96875 C 2.382812 -12.96875 2.625 -12.875 2.78125 -12.6875 C 2.945312 -12.507812 3.03125 -12.289062 3.03125 -12.03125 C 3.03125 -11.769531 2.945312 -11.550781 2.78125 -11.375 C 2.625 -11.195312 2.382812 -11.109375 2.0625 -11.109375 C 1.75 -11.109375 1.507812 -11.195312 1.34375 -11.375 C 1.1875 -11.550781 1.109375 -11.769531 1.109375 -12.03125 Z M 1.109375 -12.03125 "/></g></g></g><g fill="#17191a" fill-opacity="1"><g transform="translate(259.881351, 31.534081)"><g><path d="M 7.109375 0 C 7.015625 -0.1875 6.9375 -0.519531 6.875 -1 C 6.113281 -0.21875 5.210938 0.171875 4.171875 0.171875 C 3.234375 0.171875 2.460938 -0.09375 1.859375 -0.625 C 1.253906 -1.15625 0.953125 -1.828125 0.953125 -2.640625 C 0.953125 -3.628906 1.328125 -4.394531 2.078125 -4.9375 C 2.835938 -5.488281 3.898438 -5.765625 5.265625 -5.765625 L 6.84375 -5.765625 L 6.84375 -6.515625 C 6.84375 -7.078125 6.671875 -7.523438 6.328125 -7.859375 C 5.992188 -8.203125 5.492188 -8.375 4.828125 -8.375 C 4.253906 -8.375 3.769531 -8.226562 3.375 -7.9375 C 2.976562 -7.644531 2.78125 -7.289062 2.78125 -6.875 L 1.15625 -6.875 C 1.15625 -7.34375 1.320312 -7.796875 1.65625 -8.234375 C 1.988281 -8.679688 2.441406 -9.035156 3.015625 -9.296875 C 3.597656 -9.554688 4.238281 -9.6875 4.9375 -9.6875 C 6.03125 -9.6875 6.882812 -9.410156 7.5 -8.859375 C 8.125 -8.316406 8.445312 -7.5625 8.46875 -6.59375 L 8.46875 -2.21875 C 8.46875 -1.351562 8.582031 -0.660156 8.8125 -0.140625 L 8.8125 0 Z M 4.40625 -1.234375 C 4.914062 -1.234375 5.398438 -1.363281 5.859375 -1.625 C 6.316406 -1.894531 6.644531 -2.238281 6.84375 -2.65625 L 6.84375 -4.609375 L 5.578125 -4.609375 C 3.578125 -4.609375 2.578125 -4.023438 2.578125 -2.859375 C 2.578125 -2.347656 2.75 -1.945312 3.09375 -1.65625 C 3.4375 -1.375 3.875 -1.234375 4.40625 -1.234375 Z M 4.40625 -1.234375 "/></g></g></g><g fill="#17191a" fill-opacity="1"><g transform="translate(269.669926, 31.534081)"><g/></g></g><g fill="#17191a" fill-opacity="1"><g transform="translate(274.124883, 31.534081)"><g><path d="M 2.90625 -9.515625 L 2.90625 1.09375 C 2.90625 2.925781 2.078125 3.84375 0.421875 3.84375 C 0.0664062 3.84375 -0.265625 3.789062 -0.578125 3.6875 L -0.578125 2.375 C -0.390625 2.425781 -0.140625 2.453125 0.171875 2.453125 C 0.535156 2.453125 0.8125 2.351562 1 2.15625 C 1.1875 1.957031 1.28125 1.617188 1.28125 1.140625 L 1.28125 -9.515625 Z M 1.109375 -12.03125 C 1.109375 -12.289062 1.1875 -12.507812 1.34375 -12.6875 C 1.507812 -12.875 1.75 -12.96875 2.0625 -12.96875 C 2.382812 -12.96875 2.625 -12.875 2.78125 -12.6875 C 2.945312 -12.507812 3.03125 -12.289062 3.03125 -12.03125 C 3.03125 -11.769531 2.945312 -11.550781 2.78125 -11.375 C 2.625 -11.195312 2.382812 -11.109375 2.0625 -11.109375 C 1.75 -11.109375 1.507812 -11.195312 1.34375 -11.375 C 1.1875 -11.550781 1.109375 -11.769531 1.109375 -12.03125 Z M 1.109375 -12.03125 "/></g></g></g><g fill="#17191a" fill-opacity="1"><g transform="translate(278.421676, 31.534081)"><g><path d="M 5.171875 0.171875 C 3.890625 0.171875 2.84375 -0.25 2.03125 -1.09375 C 1.21875 -1.9375 0.8125 -3.066406 0.8125 -4.484375 L 0.8125 -4.796875 C 0.8125 -5.734375 0.992188 -6.570312 1.359375 -7.3125 C 1.722656 -8.050781 2.226562 -8.628906 2.875 -9.046875 C 3.519531 -9.472656 4.21875 -9.6875 4.96875 -9.6875 C 6.207031 -9.6875 7.171875 -9.28125 7.859375 -8.46875 C 8.546875 -7.65625 8.890625 -6.488281 8.890625 -4.96875 L 8.890625 -4.296875 L 2.4375 -4.296875 C 2.46875 -3.359375 2.742188 -2.597656 3.265625 -2.015625 C 3.785156 -1.441406 4.453125 -1.15625 5.265625 -1.15625 C 5.835938 -1.15625 6.320312 -1.269531 6.71875 -1.5 C 7.125 -1.738281 7.472656 -2.050781 7.765625 -2.4375 L 8.765625 -1.65625 C 7.960938 -0.4375 6.765625 0.171875 5.171875 0.171875 Z M 4.96875 -8.34375 C 4.3125 -8.34375 3.757812 -8.101562 3.3125 -7.625 C 2.875 -7.15625 2.601562 -6.488281 2.5 -5.625 L 7.265625 -5.625 L 7.265625 -5.75 C 7.210938 -6.570312 6.988281 -7.207031 6.59375 -7.65625 C 6.195312 -8.113281 5.65625 -8.34375 4.96875 -8.34375 Z M 4.96875 -8.34375 "/></g></g></g><g fill="#17191a" fill-opacity="1"><g transform="translate(287.955444, 31.534081)"><g><path d="M 0.828125 -4.828125 C 0.828125 -6.285156 1.171875 -7.457031 1.859375 -8.34375 C 2.554688 -9.238281 3.46875 -9.6875 4.59375 -9.6875 C 5.707031 -9.6875 6.585938 -9.304688 7.234375 -8.546875 L 7.234375 -13.5 L 8.859375 -13.5 L 8.859375 0 L 7.359375 0 L 7.28125 -1.015625 C 6.632812 -0.222656 5.734375 0.171875 4.578125 0.171875 C 3.472656 0.171875 2.570312 -0.273438 1.875 -1.171875 C 1.175781 -2.078125 0.828125 -3.257812 0.828125 -4.71875 Z M 2.46875 -4.65625 C 2.46875 -3.570312 2.6875 -2.722656 3.125 -2.109375 C 3.570312 -1.503906 4.1875 -1.203125 4.96875 -1.203125 C 6 -1.203125 6.753906 -1.664062 7.234375 -2.59375 L 7.234375 -6.96875 C 6.742188 -7.863281 6 -8.3125 5 -8.3125 C 4.195312 -8.3125 3.570312 -8 3.125 -7.375 C 2.6875 -6.757812 2.46875 -5.851562 2.46875 -4.65625 Z M 2.46875 -4.65625 "/></g></g></g><g fill="#17191a" fill-opacity="1"><g transform="translate(298.104269, 31.534081)"><g><path d="M 2.765625 -9.515625 L 2.828125 -8.3125 C 3.546875 -9.226562 4.492188 -9.6875 5.671875 -9.6875 C 7.679688 -9.6875 8.691406 -8.550781 8.703125 -6.28125 L 8.703125 0 L 7.078125 0 L 7.078125 -6.296875 C 7.078125 -6.984375 6.921875 -7.488281 6.609375 -7.8125 C 6.304688 -8.144531 5.828125 -8.3125 5.171875 -8.3125 C 4.648438 -8.3125 4.1875 -8.171875 3.78125 -7.890625 C 3.382812 -7.609375 3.078125 -7.238281 2.859375 -6.78125 L 2.859375 0 L 1.234375 0 L 1.234375 -9.515625 Z M 2.765625 -9.515625 "/></g></g></g><g fill="#17191a" fill-opacity="1"><g transform="translate(308.033434, 31.534081)"><g><path d="M 7.109375 0 C 7.015625 -0.1875 6.9375 -0.519531 6.875 -1 C 6.113281 -0.21875 5.210938 0.171875 4.171875 0.171875 C 3.234375 0.171875 2.460938 -0.09375 1.859375 -0.625 C 1.253906 -1.15625 0.953125 -1.828125 0.953125 -2.640625 C 0.953125 -3.628906 1.328125 -4.394531 2.078125 -4.9375 C 2.835938 -5.488281 3.898438 -5.765625 5.265625 -5.765625 L 6.84375 -5.765625 L 6.84375 -6.515625 C 6.84375 -7.078125 6.671875 -7.523438 6.328125 -7.859375 C 5.992188 -8.203125 5.492188 -8.375 4.828125 -8.375 C 4.253906 -8.375 3.769531 -8.226562 3.375 -7.9375 C 2.976562 -7.644531 2.78125 -7.289062 2.78125 -6.875 L 1.15625 -6.875 C 1.15625 -7.34375 1.320312 -7.796875 1.65625 -8.234375 C 1.988281 -8.679688 2.441406 -9.035156 3.015625 -9.296875 C 3.597656 -9.554688 4.238281 -9.6875 4.9375 -9.6875 C 6.03125 -9.6875 6.882812 -9.410156 7.5 -8.859375 C 8.125 -8.316406 8.445312 -7.5625 8.46875 -6.59375 L 8.46875 -2.21875 C 8.46875 -1.351562 8.582031 -0.660156 8.8125 -0.140625 L 8.8125 0 Z M 4.40625 -1.234375 C 4.914062 -1.234375 5.398438 -1.363281 5.859375 -1.625 C 6.316406 -1.894531 6.644531 -2.238281 6.84375 -2.65625 L 6.84375 -4.609375 L 5.578125 -4.609375 C 3.578125 -4.609375 2.578125 -4.023438 2.578125 -2.859375 C 2.578125 -2.347656 2.75 -1.945312 3.09375 -1.65625 C 3.4375 -1.375 3.875 -1.234375 4.40625 -1.234375 Z M 4.40625 -1.234375 "/></g></g></g><g fill="#17191a" fill-opacity="1"><g transform="translate(317.822009, 31.534081)"><g><path d="M 0.828125 -4.828125 C 0.828125 -6.285156 1.171875 -7.457031 1.859375 -8.34375 C 2.554688 -9.238281 3.46875 -9.6875 4.59375 -9.6875 C 5.707031 -9.6875 6.585938 -9.304688 7.234375 -8.546875 L 7.234375 -13.5 L 8.859375 -13.5 L 8.859375 0 L 7.359375 0 L 7.28125 -1.015625 C 6.632812 -0.222656 5.734375 0.171875 4.578125 0.171875 C 3.472656 0.171875 2.570312 -0.273438 1.875 -1.171875 C 1.175781 -2.078125 0.828125 -3.257812 0.828125 -4.71875 Z M 2.46875 -4.65625 C 2.46875 -3.570312 2.6875 -2.722656 3.125 -2.109375 C 3.570312 -1.503906 4.1875 -1.203125 4.96875 -1.203125 C 6 -1.203125 6.753906 -1.664062 7.234375 -2.59375 L 7.234375 -6.96875 C 6.742188 -7.863281 6 -8.3125 5 -8.3125 C 4.195312 -8.3125 3.570312 -8 3.125 -7.375 C 2.6875 -6.757812 2.46875 -5.851562 2.46875 -4.65625 Z M 2.46875 -4.65625 "/></g></g></g><g fill="#17191a" fill-opacity="1"><g transform="translate(327.970833, 31.534081)"><g><path d="M 2.765625 -1.328125 L 8.328125 -1.328125 L 8.328125 0 L 0.78125 0 L 0.78125 -1.203125 L 6.015625 -8.171875 L 0.859375 -8.171875 L 0.859375 -9.515625 L 8.0625 -9.515625 L 8.0625 -8.359375 Z M 4.515625 -12.015625 L 5.828125 -13.5 L 7.234375 -13.5 L 7.234375 -13.421875 L 5 -11.015625 L 4.015625 -11.015625 L 1.796875 -13.421875 L 1.796875 -13.5 L 3.1875 -13.5 Z M 4.515625 -12.015625 "/></g></g></g><g fill="#17191a" fill-opacity="1"><g transform="translate(336.889496, 31.534081)"><g><path d="M 9.28125 -4.65625 C 9.28125 -3.195312 8.945312 -2.023438 8.28125 -1.140625 C 7.613281 -0.265625 6.71875 0.171875 5.59375 0.171875 C 4.382812 0.171875 3.453125 -0.25 2.796875 -1.09375 L 2.71875 0 L 1.234375 0 L 1.234375 -13.5 L 2.859375 -13.5 L 2.859375 -8.46875 C 3.515625 -9.28125 4.414062 -9.6875 5.5625 -9.6875 C 6.71875 -9.6875 7.625 -9.25 8.28125 -8.375 C 8.945312 -7.5 9.28125 -6.304688 9.28125 -4.796875 Z M 7.65625 -4.828125 C 7.65625 -5.941406 7.441406 -6.800781 7.015625 -7.40625 C 6.585938 -8.007812 5.972656 -8.3125 5.171875 -8.3125 C 4.097656 -8.3125 3.328125 -7.8125 2.859375 -6.8125 L 2.859375 -2.703125 C 3.359375 -1.703125 4.132812 -1.203125 5.1875 -1.203125 C 5.96875 -1.203125 6.570312 -1.503906 7 -2.109375 C 7.4375 -2.710938 7.65625 -3.617188 7.65625 -4.828125 Z M 7.65625 -4.828125 "/></g></g></g><g fill="#17191a" fill-opacity="1"><g transform="translate(346.985624, 31.534081)"><g><path d="M 5.171875 0.171875 C 3.890625 0.171875 2.84375 -0.25 2.03125 -1.09375 C 1.21875 -1.9375 0.8125 -3.066406 0.8125 -4.484375 L 0.8125 -4.796875 C 0.8125 -5.734375 0.992188 -6.570312 1.359375 -7.3125 C 1.722656 -8.050781 2.226562 -8.628906 2.875 -9.046875 C 3.519531 -9.472656 4.21875 -9.6875 4.96875 -9.6875 C 6.207031 -9.6875 7.171875 -9.28125 7.859375 -8.46875 C 8.546875 -7.65625 8.890625 -6.488281 8.890625 -4.96875 L 8.890625 -4.296875 L 2.4375 -4.296875 C 2.46875 -3.359375 2.742188 -2.597656 3.265625 -2.015625 C 3.785156 -1.441406 4.453125 -1.15625 5.265625 -1.15625 C 5.835938 -1.15625 6.320312 -1.269531 6.71875 -1.5 C 7.125 -1.738281 7.472656 -2.050781 7.765625 -2.4375 L 8.765625 -1.65625 C 7.960938 -0.4375 6.765625 0.171875 5.171875 0.171875 Z M 4.96875 -8.34375 C 4.3125 -8.34375 3.757812 -8.101562 3.3125 -7.625 C 2.875 -7.15625 2.601562 -6.488281 2.5 -5.625 L 7.265625 -5.625 L 7.265625 -5.75 C 7.210938 -6.570312 6.988281 -7.207031 6.59375 -7.65625 C 6.195312 -8.113281 5.65625 -8.34375 4.96875 -8.34375 Z M 4.96875 -8.34375 "/></g></g></g><g fill="#17191a" fill-opacity="1"><g transform="translate(356.519393, 31.534081)"><g><path d="M 1.171875 -0.859375 C 1.171875 -1.140625 1.253906 -1.375 1.421875 -1.5625 C 1.585938 -1.75 1.835938 -1.84375 2.171875 -1.84375 C 2.503906 -1.84375 2.753906 -1.75 2.921875 -1.5625 C 3.097656 -1.375 3.1875 -1.140625 3.1875 -0.859375 C 3.1875 -0.585938 3.097656 -0.359375 2.921875 -0.171875 C 2.753906 0.00390625 2.503906 0.09375 2.171875 0.09375 C 1.835938 0.09375 1.585938 0.00390625 1.421875 -0.171875 C 1.253906 -0.359375 1.171875 -0.585938 1.171875 -0.859375 Z M 1.1875 -8.625 C 1.1875 -8.90625 1.269531 -9.140625 1.4375 -9.328125 C 1.601562 -9.515625 1.851562 -9.609375 2.1875 -9.609375 C 2.519531 -9.609375 2.769531 -9.515625 2.9375 -9.328125 C 3.113281 -9.140625 3.203125 -8.90625 3.203125 -8.625 C 3.203125 -8.351562 3.113281 -8.125 2.9375 -7.9375 C 2.769531 -7.757812 2.519531 -7.671875 2.1875 -7.671875 C 1.851562 -7.671875 1.601562 -7.757812 1.4375 -7.9375 C 1.269531 -8.125 1.1875 -8.351562 1.1875 -8.625 Z M 1.1875 -8.625 "/></g></g></g><g fill="#17191a" fill-opacity="1"><g transform="translate(19.45495, 56.535084)"><g/></g></g><g fill="#17191a" fill-opacity="1"><g transform="translate(23.909894, 56.535084)"><g/></g></g><g fill="#17191a" fill-opacity="1"><g transform="translate(28.364838, 56.535084)"><g/></g></g><g fill="#17191a" fill-opacity="1"><g transform="translate(32.819782, 56.535084)"><g/></g></g><g fill="#17191a" fill-opacity="1"><g transform="translate(37.274726, 56.535084)"><g/></g></g><g fill="#17191a" fill-opacity="1"><g transform="translate(41.729671, 56.535084)"><g/></g></g><g fill="#17191a" fill-opacity="1"><g transform="translate(46.184615, 56.535084)"><g/></g></g><g fill="#17191a" fill-opacity="1"><g transform="translate(50.639559, 56.535084)"><g/></g></g><g fill="#17191a" fill-opacity="1"><g transform="translate(55.094503, 56.535084)"><g/></g></g><g fill="#17191a" fill-opacity="1"><g transform="translate(59.549447, 56.535084)"><g/></g></g><g fill="#17191a" fill-opacity="1"><g transform="translate(64.004391, 56.535084)"><g/></g></g><g fill="#17191a" fill-opacity="1"><g transform="translate(68.459335, 56.535084)"><g/></g></g><g fill="#17191a" fill-opacity="1"><g transform="translate(72.914279, 56.535084)"><g/></g></g><g fill="#17191a" fill-opacity="1"><g transform="translate(77.369223, 56.535084)"><g/></g></g><g fill="#17191a" fill-opacity="1"><g transform="translate(81.824167, 56.535084)"><g/></g></g><g fill="#17191a" fill-opacity="1"><g transform="translate(86.279111, 56.535084)"><g/></g></g><g fill="#17191a" fill-opacity="1"><g transform="translate(90.734055, 56.535084)"><g/></g></g><g fill="#17191a" fill-opacity="1"><g transform="translate(95.188999, 56.535084)"><g/></g></g><g fill="#17191a" fill-opacity="1"><g transform="translate(99.643943, 56.535084)"><g/></g></g><g fill="#17191a" fill-opacity="1"><g transform="translate(104.098887, 56.535084)"><g/></g></g><g fill="#17191a" fill-opacity="1"><g transform="translate(108.553831, 56.535084)"><g/></g></g><g fill="#17191a" fill-opacity="1"><g transform="translate(113.008775, 56.535084)"><g/></g></g><g fill="#17191a" fill-opacity="1"><g transform="translate(117.463719, 56.535084)"><g/></g></g><g fill="#17191a" fill-opacity="1"><g transform="translate(121.918663, 56.535084)"><g/></g></g><g fill="#17191a" fill-opacity="1"><g transform="translate(126.373607, 56.535084)"><g/></g></g><g fill="#17191a" fill-opacity="1"><g transform="translate(130.828551, 56.535084)"><g/></g></g><g fill="#17191a" fill-opacity="1"><g transform="translate(135.283495, 56.535084)"><g/></g></g><g fill="#17191a" fill-opacity="1"><g transform="translate(139.73844, 56.535084)"><g/></g></g><g fill="#17191a" fill-opacity="1"><g transform="translate(144.193384, 56.535084)"><g/></g></g><g fill="#17191a" fill-opacity="1"><g transform="translate(148.648328, 56.535084)"><g/></g></g><g fill="#17191a" fill-opacity="1"><g transform="translate(153.103272, 56.535084)"><g/></g></g><g fill="#17191a" fill-opacity="1"><g transform="translate(157.558216, 56.535084)"><g/></g></g><g fill="#17191a" fill-opacity="1"><g transform="translate(162.01316, 56.535084)"><g/></g></g><g fill="#17191a" fill-opacity="1"><g transform="translate(166.468104, 56.535084)"><g/></g></g><g fill="#17191a" fill-opacity="1"><g transform="translate(170.923048, 56.535084)"><g/></g></g><g fill="#17191a" fill-opacity="1"><g transform="translate(175.377992, 56.535084)"><g/></g></g><g fill="#17191a" fill-opacity="1"><g transform="translate(179.832936, 56.535084)"><g/></g></g><g fill="#17191a" fill-opacity="1"><g transform="translate(184.28788, 56.535084)"><g/></g></g><g fill="#17191a" fill-opacity="1"><g transform="translate(188.742824, 56.535084)"><g/></g></g><g fill="#17191a" fill-opacity="1"><g transform="translate(193.197768, 56.535084)"><g/></g></g><g fill="#17191a" fill-opacity="1"><g transform="translate(197.652712, 56.535084)"><g/></g></g><g fill="#17191a" fill-opacity="1"><g transform="translate(202.103866, 56.535084)"><g><path d="M 3.140625 -3.609375 C 3.148438 -4.304688 3.226562 -4.851562 3.375 -5.25 C 3.519531 -5.65625 3.816406 -6.101562 4.265625 -6.59375 L 5.421875 -7.78125 C 5.910156 -8.34375 6.15625 -8.941406 6.15625 -9.578125 C 6.15625 -10.191406 5.992188 -10.671875 5.671875 -11.015625 C 5.347656 -11.367188 4.878906 -11.546875 4.265625 -11.546875 C 3.671875 -11.546875 3.191406 -11.382812 2.828125 -11.0625 C 2.460938 -10.75 2.28125 -10.328125 2.28125 -9.796875 L 0.65625 -9.796875 C 0.664062 -10.742188 1.003906 -11.507812 1.671875 -12.09375 C 2.335938 -12.675781 3.203125 -12.96875 4.265625 -12.96875 C 5.378906 -12.96875 6.242188 -12.671875 6.859375 -12.078125 C 7.472656 -11.484375 7.78125 -10.671875 7.78125 -9.640625 C 7.78125 -8.609375 7.304688 -7.59375 6.359375 -6.59375 L 5.40625 -5.65625 C 4.976562 -5.175781 4.765625 -4.492188 4.765625 -3.609375 Z M 3.0625 -0.8125 C 3.0625 -1.082031 3.140625 -1.304688 3.296875 -1.484375 C 3.460938 -1.660156 3.703125 -1.75 4.015625 -1.75 C 4.335938 -1.75 4.582031 -1.660156 4.75 -1.484375 C 4.914062 -1.304688 5 -1.082031 5 -0.8125 C 5 -0.550781 4.914062 -0.332031 4.75 -0.15625 C 4.582031 0.0078125 4.335938 0.09375 4.015625 0.09375 C 3.703125 0.09375 3.460938 0.0078125 3.296875 -0.15625 C 3.140625 -0.332031 3.0625 -0.550781 3.0625 -0.8125 Z M 3.0625 -0.8125 "/></g></g></g><g fill="#17191a" fill-opacity="1"><g transform="translate(210.600303, 56.535084)"><g/></g></g><g fill="#17191a" fill-opacity="1"><g transform="translate(215.055247, 56.535084)"><g/></g></g><g fill="#17191a" fill-opacity="1"><g transform="translate(219.510191, 56.535084)"><g/></g></g><g fill="#17191a" fill-opacity="1"><g transform="translate(223.965135, 56.535084)"><g/></g></g><g fill="#17191a" fill-opacity="1"><g transform="translate(228.420079, 56.535084)"><g/></g></g><g fill="#17191a" fill-opacity="1"><g transform="translate(232.875023, 56.535084)"><g/></g></g><g fill="#17191a" fill-opacity="1"><g transform="translate(237.329967, 56.535084)"><g/></g></g><g fill="#17191a" fill-opacity="1"><g transform="translate(241.784911, 56.535084)"><g/></g></g><g fill="#17191a" fill-opacity="1"><g transform="translate(246.239855, 56.535084)"><g/></g></g><g fill="#17191a" fill-opacity="1"><g transform="translate(250.694799, 56.535084)"><g/></g></g><g fill="#17191a" fill-opacity="1"><g transform="translate(255.149743, 56.535084)"><g/></g></g><g fill="#17191a" fill-opacity="1"><g transform="translate(259.604687, 56.535084)"><g/></g></g><g fill="#17191a" fill-opacity="1"><g transform="translate(264.059631, 56.535084)"><g/></g></g><g fill="#17191a" fill-opacity="1"><g transform="translate(268.514575, 56.535084)"><g/></g></g><g fill="#17191a" fill-opacity="1"><g transform="translate(272.969519, 56.535084)"><g/></g></g><g fill="#17191a" fill-opacity="1"><g transform="translate(277.424463, 56.535084)"><g/></g></g><g fill="#17191a" fill-opacity="1"><g transform="translate(281.879408, 56.535084)"><g/></g></g><g fill="#17191a" fill-opacity="1"><g transform="translate(286.334352, 56.535084)"><g/></g></g><g fill="#17191a" fill-opacity="1"><g transform="translate(290.789296, 56.535084)"><g/></g></g><g fill="#17191a" fill-opacity="1"><g transform="translate(295.24424, 56.535084)"><g/></g></g><g fill="#17191a" fill-opacity="1"><g transform="translate(299.699184, 56.535084)"><g/></g></g><g fill="#17191a" fill-opacity="1"><g transform="translate(304.154128, 56.535084)"><g/></g></g><g fill="#17191a" fill-opacity="1"><g transform="translate(308.609072, 56.535084)"><g/></g></g><g fill="#17191a" fill-opacity="1"><g transform="translate(313.064016, 56.535084)"><g/></g></g><g fill="#17191a" fill-opacity="1"><g transform="translate(317.51896, 56.535084)"><g/></g></g><g fill="#17191a" fill-opacity="1"><g transform="translate(321.973904, 56.535084)"><g/></g></g><g fill="#17191a" fill-opacity="1"><g transform="translate(326.428848, 56.535084)"><g/></g></g><g fill="#17191a" fill-opacity="1"><g transform="translate(330.883792, 56.535084)"><g/></g></g><g fill="#17191a" fill-opacity="1"><g transform="translate(335.338736, 56.535084)"><g/></g></g><g fill="#17191a" fill-opacity="1"><g transform="translate(339.79368, 56.535084)"><g/></g></g><g fill="#17191a" fill-opacity="1"><g transform="translate(344.248624, 56.535084)"><g/></g></g><g fill="#17191a" fill-opacity="1"><g transform="translate(348.703568, 56.535084)"><g/></g></g><g fill="#17191a" fill-opacity="1"><g transform="translate(353.158512, 56.535084)"><g/></g></g><g fill="#17191a" fill-opacity="1"><g transform="translate(357.613456, 56.535084)"><g/></g></g><g fill="#17191a" fill-opacity="1"><g transform="translate(362.0684, 56.535084)"><g/></g></g><g fill="#17191a" fill-opacity="1"><g transform="translate(366.523344, 56.535084)"><g/></g></g><g fill="#17191a" fill-opacity="1"><g transform="translate(370.978288, 56.535084)"><g/></g></g></svg>