<svg xmlns="http://www.w3.org/2000/svg" xmlns:xlink="http://www.w3.org/1999/xlink" width="500" zoomAndPan="magnify" viewBox="0 0 375 74.999997" height="100" preserveAspectRatio="xMidYMid meet" version="1.0"><defs><g/><clipPath id="8cd32fc05a"><path d="M 116 37.5 L 123 37.5 L 123 50 L 116 50 Z M 116 37.5 " clip-rule="nonzero"/></clipPath><clipPath id="aecc35be18"><path d="M 116 61 L 124 61 L 124 73.5 L 116 73.5 Z M 116 61 " clip-rule="nonzero"/></clipPath><clipPath id="e364a8b7be"><path d="M 142 46 L 147.75 46 L 147.75 54 L 142 54 Z M 142 46 " clip-rule="nonzero"/></clipPath></defs><path fill="#17191a" d="M 42.257812 57.769531 C 42.5625 57.820312 43.042969 57.929688 43.152344 57.945312 C 43.386719 58.015625 44.191406 58.300781 44.191406 59.152344 C 44.191406 59.703125 43.6875 61.140625 41.613281 61.140625 C 41.234375 61.140625 39.894531 61.089844 39.535156 60.113281 C 40.25 60.199219 40.609375 59.652344 40.609375 59.261719 C 40.609375 58.886719 40.359375 58.691406 40 58.691406 C 39.605469 58.691406 39.085938 58.992188 39.085938 59.792969 C 39.085938 60.839844 40.160156 61.496094 41.59375 61.496094 C 44.316406 61.496094 45.121094 59.507812 45.121094 58.585938 C 45.121094 58.320312 45.121094 57.820312 44.546875 57.253906 C 44.101562 56.828125 43.671875 56.738281 42.703125 56.542969 C 42.222656 56.4375 41.449219 56.277344 41.449219 55.476562 C 41.449219 55.121094 41.773438 53.84375 43.472656 53.84375 C 44.226562 53.84375 44.960938 54.128906 45.140625 54.765625 C 44.351562 54.765625 44.316406 55.441406 44.316406 55.460938 C 44.316406 55.832031 44.65625 55.941406 44.816406 55.941406 C 45.066406 55.941406 45.570312 55.746094 45.570312 55 C 45.570312 54.253906 44.890625 53.488281 43.492188 53.488281 C 41.148438 53.488281 40.519531 55.316406 40.519531 56.046875 C 40.519531 57.394531 41.84375 57.679688 42.257812 57.769531 Z M 42.257812 57.769531 " fill-opacity="1" fill-rule="nonzero"/><path fill="#17191a" d="M 63.492188 55.566406 C 63.742188 55.566406 64.066406 55.566406 64.066406 55.246094 C 64.066406 54.910156 63.761719 54.910156 63.492188 54.910156 L 52.945312 54.910156 C 52.695312 54.910156 52.371094 54.910156 52.371094 55.230469 C 52.371094 55.566406 52.675781 55.566406 52.945312 55.566406 Z M 63.492188 58.871094 C 63.742188 58.871094 64.066406 58.871094 64.066406 58.550781 C 64.066406 58.210938 63.761719 58.210938 63.492188 58.210938 L 52.945312 58.210938 C 52.695312 58.210938 52.371094 58.210938 52.371094 58.53125 C 52.371094 58.871094 52.675781 58.871094 52.945312 58.871094 Z M 63.492188 58.871094 " fill-opacity="1" fill-rule="nonzero"/><path fill="#17191a" d="M 78.199219 54.679688 C 78.199219 53.558594 77.625 53.488281 77.480469 53.488281 C 77.050781 53.488281 76.65625 53.914062 76.65625 54.269531 C 76.65625 54.484375 76.785156 54.609375 76.855469 54.679688 C 77.035156 54.839844 77.5 55.316406 77.5 56.242188 C 77.5 56.988281 76.425781 61.140625 74.277344 61.140625 C 73.183594 61.140625 72.96875 60.238281 72.96875 59.578125 C 72.96875 58.691406 73.382812 57.449219 73.863281 56.171875 C 74.152344 55.441406 74.222656 55.265625 74.222656 54.910156 C 74.222656 54.164062 73.6875 53.488281 72.808594 53.488281 C 71.160156 53.488281 70.5 56.0625 70.5 56.207031 C 70.5 56.277344 70.570312 56.367188 70.695312 56.367188 C 70.855469 56.367188 70.875 56.292969 70.945312 56.046875 C 71.375 54.519531 72.074219 53.84375 72.753906 53.84375 C 72.917969 53.84375 73.21875 53.84375 73.21875 54.429688 C 73.21875 54.890625 73.023438 55.40625 72.753906 56.082031 C 71.894531 58.355469 71.894531 58.90625 71.894531 59.332031 C 71.894531 59.722656 71.949219 60.449219 72.503906 60.945312 C 73.148438 61.496094 74.042969 61.496094 74.207031 61.496094 C 77.175781 61.496094 78.199219 55.691406 78.199219 54.679688 Z M 78.199219 54.679688 " fill-opacity="1" fill-rule="nonzero"/><path fill="#17191a" d="M 84.328125 60.207031 C 84.328125 58.941406 84.195312 58.171875 83.800781 57.414062 C 83.277344 56.371094 82.308594 56.113281 81.652344 56.113281 C 80.148438 56.113281 79.601562 57.226562 79.433594 57.554688 C 79.003906 58.421875 78.980469 59.59375 78.980469 60.207031 C 78.980469 60.988281 79.015625 62.183594 79.589844 63.132812 C 80.136719 64.007812 81.019531 64.234375 81.652344 64.234375 C 82.226562 64.234375 83.253906 64.054688 83.851562 62.882812 C 84.292969 62.03125 84.328125 60.976562 84.328125 60.207031 Z M 81.652344 63.902344 C 81.246094 63.902344 80.425781 63.710938 80.171875 62.46875 C 80.042969 61.792969 80.042969 60.679688 80.042969 60.066406 C 80.042969 59.25 80.042969 58.421875 80.171875 57.769531 C 80.425781 56.5625 81.355469 56.445312 81.652344 56.445312 C 82.058594 56.445312 82.882812 56.644531 83.121094 57.722656 C 83.265625 58.375 83.265625 59.261719 83.265625 60.066406 C 83.265625 60.765625 83.265625 61.828125 83.121094 62.492188 C 82.871094 63.734375 82.046875 63.902344 81.652344 63.902344 Z M 81.652344 63.902344 " fill-opacity="1" fill-rule="nonzero"/><path fill="#17191a" d="M 89.175781 54.179688 L 90.824219 54.179688 C 91.164062 54.179688 91.34375 54.179688 91.34375 53.863281 C 91.34375 53.667969 91.234375 53.667969 90.878906 53.667969 L 89.300781 53.667969 L 89.964844 51.074219 C 90.035156 50.824219 90.035156 50.789062 90.035156 50.664062 C 90.035156 50.382812 89.804688 50.222656 89.570312 50.222656 C 89.425781 50.222656 89.015625 50.273438 88.871094 50.84375 L 88.171875 53.667969 L 86.492188 53.667969 C 86.132812 53.667969 85.972656 53.667969 85.972656 54.003906 C 85.972656 54.179688 86.097656 54.179688 86.4375 54.179688 L 88.03125 54.179688 L 86.847656 58.871094 C 86.707031 59.492188 86.652344 59.667969 86.652344 59.898438 C 86.652344 60.734375 87.242188 61.496094 88.246094 61.496094 C 90.054688 61.496094 91.019531 58.90625 91.019531 58.78125 C 91.019531 58.675781 90.949219 58.621094 90.839844 58.621094 C 90.804688 58.621094 90.734375 58.621094 90.699219 58.691406 C 90.679688 58.710938 90.664062 58.726562 90.535156 59.011719 C 90.160156 59.898438 89.335938 61.140625 88.300781 61.140625 C 87.761719 61.140625 87.726562 60.699219 87.726562 60.308594 C 87.726562 60.289062 87.726562 59.953125 87.78125 59.738281 Z M 89.175781 54.179688 " fill-opacity="1" fill-rule="nonzero"/><path fill="#17191a" d="M 103.03125 57.21875 L 107.972656 57.21875 C 108.222656 57.21875 108.546875 57.21875 108.546875 56.898438 C 108.546875 56.5625 108.242188 56.5625 107.972656 56.5625 L 103.03125 56.5625 L 103.03125 51.660156 C 103.03125 51.410156 103.03125 51.09375 102.707031 51.09375 C 102.367188 51.09375 102.367188 51.394531 102.367188 51.660156 L 102.367188 56.5625 L 97.425781 56.5625 C 97.175781 56.5625 96.855469 56.5625 96.855469 56.878906 C 96.855469 57.21875 97.160156 57.21875 97.425781 57.21875 L 102.367188 57.21875 L 102.367188 62.117188 C 102.367188 62.367188 102.367188 62.6875 102.691406 62.6875 C 103.03125 62.6875 103.03125 62.386719 103.03125 62.117188 Z M 103.03125 57.21875 " fill-opacity="1" fill-rule="nonzero"/><g clip-path="url(#8cd32fc05a)"><path fill="#17191a" d="M 120.449219 37.925781 C 120.449219 37.519531 120.449219 37.5 120.089844 37.5 C 119.660156 37.980469 118.765625 38.636719 116.921875 38.636719 L 116.921875 39.152344 C 117.332031 39.152344 118.226562 39.152344 119.214844 38.691406 L 119.214844 47.941406 C 119.214844 48.582031 119.160156 48.792969 117.582031 48.792969 L 117.027344 48.792969 L 117.027344 49.308594 C 117.511719 49.273438 119.25 49.273438 119.839844 49.273438 C 120.429688 49.273438 122.148438 49.273438 122.632812 49.308594 L 122.632812 48.792969 L 122.078125 48.792969 C 120.503906 48.792969 120.449219 48.582031 120.449219 47.941406 Z M 120.449219 37.925781 " fill-opacity="1" fill-rule="nonzero"/></g><path fill="#17191a" d="M 115.292969 56.527344 L 124.058594 56.527344 L 124.058594 57.238281 L 115.292969 57.238281 Z M 115.292969 56.527344 " fill-opacity="1" fill-rule="nonzero"/><g clip-path="url(#aecc35be18)"><path fill="#17191a" d="M 123.167969 70.515625 L 122.777344 70.515625 C 122.722656 70.820312 122.578125 71.796875 122.398438 72.078125 C 122.273438 72.238281 121.253906 72.238281 120.71875 72.238281 L 117.40625 72.238281 C 117.886719 71.832031 118.980469 70.695312 119.445312 70.269531 C 122.167969 67.78125 123.167969 66.859375 123.167969 65.101562 C 123.167969 63.058594 121.539062 61.691406 119.464844 61.691406 C 117.386719 61.691406 116.167969 63.449219 116.167969 64.976562 C 116.167969 65.882812 116.957031 65.882812 117.011719 65.882812 C 117.386719 65.882812 117.851562 65.617188 117.851562 65.046875 C 117.851562 64.550781 117.511719 64.214844 117.011719 64.214844 C 116.847656 64.214844 116.8125 64.214844 116.761719 64.230469 C 117.101562 63.023438 118.066406 62.207031 119.230469 62.207031 C 120.753906 62.207031 121.683594 63.46875 121.683594 65.101562 C 121.683594 66.609375 120.804688 67.925781 119.785156 69.0625 L 116.167969 73.074219 L 116.167969 73.5 L 122.703125 73.5 Z M 123.167969 70.515625 " fill-opacity="1" fill-rule="nonzero"/></g><path fill="#17191a" d="M 131.234375 59.207031 C 131.148438 59.507812 131.148438 59.542969 130.894531 59.882812 C 130.503906 60.378906 129.714844 61.140625 128.871094 61.140625 C 128.140625 61.140625 127.726562 60.484375 127.726562 59.4375 C 127.726562 58.460938 128.28125 56.472656 128.621094 55.726562 C 129.230469 54.484375 130.074219 53.84375 130.769531 53.84375 C 131.953125 53.84375 132.183594 55.300781 132.183594 55.441406 C 132.183594 55.460938 132.132812 55.691406 132.113281 55.726562 Z M 132.382812 54.660156 C 132.183594 54.199219 131.703125 53.488281 130.769531 53.488281 C 128.746094 53.488281 126.5625 56.082031 126.5625 58.710938 C 126.5625 60.46875 127.601562 61.496094 128.820312 61.496094 C 129.804688 61.496094 130.644531 60.734375 131.148438 60.148438 C 131.324219 61.195312 132.167969 61.496094 132.703125 61.496094 C 133.242188 61.496094 133.671875 61.175781 133.992188 60.539062 C 134.28125 59.933594 134.53125 58.851562 134.53125 58.78125 C 134.53125 58.691406 134.460938 58.621094 134.351562 58.621094 C 134.191406 58.621094 134.171875 58.710938 134.101562 58.976562 C 133.832031 60.023438 133.492188 61.140625 132.757812 61.140625 C 132.238281 61.140625 132.203125 60.679688 132.203125 60.324219 C 132.203125 59.917969 132.257812 59.722656 132.417969 59.027344 C 132.542969 58.585938 132.632812 58.195312 132.777344 57.679688 C 133.4375 55.015625 133.601562 54.375 133.601562 54.269531 C 133.601562 54.023438 133.402344 53.828125 133.132812 53.828125 C 132.5625 53.828125 132.417969 54.449219 132.382812 54.660156 Z M 132.382812 54.660156 " fill-opacity="1" fill-rule="nonzero"/><path fill="#17191a" d="M 138.648438 54.179688 L 140.296875 54.179688 C 140.636719 54.179688 140.816406 54.179688 140.816406 53.863281 C 140.816406 53.667969 140.707031 53.667969 140.351562 53.667969 L 138.773438 53.667969 L 139.4375 51.074219 C 139.507812 50.824219 139.507812 50.789062 139.507812 50.664062 C 139.507812 50.382812 139.277344 50.222656 139.042969 50.222656 C 138.898438 50.222656 138.488281 50.273438 138.34375 50.84375 L 137.644531 53.667969 L 135.964844 53.667969 C 135.605469 53.667969 135.445312 53.667969 135.445312 54.003906 C 135.445312 54.179688 135.570312 54.179688 135.910156 54.179688 L 137.503906 54.179688 L 136.320312 58.871094 C 136.179688 59.492188 136.125 59.667969 136.125 59.898438 C 136.125 60.734375 136.714844 61.496094 137.71875 61.496094 C 139.527344 61.496094 140.492188 58.90625 140.492188 58.78125 C 140.492188 58.675781 140.421875 58.621094 140.3125 58.621094 C 140.277344 58.621094 140.207031 58.621094 140.171875 58.691406 C 140.152344 58.710938 140.136719 58.726562 140.007812 59.011719 C 139.632812 59.898438 138.808594 61.140625 137.769531 61.140625 C 137.234375 61.140625 137.199219 60.699219 137.199219 60.308594 C 137.199219 60.289062 137.199219 59.953125 137.253906 59.738281 Z M 138.648438 54.179688 " fill-opacity="1" fill-rule="nonzero"/><g clip-path="url(#e364a8b7be)"><path fill="#17191a" d="M 144.746094 51.574219 C 144.9375 51.394531 145.4375 51.003906 145.628906 50.839844 C 146.371094 50.164062 147.074219 49.515625 147.074219 48.4375 C 147.074219 47.027344 145.878906 46.117188 144.386719 46.117188 C 142.957031 46.117188 142.011719 47.195312 142.011719 48.246094 C 142.011719 48.828125 142.480469 48.910156 142.644531 48.910156 C 142.894531 48.910156 143.265625 48.734375 143.265625 48.28125 C 143.265625 47.667969 142.667969 47.667969 142.527344 47.667969 C 142.871094 46.804688 143.671875 46.507812 144.257812 46.507812 C 145.367188 46.507812 145.941406 47.441406 145.941406 48.4375 C 145.941406 49.667969 145.070312 50.566406 143.660156 52 L 142.15625 53.539062 C 142.011719 53.667969 142.011719 53.691406 142.011719 53.988281 L 146.726562 53.988281 L 147.074219 51.871094 L 146.703125 51.871094 C 146.667969 52.105469 146.574219 52.699219 146.429688 52.921875 C 146.359375 53.019531 145.449219 53.019531 145.257812 53.019531 L 143.136719 53.019531 Z M 144.746094 51.574219 " fill-opacity="1" fill-rule="nonzero"/></g><g fill="#17191a" fill-opacity="1"><g transform="translate(15.000006, 31.199996)"><g><path d="M 7.921875 -4.296875 L 9.703125 -4.296875 L 9.703125 -2.96875 L 7.921875 -2.96875 L 7.921875 0 L 6.296875 0 L 6.296875 -2.96875 L 0.46875 -2.96875 L 0.46875 -3.921875 L 6.203125 -12.796875 L 7.921875 -12.796875 Z M 2.3125 -4.296875 L 6.296875 -4.296875 L 6.296875 -10.578125 L 6.09375 -10.21875 Z M 2.3125 -4.296875 "/></g></g></g><g fill="#17191a" fill-opacity="1"><g transform="translate(25.100847, 31.199996)"><g><path d="M 4.984375 -5.109375 C 4.984375 -3.796875 4.8125 -2.539062 4.46875 -1.34375 C 4.125 -0.144531 3.597656 0.957031 2.890625 1.96875 C 2.191406 2.976562 1.453125 3.695312 0.671875 4.125 L 0.328125 3.140625 C 1.234375 2.441406 1.957031 1.367188 2.5 -0.078125 C 3.050781 -1.535156 3.332031 -3.15625 3.34375 -4.9375 L 3.34375 -5.21875 C 3.34375 -6.445312 3.210938 -7.585938 2.953125 -8.640625 C 2.703125 -9.703125 2.347656 -10.648438 1.890625 -11.484375 C 1.429688 -12.328125 0.910156 -12.984375 0.328125 -13.453125 L 0.671875 -14.4375 C 1.453125 -14.007812 2.191406 -13.296875 2.890625 -12.296875 C 3.585938 -11.296875 4.109375 -10.191406 4.453125 -8.984375 C 4.804688 -7.773438 4.984375 -6.484375 4.984375 -5.109375 Z M 4.984375 -5.109375 "/></g></g></g><g fill="#17191a" fill-opacity="1"><g transform="translate(31.354585, 31.199996)"><g/></g></g><g fill="#17191a" fill-opacity="1"><g transform="translate(35.807744, 31.199996)"><g><path d="M 3.296875 0 L 1.609375 0 L 1.609375 -12.796875 L 3.296875 -12.796875 Z M 3.296875 0 "/></g></g></g><g fill="#17191a" fill-opacity="1"><g transform="translate(40.70007, 31.199996)"><g><path d="M 2.765625 -1.328125 L 8.328125 -1.328125 L 8.328125 0 L 0.78125 0 L 0.78125 -1.203125 L 6.015625 -8.171875 L 0.859375 -8.171875 L 0.859375 -9.515625 L 8.0625 -9.515625 L 8.0625 -8.359375 Z M 2.765625 -1.328125 "/></g></g></g><g fill="#17191a" fill-opacity="1"><g transform="translate(49.615165, 31.199996)"><g><path d="M 5.828125 -8.046875 C 5.578125 -8.085938 5.3125 -8.109375 5.03125 -8.109375 C 3.957031 -8.109375 3.234375 -7.65625 2.859375 -6.75 L 2.859375 0 L 1.234375 0 L 1.234375 -9.515625 L 2.8125 -9.515625 L 2.84375 -8.40625 C 3.375 -9.257812 4.128906 -9.6875 5.109375 -9.6875 C 5.421875 -9.6875 5.660156 -9.644531 5.828125 -9.5625 Z M 5.828125 -8.046875 "/></g></g></g><g fill="#17191a" fill-opacity="1"><g transform="translate(55.702026, 31.199996)"><g><path d="M 7.109375 0 C 7.015625 -0.1875 6.9375 -0.519531 6.875 -1 C 6.113281 -0.21875 5.210938 0.171875 4.171875 0.171875 C 3.234375 0.171875 2.460938 -0.09375 1.859375 -0.625 C 1.253906 -1.15625 0.953125 -1.828125 0.953125 -2.640625 C 0.953125 -3.628906 1.328125 -4.394531 2.078125 -4.9375 C 2.835938 -5.488281 3.898438 -5.765625 5.265625 -5.765625 L 6.84375 -5.765625 L 6.84375 -6.515625 C 6.84375 -7.078125 6.671875 -7.523438 6.328125 -7.859375 C 5.992188 -8.203125 5.492188 -8.375 4.828125 -8.375 C 4.253906 -8.375 3.769531 -8.226562 3.375 -7.9375 C 2.976562 -7.644531 2.78125 -7.289062 2.78125 -6.875 L 1.15625 -6.875 C 1.15625 -7.34375 1.320312 -7.796875 1.65625 -8.234375 C 1.988281 -8.679688 2.441406 -9.035156 3.015625 -9.296875 C 3.597656 -9.554688 4.238281 -9.6875 4.9375 -9.6875 C 6.03125 -9.6875 6.882812 -9.410156 7.5 -8.859375 C 8.125 -8.316406 8.445312 -7.5625 8.46875 -6.59375 L 8.46875 -2.21875 C 8.46875 -1.351562 8.582031 -0.660156 8.8125 -0.140625 L 8.8125 0 Z M 4.40625 -1.234375 C 4.914062 -1.234375 5.398438 -1.363281 5.859375 -1.625 C 6.316406 -1.894531 6.644531 -2.238281 6.84375 -2.65625 L 6.84375 -4.609375 L 5.578125 -4.609375 C 3.578125 -4.609375 2.578125 -4.023438 2.578125 -2.859375 C 2.578125 -2.347656 2.75 -1.945312 3.09375 -1.65625 C 3.4375 -1.375 3.875 -1.234375 4.40625 -1.234375 Z M 4.40625 -1.234375 "/></g></g></g><g fill="#17191a" fill-opacity="1"><g transform="translate(65.486666, 31.199996)"><g><path d="M 2.765625 -1.328125 L 8.328125 -1.328125 L 8.328125 0 L 0.78125 0 L 0.78125 -1.203125 L 6.015625 -8.171875 L 0.859375 -8.171875 L 0.859375 -9.515625 L 8.0625 -9.515625 L 8.0625 -8.359375 Z M 2.765625 -1.328125 "/></g></g></g><g fill="#17191a" fill-opacity="1"><g transform="translate(74.401762, 31.199996)"><g><path d="M 3 0 L 1.375 0 L 1.375 -9.515625 L 3 -9.515625 Z M 1.234375 -12.03125 C 1.234375 -12.289062 1.3125 -12.507812 1.46875 -12.6875 C 1.632812 -12.875 1.875 -12.96875 2.1875 -12.96875 C 2.507812 -12.96875 2.753906 -12.875 2.921875 -12.6875 C 3.085938 -12.507812 3.171875 -12.289062 3.171875 -12.03125 C 3.171875 -11.769531 3.085938 -11.550781 2.921875 -11.375 C 2.753906 -11.195312 2.507812 -11.109375 2.1875 -11.109375 C 1.875 -11.109375 1.632812 -11.195312 1.46875 -11.375 C 1.3125 -11.550781 1.234375 -11.769531 1.234375 -12.03125 Z M 1.234375 -12.03125 "/></g></g></g><g fill="#17191a" fill-opacity="1"><g transform="translate(78.767087, 31.199996)"><g/></g></g><g fill="#17191a" fill-opacity="1"><g transform="translate(83.214844, 31.199996)"><g><path d="M 6.484375 0 C 6.367188 -0.226562 6.285156 -0.515625 6.234375 -0.859375 C 5.617188 -0.171875 4.816406 0.171875 3.828125 0.171875 C 2.898438 0.171875 2.128906 -0.09375 1.515625 -0.625 C 0.898438 -1.164062 0.59375 -1.847656 0.59375 -2.671875 C 0.59375 -3.679688 0.96875 -4.453125 1.71875 -4.984375 C 2.46875 -5.523438 3.546875 -5.800781 4.953125 -5.8125 L 6.125 -5.8125 L 6.125 -6.359375 C 6.125 -6.796875 6.007812 -7.144531 5.78125 -7.40625 C 5.5625 -7.675781 5.207031 -7.8125 4.71875 -7.8125 C 4.289062 -7.8125 3.953125 -7.707031 3.703125 -7.5 C 3.460938 -7.289062 3.34375 -7.007812 3.34375 -6.65625 L 0.8125 -6.65625 C 0.8125 -7.207031 0.976562 -7.71875 1.3125 -8.1875 C 1.65625 -8.65625 2.132812 -9.019531 2.75 -9.28125 C 3.375 -9.550781 4.078125 -9.6875 4.859375 -9.6875 C 6.023438 -9.6875 6.953125 -9.390625 7.640625 -8.796875 C 8.328125 -8.210938 8.671875 -7.382812 8.671875 -6.3125 L 8.671875 -2.203125 C 8.679688 -1.296875 8.804688 -0.613281 9.046875 -0.15625 L 9.046875 0 Z M 4.390625 -1.765625 C 4.765625 -1.765625 5.109375 -1.847656 5.421875 -2.015625 C 5.734375 -2.179688 5.96875 -2.40625 6.125 -2.6875 L 6.125 -4.328125 L 5.171875 -4.328125 C 3.898438 -4.328125 3.222656 -3.882812 3.140625 -3 L 3.140625 -2.859375 C 3.140625 -2.535156 3.25 -2.269531 3.46875 -2.0625 C 3.695312 -1.863281 4.003906 -1.765625 4.390625 -1.765625 Z M 4.390625 -1.765625 "/></g></g></g><g fill="#17191a" fill-opacity="1"><g transform="translate(92.847656, 31.199996)"><g/></g></g><g fill="#17191a" fill-opacity="1"><g transform="translate(97.300815, 31.199996)"><g><path d="M 3 0 L 1.375 0 L 1.375 -9.515625 L 3 -9.515625 Z M 1.234375 -12.03125 C 1.234375 -12.289062 1.3125 -12.507812 1.46875 -12.6875 C 1.632812 -12.875 1.875 -12.96875 2.1875 -12.96875 C 2.507812 -12.96875 2.753906 -12.875 2.921875 -12.6875 C 3.085938 -12.507812 3.171875 -12.289062 3.171875 -12.03125 C 3.171875 -11.769531 3.085938 -11.550781 2.921875 -11.375 C 2.753906 -11.195312 2.507812 -11.109375 2.1875 -11.109375 C 1.875 -11.109375 1.632812 -11.195312 1.46875 -11.375 C 1.3125 -11.550781 1.234375 -11.769531 1.234375 -12.03125 Z M 1.234375 -12.03125 "/></g></g></g><g fill="#17191a" fill-opacity="1"><g transform="translate(101.666141, 31.199996)"><g><path d="M 2.765625 -1.328125 L 8.328125 -1.328125 L 8.328125 0 L 0.78125 0 L 0.78125 -1.203125 L 6.015625 -8.171875 L 0.859375 -8.171875 L 0.859375 -9.515625 L 8.0625 -9.515625 L 8.0625 -8.359375 Z M 2.765625 -1.328125 "/></g></g></g><g fill="#17191a" fill-opacity="1"><g transform="translate(110.581236, 31.199996)"><g/></g></g><g fill="#17191a" fill-opacity="1"><g transform="translate(115.034395, 31.199996)"><g><path d="M 2.03125 0 L 2.03125 -8.25 L 0.53125 -8.25 L 0.53125 -9.515625 L 2.03125 -9.515625 L 2.03125 -10.484375 C 2.03125 -11.503906 2.300781 -12.289062 2.84375 -12.84375 C 3.394531 -13.40625 4.164062 -13.6875 5.15625 -13.6875 C 5.53125 -13.6875 5.90625 -13.632812 6.28125 -13.53125 L 6.1875 -12.21875 C 5.914062 -12.269531 5.625 -12.296875 5.3125 -12.296875 C 4.78125 -12.296875 4.367188 -12.140625 4.078125 -11.828125 C 3.796875 -11.523438 3.65625 -11.085938 3.65625 -10.515625 L 3.65625 -9.515625 L 5.6875 -9.515625 L 5.6875 -8.25 L 3.65625 -8.25 L 3.65625 0 Z M 2.03125 0 "/></g></g></g><g fill="#17191a" fill-opacity="1"><g transform="translate(121.279356, 31.199996)"><g><path d="M 0.796875 -4.84375 C 0.796875 -5.769531 0.976562 -6.601562 1.34375 -7.34375 C 1.71875 -8.09375 2.226562 -8.671875 2.875 -9.078125 C 3.53125 -9.484375 4.273438 -9.6875 5.109375 -9.6875 C 6.410156 -9.6875 7.457031 -9.238281 8.25 -8.34375 C 9.050781 -7.445312 9.453125 -6.253906 9.453125 -4.765625 L 9.453125 -4.65625 C 9.453125 -3.726562 9.273438 -2.894531 8.921875 -2.15625 C 8.566406 -1.425781 8.0625 -0.851562 7.40625 -0.4375 C 6.75 -0.03125 5.992188 0.171875 5.140625 0.171875 C 3.847656 0.171875 2.800781 -0.273438 2 -1.171875 C 1.195312 -2.066406 0.796875 -3.253906 0.796875 -4.734375 Z M 2.4375 -4.65625 C 2.4375 -3.59375 2.679688 -2.742188 3.171875 -2.109375 C 3.660156 -1.472656 4.316406 -1.15625 5.140625 -1.15625 C 5.960938 -1.15625 6.613281 -1.476562 7.09375 -2.125 C 7.582031 -2.769531 7.828125 -3.675781 7.828125 -4.84375 C 7.828125 -5.882812 7.578125 -6.726562 7.078125 -7.375 C 6.585938 -8.019531 5.929688 -8.34375 5.109375 -8.34375 C 4.304688 -8.34375 3.660156 -8.023438 3.171875 -7.390625 C 2.679688 -6.753906 2.4375 -5.84375 2.4375 -4.65625 Z M 2.4375 -4.65625 "/></g></g></g><g fill="#17191a" fill-opacity="1"><g transform="translate(131.538296, 31.199996)"><g><path d="M 5.828125 -8.046875 C 5.578125 -8.085938 5.3125 -8.109375 5.03125 -8.109375 C 3.957031 -8.109375 3.234375 -7.65625 2.859375 -6.75 L 2.859375 0 L 1.234375 0 L 1.234375 -9.515625 L 2.8125 -9.515625 L 2.84375 -8.40625 C 3.375 -9.257812 4.128906 -9.6875 5.109375 -9.6875 C 5.421875 -9.6875 5.660156 -9.644531 5.828125 -9.5625 Z M 5.828125 -8.046875 "/></g></g></g><g fill="#17191a" fill-opacity="1"><g transform="translate(137.625157, 31.199996)"><g><path d="M 2.765625 -9.515625 L 2.796875 -8.453125 C 3.492188 -9.273438 4.4375 -9.6875 5.625 -9.6875 C 6.957031 -9.6875 7.863281 -9.175781 8.34375 -8.15625 C 8.65625 -8.613281 9.066406 -8.984375 9.578125 -9.265625 C 10.085938 -9.546875 10.6875 -9.6875 11.375 -9.6875 C 13.457031 -9.6875 14.519531 -8.582031 14.5625 -6.375 L 14.5625 0 L 12.921875 0 L 12.921875 -6.28125 C 12.921875 -6.957031 12.765625 -7.460938 12.453125 -7.796875 C 12.148438 -8.140625 11.632812 -8.3125 10.90625 -8.3125 C 10.300781 -8.3125 9.796875 -8.128906 9.390625 -7.765625 C 8.992188 -7.398438 8.765625 -6.914062 8.703125 -6.3125 L 8.703125 0 L 7.0625 0 L 7.0625 -6.234375 C 7.0625 -7.617188 6.382812 -8.3125 5.03125 -8.3125 C 3.96875 -8.3125 3.238281 -7.851562 2.84375 -6.9375 L 2.84375 0 L 1.21875 0 L 1.21875 -9.515625 Z M 2.765625 -9.515625 "/></g></g></g><g fill="#17191a" fill-opacity="1"><g transform="translate(153.391257, 31.199996)"><g><path d="M 7.109375 -0.9375 C 6.472656 -0.195312 5.539062 0.171875 4.3125 0.171875 C 3.300781 0.171875 2.53125 -0.117188 2 -0.703125 C 1.46875 -1.296875 1.203125 -2.171875 1.203125 -3.328125 L 1.203125 -9.515625 L 2.828125 -9.515625 L 2.828125 -3.359375 C 2.828125 -1.921875 3.410156 -1.203125 4.578125 -1.203125 C 5.816406 -1.203125 6.644531 -1.664062 7.0625 -2.59375 L 7.0625 -9.515625 L 8.6875 -9.515625 L 8.6875 0 L 7.140625 0 Z M 7.109375 -0.9375 "/></g></g></g><g fill="#17191a" fill-opacity="1"><g transform="translate(163.307653, 31.199996)"><g><path d="M 3 0 L 1.375 0 L 1.375 -13.5 L 3 -13.5 Z M 3 0 "/></g></g></g><g fill="#17191a" fill-opacity="1"><g transform="translate(167.672979, 31.199996)"><g><path d="M 5.171875 0.171875 C 3.890625 0.171875 2.84375 -0.25 2.03125 -1.09375 C 1.21875 -1.9375 0.8125 -3.066406 0.8125 -4.484375 L 0.8125 -4.796875 C 0.8125 -5.734375 0.992188 -6.570312 1.359375 -7.3125 C 1.722656 -8.050781 2.226562 -8.628906 2.875 -9.046875 C 3.519531 -9.472656 4.21875 -9.6875 4.96875 -9.6875 C 6.207031 -9.6875 7.171875 -9.28125 7.859375 -8.46875 C 8.546875 -7.65625 8.890625 -6.488281 8.890625 -4.96875 L 8.890625 -4.296875 L 2.4375 -4.296875 C 2.46875 -3.359375 2.742188 -2.597656 3.265625 -2.015625 C 3.785156 -1.441406 4.453125 -1.15625 5.265625 -1.15625 C 5.835938 -1.15625 6.320312 -1.269531 6.71875 -1.5 C 7.125 -1.738281 7.472656 -2.050781 7.765625 -2.4375 L 8.765625 -1.65625 C 7.960938 -0.4375 6.765625 0.171875 5.171875 0.171875 Z M 4.96875 -8.34375 C 4.3125 -8.34375 3.757812 -8.101562 3.3125 -7.625 C 2.875 -7.15625 2.601562 -6.488281 2.5 -5.625 L 7.265625 -5.625 L 7.265625 -5.75 C 7.210938 -6.570312 6.988281 -7.207031 6.59375 -7.65625 C 6.195312 -8.113281 5.65625 -8.34375 4.96875 -8.34375 Z M 4.96875 -8.34375 "/></g></g></g><g fill="#17191a" fill-opacity="1"><g transform="translate(177.202908, 31.199996)"><g><path d="M 1.171875 -0.859375 C 1.171875 -1.140625 1.253906 -1.375 1.421875 -1.5625 C 1.585938 -1.75 1.835938 -1.84375 2.171875 -1.84375 C 2.503906 -1.84375 2.753906 -1.75 2.921875 -1.5625 C 3.097656 -1.375 3.1875 -1.140625 3.1875 -0.859375 C 3.1875 -0.585938 3.097656 -0.359375 2.921875 -0.171875 C 2.753906 0.00390625 2.503906 0.09375 2.171875 0.09375 C 1.835938 0.09375 1.585938 0.00390625 1.421875 -0.171875 C 1.253906 -0.359375 1.171875 -0.585938 1.171875 -0.859375 Z M 1.1875 -8.625 C 1.1875 -8.90625 1.269531 -9.140625 1.4375 -9.328125 C 1.601562 -9.515625 1.851562 -9.609375 2.1875 -9.609375 C 2.519531 -9.609375 2.769531 -9.515625 2.9375 -9.328125 C 3.113281 -9.140625 3.203125 -8.90625 3.203125 -8.625 C 3.203125 -8.351562 3.113281 -8.125 2.9375 -7.9375 C 2.769531 -7.757812 2.519531 -7.671875 2.1875 -7.671875 C 1.851562 -7.671875 1.601562 -7.757812 1.4375 -7.9375 C 1.269531 -8.125 1.1875 -8.351562 1.1875 -8.625 Z M 1.1875 -8.625 "/></g></g></g></svg>