<svg xmlns="http://www.w3.org/2000/svg" xmlns:xlink="http://www.w3.org/1999/xlink" width="500" zoomAndPan="magnify" viewBox="0 0 375 74.999997" height="100" preserveAspectRatio="xMidYMid meet" version="1.0"><defs><clipPath id="51f039e341"><path d="M 165 13.378906 L 175 13.378906 L 175 30 L 165 30 Z M 165 13.378906 " clip-rule="nonzero"/></clipPath><clipPath id="b4f2300f9a"><path d="M 216 13.378906 L 226 13.378906 L 226 30 L 216 30 Z M 216 13.378906 " clip-rule="nonzero"/></clipPath><clipPath id="f1b0dc72d4"><path d="M 164 38 L 255.199219 38 L 255.199219 40 L 164 40 Z M 164 38 " clip-rule="nonzero"/></clipPath><clipPath id="d753a71d8c"><path d="M 201 46 L 209 46 L 209 61.378906 L 201 61.378906 Z M 201 46 " clip-rule="nonzero"/></clipPath></defs><path fill="#a8180f" d="M 126.472656 42.125 C 126.355469 42.519531 126.355469 42.566406 126.027344 43.007812 C 125.515625 43.660156 124.488281 44.664062 123.390625 44.664062 C 122.433594 44.664062 121.898438 43.800781 121.898438 42.425781 C 121.898438 41.148438 122.621094 38.539062 123.0625 37.5625 C 123.859375 35.929688 124.953125 35.09375 125.863281 35.09375 C 127.40625 35.09375 127.707031 37 127.707031 37.1875 C 127.707031 37.210938 127.640625 37.515625 127.617188 37.5625 Z M 127.964844 36.164062 C 127.707031 35.558594 127.078125 34.625 125.863281 34.625 C 123.226562 34.625 120.378906 38.027344 120.378906 41.472656 C 120.378906 43.777344 121.734375 45.128906 123.320312 45.128906 C 124.605469 45.128906 125.703125 44.128906 126.355469 43.359375 C 126.589844 44.734375 127.683594 45.128906 128.386719 45.128906 C 129.085938 45.128906 129.644531 44.710938 130.066406 43.871094 C 130.4375 43.078125 130.765625 41.660156 130.765625 41.566406 C 130.765625 41.449219 130.671875 41.355469 130.53125 41.355469 C 130.324219 41.355469 130.300781 41.472656 130.207031 41.820312 C 129.855469 43.195312 129.414062 44.664062 128.457031 44.664062 C 127.777344 44.664062 127.730469 44.058594 127.730469 43.589844 C 127.730469 43.054688 127.800781 42.800781 128.011719 41.890625 C 128.175781 41.308594 128.292969 40.796875 128.480469 40.121094 C 129.34375 36.628906 129.550781 35.789062 129.550781 35.652344 C 129.550781 35.324219 129.296875 35.070312 128.945312 35.070312 C 128.199219 35.070312 128.011719 35.882812 127.964844 36.164062 Z M 127.964844 36.164062 " fill-opacity="1" fill-rule="nonzero"/><path fill="#a8180f" d="M 153.679688 37.351562 C 154.007812 37.351562 154.425781 37.351562 154.425781 36.933594 C 154.425781 36.488281 154.03125 36.488281 153.679688 36.488281 L 139.933594 36.488281 C 139.605469 36.488281 139.1875 36.488281 139.1875 36.910156 C 139.1875 37.351562 139.582031 37.351562 139.933594 37.351562 Z M 153.679688 41.683594 C 154.007812 41.683594 154.425781 41.683594 154.425781 41.261719 C 154.425781 40.820312 154.03125 40.820312 153.679688 40.820312 L 139.933594 40.820312 C 139.605469 40.820312 139.1875 40.820312 139.1875 41.238281 C 139.1875 41.683594 139.582031 41.683594 139.933594 41.683594 Z M 153.679688 41.683594 " fill-opacity="1" fill-rule="nonzero"/><g clip-path="url(#51f039e341)"><path fill="#a8180f" d="M 174.785156 25.230469 L 174.273438 25.230469 C 174.203125 25.628906 174.015625 26.910156 173.78125 27.28125 C 173.621094 27.492188 172.289062 27.492188 171.589844 27.492188 L 167.269531 27.492188 C 167.902344 26.957031 169.324219 25.464844 169.933594 24.90625 C 173.480469 21.644531 174.785156 20.433594 174.785156 18.128906 C 174.785156 15.453125 172.664062 13.660156 169.957031 13.660156 C 167.246094 13.660156 165.660156 15.964844 165.660156 17.96875 C 165.660156 19.15625 166.6875 19.15625 166.757812 19.15625 C 167.246094 19.15625 167.855469 18.804688 167.855469 18.058594 C 167.855469 17.410156 167.410156 16.964844 166.757812 16.964844 C 166.546875 16.964844 166.5 16.964844 166.429688 16.988281 C 166.875 15.40625 168.132812 14.335938 169.652344 14.335938 C 171.636719 14.335938 172.847656 15.988281 172.847656 18.128906 C 172.847656 20.109375 171.707031 21.832031 170.375 23.324219 L 165.660156 28.585938 L 165.660156 29.144531 L 174.179688 29.144531 Z M 174.785156 25.230469 " fill-opacity="1" fill-rule="nonzero"/></g><path fill="#a8180f" d="M 181.265625 24.488281 C 181.660156 24.558594 182.292969 24.695312 182.429688 24.71875 C 182.734375 24.8125 183.785156 25.1875 183.785156 26.304688 C 183.785156 27.023438 183.132812 28.910156 180.425781 28.910156 C 179.933594 28.910156 178.183594 28.839844 177.71875 27.5625 C 178.652344 27.675781 179.117188 26.957031 179.117188 26.441406 C 179.117188 25.953125 178.789062 25.699219 178.324219 25.699219 C 177.808594 25.699219 177.132812 26.09375 177.132812 27.140625 C 177.132812 28.515625 178.535156 29.378906 180.402344 29.378906 C 183.949219 29.378906 185 26.769531 185 25.558594 C 185 25.207031 185 24.558594 184.253906 23.8125 C 183.667969 23.253906 183.109375 23.136719 181.847656 22.878906 C 181.21875 22.742188 180.214844 22.53125 180.214844 21.484375 C 180.214844 21.015625 180.632812 19.339844 182.851562 19.339844 C 183.832031 19.339844 184.789062 19.714844 185.023438 20.550781 C 183.996094 20.550781 183.949219 21.4375 183.949219 21.460938 C 183.949219 21.949219 184.390625 22.089844 184.601562 22.089844 C 184.929688 22.089844 185.582031 21.832031 185.582031 20.855469 C 185.582031 19.875 184.695312 18.875 182.875 18.875 C 179.816406 18.875 179 21.273438 179 22.226562 C 179 24 180.726562 24.371094 181.265625 24.488281 Z M 181.265625 24.488281 " fill-opacity="1" fill-rule="nonzero"/><path fill="#a8180f" d="M 207.273438 23.789062 C 207.671875 23.789062 208.09375 23.789062 208.09375 23.324219 C 208.09375 22.855469 207.671875 22.855469 207.273438 22.855469 L 194.648438 22.855469 C 194.25 22.855469 193.832031 22.855469 193.832031 23.324219 C 193.832031 23.789062 194.25 23.789062 194.648438 23.789062 Z M 207.273438 23.789062 " fill-opacity="1" fill-rule="nonzero"/><g clip-path="url(#b4f2300f9a)"><path fill="#a8180f" d="M 225.503906 25.230469 L 224.988281 25.230469 C 224.917969 25.628906 224.730469 26.910156 224.5 27.28125 C 224.335938 27.492188 223.003906 27.492188 222.304688 27.492188 L 217.988281 27.492188 C 218.617188 26.957031 220.039062 25.464844 220.648438 24.90625 C 224.195312 21.644531 225.503906 20.433594 225.503906 18.128906 C 225.503906 15.453125 223.378906 13.660156 220.671875 13.660156 C 217.964844 13.660156 216.375 15.964844 216.375 17.96875 C 216.375 19.15625 217.402344 19.15625 217.472656 19.15625 C 217.964844 19.15625 218.570312 18.804688 218.570312 18.058594 C 218.570312 17.410156 218.128906 16.964844 217.472656 16.964844 C 217.261719 16.964844 217.21875 16.964844 217.148438 16.988281 C 217.589844 15.40625 218.851562 14.335938 220.367188 14.335938 C 222.351562 14.335938 223.566406 15.988281 223.566406 18.128906 C 223.566406 20.109375 222.421875 21.832031 221.089844 23.324219 L 216.375 28.585938 L 216.375 29.144531 L 224.894531 29.144531 Z M 225.503906 25.230469 " fill-opacity="1" fill-rule="nonzero"/></g><path fill="#a8180f" d="M 237.324219 20.433594 C 237.324219 18.96875 236.578125 18.875 236.390625 18.875 C 235.832031 18.875 235.316406 19.433594 235.316406 19.898438 C 235.316406 20.179688 235.480469 20.34375 235.574219 20.433594 C 235.808594 20.644531 236.414062 21.273438 236.414062 22.484375 C 236.414062 23.460938 235.015625 28.910156 232.214844 28.910156 C 230.789062 28.910156 230.511719 27.722656 230.511719 26.863281 C 230.511719 25.699219 231.046875 24.066406 231.675781 22.390625 C 232.050781 21.4375 232.144531 21.203125 232.144531 20.738281 C 232.144531 19.761719 231.445312 18.875 230.300781 18.875 C 228.152344 18.875 227.289062 22.25 227.289062 22.4375 C 227.289062 22.53125 227.382812 22.648438 227.546875 22.648438 C 227.757812 22.648438 227.78125 22.554688 227.871094 22.226562 C 228.433594 20.226562 229.34375 19.339844 230.230469 19.339844 C 230.441406 19.339844 230.835938 19.339844 230.835938 20.109375 C 230.835938 20.714844 230.582031 21.390625 230.230469 22.273438 C 229.109375 25.253906 229.109375 25.976562 229.109375 26.535156 C 229.109375 27.046875 229.179688 28.003906 229.902344 28.65625 C 230.742188 29.378906 231.910156 29.378906 232.121094 29.378906 C 235.996094 29.378906 237.324219 21.761719 237.324219 20.433594 Z M 237.324219 20.433594 " fill-opacity="1" fill-rule="nonzero"/><path fill="#a8180f" d="M 245.316406 27.683594 C 245.316406 26.023438 245.144531 25.015625 244.628906 24.019531 C 243.945312 22.65625 242.6875 22.3125 241.828125 22.3125 C 239.871094 22.3125 239.152344 23.773438 238.9375 24.207031 C 238.375 25.339844 238.34375 26.878906 238.34375 27.683594 C 238.34375 28.710938 238.390625 30.277344 239.136719 31.519531 C 239.855469 32.667969 241.003906 32.960938 241.828125 32.960938 C 242.578125 32.960938 243.914062 32.730469 244.691406 31.191406 C 245.269531 30.074219 245.316406 28.695312 245.316406 27.683594 Z M 241.828125 32.527344 C 241.300781 32.527344 240.226562 32.28125 239.902344 30.648438 C 239.730469 29.765625 239.730469 28.304688 239.730469 27.5 C 239.730469 26.425781 239.730469 25.339844 239.902344 24.488281 C 240.226562 22.902344 241.441406 22.746094 241.828125 22.746094 C 242.359375 22.746094 243.433594 23.011719 243.742188 24.425781 C 243.929688 25.277344 243.929688 26.441406 243.929688 27.5 C 243.929688 28.414062 243.929688 29.8125 243.742188 30.679688 C 243.417969 32.308594 242.34375 32.527344 241.828125 32.527344 Z M 241.828125 32.527344 " fill-opacity="1" fill-rule="nonzero"/><path fill="#a8180f" d="M 251.636719 19.785156 L 253.78125 19.785156 C 254.226562 19.785156 254.460938 19.785156 254.460938 19.363281 C 254.460938 19.109375 254.320312 19.109375 253.851562 19.109375 L 251.800781 19.109375 L 252.664062 15.707031 C 252.757812 15.382812 252.757812 15.335938 252.757812 15.171875 C 252.757812 14.800781 252.453125 14.589844 252.148438 14.589844 C 251.960938 14.589844 251.425781 14.660156 251.238281 15.40625 L 250.328125 19.109375 L 248.136719 19.109375 C 247.667969 19.109375 247.457031 19.109375 247.457031 19.550781 C 247.457031 19.785156 247.621094 19.785156 248.066406 19.785156 L 250.140625 19.785156 L 248.601562 25.929688 C 248.414062 26.746094 248.34375 26.980469 248.34375 27.28125 C 248.34375 28.375 249.113281 29.378906 250.421875 29.378906 C 252.78125 29.378906 254.039062 25.976562 254.039062 25.8125 C 254.039062 25.675781 253.945312 25.605469 253.804688 25.605469 C 253.757812 25.605469 253.667969 25.605469 253.621094 25.699219 C 253.597656 25.722656 253.574219 25.746094 253.410156 26.117188 C 252.917969 27.28125 251.847656 28.910156 250.492188 28.910156 C 249.792969 28.910156 249.746094 28.328125 249.746094 27.816406 C 249.746094 27.792969 249.746094 27.351562 249.816406 27.070312 Z M 251.636719 19.785156 " fill-opacity="1" fill-rule="nonzero"/><g clip-path="url(#f1b0dc72d4)"><path fill="#a8180f" d="M 164.515625 38.609375 L 255.199219 38.609375 L 255.199219 39.542969 L 164.515625 39.542969 Z M 164.515625 38.609375 " fill-opacity="1" fill-rule="nonzero"/></g><g clip-path="url(#d753a71d8c)"><path fill="#a8180f" d="M 205.804688 51.507812 L 207.953125 51.507812 C 208.394531 51.507812 208.628906 51.507812 208.628906 51.089844 C 208.628906 50.832031 208.488281 50.832031 208.019531 50.832031 L 205.96875 50.832031 L 206.832031 47.433594 C 206.925781 47.105469 206.925781 47.0625 206.925781 46.898438 C 206.925781 46.523438 206.621094 46.316406 206.316406 46.316406 C 206.128906 46.316406 205.59375 46.386719 205.40625 47.128906 L 204.496094 50.832031 L 202.304688 50.832031 C 201.835938 50.832031 201.625 50.832031 201.625 51.273438 C 201.625 51.507812 201.789062 51.507812 202.234375 51.507812 L 204.308594 51.507812 L 202.769531 57.65625 C 202.582031 58.46875 202.511719 58.703125 202.511719 59.007812 C 202.511719 60.101562 203.285156 61.101562 204.589844 61.101562 C 206.949219 61.101562 208.207031 57.703125 208.207031 57.539062 C 208.207031 57.398438 208.113281 57.328125 207.972656 57.328125 C 207.929688 57.328125 207.835938 57.328125 207.789062 57.421875 C 207.765625 57.445312 207.742188 57.46875 207.578125 57.84375 C 207.085938 59.007812 206.015625 60.636719 204.660156 60.636719 C 203.960938 60.636719 203.914062 60.054688 203.914062 59.542969 C 203.914062 59.519531 203.914062 59.074219 203.984375 58.796875 Z M 205.804688 51.507812 " fill-opacity="1" fill-rule="nonzero"/></g><path fill="#a8180f" d="M 213.753906 50.976562 C 214 50.742188 214.65625 50.230469 214.902344 50.011719 C 215.867188 49.128906 216.785156 48.273438 216.785156 46.859375 C 216.785156 45.011719 215.230469 43.816406 213.285156 43.816406 C 211.417969 43.816406 210.191406 45.230469 210.191406 46.613281 C 210.191406 47.375 210.796875 47.480469 211.015625 47.480469 C 211.339844 47.480469 211.824219 47.25 211.824219 46.660156 C 211.824219 45.851562 211.046875 45.851562 210.859375 45.851562 C 211.308594 44.71875 212.351562 44.332031 213.113281 44.332031 C 214.5625 44.332031 215.308594 45.558594 215.308594 46.859375 C 215.308594 48.476562 214.171875 49.65625 212.335938 51.535156 L 210.375 53.550781 C 210.191406 53.722656 210.191406 53.753906 210.191406 54.140625 L 216.335938 54.140625 L 216.785156 51.363281 L 216.304688 51.363281 C 216.257812 51.671875 216.132812 52.449219 215.945312 52.746094 C 215.851562 52.867188 214.671875 52.867188 214.421875 52.867188 L 211.652344 52.867188 Z M 213.753906 50.976562 " fill-opacity="1" fill-rule="nonzero"/></svg>