<svg xmlns="http://www.w3.org/2000/svg" xmlns:xlink="http://www.w3.org/1999/xlink" width="500" zoomAndPan="magnify" viewBox="0 0 375 74.999997" height="100" preserveAspectRatio="xMidYMid meet" version="1.0"><defs><g/><clipPath id="4ee1e3bc43"><path d="M 46 38.199219 L 59 38.199219 L 59 54 L 46 54 Z M 46 38.199219 " clip-rule="nonzero"/></clipPath><clipPath id="a186386e36"><path d="M 57 38.199219 L 73 38.199219 L 73 39 L 57 39 Z M 57 38.199219 " clip-rule="nonzero"/></clipPath><clipPath id="c96a47b1c4"><path d="M 37.667969 57 L 110.417969 57 L 110.417969 58 L 37.667969 58 Z M 37.667969 57 " clip-rule="nonzero"/></clipPath><clipPath id="d61d315b8f"><path d="M 56 65 L 65 65 L 65 71.949219 L 56 71.949219 Z M 56 65 " clip-rule="nonzero"/></clipPath><clipPath id="16aab18134"><path d="M 84 61 L 91 61 L 91 71.949219 L 84 71.949219 Z M 84 61 " clip-rule="nonzero"/></clipPath></defs><g fill="#17191a" fill-opacity="1"><g transform="translate(15.000006, 31.534077)"><g><path d="M 6.40625 0 L 4.765625 0 L 4.765625 -10.84375 L 1.5 -9.640625 L 1.5 -11.109375 L 6.15625 -12.859375 L 6.40625 -12.859375 Z M 6.40625 0 "/></g></g></g><g fill="#17191a" fill-opacity="1"><g transform="translate(25.104909, 31.534077)"><g><path d="M 4.984375 -5.109375 C 4.984375 -3.796875 4.8125 -2.539062 4.46875 -1.34375 C 4.125 -0.144531 3.597656 0.957031 2.890625 1.96875 C 2.191406 2.976562 1.453125 3.695312 0.671875 4.125 L 0.328125 3.140625 C 1.234375 2.441406 1.957031 1.367188 2.5 -0.078125 C 3.050781 -1.535156 3.332031 -3.15625 3.34375 -4.9375 L 3.34375 -5.21875 C 3.34375 -6.445312 3.210938 -7.585938 2.953125 -8.640625 C 2.703125 -9.703125 2.347656 -10.648438 1.890625 -11.484375 C 1.429688 -12.328125 0.910156 -12.984375 0.328125 -13.453125 L 0.671875 -14.4375 C 1.453125 -14.007812 2.191406 -13.296875 2.890625 -12.296875 C 3.585938 -11.296875 4.109375 -10.191406 4.453125 -8.984375 C 4.804688 -7.773438 4.984375 -6.484375 4.984375 -5.109375 Z M 4.984375 -5.109375 "/></g></g></g><g fill="#17191a" fill-opacity="1"><g transform="translate(31.361161, 31.534077)"><g/></g></g><g fill="#17191a" fill-opacity="1"><g transform="translate(35.816106, 31.534077)"><g><path d="M 3.296875 0 L 1.609375 0 L 1.609375 -12.796875 L 3.296875 -12.796875 Z M 3.296875 0 "/></g></g></g><g fill="#17191a" fill-opacity="1"><g transform="translate(40.710393, 31.534077)"><g><path d="M 2.765625 -1.328125 L 8.328125 -1.328125 L 8.328125 0 L 0.78125 0 L 0.78125 -1.203125 L 6.015625 -8.171875 L 0.859375 -8.171875 L 0.859375 -9.515625 L 8.0625 -9.515625 L 8.0625 -8.359375 Z M 2.765625 -1.328125 "/></g></g></g><g fill="#17191a" fill-opacity="1"><g transform="translate(49.629068, 31.534077)"><g><path d="M 5.828125 -8.046875 C 5.578125 -8.085938 5.3125 -8.109375 5.03125 -8.109375 C 3.957031 -8.109375 3.234375 -7.65625 2.859375 -6.75 L 2.859375 0 L 1.234375 0 L 1.234375 -9.515625 L 2.8125 -9.515625 L 2.84375 -8.40625 C 3.375 -9.257812 4.128906 -9.6875 5.109375 -9.6875 C 5.421875 -9.6875 5.660156 -9.644531 5.828125 -9.5625 Z M 5.828125 -8.046875 "/></g></g></g><g fill="#17191a" fill-opacity="1"><g transform="translate(55.71837, 31.534077)"><g><path d="M 7.109375 0 C 7.015625 -0.1875 6.9375 -0.519531 6.875 -1 C 6.113281 -0.21875 5.210938 0.171875 4.171875 0.171875 C 3.234375 0.171875 2.460938 -0.09375 1.859375 -0.625 C 1.253906 -1.15625 0.953125 -1.828125 0.953125 -2.640625 C 0.953125 -3.628906 1.328125 -4.394531 2.078125 -4.9375 C 2.835938 -5.488281 3.898438 -5.765625 5.265625 -5.765625 L 6.84375 -5.765625 L 6.84375 -6.515625 C 6.84375 -7.078125 6.671875 -7.523438 6.328125 -7.859375 C 5.992188 -8.203125 5.492188 -8.375 4.828125 -8.375 C 4.253906 -8.375 3.769531 -8.226562 3.375 -7.9375 C 2.976562 -7.644531 2.78125 -7.289062 2.78125 -6.875 L 1.15625 -6.875 C 1.15625 -7.34375 1.320312 -7.796875 1.65625 -8.234375 C 1.988281 -8.679688 2.441406 -9.035156 3.015625 -9.296875 C 3.597656 -9.554688 4.238281 -9.6875 4.9375 -9.6875 C 6.03125 -9.6875 6.882812 -9.410156 7.5 -8.859375 C 8.125 -8.316406 8.445312 -7.5625 8.46875 -6.59375 L 8.46875 -2.21875 C 8.46875 -1.351562 8.582031 -0.660156 8.8125 -0.140625 L 8.8125 0 Z M 4.40625 -1.234375 C 4.914062 -1.234375 5.398438 -1.363281 5.859375 -1.625 C 6.316406 -1.894531 6.644531 -2.238281 6.84375 -2.65625 L 6.84375 -4.609375 L 5.578125 -4.609375 C 3.578125 -4.609375 2.578125 -4.023438 2.578125 -2.859375 C 2.578125 -2.347656 2.75 -1.945312 3.09375 -1.65625 C 3.4375 -1.375 3.875 -1.234375 4.40625 -1.234375 Z M 4.40625 -1.234375 "/></g></g></g><g fill="#17191a" fill-opacity="1"><g transform="translate(65.506945, 31.534077)"><g><path d="M 5.046875 -1.15625 C 5.628906 -1.15625 6.132812 -1.328125 6.5625 -1.671875 C 7 -2.023438 7.238281 -2.46875 7.28125 -3 L 8.828125 -3 C 8.796875 -2.457031 8.609375 -1.9375 8.265625 -1.4375 C 7.921875 -0.945312 7.457031 -0.554688 6.875 -0.265625 C 6.300781 0.0234375 5.691406 0.171875 5.046875 0.171875 C 3.753906 0.171875 2.722656 -0.257812 1.953125 -1.125 C 1.191406 -1.988281 0.8125 -3.171875 0.8125 -4.671875 L 0.8125 -4.9375 C 0.8125 -5.863281 0.976562 -6.6875 1.3125 -7.40625 C 1.65625 -8.125 2.144531 -8.679688 2.78125 -9.078125 C 3.414062 -9.484375 4.164062 -9.6875 5.03125 -9.6875 C 6.101562 -9.6875 6.988281 -9.363281 7.6875 -8.71875 C 8.394531 -8.082031 8.773438 -7.253906 8.828125 -6.234375 L 7.28125 -6.234375 C 7.238281 -6.847656 7.003906 -7.351562 6.578125 -7.75 C 6.160156 -8.144531 5.644531 -8.34375 5.03125 -8.34375 C 4.207031 -8.34375 3.566406 -8.046875 3.109375 -7.453125 C 2.660156 -6.859375 2.4375 -6 2.4375 -4.875 L 2.4375 -4.578125 C 2.4375 -3.472656 2.660156 -2.625 3.109375 -2.03125 C 3.554688 -1.445312 4.203125 -1.15625 5.046875 -1.15625 Z M 4.671875 -12.015625 L 5.984375 -13.5 L 7.390625 -13.5 L 7.390625 -13.421875 L 5.15625 -11.015625 L 4.171875 -11.015625 L 1.953125 -13.421875 L 1.953125 -13.5 L 3.34375 -13.5 Z M 4.671875 -12.015625 "/></g></g></g><g fill="#17191a" fill-opacity="1"><g transform="translate(74.926472, 31.534077)"><g><path d="M 7.109375 -0.9375 C 6.472656 -0.195312 5.539062 0.171875 4.3125 0.171875 C 3.300781 0.171875 2.53125 -0.117188 2 -0.703125 C 1.46875 -1.296875 1.203125 -2.171875 1.203125 -3.328125 L 1.203125 -9.515625 L 2.828125 -9.515625 L 2.828125 -3.359375 C 2.828125 -1.921875 3.410156 -1.203125 4.578125 -1.203125 C 5.816406 -1.203125 6.644531 -1.664062 7.0625 -2.59375 L 7.0625 -9.515625 L 8.6875 -9.515625 L 8.6875 0 L 7.140625 0 Z M 7.109375 -0.9375 "/></g></g></g><g fill="#17191a" fill-opacity="1"><g transform="translate(84.84685, 31.534077)"><g><path d="M 2.765625 -9.515625 L 2.828125 -8.3125 C 3.546875 -9.226562 4.492188 -9.6875 5.671875 -9.6875 C 7.679688 -9.6875 8.691406 -8.550781 8.703125 -6.28125 L 8.703125 0 L 7.078125 0 L 7.078125 -6.296875 C 7.078125 -6.984375 6.921875 -7.488281 6.609375 -7.8125 C 6.304688 -8.144531 5.828125 -8.3125 5.171875 -8.3125 C 4.648438 -8.3125 4.1875 -8.171875 3.78125 -7.890625 C 3.382812 -7.609375 3.078125 -7.238281 2.859375 -6.78125 L 2.859375 0 L 1.234375 0 L 1.234375 -9.515625 Z M 2.765625 -9.515625 "/></g></g></g><g fill="#17191a" fill-opacity="1"><g transform="translate(94.776016, 31.534077)"><g><path d="M 7.109375 0 C 7.015625 -0.1875 6.9375 -0.519531 6.875 -1 C 6.113281 -0.21875 5.210938 0.171875 4.171875 0.171875 C 3.234375 0.171875 2.460938 -0.09375 1.859375 -0.625 C 1.253906 -1.15625 0.953125 -1.828125 0.953125 -2.640625 C 0.953125 -3.628906 1.328125 -4.394531 2.078125 -4.9375 C 2.835938 -5.488281 3.898438 -5.765625 5.265625 -5.765625 L 6.84375 -5.765625 L 6.84375 -6.515625 C 6.84375 -7.078125 6.671875 -7.523438 6.328125 -7.859375 C 5.992188 -8.203125 5.492188 -8.375 4.828125 -8.375 C 4.253906 -8.375 3.769531 -8.226562 3.375 -7.9375 C 2.976562 -7.644531 2.78125 -7.289062 2.78125 -6.875 L 1.15625 -6.875 C 1.15625 -7.34375 1.320312 -7.796875 1.65625 -8.234375 C 1.988281 -8.679688 2.441406 -9.035156 3.015625 -9.296875 C 3.597656 -9.554688 4.238281 -9.6875 4.9375 -9.6875 C 6.03125 -9.6875 6.882812 -9.410156 7.5 -8.859375 C 8.125 -8.316406 8.445312 -7.5625 8.46875 -6.59375 L 8.46875 -2.21875 C 8.46875 -1.351562 8.582031 -0.660156 8.8125 -0.140625 L 8.8125 0 Z M 4.40625 -1.234375 C 4.914062 -1.234375 5.398438 -1.363281 5.859375 -1.625 C 6.316406 -1.894531 6.644531 -2.238281 6.84375 -2.65625 L 6.84375 -4.609375 L 5.578125 -4.609375 C 3.578125 -4.609375 2.578125 -4.023438 2.578125 -2.859375 C 2.578125 -2.347656 2.75 -1.945312 3.09375 -1.65625 C 3.4375 -1.375 3.875 -1.234375 4.40625 -1.234375 Z M 4.40625 -1.234375 "/></g></g></g><g fill="#17191a" fill-opacity="1"><g transform="translate(104.564591, 31.534077)"><g><path d="M 2.90625 -9.515625 L 2.90625 1.09375 C 2.90625 2.925781 2.078125 3.84375 0.421875 3.84375 C 0.0664062 3.84375 -0.265625 3.789062 -0.578125 3.6875 L -0.578125 2.375 C -0.390625 2.425781 -0.140625 2.453125 0.171875 2.453125 C 0.535156 2.453125 0.8125 2.351562 1 2.15625 C 1.1875 1.957031 1.28125 1.617188 1.28125 1.140625 L 1.28125 -9.515625 Z M 1.109375 -12.03125 C 1.109375 -12.289062 1.1875 -12.507812 1.34375 -12.6875 C 1.507812 -12.875 1.75 -12.96875 2.0625 -12.96875 C 2.382812 -12.96875 2.625 -12.875 2.78125 -12.6875 C 2.945312 -12.507812 3.03125 -12.289062 3.03125 -12.03125 C 3.03125 -11.769531 2.945312 -11.550781 2.78125 -11.375 C 2.625 -11.195312 2.382812 -11.109375 2.0625 -11.109375 C 1.75 -11.109375 1.507812 -11.195312 1.34375 -11.375 C 1.1875 -11.550781 1.109375 -11.769531 1.109375 -12.03125 Z M 1.109375 -12.03125 "/></g></g></g><g fill="#17191a" fill-opacity="1"><g transform="translate(108.861371, 31.534077)"><g><path d="M 3.4375 -11.8125 L 3.4375 -9.515625 L 5.21875 -9.515625 L 5.21875 -8.25 L 3.4375 -8.25 L 3.4375 -2.359375 C 3.4375 -1.972656 3.515625 -1.6875 3.671875 -1.5 C 3.828125 -1.3125 4.097656 -1.21875 4.484375 -1.21875 C 4.671875 -1.21875 4.925781 -1.25 5.25 -1.3125 L 5.25 0 C 4.820312 0.113281 4.410156 0.171875 4.015625 0.171875 C 3.285156 0.171875 2.734375 -0.046875 2.359375 -0.484375 C 1.992188 -0.921875 1.8125 -1.546875 1.8125 -2.359375 L 1.8125 -8.25 L 0.078125 -8.25 L 0.078125 -9.515625 L 1.8125 -9.515625 L 1.8125 -11.8125 Z M 3.4375 -11.8125 "/></g></g></g><g fill="#17191a" fill-opacity="1"><g transform="translate(114.739789, 31.534077)"><g><path d="M 5.171875 0.171875 C 3.890625 0.171875 2.84375 -0.25 2.03125 -1.09375 C 1.21875 -1.9375 0.8125 -3.066406 0.8125 -4.484375 L 0.8125 -4.796875 C 0.8125 -5.734375 0.992188 -6.570312 1.359375 -7.3125 C 1.722656 -8.050781 2.226562 -8.628906 2.875 -9.046875 C 3.519531 -9.472656 4.21875 -9.6875 4.96875 -9.6875 C 6.207031 -9.6875 7.171875 -9.28125 7.859375 -8.46875 C 8.546875 -7.65625 8.890625 -6.488281 8.890625 -4.96875 L 8.890625 -4.296875 L 2.4375 -4.296875 C 2.46875 -3.359375 2.742188 -2.597656 3.265625 -2.015625 C 3.785156 -1.441406 4.453125 -1.15625 5.265625 -1.15625 C 5.835938 -1.15625 6.320312 -1.269531 6.71875 -1.5 C 7.125 -1.738281 7.472656 -2.050781 7.765625 -2.4375 L 8.765625 -1.65625 C 7.960938 -0.4375 6.765625 0.171875 5.171875 0.171875 Z M 4.96875 -8.34375 C 4.3125 -8.34375 3.757812 -8.101562 3.3125 -7.625 C 2.875 -7.15625 2.601562 -6.488281 2.5 -5.625 L 7.265625 -5.625 L 7.265625 -5.75 C 7.210938 -6.570312 6.988281 -7.207031 6.59375 -7.65625 C 6.195312 -8.113281 5.65625 -8.34375 4.96875 -8.34375 Z M 4.96875 -8.34375 "/></g></g></g><g fill="#17191a" fill-opacity="1"><g transform="translate(124.273544, 31.534077)"><g/></g></g><g fill="#17191a" fill-opacity="1"><g transform="translate(128.728488, 31.534077)"><g><path d="M 3 0 L 1.375 0 L 1.375 -9.515625 L 3 -9.515625 Z M 1.234375 -12.03125 C 1.234375 -12.289062 1.3125 -12.507812 1.46875 -12.6875 C 1.632812 -12.875 1.875 -12.96875 2.1875 -12.96875 C 2.507812 -12.96875 2.753906 -12.875 2.921875 -12.6875 C 3.085938 -12.507812 3.171875 -12.289062 3.171875 -12.03125 C 3.171875 -11.769531 3.085938 -11.550781 2.921875 -11.375 C 2.753906 -11.195312 2.507812 -11.109375 2.1875 -11.109375 C 1.875 -11.109375 1.632812 -11.195312 1.46875 -11.375 C 1.3125 -11.550781 1.234375 -11.769531 1.234375 -12.03125 Z M 1.234375 -12.03125 "/></g></g></g><g fill="#17191a" fill-opacity="1"><g transform="translate(133.095564, 31.534077)"><g/></g></g><g fill="#17191a" fill-opacity="1"><g transform="translate(137.550508, 31.534077)"><g><path d="M 2.765625 -1.328125 L 8.328125 -1.328125 L 8.328125 0 L 0.78125 0 L 0.78125 -1.203125 L 6.015625 -8.171875 L 0.859375 -8.171875 L 0.859375 -9.515625 L 8.0625 -9.515625 L 8.0625 -8.359375 Z M 2.765625 -1.328125 "/></g></g></g><g fill="#17191a" fill-opacity="1"><g transform="translate(146.469183, 31.534077)"><g><path d="M 7.109375 0 C 7.015625 -0.1875 6.9375 -0.519531 6.875 -1 C 6.113281 -0.21875 5.210938 0.171875 4.171875 0.171875 C 3.234375 0.171875 2.460938 -0.09375 1.859375 -0.625 C 1.253906 -1.15625 0.953125 -1.828125 0.953125 -2.640625 C 0.953125 -3.628906 1.328125 -4.394531 2.078125 -4.9375 C 2.835938 -5.488281 3.898438 -5.765625 5.265625 -5.765625 L 6.84375 -5.765625 L 6.84375 -6.515625 C 6.84375 -7.078125 6.671875 -7.523438 6.328125 -7.859375 C 5.992188 -8.203125 5.492188 -8.375 4.828125 -8.375 C 4.253906 -8.375 3.769531 -8.226562 3.375 -7.9375 C 2.976562 -7.644531 2.78125 -7.289062 2.78125 -6.875 L 1.15625 -6.875 C 1.15625 -7.34375 1.320312 -7.796875 1.65625 -8.234375 C 1.988281 -8.679688 2.441406 -9.035156 3.015625 -9.296875 C 3.597656 -9.554688 4.238281 -9.6875 4.9375 -9.6875 C 6.03125 -9.6875 6.882812 -9.410156 7.5 -8.859375 C 8.125 -8.316406 8.445312 -7.5625 8.46875 -6.59375 L 8.46875 -2.21875 C 8.46875 -1.351562 8.582031 -0.660156 8.8125 -0.140625 L 8.8125 0 Z M 4.40625 -1.234375 C 4.914062 -1.234375 5.398438 -1.363281 5.859375 -1.625 C 6.316406 -1.894531 6.644531 -2.238281 6.84375 -2.65625 L 6.84375 -4.609375 L 5.578125 -4.609375 C 3.578125 -4.609375 2.578125 -4.023438 2.578125 -2.859375 C 2.578125 -2.347656 2.75 -1.945312 3.09375 -1.65625 C 3.4375 -1.375 3.875 -1.234375 4.40625 -1.234375 Z M 4.40625 -1.234375 "/></g></g></g><g fill="#17191a" fill-opacity="1"><g transform="translate(156.257758, 31.534077)"><g><path d="M 0.796875 -4.84375 C 0.796875 -5.769531 0.976562 -6.601562 1.34375 -7.34375 C 1.71875 -8.09375 2.226562 -8.671875 2.875 -9.078125 C 3.53125 -9.484375 4.273438 -9.6875 5.109375 -9.6875 C 6.410156 -9.6875 7.457031 -9.238281 8.25 -8.34375 C 9.050781 -7.445312 9.453125 -6.253906 9.453125 -4.765625 L 9.453125 -4.65625 C 9.453125 -3.726562 9.273438 -2.894531 8.921875 -2.15625 C 8.566406 -1.425781 8.0625 -0.851562 7.40625 -0.4375 C 6.75 -0.03125 5.992188 0.171875 5.140625 0.171875 C 3.847656 0.171875 2.800781 -0.273438 2 -1.171875 C 1.195312 -2.066406 0.796875 -3.253906 0.796875 -4.734375 Z M 2.4375 -4.65625 C 2.4375 -3.59375 2.679688 -2.742188 3.171875 -2.109375 C 3.660156 -1.472656 4.316406 -1.15625 5.140625 -1.15625 C 5.960938 -1.15625 6.613281 -1.476562 7.09375 -2.125 C 7.582031 -2.769531 7.828125 -3.675781 7.828125 -4.84375 C 7.828125 -5.882812 7.578125 -6.726562 7.078125 -7.375 C 6.585938 -8.019531 5.929688 -8.34375 5.109375 -8.34375 C 4.304688 -8.34375 3.660156 -8.023438 3.171875 -7.390625 C 2.679688 -6.753906 2.4375 -5.84375 2.4375 -4.65625 Z M 2.4375 -4.65625 "/></g></g></g><g fill="#17191a" fill-opacity="1"><g transform="translate(166.520824, 31.534077)"><g><path d="M 3.890625 -4.40625 L 2.859375 -3.34375 L 2.859375 0 L 1.234375 0 L 1.234375 -13.5 L 2.859375 -13.5 L 2.859375 -5.328125 L 3.734375 -6.375 L 6.703125 -9.515625 L 8.671875 -9.515625 L 4.96875 -5.53125 L 9.109375 0 L 7.203125 0 Z M 3.890625 -4.40625 "/></g></g></g><g fill="#17191a" fill-opacity="1"><g transform="translate(175.641597, 31.534077)"><g><path d="M 5.828125 -8.046875 C 5.578125 -8.085938 5.3125 -8.109375 5.03125 -8.109375 C 3.957031 -8.109375 3.234375 -7.65625 2.859375 -6.75 L 2.859375 0 L 1.234375 0 L 1.234375 -9.515625 L 2.8125 -9.515625 L 2.84375 -8.40625 C 3.375 -9.257812 4.128906 -9.6875 5.109375 -9.6875 C 5.421875 -9.6875 5.660156 -9.644531 5.828125 -9.5625 Z M 5.828125 -8.046875 "/></g></g></g><g fill="#17191a" fill-opacity="1"><g transform="translate(181.730899, 31.534077)"><g><path d="M 7.109375 -0.9375 C 6.472656 -0.195312 5.539062 0.171875 4.3125 0.171875 C 3.300781 0.171875 2.53125 -0.117188 2 -0.703125 C 1.46875 -1.296875 1.203125 -2.171875 1.203125 -3.328125 L 1.203125 -9.515625 L 2.828125 -9.515625 L 2.828125 -3.359375 C 2.828125 -1.921875 3.410156 -1.203125 4.578125 -1.203125 C 5.816406 -1.203125 6.644531 -1.664062 7.0625 -2.59375 L 7.0625 -9.515625 L 8.6875 -9.515625 L 8.6875 0 L 7.140625 0 Z M 7.109375 -0.9375 "/></g></g></g><g fill="#17191a" fill-opacity="1"><g transform="translate(191.651278, 31.534077)"><g><path d="M 2.765625 -1.328125 L 8.328125 -1.328125 L 8.328125 0 L 0.78125 0 L 0.78125 -1.203125 L 6.015625 -8.171875 L 0.859375 -8.171875 L 0.859375 -9.515625 L 8.0625 -9.515625 L 8.0625 -8.359375 Z M 4.515625 -12.015625 L 5.828125 -13.5 L 7.234375 -13.5 L 7.234375 -13.421875 L 5 -11.015625 L 4.015625 -11.015625 L 1.796875 -13.421875 L 1.796875 -13.5 L 3.1875 -13.5 Z M 4.515625 -12.015625 "/></g></g></g><g fill="#17191a" fill-opacity="1"><g transform="translate(200.569952, 31.534077)"><g><path d="M 3 0 L 1.375 0 L 1.375 -9.515625 L 3 -9.515625 Z M 1.234375 -12.03125 C 1.234375 -12.289062 1.3125 -12.507812 1.46875 -12.6875 C 1.632812 -12.875 1.875 -12.96875 2.1875 -12.96875 C 2.507812 -12.96875 2.753906 -12.875 2.921875 -12.6875 C 3.085938 -12.507812 3.171875 -12.289062 3.171875 -12.03125 C 3.171875 -11.769531 3.085938 -11.550781 2.921875 -11.375 C 2.753906 -11.195312 2.507812 -11.109375 2.1875 -11.109375 C 1.875 -11.109375 1.632812 -11.195312 1.46875 -11.375 C 1.3125 -11.550781 1.234375 -11.769531 1.234375 -12.03125 Z M 1.234375 -12.03125 "/></g></g></g><g fill="#17191a" fill-opacity="1"><g transform="translate(204.937028, 31.534077)"><g><path d="M 3.4375 -11.8125 L 3.4375 -9.515625 L 5.21875 -9.515625 L 5.21875 -8.25 L 3.4375 -8.25 L 3.4375 -2.359375 C 3.4375 -1.972656 3.515625 -1.6875 3.671875 -1.5 C 3.828125 -1.3125 4.097656 -1.21875 4.484375 -1.21875 C 4.671875 -1.21875 4.925781 -1.25 5.25 -1.3125 L 5.25 0 C 4.820312 0.113281 4.410156 0.171875 4.015625 0.171875 C 3.285156 0.171875 2.734375 -0.046875 2.359375 -0.484375 C 1.992188 -0.921875 1.8125 -1.546875 1.8125 -2.359375 L 1.8125 -8.25 L 0.078125 -8.25 L 0.078125 -9.515625 L 1.8125 -9.515625 L 1.8125 -11.8125 Z M 3.4375 -11.8125 "/></g></g></g><g fill="#17191a" fill-opacity="1"><g transform="translate(210.815445, 31.534077)"><g><path d="M 5.171875 0.171875 C 3.890625 0.171875 2.84375 -0.25 2.03125 -1.09375 C 1.21875 -1.9375 0.8125 -3.066406 0.8125 -4.484375 L 0.8125 -4.796875 C 0.8125 -5.734375 0.992188 -6.570312 1.359375 -7.3125 C 1.722656 -8.050781 2.226562 -8.628906 2.875 -9.046875 C 3.519531 -9.472656 4.21875 -9.6875 4.96875 -9.6875 C 6.207031 -9.6875 7.171875 -9.28125 7.859375 -8.46875 C 8.546875 -7.65625 8.890625 -6.488281 8.890625 -4.96875 L 8.890625 -4.296875 L 2.4375 -4.296875 C 2.46875 -3.359375 2.742188 -2.597656 3.265625 -2.015625 C 3.785156 -1.441406 4.453125 -1.15625 5.265625 -1.15625 C 5.835938 -1.15625 6.320312 -1.269531 6.71875 -1.5 C 7.125 -1.738281 7.472656 -2.050781 7.765625 -2.4375 L 8.765625 -1.65625 C 7.960938 -0.4375 6.765625 0.171875 5.171875 0.171875 Z M 4.96875 -8.34375 C 4.3125 -8.34375 3.757812 -8.101562 3.3125 -7.625 C 2.875 -7.15625 2.601562 -6.488281 2.5 -5.625 L 7.265625 -5.625 L 7.265625 -5.75 C 7.210938 -6.570312 6.988281 -7.207031 6.59375 -7.65625 C 6.195312 -8.113281 5.65625 -8.34375 4.96875 -8.34375 Z M 4.96875 -8.34375 "/></g></g></g><g fill="#17191a" fill-opacity="1"><g transform="translate(220.349201, 31.534077)"><g/></g></g><g fill="#17191a" fill-opacity="1"><g transform="translate(224.804145, 31.534077)"><g><path d="M 2.765625 -9.515625 L 2.828125 -8.3125 C 3.546875 -9.226562 4.492188 -9.6875 5.671875 -9.6875 C 7.679688 -9.6875 8.691406 -8.550781 8.703125 -6.28125 L 8.703125 0 L 7.078125 0 L 7.078125 -6.296875 C 7.078125 -6.984375 6.921875 -7.488281 6.609375 -7.8125 C 6.304688 -8.144531 5.828125 -8.3125 5.171875 -8.3125 C 4.648438 -8.3125 4.1875 -8.171875 3.78125 -7.890625 C 3.382812 -7.609375 3.078125 -7.238281 2.859375 -6.78125 L 2.859375 0 L 1.234375 0 L 1.234375 -9.515625 Z M 2.765625 -9.515625 "/></g></g></g><g fill="#17191a" fill-opacity="1"><g transform="translate(234.733297, 31.534077)"><g><path d="M 7.109375 0 C 7.015625 -0.1875 6.9375 -0.519531 6.875 -1 C 6.113281 -0.21875 5.210938 0.171875 4.171875 0.171875 C 3.234375 0.171875 2.460938 -0.09375 1.859375 -0.625 C 1.253906 -1.15625 0.953125 -1.828125 0.953125 -2.640625 C 0.953125 -3.628906 1.328125 -4.394531 2.078125 -4.9375 C 2.835938 -5.488281 3.898438 -5.765625 5.265625 -5.765625 L 6.84375 -5.765625 L 6.84375 -6.515625 C 6.84375 -7.078125 6.671875 -7.523438 6.328125 -7.859375 C 5.992188 -8.203125 5.492188 -8.375 4.828125 -8.375 C 4.253906 -8.375 3.769531 -8.226562 3.375 -7.9375 C 2.976562 -7.644531 2.78125 -7.289062 2.78125 -6.875 L 1.15625 -6.875 C 1.15625 -7.34375 1.320312 -7.796875 1.65625 -8.234375 C 1.988281 -8.679688 2.441406 -9.035156 3.015625 -9.296875 C 3.597656 -9.554688 4.238281 -9.6875 4.9375 -9.6875 C 6.03125 -9.6875 6.882812 -9.410156 7.5 -8.859375 C 8.125 -8.316406 8.445312 -7.5625 8.46875 -6.59375 L 8.46875 -2.21875 C 8.46875 -1.351562 8.582031 -0.660156 8.8125 -0.140625 L 8.8125 0 Z M 4.40625 -1.234375 C 4.914062 -1.234375 5.398438 -1.363281 5.859375 -1.625 C 6.316406 -1.894531 6.644531 -2.238281 6.84375 -2.65625 L 6.84375 -4.609375 L 5.578125 -4.609375 C 3.578125 -4.609375 2.578125 -4.023438 2.578125 -2.859375 C 2.578125 -2.347656 2.75 -1.945312 3.09375 -1.65625 C 3.4375 -1.375 3.875 -1.234375 4.40625 -1.234375 Z M 4.40625 -1.234375 "/></g></g></g><g fill="#17191a" fill-opacity="1"><g transform="translate(244.521872, 31.534077)"><g/></g></g><g fill="#17191a" fill-opacity="1"><g transform="translate(248.976829, 31.534077)"><g><path d="M 9.453125 0 L 1.0625 0 L 1.0625 -1.171875 L 5.5 -6.09375 C 6.15625 -6.832031 6.601562 -7.4375 6.84375 -7.90625 C 7.09375 -8.375 7.21875 -8.859375 7.21875 -9.359375 C 7.21875 -10.023438 7.015625 -10.570312 6.609375 -11 C 6.210938 -11.425781 5.675781 -11.640625 5 -11.640625 C 4.1875 -11.640625 3.554688 -11.40625 3.109375 -10.9375 C 2.660156 -10.476562 2.4375 -9.84375 2.4375 -9.03125 L 0.8125 -9.03125 C 0.8125 -10.207031 1.191406 -11.15625 1.953125 -11.875 C 2.710938 -12.601562 3.726562 -12.96875 5 -12.96875 C 6.1875 -12.96875 7.125 -12.65625 7.8125 -12.03125 C 8.507812 -11.40625 8.859375 -10.578125 8.859375 -9.546875 C 8.859375 -8.285156 8.054688 -6.785156 6.453125 -5.046875 L 3.03125 -1.328125 L 9.453125 -1.328125 Z M 9.453125 0 "/></g></g></g><g fill="#17191a" fill-opacity="1"><g transform="translate(259.081732, 31.534077)"><g/></g></g><g fill="#17191a" fill-opacity="1"><g transform="translate(263.536688, 31.534077)"><g><path d="M 0.828125 -4.828125 C 0.828125 -6.285156 1.171875 -7.457031 1.859375 -8.34375 C 2.554688 -9.238281 3.46875 -9.6875 4.59375 -9.6875 C 5.707031 -9.6875 6.585938 -9.304688 7.234375 -8.546875 L 7.234375 -13.5 L 8.859375 -13.5 L 8.859375 0 L 7.359375 0 L 7.28125 -1.015625 C 6.632812 -0.222656 5.734375 0.171875 4.578125 0.171875 C 3.472656 0.171875 2.570312 -0.273438 1.875 -1.171875 C 1.175781 -2.078125 0.828125 -3.257812 0.828125 -4.71875 Z M 2.46875 -4.65625 C 2.46875 -3.570312 2.6875 -2.722656 3.125 -2.109375 C 3.570312 -1.503906 4.1875 -1.203125 4.96875 -1.203125 C 6 -1.203125 6.753906 -1.664062 7.234375 -2.59375 L 7.234375 -6.96875 C 6.742188 -7.863281 6 -8.3125 5 -8.3125 C 4.195312 -8.3125 3.570312 -8 3.125 -7.375 C 2.6875 -6.757812 2.46875 -5.851562 2.46875 -4.65625 Z M 2.46875 -4.65625 "/></g></g></g><g fill="#17191a" fill-opacity="1"><g transform="translate(273.685513, 31.534077)"><g><path d="M 5.171875 0.171875 C 3.890625 0.171875 2.84375 -0.25 2.03125 -1.09375 C 1.21875 -1.9375 0.8125 -3.066406 0.8125 -4.484375 L 0.8125 -4.796875 C 0.8125 -5.734375 0.992188 -6.570312 1.359375 -7.3125 C 1.722656 -8.050781 2.226562 -8.628906 2.875 -9.046875 C 3.519531 -9.472656 4.21875 -9.6875 4.96875 -9.6875 C 6.207031 -9.6875 7.171875 -9.28125 7.859375 -8.46875 C 8.546875 -7.65625 8.890625 -6.488281 8.890625 -4.96875 L 8.890625 -4.296875 L 2.4375 -4.296875 C 2.46875 -3.359375 2.742188 -2.597656 3.265625 -2.015625 C 3.785156 -1.441406 4.453125 -1.15625 5.265625 -1.15625 C 5.835938 -1.15625 6.320312 -1.269531 6.71875 -1.5 C 7.125 -1.738281 7.472656 -2.050781 7.765625 -2.4375 L 8.765625 -1.65625 C 7.960938 -0.4375 6.765625 0.171875 5.171875 0.171875 Z M 4.96875 -8.34375 C 4.3125 -8.34375 3.757812 -8.101562 3.3125 -7.625 C 2.875 -7.15625 2.601562 -6.488281 2.5 -5.625 L 7.265625 -5.625 L 7.265625 -5.75 C 7.210938 -6.570312 6.988281 -7.207031 6.59375 -7.65625 C 6.195312 -8.113281 5.65625 -8.34375 4.96875 -8.34375 Z M 4.96875 -8.34375 "/></g></g></g><g fill="#17191a" fill-opacity="1"><g transform="translate(283.219281, 31.534077)"><g><path d="M 5.046875 -1.15625 C 5.628906 -1.15625 6.132812 -1.328125 6.5625 -1.671875 C 7 -2.023438 7.238281 -2.46875 7.28125 -3 L 8.828125 -3 C 8.796875 -2.457031 8.609375 -1.9375 8.265625 -1.4375 C 7.921875 -0.945312 7.457031 -0.554688 6.875 -0.265625 C 6.300781 0.0234375 5.691406 0.171875 5.046875 0.171875 C 3.753906 0.171875 2.722656 -0.257812 1.953125 -1.125 C 1.191406 -1.988281 0.8125 -3.171875 0.8125 -4.671875 L 0.8125 -4.9375 C 0.8125 -5.863281 0.976562 -6.6875 1.3125 -7.40625 C 1.65625 -8.125 2.144531 -8.679688 2.78125 -9.078125 C 3.414062 -9.484375 4.164062 -9.6875 5.03125 -9.6875 C 6.101562 -9.6875 6.988281 -9.363281 7.6875 -8.71875 C 8.394531 -8.082031 8.773438 -7.253906 8.828125 -6.234375 L 7.28125 -6.234375 C 7.238281 -6.847656 7.003906 -7.351562 6.578125 -7.75 C 6.160156 -8.144531 5.644531 -8.34375 5.03125 -8.34375 C 4.207031 -8.34375 3.566406 -8.046875 3.109375 -7.453125 C 2.660156 -6.859375 2.4375 -6 2.4375 -4.875 L 2.4375 -4.578125 C 2.4375 -3.472656 2.660156 -2.625 3.109375 -2.03125 C 3.554688 -1.445312 4.203125 -1.15625 5.046875 -1.15625 Z M 5.046875 -1.15625 "/></g></g></g><g fill="#17191a" fill-opacity="1"><g transform="translate(292.638808, 31.534077)"><g><path d="M 3 0 L 1.375 0 L 1.375 -9.515625 L 3 -9.515625 Z M 1.234375 -12.03125 C 1.234375 -12.289062 1.3125 -12.507812 1.46875 -12.6875 C 1.632812 -12.875 1.875 -12.96875 2.1875 -12.96875 C 2.507812 -12.96875 2.753906 -12.875 2.921875 -12.6875 C 3.085938 -12.507812 3.171875 -12.289062 3.171875 -12.03125 C 3.171875 -11.769531 3.085938 -11.550781 2.921875 -11.375 C 2.753906 -11.195312 2.507812 -11.109375 2.1875 -11.109375 C 1.875 -11.109375 1.632812 -11.195312 1.46875 -11.375 C 1.3125 -11.550781 1.234375 -11.769531 1.234375 -12.03125 Z M 1.234375 -12.03125 "/></g></g></g><g fill="#17191a" fill-opacity="1"><g transform="translate(297.005896, 31.534077)"><g><path d="M 2.765625 -9.515625 L 2.796875 -8.453125 C 3.492188 -9.273438 4.4375 -9.6875 5.625 -9.6875 C 6.957031 -9.6875 7.863281 -9.175781 8.34375 -8.15625 C 8.65625 -8.613281 9.066406 -8.984375 9.578125 -9.265625 C 10.085938 -9.546875 10.6875 -9.6875 11.375 -9.6875 C 13.457031 -9.6875 14.519531 -8.582031 14.5625 -6.375 L 14.5625 0 L 12.921875 0 L 12.921875 -6.28125 C 12.921875 -6.957031 12.765625 -7.460938 12.453125 -7.796875 C 12.148438 -8.140625 11.632812 -8.3125 10.90625 -8.3125 C 10.300781 -8.3125 9.796875 -8.128906 9.390625 -7.765625 C 8.992188 -7.398438 8.765625 -6.914062 8.703125 -6.3125 L 8.703125 0 L 7.0625 0 L 7.0625 -6.234375 C 7.0625 -7.617188 6.382812 -8.3125 5.03125 -8.3125 C 3.96875 -8.3125 3.238281 -7.851562 2.84375 -6.9375 L 2.84375 0 L 1.21875 0 L 1.21875 -9.515625 Z M 2.765625 -9.515625 "/></g></g></g><g fill="#17191a" fill-opacity="1"><g transform="translate(312.778318, 31.534077)"><g><path d="M 7.109375 0 C 7.015625 -0.1875 6.9375 -0.519531 6.875 -1 C 6.113281 -0.21875 5.210938 0.171875 4.171875 0.171875 C 3.234375 0.171875 2.460938 -0.09375 1.859375 -0.625 C 1.253906 -1.15625 0.953125 -1.828125 0.953125 -2.640625 C 0.953125 -3.628906 1.328125 -4.394531 2.078125 -4.9375 C 2.835938 -5.488281 3.898438 -5.765625 5.265625 -5.765625 L 6.84375 -5.765625 L 6.84375 -6.515625 C 6.84375 -7.078125 6.671875 -7.523438 6.328125 -7.859375 C 5.992188 -8.203125 5.492188 -8.375 4.828125 -8.375 C 4.253906 -8.375 3.769531 -8.226562 3.375 -7.9375 C 2.976562 -7.644531 2.78125 -7.289062 2.78125 -6.875 L 1.15625 -6.875 C 1.15625 -7.34375 1.320312 -7.796875 1.65625 -8.234375 C 1.988281 -8.679688 2.441406 -9.035156 3.015625 -9.296875 C 3.597656 -9.554688 4.238281 -9.6875 4.9375 -9.6875 C 6.03125 -9.6875 6.882812 -9.410156 7.5 -8.859375 C 8.125 -8.316406 8.445312 -7.5625 8.46875 -6.59375 L 8.46875 -2.21875 C 8.46875 -1.351562 8.582031 -0.660156 8.8125 -0.140625 L 8.8125 0 Z M 4.40625 -1.234375 C 4.914062 -1.234375 5.398438 -1.363281 5.859375 -1.625 C 6.316406 -1.894531 6.644531 -2.238281 6.84375 -2.65625 L 6.84375 -4.609375 L 5.578125 -4.609375 C 3.578125 -4.609375 2.578125 -4.023438 2.578125 -2.859375 C 2.578125 -2.347656 2.75 -1.945312 3.09375 -1.65625 C 3.4375 -1.375 3.875 -1.234375 4.40625 -1.234375 Z M 4.40625 -1.234375 "/></g></g></g><g fill="#17191a" fill-opacity="1"><g transform="translate(322.566893, 31.534077)"><g><path d="M 3 0 L 1.375 0 L 1.375 -13.5 L 3 -13.5 Z M 3 0 "/></g></g></g><g fill="#17191a" fill-opacity="1"><g transform="translate(326.933956, 31.534077)"><g><path d="M 5.171875 0.171875 C 3.890625 0.171875 2.84375 -0.25 2.03125 -1.09375 C 1.21875 -1.9375 0.8125 -3.066406 0.8125 -4.484375 L 0.8125 -4.796875 C 0.8125 -5.734375 0.992188 -6.570312 1.359375 -7.3125 C 1.722656 -8.050781 2.226562 -8.628906 2.875 -9.046875 C 3.519531 -9.472656 4.21875 -9.6875 4.96875 -9.6875 C 6.207031 -9.6875 7.171875 -9.28125 7.859375 -8.46875 C 8.546875 -7.65625 8.890625 -6.488281 8.890625 -4.96875 L 8.890625 -4.296875 L 2.4375 -4.296875 C 2.46875 -3.359375 2.742188 -2.597656 3.265625 -2.015625 C 3.785156 -1.441406 4.453125 -1.15625 5.265625 -1.15625 C 5.835938 -1.15625 6.320312 -1.269531 6.71875 -1.5 C 7.125 -1.738281 7.472656 -2.050781 7.765625 -2.4375 L 8.765625 -1.65625 C 7.960938 -0.4375 6.765625 0.171875 5.171875 0.171875 Z M 4.96875 -8.34375 C 4.3125 -8.34375 3.757812 -8.101562 3.3125 -7.625 C 2.875 -7.15625 2.601562 -6.488281 2.5 -5.625 L 7.265625 -5.625 L 7.265625 -5.75 C 7.210938 -6.570312 6.988281 -7.207031 6.59375 -7.65625 C 6.195312 -8.113281 5.65625 -8.34375 4.96875 -8.34375 Z M 4.96875 -8.34375 "/></g></g></g><g fill="#17191a" fill-opacity="1"><g transform="translate(336.467725, 31.534077)"><g><path d="M 1.171875 -0.859375 C 1.171875 -1.140625 1.253906 -1.375 1.421875 -1.5625 C 1.585938 -1.75 1.835938 -1.84375 2.171875 -1.84375 C 2.503906 -1.84375 2.753906 -1.75 2.921875 -1.5625 C 3.097656 -1.375 3.1875 -1.140625 3.1875 -0.859375 C 3.1875 -0.585938 3.097656 -0.359375 2.921875 -0.171875 C 2.753906 0.00390625 2.503906 0.09375 2.171875 0.09375 C 1.835938 0.09375 1.585938 0.00390625 1.421875 -0.171875 C 1.253906 -0.359375 1.171875 -0.585938 1.171875 -0.859375 Z M 1.1875 -8.625 C 1.1875 -8.90625 1.269531 -9.140625 1.4375 -9.328125 C 1.601562 -9.515625 1.851562 -9.609375 2.1875 -9.609375 C 2.519531 -9.609375 2.769531 -9.515625 2.9375 -9.328125 C 3.113281 -9.140625 3.203125 -8.90625 3.203125 -8.625 C 3.203125 -8.351562 3.113281 -8.125 2.9375 -7.9375 C 2.769531 -7.757812 2.519531 -7.671875 2.1875 -7.671875 C 1.851562 -7.671875 1.601562 -7.757812 1.4375 -7.9375 C 1.269531 -8.125 1.1875 -8.351562 1.1875 -8.625 Z M 1.1875 -8.625 "/></g></g></g><g fill="#17191a" fill-opacity="1"><g transform="translate(19.45495, 56.53508)"><g/></g></g><g fill="#17191a" fill-opacity="1"><g transform="translate(23.909894, 56.53508)"><g/></g></g><g fill="#17191a" fill-opacity="1"><g transform="translate(28.364838, 56.53508)"><g/></g></g><g fill="#17191a" fill-opacity="1"><g transform="translate(32.819782, 56.53508)"><g/></g></g><g fill="#17191a" fill-opacity="1"><g transform="translate(37.274726, 56.53508)"><g/></g></g><g fill="#17191a" fill-opacity="1"><g transform="translate(41.729671, 56.53508)"><g/></g></g><g fill="#17191a" fill-opacity="1"><g transform="translate(46.184615, 56.53508)"><g/></g></g><g fill="#17191a" fill-opacity="1"><g transform="translate(50.639559, 56.53508)"><g/></g></g><g fill="#17191a" fill-opacity="1"><g transform="translate(55.094503, 56.53508)"><g/></g></g><g fill="#17191a" fill-opacity="1"><g transform="translate(59.549447, 56.53508)"><g/></g></g><g fill="#17191a" fill-opacity="1"><g transform="translate(64.004391, 56.53508)"><g/></g></g><g fill="#17191a" fill-opacity="1"><g transform="translate(68.459335, 56.53508)"><g/></g></g><g fill="#17191a" fill-opacity="1"><g transform="translate(72.914279, 56.53508)"><g/></g></g><g fill="#17191a" fill-opacity="1"><g transform="translate(77.369223, 56.53508)"><g/></g></g><g fill="#17191a" fill-opacity="1"><g transform="translate(81.824167, 56.53508)"><g/></g></g><g fill="#17191a" fill-opacity="1"><g transform="translate(86.279111, 56.53508)"><g/></g></g><g fill="#17191a" fill-opacity="1"><g transform="translate(90.734055, 56.53508)"><g/></g></g><g fill="#17191a" fill-opacity="1"><g transform="translate(95.188999, 56.53508)"><g/></g></g><g fill="#17191a" fill-opacity="1"><g transform="translate(99.643943, 56.53508)"><g/></g></g><g fill="#17191a" fill-opacity="1"><g transform="translate(104.098887, 56.53508)"><g/></g></g><g fill="#17191a" fill-opacity="1"><g transform="translate(108.553831, 56.53508)"><g/></g></g><g fill="#17191a" fill-opacity="1"><g transform="translate(113.005242, 56.53508)"><g><path d="M 1.265625 -0.859375 C 1.265625 -1.140625 1.347656 -1.375 1.515625 -1.5625 C 1.679688 -1.75 1.929688 -1.84375 2.265625 -1.84375 C 2.597656 -1.84375 2.847656 -1.75 3.015625 -1.5625 C 3.191406 -1.375 3.28125 -1.140625 3.28125 -0.859375 C 3.28125 -0.585938 3.191406 -0.359375 3.015625 -0.171875 C 2.847656 0.00390625 2.597656 0.09375 2.265625 0.09375 C 1.929688 0.09375 1.679688 0.00390625 1.515625 -0.171875 C 1.347656 -0.359375 1.265625 -0.585938 1.265625 -0.859375 Z M 1.265625 -0.859375 "/></g></g></g><g fill="#17191a" fill-opacity="1"><g transform="translate(117.738503, 56.53508)"><g/></g></g><g fill="#17191a" fill-opacity="1"><g transform="translate(122.193447, 56.53508)"><g/></g></g><g fill="#17191a" fill-opacity="1"><g transform="translate(126.648391, 56.53508)"><g/></g></g><g fill="#17191a" fill-opacity="1"><g transform="translate(131.103335, 56.53508)"><g/></g></g><g fill="#17191a" fill-opacity="1"><g transform="translate(135.558279, 56.53508)"><g/></g></g><g fill="#17191a" fill-opacity="1"><g transform="translate(140.013223, 56.53508)"><g/></g></g><g fill="#17191a" fill-opacity="1"><g transform="translate(144.468167, 56.53508)"><g/></g></g><g fill="#17191a" fill-opacity="1"><g transform="translate(148.923111, 56.53508)"><g/></g></g><g fill="#17191a" fill-opacity="1"><g transform="translate(153.378055, 56.53508)"><g/></g></g><g fill="#17191a" fill-opacity="1"><g transform="translate(157.832999, 56.53508)"><g/></g></g><g fill="#17191a" fill-opacity="1"><g transform="translate(162.287943, 56.53508)"><g/></g></g><g fill="#17191a" fill-opacity="1"><g transform="translate(166.742887, 56.53508)"><g/></g></g><g fill="#17191a" fill-opacity="1"><g transform="translate(171.197831, 56.53508)"><g/></g></g><g fill="#17191a" fill-opacity="1"><g transform="translate(175.652775, 56.53508)"><g/></g></g><g fill="#17191a" fill-opacity="1"><g transform="translate(180.107719, 56.53508)"><g/></g></g><g fill="#17191a" fill-opacity="1"><g transform="translate(184.562663, 56.53508)"><g/></g></g><g fill="#17191a" fill-opacity="1"><g transform="translate(189.017607, 56.53508)"><g/></g></g><g fill="#17191a" fill-opacity="1"><g transform="translate(193.472551, 56.53508)"><g/></g></g><g fill="#17191a" fill-opacity="1"><g transform="translate(197.927495, 56.53508)"><g/></g></g><g fill="#17191a" fill-opacity="1"><g transform="translate(202.382439, 56.53508)"><g/></g></g><g fill="#17191a" fill-opacity="1"><g transform="translate(206.837384, 56.53508)"><g/></g></g><g fill="#17191a" fill-opacity="1"><g transform="translate(211.292328, 56.53508)"><g/></g></g><g fill="#17191a" fill-opacity="1"><g transform="translate(215.747272, 56.53508)"><g/></g></g><g fill="#17191a" fill-opacity="1"><g transform="translate(220.202216, 56.53508)"><g/></g></g><g fill="#17191a" fill-opacity="1"><g transform="translate(224.65716, 56.53508)"><g/></g></g><g fill="#17191a" fill-opacity="1"><g transform="translate(229.112104, 56.53508)"><g/></g></g><g fill="#17191a" fill-opacity="1"><g transform="translate(233.567048, 56.53508)"><g/></g></g><g fill="#17191a" fill-opacity="1"><g transform="translate(238.021992, 56.53508)"><g/></g></g><g fill="#17191a" fill-opacity="1"><g transform="translate(242.476936, 56.53508)"><g/></g></g><g fill="#17191a" fill-opacity="1"><g transform="translate(246.93188, 56.53508)"><g/></g></g><g fill="#17191a" fill-opacity="1"><g transform="translate(251.386824, 56.53508)"><g/></g></g><g fill="#17191a" fill-opacity="1"><g transform="translate(255.841768, 56.53508)"><g/></g></g><g fill="#17191a" fill-opacity="1"><g transform="translate(260.296712, 56.53508)"><g/></g></g><g fill="#17191a" fill-opacity="1"><g transform="translate(264.751656, 56.53508)"><g/></g></g><g fill="#17191a" fill-opacity="1"><g transform="translate(269.2066, 56.53508)"><g/></g></g><g fill="#17191a" fill-opacity="1"><g transform="translate(273.661544, 56.53508)"><g/></g></g><g fill="#17191a" fill-opacity="1"><g transform="translate(278.116488, 56.53508)"><g/></g></g><g fill="#17191a" fill-opacity="1"><g transform="translate(282.571432, 56.53508)"><g/></g></g><g fill="#17191a" fill-opacity="1"><g transform="translate(287.026376, 56.53508)"><g/></g></g><g fill="#17191a" fill-opacity="1"><g transform="translate(291.48132, 56.53508)"><g/></g></g><g fill="#17191a" fill-opacity="1"><g transform="translate(295.936264, 56.53508)"><g/></g></g><g fill="#17191a" fill-opacity="1"><g transform="translate(300.391208, 56.53508)"><g/></g></g><g fill="#17191a" fill-opacity="1"><g transform="translate(304.846152, 56.53508)"><g/></g></g><g fill="#17191a" fill-opacity="1"><g transform="translate(309.301097, 56.53508)"><g/></g></g><g fill="#17191a" fill-opacity="1"><g transform="translate(313.756041, 56.53508)"><g/></g></g><g fill="#17191a" fill-opacity="1"><g transform="translate(318.210985, 56.53508)"><g/></g></g><g fill="#17191a" fill-opacity="1"><g transform="translate(322.665929, 56.53508)"><g/></g></g><g fill="#17191a" fill-opacity="1"><g transform="translate(327.120873, 56.53508)"><g/></g></g><g fill="#17191a" fill-opacity="1"><g transform="translate(331.575817, 56.53508)"><g/></g></g><g fill="#17191a" fill-opacity="1"><g transform="translate(336.030748, 56.53508)"><g/></g></g><g fill="#17191a" fill-opacity="1"><g transform="translate(340.485679, 56.53508)"><g/></g></g><g fill="#17191a" fill-opacity="1"><g transform="translate(344.940611, 56.53508)"><g/></g></g><g fill="#17191a" fill-opacity="1"><g transform="translate(349.395542, 56.53508)"><g/></g></g><path fill="#000000" d="M 44.515625 48.738281 L 44.183594 48.738281 C 44.136719 48.992188 44.015625 49.824219 43.863281 50.0625 C 43.757812 50.199219 42.886719 50.199219 42.433594 50.199219 L 39.617188 50.199219 C 40.027344 49.851562 40.957031 48.886719 41.351562 48.527344 C 43.664062 46.417969 44.515625 45.632812 44.515625 44.140625 C 44.515625 42.410156 43.132812 41.25 41.367188 41.25 C 39.601562 41.25 38.566406 42.742188 38.566406 44.035156 C 38.566406 44.804688 39.234375 44.804688 39.28125 44.804688 C 39.601562 44.804688 39.996094 44.578125 39.996094 44.097656 C 39.996094 43.675781 39.707031 43.386719 39.28125 43.386719 C 39.144531 43.386719 39.113281 43.386719 39.066406 43.402344 C 39.355469 42.378906 40.179688 41.683594 41.167969 41.683594 C 42.460938 41.683594 43.253906 42.753906 43.253906 44.140625 C 43.253906 45.421875 42.507812 46.539062 41.640625 47.503906 L 38.566406 50.90625 L 38.566406 51.269531 L 44.121094 51.269531 Z M 44.515625 48.738281 " fill-opacity="1" fill-rule="nonzero"/><g clip-path="url(#4ee1e3bc43)"><path fill="#000000" d="M 51.195312 51.6875 L 48.515625 45.828125 C 48.40625 45.585938 48.332031 45.585938 48.285156 45.585938 C 48.269531 45.585938 48.195312 45.585938 48.027344 45.707031 L 46.582031 46.792969 C 46.382812 46.941406 46.382812 46.988281 46.382812 47.03125 C 46.382812 47.109375 46.429688 47.199219 46.535156 47.199219 C 46.625 47.199219 46.886719 46.988281 47.054688 46.867188 C 47.144531 46.792969 47.371094 46.625 47.539062 46.503906 L 50.539062 53.03125 C 50.644531 53.269531 50.722656 53.269531 50.859375 53.269531 C 51.085938 53.269531 51.132812 53.179688 51.238281 52.96875 L 58.152344 38.804688 C 58.257812 38.59375 58.257812 38.535156 58.257812 38.503906 C 58.257812 38.351562 58.136719 38.203125 57.953125 38.203125 C 57.832031 38.203125 57.722656 38.277344 57.601562 38.519531 Z M 51.195312 51.6875 " fill-opacity="1" fill-rule="nonzero"/></g><g clip-path="url(#a186386e36)"><path fill="#000000" d="M 57.957031 38.199219 L 72.863281 38.199219 L 72.863281 38.804688 L 57.957031 38.804688 Z M 57.957031 38.199219 " fill-opacity="1" fill-rule="nonzero"/></g><path fill="#000000" d="M 60.757812 45.859375 C 60.5 45.875 60.4375 45.890625 60.4375 46.023438 C 60.4375 46.175781 60.515625 46.175781 60.789062 46.175781 L 61.488281 46.175781 C 62.78125 46.175781 63.359375 47.230469 63.359375 48.675781 C 63.359375 50.652344 62.324219 51.179688 61.578125 51.179688 C 60.847656 51.179688 59.601562 50.832031 59.160156 49.835938 C 59.648438 49.914062 60.089844 49.640625 60.089844 49.097656 C 60.089844 48.664062 59.769531 48.359375 59.34375 48.359375 C 58.976562 48.359375 58.582031 48.570312 58.582031 49.144531 C 58.582031 50.484375 59.9375 51.585938 61.625 51.585938 C 63.4375 51.585938 64.777344 50.214844 64.777344 48.691406 C 64.777344 47.304688 63.648438 46.222656 62.1875 45.964844 C 63.511719 45.589844 64.367188 44.488281 64.367188 43.3125 C 64.367188 42.121094 63.117188 41.25 61.640625 41.25 C 60.117188 41.25 58.992188 42.167969 58.992188 43.269531 C 58.992188 43.871094 59.464844 43.992188 59.691406 43.992188 C 60.011719 43.992188 60.378906 43.765625 60.378906 43.3125 C 60.378906 42.832031 60.011719 42.621094 59.675781 42.621094 C 59.585938 42.621094 59.554688 42.621094 59.507812 42.632812 C 60.089844 41.609375 61.519531 41.609375 61.59375 41.609375 C 62.097656 41.609375 63.085938 41.835938 63.085938 43.3125 C 63.085938 43.597656 63.042969 44.441406 62.601562 45.089844 C 62.144531 45.753906 61.625 45.800781 61.214844 45.8125 Z M 60.757812 45.859375 " fill-opacity="1" fill-rule="nonzero"/><path fill="#000000" d="M 69.792969 41.609375 C 69.792969 41.261719 69.792969 41.25 69.488281 41.25 C 69.125 41.65625 68.363281 42.210938 66.796875 42.210938 L 66.796875 42.648438 C 67.144531 42.648438 67.90625 42.648438 68.742188 42.257812 L 68.742188 50.109375 C 68.742188 50.652344 68.699219 50.832031 67.359375 50.832031 L 66.886719 50.832031 L 66.886719 51.269531 C 67.296875 51.238281 68.773438 51.238281 69.277344 51.238281 C 69.777344 51.238281 71.238281 51.238281 71.652344 51.269531 L 71.652344 50.832031 L 71.179688 50.832031 C 69.839844 50.832031 69.792969 50.652344 69.792969 50.109375 Z M 69.792969 41.609375 " fill-opacity="1" fill-rule="nonzero"/><path fill="#000000" d="M 82.320312 47.789062 L 86.519531 47.789062 C 86.734375 47.789062 87.007812 47.789062 87.007812 47.515625 C 87.007812 47.230469 86.75 47.230469 86.519531 47.230469 L 82.320312 47.230469 L 82.320312 43.070312 C 82.320312 42.859375 82.320312 42.589844 82.046875 42.589844 C 81.757812 42.589844 81.757812 42.847656 81.757812 43.070312 L 81.757812 47.230469 L 77.554688 47.230469 C 77.34375 47.230469 77.066406 47.230469 77.066406 47.503906 C 77.066406 47.789062 77.328125 47.789062 77.554688 47.789062 L 81.757812 47.789062 L 81.757812 51.949219 C 81.757812 52.160156 81.757812 52.429688 82.03125 52.429688 C 82.320312 52.429688 82.320312 52.171875 82.320312 51.949219 Z M 82.320312 47.789062 " fill-opacity="1" fill-rule="nonzero"/><path fill="#000000" d="M 95.605469 41.609375 C 95.605469 41.261719 95.605469 41.25 95.300781 41.25 C 94.9375 41.65625 94.175781 42.210938 92.605469 42.210938 L 92.605469 42.648438 C 92.957031 42.648438 93.71875 42.648438 94.554688 42.257812 L 94.554688 50.109375 C 94.554688 50.652344 94.507812 50.832031 93.171875 50.832031 L 92.699219 50.832031 L 92.699219 51.269531 C 93.109375 51.238281 94.585938 51.238281 95.089844 51.238281 C 95.589844 51.238281 97.050781 51.238281 97.464844 51.269531 L 97.464844 50.832031 L 96.992188 50.832031 C 95.652344 50.832031 95.605469 50.652344 95.605469 50.109375 Z M 95.605469 41.609375 " fill-opacity="1" fill-rule="nonzero"/><path fill="#000000" d="M 101.476562 50.546875 C 101.476562 50.109375 101.109375 49.808594 100.746094 49.808594 C 100.304688 49.808594 100 50.167969 100 50.53125 C 100 50.96875 100.363281 51.269531 100.730469 51.269531 C 101.171875 51.269531 101.476562 50.90625 101.476562 50.546875 Z M 101.476562 50.546875 " fill-opacity="1" fill-rule="nonzero"/><path fill="#000000" d="M 109.511719 48.738281 L 109.179688 48.738281 C 109.132812 48.992188 109.011719 49.824219 108.859375 50.0625 C 108.753906 50.199219 107.882812 50.199219 107.429688 50.199219 L 104.613281 50.199219 C 105.023438 49.851562 105.953125 48.886719 106.347656 48.527344 C 108.660156 46.417969 109.511719 45.632812 109.511719 44.140625 C 109.511719 42.410156 108.128906 41.25 106.363281 41.25 C 104.597656 41.25 103.5625 42.742188 103.5625 44.035156 C 103.5625 44.804688 104.230469 44.804688 104.277344 44.804688 C 104.597656 44.804688 104.992188 44.578125 104.992188 44.097656 C 104.992188 43.675781 104.703125 43.386719 104.277344 43.386719 C 104.140625 43.386719 104.109375 43.386719 104.0625 43.402344 C 104.351562 42.378906 105.175781 41.683594 106.164062 41.683594 C 107.457031 41.683594 108.25 42.753906 108.25 44.140625 C 108.25 45.421875 107.503906 46.539062 106.636719 47.503906 L 103.5625 50.90625 L 103.5625 51.269531 L 109.117188 51.269531 Z M 109.511719 48.738281 " fill-opacity="1" fill-rule="nonzero"/><g clip-path="url(#c96a47b1c4)"><path fill="#000000" d="M 37.820312 57.394531 L 110.269531 57.394531 L 110.269531 57.996094 L 37.820312 57.996094 Z M 37.820312 57.394531 " fill-opacity="1" fill-rule="nonzero"/></g><g clip-path="url(#d61d315b8f)"><path fill="#000000" d="M 60.457031 66.121094 L 62.175781 66.121094 C 61.765625 67.808594 61.507812 68.90625 61.507812 70.113281 C 61.507812 70.324219 61.507812 71.953125 62.128906 71.953125 C 62.449219 71.953125 62.722656 71.664062 62.722656 71.410156 C 62.722656 71.332031 62.722656 71.304688 62.617188 71.078125 C 62.207031 70.039062 62.207031 68.742188 62.207031 68.636719 C 62.207031 68.546875 62.207031 67.476562 62.527344 66.121094 L 64.230469 66.121094 C 64.429688 66.121094 64.929688 66.121094 64.929688 65.636719 C 64.929688 65.304688 64.640625 65.304688 64.367188 65.304688 L 59.359375 65.304688 C 59.007812 65.304688 58.492188 65.304688 57.792969 66.042969 C 57.394531 66.480469 56.910156 67.28125 56.910156 67.371094 C 56.910156 67.460938 56.984375 67.492188 57.078125 67.492188 C 57.183594 67.492188 57.199219 67.445312 57.273438 67.355469 C 58.066406 66.121094 58.855469 66.121094 59.238281 66.121094 L 60.105469 66.121094 C 59.769531 67.25 59.390625 68.5625 58.140625 71.199219 C 58.019531 71.4375 58.019531 71.46875 58.019531 71.558594 C 58.019531 71.875 58.292969 71.953125 58.429688 71.953125 C 58.871094 71.953125 58.996094 71.558594 59.175781 70.925781 C 59.421875 70.160156 59.421875 70.128906 59.574219 69.523438 Z M 60.457031 66.121094 " fill-opacity="1" fill-rule="nonzero"/></g><path fill="#000000" d="M 78.929688 68.335938 C 79.1875 68.335938 79.460938 68.335938 79.460938 68.035156 C 79.460938 67.730469 79.1875 67.730469 78.929688 67.730469 L 70.695312 67.730469 C 70.433594 67.730469 70.160156 67.730469 70.160156 68.035156 C 70.160156 68.335938 70.433594 68.335938 70.695312 68.335938 Z M 78.929688 68.335938 " fill-opacity="1" fill-rule="nonzero"/><g clip-path="url(#16aab18134)"><path fill="#000000" d="M 90.816406 69.269531 L 90.484375 69.269531 C 90.4375 69.523438 90.316406 70.355469 90.164062 70.59375 C 90.058594 70.730469 89.1875 70.730469 88.734375 70.730469 L 85.917969 70.730469 C 86.328125 70.382812 87.257812 69.417969 87.652344 69.058594 C 89.964844 66.949219 90.816406 66.164062 90.816406 64.671875 C 90.816406 62.941406 89.433594 61.78125 87.667969 61.78125 C 85.902344 61.78125 84.867188 63.273438 84.867188 64.566406 C 84.867188 65.335938 85.535156 65.335938 85.582031 65.335938 C 85.902344 65.335938 86.296875 65.109375 86.296875 64.628906 C 86.296875 64.207031 86.007812 63.917969 85.582031 63.917969 C 85.445312 63.917969 85.414062 63.917969 85.367188 63.933594 C 85.65625 62.910156 86.480469 62.21875 87.46875 62.21875 C 88.761719 62.21875 89.554688 63.285156 89.554688 64.671875 C 89.554688 65.953125 88.808594 67.070312 87.941406 68.035156 L 84.867188 71.4375 L 84.867188 71.800781 L 90.421875 71.800781 Z M 90.816406 69.269531 " fill-opacity="1" fill-rule="nonzero"/></g></svg>