<svg xmlns="http://www.w3.org/2000/svg" xmlns:xlink="http://www.w3.org/1999/xlink" width="500" zoomAndPan="magnify" viewBox="0 0 375 74.999997" height="100" preserveAspectRatio="xMidYMid meet" version="1.0"><defs><g/></defs><g fill="#17191a" fill-opacity="1"><g transform="translate(15.000006, 31.534081)"><g><path d="M 3.421875 -7.1875 L 4.65625 -7.1875 C 5.414062 -7.195312 6.015625 -7.398438 6.453125 -7.796875 C 6.898438 -8.191406 7.125 -8.722656 7.125 -9.390625 C 7.125 -10.890625 6.375 -11.640625 4.875 -11.640625 C 4.175781 -11.640625 3.613281 -11.4375 3.1875 -11.03125 C 2.769531 -10.632812 2.5625 -10.101562 2.5625 -9.4375 L 0.9375 -9.4375 C 0.9375 -10.445312 1.304688 -11.285156 2.046875 -11.953125 C 2.796875 -12.628906 3.738281 -12.96875 4.875 -12.96875 C 6.082031 -12.96875 7.03125 -12.648438 7.71875 -12.015625 C 8.40625 -11.378906 8.75 -10.492188 8.75 -9.359375 C 8.75 -8.796875 8.566406 -8.253906 8.203125 -7.734375 C 7.847656 -7.210938 7.359375 -6.820312 6.734375 -6.5625 C 7.429688 -6.34375 7.972656 -5.972656 8.359375 -5.453125 C 8.742188 -4.941406 8.9375 -4.3125 8.9375 -3.5625 C 8.9375 -2.414062 8.5625 -1.503906 7.8125 -0.828125 C 7.0625 -0.160156 6.082031 0.171875 4.875 0.171875 C 3.675781 0.171875 2.703125 -0.148438 1.953125 -0.796875 C 1.203125 -1.453125 0.828125 -2.3125 0.828125 -3.375 L 2.46875 -3.375 C 2.46875 -2.695312 2.6875 -2.15625 3.125 -1.75 C 3.5625 -1.351562 4.148438 -1.15625 4.890625 -1.15625 C 5.671875 -1.15625 6.269531 -1.359375 6.6875 -1.765625 C 7.101562 -2.171875 7.3125 -2.757812 7.3125 -3.53125 C 7.3125 -4.28125 7.082031 -4.851562 6.625 -5.25 C 6.164062 -5.644531 5.507812 -5.847656 4.65625 -5.859375 L 3.421875 -5.859375 Z M 3.421875 -7.1875 "/></g></g></g><g fill="#17191a" fill-opacity="1"><g transform="translate(25.104909, 31.534081)"><g><path d="M 4.984375 -5.109375 C 4.984375 -3.796875 4.8125 -2.539062 4.46875 -1.34375 C 4.125 -0.144531 3.597656 0.957031 2.890625 1.96875 C 2.191406 2.976562 1.453125 3.695312 0.671875 4.125 L 0.328125 3.140625 C 1.234375 2.441406 1.957031 1.367188 2.5 -0.078125 C 3.050781 -1.535156 3.332031 -3.15625 3.34375 -4.9375 L 3.34375 -5.21875 C 3.34375 -6.445312 3.210938 -7.585938 2.953125 -8.640625 C 2.703125 -9.703125 2.347656 -10.648438 1.890625 -11.484375 C 1.429688 -12.328125 0.910156 -12.984375 0.328125 -13.453125 L 0.671875 -14.4375 C 1.453125 -14.007812 2.191406 -13.296875 2.890625 -12.296875 C 3.585938 -11.296875 4.109375 -10.191406 4.453125 -8.984375 C 4.804688 -7.773438 4.984375 -6.484375 4.984375 -5.109375 Z M 4.984375 -5.109375 "/></g></g></g><g fill="#17191a" fill-opacity="1"><g transform="translate(31.361161, 31.534081)"><g/></g></g><g fill="#17191a" fill-opacity="1"><g transform="translate(35.816106, 31.534081)"><g><path d="M 3.1875 -1.375 L 9.25 -1.375 L 9.25 0 L 1.484375 0 L 1.484375 -12.796875 L 3.1875 -12.796875 Z M 3.1875 -1.375 "/></g></g></g><g fill="#17191a" fill-opacity="1"><g transform="translate(45.499238, 31.534081)"><g><path d="M 7.109375 0 C 7.015625 -0.1875 6.9375 -0.519531 6.875 -1 C 6.113281 -0.21875 5.210938 0.171875 4.171875 0.171875 C 3.234375 0.171875 2.460938 -0.09375 1.859375 -0.625 C 1.253906 -1.15625 0.953125 -1.828125 0.953125 -2.640625 C 0.953125 -3.628906 1.328125 -4.394531 2.078125 -4.9375 C 2.835938 -5.488281 3.898438 -5.765625 5.265625 -5.765625 L 6.84375 -5.765625 L 6.84375 -6.515625 C 6.84375 -7.078125 6.671875 -7.523438 6.328125 -7.859375 C 5.992188 -8.203125 5.492188 -8.375 4.828125 -8.375 C 4.253906 -8.375 3.769531 -8.226562 3.375 -7.9375 C 2.976562 -7.644531 2.78125 -7.289062 2.78125 -6.875 L 1.15625 -6.875 C 1.15625 -7.34375 1.320312 -7.796875 1.65625 -8.234375 C 1.988281 -8.679688 2.441406 -9.035156 3.015625 -9.296875 C 3.597656 -9.554688 4.238281 -9.6875 4.9375 -9.6875 C 6.03125 -9.6875 6.882812 -9.410156 7.5 -8.859375 C 8.125 -8.316406 8.445312 -7.5625 8.46875 -6.59375 L 8.46875 -2.21875 C 8.46875 -1.351562 8.582031 -0.660156 8.8125 -0.140625 L 8.8125 0 Z M 4.40625 -1.234375 C 4.914062 -1.234375 5.398438 -1.363281 5.859375 -1.625 C 6.316406 -1.894531 6.644531 -2.238281 6.84375 -2.65625 L 6.84375 -4.609375 L 5.578125 -4.609375 C 3.578125 -4.609375 2.578125 -4.023438 2.578125 -2.859375 C 2.578125 -2.347656 2.75 -1.945312 3.09375 -1.65625 C 3.4375 -1.375 3.875 -1.234375 4.40625 -1.234375 Z M 4.40625 -1.234375 "/></g></g></g><g fill="#17191a" fill-opacity="1"><g transform="translate(55.287813, 31.534081)"><g><path d="M 9.265625 -4.65625 C 9.265625 -3.207031 8.929688 -2.039062 8.265625 -1.15625 C 7.609375 -0.269531 6.710938 0.171875 5.578125 0.171875 C 4.421875 0.171875 3.515625 -0.191406 2.859375 -0.921875 L 2.859375 3.65625 L 1.234375 3.65625 L 1.234375 -9.515625 L 2.71875 -9.515625 L 2.796875 -8.453125 C 3.453125 -9.273438 4.375 -9.6875 5.5625 -9.6875 C 6.695312 -9.6875 7.597656 -9.253906 8.265625 -8.390625 C 8.929688 -7.535156 9.265625 -6.335938 9.265625 -4.796875 Z M 7.640625 -4.828125 C 7.640625 -5.898438 7.410156 -6.75 6.953125 -7.375 C 6.492188 -8 5.867188 -8.3125 5.078125 -8.3125 C 4.085938 -8.3125 3.347656 -7.875 2.859375 -7 L 2.859375 -2.453125 C 3.347656 -1.585938 4.09375 -1.15625 5.09375 -1.15625 C 5.875 -1.15625 6.492188 -1.460938 6.953125 -2.078125 C 7.410156 -2.691406 7.640625 -3.609375 7.640625 -4.828125 Z M 7.640625 -4.828125 "/></g></g></g><g fill="#17191a" fill-opacity="1"><g transform="translate(65.383929, 31.534081)"><g><path d="M 3.4375 -11.8125 L 3.4375 -9.515625 L 5.21875 -9.515625 L 5.21875 -8.25 L 3.4375 -8.25 L 3.4375 -2.359375 C 3.4375 -1.972656 3.515625 -1.6875 3.671875 -1.5 C 3.828125 -1.3125 4.097656 -1.21875 4.484375 -1.21875 C 4.671875 -1.21875 4.925781 -1.25 5.25 -1.3125 L 5.25 0 C 4.820312 0.113281 4.410156 0.171875 4.015625 0.171875 C 3.285156 0.171875 2.734375 -0.046875 2.359375 -0.484375 C 1.992188 -0.921875 1.8125 -1.546875 1.8125 -2.359375 L 1.8125 -8.25 L 0.078125 -8.25 L 0.078125 -9.515625 L 1.8125 -9.515625 L 1.8125 -11.8125 Z M 3.4375 -11.8125 "/></g></g></g><g fill="#17191a" fill-opacity="1"><g transform="translate(71.262346, 31.534081)"><g><path d="M 0.796875 -4.84375 C 0.796875 -5.769531 0.976562 -6.601562 1.34375 -7.34375 C 1.71875 -8.09375 2.226562 -8.671875 2.875 -9.078125 C 3.53125 -9.484375 4.273438 -9.6875 5.109375 -9.6875 C 6.410156 -9.6875 7.457031 -9.238281 8.25 -8.34375 C 9.050781 -7.445312 9.453125 -6.253906 9.453125 -4.765625 L 9.453125 -4.65625 C 9.453125 -3.726562 9.273438 -2.894531 8.921875 -2.15625 C 8.566406 -1.425781 8.0625 -0.851562 7.40625 -0.4375 C 6.75 -0.03125 5.992188 0.171875 5.140625 0.171875 C 3.847656 0.171875 2.800781 -0.273438 2 -1.171875 C 1.195312 -2.066406 0.796875 -3.253906 0.796875 -4.734375 Z M 2.4375 -4.65625 C 2.4375 -3.59375 2.679688 -2.742188 3.171875 -2.109375 C 3.660156 -1.472656 4.316406 -1.15625 5.140625 -1.15625 C 5.960938 -1.15625 6.613281 -1.476562 7.09375 -2.125 C 7.582031 -2.769531 7.828125 -3.675781 7.828125 -4.84375 C 7.828125 -5.882812 7.578125 -6.726562 7.078125 -7.375 C 6.585938 -8.019531 5.929688 -8.34375 5.109375 -8.34375 C 4.304688 -8.34375 3.660156 -8.023438 3.171875 -7.390625 C 2.679688 -6.753906 2.4375 -5.84375 2.4375 -4.65625 Z M 2.4375 -4.65625 "/></g></g></g><g fill="#17191a" fill-opacity="1"><g transform="translate(81.525413, 31.534081)"><g><path d="M 9.265625 -4.65625 C 9.265625 -3.207031 8.929688 -2.039062 8.265625 -1.15625 C 7.609375 -0.269531 6.710938 0.171875 5.578125 0.171875 C 4.421875 0.171875 3.515625 -0.191406 2.859375 -0.921875 L 2.859375 3.65625 L 1.234375 3.65625 L 1.234375 -9.515625 L 2.71875 -9.515625 L 2.796875 -8.453125 C 3.453125 -9.273438 4.375 -9.6875 5.5625 -9.6875 C 6.695312 -9.6875 7.597656 -9.253906 8.265625 -8.390625 C 8.929688 -7.535156 9.265625 -6.335938 9.265625 -4.796875 Z M 7.640625 -4.828125 C 7.640625 -5.898438 7.410156 -6.75 6.953125 -7.375 C 6.492188 -8 5.867188 -8.3125 5.078125 -8.3125 C 4.085938 -8.3125 3.347656 -7.875 2.859375 -7 L 2.859375 -2.453125 C 3.347656 -1.585938 4.09375 -1.15625 5.09375 -1.15625 C 5.875 -1.15625 6.492188 -1.460938 6.953125 -2.078125 C 7.410156 -2.691406 7.640625 -3.609375 7.640625 -4.828125 Z M 7.640625 -4.828125 "/></g></g></g><g fill="#17191a" fill-opacity="1"><g transform="translate(91.621529, 31.534081)"><g/></g></g><g fill="#17191a" fill-opacity="1"><g transform="translate(96.076473, 31.534081)"><g><path d="M 2.90625 -9.515625 L 2.90625 1.09375 C 2.90625 2.925781 2.078125 3.84375 0.421875 3.84375 C 0.0664062 3.84375 -0.265625 3.789062 -0.578125 3.6875 L -0.578125 2.375 C -0.390625 2.425781 -0.140625 2.453125 0.171875 2.453125 C 0.535156 2.453125 0.8125 2.351562 1 2.15625 C 1.1875 1.957031 1.28125 1.617188 1.28125 1.140625 L 1.28125 -9.515625 Z M 1.109375 -12.03125 C 1.109375 -12.289062 1.1875 -12.507812 1.34375 -12.6875 C 1.507812 -12.875 1.75 -12.96875 2.0625 -12.96875 C 2.382812 -12.96875 2.625 -12.875 2.78125 -12.6875 C 2.945312 -12.507812 3.03125 -12.289062 3.03125 -12.03125 C 3.03125 -11.769531 2.945312 -11.550781 2.78125 -11.375 C 2.625 -11.195312 2.382812 -11.109375 2.0625 -11.109375 C 1.75 -11.109375 1.507812 -11.195312 1.34375 -11.375 C 1.1875 -11.550781 1.109375 -11.769531 1.109375 -12.03125 Z M 1.109375 -12.03125 "/></g></g></g><g fill="#17191a" fill-opacity="1"><g transform="translate(100.373253, 31.534081)"><g><path d="M 5.171875 0.171875 C 3.890625 0.171875 2.84375 -0.25 2.03125 -1.09375 C 1.21875 -1.9375 0.8125 -3.066406 0.8125 -4.484375 L 0.8125 -4.796875 C 0.8125 -5.734375 0.992188 -6.570312 1.359375 -7.3125 C 1.722656 -8.050781 2.226562 -8.628906 2.875 -9.046875 C 3.519531 -9.472656 4.21875 -9.6875 4.96875 -9.6875 C 6.207031 -9.6875 7.171875 -9.28125 7.859375 -8.46875 C 8.546875 -7.65625 8.890625 -6.488281 8.890625 -4.96875 L 8.890625 -4.296875 L 2.4375 -4.296875 C 2.46875 -3.359375 2.742188 -2.597656 3.265625 -2.015625 C 3.785156 -1.441406 4.453125 -1.15625 5.265625 -1.15625 C 5.835938 -1.15625 6.320312 -1.269531 6.71875 -1.5 C 7.125 -1.738281 7.472656 -2.050781 7.765625 -2.4375 L 8.765625 -1.65625 C 7.960938 -0.4375 6.765625 0.171875 5.171875 0.171875 Z M 4.96875 -8.34375 C 4.3125 -8.34375 3.757812 -8.101562 3.3125 -7.625 C 2.875 -7.15625 2.601562 -6.488281 2.5 -5.625 L 7.265625 -5.625 L 7.265625 -5.75 C 7.210938 -6.570312 6.988281 -7.207031 6.59375 -7.65625 C 6.195312 -8.113281 5.65625 -8.34375 4.96875 -8.34375 Z M 4.96875 -8.34375 "/></g></g></g><g fill="#17191a" fill-opacity="1"><g transform="translate(109.907009, 31.534081)"><g/></g></g><g fill="#17191a" fill-opacity="1"><g transform="translate(114.361953, 31.534081)"><g><path d="M 3.890625 -4.40625 L 2.859375 -3.34375 L 2.859375 0 L 1.234375 0 L 1.234375 -13.5 L 2.859375 -13.5 L 2.859375 -5.328125 L 3.734375 -6.375 L 6.703125 -9.515625 L 8.671875 -9.515625 L 4.96875 -5.53125 L 9.109375 0 L 7.203125 0 Z M 3.890625 -4.40625 "/></g></g></g><g fill="#17191a" fill-opacity="1"><g transform="translate(123.482726, 31.534081)"><g><path d="M 0.796875 -4.84375 C 0.796875 -5.769531 0.976562 -6.601562 1.34375 -7.34375 C 1.71875 -8.09375 2.226562 -8.671875 2.875 -9.078125 C 3.53125 -9.484375 4.273438 -9.6875 5.109375 -9.6875 C 6.410156 -9.6875 7.457031 -9.238281 8.25 -8.34375 C 9.050781 -7.445312 9.453125 -6.253906 9.453125 -4.765625 L 9.453125 -4.65625 C 9.453125 -3.726562 9.273438 -2.894531 8.921875 -2.15625 C 8.566406 -1.425781 8.0625 -0.851562 7.40625 -0.4375 C 6.75 -0.03125 5.992188 0.171875 5.140625 0.171875 C 3.847656 0.171875 2.800781 -0.273438 2 -1.171875 C 1.195312 -2.066406 0.796875 -3.253906 0.796875 -4.734375 Z M 2.4375 -4.65625 C 2.4375 -3.59375 2.679688 -2.742188 3.171875 -2.109375 C 3.660156 -1.472656 4.316406 -1.15625 5.140625 -1.15625 C 5.960938 -1.15625 6.613281 -1.476562 7.09375 -2.125 C 7.582031 -2.769531 7.828125 -3.675781 7.828125 -4.84375 C 7.828125 -5.882812 7.578125 -6.726562 7.078125 -7.375 C 6.585938 -8.019531 5.929688 -8.34375 5.109375 -8.34375 C 4.304688 -8.34375 3.660156 -8.023438 3.171875 -7.390625 C 2.679688 -6.753906 2.4375 -5.84375 2.4375 -4.65625 Z M 2.4375 -4.65625 "/></g></g></g><g fill="#17191a" fill-opacity="1"><g transform="translate(133.745792, 31.534081)"><g><path d="M 6.765625 -2.515625 C 6.765625 -2.960938 6.597656 -3.304688 6.265625 -3.546875 C 5.941406 -3.785156 5.367188 -3.992188 4.546875 -4.171875 C 3.722656 -4.347656 3.066406 -4.554688 2.578125 -4.796875 C 2.097656 -5.046875 1.738281 -5.34375 1.5 -5.6875 C 1.269531 -6.03125 1.15625 -6.4375 1.15625 -6.90625 C 1.15625 -7.675781 1.484375 -8.332031 2.140625 -8.875 C 2.804688 -9.414062 3.648438 -9.6875 4.671875 -9.6875 C 5.753906 -9.6875 6.628906 -9.40625 7.296875 -8.84375 C 7.972656 -8.289062 8.3125 -7.582031 8.3125 -6.71875 L 6.671875 -6.71875 C 6.671875 -7.164062 6.476562 -7.546875 6.09375 -7.859375 C 5.71875 -8.179688 5.242188 -8.34375 4.671875 -8.34375 C 4.078125 -8.34375 3.613281 -8.210938 3.28125 -7.953125 C 2.945312 -7.703125 2.78125 -7.367188 2.78125 -6.953125 C 2.78125 -6.554688 2.9375 -6.257812 3.25 -6.0625 C 3.5625 -5.863281 4.125 -5.671875 4.9375 -5.484375 C 5.75 -5.304688 6.40625 -5.09375 6.90625 -4.84375 C 7.414062 -4.59375 7.789062 -4.289062 8.03125 -3.9375 C 8.269531 -3.582031 8.390625 -3.148438 8.390625 -2.640625 C 8.390625 -1.785156 8.050781 -1.101562 7.375 -0.59375 C 6.695312 -0.0820312 5.816406 0.171875 4.734375 0.171875 C 3.972656 0.171875 3.296875 0.0351562 2.703125 -0.234375 C 2.117188 -0.503906 1.660156 -0.878906 1.328125 -1.359375 C 0.992188 -1.835938 0.828125 -2.359375 0.828125 -2.921875 L 2.46875 -2.921875 C 2.488281 -2.378906 2.703125 -1.945312 3.109375 -1.625 C 3.523438 -1.3125 4.066406 -1.15625 4.734375 -1.15625 C 5.347656 -1.15625 5.835938 -1.28125 6.203125 -1.53125 C 6.578125 -1.78125 6.765625 -2.109375 6.765625 -2.515625 Z M 4.9375 -12.015625 L 6.25 -13.5 L 7.65625 -13.5 L 7.65625 -13.421875 L 5.421875 -11.015625 L 4.4375 -11.015625 L 2.21875 -13.421875 L 2.21875 -13.5 L 3.609375 -13.5 Z M 4.9375 -12.015625 "/></g></g></g><g fill="#17191a" fill-opacity="1"><g transform="translate(143.024729, 31.534081)"><g><path d="M 3.4375 -11.8125 L 3.4375 -9.515625 L 5.21875 -9.515625 L 5.21875 -8.25 L 3.4375 -8.25 L 3.4375 -2.359375 C 3.4375 -1.972656 3.515625 -1.6875 3.671875 -1.5 C 3.828125 -1.3125 4.097656 -1.21875 4.484375 -1.21875 C 4.671875 -1.21875 4.925781 -1.25 5.25 -1.3125 L 5.25 0 C 4.820312 0.113281 4.410156 0.171875 4.015625 0.171875 C 3.285156 0.171875 2.734375 -0.046875 2.359375 -0.484375 C 1.992188 -0.921875 1.8125 -1.546875 1.8125 -2.359375 L 1.8125 -8.25 L 0.078125 -8.25 L 0.078125 -9.515625 L 1.8125 -9.515625 L 1.8125 -11.8125 Z M 3.4375 -11.8125 "/></g></g></g><g fill="#17191a" fill-opacity="1"><g transform="translate(148.903146, 31.534081)"><g><path d="M 7.109375 0 C 7.015625 -0.1875 6.9375 -0.519531 6.875 -1 C 6.113281 -0.21875 5.210938 0.171875 4.171875 0.171875 C 3.234375 0.171875 2.460938 -0.09375 1.859375 -0.625 C 1.253906 -1.15625 0.953125 -1.828125 0.953125 -2.640625 C 0.953125 -3.628906 1.328125 -4.394531 2.078125 -4.9375 C 2.835938 -5.488281 3.898438 -5.765625 5.265625 -5.765625 L 6.84375 -5.765625 L 6.84375 -6.515625 C 6.84375 -7.078125 6.671875 -7.523438 6.328125 -7.859375 C 5.992188 -8.203125 5.492188 -8.375 4.828125 -8.375 C 4.253906 -8.375 3.769531 -8.226562 3.375 -7.9375 C 2.976562 -7.644531 2.78125 -7.289062 2.78125 -6.875 L 1.15625 -6.875 C 1.15625 -7.34375 1.320312 -7.796875 1.65625 -8.234375 C 1.988281 -8.679688 2.441406 -9.035156 3.015625 -9.296875 C 3.597656 -9.554688 4.238281 -9.6875 4.9375 -9.6875 C 6.03125 -9.6875 6.882812 -9.410156 7.5 -8.859375 C 8.125 -8.316406 8.445312 -7.5625 8.46875 -6.59375 L 8.46875 -2.21875 C 8.46875 -1.351562 8.582031 -0.660156 8.8125 -0.140625 L 8.8125 0 Z M 4.40625 -1.234375 C 4.914062 -1.234375 5.398438 -1.363281 5.859375 -1.625 C 6.316406 -1.894531 6.644531 -2.238281 6.84375 -2.65625 L 6.84375 -4.609375 L 5.578125 -4.609375 C 3.578125 -4.609375 2.578125 -4.023438 2.578125 -2.859375 C 2.578125 -2.347656 2.75 -1.945312 3.09375 -1.65625 C 3.4375 -1.375 3.875 -1.234375 4.40625 -1.234375 Z M 4.40625 -1.234375 "/></g></g></g><g fill="#17191a" fill-opacity="1"><g transform="translate(158.691721, 31.534081)"><g><path d="M 0.796875 -4.84375 C 0.796875 -5.769531 0.976562 -6.601562 1.34375 -7.34375 C 1.71875 -8.09375 2.226562 -8.671875 2.875 -9.078125 C 3.53125 -9.484375 4.273438 -9.6875 5.109375 -9.6875 C 6.410156 -9.6875 7.457031 -9.238281 8.25 -8.34375 C 9.050781 -7.445312 9.453125 -6.253906 9.453125 -4.765625 L 9.453125 -4.65625 C 9.453125 -3.726562 9.273438 -2.894531 8.921875 -2.15625 C 8.566406 -1.425781 8.0625 -0.851562 7.40625 -0.4375 C 6.75 -0.03125 5.992188 0.171875 5.140625 0.171875 C 3.847656 0.171875 2.800781 -0.273438 2 -1.171875 C 1.195312 -2.066406 0.796875 -3.253906 0.796875 -4.734375 Z M 2.4375 -4.65625 C 2.4375 -3.59375 2.679688 -2.742188 3.171875 -2.109375 C 3.660156 -1.472656 4.316406 -1.15625 5.140625 -1.15625 C 5.960938 -1.15625 6.613281 -1.476562 7.09375 -2.125 C 7.582031 -2.769531 7.828125 -3.675781 7.828125 -4.84375 C 7.828125 -5.882812 7.578125 -6.726562 7.078125 -7.375 C 6.585938 -8.019531 5.929688 -8.34375 5.109375 -8.34375 C 4.304688 -8.34375 3.660156 -8.023438 3.171875 -7.390625 C 2.679688 -6.753906 2.4375 -5.84375 2.4375 -4.65625 Z M 2.4375 -4.65625 "/></g></g></g><g fill="#17191a" fill-opacity="1"><g transform="translate(168.954788, 31.534081)"><g/></g></g><g fill="#17191a" fill-opacity="1"><g transform="translate(173.409732, 31.534081)"><g><path d="M 9.453125 0 L 1.0625 0 L 1.0625 -1.171875 L 5.5 -6.09375 C 6.15625 -6.832031 6.601562 -7.4375 6.84375 -7.90625 C 7.09375 -8.375 7.21875 -8.859375 7.21875 -9.359375 C 7.21875 -10.023438 7.015625 -10.570312 6.609375 -11 C 6.210938 -11.425781 5.675781 -11.640625 5 -11.640625 C 4.1875 -11.640625 3.554688 -11.40625 3.109375 -10.9375 C 2.660156 -10.476562 2.4375 -9.84375 2.4375 -9.03125 L 0.8125 -9.03125 C 0.8125 -10.207031 1.191406 -11.15625 1.953125 -11.875 C 2.710938 -12.601562 3.726562 -12.96875 5 -12.96875 C 6.1875 -12.96875 7.125 -12.65625 7.8125 -12.03125 C 8.507812 -11.40625 8.859375 -10.578125 8.859375 -9.546875 C 8.859375 -8.285156 8.054688 -6.785156 6.453125 -5.046875 L 3.03125 -1.328125 L 9.453125 -1.328125 Z M 9.453125 0 "/></g></g></g><g fill="#17191a" fill-opacity="1"><g transform="translate(183.514634, 31.534081)"><g><path d="M 9.09375 -5.453125 C 9.09375 -3.554688 8.765625 -2.144531 8.109375 -1.21875 C 7.460938 -0.289062 6.445312 0.171875 5.0625 0.171875 C 3.695312 0.171875 2.6875 -0.28125 2.03125 -1.1875 C 1.375 -2.09375 1.035156 -3.441406 1.015625 -5.234375 L 1.015625 -7.40625 C 1.015625 -9.289062 1.335938 -10.6875 1.984375 -11.59375 C 2.640625 -12.507812 3.660156 -12.96875 5.046875 -12.96875 C 6.421875 -12.96875 7.429688 -12.523438 8.078125 -11.640625 C 8.734375 -10.765625 9.070312 -9.40625 9.09375 -7.5625 Z M 7.46875 -7.6875 C 7.46875 -9.0625 7.269531 -10.0625 6.875 -10.6875 C 6.488281 -11.320312 5.878906 -11.640625 5.046875 -11.640625 C 4.210938 -11.640625 3.601562 -11.320312 3.21875 -10.6875 C 2.84375 -10.0625 2.648438 -9.101562 2.640625 -7.8125 L 2.640625 -5.203125 C 2.640625 -3.816406 2.835938 -2.796875 3.234375 -2.140625 C 3.640625 -1.484375 4.25 -1.15625 5.0625 -1.15625 C 5.863281 -1.15625 6.457031 -1.460938 6.84375 -2.078125 C 7.238281 -2.703125 7.445312 -3.679688 7.46875 -5.015625 Z M 7.46875 -7.6875 "/></g></g></g><g fill="#17191a" fill-opacity="1"><g transform="translate(193.619536, 31.534081)"><g><path d="M 9.09375 -5.453125 C 9.09375 -3.554688 8.765625 -2.144531 8.109375 -1.21875 C 7.460938 -0.289062 6.445312 0.171875 5.0625 0.171875 C 3.695312 0.171875 2.6875 -0.28125 2.03125 -1.1875 C 1.375 -2.09375 1.035156 -3.441406 1.015625 -5.234375 L 1.015625 -7.40625 C 1.015625 -9.289062 1.335938 -10.6875 1.984375 -11.59375 C 2.640625 -12.507812 3.660156 -12.96875 5.046875 -12.96875 C 6.421875 -12.96875 7.429688 -12.523438 8.078125 -11.640625 C 8.734375 -10.765625 9.070312 -9.40625 9.09375 -7.5625 Z M 7.46875 -7.6875 C 7.46875 -9.0625 7.269531 -10.0625 6.875 -10.6875 C 6.488281 -11.320312 5.878906 -11.640625 5.046875 -11.640625 C 4.210938 -11.640625 3.601562 -11.320312 3.21875 -10.6875 C 2.84375 -10.0625 2.648438 -9.101562 2.640625 -7.8125 L 2.640625 -5.203125 C 2.640625 -3.816406 2.835938 -2.796875 3.234375 -2.140625 C 3.640625 -1.484375 4.25 -1.15625 5.0625 -1.15625 C 5.863281 -1.15625 6.457031 -1.460938 6.84375 -2.078125 C 7.238281 -2.703125 7.445312 -3.679688 7.46875 -5.015625 Z M 7.46875 -7.6875 "/></g></g></g><g fill="#17191a" fill-opacity="1"><g transform="translate(203.724439, 31.534081)"><g><path d="M 7.46875 -4.75 L 4.09375 -4.75 C 4.113281 -3.613281 4.382812 -2.738281 4.90625 -2.125 C 5.4375 -1.507812 6.1875 -1.203125 7.15625 -1.203125 C 7.832031 -1.203125 8.472656 -1.300781 9.078125 -1.5 L 9.25 -0.09375 C 8.539062 0.0820312 7.835938 0.171875 7.140625 0.171875 C 5.679688 0.171875 4.535156 -0.253906 3.703125 -1.109375 C 2.867188 -1.972656 2.4375 -3.1875 2.40625 -4.75 L 0.828125 -4.75 L 0.828125 -5.84375 L 2.40625 -5.84375 L 2.40625 -7.046875 L 0.828125 -7.046875 L 0.828125 -8.140625 L 2.40625 -8.140625 C 2.457031 -9.679688 2.898438 -10.867188 3.734375 -11.703125 C 4.578125 -12.546875 5.707031 -12.96875 7.125 -12.96875 C 7.75 -12.96875 8.457031 -12.878906 9.25 -12.703125 L 9.078125 -11.28125 C 8.429688 -11.476562 7.785156 -11.578125 7.140625 -11.578125 C 6.179688 -11.578125 5.441406 -11.28125 4.921875 -10.6875 C 4.410156 -10.09375 4.132812 -9.242188 4.09375 -8.140625 L 7.46875 -8.140625 L 7.46875 -7.046875 L 4.09375 -7.046875 L 4.09375 -5.84375 L 7.46875 -5.84375 Z M 7.46875 -4.75 "/></g></g></g><g fill="#17191a" fill-opacity="1"><g transform="translate(213.829341, 31.534081)"><g><path d="M 1.171875 2.546875 L 0.25 1.921875 C 0.800781 1.148438 1.085938 0.359375 1.109375 -0.453125 L 1.109375 -1.921875 L 2.703125 -1.921875 L 2.703125 -0.65625 C 2.703125 -0.0625 2.554688 0.53125 2.265625 1.125 C 1.984375 1.71875 1.617188 2.191406 1.171875 2.546875 Z M 1.171875 2.546875 "/></g></g></g><g fill="#17191a" fill-opacity="1"><g transform="translate(217.361664, 31.534081)"><g/></g></g><g fill="#17191a" fill-opacity="1"><g transform="translate(221.816608, 31.534081)"><g><path d="M 9.265625 -4.65625 C 9.265625 -3.207031 8.929688 -2.039062 8.265625 -1.15625 C 7.609375 -0.269531 6.710938 0.171875 5.578125 0.171875 C 4.421875 0.171875 3.515625 -0.191406 2.859375 -0.921875 L 2.859375 3.65625 L 1.234375 3.65625 L 1.234375 -9.515625 L 2.71875 -9.515625 L 2.796875 -8.453125 C 3.453125 -9.273438 4.375 -9.6875 5.5625 -9.6875 C 6.695312 -9.6875 7.597656 -9.253906 8.265625 -8.390625 C 8.929688 -7.535156 9.265625 -6.335938 9.265625 -4.796875 Z M 7.640625 -4.828125 C 7.640625 -5.898438 7.410156 -6.75 6.953125 -7.375 C 6.492188 -8 5.867188 -8.3125 5.078125 -8.3125 C 4.085938 -8.3125 3.347656 -7.875 2.859375 -7 L 2.859375 -2.453125 C 3.347656 -1.585938 4.09375 -1.15625 5.09375 -1.15625 C 5.875 -1.15625 6.492188 -1.460938 6.953125 -2.078125 C 7.410156 -2.691406 7.640625 -3.609375 7.640625 -4.828125 Z M 7.640625 -4.828125 "/></g></g></g><g fill="#17191a" fill-opacity="1"><g transform="translate(231.912724, 31.534081)"><g><path d="M 0.796875 -4.84375 C 0.796875 -5.769531 0.976562 -6.601562 1.34375 -7.34375 C 1.71875 -8.09375 2.226562 -8.671875 2.875 -9.078125 C 3.53125 -9.484375 4.273438 -9.6875 5.109375 -9.6875 C 6.410156 -9.6875 7.457031 -9.238281 8.25 -8.34375 C 9.050781 -7.445312 9.453125 -6.253906 9.453125 -4.765625 L 9.453125 -4.65625 C 9.453125 -3.726562 9.273438 -2.894531 8.921875 -2.15625 C 8.566406 -1.425781 8.0625 -0.851562 7.40625 -0.4375 C 6.75 -0.03125 5.992188 0.171875 5.140625 0.171875 C 3.847656 0.171875 2.800781 -0.273438 2 -1.171875 C 1.195312 -2.066406 0.796875 -3.253906 0.796875 -4.734375 Z M 2.4375 -4.65625 C 2.4375 -3.59375 2.679688 -2.742188 3.171875 -2.109375 C 3.660156 -1.472656 4.316406 -1.15625 5.140625 -1.15625 C 5.960938 -1.15625 6.613281 -1.476562 7.09375 -2.125 C 7.582031 -2.769531 7.828125 -3.675781 7.828125 -4.84375 C 7.828125 -5.882812 7.578125 -6.726562 7.078125 -7.375 C 6.585938 -8.019531 5.929688 -8.34375 5.109375 -8.34375 C 4.304688 -8.34375 3.660156 -8.023438 3.171875 -7.390625 C 2.679688 -6.753906 2.4375 -5.84375 2.4375 -4.65625 Z M 2.4375 -4.65625 "/></g></g></g><g fill="#17191a" fill-opacity="1"><g transform="translate(242.17579, 31.534081)"><g><path d="M 6.765625 -2.515625 C 6.765625 -2.960938 6.597656 -3.304688 6.265625 -3.546875 C 5.941406 -3.785156 5.367188 -3.992188 4.546875 -4.171875 C 3.722656 -4.347656 3.066406 -4.554688 2.578125 -4.796875 C 2.097656 -5.046875 1.738281 -5.34375 1.5 -5.6875 C 1.269531 -6.03125 1.15625 -6.4375 1.15625 -6.90625 C 1.15625 -7.675781 1.484375 -8.332031 2.140625 -8.875 C 2.804688 -9.414062 3.648438 -9.6875 4.671875 -9.6875 C 5.753906 -9.6875 6.628906 -9.40625 7.296875 -8.84375 C 7.972656 -8.289062 8.3125 -7.582031 8.3125 -6.71875 L 6.671875 -6.71875 C 6.671875 -7.164062 6.476562 -7.546875 6.09375 -7.859375 C 5.71875 -8.179688 5.242188 -8.34375 4.671875 -8.34375 C 4.078125 -8.34375 3.613281 -8.210938 3.28125 -7.953125 C 2.945312 -7.703125 2.78125 -7.367188 2.78125 -6.953125 C 2.78125 -6.554688 2.9375 -6.257812 3.25 -6.0625 C 3.5625 -5.863281 4.125 -5.671875 4.9375 -5.484375 C 5.75 -5.304688 6.40625 -5.09375 6.90625 -4.84375 C 7.414062 -4.59375 7.789062 -4.289062 8.03125 -3.9375 C 8.269531 -3.582031 8.390625 -3.148438 8.390625 -2.640625 C 8.390625 -1.785156 8.050781 -1.101562 7.375 -0.59375 C 6.695312 -0.0820312 5.816406 0.171875 4.734375 0.171875 C 3.972656 0.171875 3.296875 0.0351562 2.703125 -0.234375 C 2.117188 -0.503906 1.660156 -0.878906 1.328125 -1.359375 C 0.992188 -1.835938 0.828125 -2.359375 0.828125 -2.921875 L 2.46875 -2.921875 C 2.488281 -2.378906 2.703125 -1.945312 3.109375 -1.625 C 3.523438 -1.3125 4.066406 -1.15625 4.734375 -1.15625 C 5.347656 -1.15625 5.835938 -1.28125 6.203125 -1.53125 C 6.578125 -1.78125 6.765625 -2.109375 6.765625 -2.515625 Z M 6.765625 -2.515625 "/></g></g></g><g fill="#17191a" fill-opacity="1"><g transform="translate(251.454727, 31.534081)"><g><path d="M 3.890625 -4.40625 L 2.859375 -3.34375 L 2.859375 0 L 1.234375 0 L 1.234375 -13.5 L 2.859375 -13.5 L 2.859375 -5.328125 L 3.734375 -6.375 L 6.703125 -9.515625 L 8.671875 -9.515625 L 4.96875 -5.53125 L 9.109375 0 L 7.203125 0 Z M 3.890625 -4.40625 "/></g></g></g><g fill="#17191a" fill-opacity="1"><g transform="translate(260.5755, 31.534081)"><g><path d="M 7.109375 -0.9375 C 6.472656 -0.195312 5.539062 0.171875 4.3125 0.171875 C 3.300781 0.171875 2.53125 -0.117188 2 -0.703125 C 1.46875 -1.296875 1.203125 -2.171875 1.203125 -3.328125 L 1.203125 -9.515625 L 2.828125 -9.515625 L 2.828125 -3.359375 C 2.828125 -1.921875 3.410156 -1.203125 4.578125 -1.203125 C 5.816406 -1.203125 6.644531 -1.664062 7.0625 -2.59375 L 7.0625 -9.515625 L 8.6875 -9.515625 L 8.6875 0 L 7.140625 0 Z M 7.109375 -0.9375 "/></g></g></g><g fill="#17191a" fill-opacity="1"><g transform="translate(270.495891, 31.534081)"><g><path d="M 9.265625 -4.65625 C 9.265625 -3.207031 8.929688 -2.039062 8.265625 -1.15625 C 7.609375 -0.269531 6.710938 0.171875 5.578125 0.171875 C 4.421875 0.171875 3.515625 -0.191406 2.859375 -0.921875 L 2.859375 3.65625 L 1.234375 3.65625 L 1.234375 -9.515625 L 2.71875 -9.515625 L 2.796875 -8.453125 C 3.453125 -9.273438 4.375 -9.6875 5.5625 -9.6875 C 6.695312 -9.6875 7.597656 -9.253906 8.265625 -8.390625 C 8.929688 -7.535156 9.265625 -6.335938 9.265625 -4.796875 Z M 7.640625 -4.828125 C 7.640625 -5.898438 7.410156 -6.75 6.953125 -7.375 C 6.492188 -8 5.867188 -8.3125 5.078125 -8.3125 C 4.085938 -8.3125 3.347656 -7.875 2.859375 -7 L 2.859375 -2.453125 C 3.347656 -1.585938 4.09375 -1.15625 5.09375 -1.15625 C 5.875 -1.15625 6.492188 -1.460938 6.953125 -2.078125 C 7.410156 -2.691406 7.640625 -3.609375 7.640625 -4.828125 Z M 7.640625 -4.828125 "/></g></g></g><g fill="#17191a" fill-opacity="1"><g transform="translate(280.592019, 31.534081)"><g><path d="M 3 0 L 1.375 0 L 1.375 -9.515625 L 3 -9.515625 Z M 1.234375 -12.03125 C 1.234375 -12.289062 1.3125 -12.507812 1.46875 -12.6875 C 1.632812 -12.875 1.875 -12.96875 2.1875 -12.96875 C 2.507812 -12.96875 2.753906 -12.875 2.921875 -12.6875 C 3.085938 -12.507812 3.171875 -12.289062 3.171875 -12.03125 C 3.171875 -11.769531 3.085938 -11.550781 2.921875 -11.375 C 2.753906 -11.195312 2.507812 -11.109375 2.1875 -11.109375 C 1.875 -11.109375 1.632812 -11.195312 1.46875 -11.375 C 1.3125 -11.550781 1.234375 -11.769531 1.234375 -12.03125 Z M 1.234375 -12.03125 "/></g></g></g><g fill="#17191a" fill-opacity="1"><g transform="translate(284.959107, 31.534081)"><g><path d="M 0.796875 -4.84375 C 0.796875 -5.769531 0.976562 -6.601562 1.34375 -7.34375 C 1.71875 -8.09375 2.226562 -8.671875 2.875 -9.078125 C 3.53125 -9.484375 4.273438 -9.6875 5.109375 -9.6875 C 6.410156 -9.6875 7.457031 -9.238281 8.25 -8.34375 C 9.050781 -7.445312 9.453125 -6.253906 9.453125 -4.765625 L 9.453125 -4.65625 C 9.453125 -3.726562 9.273438 -2.894531 8.921875 -2.15625 C 8.566406 -1.425781 8.0625 -0.851562 7.40625 -0.4375 C 6.75 -0.03125 5.992188 0.171875 5.140625 0.171875 C 3.847656 0.171875 2.800781 -0.273438 2 -1.171875 C 1.195312 -2.066406 0.796875 -3.253906 0.796875 -4.734375 Z M 2.4375 -4.65625 C 2.4375 -3.59375 2.679688 -2.742188 3.171875 -2.109375 C 3.660156 -1.472656 4.316406 -1.15625 5.140625 -1.15625 C 5.960938 -1.15625 6.613281 -1.476562 7.09375 -2.125 C 7.582031 -2.769531 7.828125 -3.675781 7.828125 -4.84375 C 7.828125 -5.882812 7.578125 -6.726562 7.078125 -7.375 C 6.585938 -8.019531 5.929688 -8.34375 5.109375 -8.34375 C 4.304688 -8.34375 3.660156 -8.023438 3.171875 -7.390625 C 2.679688 -6.753906 2.4375 -5.84375 2.4375 -4.65625 Z M 2.4375 -4.65625 "/></g></g></g><g fill="#17191a" fill-opacity="1"><g transform="translate(295.222173, 31.534081)"><g/></g></g><g fill="#17191a" fill-opacity="1"><g transform="translate(299.677105, 31.534081)"><g><path d="M 2.90625 -9.515625 L 2.90625 1.09375 C 2.90625 2.925781 2.078125 3.84375 0.421875 3.84375 C 0.0664062 3.84375 -0.265625 3.789062 -0.578125 3.6875 L -0.578125 2.375 C -0.390625 2.425781 -0.140625 2.453125 0.171875 2.453125 C 0.535156 2.453125 0.8125 2.351562 1 2.15625 C 1.1875 1.957031 1.28125 1.617188 1.28125 1.140625 L 1.28125 -9.515625 Z M 1.109375 -12.03125 C 1.109375 -12.289062 1.1875 -12.507812 1.34375 -12.6875 C 1.507812 -12.875 1.75 -12.96875 2.0625 -12.96875 C 2.382812 -12.96875 2.625 -12.875 2.78125 -12.6875 C 2.945312 -12.507812 3.03125 -12.289062 3.03125 -12.03125 C 3.03125 -11.769531 2.945312 -11.550781 2.78125 -11.375 C 2.625 -11.195312 2.382812 -11.109375 2.0625 -11.109375 C 1.75 -11.109375 1.507812 -11.195312 1.34375 -11.375 C 1.1875 -11.550781 1.109375 -11.769531 1.109375 -12.03125 Z M 1.109375 -12.03125 "/></g></g></g><g fill="#17191a" fill-opacity="1"><g transform="translate(303.973898, 31.534081)"><g><path d="M 5.171875 0.171875 C 3.890625 0.171875 2.84375 -0.25 2.03125 -1.09375 C 1.21875 -1.9375 0.8125 -3.066406 0.8125 -4.484375 L 0.8125 -4.796875 C 0.8125 -5.734375 0.992188 -6.570312 1.359375 -7.3125 C 1.722656 -8.050781 2.226562 -8.628906 2.875 -9.046875 C 3.519531 -9.472656 4.21875 -9.6875 4.96875 -9.6875 C 6.207031 -9.6875 7.171875 -9.28125 7.859375 -8.46875 C 8.546875 -7.65625 8.890625 -6.488281 8.890625 -4.96875 L 8.890625 -4.296875 L 2.4375 -4.296875 C 2.46875 -3.359375 2.742188 -2.597656 3.265625 -2.015625 C 3.785156 -1.441406 4.453125 -1.15625 5.265625 -1.15625 C 5.835938 -1.15625 6.320312 -1.269531 6.71875 -1.5 C 7.125 -1.738281 7.472656 -2.050781 7.765625 -2.4375 L 8.765625 -1.65625 C 7.960938 -0.4375 6.765625 0.171875 5.171875 0.171875 Z M 4.96875 -8.34375 C 4.3125 -8.34375 3.757812 -8.101562 3.3125 -7.625 C 2.875 -7.15625 2.601562 -6.488281 2.5 -5.625 L 7.265625 -5.625 L 7.265625 -5.75 C 7.210938 -6.570312 6.988281 -7.207031 6.59375 -7.65625 C 6.195312 -8.113281 5.65625 -8.34375 4.96875 -8.34375 Z M 4.96875 -8.34375 "/></g></g></g><g fill="#17191a" fill-opacity="1"><g transform="translate(313.507666, 31.534081)"><g/></g></g><g fill="#17191a" fill-opacity="1"><g transform="translate(317.962598, 31.534081)"><g><path d="M 9.453125 0 L 1.0625 0 L 1.0625 -1.171875 L 5.5 -6.09375 C 6.15625 -6.832031 6.601562 -7.4375 6.84375 -7.90625 C 7.09375 -8.375 7.21875 -8.859375 7.21875 -9.359375 C 7.21875 -10.023438 7.015625 -10.570312 6.609375 -11 C 6.210938 -11.425781 5.675781 -11.640625 5 -11.640625 C 4.1875 -11.640625 3.554688 -11.40625 3.109375 -10.9375 C 2.660156 -10.476562 2.4375 -9.84375 2.4375 -9.03125 L 0.8125 -9.03125 C 0.8125 -10.207031 1.191406 -11.15625 1.953125 -11.875 C 2.710938 -12.601562 3.726562 -12.96875 5 -12.96875 C 6.1875 -12.96875 7.125 -12.65625 7.8125 -12.03125 C 8.507812 -11.40625 8.859375 -10.578125 8.859375 -9.546875 C 8.859375 -8.285156 8.054688 -6.785156 6.453125 -5.046875 L 3.03125 -1.328125 L 9.453125 -1.328125 Z M 9.453125 0 "/></g></g></g><g fill="#17191a" fill-opacity="1"><g transform="translate(328.0675, 31.534081)"><g><path d="M 9.09375 -5.453125 C 9.09375 -3.554688 8.765625 -2.144531 8.109375 -1.21875 C 7.460938 -0.289062 6.445312 0.171875 5.0625 0.171875 C 3.695312 0.171875 2.6875 -0.28125 2.03125 -1.1875 C 1.375 -2.09375 1.035156 -3.441406 1.015625 -5.234375 L 1.015625 -7.40625 C 1.015625 -9.289062 1.335938 -10.6875 1.984375 -11.59375 C 2.640625 -12.507812 3.660156 -12.96875 5.046875 -12.96875 C 6.421875 -12.96875 7.429688 -12.523438 8.078125 -11.640625 C 8.734375 -10.765625 9.070312 -9.40625 9.09375 -7.5625 Z M 7.46875 -7.6875 C 7.46875 -9.0625 7.269531 -10.0625 6.875 -10.6875 C 6.488281 -11.320312 5.878906 -11.640625 5.046875 -11.640625 C 4.210938 -11.640625 3.601562 -11.320312 3.21875 -10.6875 C 2.84375 -10.0625 2.648438 -9.101562 2.640625 -7.8125 L 2.640625 -5.203125 C 2.640625 -3.816406 2.835938 -2.796875 3.234375 -2.140625 C 3.640625 -1.484375 4.25 -1.15625 5.0625 -1.15625 C 5.863281 -1.15625 6.457031 -1.460938 6.84375 -2.078125 C 7.238281 -2.703125 7.445312 -3.679688 7.46875 -5.015625 Z M 7.46875 -7.6875 "/></g></g></g><g fill="#17191a" fill-opacity="1"><g transform="translate(338.172403, 31.534081)"><g><path d="M 0.921875 -10.34375 C 0.921875 -11.101562 1.164062 -11.734375 1.65625 -12.234375 C 2.144531 -12.734375 2.773438 -12.984375 3.546875 -12.984375 C 4.328125 -12.984375 4.957031 -12.734375 5.4375 -12.234375 C 5.914062 -11.734375 6.15625 -11.082031 6.15625 -10.28125 L 6.15625 -9.65625 C 6.15625 -8.882812 5.910156 -8.253906 5.421875 -7.765625 C 4.929688 -7.273438 4.3125 -7.03125 3.5625 -7.03125 C 2.800781 -7.03125 2.171875 -7.273438 1.671875 -7.765625 C 1.171875 -8.253906 0.921875 -8.90625 0.921875 -9.71875 Z M 2.140625 -9.65625 C 2.140625 -9.195312 2.265625 -8.820312 2.515625 -8.53125 C 2.773438 -8.238281 3.125 -8.09375 3.5625 -8.09375 C 3.976562 -8.09375 4.3125 -8.234375 4.5625 -8.515625 C 4.820312 -8.804688 4.953125 -9.195312 4.953125 -9.6875 L 4.953125 -10.34375 C 4.953125 -10.789062 4.820312 -11.164062 4.5625 -11.46875 C 4.3125 -11.769531 3.96875 -11.921875 3.53125 -11.921875 C 3.101562 -11.921875 2.765625 -11.769531 2.515625 -11.46875 C 2.265625 -11.164062 2.140625 -10.773438 2.140625 -10.296875 Z M 7.15625 -3.140625 C 7.15625 -3.910156 7.398438 -4.539062 7.890625 -5.03125 C 8.378906 -5.53125 9.003906 -5.78125 9.765625 -5.78125 C 10.535156 -5.78125 11.164062 -5.53125 11.65625 -5.03125 C 12.15625 -4.539062 12.40625 -3.890625 12.40625 -3.078125 L 12.40625 -2.453125 C 12.40625 -1.679688 12.160156 -1.046875 11.671875 -0.546875 C 11.179688 -0.0546875 10.554688 0.1875 9.796875 0.1875 C 9.035156 0.1875 8.40625 -0.0546875 7.90625 -0.546875 C 7.40625 -1.035156 7.15625 -1.6875 7.15625 -2.5 Z M 8.375 -2.453125 C 8.375 -1.992188 8.5 -1.613281 8.75 -1.3125 C 9.007812 -1.019531 9.359375 -0.875 9.796875 -0.875 C 10.210938 -0.875 10.546875 -1.015625 10.796875 -1.296875 C 11.054688 -1.585938 11.1875 -1.984375 11.1875 -2.484375 L 11.1875 -3.140625 C 11.1875 -3.597656 11.054688 -3.972656 10.796875 -4.265625 C 10.546875 -4.566406 10.207031 -4.71875 9.78125 -4.71875 C 9.363281 -4.71875 9.023438 -4.570312 8.765625 -4.28125 C 8.503906 -3.988281 8.375 -3.597656 8.375 -3.109375 Z M 3.921875 -0.96875 L 3 -1.546875 L 9.25 -11.546875 L 10.171875 -10.96875 Z M 3.921875 -0.96875 "/></g></g></g><g fill="#17191a" fill-opacity="1"><g transform="translate(351.35271, 31.534081)"><g><path d="M 1.171875 2.546875 L 0.25 1.921875 C 0.800781 1.148438 1.085938 0.359375 1.109375 -0.453125 L 1.109375 -1.921875 L 2.703125 -1.921875 L 2.703125 -0.65625 C 2.703125 -0.0625 2.554688 0.53125 2.265625 1.125 C 1.984375 1.71875 1.617188 2.191406 1.171875 2.546875 Z M 1.171875 2.546875 "/></g></g></g><g fill="#17191a" fill-opacity="1"><g transform="translate(15.000006, 56.535084)"><g><path d="M 7.109375 0 C 7.015625 -0.1875 6.9375 -0.519531 6.875 -1 C 6.113281 -0.21875 5.210938 0.171875 4.171875 0.171875 C 3.234375 0.171875 2.460938 -0.09375 1.859375 -0.625 C 1.253906 -1.15625 0.953125 -1.828125 0.953125 -2.640625 C 0.953125 -3.628906 1.328125 -4.394531 2.078125 -4.9375 C 2.835938 -5.488281 3.898438 -5.765625 5.265625 -5.765625 L 6.84375 -5.765625 L 6.84375 -6.515625 C 6.84375 -7.078125 6.671875 -7.523438 6.328125 -7.859375 C 5.992188 -8.203125 5.492188 -8.375 4.828125 -8.375 C 4.253906 -8.375 3.769531 -8.226562 3.375 -7.9375 C 2.976562 -7.644531 2.78125 -7.289062 2.78125 -6.875 L 1.15625 -6.875 C 1.15625 -7.34375 1.320312 -7.796875 1.65625 -8.234375 C 1.988281 -8.679688 2.441406 -9.035156 3.015625 -9.296875 C 3.597656 -9.554688 4.238281 -9.6875 4.9375 -9.6875 C 6.03125 -9.6875 6.882812 -9.410156 7.5 -8.859375 C 8.125 -8.316406 8.445312 -7.5625 8.46875 -6.59375 L 8.46875 -2.21875 C 8.46875 -1.351562 8.582031 -0.660156 8.8125 -0.140625 L 8.8125 0 Z M 4.40625 -1.234375 C 4.914062 -1.234375 5.398438 -1.363281 5.859375 -1.625 C 6.316406 -1.894531 6.644531 -2.238281 6.84375 -2.65625 L 6.84375 -4.609375 L 5.578125 -4.609375 C 3.578125 -4.609375 2.578125 -4.023438 2.578125 -2.859375 C 2.578125 -2.347656 2.75 -1.945312 3.09375 -1.65625 C 3.4375 -1.375 3.875 -1.234375 4.40625 -1.234375 Z M 4.40625 -1.234375 "/></g></g></g><g fill="#17191a" fill-opacity="1"><g transform="translate(24.788581, 56.535084)"><g/></g></g><g fill="#17191a" fill-opacity="1"><g transform="translate(29.243525, 56.535084)"><g><path d="M 2.765625 -1.328125 L 8.328125 -1.328125 L 8.328125 0 L 0.78125 0 L 0.78125 -1.203125 L 6.015625 -8.171875 L 0.859375 -8.171875 L 0.859375 -9.515625 L 8.0625 -9.515625 L 8.0625 -8.359375 Z M 2.765625 -1.328125 "/></g></g></g><g fill="#17191a" fill-opacity="1"><g transform="translate(38.1622, 56.535084)"><g><path d="M 7.109375 0 C 7.015625 -0.1875 6.9375 -0.519531 6.875 -1 C 6.113281 -0.21875 5.210938 0.171875 4.171875 0.171875 C 3.234375 0.171875 2.460938 -0.09375 1.859375 -0.625 C 1.253906 -1.15625 0.953125 -1.828125 0.953125 -2.640625 C 0.953125 -3.628906 1.328125 -4.394531 2.078125 -4.9375 C 2.835938 -5.488281 3.898438 -5.765625 5.265625 -5.765625 L 6.84375 -5.765625 L 6.84375 -6.515625 C 6.84375 -7.078125 6.671875 -7.523438 6.328125 -7.859375 C 5.992188 -8.203125 5.492188 -8.375 4.828125 -8.375 C 4.253906 -8.375 3.769531 -8.226562 3.375 -7.9375 C 2.976562 -7.644531 2.78125 -7.289062 2.78125 -6.875 L 1.15625 -6.875 C 1.15625 -7.34375 1.320312 -7.796875 1.65625 -8.234375 C 1.988281 -8.679688 2.441406 -9.035156 3.015625 -9.296875 C 3.597656 -9.554688 4.238281 -9.6875 4.9375 -9.6875 C 6.03125 -9.6875 6.882812 -9.410156 7.5 -8.859375 C 8.125 -8.316406 8.445312 -7.5625 8.46875 -6.59375 L 8.46875 -2.21875 C 8.46875 -1.351562 8.582031 -0.660156 8.8125 -0.140625 L 8.8125 0 Z M 4.40625 -1.234375 C 4.914062 -1.234375 5.398438 -1.363281 5.859375 -1.625 C 6.316406 -1.894531 6.644531 -2.238281 6.84375 -2.65625 L 6.84375 -4.609375 L 5.578125 -4.609375 C 3.578125 -4.609375 2.578125 -4.023438 2.578125 -2.859375 C 2.578125 -2.347656 2.75 -1.945312 3.09375 -1.65625 C 3.4375 -1.375 3.875 -1.234375 4.40625 -1.234375 Z M 4.40625 -1.234375 "/></g></g></g><g fill="#17191a" fill-opacity="1"><g transform="translate(47.950776, 56.535084)"><g><path d="M 3.4375 -11.8125 L 3.4375 -9.515625 L 5.21875 -9.515625 L 5.21875 -8.25 L 3.4375 -8.25 L 3.4375 -2.359375 C 3.4375 -1.972656 3.515625 -1.6875 3.671875 -1.5 C 3.828125 -1.3125 4.097656 -1.21875 4.484375 -1.21875 C 4.671875 -1.21875 4.925781 -1.25 5.25 -1.3125 L 5.25 0 C 4.820312 0.113281 4.410156 0.171875 4.015625 0.171875 C 3.285156 0.171875 2.734375 -0.046875 2.359375 -0.484375 C 1.992188 -0.921875 1.8125 -1.546875 1.8125 -2.359375 L 1.8125 -8.25 L 0.078125 -8.25 L 0.078125 -9.515625 L 1.8125 -9.515625 L 1.8125 -11.8125 Z M 3.4375 -11.8125 "/></g></g></g><g fill="#17191a" fill-opacity="1"><g transform="translate(53.829193, 56.535084)"><g><path d="M 3 0 L 1.375 0 L 1.375 -9.515625 L 3 -9.515625 Z M 1.234375 -12.03125 C 1.234375 -12.289062 1.3125 -12.507812 1.46875 -12.6875 C 1.632812 -12.875 1.875 -12.96875 2.1875 -12.96875 C 2.507812 -12.96875 2.753906 -12.875 2.921875 -12.6875 C 3.085938 -12.507812 3.171875 -12.289062 3.171875 -12.03125 C 3.171875 -11.769531 3.085938 -11.550781 2.921875 -11.375 C 2.753906 -11.195312 2.507812 -11.109375 2.1875 -11.109375 C 1.875 -11.109375 1.632812 -11.195312 1.46875 -11.375 C 1.3125 -11.550781 1.234375 -11.769531 1.234375 -12.03125 Z M 1.234375 -12.03125 "/></g></g></g><g fill="#17191a" fill-opacity="1"><g transform="translate(58.196268, 56.535084)"><g><path d="M 2.765625 -9.515625 L 2.796875 -8.453125 C 3.492188 -9.273438 4.4375 -9.6875 5.625 -9.6875 C 6.957031 -9.6875 7.863281 -9.175781 8.34375 -8.15625 C 8.65625 -8.613281 9.066406 -8.984375 9.578125 -9.265625 C 10.085938 -9.546875 10.6875 -9.6875 11.375 -9.6875 C 13.457031 -9.6875 14.519531 -8.582031 14.5625 -6.375 L 14.5625 0 L 12.921875 0 L 12.921875 -6.28125 C 12.921875 -6.957031 12.765625 -7.460938 12.453125 -7.796875 C 12.148438 -8.140625 11.632812 -8.3125 10.90625 -8.3125 C 10.300781 -8.3125 9.796875 -8.128906 9.390625 -7.765625 C 8.992188 -7.398438 8.765625 -6.914062 8.703125 -6.3125 L 8.703125 0 L 7.0625 0 L 7.0625 -6.234375 C 7.0625 -7.617188 6.382812 -8.3125 5.03125 -8.3125 C 3.96875 -8.3125 3.238281 -7.851562 2.84375 -6.9375 L 2.84375 0 L 1.21875 0 L 1.21875 -9.515625 Z M 2.765625 -9.515625 "/></g></g></g><g fill="#17191a" fill-opacity="1"><g transform="translate(73.968703, 56.535084)"><g/></g></g><g fill="#17191a" fill-opacity="1"><g transform="translate(78.423647, 56.535084)"><g><path d="M 9.265625 -4.65625 C 9.265625 -3.207031 8.929688 -2.039062 8.265625 -1.15625 C 7.609375 -0.269531 6.710938 0.171875 5.578125 0.171875 C 4.421875 0.171875 3.515625 -0.191406 2.859375 -0.921875 L 2.859375 3.65625 L 1.234375 3.65625 L 1.234375 -9.515625 L 2.71875 -9.515625 L 2.796875 -8.453125 C 3.453125 -9.273438 4.375 -9.6875 5.5625 -9.6875 C 6.695312 -9.6875 7.597656 -9.253906 8.265625 -8.390625 C 8.929688 -7.535156 9.265625 -6.335938 9.265625 -4.796875 Z M 7.640625 -4.828125 C 7.640625 -5.898438 7.410156 -6.75 6.953125 -7.375 C 6.492188 -8 5.867188 -8.3125 5.078125 -8.3125 C 4.085938 -8.3125 3.347656 -7.875 2.859375 -7 L 2.859375 -2.453125 C 3.347656 -1.585938 4.09375 -1.15625 5.09375 -1.15625 C 5.875 -1.15625 6.492188 -1.460938 6.953125 -2.078125 C 7.410156 -2.691406 7.640625 -3.609375 7.640625 -4.828125 Z M 7.640625 -4.828125 "/></g></g></g><g fill="#17191a" fill-opacity="1"><g transform="translate(88.519763, 56.535084)"><g><path d="M 0.796875 -4.84375 C 0.796875 -5.769531 0.976562 -6.601562 1.34375 -7.34375 C 1.71875 -8.09375 2.226562 -8.671875 2.875 -9.078125 C 3.53125 -9.484375 4.273438 -9.6875 5.109375 -9.6875 C 6.410156 -9.6875 7.457031 -9.238281 8.25 -8.34375 C 9.050781 -7.445312 9.453125 -6.253906 9.453125 -4.765625 L 9.453125 -4.65625 C 9.453125 -3.726562 9.273438 -2.894531 8.921875 -2.15625 C 8.566406 -1.425781 8.0625 -0.851562 7.40625 -0.4375 C 6.75 -0.03125 5.992188 0.171875 5.140625 0.171875 C 3.847656 0.171875 2.800781 -0.273438 2 -1.171875 C 1.195312 -2.066406 0.796875 -3.253906 0.796875 -4.734375 Z M 2.4375 -4.65625 C 2.4375 -3.59375 2.679688 -2.742188 3.171875 -2.109375 C 3.660156 -1.472656 4.316406 -1.15625 5.140625 -1.15625 C 5.960938 -1.15625 6.613281 -1.476562 7.09375 -2.125 C 7.582031 -2.769531 7.828125 -3.675781 7.828125 -4.84375 C 7.828125 -5.882812 7.578125 -6.726562 7.078125 -7.375 C 6.585938 -8.019531 5.929688 -8.34375 5.109375 -8.34375 C 4.304688 -8.34375 3.660156 -8.023438 3.171875 -7.390625 C 2.679688 -6.753906 2.4375 -5.84375 2.4375 -4.65625 Z M 2.4375 -4.65625 "/></g></g></g><g fill="#17191a" fill-opacity="1"><g transform="translate(98.782829, 56.535084)"><g><path d="M 2.90625 -9.515625 L 2.90625 1.09375 C 2.90625 2.925781 2.078125 3.84375 0.421875 3.84375 C 0.0664062 3.84375 -0.265625 3.789062 -0.578125 3.6875 L -0.578125 2.375 C -0.390625 2.425781 -0.140625 2.453125 0.171875 2.453125 C 0.535156 2.453125 0.8125 2.351562 1 2.15625 C 1.1875 1.957031 1.28125 1.617188 1.28125 1.140625 L 1.28125 -9.515625 Z M 1.109375 -12.03125 C 1.109375 -12.289062 1.1875 -12.507812 1.34375 -12.6875 C 1.507812 -12.875 1.75 -12.96875 2.0625 -12.96875 C 2.382812 -12.96875 2.625 -12.875 2.78125 -12.6875 C 2.945312 -12.507812 3.03125 -12.289062 3.03125 -12.03125 C 3.03125 -11.769531 2.945312 -11.550781 2.78125 -11.375 C 2.625 -11.195312 2.382812 -11.109375 2.0625 -11.109375 C 1.75 -11.109375 1.507812 -11.195312 1.34375 -11.375 C 1.1875 -11.550781 1.109375 -11.769531 1.109375 -12.03125 Z M 1.109375 -12.03125 "/></g></g></g><g fill="#17191a" fill-opacity="1"><g transform="translate(103.079609, 56.535084)"><g><path d="M 5.171875 0.171875 C 3.890625 0.171875 2.84375 -0.25 2.03125 -1.09375 C 1.21875 -1.9375 0.8125 -3.066406 0.8125 -4.484375 L 0.8125 -4.796875 C 0.8125 -5.734375 0.992188 -6.570312 1.359375 -7.3125 C 1.722656 -8.050781 2.226562 -8.628906 2.875 -9.046875 C 3.519531 -9.472656 4.21875 -9.6875 4.96875 -9.6875 C 6.207031 -9.6875 7.171875 -9.28125 7.859375 -8.46875 C 8.546875 -7.65625 8.890625 -6.488281 8.890625 -4.96875 L 8.890625 -4.296875 L 2.4375 -4.296875 C 2.46875 -3.359375 2.742188 -2.597656 3.265625 -2.015625 C 3.785156 -1.441406 4.453125 -1.15625 5.265625 -1.15625 C 5.835938 -1.15625 6.320312 -1.269531 6.71875 -1.5 C 7.125 -1.738281 7.472656 -2.050781 7.765625 -2.4375 L 8.765625 -1.65625 C 7.960938 -0.4375 6.765625 0.171875 5.171875 0.171875 Z M 4.96875 -8.34375 C 4.3125 -8.34375 3.757812 -8.101562 3.3125 -7.625 C 2.875 -7.15625 2.601562 -6.488281 2.5 -5.625 L 7.265625 -5.625 L 7.265625 -5.75 C 7.210938 -6.570312 6.988281 -7.207031 6.59375 -7.65625 C 6.195312 -8.113281 5.65625 -8.34375 4.96875 -8.34375 Z M 4.96875 -8.34375 "/></g></g></g><g fill="#17191a" fill-opacity="1"><g transform="translate(112.613365, 56.535084)"><g><path d="M 2.03125 0 L 2.03125 -8.25 L 0.53125 -8.25 L 0.53125 -9.515625 L 2.03125 -9.515625 L 2.03125 -10.484375 C 2.03125 -11.503906 2.300781 -12.289062 2.84375 -12.84375 C 3.394531 -13.40625 4.164062 -13.6875 5.15625 -13.6875 C 5.53125 -13.6875 5.90625 -13.632812 6.28125 -13.53125 L 6.1875 -12.21875 C 5.914062 -12.269531 5.625 -12.296875 5.3125 -12.296875 C 4.78125 -12.296875 4.367188 -12.140625 4.078125 -11.828125 C 3.796875 -11.523438 3.65625 -11.085938 3.65625 -10.515625 L 3.65625 -9.515625 L 5.6875 -9.515625 L 5.6875 -8.25 L 3.65625 -8.25 L 3.65625 0 Z M 2.03125 0 "/></g></g></g><g fill="#17191a" fill-opacity="1"><g transform="translate(118.860831, 56.535084)"><g><path d="M 3.4375 -11.8125 L 3.4375 -9.515625 L 5.21875 -9.515625 L 5.21875 -8.25 L 3.4375 -8.25 L 3.4375 -2.359375 C 3.4375 -1.972656 3.515625 -1.6875 3.671875 -1.5 C 3.828125 -1.3125 4.097656 -1.21875 4.484375 -1.21875 C 4.671875 -1.21875 4.925781 -1.25 5.25 -1.3125 L 5.25 0 C 4.820312 0.113281 4.410156 0.171875 4.015625 0.171875 C 3.285156 0.171875 2.734375 -0.046875 2.359375 -0.484375 C 1.992188 -0.921875 1.8125 -1.546875 1.8125 -2.359375 L 1.8125 -8.25 L 0.078125 -8.25 L 0.078125 -9.515625 L 1.8125 -9.515625 L 1.8125 -11.8125 Z M 3.4375 -11.8125 "/></g></g></g><g fill="#17191a" fill-opacity="1"><g transform="translate(124.739248, 56.535084)"><g><path d="M 3 0 L 1.375 0 L 1.375 -9.515625 L 3 -9.515625 Z M 1.234375 -12.03125 C 1.234375 -12.289062 1.3125 -12.507812 1.46875 -12.6875 C 1.632812 -12.875 1.875 -12.96875 2.1875 -12.96875 C 2.507812 -12.96875 2.753906 -12.875 2.921875 -12.6875 C 3.085938 -12.507812 3.171875 -12.289062 3.171875 -12.03125 C 3.171875 -11.769531 3.085938 -11.550781 2.921875 -11.375 C 2.753906 -11.195312 2.507812 -11.109375 2.1875 -11.109375 C 1.875 -11.109375 1.632812 -11.195312 1.46875 -11.375 C 1.3125 -11.550781 1.234375 -11.769531 1.234375 -12.03125 Z M 1.234375 -12.03125 "/></g></g></g><g fill="#17191a" fill-opacity="1"><g transform="translate(129.106324, 56.535084)"><g><path d="M 2.765625 -9.515625 L 2.828125 -8.3125 C 3.546875 -9.226562 4.492188 -9.6875 5.671875 -9.6875 C 7.679688 -9.6875 8.691406 -8.550781 8.703125 -6.28125 L 8.703125 0 L 7.078125 0 L 7.078125 -6.296875 C 7.078125 -6.984375 6.921875 -7.488281 6.609375 -7.8125 C 6.304688 -8.144531 5.828125 -8.3125 5.171875 -8.3125 C 4.648438 -8.3125 4.1875 -8.171875 3.78125 -7.890625 C 3.382812 -7.609375 3.078125 -7.238281 2.859375 -6.78125 L 2.859375 0 L 1.234375 0 L 1.234375 -9.515625 Z M 2.765625 -9.515625 "/></g></g></g><g fill="#17191a" fill-opacity="1"><g transform="translate(139.035489, 56.535084)"><g><path d="M 3 0 L 1.375 0 L 1.375 -9.515625 L 3 -9.515625 Z M 1.234375 -12.03125 C 1.234375 -12.289062 1.3125 -12.507812 1.46875 -12.6875 C 1.632812 -12.875 1.875 -12.96875 2.1875 -12.96875 C 2.507812 -12.96875 2.753906 -12.875 2.921875 -12.6875 C 3.085938 -12.507812 3.171875 -12.289062 3.171875 -12.03125 C 3.171875 -11.769531 3.085938 -11.550781 2.921875 -11.375 C 2.753906 -11.195312 2.507812 -11.109375 2.1875 -11.109375 C 1.875 -11.109375 1.632812 -11.195312 1.46875 -11.375 C 1.3125 -11.550781 1.234375 -11.769531 1.234375 -12.03125 Z M 1.234375 -12.03125 "/></g></g></g><g fill="#17191a" fill-opacity="1"><g transform="translate(143.402564, 56.535084)"><g><path d="M 0.796875 -4.84375 C 0.796875 -5.769531 0.976562 -6.601562 1.34375 -7.34375 C 1.71875 -8.09375 2.226562 -8.671875 2.875 -9.078125 C 3.53125 -9.484375 4.273438 -9.6875 5.109375 -9.6875 C 6.410156 -9.6875 7.457031 -9.238281 8.25 -8.34375 C 9.050781 -7.445312 9.453125 -6.253906 9.453125 -4.765625 L 9.453125 -4.65625 C 9.453125 -3.726562 9.273438 -2.894531 8.921875 -2.15625 C 8.566406 -1.425781 8.0625 -0.851562 7.40625 -0.4375 C 6.75 -0.03125 5.992188 0.171875 5.140625 0.171875 C 3.847656 0.171875 2.800781 -0.273438 2 -1.171875 C 1.195312 -2.066406 0.796875 -3.253906 0.796875 -4.734375 Z M 2.4375 -4.65625 C 2.4375 -3.59375 2.679688 -2.742188 3.171875 -2.109375 C 3.660156 -1.472656 4.316406 -1.15625 5.140625 -1.15625 C 5.960938 -1.15625 6.613281 -1.476562 7.09375 -2.125 C 7.582031 -2.769531 7.828125 -3.675781 7.828125 -4.84375 C 7.828125 -5.882812 7.578125 -6.726562 7.078125 -7.375 C 6.585938 -8.019531 5.929688 -8.34375 5.109375 -8.34375 C 4.304688 -8.34375 3.660156 -8.023438 3.171875 -7.390625 C 2.679688 -6.753906 2.4375 -5.84375 2.4375 -4.65625 Z M 2.4375 -4.65625 "/></g></g></g><g fill="#17191a" fill-opacity="1"><g transform="translate(153.665631, 56.535084)"><g/></g></g><g fill="#17191a" fill-opacity="1"><g transform="translate(158.120575, 56.535084)"><g><path d="M 6.40625 0 L 4.765625 0 L 4.765625 -10.84375 L 1.5 -9.640625 L 1.5 -11.109375 L 6.15625 -12.859375 L 6.40625 -12.859375 Z M 6.40625 0 "/></g></g></g><g fill="#17191a" fill-opacity="1"><g transform="translate(168.225477, 56.535084)"><g><path d="M 9.453125 0 L 1.0625 0 L 1.0625 -1.171875 L 5.5 -6.09375 C 6.15625 -6.832031 6.601562 -7.4375 6.84375 -7.90625 C 7.09375 -8.375 7.21875 -8.859375 7.21875 -9.359375 C 7.21875 -10.023438 7.015625 -10.570312 6.609375 -11 C 6.210938 -11.425781 5.675781 -11.640625 5 -11.640625 C 4.1875 -11.640625 3.554688 -11.40625 3.109375 -10.9375 C 2.660156 -10.476562 2.4375 -9.84375 2.4375 -9.03125 L 0.8125 -9.03125 C 0.8125 -10.207031 1.191406 -11.15625 1.953125 -11.875 C 2.710938 -12.601562 3.726562 -12.96875 5 -12.96875 C 6.1875 -12.96875 7.125 -12.65625 7.8125 -12.03125 C 8.507812 -11.40625 8.859375 -10.578125 8.859375 -9.546875 C 8.859375 -8.285156 8.054688 -6.785156 6.453125 -5.046875 L 3.03125 -1.328125 L 9.453125 -1.328125 Z M 9.453125 0 "/></g></g></g><g fill="#17191a" fill-opacity="1"><g transform="translate(178.33038, 56.535084)"><g><path d="M 0.921875 -10.34375 C 0.921875 -11.101562 1.164062 -11.734375 1.65625 -12.234375 C 2.144531 -12.734375 2.773438 -12.984375 3.546875 -12.984375 C 4.328125 -12.984375 4.957031 -12.734375 5.4375 -12.234375 C 5.914062 -11.734375 6.15625 -11.082031 6.15625 -10.28125 L 6.15625 -9.65625 C 6.15625 -8.882812 5.910156 -8.253906 5.421875 -7.765625 C 4.929688 -7.273438 4.3125 -7.03125 3.5625 -7.03125 C 2.800781 -7.03125 2.171875 -7.273438 1.671875 -7.765625 C 1.171875 -8.253906 0.921875 -8.90625 0.921875 -9.71875 Z M 2.140625 -9.65625 C 2.140625 -9.195312 2.265625 -8.820312 2.515625 -8.53125 C 2.773438 -8.238281 3.125 -8.09375 3.5625 -8.09375 C 3.976562 -8.09375 4.3125 -8.234375 4.5625 -8.515625 C 4.820312 -8.804688 4.953125 -9.195312 4.953125 -9.6875 L 4.953125 -10.34375 C 4.953125 -10.789062 4.820312 -11.164062 4.5625 -11.46875 C 4.3125 -11.769531 3.96875 -11.921875 3.53125 -11.921875 C 3.101562 -11.921875 2.765625 -11.769531 2.515625 -11.46875 C 2.265625 -11.164062 2.140625 -10.773438 2.140625 -10.296875 Z M 7.15625 -3.140625 C 7.15625 -3.910156 7.398438 -4.539062 7.890625 -5.03125 C 8.378906 -5.53125 9.003906 -5.78125 9.765625 -5.78125 C 10.535156 -5.78125 11.164062 -5.53125 11.65625 -5.03125 C 12.15625 -4.539062 12.40625 -3.890625 12.40625 -3.078125 L 12.40625 -2.453125 C 12.40625 -1.679688 12.160156 -1.046875 11.671875 -0.546875 C 11.179688 -0.0546875 10.554688 0.1875 9.796875 0.1875 C 9.035156 0.1875 8.40625 -0.0546875 7.90625 -0.546875 C 7.40625 -1.035156 7.15625 -1.6875 7.15625 -2.5 Z M 8.375 -2.453125 C 8.375 -1.992188 8.5 -1.613281 8.75 -1.3125 C 9.007812 -1.019531 9.359375 -0.875 9.796875 -0.875 C 10.210938 -0.875 10.546875 -1.015625 10.796875 -1.296875 C 11.054688 -1.585938 11.1875 -1.984375 11.1875 -2.484375 L 11.1875 -3.140625 C 11.1875 -3.597656 11.054688 -3.972656 10.796875 -4.265625 C 10.546875 -4.566406 10.207031 -4.71875 9.78125 -4.71875 C 9.363281 -4.71875 9.023438 -4.570312 8.765625 -4.28125 C 8.503906 -3.988281 8.375 -3.597656 8.375 -3.109375 Z M 3.921875 -0.96875 L 3 -1.546875 L 9.25 -11.546875 L 10.171875 -10.96875 Z M 3.921875 -0.96875 "/></g></g></g><g fill="#17191a" fill-opacity="1"><g transform="translate(191.510687, 56.535084)"><g><path d="M 1.265625 -0.859375 C 1.265625 -1.140625 1.347656 -1.375 1.515625 -1.5625 C 1.679688 -1.75 1.929688 -1.84375 2.265625 -1.84375 C 2.597656 -1.84375 2.847656 -1.75 3.015625 -1.5625 C 3.191406 -1.375 3.28125 -1.140625 3.28125 -0.859375 C 3.28125 -0.585938 3.191406 -0.359375 3.015625 -0.171875 C 2.847656 0.00390625 2.597656 0.09375 2.265625 0.09375 C 1.929688 0.09375 1.679688 0.00390625 1.515625 -0.171875 C 1.347656 -0.359375 1.265625 -0.585938 1.265625 -0.859375 Z M 1.265625 -0.859375 "/></g></g></g><g fill="#17191a" fill-opacity="1"><g transform="translate(196.246811, 56.535084)"><g/></g></g><g fill="#17191a" fill-opacity="1"><g transform="translate(200.701755, 56.535084)"><g><path d="M 4.734375 -5.953125 L 3.171875 -4.328125 L 3.171875 0 L 1.484375 0 L 1.484375 -12.796875 L 3.171875 -12.796875 L 3.171875 -6.46875 L 8.859375 -12.796875 L 10.90625 -12.796875 L 5.859375 -7.140625 L 11.296875 0 L 9.265625 0 Z M 4.734375 -5.953125 "/></g></g></g><g fill="#17191a" fill-opacity="1"><g transform="translate(211.984099, 56.535084)"><g><path d="M 0.796875 -4.84375 C 0.796875 -5.769531 0.976562 -6.601562 1.34375 -7.34375 C 1.71875 -8.09375 2.226562 -8.671875 2.875 -9.078125 C 3.53125 -9.484375 4.273438 -9.6875 5.109375 -9.6875 C 6.410156 -9.6875 7.457031 -9.238281 8.25 -8.34375 C 9.050781 -7.445312 9.453125 -6.253906 9.453125 -4.765625 L 9.453125 -4.65625 C 9.453125 -3.726562 9.273438 -2.894531 8.921875 -2.15625 C 8.566406 -1.425781 8.0625 -0.851562 7.40625 -0.4375 C 6.75 -0.03125 5.992188 0.171875 5.140625 0.171875 C 3.847656 0.171875 2.800781 -0.273438 2 -1.171875 C 1.195312 -2.066406 0.796875 -3.253906 0.796875 -4.734375 Z M 2.4375 -4.65625 C 2.4375 -3.59375 2.679688 -2.742188 3.171875 -2.109375 C 3.660156 -1.472656 4.316406 -1.15625 5.140625 -1.15625 C 5.960938 -1.15625 6.613281 -1.476562 7.09375 -2.125 C 7.582031 -2.769531 7.828125 -3.675781 7.828125 -4.84375 C 7.828125 -5.882812 7.578125 -6.726562 7.078125 -7.375 C 6.585938 -8.019531 5.929688 -8.34375 5.109375 -8.34375 C 4.304688 -8.34375 3.660156 -8.023438 3.171875 -7.390625 C 2.679688 -6.753906 2.4375 -5.84375 2.4375 -4.65625 Z M 2.4375 -4.65625 "/></g></g></g><g fill="#17191a" fill-opacity="1"><g transform="translate(222.247165, 56.535084)"><g><path d="M 3 0 L 1.375 0 L 1.375 -13.5 L 3 -13.5 Z M 3 0 "/></g></g></g><g fill="#17191a" fill-opacity="1"><g transform="translate(226.61424, 56.535084)"><g><path d="M 3 0 L 1.375 0 L 1.375 -9.515625 L 3 -9.515625 Z M 1.234375 -12.03125 C 1.234375 -12.289062 1.3125 -12.507812 1.46875 -12.6875 C 1.632812 -12.875 1.875 -12.96875 2.1875 -12.96875 C 2.507812 -12.96875 2.753906 -12.875 2.921875 -12.6875 C 3.085938 -12.507812 3.171875 -12.289062 3.171875 -12.03125 C 3.171875 -11.769531 3.085938 -11.550781 2.921875 -11.375 C 2.753906 -11.195312 2.507812 -11.109375 2.1875 -11.109375 C 1.875 -11.109375 1.632812 -11.195312 1.46875 -11.375 C 1.3125 -11.550781 1.234375 -11.769531 1.234375 -12.03125 Z M 1.234375 -12.03125 "/></g></g></g><g fill="#17191a" fill-opacity="1"><g transform="translate(230.981316, 56.535084)"><g><path d="M 3.890625 -4.40625 L 2.859375 -3.34375 L 2.859375 0 L 1.234375 0 L 1.234375 -13.5 L 2.859375 -13.5 L 2.859375 -5.328125 L 3.734375 -6.375 L 6.703125 -9.515625 L 8.671875 -9.515625 L 4.96875 -5.53125 L 9.109375 0 L 7.203125 0 Z M 3.890625 -4.40625 "/></g></g></g><g fill="#17191a" fill-opacity="1"><g transform="translate(240.102089, 56.535084)"><g><path d="M 0.796875 -4.84375 C 0.796875 -5.769531 0.976562 -6.601562 1.34375 -7.34375 C 1.71875 -8.09375 2.226562 -8.671875 2.875 -9.078125 C 3.53125 -9.484375 4.273438 -9.6875 5.109375 -9.6875 C 6.410156 -9.6875 7.457031 -9.238281 8.25 -8.34375 C 9.050781 -7.445312 9.453125 -6.253906 9.453125 -4.765625 L 9.453125 -4.65625 C 9.453125 -3.726562 9.273438 -2.894531 8.921875 -2.15625 C 8.566406 -1.425781 8.0625 -0.851562 7.40625 -0.4375 C 6.75 -0.03125 5.992188 0.171875 5.140625 0.171875 C 3.847656 0.171875 2.800781 -0.273438 2 -1.171875 C 1.195312 -2.066406 0.796875 -3.253906 0.796875 -4.734375 Z M 2.4375 -4.65625 C 2.4375 -3.59375 2.679688 -2.742188 3.171875 -2.109375 C 3.660156 -1.472656 4.316406 -1.15625 5.140625 -1.15625 C 5.960938 -1.15625 6.613281 -1.476562 7.09375 -2.125 C 7.582031 -2.769531 7.828125 -3.675781 7.828125 -4.84375 C 7.828125 -5.882812 7.578125 -6.726562 7.078125 -7.375 C 6.585938 -8.019531 5.929688 -8.34375 5.109375 -8.34375 C 4.304688 -8.34375 3.660156 -8.023438 3.171875 -7.390625 C 2.679688 -6.753906 2.4375 -5.84375 2.4375 -4.65625 Z M 2.4375 -4.65625 "/></g></g></g><g fill="#17191a" fill-opacity="1"><g transform="translate(250.365155, 56.535084)"><g/></g></g><g fill="#17191a" fill-opacity="1"><g transform="translate(254.820112, 56.535084)"><g><path d="M 6.765625 -2.515625 C 6.765625 -2.960938 6.597656 -3.304688 6.265625 -3.546875 C 5.941406 -3.785156 5.367188 -3.992188 4.546875 -4.171875 C 3.722656 -4.347656 3.066406 -4.554688 2.578125 -4.796875 C 2.097656 -5.046875 1.738281 -5.34375 1.5 -5.6875 C 1.269531 -6.03125 1.15625 -6.4375 1.15625 -6.90625 C 1.15625 -7.675781 1.484375 -8.332031 2.140625 -8.875 C 2.804688 -9.414062 3.648438 -9.6875 4.671875 -9.6875 C 5.753906 -9.6875 6.628906 -9.40625 7.296875 -8.84375 C 7.972656 -8.289062 8.3125 -7.582031 8.3125 -6.71875 L 6.671875 -6.71875 C 6.671875 -7.164062 6.476562 -7.546875 6.09375 -7.859375 C 5.71875 -8.179688 5.242188 -8.34375 4.671875 -8.34375 C 4.078125 -8.34375 3.613281 -8.210938 3.28125 -7.953125 C 2.945312 -7.703125 2.78125 -7.367188 2.78125 -6.953125 C 2.78125 -6.554688 2.9375 -6.257812 3.25 -6.0625 C 3.5625 -5.863281 4.125 -5.671875 4.9375 -5.484375 C 5.75 -5.304688 6.40625 -5.09375 6.90625 -4.84375 C 7.414062 -4.59375 7.789062 -4.289062 8.03125 -3.9375 C 8.269531 -3.582031 8.390625 -3.148438 8.390625 -2.640625 C 8.390625 -1.785156 8.050781 -1.101562 7.375 -0.59375 C 6.695312 -0.0820312 5.816406 0.171875 4.734375 0.171875 C 3.972656 0.171875 3.296875 0.0351562 2.703125 -0.234375 C 2.117188 -0.503906 1.660156 -0.878906 1.328125 -1.359375 C 0.992188 -1.835938 0.828125 -2.359375 0.828125 -2.921875 L 2.46875 -2.921875 C 2.488281 -2.378906 2.703125 -1.945312 3.109375 -1.625 C 3.523438 -1.3125 4.066406 -1.15625 4.734375 -1.15625 C 5.347656 -1.15625 5.835938 -1.28125 6.203125 -1.53125 C 6.578125 -1.78125 6.765625 -2.109375 6.765625 -2.515625 Z M 6.765625 -2.515625 "/></g></g></g><g fill="#17191a" fill-opacity="1"><g transform="translate(264.099049, 56.535084)"><g><path d="M 7.109375 0 C 7.015625 -0.1875 6.9375 -0.519531 6.875 -1 C 6.113281 -0.21875 5.210938 0.171875 4.171875 0.171875 C 3.234375 0.171875 2.460938 -0.09375 1.859375 -0.625 C 1.253906 -1.15625 0.953125 -1.828125 0.953125 -2.640625 C 0.953125 -3.628906 1.328125 -4.394531 2.078125 -4.9375 C 2.835938 -5.488281 3.898438 -5.765625 5.265625 -5.765625 L 6.84375 -5.765625 L 6.84375 -6.515625 C 6.84375 -7.078125 6.671875 -7.523438 6.328125 -7.859375 C 5.992188 -8.203125 5.492188 -8.375 4.828125 -8.375 C 4.253906 -8.375 3.769531 -8.226562 3.375 -7.9375 C 2.976562 -7.644531 2.78125 -7.289062 2.78125 -6.875 L 1.15625 -6.875 C 1.15625 -7.34375 1.320312 -7.796875 1.65625 -8.234375 C 1.988281 -8.679688 2.441406 -9.035156 3.015625 -9.296875 C 3.597656 -9.554688 4.238281 -9.6875 4.9375 -9.6875 C 6.03125 -9.6875 6.882812 -9.410156 7.5 -8.859375 C 8.125 -8.316406 8.445312 -7.5625 8.46875 -6.59375 L 8.46875 -2.21875 C 8.46875 -1.351562 8.582031 -0.660156 8.8125 -0.140625 L 8.8125 0 Z M 4.40625 -1.234375 C 4.914062 -1.234375 5.398438 -1.363281 5.859375 -1.625 C 6.316406 -1.894531 6.644531 -2.238281 6.84375 -2.65625 L 6.84375 -4.609375 L 5.578125 -4.609375 C 3.578125 -4.609375 2.578125 -4.023438 2.578125 -2.859375 C 2.578125 -2.347656 2.75 -1.945312 3.09375 -1.65625 C 3.4375 -1.375 3.875 -1.234375 4.40625 -1.234375 Z M 4.40625 -1.234375 "/></g></g></g><g fill="#17191a" fill-opacity="1"><g transform="translate(273.887624, 56.535084)"><g><path d="M 0.828125 -4.828125 C 0.828125 -6.285156 1.171875 -7.457031 1.859375 -8.34375 C 2.554688 -9.238281 3.46875 -9.6875 4.59375 -9.6875 C 5.707031 -9.6875 6.585938 -9.304688 7.234375 -8.546875 L 7.234375 -13.5 L 8.859375 -13.5 L 8.859375 0 L 7.359375 0 L 7.28125 -1.015625 C 6.632812 -0.222656 5.734375 0.171875 4.578125 0.171875 C 3.472656 0.171875 2.570312 -0.273438 1.875 -1.171875 C 1.175781 -2.078125 0.828125 -3.257812 0.828125 -4.71875 Z M 2.46875 -4.65625 C 2.46875 -3.570312 2.6875 -2.722656 3.125 -2.109375 C 3.570312 -1.503906 4.1875 -1.203125 4.96875 -1.203125 C 6 -1.203125 6.753906 -1.664062 7.234375 -2.59375 L 7.234375 -6.96875 C 6.742188 -7.863281 6 -8.3125 5 -8.3125 C 4.195312 -8.3125 3.570312 -8 3.125 -7.375 C 2.6875 -6.757812 2.46875 -5.851562 2.46875 -4.65625 Z M 2.46875 -4.65625 "/></g></g></g><g fill="#17191a" fill-opacity="1"><g transform="translate(284.036473, 56.535084)"><g><path d="M 7.109375 0 C 7.015625 -0.1875 6.9375 -0.519531 6.875 -1 C 6.113281 -0.21875 5.210938 0.171875 4.171875 0.171875 C 3.234375 0.171875 2.460938 -0.09375 1.859375 -0.625 C 1.253906 -1.15625 0.953125 -1.828125 0.953125 -2.640625 C 0.953125 -3.628906 1.328125 -4.394531 2.078125 -4.9375 C 2.835938 -5.488281 3.898438 -5.765625 5.265625 -5.765625 L 6.84375 -5.765625 L 6.84375 -6.515625 C 6.84375 -7.078125 6.671875 -7.523438 6.328125 -7.859375 C 5.992188 -8.203125 5.492188 -8.375 4.828125 -8.375 C 4.253906 -8.375 3.769531 -8.226562 3.375 -7.9375 C 2.976562 -7.644531 2.78125 -7.289062 2.78125 -6.875 L 1.15625 -6.875 C 1.15625 -7.34375 1.320312 -7.796875 1.65625 -8.234375 C 1.988281 -8.679688 2.441406 -9.035156 3.015625 -9.296875 C 3.597656 -9.554688 4.238281 -9.6875 4.9375 -9.6875 C 6.03125 -9.6875 6.882812 -9.410156 7.5 -8.859375 C 8.125 -8.316406 8.445312 -7.5625 8.46875 -6.59375 L 8.46875 -2.21875 C 8.46875 -1.351562 8.582031 -0.660156 8.8125 -0.140625 L 8.8125 0 Z M 4.40625 -1.234375 C 4.914062 -1.234375 5.398438 -1.363281 5.859375 -1.625 C 6.316406 -1.894531 6.644531 -2.238281 6.84375 -2.65625 L 6.84375 -4.609375 L 5.578125 -4.609375 C 3.578125 -4.609375 2.578125 -4.023438 2.578125 -2.859375 C 2.578125 -2.347656 2.75 -1.945312 3.09375 -1.65625 C 3.4375 -1.375 3.875 -1.234375 4.40625 -1.234375 Z M 4.40625 -1.234375 "/></g></g></g><g fill="#17191a" fill-opacity="1"><g transform="translate(293.825049, 56.535084)"><g/></g></g><g fill="#17191a" fill-opacity="1"><g transform="translate(298.280005, 56.535084)"><g><path d="M 3.890625 -4.40625 L 2.859375 -3.34375 L 2.859375 0 L 1.234375 0 L 1.234375 -13.5 L 2.859375 -13.5 L 2.859375 -5.328125 L 3.734375 -6.375 L 6.703125 -9.515625 L 8.671875 -9.515625 L 4.96875 -5.53125 L 9.109375 0 L 7.203125 0 Z M 3.890625 -4.40625 "/></g></g></g><g fill="#17191a" fill-opacity="1"><g transform="translate(307.400778, 56.535084)"><g><path d="M 0.796875 -4.84375 C 0.796875 -5.769531 0.976562 -6.601562 1.34375 -7.34375 C 1.71875 -8.09375 2.226562 -8.671875 2.875 -9.078125 C 3.53125 -9.484375 4.273438 -9.6875 5.109375 -9.6875 C 6.410156 -9.6875 7.457031 -9.238281 8.25 -8.34375 C 9.050781 -7.445312 9.453125 -6.253906 9.453125 -4.765625 L 9.453125 -4.65625 C 9.453125 -3.726562 9.273438 -2.894531 8.921875 -2.15625 C 8.566406 -1.425781 8.0625 -0.851562 7.40625 -0.4375 C 6.75 -0.03125 5.992188 0.171875 5.140625 0.171875 C 3.847656 0.171875 2.800781 -0.273438 2 -1.171875 C 1.195312 -2.066406 0.796875 -3.253906 0.796875 -4.734375 Z M 2.4375 -4.65625 C 2.4375 -3.59375 2.679688 -2.742188 3.171875 -2.109375 C 3.660156 -1.472656 4.316406 -1.15625 5.140625 -1.15625 C 5.960938 -1.15625 6.613281 -1.476562 7.09375 -2.125 C 7.582031 -2.769531 7.828125 -3.675781 7.828125 -4.84375 C 7.828125 -5.882812 7.578125 -6.726562 7.078125 -7.375 C 6.585938 -8.019531 5.929688 -8.34375 5.109375 -8.34375 C 4.304688 -8.34375 3.660156 -8.023438 3.171875 -7.390625 C 2.679688 -6.753906 2.4375 -5.84375 2.4375 -4.65625 Z M 2.4375 -4.65625 "/></g></g></g><g fill="#17191a" fill-opacity="1"><g transform="translate(317.663845, 56.535084)"><g><path d="M 6.765625 -2.515625 C 6.765625 -2.960938 6.597656 -3.304688 6.265625 -3.546875 C 5.941406 -3.785156 5.367188 -3.992188 4.546875 -4.171875 C 3.722656 -4.347656 3.066406 -4.554688 2.578125 -4.796875 C 2.097656 -5.046875 1.738281 -5.34375 1.5 -5.6875 C 1.269531 -6.03125 1.15625 -6.4375 1.15625 -6.90625 C 1.15625 -7.675781 1.484375 -8.332031 2.140625 -8.875 C 2.804688 -9.414062 3.648438 -9.6875 4.671875 -9.6875 C 5.753906 -9.6875 6.628906 -9.40625 7.296875 -8.84375 C 7.972656 -8.289062 8.3125 -7.582031 8.3125 -6.71875 L 6.671875 -6.71875 C 6.671875 -7.164062 6.476562 -7.546875 6.09375 -7.859375 C 5.71875 -8.179688 5.242188 -8.34375 4.671875 -8.34375 C 4.078125 -8.34375 3.613281 -8.210938 3.28125 -7.953125 C 2.945312 -7.703125 2.78125 -7.367188 2.78125 -6.953125 C 2.78125 -6.554688 2.9375 -6.257812 3.25 -6.0625 C 3.5625 -5.863281 4.125 -5.671875 4.9375 -5.484375 C 5.75 -5.304688 6.40625 -5.09375 6.90625 -4.84375 C 7.414062 -4.59375 7.789062 -4.289062 8.03125 -3.9375 C 8.269531 -3.582031 8.390625 -3.148438 8.390625 -2.640625 C 8.390625 -1.785156 8.050781 -1.101562 7.375 -0.59375 C 6.695312 -0.0820312 5.816406 0.171875 4.734375 0.171875 C 3.972656 0.171875 3.296875 0.0351562 2.703125 -0.234375 C 2.117188 -0.503906 1.660156 -0.878906 1.328125 -1.359375 C 0.992188 -1.835938 0.828125 -2.359375 0.828125 -2.921875 L 2.46875 -2.921875 C 2.488281 -2.378906 2.703125 -1.945312 3.109375 -1.625 C 3.523438 -1.3125 4.066406 -1.15625 4.734375 -1.15625 C 5.347656 -1.15625 5.835938 -1.28125 6.203125 -1.53125 C 6.578125 -1.78125 6.765625 -2.109375 6.765625 -2.515625 Z M 4.9375 -12.015625 L 6.25 -13.5 L 7.65625 -13.5 L 7.65625 -13.421875 L 5.421875 -11.015625 L 4.4375 -11.015625 L 2.21875 -13.421875 L 2.21875 -13.5 L 3.609375 -13.5 Z M 4.9375 -12.015625 "/></g></g></g><g fill="#17191a" fill-opacity="1"><g transform="translate(326.942781, 56.535084)"><g><path d="M 3.4375 -11.8125 L 3.4375 -9.515625 L 5.21875 -9.515625 L 5.21875 -8.25 L 3.4375 -8.25 L 3.4375 -2.359375 C 3.4375 -1.972656 3.515625 -1.6875 3.671875 -1.5 C 3.828125 -1.3125 4.097656 -1.21875 4.484375 -1.21875 C 4.671875 -1.21875 4.925781 -1.25 5.25 -1.3125 L 5.25 0 C 4.820312 0.113281 4.410156 0.171875 4.015625 0.171875 C 3.285156 0.171875 2.734375 -0.046875 2.359375 -0.484375 C 1.992188 -0.921875 1.8125 -1.546875 1.8125 -2.359375 L 1.8125 -8.25 L 0.078125 -8.25 L 0.078125 -9.515625 L 1.8125 -9.515625 L 1.8125 -11.8125 Z M 3.4375 -11.8125 "/></g></g></g><g fill="#17191a" fill-opacity="1"><g transform="translate(332.821186, 56.535084)"><g><path d="M 7.109375 0 C 7.015625 -0.1875 6.9375 -0.519531 6.875 -1 C 6.113281 -0.21875 5.210938 0.171875 4.171875 0.171875 C 3.234375 0.171875 2.460938 -0.09375 1.859375 -0.625 C 1.253906 -1.15625 0.953125 -1.828125 0.953125 -2.640625 C 0.953125 -3.628906 1.328125 -4.394531 2.078125 -4.9375 C 2.835938 -5.488281 3.898438 -5.765625 5.265625 -5.765625 L 6.84375 -5.765625 L 6.84375 -6.515625 C 6.84375 -7.078125 6.671875 -7.523438 6.328125 -7.859375 C 5.992188 -8.203125 5.492188 -8.375 4.828125 -8.375 C 4.253906 -8.375 3.769531 -8.226562 3.375 -7.9375 C 2.976562 -7.644531 2.78125 -7.289062 2.78125 -6.875 L 1.15625 -6.875 C 1.15625 -7.34375 1.320312 -7.796875 1.65625 -8.234375 C 1.988281 -8.679688 2.441406 -9.035156 3.015625 -9.296875 C 3.597656 -9.554688 4.238281 -9.6875 4.9375 -9.6875 C 6.03125 -9.6875 6.882812 -9.410156 7.5 -8.859375 C 8.125 -8.316406 8.445312 -7.5625 8.46875 -6.59375 L 8.46875 -2.21875 C 8.46875 -1.351562 8.582031 -0.660156 8.8125 -0.140625 L 8.8125 0 Z M 4.40625 -1.234375 C 4.914062 -1.234375 5.398438 -1.363281 5.859375 -1.625 C 6.316406 -1.894531 6.644531 -2.238281 6.84375 -2.65625 L 6.84375 -4.609375 L 5.578125 -4.609375 C 3.578125 -4.609375 2.578125 -4.023438 2.578125 -2.859375 C 2.578125 -2.347656 2.75 -1.945312 3.09375 -1.65625 C 3.4375 -1.375 3.875 -1.234375 4.40625 -1.234375 Z M 4.40625 -1.234375 "/></g></g></g><g fill="#17191a" fill-opacity="1"><g transform="translate(342.609761, 56.535084)"><g><path d="M 3.140625 -3.609375 C 3.148438 -4.304688 3.226562 -4.851562 3.375 -5.25 C 3.519531 -5.65625 3.816406 -6.101562 4.265625 -6.59375 L 5.421875 -7.78125 C 5.910156 -8.34375 6.15625 -8.941406 6.15625 -9.578125 C 6.15625 -10.191406 5.992188 -10.671875 5.671875 -11.015625 C 5.347656 -11.367188 4.878906 -11.546875 4.265625 -11.546875 C 3.671875 -11.546875 3.191406 -11.382812 2.828125 -11.0625 C 2.460938 -10.75 2.28125 -10.328125 2.28125 -9.796875 L 0.65625 -9.796875 C 0.664062 -10.742188 1.003906 -11.507812 1.671875 -12.09375 C 2.335938 -12.675781 3.203125 -12.96875 4.265625 -12.96875 C 5.378906 -12.96875 6.242188 -12.671875 6.859375 -12.078125 C 7.472656 -11.484375 7.78125 -10.671875 7.78125 -9.640625 C 7.78125 -8.609375 7.304688 -7.59375 6.359375 -6.59375 L 5.40625 -5.65625 C 4.976562 -5.175781 4.765625 -4.492188 4.765625 -3.609375 Z M 3.0625 -0.8125 C 3.0625 -1.082031 3.140625 -1.304688 3.296875 -1.484375 C 3.460938 -1.660156 3.703125 -1.75 4.015625 -1.75 C 4.335938 -1.75 4.582031 -1.660156 4.75 -1.484375 C 4.914062 -1.304688 5 -1.082031 5 -0.8125 C 5 -0.550781 4.914062 -0.332031 4.75 -0.15625 C 4.582031 0.0078125 4.335938 0.09375 4.015625 0.09375 C 3.703125 0.09375 3.460938 0.0078125 3.296875 -0.15625 C 3.140625 -0.332031 3.0625 -0.550781 3.0625 -0.8125 Z M 3.0625 -0.8125 "/></g></g></g><g fill="#17191a" fill-opacity="1"><g transform="translate(351.100731, 56.535084)"><g/></g></g><g fill="#17191a" fill-opacity="1"><g transform="translate(355.555675, 56.535084)"><g/></g></g><g fill="#17191a" fill-opacity="1"><g transform="translate(360.010619, 56.535084)"><g/></g></g><g fill="#17191a" fill-opacity="1"><g transform="translate(364.465563, 56.535084)"><g/></g></g><g fill="#17191a" fill-opacity="1"><g transform="translate(368.920507, 56.535084)"><g/></g></g><g fill="#17191a" fill-opacity="1"><g transform="translate(373.375451, 56.535084)"><g/></g></g></svg>