<svg xmlns="http://www.w3.org/2000/svg" xmlns:xlink="http://www.w3.org/1999/xlink" width="500" zoomAndPan="magnify" viewBox="0 0 72 72" height="500" preserveAspectRatio="xMidYMid meet" version="1.0"><defs><filter x="0%" y="0%" width="100%" height="100%" id="7353bdd4db"><feColorMatrix values="0 0 0 0 1 0 0 0 0 1 0 0 0 0 1 0 0 0 1 0" color-interpolation-filters="sRGB"/></filter><g/><clipPath id="50a6d2f13d"><path d="M 31.902344 0 L 36.886719 0 L 36.886719 4.96875 L 31.902344 4.96875 Z M 31.902344 0 " clip-rule="nonzero"/></clipPath><clipPath id="32d3537550"><path d="M 36.886719 4.554688 L 36.886719 0.402344 C 36.886719 0.171875 36.699219 -0.015625 36.472656 -0.015625 L 32.320312 -0.015625 C 32.089844 -0.015625 31.902344 0.171875 31.902344 0.402344 L 31.902344 4.554688 C 31.902344 4.785156 32.089844 4.96875 32.320312 4.96875 L 36.472656 4.96875 C 36.699219 4.96875 36.886719 4.785156 36.886719 4.554688 " clip-rule="nonzero"/></clipPath><clipPath id="81a4ab7dfd"><path d="M 31.902344 4.96875 L 36.886719 4.96875 L 36.886719 9.953125 L 31.902344 9.953125 Z M 31.902344 4.96875 " clip-rule="nonzero"/></clipPath><clipPath id="a6d6e587cf"><path d="M 36.886719 9.539062 L 36.886719 5.386719 C 36.886719 5.15625 36.699219 4.96875 36.472656 4.96875 L 32.320312 4.96875 C 32.089844 4.96875 31.902344 5.15625 31.902344 5.386719 L 31.902344 9.539062 C 31.902344 9.765625 32.089844 9.953125 32.320312 9.953125 L 36.472656 9.953125 C 36.699219 9.953125 36.886719 9.765625 36.886719 9.539062 " clip-rule="nonzero"/></clipPath><clipPath id="fcfc3a46ba"><path d="M 30.472656 18.941406 L 72 18.941406 L 72 19.359375 L 30.472656 19.359375 Z M 30.472656 18.941406 " clip-rule="nonzero"/></clipPath><mask id="0c220eb37b"><g filter="url(#7353bdd4db)"><rect x="-7.2" width="86.4" fill="#000000" y="-7.2" height="86.4" fill-opacity="0.2471"/></g></mask><clipPath id="02ea6c42c4"><path d="M 0.472656 0.941406 L 42 0.941406 L 42 1.359375 L 0.472656 1.359375 Z M 0.472656 0.941406 " clip-rule="nonzero"/></clipPath><clipPath id="92b0b4611f"><rect x="0" width="42" y="0" height="2"/></clipPath><clipPath id="dc1cab80a2"><path d="M 30.472656 29.324219 L 72 29.324219 L 72 29.738281 L 30.472656 29.738281 Z M 30.472656 29.324219 " clip-rule="nonzero"/></clipPath><mask id="a9931a189b"><g filter="url(#7353bdd4db)"><rect x="-7.2" width="86.4" fill="#000000" y="-7.2" height="86.4" fill-opacity="0.2471"/></g></mask><clipPath id="ff91f39f39"><path d="M 0.472656 0.324219 L 42 0.324219 L 42 0.738281 L 0.472656 0.738281 Z M 0.472656 0.324219 " clip-rule="nonzero"/></clipPath><clipPath id="4e687ab94c"><rect x="0" width="42" y="0" height="1"/></clipPath><clipPath id="4a5a696498"><path d="M 30.472656 39.707031 L 72 39.707031 L 72 40.121094 L 30.472656 40.121094 Z M 30.472656 39.707031 " clip-rule="nonzero"/></clipPath><mask id="1dabd1cb51"><g filter="url(#7353bdd4db)"><rect x="-7.2" width="86.4" fill="#000000" y="-7.2" height="86.4" fill-opacity="0.2471"/></g></mask><clipPath id="2aba9e0d74"><path d="M 0.472656 0.707031 L 42 0.707031 L 42 1.121094 L 0.472656 1.121094 Z M 0.472656 0.707031 " clip-rule="nonzero"/></clipPath><clipPath id="efb19d0252"><rect x="0" width="42" y="0" height="2"/></clipPath><clipPath id="b358f09e70"><path d="M 30.472656 50.085938 L 72 50.085938 L 72 50.503906 L 30.472656 50.503906 Z M 30.472656 50.085938 " clip-rule="nonzero"/></clipPath><mask id="65e06a2a05"><g filter="url(#7353bdd4db)"><rect x="-7.2" width="86.4" fill="#000000" y="-7.2" height="86.4" fill-opacity="0.2471"/></g></mask><clipPath id="50a20d9443"><path d="M 0.472656 0.0859375 L 42 0.0859375 L 42 0.503906 L 0.472656 0.503906 Z M 0.472656 0.0859375 " clip-rule="nonzero"/></clipPath><clipPath id="a54d261650"><rect x="0" width="42" y="0" height="1"/></clipPath><clipPath id="c9343221b3"><path d="M 30.472656 60.46875 L 72 60.46875 L 72 60.882812 L 30.472656 60.882812 Z M 30.472656 60.46875 " clip-rule="nonzero"/></clipPath><mask id="a708b1edd1"><g filter="url(#7353bdd4db)"><rect x="-7.2" width="86.4" fill="#000000" y="-7.2" height="86.4" fill-opacity="0.6"/></g></mask><clipPath id="9218c8b68c"><path d="M 0.472656 0.46875 L 42 0.46875 L 42 0.882812 L 0.472656 0.882812 Z M 0.472656 0.46875 " clip-rule="nonzero"/></clipPath><clipPath id="cded33f88a"><rect x="0" width="42" y="0" height="1"/></clipPath><clipPath id="a0f19f5068"><path d="M 30.472656 29.214844 L 33.878906 29.214844 L 33.878906 60.675781 L 30.472656 60.675781 Z M 30.472656 29.214844 " clip-rule="nonzero"/></clipPath><clipPath id="7ba57edbf5"><path d="M 30.472656 60.675781 L 30.472656 29.621094 C 30.472656 29.550781 30.5 29.480469 30.550781 29.429688 C 30.601562 29.382812 30.667969 29.355469 30.738281 29.355469 L 33.527344 29.355469 C 33.601562 29.355469 33.667969 29.382812 33.71875 29.429688 C 33.765625 29.480469 33.796875 29.550781 33.796875 29.621094 L 33.796875 60.675781 L 30.472656 60.675781 " clip-rule="nonzero"/></clipPath><clipPath id="55dcc54f1c"><path d="M 38.90625 39.648438 L 42.316406 39.648438 L 42.316406 60.675781 L 38.90625 60.675781 Z M 38.90625 39.648438 " clip-rule="nonzero"/></clipPath><clipPath id="16b987c13b"><path d="M 38.984375 60.675781 L 38.984375 40.011719 C 38.984375 39.941406 39.015625 39.875 39.0625 39.824219 C 39.113281 39.777344 39.179688 39.746094 39.25 39.746094 L 42.042969 39.746094 C 42.113281 39.746094 42.179688 39.777344 42.230469 39.824219 C 42.28125 39.875 42.308594 39.941406 42.308594 40.011719 L 42.308594 60.675781 L 38.984375 60.675781 " clip-rule="nonzero"/></clipPath><clipPath id="c0dc653783"><path d="M 47.34375 29.214844 L 50.910156 29.214844 L 50.910156 60.675781 L 47.34375 60.675781 Z M 47.34375 29.214844 " clip-rule="nonzero"/></clipPath><clipPath id="68a2315f6a"><path d="M 47.5 60.675781 L 47.5 29.589844 C 47.5 29.519531 47.527344 29.453125 47.578125 29.402344 C 47.625 29.351562 47.695312 29.324219 47.765625 29.324219 L 50.554688 29.324219 C 50.625 29.324219 50.695312 29.351562 50.742188 29.402344 C 50.792969 29.453125 50.820312 29.519531 50.820312 29.589844 L 50.820312 60.675781 L 47.5 60.675781 " clip-rule="nonzero"/></clipPath><clipPath id="b0bc4b55ae"><path d="M 56 44.863281 L 59.347656 44.863281 L 59.347656 60.675781 L 56 60.675781 Z M 56 44.863281 " clip-rule="nonzero"/></clipPath><clipPath id="1941359c3f"><path d="M 56.011719 60.675781 L 56.011719 45.246094 C 56.011719 45.175781 56.039062 45.109375 56.089844 45.058594 C 56.140625 45.007812 56.207031 44.980469 56.277344 44.980469 L 59.070312 44.980469 C 59.140625 44.980469 59.207031 45.007812 59.257812 45.058594 C 59.304688 45.109375 59.335938 45.175781 59.335938 45.246094 L 59.335938 60.675781 L 56.011719 60.675781 " clip-rule="nonzero"/></clipPath><clipPath id="c536b88a85"><path d="M 64.375 18.941406 L 67.945312 18.941406 L 67.945312 60.675781 L 64.375 60.675781 Z M 64.375 18.941406 " clip-rule="nonzero"/></clipPath><clipPath id="0121c1b578"><path d="M 64.523438 60.675781 L 64.523438 19.207031 C 64.523438 19.136719 64.554688 19.070312 64.601562 19.019531 C 64.652344 18.96875 64.71875 18.941406 64.789062 18.941406 L 67.582031 18.941406 C 67.652344 18.941406 67.71875 18.96875 67.769531 19.019531 C 67.820312 19.070312 67.847656 19.136719 67.847656 19.207031 L 67.847656 60.675781 L 64.523438 60.675781 " clip-rule="nonzero"/></clipPath><clipPath id="b27dca8d18"><path d="M 34.527344 24 L 38 24 L 38 60.675781 L 34.527344 60.675781 Z M 34.527344 24 " clip-rule="nonzero"/></clipPath><clipPath id="6f734e83ef"><path d="M 34.625 60.675781 L 34.625 24.398438 C 34.625 24.328125 34.652344 24.261719 34.703125 24.210938 C 34.753906 24.160156 34.820312 24.132812 34.890625 24.132812 L 37.683594 24.132812 C 37.753906 24.132812 37.820312 24.160156 37.871094 24.210938 C 37.917969 24.261719 37.949219 24.328125 37.949219 24.398438 L 37.949219 60.675781 L 34.625 60.675781 " clip-rule="nonzero"/></clipPath><clipPath id="f6717f7533"><path d="M 43.125 34.429688 L 46.53125 34.429688 L 46.53125 60.675781 L 43.125 60.675781 Z M 43.125 34.429688 " clip-rule="nonzero"/></clipPath><clipPath id="776f8c7d92"><path d="M 43.136719 60.675781 L 43.136719 34.78125 C 43.136719 34.710938 43.167969 34.644531 43.214844 34.59375 C 43.265625 34.542969 43.332031 34.515625 43.40625 34.515625 L 46.195312 34.515625 C 46.265625 34.515625 46.332031 34.542969 46.382812 34.59375 C 46.433594 34.644531 46.460938 34.710938 46.460938 34.78125 L 46.460938 60.675781 L 43.136719 60.675781 " clip-rule="nonzero"/></clipPath><clipPath id="468de31246"><path d="M 51.5625 39.648438 L 55 39.648438 L 55 60.675781 L 51.5625 60.675781 Z M 51.5625 39.648438 " clip-rule="nonzero"/></clipPath><clipPath id="b03257b78f"><path d="M 51.652344 60.675781 L 51.652344 40.039062 C 51.652344 39.96875 51.679688 39.902344 51.730469 39.851562 C 51.78125 39.804688 51.847656 39.773438 51.917969 39.773438 L 54.707031 39.773438 C 54.777344 39.773438 54.847656 39.804688 54.894531 39.851562 C 54.945312 39.902344 54.972656 39.96875 54.972656 40.039062 L 54.972656 60.675781 L 51.652344 60.675781 " clip-rule="nonzero"/></clipPath><clipPath id="28d345c839"><path d="M 60.160156 34.429688 L 63.566406 34.429688 L 63.566406 60.675781 L 60.160156 60.675781 Z M 60.160156 34.429688 " clip-rule="nonzero"/></clipPath><clipPath id="9efc888a48"><path d="M 60.164062 60.675781 L 60.164062 34.78125 C 60.164062 34.710938 60.191406 34.644531 60.242188 34.59375 C 60.292969 34.542969 60.359375 34.515625 60.429688 34.515625 L 63.222656 34.515625 C 63.292969 34.515625 63.359375 34.542969 63.410156 34.59375 C 63.457031 34.644531 63.488281 34.710938 63.488281 34.78125 L 63.488281 60.675781 L 60.164062 60.675781 " clip-rule="nonzero"/></clipPath><clipPath id="1e9d5a7498"><path d="M 68.59375 24.160156 L 72 24.160156 L 72 60.675781 L 68.59375 60.675781 Z M 68.59375 24.160156 " clip-rule="nonzero"/></clipPath><clipPath id="791b90d88d"><path d="M 68.679688 60.675781 L 68.679688 24.425781 C 68.679688 24.355469 68.707031 24.285156 68.753906 24.238281 C 68.804688 24.1875 68.875 24.160156 68.945312 24.160156 L 71.734375 24.160156 C 71.804688 24.160156 71.871094 24.1875 71.921875 24.238281 C 71.972656 24.285156 72 24.355469 72 24.425781 L 72 60.675781 L 68.679688 60.675781 " clip-rule="nonzero"/></clipPath></defs><g fill="#231f20" fill-opacity="1"><g transform="translate(41.870053, 3.323734)"><g><path d="M 1.734375 -0.75 C 1.734375 -0.851562 1.691406 -0.9375 1.609375 -1 C 1.535156 -1.0625 1.394531 -1.125 1.1875 -1.1875 C 0.988281 -1.25 0.828125 -1.316406 0.703125 -1.390625 C 0.378906 -1.554688 0.21875 -1.789062 0.21875 -2.09375 C 0.21875 -2.238281 0.257812 -2.375 0.34375 -2.5 C 0.4375 -2.625 0.5625 -2.71875 0.71875 -2.78125 C 0.882812 -2.851562 1.066406 -2.890625 1.265625 -2.890625 C 1.472656 -2.890625 1.65625 -2.847656 1.8125 -2.765625 C 1.96875 -2.691406 2.085938 -2.585938 2.171875 -2.453125 C 2.265625 -2.328125 2.3125 -2.175781 2.3125 -2 L 1.734375 -2 C 1.734375 -2.132812 1.691406 -2.238281 1.609375 -2.3125 C 1.523438 -2.382812 1.410156 -2.421875 1.265625 -2.421875 C 1.117188 -2.421875 1.003906 -2.390625 0.921875 -2.328125 C 0.847656 -2.265625 0.8125 -2.1875 0.8125 -2.09375 C 0.8125 -2 0.859375 -1.921875 0.953125 -1.859375 C 1.046875 -1.796875 1.179688 -1.734375 1.359375 -1.671875 C 1.691406 -1.578125 1.929688 -1.453125 2.078125 -1.296875 C 2.234375 -1.148438 2.3125 -0.96875 2.3125 -0.75 C 2.3125 -0.5 2.21875 -0.300781 2.03125 -0.15625 C 1.851562 -0.0195312 1.601562 0.046875 1.28125 0.046875 C 1.0625 0.046875 0.863281 0.00390625 0.6875 -0.078125 C 0.507812 -0.160156 0.375 -0.269531 0.28125 -0.40625 C 0.1875 -0.550781 0.140625 -0.710938 0.140625 -0.890625 L 0.71875 -0.890625 C 0.71875 -0.578125 0.90625 -0.421875 1.28125 -0.421875 C 1.425781 -0.421875 1.535156 -0.445312 1.609375 -0.5 C 1.691406 -0.5625 1.734375 -0.644531 1.734375 -0.75 Z M 1.265625 -3.328125 L 1.546875 -3.609375 L 2.03125 -3.609375 L 2.03125 -3.59375 L 1.4375 -3.046875 L 1.078125 -3.046875 L 0.5 -3.59375 L 0.5 -3.609375 L 0.984375 -3.609375 Z M 1.265625 -3.328125 "/></g></g></g><g fill="#231f20" fill-opacity="1"><g transform="translate(44.32719, 3.323734)"><g><path d="M 0.984375 -0.84375 L 0.78125 -0.640625 L 0.78125 0 L 0.21875 0 L 0.21875 -3 L 0.78125 -3 L 0.78125 -1.34375 L 0.890625 -1.484375 L 1.4375 -2.109375 L 2.109375 -2.109375 L 1.34375 -1.234375 L 2.171875 0 L 1.53125 0 Z M 0.984375 -0.84375 "/></g></g></g><g fill="#231f20" fill-opacity="1"><g transform="translate(46.462303, 3.323734)"><g><path d="M 0.125 -1.078125 C 0.125 -1.285156 0.164062 -1.472656 0.25 -1.640625 C 0.332031 -1.804688 0.445312 -1.929688 0.59375 -2.015625 C 0.75 -2.109375 0.925781 -2.15625 1.125 -2.15625 C 1.414062 -2.15625 1.648438 -2.066406 1.828125 -1.890625 C 2.003906 -1.710938 2.101562 -1.476562 2.125 -1.1875 L 2.125 -1.03125 C 2.125 -0.707031 2.035156 -0.445312 1.859375 -0.25 C 1.679688 -0.0507812 1.4375 0.046875 1.125 0.046875 C 0.820312 0.046875 0.578125 -0.0507812 0.390625 -0.25 C 0.210938 -0.445312 0.125 -0.710938 0.125 -1.046875 Z M 0.6875 -1.03125 C 0.6875 -0.832031 0.722656 -0.679688 0.796875 -0.578125 C 0.878906 -0.472656 0.988281 -0.421875 1.125 -0.421875 C 1.269531 -0.421875 1.378906 -0.472656 1.453125 -0.578125 C 1.523438 -0.679688 1.5625 -0.847656 1.5625 -1.078125 C 1.5625 -1.273438 1.523438 -1.425781 1.453125 -1.53125 C 1.378906 -1.644531 1.269531 -1.703125 1.125 -1.703125 C 0.988281 -1.703125 0.878906 -1.644531 0.796875 -1.53125 C 0.722656 -1.425781 0.6875 -1.257812 0.6875 -1.03125 Z M 0.6875 -1.03125 "/></g></g></g><g fill="#231f20" fill-opacity="1"><g transform="translate(48.722323, 3.323734)"><g><path d="M 0.8125 0 L 0.25 0 L 0.25 -3 L 0.8125 -3 Z M 0.8125 0 "/></g></g></g><g fill="#231f20" fill-opacity="1"><g transform="translate(49.782073, 3.323734)"><g><path d="M 1.4375 0 C 1.414062 -0.0507812 1.398438 -0.113281 1.390625 -0.1875 C 1.253906 -0.03125 1.078125 0.046875 0.859375 0.046875 C 0.648438 0.046875 0.476562 -0.015625 0.34375 -0.140625 C 0.207031 -0.265625 0.140625 -0.414062 0.140625 -0.59375 C 0.140625 -0.820312 0.21875 -0.992188 0.375 -1.109375 C 0.539062 -1.234375 0.785156 -1.296875 1.109375 -1.296875 L 1.359375 -1.296875 L 1.359375 -1.40625 C 1.359375 -1.507812 1.332031 -1.585938 1.28125 -1.640625 C 1.238281 -1.703125 1.160156 -1.734375 1.046875 -1.734375 C 0.953125 -1.734375 0.878906 -1.707031 0.828125 -1.65625 C 0.773438 -1.613281 0.75 -1.554688 0.75 -1.484375 L 0.1875 -1.484375 C 0.1875 -1.597656 0.222656 -1.707031 0.296875 -1.8125 C 0.367188 -1.914062 0.472656 -2 0.609375 -2.0625 C 0.753906 -2.125 0.910156 -2.15625 1.078125 -2.15625 C 1.335938 -2.15625 1.539062 -2.085938 1.6875 -1.953125 C 1.84375 -1.828125 1.921875 -1.644531 1.921875 -1.40625 L 1.921875 -0.484375 C 1.929688 -0.285156 1.960938 -0.132812 2.015625 -0.03125 L 2.015625 0 Z M 0.96875 -0.390625 C 1.050781 -0.390625 1.128906 -0.40625 1.203125 -0.4375 C 1.273438 -0.476562 1.328125 -0.53125 1.359375 -0.59375 L 1.359375 -0.96875 L 1.15625 -0.96875 C 0.875 -0.96875 0.722656 -0.867188 0.703125 -0.671875 L 0.703125 -0.640625 C 0.703125 -0.566406 0.722656 -0.503906 0.765625 -0.453125 C 0.816406 -0.410156 0.882812 -0.390625 0.96875 -0.390625 Z M 0.96875 -0.390625 "/></g></g></g><g fill="#231f20" fill-opacity="1"><g transform="translate(51.924993, 3.323734)"><g/></g></g><g fill="#231f20" fill-opacity="1"><g transform="translate(52.920338, 3.323734)"><g><path d="M 1.859375 -0.59375 L 0.828125 -0.59375 L 0.640625 0 L 0.015625 0 L 1.078125 -2.84375 L 1.609375 -2.84375 L 2.6875 0 L 2.0625 0 Z M 0.984375 -1.0625 L 1.703125 -1.0625 L 1.34375 -2.125 Z M 0.984375 -1.0625 "/></g></g></g><g fill="#231f20" fill-opacity="1"><g transform="translate(41.870053, 8.307001)"><g><path d="M 1.734375 -0.75 C 1.734375 -0.851562 1.691406 -0.9375 1.609375 -1 C 1.535156 -1.0625 1.394531 -1.125 1.1875 -1.1875 C 0.988281 -1.25 0.828125 -1.316406 0.703125 -1.390625 C 0.378906 -1.554688 0.21875 -1.789062 0.21875 -2.09375 C 0.21875 -2.238281 0.257812 -2.375 0.34375 -2.5 C 0.4375 -2.625 0.5625 -2.71875 0.71875 -2.78125 C 0.882812 -2.851562 1.066406 -2.890625 1.265625 -2.890625 C 1.472656 -2.890625 1.65625 -2.847656 1.8125 -2.765625 C 1.96875 -2.691406 2.085938 -2.585938 2.171875 -2.453125 C 2.265625 -2.328125 2.3125 -2.175781 2.3125 -2 L 1.734375 -2 C 1.734375 -2.132812 1.691406 -2.238281 1.609375 -2.3125 C 1.523438 -2.382812 1.410156 -2.421875 1.265625 -2.421875 C 1.117188 -2.421875 1.003906 -2.390625 0.921875 -2.328125 C 0.847656 -2.265625 0.8125 -2.1875 0.8125 -2.09375 C 0.8125 -2 0.859375 -1.921875 0.953125 -1.859375 C 1.046875 -1.796875 1.179688 -1.734375 1.359375 -1.671875 C 1.691406 -1.578125 1.929688 -1.453125 2.078125 -1.296875 C 2.234375 -1.148438 2.3125 -0.96875 2.3125 -0.75 C 2.3125 -0.5 2.21875 -0.300781 2.03125 -0.15625 C 1.851562 -0.0195312 1.601562 0.046875 1.28125 0.046875 C 1.0625 0.046875 0.863281 0.00390625 0.6875 -0.078125 C 0.507812 -0.160156 0.375 -0.269531 0.28125 -0.40625 C 0.1875 -0.550781 0.140625 -0.710938 0.140625 -0.890625 L 0.71875 -0.890625 C 0.71875 -0.578125 0.90625 -0.421875 1.28125 -0.421875 C 1.425781 -0.421875 1.535156 -0.445312 1.609375 -0.5 C 1.691406 -0.5625 1.734375 -0.644531 1.734375 -0.75 Z M 1.265625 -3.328125 L 1.546875 -3.609375 L 2.03125 -3.609375 L 2.03125 -3.59375 L 1.4375 -3.046875 L 1.078125 -3.046875 L 0.5 -3.59375 L 0.5 -3.609375 L 0.984375 -3.609375 Z M 1.265625 -3.328125 "/></g></g></g><g fill="#231f20" fill-opacity="1"><g transform="translate(44.32719, 8.307001)"><g><path d="M 0.984375 -0.84375 L 0.78125 -0.640625 L 0.78125 0 L 0.21875 0 L 0.21875 -3 L 0.78125 -3 L 0.78125 -1.34375 L 0.890625 -1.484375 L 1.4375 -2.109375 L 2.109375 -2.109375 L 1.34375 -1.234375 L 2.171875 0 L 1.53125 0 Z M 0.984375 -0.84375 "/></g></g></g><g fill="#231f20" fill-opacity="1"><g transform="translate(46.462303, 8.307001)"><g><path d="M 0.125 -1.078125 C 0.125 -1.285156 0.164062 -1.472656 0.25 -1.640625 C 0.332031 -1.804688 0.445312 -1.929688 0.59375 -2.015625 C 0.75 -2.109375 0.925781 -2.15625 1.125 -2.15625 C 1.414062 -2.15625 1.648438 -2.066406 1.828125 -1.890625 C 2.003906 -1.710938 2.101562 -1.476562 2.125 -1.1875 L 2.125 -1.03125 C 2.125 -0.707031 2.035156 -0.445312 1.859375 -0.25 C 1.679688 -0.0507812 1.4375 0.046875 1.125 0.046875 C 0.820312 0.046875 0.578125 -0.0507812 0.390625 -0.25 C 0.210938 -0.445312 0.125 -0.710938 0.125 -1.046875 Z M 0.6875 -1.03125 C 0.6875 -0.832031 0.722656 -0.679688 0.796875 -0.578125 C 0.878906 -0.472656 0.988281 -0.421875 1.125 -0.421875 C 1.269531 -0.421875 1.378906 -0.472656 1.453125 -0.578125 C 1.523438 -0.679688 1.5625 -0.847656 1.5625 -1.078125 C 1.5625 -1.273438 1.523438 -1.425781 1.453125 -1.53125 C 1.378906 -1.644531 1.269531 -1.703125 1.125 -1.703125 C 0.988281 -1.703125 0.878906 -1.644531 0.796875 -1.53125 C 0.722656 -1.425781 0.6875 -1.257812 0.6875 -1.03125 Z M 0.6875 -1.03125 "/></g></g></g><g fill="#231f20" fill-opacity="1"><g transform="translate(48.722323, 8.307001)"><g><path d="M 0.8125 0 L 0.25 0 L 0.25 -3 L 0.8125 -3 Z M 0.8125 0 "/></g></g></g><g fill="#231f20" fill-opacity="1"><g transform="translate(49.782073, 8.307001)"><g><path d="M 1.4375 0 C 1.414062 -0.0507812 1.398438 -0.113281 1.390625 -0.1875 C 1.253906 -0.03125 1.078125 0.046875 0.859375 0.046875 C 0.648438 0.046875 0.476562 -0.015625 0.34375 -0.140625 C 0.207031 -0.265625 0.140625 -0.414062 0.140625 -0.59375 C 0.140625 -0.820312 0.21875 -0.992188 0.375 -1.109375 C 0.539062 -1.234375 0.785156 -1.296875 1.109375 -1.296875 L 1.359375 -1.296875 L 1.359375 -1.40625 C 1.359375 -1.507812 1.332031 -1.585938 1.28125 -1.640625 C 1.238281 -1.703125 1.160156 -1.734375 1.046875 -1.734375 C 0.953125 -1.734375 0.878906 -1.707031 0.828125 -1.65625 C 0.773438 -1.613281 0.75 -1.554688 0.75 -1.484375 L 0.1875 -1.484375 C 0.1875 -1.597656 0.222656 -1.707031 0.296875 -1.8125 C 0.367188 -1.914062 0.472656 -2 0.609375 -2.0625 C 0.753906 -2.125 0.910156 -2.15625 1.078125 -2.15625 C 1.335938 -2.15625 1.539062 -2.085938 1.6875 -1.953125 C 1.84375 -1.828125 1.921875 -1.644531 1.921875 -1.40625 L 1.921875 -0.484375 C 1.929688 -0.285156 1.960938 -0.132812 2.015625 -0.03125 L 2.015625 0 Z M 0.96875 -0.390625 C 1.050781 -0.390625 1.128906 -0.40625 1.203125 -0.4375 C 1.273438 -0.476562 1.328125 -0.53125 1.359375 -0.59375 L 1.359375 -0.96875 L 1.15625 -0.96875 C 0.875 -0.96875 0.722656 -0.867188 0.703125 -0.671875 L 0.703125 -0.640625 C 0.703125 -0.566406 0.722656 -0.503906 0.765625 -0.453125 C 0.816406 -0.410156 0.882812 -0.390625 0.96875 -0.390625 Z M 0.96875 -0.390625 "/></g></g></g><g fill="#231f20" fill-opacity="1"><g transform="translate(51.924993, 8.307001)"><g/></g></g><g fill="#231f20" fill-opacity="1"><g transform="translate(52.920338, 8.307001)"><g><path d="M 0.25 0 L 0.25 -2.84375 L 1.25 -2.84375 C 1.59375 -2.84375 1.851562 -2.773438 2.03125 -2.640625 C 2.207031 -2.515625 2.296875 -2.320312 2.296875 -2.0625 C 2.296875 -1.925781 2.257812 -1.800781 2.1875 -1.6875 C 2.125 -1.582031 2.023438 -1.507812 1.890625 -1.46875 C 2.035156 -1.425781 2.148438 -1.347656 2.234375 -1.234375 C 2.328125 -1.128906 2.375 -1 2.375 -0.84375 C 2.375 -0.5625 2.285156 -0.347656 2.109375 -0.203125 C 1.929688 -0.0664062 1.679688 0 1.359375 0 Z M 0.84375 -1.234375 L 0.84375 -0.46875 L 1.34375 -0.46875 C 1.476562 -0.46875 1.582031 -0.5 1.65625 -0.5625 C 1.738281 -0.632812 1.78125 -0.726562 1.78125 -0.84375 C 1.78125 -1.101562 1.644531 -1.234375 1.375 -1.234375 Z M 0.84375 -1.65625 L 1.28125 -1.65625 C 1.570312 -1.65625 1.71875 -1.769531 1.71875 -2 C 1.71875 -2.132812 1.679688 -2.226562 1.609375 -2.28125 C 1.535156 -2.34375 1.414062 -2.375 1.25 -2.375 L 0.84375 -2.375 Z M 0.84375 -1.65625 "/></g></g></g><g clip-path="url(#50a6d2f13d)"><g clip-path="url(#32d3537550)"><path fill="#a8180f" d="M 31.902344 -0.015625 L 36.886719 -0.015625 L 36.886719 9.953125 L 31.902344 9.953125 Z M 31.902344 -0.015625 " fill-opacity="1" fill-rule="nonzero"/></g></g><g clip-path="url(#81a4ab7dfd)"><g clip-path="url(#a6d6e587cf)"><path fill="#17191a" d="M 31.902344 -0.015625 L 36.886719 -0.015625 L 36.886719 9.953125 L 31.902344 9.953125 Z M 31.902344 -0.015625 " fill-opacity="1" fill-rule="nonzero"/></g></g><g fill="#231f20" fill-opacity="1"><g transform="translate(31.566105, 70.71549)"><g><path d="M -0.109375 -1.296875 L 0.59375 -0.59375 L 0.171875 -0.171875 L -1.84375 -2.1875 L -1.046875 -2.984375 C -0.898438 -3.128906 -0.738281 -3.226562 -0.5625 -3.28125 C -0.394531 -3.34375 -0.226562 -3.351562 -0.0625 -3.3125 C 0.101562 -3.269531 0.25 -3.1875 0.375 -3.0625 C 0.570312 -2.863281 0.660156 -2.640625 0.640625 -2.390625 C 0.617188 -2.140625 0.492188 -1.898438 0.265625 -1.671875 Z M -0.453125 -1.640625 L -0.078125 -2.015625 C 0.0234375 -2.117188 0.078125 -2.222656 0.078125 -2.328125 C 0.0859375 -2.441406 0.046875 -2.546875 -0.046875 -2.640625 C -0.140625 -2.734375 -0.242188 -2.78125 -0.359375 -2.78125 C -0.484375 -2.789062 -0.597656 -2.742188 -0.703125 -2.640625 L -1.078125 -2.265625 Z M -0.453125 -1.640625 "/></g></g></g><g fill="#231f20" fill-opacity="1"><g transform="translate(33.389125, 68.89247)"><g><path d="M -0.671875 -0.859375 C -0.816406 -1.003906 -0.921875 -1.164062 -0.984375 -1.34375 C -1.046875 -1.519531 -1.054688 -1.691406 -1.015625 -1.859375 C -0.972656 -2.023438 -0.878906 -2.179688 -0.734375 -2.328125 C -0.523438 -2.535156 -0.296875 -2.640625 -0.046875 -2.640625 C 0.203125 -2.640625 0.4375 -2.539062 0.65625 -2.34375 L 0.765625 -2.234375 C 0.992188 -2.003906 1.113281 -1.753906 1.125 -1.484375 C 1.144531 -1.222656 1.046875 -0.984375 0.828125 -0.765625 C 0.609375 -0.546875 0.363281 -0.441406 0.09375 -0.453125 C -0.164062 -0.472656 -0.410156 -0.597656 -0.640625 -0.828125 Z M -0.25 -1.21875 C -0.101562 -1.070312 0.03125 -0.988281 0.15625 -0.96875 C 0.289062 -0.957031 0.40625 -1 0.5 -1.09375 C 0.601562 -1.195312 0.644531 -1.3125 0.625 -1.4375 C 0.601562 -1.5625 0.507812 -1.707031 0.34375 -1.875 C 0.207031 -2.007812 0.078125 -2.085938 -0.046875 -2.109375 C -0.179688 -2.140625 -0.300781 -2.101562 -0.40625 -2 C -0.5 -1.90625 -0.535156 -1.789062 -0.515625 -1.65625 C -0.492188 -1.519531 -0.40625 -1.375 -0.25 -1.21875 Z M -0.25 -1.21875 "/></g></g></g><g fill="#231f20" fill-opacity="1"><g transform="translate(34.987201, 67.294395)"><g><path d="M -0.96875 -2 L -0.796875 -1.859375 C -0.816406 -2.109375 -0.738281 -2.320312 -0.5625 -2.5 C -0.40625 -2.65625 -0.238281 -2.722656 -0.0625 -2.703125 C 0.101562 -2.691406 0.28125 -2.59375 0.46875 -2.40625 L 1.4375 -1.4375 L 1.03125 -1.03125 L 0.0625 -2 C -0.0078125 -2.070312 -0.0820312 -2.109375 -0.15625 -2.109375 C -0.226562 -2.109375 -0.304688 -2.066406 -0.390625 -1.984375 C -0.503906 -1.867188 -0.539062 -1.738281 -0.5 -1.59375 L 0.546875 -0.546875 L 0.140625 -0.140625 L -1.34375 -1.625 Z M -0.96875 -2 "/></g></g></g><g fill="#231f20" fill-opacity="1"><g transform="translate(40.671059, 70.123619)"><g><path d="M -0.3125 -3.71875 L 1.015625 -2.390625 C 1.234375 -2.171875 1.335938 -1.925781 1.328125 -1.65625 C 1.328125 -1.394531 1.203125 -1.140625 0.953125 -0.890625 C 0.722656 -0.660156 0.476562 -0.539062 0.21875 -0.53125 C -0.0390625 -0.519531 -0.28125 -0.625 -0.5 -0.84375 L -1.84375 -2.1875 L -1.4375 -2.59375 L -0.109375 -1.265625 C 0.0234375 -1.128906 0.148438 -1.0625 0.265625 -1.0625 C 0.390625 -1.070312 0.503906 -1.128906 0.609375 -1.234375 C 0.847656 -1.472656 0.847656 -1.710938 0.609375 -1.953125 L -0.734375 -3.296875 Z M -0.3125 -3.71875 "/></g></g></g><g fill="#231f20" fill-opacity="1"><g transform="translate(42.53134, 68.263338)"><g><path d="M -1.234375 -2.484375 L -0.859375 -2.109375 L -0.59375 -2.375 L -0.3125 -2.09375 L -0.578125 -1.828125 L 0.171875 -1.078125 C 0.222656 -1.023438 0.273438 -1 0.328125 -1 C 0.378906 -1 0.429688 -1.023438 0.484375 -1.078125 C 0.523438 -1.117188 0.5625 -1.164062 0.59375 -1.21875 L 0.890625 -0.921875 C 0.835938 -0.804688 0.769531 -0.707031 0.6875 -0.625 C 0.414062 -0.351562 0.132812 -0.351562 -0.15625 -0.625 L -0.96875 -1.4375 L -1.1875 -1.21875 L -1.46875 -1.5 L -1.25 -1.71875 L -1.625 -2.09375 Z M -1.234375 -2.484375 "/></g></g></g><g fill="#231f20" fill-opacity="1"><g transform="translate(43.486321, 67.308357)"><g><path d="M -0.671875 -0.859375 C -0.816406 -1.003906 -0.921875 -1.164062 -0.984375 -1.34375 C -1.046875 -1.519531 -1.054688 -1.691406 -1.015625 -1.859375 C -0.972656 -2.023438 -0.878906 -2.179688 -0.734375 -2.328125 C -0.523438 -2.535156 -0.296875 -2.640625 -0.046875 -2.640625 C 0.203125 -2.640625 0.4375 -2.539062 0.65625 -2.34375 L 0.765625 -2.234375 C 0.992188 -2.003906 1.113281 -1.753906 1.125 -1.484375 C 1.144531 -1.222656 1.046875 -0.984375 0.828125 -0.765625 C 0.609375 -0.546875 0.363281 -0.441406 0.09375 -0.453125 C -0.164062 -0.472656 -0.410156 -0.597656 -0.640625 -0.828125 Z M -0.25 -1.21875 C -0.101562 -1.070312 0.03125 -0.988281 0.15625 -0.96875 C 0.289062 -0.957031 0.40625 -1 0.5 -1.09375 C 0.601562 -1.195312 0.644531 -1.3125 0.625 -1.4375 C 0.601562 -1.5625 0.507812 -1.707031 0.34375 -1.875 C 0.207031 -2.007812 0.078125 -2.085938 -0.046875 -2.109375 C -0.179688 -2.140625 -0.300781 -2.101562 -0.40625 -2 C -0.5 -1.90625 -0.535156 -1.789062 -0.515625 -1.65625 C -0.492188 -1.519531 -0.40625 -1.375 -0.25 -1.21875 Z M -0.25 -1.21875 "/></g></g></g><g fill="#231f20" fill-opacity="1"><g transform="translate(50.078826, 69.228923)"><g><path d="M 0.6875 -1.75 C 0.613281 -1.820312 0.53125 -1.851562 0.4375 -1.84375 C 0.34375 -1.832031 0.195312 -1.773438 0 -1.671875 C -0.1875 -1.578125 -0.347656 -1.515625 -0.484375 -1.484375 C -0.828125 -1.367188 -1.109375 -1.421875 -1.328125 -1.640625 C -1.429688 -1.742188 -1.492188 -1.867188 -1.515625 -2.015625 C -1.546875 -2.171875 -1.523438 -2.328125 -1.453125 -2.484375 C -1.390625 -2.648438 -1.289062 -2.800781 -1.15625 -2.9375 C -1.007812 -3.082031 -0.847656 -3.179688 -0.671875 -3.234375 C -0.503906 -3.296875 -0.34375 -3.3125 -0.1875 -3.28125 C -0.0390625 -3.257812 0.09375 -3.1875 0.21875 -3.0625 L -0.203125 -2.640625 C -0.296875 -2.734375 -0.394531 -2.773438 -0.5 -2.765625 C -0.613281 -2.765625 -0.722656 -2.710938 -0.828125 -2.609375 C -0.929688 -2.503906 -0.984375 -2.398438 -0.984375 -2.296875 C -0.992188 -2.203125 -0.96875 -2.125 -0.90625 -2.0625 C -0.832031 -1.988281 -0.742188 -1.960938 -0.640625 -1.984375 C -0.535156 -2.003906 -0.394531 -2.0625 -0.21875 -2.15625 C 0.0820312 -2.3125 0.335938 -2.390625 0.546875 -2.390625 C 0.765625 -2.398438 0.953125 -2.328125 1.109375 -2.171875 C 1.285156 -1.992188 1.359375 -1.789062 1.328125 -1.5625 C 1.296875 -1.332031 1.164062 -1.101562 0.9375 -0.875 C 0.78125 -0.71875 0.609375 -0.601562 0.421875 -0.53125 C 0.242188 -0.46875 0.0703125 -0.453125 -0.09375 -0.484375 C -0.257812 -0.515625 -0.40625 -0.59375 -0.53125 -0.71875 L -0.109375 -1.140625 C 0.109375 -0.921875 0.347656 -0.941406 0.609375 -1.203125 C 0.710938 -1.304688 0.769531 -1.40625 0.78125 -1.5 C 0.789062 -1.59375 0.757812 -1.675781 0.6875 -1.75 Z M 0.6875 -1.75 "/></g></g></g><g fill="#231f20" fill-opacity="1"><g transform="translate(51.816285, 67.491465)"><g><path d="M -0.109375 -2.109375 C -0.171875 -2.066406 -0.226562 -2.019531 -0.28125 -1.96875 C -0.425781 -1.820312 -0.476562 -1.675781 -0.4375 -1.53125 L 0.546875 -0.546875 L 0.15625 -0.15625 L -1.328125 -1.640625 L -0.953125 -2.015625 L -0.765625 -1.859375 C -0.835938 -2.078125 -0.800781 -2.257812 -0.65625 -2.40625 C -0.613281 -2.445312 -0.5625 -2.476562 -0.5 -2.5 Z M -0.109375 -2.109375 "/></g></g></g><g fill="#231f20" fill-opacity="1"><g transform="translate(52.847167, 66.460582)"><g><path d="M 0.578125 -0.578125 L 0.171875 -0.171875 L -1.3125 -1.65625 L -0.90625 -2.0625 Z M -1.71875 -2.03125 C -1.78125 -2.09375 -1.8125 -2.164062 -1.8125 -2.25 C -1.8125 -2.332031 -1.78125 -2.40625 -1.71875 -2.46875 C -1.65625 -2.53125 -1.582031 -2.5625 -1.5 -2.5625 C -1.414062 -2.5625 -1.34375 -2.53125 -1.28125 -2.46875 C -1.226562 -2.414062 -1.203125 -2.347656 -1.203125 -2.265625 C -1.203125 -2.179688 -1.234375 -2.109375 -1.296875 -2.046875 C -1.359375 -1.984375 -1.429688 -1.953125 -1.515625 -1.953125 C -1.597656 -1.953125 -1.664062 -1.976562 -1.71875 -2.03125 Z M -1.71875 -2.03125 "/></g></g></g><g fill="#231f20" fill-opacity="1"><g transform="translate(57.775219, 70.045619)"><g><path d="M 1.078125 -2.421875 C 1.285156 -2.191406 1.378906 -1.941406 1.359375 -1.671875 C 1.335938 -1.398438 1.210938 -1.148438 0.984375 -0.921875 C 0.722656 -0.660156 0.429688 -0.546875 0.109375 -0.578125 C -0.210938 -0.609375 -0.523438 -0.773438 -0.828125 -1.078125 L -0.953125 -1.203125 C -1.140625 -1.390625 -1.269531 -1.585938 -1.34375 -1.796875 C -1.425781 -2.015625 -1.445312 -2.226562 -1.40625 -2.4375 C -1.363281 -2.644531 -1.257812 -2.832031 -1.09375 -3 C -0.863281 -3.226562 -0.613281 -3.347656 -0.34375 -3.359375 C -0.0820312 -3.378906 0.171875 -3.285156 0.421875 -3.078125 L 0.015625 -2.671875 C -0.117188 -2.804688 -0.242188 -2.867188 -0.359375 -2.859375 C -0.484375 -2.859375 -0.613281 -2.789062 -0.75 -2.65625 C -0.882812 -2.519531 -0.9375 -2.367188 -0.90625 -2.203125 C -0.875 -2.035156 -0.753906 -1.847656 -0.546875 -1.640625 L -0.390625 -1.484375 C -0.171875 -1.265625 0.015625 -1.132812 0.171875 -1.09375 C 0.335938 -1.0625 0.492188 -1.117188 0.640625 -1.265625 C 0.765625 -1.390625 0.828125 -1.507812 0.828125 -1.625 C 0.835938 -1.75 0.785156 -1.878906 0.671875 -2.015625 Z M -1.40625 -3.3125 L -1.40625 -3.71875 L -1.078125 -4.046875 L -1.0625 -4.03125 L -1.09375 -3.25 L -1.359375 -2.984375 L -2.140625 -2.953125 L -2.15625 -2.96875 L -1.8125 -3.3125 Z M -1.40625 -3.3125 "/></g></g></g><g fill="#231f20" fill-opacity="1"><g transform="translate(59.624459, 68.196378)"><g><path d="M 0.875 -0.8125 C 0.65625 -0.59375 0.40625 -0.476562 0.125 -0.46875 C -0.144531 -0.46875 -0.390625 -0.578125 -0.609375 -0.796875 L -0.65625 -0.84375 C -0.800781 -0.988281 -0.898438 -1.148438 -0.953125 -1.328125 C -1.015625 -1.515625 -1.023438 -1.691406 -0.984375 -1.859375 C -0.953125 -2.035156 -0.867188 -2.191406 -0.734375 -2.328125 C -0.523438 -2.535156 -0.296875 -2.628906 -0.046875 -2.609375 C 0.191406 -2.597656 0.429688 -2.472656 0.671875 -2.234375 L 0.828125 -2.078125 L -0.109375 -1.140625 C -0.00390625 -1.035156 0.109375 -0.988281 0.234375 -1 C 0.359375 -1.007812 0.472656 -1.066406 0.578125 -1.171875 C 0.722656 -1.316406 0.78125 -1.488281 0.75 -1.6875 L 1.171875 -1.671875 C 1.210938 -1.523438 1.203125 -1.375 1.140625 -1.21875 C 1.085938 -1.070312 1 -0.9375 0.875 -0.8125 Z M -0.40625 -2 C -0.488281 -1.914062 -0.523438 -1.820312 -0.515625 -1.71875 C -0.503906 -1.613281 -0.457031 -1.507812 -0.375 -1.40625 L 0.171875 -1.953125 L 0.140625 -1.984375 C 0.0546875 -2.066406 -0.03125 -2.109375 -0.125 -2.109375 C -0.226562 -2.117188 -0.320312 -2.082031 -0.40625 -2 Z M -0.40625 -2 "/></g></g></g><g fill="#231f20" fill-opacity="1"><g transform="translate(61.152153, 66.668684)"><g><path d="M -1.234375 -2.484375 L -0.859375 -2.109375 L -0.59375 -2.375 L -0.3125 -2.09375 L -0.578125 -1.828125 L 0.171875 -1.078125 C 0.222656 -1.023438 0.273438 -1 0.328125 -1 C 0.378906 -1 0.429688 -1.023438 0.484375 -1.078125 C 0.523438 -1.117188 0.5625 -1.164062 0.59375 -1.21875 L 0.890625 -0.921875 C 0.835938 -0.804688 0.769531 -0.707031 0.6875 -0.625 C 0.414062 -0.351562 0.132812 -0.351562 -0.15625 -0.625 L -0.96875 -1.4375 L -1.1875 -1.21875 L -1.46875 -1.5 L -1.25 -1.71875 L -1.625 -2.09375 Z M -1.234375 -2.484375 "/></g></g></g><g fill="#231f20" fill-opacity="1"><g transform="translate(66.315825, 70.018095)"><g><path d="M -0.109375 -1.296875 L 0.59375 -0.59375 L 0.171875 -0.171875 L -1.84375 -2.1875 L -1.046875 -2.984375 C -0.898438 -3.128906 -0.738281 -3.226562 -0.5625 -3.28125 C -0.394531 -3.34375 -0.226562 -3.351562 -0.0625 -3.3125 C 0.101562 -3.269531 0.25 -3.1875 0.375 -3.0625 C 0.570312 -2.863281 0.660156 -2.640625 0.640625 -2.390625 C 0.617188 -2.140625 0.492188 -1.898438 0.265625 -1.671875 Z M -0.453125 -1.640625 L -0.078125 -2.015625 C 0.0234375 -2.117188 0.078125 -2.222656 0.078125 -2.328125 C 0.0859375 -2.441406 0.046875 -2.546875 -0.046875 -2.640625 C -0.140625 -2.734375 -0.242188 -2.78125 -0.359375 -2.78125 C -0.484375 -2.789062 -0.597656 -2.742188 -0.703125 -2.640625 L -1.078125 -2.265625 Z M -0.453125 -1.640625 "/></g></g></g><g fill="#231f20" fill-opacity="1"><g transform="translate(68.138845, 68.195075)"><g><path d="M 0.875 -0.8125 C 0.65625 -0.59375 0.40625 -0.476562 0.125 -0.46875 C -0.144531 -0.46875 -0.390625 -0.578125 -0.609375 -0.796875 L -0.65625 -0.84375 C -0.800781 -0.988281 -0.898438 -1.148438 -0.953125 -1.328125 C -1.015625 -1.515625 -1.023438 -1.691406 -0.984375 -1.859375 C -0.953125 -2.035156 -0.867188 -2.191406 -0.734375 -2.328125 C -0.523438 -2.535156 -0.296875 -2.628906 -0.046875 -2.609375 C 0.191406 -2.597656 0.429688 -2.472656 0.671875 -2.234375 L 0.828125 -2.078125 L -0.109375 -1.140625 C -0.00390625 -1.035156 0.109375 -0.988281 0.234375 -1 C 0.359375 -1.007812 0.472656 -1.066406 0.578125 -1.171875 C 0.722656 -1.316406 0.78125 -1.488281 0.75 -1.6875 L 1.171875 -1.671875 C 1.210938 -1.523438 1.203125 -1.375 1.140625 -1.21875 C 1.085938 -1.070312 1 -0.9375 0.875 -0.8125 Z M -0.40625 -2 C -0.488281 -1.914062 -0.523438 -1.820312 -0.515625 -1.71875 C -0.503906 -1.613281 -0.457031 -1.507812 -0.375 -1.40625 L 0.171875 -1.953125 L 0.140625 -1.984375 C 0.0546875 -2.066406 -0.03125 -2.109375 -0.125 -2.109375 C -0.226562 -2.117188 -0.320312 -2.082031 -0.40625 -2 Z M -0.40625 -2 "/></g></g></g><g fill="#231f20" fill-opacity="1"><g transform="translate(69.666538, 66.667382)"><g><path d="M -1.234375 -2.484375 L -0.859375 -2.109375 L -0.59375 -2.375 L -0.3125 -2.09375 L -0.578125 -1.828125 L 0.171875 -1.078125 C 0.222656 -1.023438 0.273438 -1 0.328125 -1 C 0.378906 -1 0.429688 -1.023438 0.484375 -1.078125 C 0.523438 -1.117188 0.5625 -1.164062 0.59375 -1.21875 L 0.890625 -0.921875 C 0.835938 -0.804688 0.769531 -0.707031 0.6875 -0.625 C 0.414062 -0.351562 0.132812 -0.351562 -0.15625 -0.625 L -0.96875 -1.4375 L -1.1875 -1.21875 L -1.46875 -1.5 L -1.25 -1.71875 L -1.625 -2.09375 Z M -1.234375 -2.484375 "/></g></g></g><g clip-path="url(#fcfc3a46ba)"><g mask="url(#0c220eb37b)"><g transform="matrix(1, 0, 0, 1, 30, 18)"><g clip-path="url(#92b0b4611f)"><g clip-path="url(#02ea6c42c4)"><path fill="#231f20" d="M 0.472656 0.941406 L 42 0.941406 L 42 42.882812 L 0.472656 42.882812 Z M 0.472656 0.941406 " fill-opacity="1" fill-rule="nonzero"/></g></g></g></g></g><g clip-path="url(#dc1cab80a2)"><g mask="url(#a9931a189b)"><g transform="matrix(1, 0, 0, 1, 30, 29)"><g clip-path="url(#4e687ab94c)"><g clip-path="url(#ff91f39f39)"><path fill="#231f20" d="M 0.472656 -10.058594 L 42 -10.058594 L 42 31.882812 L 0.472656 31.882812 Z M 0.472656 -10.058594 " fill-opacity="1" fill-rule="nonzero"/></g></g></g></g></g><g clip-path="url(#4a5a696498)"><g mask="url(#1dabd1cb51)"><g transform="matrix(1, 0, 0, 1, 30, 39)"><g clip-path="url(#efb19d0252)"><g clip-path="url(#2aba9e0d74)"><path fill="#231f20" d="M 0.472656 -20.058594 L 42 -20.058594 L 42 21.882812 L 0.472656 21.882812 Z M 0.472656 -20.058594 " fill-opacity="1" fill-rule="nonzero"/></g></g></g></g></g><g clip-path="url(#b358f09e70)"><g mask="url(#65e06a2a05)"><g transform="matrix(1, 0, 0, 1, 30, 50)"><g clip-path="url(#a54d261650)"><g clip-path="url(#50a20d9443)"><path fill="#231f20" d="M 0.472656 -31.058594 L 42 -31.058594 L 42 10.882812 L 0.472656 10.882812 Z M 0.472656 -31.058594 " fill-opacity="1" fill-rule="nonzero"/></g></g></g></g></g><g clip-path="url(#c9343221b3)"><g mask="url(#a708b1edd1)"><g transform="matrix(1, 0, 0, 1, 30, 60)"><g clip-path="url(#cded33f88a)"><g clip-path="url(#9218c8b68c)"><path fill="#231f20" d="M 0.472656 -41.058594 L 42 -41.058594 L 42 0.882812 L 0.472656 0.882812 Z M 0.472656 -41.058594 " fill-opacity="1" fill-rule="nonzero"/></g></g></g></g></g><g fill="#231f20" fill-opacity="1"><g transform="translate(25.18953, 20.188075)"><g><path d="M 2.046875 -2.09375 C 2.046875 -1.945312 2.007812 -1.820312 1.9375 -1.71875 C 1.875 -1.613281 1.78125 -1.53125 1.65625 -1.46875 C 1.789062 -1.394531 1.898438 -1.300781 1.984375 -1.1875 C 2.066406 -1.070312 2.109375 -0.9375 2.109375 -0.78125 C 2.109375 -0.53125 2.019531 -0.328125 1.84375 -0.171875 C 1.675781 -0.0234375 1.441406 0.046875 1.140625 0.046875 C 0.847656 0.046875 0.613281 -0.0234375 0.4375 -0.171875 C 0.269531 -0.328125 0.1875 -0.53125 0.1875 -0.78125 C 0.1875 -0.9375 0.222656 -1.070312 0.296875 -1.1875 C 0.378906 -1.3125 0.492188 -1.40625 0.640625 -1.46875 C 0.515625 -1.53125 0.414062 -1.613281 0.34375 -1.71875 C 0.28125 -1.820312 0.25 -1.945312 0.25 -2.09375 C 0.25 -2.332031 0.328125 -2.523438 0.484375 -2.671875 C 0.648438 -2.816406 0.867188 -2.890625 1.140625 -2.890625 C 1.421875 -2.890625 1.640625 -2.816406 1.796875 -2.671875 C 1.960938 -2.523438 2.046875 -2.332031 2.046875 -2.09375 Z M 1.546875 -0.828125 C 1.546875 -0.941406 1.507812 -1.035156 1.4375 -1.109375 C 1.363281 -1.191406 1.265625 -1.234375 1.140625 -1.234375 C 1.023438 -1.234375 0.929688 -1.195312 0.859375 -1.125 C 0.785156 -1.050781 0.75 -0.953125 0.75 -0.828125 C 0.75 -0.703125 0.785156 -0.601562 0.859375 -0.53125 C 0.929688 -0.457031 1.03125 -0.421875 1.15625 -0.421875 C 1.269531 -0.421875 1.363281 -0.453125 1.4375 -0.515625 C 1.507812 -0.585938 1.546875 -0.691406 1.546875 -0.828125 Z M 1.484375 -2.0625 C 1.484375 -2.175781 1.453125 -2.265625 1.390625 -2.328125 C 1.335938 -2.390625 1.253906 -2.421875 1.140625 -2.421875 C 1.035156 -2.421875 0.953125 -2.390625 0.890625 -2.328125 C 0.835938 -2.265625 0.8125 -2.175781 0.8125 -2.0625 C 0.8125 -1.945312 0.835938 -1.851562 0.890625 -1.78125 C 0.953125 -1.71875 1.035156 -1.6875 1.140625 -1.6875 C 1.253906 -1.6875 1.335938 -1.71875 1.390625 -1.78125 C 1.453125 -1.851562 1.484375 -1.945312 1.484375 -2.0625 Z M 1.484375 -2.0625 "/></g></g></g><g fill="#231f20" fill-opacity="1"><g transform="translate(27.480015, 20.188075)"><g/></g></g><g fill="#231f20" fill-opacity="1"><g transform="translate(25.18953, 30.56988)"><g><path d="M 1.71875 -2.875 L 1.71875 -2.40625 L 1.671875 -2.40625 C 1.410156 -2.40625 1.203125 -2.335938 1.046875 -2.203125 C 0.898438 -2.078125 0.8125 -1.898438 0.78125 -1.671875 C 0.925781 -1.828125 1.113281 -1.90625 1.34375 -1.90625 C 1.59375 -1.90625 1.789062 -1.816406 1.9375 -1.640625 C 2.082031 -1.460938 2.15625 -1.226562 2.15625 -0.9375 C 2.15625 -0.75 2.113281 -0.582031 2.03125 -0.4375 C 1.957031 -0.289062 1.84375 -0.171875 1.6875 -0.078125 C 1.539062 0.00390625 1.378906 0.046875 1.203125 0.046875 C 0.898438 0.046875 0.65625 -0.0546875 0.46875 -0.265625 C 0.289062 -0.484375 0.203125 -0.765625 0.203125 -1.109375 L 0.203125 -1.3125 C 0.203125 -1.625 0.257812 -1.894531 0.375 -2.125 C 0.488281 -2.363281 0.65625 -2.546875 0.875 -2.671875 C 1.09375 -2.804688 1.34375 -2.875 1.625 -2.875 Z M 1.171875 -1.453125 C 1.078125 -1.453125 0.992188 -1.425781 0.921875 -1.375 C 0.847656 -1.332031 0.796875 -1.269531 0.765625 -1.1875 L 0.765625 -1.015625 C 0.765625 -0.828125 0.800781 -0.679688 0.875 -0.578125 C 0.945312 -0.472656 1.050781 -0.421875 1.1875 -0.421875 C 1.3125 -0.421875 1.410156 -0.46875 1.484375 -0.5625 C 1.554688 -0.65625 1.59375 -0.78125 1.59375 -0.9375 C 1.59375 -1.09375 1.550781 -1.21875 1.46875 -1.3125 C 1.394531 -1.40625 1.296875 -1.453125 1.171875 -1.453125 Z M 1.171875 -1.453125 "/></g></g></g><g fill="#231f20" fill-opacity="1"><g transform="translate(27.480015, 30.56988)"><g/></g></g><g fill="#231f20" fill-opacity="1"><g transform="translate(25.18953, 40.951685)"><g><path d="M 1.859375 -1.078125 L 2.1875 -1.078125 L 2.1875 -0.609375 L 1.859375 -0.609375 L 1.859375 0 L 1.296875 0 L 1.296875 -0.609375 L 0.140625 -0.609375 L 0.109375 -0.96875 L 1.296875 -2.84375 L 1.859375 -2.84375 Z M 0.671875 -1.078125 L 1.296875 -1.078125 L 1.296875 -2.078125 L 1.265625 -2.015625 Z M 0.671875 -1.078125 "/></g></g></g><g fill="#231f20" fill-opacity="1"><g transform="translate(27.480015, 40.951685)"><g/></g></g><g fill="#231f20" fill-opacity="1"><g transform="translate(25.18953, 51.333489)"><g><path d="M 2.140625 0 L 0.1875 0 L 0.1875 -0.390625 L 1.109375 -1.375 C 1.234375 -1.507812 1.328125 -1.628906 1.390625 -1.734375 C 1.453125 -1.835938 1.484375 -1.929688 1.484375 -2.015625 C 1.484375 -2.148438 1.453125 -2.25 1.390625 -2.3125 C 1.328125 -2.382812 1.234375 -2.421875 1.109375 -2.421875 C 0.984375 -2.421875 0.882812 -2.378906 0.8125 -2.296875 C 0.738281 -2.210938 0.703125 -2.097656 0.703125 -1.953125 L 0.140625 -1.953125 C 0.140625 -2.117188 0.179688 -2.273438 0.265625 -2.421875 C 0.347656 -2.566406 0.460938 -2.679688 0.609375 -2.765625 C 0.765625 -2.847656 0.9375 -2.890625 1.125 -2.890625 C 1.414062 -2.890625 1.640625 -2.816406 1.796875 -2.671875 C 1.960938 -2.535156 2.046875 -2.335938 2.046875 -2.078125 C 2.046875 -1.929688 2.007812 -1.785156 1.9375 -1.640625 C 1.863281 -1.492188 1.738281 -1.328125 1.5625 -1.140625 L 0.921875 -0.453125 L 2.140625 -0.453125 Z M 2.140625 0 "/></g></g></g><g fill="#231f20" fill-opacity="1"><g transform="translate(27.480015, 51.333489)"><g/></g></g><g fill="#231f20" fill-opacity="1"><g transform="translate(25.18953, 61.715296)"><g><path d="M 2.109375 -1.171875 C 2.109375 -0.785156 2.023438 -0.484375 1.859375 -0.265625 C 1.703125 -0.0546875 1.46875 0.046875 1.15625 0.046875 C 0.84375 0.046875 0.601562 -0.0546875 0.4375 -0.265625 C 0.269531 -0.472656 0.1875 -0.765625 0.1875 -1.140625 L 0.1875 -1.671875 C 0.1875 -2.066406 0.269531 -2.367188 0.4375 -2.578125 C 0.601562 -2.785156 0.835938 -2.890625 1.140625 -2.890625 C 1.453125 -2.890625 1.691406 -2.785156 1.859375 -2.578125 C 2.023438 -2.367188 2.109375 -2.078125 2.109375 -1.703125 Z M 1.546875 -1.75 C 1.546875 -1.988281 1.507812 -2.160156 1.4375 -2.265625 C 1.375 -2.367188 1.273438 -2.421875 1.140625 -2.421875 C 1.015625 -2.421875 0.914062 -2.367188 0.84375 -2.265625 C 0.78125 -2.171875 0.75 -2.015625 0.75 -1.796875 L 0.75 -1.109375 C 0.75 -0.867188 0.78125 -0.691406 0.84375 -0.578125 C 0.90625 -0.472656 1.007812 -0.421875 1.15625 -0.421875 C 1.289062 -0.421875 1.390625 -0.472656 1.453125 -0.578125 C 1.515625 -0.679688 1.546875 -0.847656 1.546875 -1.078125 Z M 1.546875 -1.75 "/></g></g></g><g fill="#231f20" fill-opacity="1"><g transform="translate(27.480015, 61.715296)"><g/></g></g><g clip-path="url(#a0f19f5068)"><g clip-path="url(#7ba57edbf5)"><path fill="#a8180f" d="M 30.472656 18.941406 L 72 18.941406 L 72 60.675781 L 30.472656 60.675781 Z M 30.472656 18.941406 " fill-opacity="1" fill-rule="nonzero"/></g></g><g clip-path="url(#55dcc54f1c)"><g clip-path="url(#16b987c13b)"><path fill="#a8180f" d="M 30.472656 18.941406 L 72 18.941406 L 72 60.675781 L 30.472656 60.675781 Z M 30.472656 18.941406 " fill-opacity="1" fill-rule="nonzero"/></g></g><g clip-path="url(#c0dc653783)"><g clip-path="url(#68a2315f6a)"><path fill="#a8180f" d="M 30.472656 18.941406 L 72 18.941406 L 72 60.675781 L 30.472656 60.675781 Z M 30.472656 18.941406 " fill-opacity="1" fill-rule="nonzero"/></g></g><g clip-path="url(#b0bc4b55ae)"><g clip-path="url(#1941359c3f)"><path fill="#a8180f" d="M 30.472656 18.941406 L 72 18.941406 L 72 60.675781 L 30.472656 60.675781 Z M 30.472656 18.941406 " fill-opacity="1" fill-rule="nonzero"/></g></g><g clip-path="url(#c536b88a85)"><g clip-path="url(#0121c1b578)"><path fill="#a8180f" d="M 30.472656 18.941406 L 72 18.941406 L 72 60.675781 L 30.472656 60.675781 Z M 30.472656 18.941406 " fill-opacity="1" fill-rule="nonzero"/></g></g><g clip-path="url(#b27dca8d18)"><g clip-path="url(#6f734e83ef)"><path fill="#17191a" d="M 30.472656 18.941406 L 72 18.941406 L 72 60.675781 L 30.472656 60.675781 Z M 30.472656 18.941406 " fill-opacity="1" fill-rule="nonzero"/></g></g><g clip-path="url(#f6717f7533)"><g clip-path="url(#776f8c7d92)"><path fill="#17191a" d="M 30.472656 18.941406 L 72 18.941406 L 72 60.675781 L 30.472656 60.675781 Z M 30.472656 18.941406 " fill-opacity="1" fill-rule="nonzero"/></g></g><g clip-path="url(#468de31246)"><g clip-path="url(#b03257b78f)"><path fill="#17191a" d="M 30.472656 18.941406 L 72 18.941406 L 72 60.675781 L 30.472656 60.675781 Z M 30.472656 18.941406 " fill-opacity="1" fill-rule="nonzero"/></g></g><g clip-path="url(#28d345c839)"><g clip-path="url(#9efc888a48)"><path fill="#17191a" d="M 30.472656 18.941406 L 72 18.941406 L 72 60.675781 L 30.472656 60.675781 Z M 30.472656 18.941406 " fill-opacity="1" fill-rule="nonzero"/></g></g><g clip-path="url(#1e9d5a7498)"><g clip-path="url(#791b90d88d)"><path fill="#17191a" d="M 30.472656 18.941406 L 72 18.941406 L 72 60.675781 L 30.472656 60.675781 Z M 30.472656 18.941406 " fill-opacity="1" fill-rule="nonzero"/></g></g><g fill="#17191a" fill-opacity="1"><g transform="translate(1.35, 24.000018)"><g><path d="M 1.421875 0 L 1.0625 0 L 1.0625 -2.40625 L 0.328125 -2.140625 L 0.328125 -2.46875 L 1.375 -2.859375 L 1.421875 -2.859375 Z M 1.421875 0 "/></g></g><g transform="translate(3.59609, 24.000018)"><g><path d="M 1.109375 -1.140625 C 1.109375 -0.847656 1.066406 -0.566406 0.984375 -0.296875 C 0.910156 -0.0351562 0.796875 0.207031 0.640625 0.4375 C 0.484375 0.664062 0.320312 0.828125 0.15625 0.921875 L 0.078125 0.703125 C 0.273438 0.546875 0.429688 0.304688 0.546875 -0.015625 C 0.671875 -0.335938 0.738281 -0.695312 0.75 -1.09375 L 0.75 -1.15625 C 0.75 -1.425781 0.71875 -1.679688 0.65625 -1.921875 C 0.601562 -2.160156 0.523438 -2.367188 0.421875 -2.546875 C 0.316406 -2.734375 0.203125 -2.878906 0.078125 -2.984375 L 0.15625 -3.203125 C 0.320312 -3.109375 0.484375 -2.953125 0.640625 -2.734375 C 0.796875 -2.515625 0.910156 -2.269531 0.984375 -2 C 1.066406 -1.726562 1.109375 -1.441406 1.109375 -1.140625 Z M 1.109375 -1.140625 "/></g></g><g transform="translate(4.986713, 24.000018)"><g/></g><g transform="translate(5.976946, 24.000018)"><g><path d="M 1.046875 -1.328125 L 0.703125 -0.96875 L 0.703125 0 L 0.328125 0 L 0.328125 -2.84375 L 0.703125 -2.84375 L 0.703125 -1.4375 L 1.96875 -2.84375 L 2.421875 -2.84375 L 1.296875 -1.59375 L 2.515625 0 L 2.0625 0 Z M 1.046875 -1.328125 "/></g></g><g transform="translate(8.484755, 24.000018)"><g><path d="M 0.171875 -1.078125 C 0.171875 -1.285156 0.210938 -1.472656 0.296875 -1.640625 C 0.378906 -1.804688 0.492188 -1.929688 0.640625 -2.015625 C 0.785156 -2.109375 0.953125 -2.15625 1.140625 -2.15625 C 1.421875 -2.15625 1.648438 -2.054688 1.828125 -1.859375 C 2.015625 -1.660156 2.109375 -1.394531 2.109375 -1.0625 L 2.109375 -1.03125 C 2.109375 -0.820312 2.066406 -0.632812 1.984375 -0.46875 C 1.898438 -0.3125 1.785156 -0.1875 1.640625 -0.09375 C 1.492188 0 1.328125 0.046875 1.140625 0.046875 C 0.859375 0.046875 0.625 -0.0507812 0.4375 -0.25 C 0.257812 -0.457031 0.171875 -0.722656 0.171875 -1.046875 Z M 0.546875 -1.03125 C 0.546875 -0.800781 0.597656 -0.613281 0.703125 -0.46875 C 0.816406 -0.320312 0.960938 -0.25 1.140625 -0.25 C 1.328125 -0.25 1.472656 -0.320312 1.578125 -0.46875 C 1.679688 -0.613281 1.734375 -0.816406 1.734375 -1.078125 C 1.734375 -1.304688 1.675781 -1.492188 1.5625 -1.640625 C 1.457031 -1.785156 1.316406 -1.859375 1.140625 -1.859375 C 0.960938 -1.859375 0.816406 -1.785156 0.703125 -1.640625 C 0.597656 -1.503906 0.546875 -1.300781 0.546875 -1.03125 Z M 0.546875 -1.03125 "/></g></g><g transform="translate(10.766002, 24.000018)"><g><path d="M 0.640625 -2.109375 L 0.640625 0.25 C 0.640625 0.65625 0.457031 0.859375 0.09375 0.859375 C 0.0078125 0.859375 -0.0625 0.84375 -0.125 0.8125 L -0.125 0.53125 C -0.0820312 0.539062 -0.03125 0.546875 0.03125 0.546875 C 0.113281 0.546875 0.175781 0.523438 0.21875 0.484375 C 0.257812 0.441406 0.28125 0.363281 0.28125 0.25 L 0.28125 -2.109375 Z M 0.25 -2.671875 C 0.25 -2.734375 0.265625 -2.785156 0.296875 -2.828125 C 0.335938 -2.867188 0.390625 -2.890625 0.453125 -2.890625 C 0.523438 -2.890625 0.578125 -2.867188 0.609375 -2.828125 C 0.648438 -2.785156 0.671875 -2.734375 0.671875 -2.671875 C 0.671875 -2.617188 0.648438 -2.570312 0.609375 -2.53125 C 0.578125 -2.488281 0.523438 -2.46875 0.453125 -2.46875 C 0.390625 -2.46875 0.335938 -2.488281 0.296875 -2.53125 C 0.265625 -2.570312 0.25 -2.617188 0.25 -2.671875 Z M 0.25 -2.671875 "/></g></g><g transform="translate(11.721079, 24.000018)"><g><path d="M 1.578125 0 C 1.554688 -0.0390625 1.539062 -0.113281 1.53125 -0.21875 C 1.363281 -0.0390625 1.160156 0.046875 0.921875 0.046875 C 0.710938 0.046875 0.539062 -0.0078125 0.40625 -0.125 C 0.28125 -0.25 0.21875 -0.40625 0.21875 -0.59375 C 0.21875 -0.8125 0.300781 -0.976562 0.46875 -1.09375 C 0.632812 -1.21875 0.867188 -1.28125 1.171875 -1.28125 L 1.515625 -1.28125 L 1.515625 -1.453125 C 1.515625 -1.578125 1.476562 -1.675781 1.40625 -1.75 C 1.332031 -1.820312 1.222656 -1.859375 1.078125 -1.859375 C 0.941406 -1.859375 0.832031 -1.828125 0.75 -1.765625 C 0.664062 -1.703125 0.625 -1.625 0.625 -1.53125 L 0.25 -1.53125 C 0.25 -1.632812 0.285156 -1.734375 0.359375 -1.828125 C 0.441406 -1.929688 0.546875 -2.007812 0.671875 -2.0625 C 0.796875 -2.125 0.9375 -2.15625 1.09375 -2.15625 C 1.34375 -2.15625 1.535156 -2.09375 1.671875 -1.96875 C 1.804688 -1.84375 1.878906 -1.675781 1.890625 -1.46875 L 1.890625 -0.5 C 1.890625 -0.300781 1.910156 -0.144531 1.953125 -0.03125 L 1.953125 0 Z M 0.984375 -0.28125 C 1.097656 -0.28125 1.203125 -0.304688 1.296875 -0.359375 C 1.398438 -0.421875 1.472656 -0.5 1.515625 -0.59375 L 1.515625 -1.03125 L 1.234375 -1.03125 C 0.796875 -1.03125 0.578125 -0.898438 0.578125 -0.640625 C 0.578125 -0.523438 0.613281 -0.4375 0.6875 -0.375 C 0.757812 -0.3125 0.859375 -0.28125 0.984375 -0.28125 Z M 0.984375 -0.28125 "/></g></g><g transform="translate(13.896857, 24.000018)"><g/></g><g transform="translate(14.88709, 24.000018)"><g><path d="M 1.5 -0.5625 C 1.5 -0.65625 1.460938 -0.726562 1.390625 -0.78125 C 1.316406 -0.84375 1.1875 -0.890625 1 -0.921875 C 0.820312 -0.960938 0.675781 -1.007812 0.5625 -1.0625 C 0.457031 -1.125 0.378906 -1.191406 0.328125 -1.265625 C 0.285156 -1.335938 0.265625 -1.425781 0.265625 -1.53125 C 0.265625 -1.707031 0.335938 -1.851562 0.484375 -1.96875 C 0.628906 -2.09375 0.816406 -2.15625 1.046875 -2.15625 C 1.285156 -2.15625 1.476562 -2.09375 1.625 -1.96875 C 1.769531 -1.84375 1.84375 -1.6875 1.84375 -1.5 L 1.484375 -1.5 C 1.484375 -1.59375 1.441406 -1.675781 1.359375 -1.75 C 1.273438 -1.820312 1.171875 -1.859375 1.046875 -1.859375 C 0.910156 -1.859375 0.804688 -1.828125 0.734375 -1.765625 C 0.660156 -1.710938 0.625 -1.640625 0.625 -1.546875 C 0.625 -1.460938 0.65625 -1.394531 0.71875 -1.34375 C 0.789062 -1.300781 0.914062 -1.257812 1.09375 -1.21875 C 1.28125 -1.175781 1.425781 -1.128906 1.53125 -1.078125 C 1.644531 -1.023438 1.726562 -0.957031 1.78125 -0.875 C 1.832031 -0.789062 1.859375 -0.695312 1.859375 -0.59375 C 1.859375 -0.394531 1.78125 -0.238281 1.625 -0.125 C 1.476562 -0.0078125 1.285156 0.046875 1.046875 0.046875 C 0.878906 0.046875 0.726562 0.015625 0.59375 -0.046875 C 0.46875 -0.109375 0.367188 -0.191406 0.296875 -0.296875 C 0.222656 -0.410156 0.1875 -0.53125 0.1875 -0.65625 L 0.546875 -0.65625 C 0.554688 -0.53125 0.601562 -0.429688 0.6875 -0.359375 C 0.78125 -0.285156 0.898438 -0.25 1.046875 -0.25 C 1.179688 -0.25 1.289062 -0.273438 1.375 -0.328125 C 1.457031 -0.390625 1.5 -0.46875 1.5 -0.5625 Z M 1.09375 -2.671875 L 1.390625 -3 L 1.703125 -3 L 1.703125 -2.984375 L 1.203125 -2.4375 L 0.984375 -2.4375 L 0.5 -2.984375 L 0.5 -3 L 0.796875 -3 Z M 1.09375 -2.671875 "/></g></g><g transform="translate(16.949587, 24.000018)"><g><path d="M 0.859375 -0.984375 L 0.640625 -0.75 L 0.640625 0 L 0.28125 0 L 0.28125 -3 L 0.640625 -3 L 0.640625 -1.1875 L 0.828125 -1.421875 L 1.484375 -2.109375 L 1.921875 -2.109375 L 1.109375 -1.234375 L 2.03125 0 L 1.59375 0 Z M 0.859375 -0.984375 "/></g></g><g transform="translate(18.976927, 24.000018)"><g><path d="M 0.171875 -1.078125 C 0.171875 -1.285156 0.210938 -1.472656 0.296875 -1.640625 C 0.378906 -1.804688 0.492188 -1.929688 0.640625 -2.015625 C 0.785156 -2.109375 0.953125 -2.15625 1.140625 -2.15625 C 1.421875 -2.15625 1.648438 -2.054688 1.828125 -1.859375 C 2.015625 -1.660156 2.109375 -1.394531 2.109375 -1.0625 L 2.109375 -1.03125 C 2.109375 -0.820312 2.066406 -0.632812 1.984375 -0.46875 C 1.898438 -0.3125 1.785156 -0.1875 1.640625 -0.09375 C 1.492188 0 1.328125 0.046875 1.140625 0.046875 C 0.859375 0.046875 0.625 -0.0507812 0.4375 -0.25 C 0.257812 -0.457031 0.171875 -0.722656 0.171875 -1.046875 Z M 0.546875 -1.03125 C 0.546875 -0.800781 0.597656 -0.613281 0.703125 -0.46875 C 0.816406 -0.320312 0.960938 -0.25 1.140625 -0.25 C 1.328125 -0.25 1.472656 -0.320312 1.578125 -0.46875 C 1.679688 -0.613281 1.734375 -0.816406 1.734375 -1.078125 C 1.734375 -1.304688 1.675781 -1.492188 1.5625 -1.640625 C 1.457031 -1.785156 1.316406 -1.859375 1.140625 -1.859375 C 0.960938 -1.859375 0.816406 -1.785156 0.703125 -1.640625 C 0.597656 -1.503906 0.546875 -1.300781 0.546875 -1.03125 Z M 0.546875 -1.03125 "/></g></g><g transform="translate(21.258174, 24.000018)"><g><path d="M 0.671875 0 L 0.3125 0 L 0.3125 -3 L 0.671875 -3 Z M 0.671875 0 "/></g></g><g transform="translate(22.228876, 24.000018)"><g><path d="M 1.578125 0 C 1.554688 -0.0390625 1.539062 -0.113281 1.53125 -0.21875 C 1.363281 -0.0390625 1.160156 0.046875 0.921875 0.046875 C 0.710938 0.046875 0.539062 -0.0078125 0.40625 -0.125 C 0.28125 -0.25 0.21875 -0.40625 0.21875 -0.59375 C 0.21875 -0.8125 0.300781 -0.976562 0.46875 -1.09375 C 0.632812 -1.21875 0.867188 -1.28125 1.171875 -1.28125 L 1.515625 -1.28125 L 1.515625 -1.453125 C 1.515625 -1.578125 1.476562 -1.675781 1.40625 -1.75 C 1.332031 -1.820312 1.222656 -1.859375 1.078125 -1.859375 C 0.941406 -1.859375 0.832031 -1.828125 0.75 -1.765625 C 0.664062 -1.703125 0.625 -1.625 0.625 -1.53125 L 0.25 -1.53125 C 0.25 -1.632812 0.285156 -1.734375 0.359375 -1.828125 C 0.441406 -1.929688 0.546875 -2.007812 0.671875 -2.0625 C 0.796875 -2.125 0.9375 -2.15625 1.09375 -2.15625 C 1.34375 -2.15625 1.535156 -2.09375 1.671875 -1.96875 C 1.804688 -1.84375 1.878906 -1.675781 1.890625 -1.46875 L 1.890625 -0.5 C 1.890625 -0.300781 1.910156 -0.144531 1.953125 -0.03125 L 1.953125 0 Z M 0.984375 -0.28125 C 1.097656 -0.28125 1.203125 -0.304688 1.296875 -0.359375 C 1.398438 -0.421875 1.472656 -0.5 1.515625 -0.59375 L 1.515625 -1.03125 L 1.234375 -1.03125 C 0.796875 -1.03125 0.578125 -0.898438 0.578125 -0.640625 C 0.578125 -0.523438 0.613281 -0.4375 0.6875 -0.375 C 0.757812 -0.3125 0.859375 -0.28125 0.984375 -0.28125 Z M 0.984375 -0.28125 "/></g></g></g><g fill="#17191a" fill-opacity="1"><g transform="translate(1.35, 29.333343)"><g><path d="M 0.671875 0 L 0.3125 0 L 0.3125 -2.109375 L 0.671875 -2.109375 Z M 0.28125 -2.671875 C 0.28125 -2.734375 0.296875 -2.785156 0.328125 -2.828125 C 0.367188 -2.867188 0.421875 -2.890625 0.484375 -2.890625 C 0.554688 -2.890625 0.609375 -2.867188 0.640625 -2.828125 C 0.679688 -2.785156 0.703125 -2.734375 0.703125 -2.671875 C 0.703125 -2.617188 0.679688 -2.570312 0.640625 -2.53125 C 0.609375 -2.488281 0.554688 -2.46875 0.484375 -2.46875 C 0.421875 -2.46875 0.367188 -2.488281 0.328125 -2.53125 C 0.296875 -2.570312 0.28125 -2.617188 0.28125 -2.671875 Z M 0.28125 -2.671875 "/></g></g><g transform="translate(2.320702, 29.333343)"><g><path d="M 0.609375 -2.109375 L 0.625 -1.875 C 0.78125 -2.0625 0.988281 -2.15625 1.25 -2.15625 C 1.539062 -2.15625 1.742188 -2.039062 1.859375 -1.8125 C 1.921875 -1.914062 2.007812 -2 2.125 -2.0625 C 2.238281 -2.125 2.375 -2.15625 2.53125 -2.15625 C 2.988281 -2.15625 3.222656 -1.910156 3.234375 -1.421875 L 3.234375 0 L 2.875 0 L 2.875 -1.390625 C 2.875 -1.546875 2.835938 -1.660156 2.765625 -1.734375 C 2.703125 -1.804688 2.585938 -1.84375 2.421875 -1.84375 C 2.285156 -1.84375 2.171875 -1.800781 2.078125 -1.71875 C 1.992188 -1.644531 1.945312 -1.539062 1.9375 -1.40625 L 1.9375 0 L 1.578125 0 L 1.578125 -1.390625 C 1.578125 -1.691406 1.425781 -1.84375 1.125 -1.84375 C 0.882812 -1.84375 0.722656 -1.742188 0.640625 -1.546875 L 0.640625 0 L 0.265625 0 L 0.265625 -2.109375 Z M 0.609375 -2.109375 "/></g></g><g transform="translate(5.826556, 29.333343)"><g><path d="M 1.578125 0 C 1.554688 -0.0390625 1.539062 -0.113281 1.53125 -0.21875 C 1.363281 -0.0390625 1.160156 0.046875 0.921875 0.046875 C 0.710938 0.046875 0.539062 -0.0078125 0.40625 -0.125 C 0.28125 -0.25 0.21875 -0.40625 0.21875 -0.59375 C 0.21875 -0.8125 0.300781 -0.976562 0.46875 -1.09375 C 0.632812 -1.21875 0.867188 -1.28125 1.171875 -1.28125 L 1.515625 -1.28125 L 1.515625 -1.453125 C 1.515625 -1.578125 1.476562 -1.675781 1.40625 -1.75 C 1.332031 -1.820312 1.222656 -1.859375 1.078125 -1.859375 C 0.941406 -1.859375 0.832031 -1.828125 0.75 -1.765625 C 0.664062 -1.703125 0.625 -1.625 0.625 -1.53125 L 0.25 -1.53125 C 0.25 -1.632812 0.285156 -1.734375 0.359375 -1.828125 C 0.441406 -1.929688 0.546875 -2.007812 0.671875 -2.0625 C 0.796875 -2.125 0.9375 -2.15625 1.09375 -2.15625 C 1.34375 -2.15625 1.535156 -2.09375 1.671875 -1.96875 C 1.804688 -1.84375 1.878906 -1.675781 1.890625 -1.46875 L 1.890625 -0.5 C 1.890625 -0.300781 1.910156 -0.144531 1.953125 -0.03125 L 1.953125 0 Z M 0.984375 -0.28125 C 1.097656 -0.28125 1.203125 -0.304688 1.296875 -0.359375 C 1.398438 -0.421875 1.472656 -0.5 1.515625 -0.59375 L 1.515625 -1.03125 L 1.234375 -1.03125 C 0.796875 -1.03125 0.578125 -0.898438 0.578125 -0.640625 C 0.578125 -0.523438 0.613281 -0.4375 0.6875 -0.375 C 0.757812 -0.3125 0.859375 -0.28125 0.984375 -0.28125 Z M 0.984375 -0.28125 "/></g></g><g transform="translate(8.002334, 29.333343)"><g/></g><g transform="translate(8.992567, 29.333343)"><g><path d="M 0.96875 -0.484375 L 1.5 -2.109375 L 1.859375 -2.109375 L 1.109375 0 L 0.828125 0 L 0.0625 -2.109375 L 0.4375 -2.109375 Z M 0.96875 -0.484375 "/></g></g><g transform="translate(10.930064, 29.333343)"><g><path d="M 0.671875 0 L 0.3125 0 L 0.3125 -2.109375 L 0.671875 -2.109375 Z M 0.28125 -2.671875 C 0.28125 -2.734375 0.296875 -2.785156 0.328125 -2.828125 C 0.367188 -2.867188 0.421875 -2.890625 0.484375 -2.890625 C 0.554688 -2.890625 0.609375 -2.867188 0.640625 -2.828125 C 0.679688 -2.785156 0.703125 -2.734375 0.703125 -2.671875 C 0.703125 -2.617188 0.679688 -2.570312 0.640625 -2.53125 C 0.609375 -2.488281 0.554688 -2.46875 0.484375 -2.46875 C 0.421875 -2.46875 0.367188 -2.488281 0.328125 -2.53125 C 0.296875 -2.570312 0.28125 -2.617188 0.28125 -2.671875 Z M 0.28125 -2.671875 "/></g></g><g transform="translate(11.900766, 29.333343)"><g><path d="M 1.5 -0.5625 C 1.5 -0.65625 1.460938 -0.726562 1.390625 -0.78125 C 1.316406 -0.84375 1.1875 -0.890625 1 -0.921875 C 0.820312 -0.960938 0.675781 -1.007812 0.5625 -1.0625 C 0.457031 -1.125 0.378906 -1.191406 0.328125 -1.265625 C 0.285156 -1.335938 0.265625 -1.425781 0.265625 -1.53125 C 0.265625 -1.707031 0.335938 -1.851562 0.484375 -1.96875 C 0.628906 -2.09375 0.816406 -2.15625 1.046875 -2.15625 C 1.285156 -2.15625 1.476562 -2.09375 1.625 -1.96875 C 1.769531 -1.84375 1.84375 -1.6875 1.84375 -1.5 L 1.484375 -1.5 C 1.484375 -1.59375 1.441406 -1.675781 1.359375 -1.75 C 1.273438 -1.820312 1.171875 -1.859375 1.046875 -1.859375 C 0.910156 -1.859375 0.804688 -1.828125 0.734375 -1.765625 C 0.660156 -1.710938 0.625 -1.640625 0.625 -1.546875 C 0.625 -1.460938 0.65625 -1.394531 0.71875 -1.34375 C 0.789062 -1.300781 0.914062 -1.257812 1.09375 -1.21875 C 1.28125 -1.175781 1.425781 -1.128906 1.53125 -1.078125 C 1.644531 -1.023438 1.726562 -0.957031 1.78125 -0.875 C 1.832031 -0.789062 1.859375 -0.695312 1.859375 -0.59375 C 1.859375 -0.394531 1.78125 -0.238281 1.625 -0.125 C 1.476562 -0.0078125 1.285156 0.046875 1.046875 0.046875 C 0.878906 0.046875 0.726562 0.015625 0.59375 -0.046875 C 0.46875 -0.109375 0.367188 -0.191406 0.296875 -0.296875 C 0.222656 -0.410156 0.1875 -0.53125 0.1875 -0.65625 L 0.546875 -0.65625 C 0.554688 -0.53125 0.601562 -0.429688 0.6875 -0.359375 C 0.78125 -0.285156 0.898438 -0.25 1.046875 -0.25 C 1.179688 -0.25 1.289062 -0.273438 1.375 -0.328125 C 1.457031 -0.390625 1.5 -0.46875 1.5 -0.5625 Z M 1.09375 -2.671875 L 1.390625 -3 L 1.703125 -3 L 1.703125 -2.984375 L 1.203125 -2.4375 L 0.984375 -2.4375 L 0.5 -2.984375 L 0.5 -3 L 0.796875 -3 Z M 1.09375 -2.671875 "/></g></g><g transform="translate(13.963263, 29.333343)"><g><path d="M 1.15625 0.046875 C 0.863281 0.046875 0.628906 -0.046875 0.453125 -0.234375 C 0.273438 -0.429688 0.1875 -0.6875 0.1875 -1 L 0.1875 -1.0625 C 0.1875 -1.269531 0.222656 -1.457031 0.296875 -1.625 C 0.378906 -1.789062 0.492188 -1.921875 0.640625 -2.015625 C 0.785156 -2.109375 0.941406 -2.15625 1.109375 -2.15625 C 1.378906 -2.15625 1.585938 -2.0625 1.734375 -1.875 C 1.890625 -1.695312 1.96875 -1.441406 1.96875 -1.109375 L 1.96875 -0.953125 L 0.546875 -0.953125 C 0.546875 -0.742188 0.601562 -0.570312 0.71875 -0.4375 C 0.84375 -0.3125 0.992188 -0.25 1.171875 -0.25 C 1.296875 -0.25 1.398438 -0.273438 1.484375 -0.328125 C 1.578125 -0.378906 1.660156 -0.453125 1.734375 -0.546875 L 1.953125 -0.375 C 1.773438 -0.09375 1.507812 0.046875 1.15625 0.046875 Z M 1.109375 -1.859375 C 0.960938 -1.859375 0.835938 -1.800781 0.734375 -1.6875 C 0.640625 -1.582031 0.582031 -1.4375 0.5625 -1.25 L 1.609375 -1.25 L 1.609375 -1.28125 C 1.597656 -1.457031 1.546875 -1.597656 1.453125 -1.703125 C 1.367188 -1.804688 1.253906 -1.859375 1.109375 -1.859375 Z M 1.109375 -1.859375 "/></g></g><g transform="translate(16.0824, 29.333343)"><g/></g><g transform="translate(17.072633, 29.333343)"><g><path d="M 1.5 -0.5625 C 1.5 -0.65625 1.460938 -0.726562 1.390625 -0.78125 C 1.316406 -0.84375 1.1875 -0.890625 1 -0.921875 C 0.820312 -0.960938 0.675781 -1.007812 0.5625 -1.0625 C 0.457031 -1.125 0.378906 -1.191406 0.328125 -1.265625 C 0.285156 -1.335938 0.265625 -1.425781 0.265625 -1.53125 C 0.265625 -1.707031 0.335938 -1.851562 0.484375 -1.96875 C 0.628906 -2.09375 0.816406 -2.15625 1.046875 -2.15625 C 1.285156 -2.15625 1.476562 -2.09375 1.625 -1.96875 C 1.769531 -1.84375 1.84375 -1.6875 1.84375 -1.5 L 1.484375 -1.5 C 1.484375 -1.59375 1.441406 -1.675781 1.359375 -1.75 C 1.273438 -1.820312 1.171875 -1.859375 1.046875 -1.859375 C 0.910156 -1.859375 0.804688 -1.828125 0.734375 -1.765625 C 0.660156 -1.710938 0.625 -1.640625 0.625 -1.546875 C 0.625 -1.460938 0.65625 -1.394531 0.71875 -1.34375 C 0.789062 -1.300781 0.914062 -1.257812 1.09375 -1.21875 C 1.28125 -1.175781 1.425781 -1.128906 1.53125 -1.078125 C 1.644531 -1.023438 1.726562 -0.957031 1.78125 -0.875 C 1.832031 -0.789062 1.859375 -0.695312 1.859375 -0.59375 C 1.859375 -0.394531 1.78125 -0.238281 1.625 -0.125 C 1.476562 -0.0078125 1.285156 0.046875 1.046875 0.046875 C 0.878906 0.046875 0.726562 0.015625 0.59375 -0.046875 C 0.46875 -0.109375 0.367188 -0.191406 0.296875 -0.296875 C 0.222656 -0.410156 0.1875 -0.53125 0.1875 -0.65625 L 0.546875 -0.65625 C 0.554688 -0.53125 0.601562 -0.429688 0.6875 -0.359375 C 0.78125 -0.285156 0.898438 -0.25 1.046875 -0.25 C 1.179688 -0.25 1.289062 -0.273438 1.375 -0.328125 C 1.457031 -0.390625 1.5 -0.46875 1.5 -0.5625 Z M 1.5 -0.5625 "/></g></g><g transform="translate(19.13513, 29.333343)"><g><path d="M 1.578125 0 C 1.554688 -0.0390625 1.539062 -0.113281 1.53125 -0.21875 C 1.363281 -0.0390625 1.160156 0.046875 0.921875 0.046875 C 0.710938 0.046875 0.539062 -0.0078125 0.40625 -0.125 C 0.28125 -0.25 0.21875 -0.40625 0.21875 -0.59375 C 0.21875 -0.8125 0.300781 -0.976562 0.46875 -1.09375 C 0.632812 -1.21875 0.867188 -1.28125 1.171875 -1.28125 L 1.515625 -1.28125 L 1.515625 -1.453125 C 1.515625 -1.578125 1.476562 -1.675781 1.40625 -1.75 C 1.332031 -1.820312 1.222656 -1.859375 1.078125 -1.859375 C 0.941406 -1.859375 0.832031 -1.828125 0.75 -1.765625 C 0.664062 -1.703125 0.625 -1.625 0.625 -1.53125 L 0.25 -1.53125 C 0.25 -1.632812 0.285156 -1.734375 0.359375 -1.828125 C 0.441406 -1.929688 0.546875 -2.007812 0.671875 -2.0625 C 0.796875 -2.125 0.9375 -2.15625 1.09375 -2.15625 C 1.34375 -2.15625 1.535156 -2.09375 1.671875 -1.96875 C 1.804688 -1.84375 1.878906 -1.675781 1.890625 -1.46875 L 1.890625 -0.5 C 1.890625 -0.300781 1.910156 -0.144531 1.953125 -0.03125 L 1.953125 0 Z M 0.984375 -0.28125 C 1.097656 -0.28125 1.203125 -0.304688 1.296875 -0.359375 C 1.398438 -0.421875 1.472656 -0.5 1.515625 -0.59375 L 1.515625 -1.03125 L 1.234375 -1.03125 C 0.796875 -1.03125 0.578125 -0.898438 0.578125 -0.640625 C 0.578125 -0.523438 0.613281 -0.4375 0.6875 -0.375 C 0.757812 -0.3125 0.859375 -0.28125 0.984375 -0.28125 Z M 0.984375 -0.28125 "/></g></g><g transform="translate(21.310908, 29.333343)"><g><path d="M 0.765625 -2.625 L 0.765625 -2.109375 L 1.15625 -2.109375 L 1.15625 -1.828125 L 0.765625 -1.828125 L 0.765625 -0.53125 C 0.765625 -0.4375 0.78125 -0.367188 0.8125 -0.328125 C 0.851562 -0.285156 0.914062 -0.265625 1 -0.265625 C 1.039062 -0.265625 1.097656 -0.273438 1.171875 -0.296875 L 1.171875 0 C 1.078125 0.03125 0.984375 0.046875 0.890625 0.046875 C 0.734375 0.046875 0.613281 0 0.53125 -0.09375 C 0.445312 -0.195312 0.40625 -0.34375 0.40625 -0.53125 L 0.40625 -1.828125 L 0.015625 -1.828125 L 0.015625 -2.109375 L 0.40625 -2.109375 L 0.40625 -2.625 Z M 0.765625 -2.625 "/></g></g><g transform="translate(22.617547, 29.333343)"><g><path d="M 0.671875 0 L 0.3125 0 L 0.3125 -2.109375 L 0.671875 -2.109375 Z M 0.28125 -2.671875 C 0.28125 -2.734375 0.296875 -2.785156 0.328125 -2.828125 C 0.367188 -2.867188 0.421875 -2.890625 0.484375 -2.890625 C 0.554688 -2.890625 0.609375 -2.867188 0.640625 -2.828125 C 0.679688 -2.785156 0.703125 -2.734375 0.703125 -2.671875 C 0.703125 -2.617188 0.679688 -2.570312 0.640625 -2.53125 C 0.609375 -2.488281 0.554688 -2.46875 0.484375 -2.46875 C 0.421875 -2.46875 0.367188 -2.488281 0.328125 -2.53125 C 0.296875 -2.570312 0.28125 -2.617188 0.28125 -2.671875 Z M 0.28125 -2.671875 "/></g></g></g><g fill="#17191a" fill-opacity="1"><g transform="translate(1.35, 34.666669)"><g><path d="M 0.609375 -2.109375 L 0.625 -1.84375 C 0.789062 -2.050781 1.003906 -2.15625 1.265625 -2.15625 C 1.710938 -2.15625 1.9375 -1.898438 1.9375 -1.390625 L 1.9375 0 L 1.578125 0 L 1.578125 -1.40625 C 1.578125 -1.550781 1.539062 -1.660156 1.46875 -1.734375 C 1.40625 -1.804688 1.300781 -1.84375 1.15625 -1.84375 C 1.03125 -1.84375 0.921875 -1.8125 0.828125 -1.75 C 0.742188 -1.6875 0.679688 -1.601562 0.640625 -1.5 L 0.640625 0 L 0.28125 0 L 0.28125 -2.109375 Z M 0.609375 -2.109375 "/></g></g><g transform="translate(3.557028, 34.666669)"><g><path d="M 1.578125 0 C 1.554688 -0.0390625 1.539062 -0.113281 1.53125 -0.21875 C 1.363281 -0.0390625 1.160156 0.046875 0.921875 0.046875 C 0.710938 0.046875 0.539062 -0.0078125 0.40625 -0.125 C 0.28125 -0.25 0.21875 -0.40625 0.21875 -0.59375 C 0.21875 -0.8125 0.300781 -0.976562 0.46875 -1.09375 C 0.632812 -1.21875 0.867188 -1.28125 1.171875 -1.28125 L 1.515625 -1.28125 L 1.515625 -1.453125 C 1.515625 -1.578125 1.476562 -1.675781 1.40625 -1.75 C 1.332031 -1.820312 1.222656 -1.859375 1.078125 -1.859375 C 0.941406 -1.859375 0.832031 -1.828125 0.75 -1.765625 C 0.664062 -1.703125 0.625 -1.625 0.625 -1.53125 L 0.25 -1.53125 C 0.25 -1.632812 0.285156 -1.734375 0.359375 -1.828125 C 0.441406 -1.929688 0.546875 -2.007812 0.671875 -2.0625 C 0.796875 -2.125 0.9375 -2.15625 1.09375 -2.15625 C 1.34375 -2.15625 1.535156 -2.09375 1.671875 -1.96875 C 1.804688 -1.84375 1.878906 -1.675781 1.890625 -1.46875 L 1.890625 -0.5 C 1.890625 -0.300781 1.910156 -0.144531 1.953125 -0.03125 L 1.953125 0 Z M 0.984375 -0.28125 C 1.097656 -0.28125 1.203125 -0.304688 1.296875 -0.359375 C 1.398438 -0.421875 1.472656 -0.5 1.515625 -0.59375 L 1.515625 -1.03125 L 1.234375 -1.03125 C 0.796875 -1.03125 0.578125 -0.898438 0.578125 -0.640625 C 0.578125 -0.523438 0.613281 -0.4375 0.6875 -0.375 C 0.757812 -0.3125 0.859375 -0.28125 0.984375 -0.28125 Z M 0.984375 -0.28125 "/></g></g><g transform="translate(5.732806, 34.666669)"><g><path d="M 1.5 -0.5625 C 1.5 -0.65625 1.460938 -0.726562 1.390625 -0.78125 C 1.316406 -0.84375 1.1875 -0.890625 1 -0.921875 C 0.820312 -0.960938 0.675781 -1.007812 0.5625 -1.0625 C 0.457031 -1.125 0.378906 -1.191406 0.328125 -1.265625 C 0.285156 -1.335938 0.265625 -1.425781 0.265625 -1.53125 C 0.265625 -1.707031 0.335938 -1.851562 0.484375 -1.96875 C 0.628906 -2.09375 0.816406 -2.15625 1.046875 -2.15625 C 1.285156 -2.15625 1.476562 -2.09375 1.625 -1.96875 C 1.769531 -1.84375 1.84375 -1.6875 1.84375 -1.5 L 1.484375 -1.5 C 1.484375 -1.59375 1.441406 -1.675781 1.359375 -1.75 C 1.273438 -1.820312 1.171875 -1.859375 1.046875 -1.859375 C 0.910156 -1.859375 0.804688 -1.828125 0.734375 -1.765625 C 0.660156 -1.710938 0.625 -1.640625 0.625 -1.546875 C 0.625 -1.460938 0.65625 -1.394531 0.71875 -1.34375 C 0.789062 -1.300781 0.914062 -1.257812 1.09375 -1.21875 C 1.28125 -1.175781 1.425781 -1.128906 1.53125 -1.078125 C 1.644531 -1.023438 1.726562 -0.957031 1.78125 -0.875 C 1.832031 -0.789062 1.859375 -0.695312 1.859375 -0.59375 C 1.859375 -0.394531 1.78125 -0.238281 1.625 -0.125 C 1.476562 -0.0078125 1.285156 0.046875 1.046875 0.046875 C 0.878906 0.046875 0.726562 0.015625 0.59375 -0.046875 C 0.46875 -0.109375 0.367188 -0.191406 0.296875 -0.296875 C 0.222656 -0.410156 0.1875 -0.53125 0.1875 -0.65625 L 0.546875 -0.65625 C 0.554688 -0.53125 0.601562 -0.429688 0.6875 -0.359375 C 0.78125 -0.285156 0.898438 -0.25 1.046875 -0.25 C 1.179688 -0.25 1.289062 -0.273438 1.375 -0.328125 C 1.457031 -0.390625 1.5 -0.46875 1.5 -0.5625 Z M 1.5 -0.5625 "/></g></g><g transform="translate(7.795303, 34.666669)"><g><path d="M 0.765625 -2.625 L 0.765625 -2.109375 L 1.15625 -2.109375 L 1.15625 -1.828125 L 0.765625 -1.828125 L 0.765625 -0.53125 C 0.765625 -0.4375 0.78125 -0.367188 0.8125 -0.328125 C 0.851562 -0.285156 0.914062 -0.265625 1 -0.265625 C 1.039062 -0.265625 1.097656 -0.273438 1.171875 -0.296875 L 1.171875 0 C 1.078125 0.03125 0.984375 0.046875 0.890625 0.046875 C 0.734375 0.046875 0.613281 0 0.53125 -0.09375 C 0.445312 -0.195312 0.40625 -0.34375 0.40625 -0.53125 L 0.40625 -1.828125 L 0.015625 -1.828125 L 0.015625 -2.109375 L 0.40625 -2.109375 L 0.40625 -2.625 Z M 0.765625 -2.625 "/></g></g><g transform="translate(9.101942, 34.666669)"><g><path d="M 1.578125 0 C 1.554688 -0.0390625 1.539062 -0.113281 1.53125 -0.21875 C 1.363281 -0.0390625 1.160156 0.046875 0.921875 0.046875 C 0.710938 0.046875 0.539062 -0.0078125 0.40625 -0.125 C 0.28125 -0.25 0.21875 -0.40625 0.21875 -0.59375 C 0.21875 -0.8125 0.300781 -0.976562 0.46875 -1.09375 C 0.632812 -1.21875 0.867188 -1.28125 1.171875 -1.28125 L 1.515625 -1.28125 L 1.515625 -1.453125 C 1.515625 -1.578125 1.476562 -1.675781 1.40625 -1.75 C 1.332031 -1.820312 1.222656 -1.859375 1.078125 -1.859375 C 0.941406 -1.859375 0.832031 -1.828125 0.75 -1.765625 C 0.664062 -1.703125 0.625 -1.625 0.625 -1.53125 L 0.25 -1.53125 C 0.25 -1.632812 0.285156 -1.734375 0.359375 -1.828125 C 0.441406 -1.929688 0.546875 -2.007812 0.671875 -2.0625 C 0.796875 -2.125 0.9375 -2.15625 1.09375 -2.15625 C 1.34375 -2.15625 1.535156 -2.09375 1.671875 -1.96875 C 1.804688 -1.84375 1.878906 -1.675781 1.890625 -1.46875 L 1.890625 -0.5 C 1.890625 -0.300781 1.910156 -0.144531 1.953125 -0.03125 L 1.953125 0 Z M 0.984375 -0.28125 C 1.097656 -0.28125 1.203125 -0.304688 1.296875 -0.359375 C 1.398438 -0.421875 1.472656 -0.5 1.515625 -0.59375 L 1.515625 -1.03125 L 1.234375 -1.03125 C 0.796875 -1.03125 0.578125 -0.898438 0.578125 -0.640625 C 0.578125 -0.523438 0.613281 -0.4375 0.6875 -0.375 C 0.757812 -0.3125 0.859375 -0.28125 0.984375 -0.28125 Z M 0.984375 -0.28125 "/></g></g><g transform="translate(11.27772, 34.666669)"><g><path d="M 0.96875 -0.484375 L 1.5 -2.109375 L 1.859375 -2.109375 L 1.109375 0 L 0.828125 0 L 0.0625 -2.109375 L 0.4375 -2.109375 Z M 0.96875 -0.484375 "/></g></g><g transform="translate(13.215217, 34.666669)"><g><path d="M 1.15625 0.046875 C 0.863281 0.046875 0.628906 -0.046875 0.453125 -0.234375 C 0.273438 -0.429688 0.1875 -0.6875 0.1875 -1 L 0.1875 -1.0625 C 0.1875 -1.269531 0.222656 -1.457031 0.296875 -1.625 C 0.378906 -1.789062 0.492188 -1.921875 0.640625 -2.015625 C 0.785156 -2.109375 0.941406 -2.15625 1.109375 -2.15625 C 1.378906 -2.15625 1.585938 -2.0625 1.734375 -1.875 C 1.890625 -1.695312 1.96875 -1.441406 1.96875 -1.109375 L 1.96875 -0.953125 L 0.546875 -0.953125 C 0.546875 -0.742188 0.601562 -0.570312 0.71875 -0.4375 C 0.84375 -0.3125 0.992188 -0.25 1.171875 -0.25 C 1.296875 -0.25 1.398438 -0.273438 1.484375 -0.328125 C 1.578125 -0.378906 1.660156 -0.453125 1.734375 -0.546875 L 1.953125 -0.375 C 1.773438 -0.09375 1.507812 0.046875 1.15625 0.046875 Z M 1.109375 -1.859375 C 0.960938 -1.859375 0.835938 -1.800781 0.734375 -1.6875 C 0.640625 -1.582031 0.582031 -1.4375 0.5625 -1.25 L 1.609375 -1.25 L 1.609375 -1.28125 C 1.597656 -1.457031 1.546875 -1.597656 1.453125 -1.703125 C 1.367188 -1.804688 1.253906 -1.859375 1.109375 -1.859375 Z M 1.109375 -1.859375 "/></g></g></g><g fill="#17191a" fill-opacity="1"><g transform="translate(1.35, 39.999995)"><g><path d="M 0.765625 -2.625 L 0.765625 -2.109375 L 1.15625 -2.109375 L 1.15625 -1.828125 L 0.765625 -1.828125 L 0.765625 -0.53125 C 0.765625 -0.4375 0.78125 -0.367188 0.8125 -0.328125 C 0.851562 -0.285156 0.914062 -0.265625 1 -0.265625 C 1.039062 -0.265625 1.097656 -0.273438 1.171875 -0.296875 L 1.171875 0 C 1.078125 0.03125 0.984375 0.046875 0.890625 0.046875 C 0.734375 0.046875 0.613281 0 0.53125 -0.09375 C 0.445312 -0.195312 0.40625 -0.34375 0.40625 -0.53125 L 0.40625 -1.828125 L 0.015625 -1.828125 L 0.015625 -2.109375 L 0.40625 -2.109375 L 0.40625 -2.625 Z M 0.765625 -2.625 "/></g></g><g transform="translate(2.656639, 39.999995)"><g><path d="M 0.640625 -2.109375 L 0.640625 0.25 C 0.640625 0.65625 0.457031 0.859375 0.09375 0.859375 C 0.0078125 0.859375 -0.0625 0.84375 -0.125 0.8125 L -0.125 0.53125 C -0.0820312 0.539062 -0.03125 0.546875 0.03125 0.546875 C 0.113281 0.546875 0.175781 0.523438 0.21875 0.484375 C 0.257812 0.441406 0.28125 0.363281 0.28125 0.25 L 0.28125 -2.109375 Z M 0.25 -2.671875 C 0.25 -2.734375 0.265625 -2.785156 0.296875 -2.828125 C 0.335938 -2.867188 0.390625 -2.890625 0.453125 -2.890625 C 0.523438 -2.890625 0.578125 -2.867188 0.609375 -2.828125 C 0.648438 -2.785156 0.671875 -2.734375 0.671875 -2.671875 C 0.671875 -2.617188 0.648438 -2.570312 0.609375 -2.53125 C 0.578125 -2.488281 0.523438 -2.46875 0.453125 -2.46875 C 0.390625 -2.46875 0.335938 -2.488281 0.296875 -2.53125 C 0.265625 -2.570312 0.25 -2.617188 0.25 -2.671875 Z M 0.25 -2.671875 "/></g></g><g transform="translate(3.611715, 39.999995)"><g><path d="M 1.15625 0.046875 C 0.863281 0.046875 0.628906 -0.046875 0.453125 -0.234375 C 0.273438 -0.429688 0.1875 -0.6875 0.1875 -1 L 0.1875 -1.0625 C 0.1875 -1.269531 0.222656 -1.457031 0.296875 -1.625 C 0.378906 -1.789062 0.492188 -1.921875 0.640625 -2.015625 C 0.785156 -2.109375 0.941406 -2.15625 1.109375 -2.15625 C 1.378906 -2.15625 1.585938 -2.0625 1.734375 -1.875 C 1.890625 -1.695312 1.96875 -1.441406 1.96875 -1.109375 L 1.96875 -0.953125 L 0.546875 -0.953125 C 0.546875 -0.742188 0.601562 -0.570312 0.71875 -0.4375 C 0.84375 -0.3125 0.992188 -0.25 1.171875 -0.25 C 1.296875 -0.25 1.398438 -0.273438 1.484375 -0.328125 C 1.578125 -0.378906 1.660156 -0.453125 1.734375 -0.546875 L 1.953125 -0.375 C 1.773438 -0.09375 1.507812 0.046875 1.15625 0.046875 Z M 1.109375 -1.859375 C 0.960938 -1.859375 0.835938 -1.800781 0.734375 -1.6875 C 0.640625 -1.582031 0.582031 -1.4375 0.5625 -1.25 L 1.609375 -1.25 L 1.609375 -1.28125 C 1.597656 -1.457031 1.546875 -1.597656 1.453125 -1.703125 C 1.367188 -1.804688 1.253906 -1.859375 1.109375 -1.859375 Z M 1.109375 -1.859375 "/></g></g><g transform="translate(5.730853, 39.999995)"><g><path d="M 0.1875 -1.078125 C 0.1875 -1.398438 0.257812 -1.660156 0.40625 -1.859375 C 0.5625 -2.054688 0.765625 -2.15625 1.015625 -2.15625 C 1.265625 -2.15625 1.460938 -2.070312 1.609375 -1.90625 L 1.609375 -3 L 1.96875 -3 L 1.96875 0 L 1.640625 0 L 1.625 -0.234375 C 1.476562 -0.046875 1.273438 0.046875 1.015625 0.046875 C 0.773438 0.046875 0.578125 -0.0507812 0.421875 -0.25 C 0.265625 -0.457031 0.1875 -0.722656 0.1875 -1.046875 Z M 0.546875 -1.03125 C 0.546875 -0.789062 0.59375 -0.601562 0.6875 -0.46875 C 0.789062 -0.332031 0.929688 -0.265625 1.109375 -0.265625 C 1.335938 -0.265625 1.503906 -0.367188 1.609375 -0.578125 L 1.609375 -1.546875 C 1.503906 -1.742188 1.335938 -1.84375 1.109375 -1.84375 C 0.929688 -1.84375 0.789062 -1.773438 0.6875 -1.640625 C 0.59375 -1.503906 0.546875 -1.300781 0.546875 -1.03125 Z M 0.546875 -1.03125 "/></g></g><g transform="translate(7.986709, 39.999995)"><g><path d="M 0.609375 -2.109375 L 0.625 -1.84375 C 0.789062 -2.050781 1.003906 -2.15625 1.265625 -2.15625 C 1.710938 -2.15625 1.9375 -1.898438 1.9375 -1.390625 L 1.9375 0 L 1.578125 0 L 1.578125 -1.40625 C 1.578125 -1.550781 1.539062 -1.660156 1.46875 -1.734375 C 1.40625 -1.804688 1.300781 -1.84375 1.15625 -1.84375 C 1.03125 -1.84375 0.921875 -1.8125 0.828125 -1.75 C 0.742188 -1.6875 0.679688 -1.601562 0.640625 -1.5 L 0.640625 0 L 0.28125 0 L 0.28125 -2.109375 Z M 0.609375 -2.109375 "/></g></g><g transform="translate(10.193737, 39.999995)"><g><path d="M 0.171875 -1.078125 C 0.171875 -1.285156 0.210938 -1.472656 0.296875 -1.640625 C 0.378906 -1.804688 0.492188 -1.929688 0.640625 -2.015625 C 0.785156 -2.109375 0.953125 -2.15625 1.140625 -2.15625 C 1.421875 -2.15625 1.648438 -2.054688 1.828125 -1.859375 C 2.015625 -1.660156 2.109375 -1.394531 2.109375 -1.0625 L 2.109375 -1.03125 C 2.109375 -0.820312 2.066406 -0.632812 1.984375 -0.46875 C 1.898438 -0.3125 1.785156 -0.1875 1.640625 -0.09375 C 1.492188 0 1.328125 0.046875 1.140625 0.046875 C 0.859375 0.046875 0.625 -0.0507812 0.4375 -0.25 C 0.257812 -0.457031 0.171875 -0.722656 0.171875 -1.046875 Z M 0.546875 -1.03125 C 0.546875 -0.800781 0.597656 -0.613281 0.703125 -0.46875 C 0.816406 -0.320312 0.960938 -0.25 1.140625 -0.25 C 1.328125 -0.25 1.472656 -0.320312 1.578125 -0.46875 C 1.679688 -0.613281 1.734375 -0.816406 1.734375 -1.078125 C 1.734375 -1.304688 1.675781 -1.492188 1.5625 -1.640625 C 1.457031 -1.785156 1.316406 -1.859375 1.140625 -1.859375 C 0.960938 -1.859375 0.816406 -1.785156 0.703125 -1.640625 C 0.597656 -1.503906 0.546875 -1.300781 0.546875 -1.03125 Z M 0.546875 -1.03125 "/></g></g><g transform="translate(12.474984, 39.999995)"><g/></g><g transform="translate(13.465217, 39.999995)"><g><path d="M 0.265625 -1.15625 C 0.265625 -1.445312 0.300781 -1.726562 0.375 -2 C 0.457031 -2.269531 0.578125 -2.515625 0.734375 -2.734375 C 0.890625 -2.960938 1.050781 -3.117188 1.21875 -3.203125 L 1.296875 -2.96875 C 1.097656 -2.820312 0.9375 -2.597656 0.8125 -2.296875 C 0.695312 -2.003906 0.632812 -1.671875 0.625 -1.296875 L 0.625 -1.125 C 0.625 -0.625 0.710938 -0.191406 0.890625 0.171875 C 1.003906 0.398438 1.140625 0.578125 1.296875 0.703125 L 1.21875 0.921875 C 1.039062 0.828125 0.875 0.664062 0.71875 0.4375 C 0.414062 -0.0078125 0.265625 -0.539062 0.265625 -1.15625 Z M 0.265625 -1.15625 "/></g></g><g transform="translate(14.832402, 39.999995)"><g><path d="M 1.578125 -0.203125 C 1.441406 -0.0351562 1.234375 0.046875 0.953125 0.046875 C 0.734375 0.046875 0.5625 -0.0195312 0.4375 -0.15625 C 0.320312 -0.289062 0.265625 -0.484375 0.265625 -0.734375 L 0.265625 -2.109375 L 0.625 -2.109375 L 0.625 -0.75 C 0.625 -0.425781 0.753906 -0.265625 1.015625 -0.265625 C 1.296875 -0.265625 1.476562 -0.367188 1.5625 -0.578125 L 1.5625 -2.109375 L 1.9375 -2.109375 L 1.9375 0 L 1.59375 0 Z M 1.578125 -0.203125 "/></g></g></g><g fill="#17191a" fill-opacity="1"><g transform="translate(1.35, 45.33332)"><g><path d="M 2.0625 -1.03125 C 2.0625 -0.707031 1.988281 -0.445312 1.84375 -0.25 C 1.695312 -0.0507812 1.492188 0.046875 1.234375 0.046875 C 0.984375 0.046875 0.785156 -0.0351562 0.640625 -0.203125 L 0.640625 0.8125 L 0.28125 0.8125 L 0.28125 -2.109375 L 0.609375 -2.109375 L 0.625 -1.875 C 0.769531 -2.0625 0.972656 -2.15625 1.234375 -2.15625 C 1.484375 -2.15625 1.679688 -2.054688 1.828125 -1.859375 C 1.984375 -1.671875 2.0625 -1.40625 2.0625 -1.0625 Z M 1.703125 -1.078125 C 1.703125 -1.316406 1.648438 -1.503906 1.546875 -1.640625 C 1.441406 -1.773438 1.300781 -1.84375 1.125 -1.84375 C 0.90625 -1.84375 0.742188 -1.75 0.640625 -1.5625 L 0.640625 -0.546875 C 0.742188 -0.347656 0.90625 -0.25 1.125 -0.25 C 1.300781 -0.25 1.441406 -0.316406 1.546875 -0.453125 C 1.648438 -0.597656 1.703125 -0.804688 1.703125 -1.078125 Z M 1.703125 -1.078125 "/></g></g><g transform="translate(3.594137, 45.33332)"><g><path d="M 1.296875 -1.796875 C 1.242188 -1.796875 1.1875 -1.796875 1.125 -1.796875 C 0.882812 -1.796875 0.722656 -1.695312 0.640625 -1.5 L 0.640625 0 L 0.28125 0 L 0.28125 -2.109375 L 0.625 -2.109375 L 0.625 -1.875 C 0.75 -2.0625 0.921875 -2.15625 1.140625 -2.15625 C 1.203125 -2.15625 1.253906 -2.144531 1.296875 -2.125 Z M 1.296875 -1.796875 "/></g></g><g transform="translate(4.947651, 45.33332)"><g><path d="M 0.171875 -1.078125 C 0.171875 -1.285156 0.210938 -1.472656 0.296875 -1.640625 C 0.378906 -1.804688 0.492188 -1.929688 0.640625 -2.015625 C 0.785156 -2.109375 0.953125 -2.15625 1.140625 -2.15625 C 1.421875 -2.15625 1.648438 -2.054688 1.828125 -1.859375 C 2.015625 -1.660156 2.109375 -1.394531 2.109375 -1.0625 L 2.109375 -1.03125 C 2.109375 -0.820312 2.066406 -0.632812 1.984375 -0.46875 C 1.898438 -0.3125 1.785156 -0.1875 1.640625 -0.09375 C 1.492188 0 1.328125 0.046875 1.140625 0.046875 C 0.859375 0.046875 0.625 -0.0507812 0.4375 -0.25 C 0.257812 -0.457031 0.171875 -0.722656 0.171875 -1.046875 Z M 0.546875 -1.03125 C 0.546875 -0.800781 0.597656 -0.613281 0.703125 -0.46875 C 0.816406 -0.320312 0.960938 -0.25 1.140625 -0.25 C 1.328125 -0.25 1.472656 -0.320312 1.578125 -0.46875 C 1.679688 -0.613281 1.734375 -0.816406 1.734375 -1.078125 C 1.734375 -1.304688 1.675781 -1.492188 1.5625 -1.640625 C 1.457031 -1.785156 1.316406 -1.859375 1.140625 -1.859375 C 0.960938 -1.859375 0.816406 -1.785156 0.703125 -1.640625 C 0.597656 -1.503906 0.546875 -1.300781 0.546875 -1.03125 Z M 0.546875 -1.03125 "/></g></g><g transform="translate(7.228898, 45.33332)"><g><path d="M 1.5 -0.5625 C 1.5 -0.65625 1.460938 -0.726562 1.390625 -0.78125 C 1.316406 -0.84375 1.1875 -0.890625 1 -0.921875 C 0.820312 -0.960938 0.675781 -1.007812 0.5625 -1.0625 C 0.457031 -1.125 0.378906 -1.191406 0.328125 -1.265625 C 0.285156 -1.335938 0.265625 -1.425781 0.265625 -1.53125 C 0.265625 -1.707031 0.335938 -1.851562 0.484375 -1.96875 C 0.628906 -2.09375 0.816406 -2.15625 1.046875 -2.15625 C 1.285156 -2.15625 1.476562 -2.09375 1.625 -1.96875 C 1.769531 -1.84375 1.84375 -1.6875 1.84375 -1.5 L 1.484375 -1.5 C 1.484375 -1.59375 1.441406 -1.675781 1.359375 -1.75 C 1.273438 -1.820312 1.171875 -1.859375 1.046875 -1.859375 C 0.910156 -1.859375 0.804688 -1.828125 0.734375 -1.765625 C 0.660156 -1.710938 0.625 -1.640625 0.625 -1.546875 C 0.625 -1.460938 0.65625 -1.394531 0.71875 -1.34375 C 0.789062 -1.300781 0.914062 -1.257812 1.09375 -1.21875 C 1.28125 -1.175781 1.425781 -1.128906 1.53125 -1.078125 C 1.644531 -1.023438 1.726562 -0.957031 1.78125 -0.875 C 1.832031 -0.789062 1.859375 -0.695312 1.859375 -0.59375 C 1.859375 -0.394531 1.78125 -0.238281 1.625 -0.125 C 1.476562 -0.0078125 1.285156 0.046875 1.046875 0.046875 C 0.878906 0.046875 0.726562 0.015625 0.59375 -0.046875 C 0.46875 -0.109375 0.367188 -0.191406 0.296875 -0.296875 C 0.222656 -0.410156 0.1875 -0.53125 0.1875 -0.65625 L 0.546875 -0.65625 C 0.554688 -0.53125 0.601562 -0.429688 0.6875 -0.359375 C 0.78125 -0.285156 0.898438 -0.25 1.046875 -0.25 C 1.179688 -0.25 1.289062 -0.273438 1.375 -0.328125 C 1.457031 -0.390625 1.5 -0.46875 1.5 -0.5625 Z M 1.5 -0.5625 "/></g></g><g transform="translate(9.291395, 45.33332)"><g><path d="M 0.640625 -2.109375 L 0.640625 0.25 C 0.640625 0.65625 0.457031 0.859375 0.09375 0.859375 C 0.0078125 0.859375 -0.0625 0.84375 -0.125 0.8125 L -0.125 0.53125 C -0.0820312 0.539062 -0.03125 0.546875 0.03125 0.546875 C 0.113281 0.546875 0.175781 0.523438 0.21875 0.484375 C 0.257812 0.441406 0.28125 0.363281 0.28125 0.25 L 0.28125 -2.109375 Z M 0.25 -2.671875 C 0.25 -2.734375 0.265625 -2.785156 0.296875 -2.828125 C 0.335938 -2.867188 0.390625 -2.890625 0.453125 -2.890625 C 0.523438 -2.890625 0.578125 -2.867188 0.609375 -2.828125 C 0.648438 -2.785156 0.671875 -2.734375 0.671875 -2.671875 C 0.671875 -2.617188 0.648438 -2.570312 0.609375 -2.53125 C 0.578125 -2.488281 0.523438 -2.46875 0.453125 -2.46875 C 0.390625 -2.46875 0.335938 -2.488281 0.296875 -2.53125 C 0.265625 -2.570312 0.25 -2.617188 0.25 -2.671875 Z M 0.25 -2.671875 "/></g></g><g transform="translate(10.246471, 45.33332)"><g><path d="M 1.15625 0.046875 C 0.863281 0.046875 0.628906 -0.046875 0.453125 -0.234375 C 0.273438 -0.429688 0.1875 -0.6875 0.1875 -1 L 0.1875 -1.0625 C 0.1875 -1.269531 0.222656 -1.457031 0.296875 -1.625 C 0.378906 -1.789062 0.492188 -1.921875 0.640625 -2.015625 C 0.785156 -2.109375 0.941406 -2.15625 1.109375 -2.15625 C 1.378906 -2.15625 1.585938 -2.0625 1.734375 -1.875 C 1.890625 -1.695312 1.96875 -1.441406 1.96875 -1.109375 L 1.96875 -0.953125 L 0.546875 -0.953125 C 0.546875 -0.742188 0.601562 -0.570312 0.71875 -0.4375 C 0.84375 -0.3125 0.992188 -0.25 1.171875 -0.25 C 1.296875 -0.25 1.398438 -0.273438 1.484375 -0.328125 C 1.578125 -0.378906 1.660156 -0.453125 1.734375 -0.546875 L 1.953125 -0.375 C 1.773438 -0.09375 1.507812 0.046875 1.15625 0.046875 Z M 1.109375 -1.859375 C 0.960938 -1.859375 0.835938 -1.800781 0.734375 -1.6875 C 0.640625 -1.582031 0.582031 -1.4375 0.5625 -1.25 L 1.609375 -1.25 L 1.609375 -1.28125 C 1.597656 -1.457031 1.546875 -1.597656 1.453125 -1.703125 C 1.367188 -1.804688 1.253906 -1.859375 1.109375 -1.859375 Z M 1.109375 -1.859375 "/></g></g><g transform="translate(12.365609, 45.33332)"><g><path d="M 0.859375 -0.984375 L 0.640625 -0.75 L 0.640625 0 L 0.28125 0 L 0.28125 -3 L 0.640625 -3 L 0.640625 -1.1875 L 0.828125 -1.421875 L 1.484375 -2.109375 L 1.921875 -2.109375 L 1.109375 -1.234375 L 2.03125 0 L 1.59375 0 Z M 0.859375 -0.984375 "/></g></g><g transform="translate(14.39295, 45.33332)"><g><path d="M 1.578125 -0.203125 C 1.441406 -0.0351562 1.234375 0.046875 0.953125 0.046875 C 0.734375 0.046875 0.5625 -0.0195312 0.4375 -0.15625 C 0.320312 -0.289062 0.265625 -0.484375 0.265625 -0.734375 L 0.265625 -2.109375 L 0.625 -2.109375 L 0.625 -0.75 C 0.625 -0.425781 0.753906 -0.265625 1.015625 -0.265625 C 1.296875 -0.265625 1.476562 -0.367188 1.5625 -0.578125 L 1.5625 -2.109375 L 1.9375 -2.109375 L 1.9375 0 L 1.59375 0 Z M 1.578125 -0.203125 "/></g></g><g transform="translate(16.598025, 45.33332)"><g><path d="M 1.109375 -1.140625 C 1.109375 -0.847656 1.066406 -0.566406 0.984375 -0.296875 C 0.910156 -0.0351562 0.796875 0.207031 0.640625 0.4375 C 0.484375 0.664062 0.320312 0.828125 0.15625 0.921875 L 0.078125 0.703125 C 0.273438 0.546875 0.429688 0.304688 0.546875 -0.015625 C 0.671875 -0.335938 0.738281 -0.695312 0.75 -1.09375 L 0.75 -1.15625 C 0.75 -1.425781 0.71875 -1.679688 0.65625 -1.921875 C 0.601562 -2.160156 0.523438 -2.367188 0.421875 -2.546875 C 0.316406 -2.734375 0.203125 -2.878906 0.078125 -2.984375 L 0.15625 -3.203125 C 0.320312 -3.109375 0.484375 -2.953125 0.640625 -2.734375 C 0.796875 -2.515625 0.910156 -2.269531 0.984375 -2 C 1.066406 -1.726562 1.109375 -1.441406 1.109375 -1.140625 Z M 1.109375 -1.140625 "/></g></g><g transform="translate(17.988648, 45.33332)"><g><path d="M 0.703125 -0.796875 C 0.703125 -0.953125 0.71875 -1.070312 0.75 -1.15625 C 0.78125 -1.25 0.847656 -1.351562 0.953125 -1.46875 L 1.203125 -1.734375 C 1.316406 -1.859375 1.375 -1.988281 1.375 -2.125 C 1.375 -2.257812 1.335938 -2.363281 1.265625 -2.4375 C 1.191406 -2.519531 1.085938 -2.5625 0.953125 -2.5625 C 0.816406 -2.5625 0.707031 -2.523438 0.625 -2.453125 C 0.550781 -2.390625 0.515625 -2.296875 0.515625 -2.171875 L 0.140625 -2.171875 C 0.148438 -2.390625 0.226562 -2.5625 0.375 -2.6875 C 0.519531 -2.820312 0.710938 -2.890625 0.953125 -2.890625 C 1.191406 -2.890625 1.378906 -2.820312 1.515625 -2.6875 C 1.660156 -2.550781 1.734375 -2.367188 1.734375 -2.140625 C 1.734375 -1.910156 1.628906 -1.6875 1.421875 -1.46875 L 1.203125 -1.25 C 1.109375 -1.144531 1.0625 -0.992188 1.0625 -0.796875 Z M 0.6875 -0.1875 C 0.6875 -0.238281 0.703125 -0.285156 0.734375 -0.328125 C 0.773438 -0.367188 0.828125 -0.390625 0.890625 -0.390625 C 0.960938 -0.390625 1.015625 -0.367188 1.046875 -0.328125 C 1.085938 -0.285156 1.109375 -0.234375 1.109375 -0.171875 C 1.109375 -0.117188 1.085938 -0.0703125 1.046875 -0.03125 C 1.015625 0 0.960938 0.015625 0.890625 0.015625 C 0.828125 0.015625 0.773438 0 0.734375 -0.03125 C 0.703125 -0.0703125 0.6875 -0.125 0.6875 -0.1875 Z M 0.6875 -0.1875 "/></g></g></g><g fill="#17191a" fill-opacity="1"><g transform="translate(1.35, 50.666646)"><g><path d="M 1.046875 -1.328125 L 0.703125 -0.96875 L 0.703125 0 L 0.328125 0 L 0.328125 -2.84375 L 0.703125 -2.84375 L 0.703125 -1.4375 L 1.96875 -2.84375 L 2.421875 -2.84375 L 1.296875 -1.59375 L 2.515625 0 L 2.0625 0 Z M 1.046875 -1.328125 "/></g></g><g transform="translate(3.857809, 50.666646)"><g><path d="M 0.171875 -1.078125 C 0.171875 -1.285156 0.210938 -1.472656 0.296875 -1.640625 C 0.378906 -1.804688 0.492188 -1.929688 0.640625 -2.015625 C 0.785156 -2.109375 0.953125 -2.15625 1.140625 -2.15625 C 1.421875 -2.15625 1.648438 -2.054688 1.828125 -1.859375 C 2.015625 -1.660156 2.109375 -1.394531 2.109375 -1.0625 L 2.109375 -1.03125 C 2.109375 -0.820312 2.066406 -0.632812 1.984375 -0.46875 C 1.898438 -0.3125 1.785156 -0.1875 1.640625 -0.09375 C 1.492188 0 1.328125 0.046875 1.140625 0.046875 C 0.859375 0.046875 0.625 -0.0507812 0.4375 -0.25 C 0.257812 -0.457031 0.171875 -0.722656 0.171875 -1.046875 Z M 0.546875 -1.03125 C 0.546875 -0.800781 0.597656 -0.613281 0.703125 -0.46875 C 0.816406 -0.320312 0.960938 -0.25 1.140625 -0.25 C 1.328125 -0.25 1.472656 -0.320312 1.578125 -0.46875 C 1.679688 -0.613281 1.734375 -0.816406 1.734375 -1.078125 C 1.734375 -1.304688 1.675781 -1.492188 1.5625 -1.640625 C 1.457031 -1.785156 1.316406 -1.859375 1.140625 -1.859375 C 0.960938 -1.859375 0.816406 -1.785156 0.703125 -1.640625 C 0.597656 -1.503906 0.546875 -1.300781 0.546875 -1.03125 Z M 0.546875 -1.03125 "/></g></g><g transform="translate(6.139056, 50.666646)"><g><path d="M 0.671875 0 L 0.3125 0 L 0.3125 -3 L 0.671875 -3 Z M 0.671875 0 "/></g></g><g transform="translate(7.109757, 50.666646)"><g><path d="M 0.671875 0 L 0.3125 0 L 0.3125 -2.109375 L 0.671875 -2.109375 Z M 0.28125 -2.671875 C 0.28125 -2.734375 0.296875 -2.785156 0.328125 -2.828125 C 0.367188 -2.867188 0.421875 -2.890625 0.484375 -2.890625 C 0.554688 -2.890625 0.609375 -2.867188 0.640625 -2.828125 C 0.679688 -2.785156 0.703125 -2.734375 0.703125 -2.671875 C 0.703125 -2.617188 0.679688 -2.570312 0.640625 -2.53125 C 0.609375 -2.488281 0.554688 -2.46875 0.484375 -2.46875 C 0.421875 -2.46875 0.367188 -2.488281 0.328125 -2.53125 C 0.296875 -2.570312 0.28125 -2.617188 0.28125 -2.671875 Z M 0.28125 -2.671875 "/></g></g><g transform="translate(8.080459, 50.666646)"><g><path d="M 0.859375 -0.984375 L 0.640625 -0.75 L 0.640625 0 L 0.28125 0 L 0.28125 -3 L 0.640625 -3 L 0.640625 -1.1875 L 0.828125 -1.421875 L 1.484375 -2.109375 L 1.921875 -2.109375 L 1.109375 -1.234375 L 2.03125 0 L 1.59375 0 Z M 0.859375 -0.984375 "/></g></g><g transform="translate(10.1078, 50.666646)"><g><path d="M 0.171875 -1.078125 C 0.171875 -1.285156 0.210938 -1.472656 0.296875 -1.640625 C 0.378906 -1.804688 0.492188 -1.929688 0.640625 -2.015625 C 0.785156 -2.109375 0.953125 -2.15625 1.140625 -2.15625 C 1.421875 -2.15625 1.648438 -2.054688 1.828125 -1.859375 C 2.015625 -1.660156 2.109375 -1.394531 2.109375 -1.0625 L 2.109375 -1.03125 C 2.109375 -0.820312 2.066406 -0.632812 1.984375 -0.46875 C 1.898438 -0.3125 1.785156 -0.1875 1.640625 -0.09375 C 1.492188 0 1.328125 0.046875 1.140625 0.046875 C 0.859375 0.046875 0.625 -0.0507812 0.4375 -0.25 C 0.257812 -0.457031 0.171875 -0.722656 0.171875 -1.046875 Z M 0.546875 -1.03125 C 0.546875 -0.800781 0.597656 -0.613281 0.703125 -0.46875 C 0.816406 -0.320312 0.960938 -0.25 1.140625 -0.25 C 1.328125 -0.25 1.472656 -0.320312 1.578125 -0.46875 C 1.679688 -0.613281 1.734375 -0.816406 1.734375 -1.078125 C 1.734375 -1.304688 1.675781 -1.492188 1.5625 -1.640625 C 1.457031 -1.785156 1.316406 -1.859375 1.140625 -1.859375 C 0.960938 -1.859375 0.816406 -1.785156 0.703125 -1.640625 C 0.597656 -1.503906 0.546875 -1.300781 0.546875 -1.03125 Z M 0.546875 -1.03125 "/></g></g><g transform="translate(12.389046, 50.666646)"><g/></g><g transform="translate(13.379279, 50.666646)"><g><path d="M 0.96875 -0.484375 L 1.5 -2.109375 L 1.859375 -2.109375 L 1.109375 0 L 0.828125 0 L 0.0625 -2.109375 L 0.4375 -2.109375 Z M 0.96875 -0.484375 "/></g></g><g transform="translate(15.316777, 50.666646)"><g><path d="M 0.671875 0 L 0.3125 0 L 0.3125 -2.109375 L 0.671875 -2.109375 Z M 0.28125 -2.671875 C 0.28125 -2.734375 0.296875 -2.785156 0.328125 -2.828125 C 0.367188 -2.867188 0.421875 -2.890625 0.484375 -2.890625 C 0.554688 -2.890625 0.609375 -2.867188 0.640625 -2.828125 C 0.679688 -2.785156 0.703125 -2.734375 0.703125 -2.671875 C 0.703125 -2.617188 0.679688 -2.570312 0.640625 -2.53125 C 0.609375 -2.488281 0.554688 -2.46875 0.484375 -2.46875 C 0.421875 -2.46875 0.367188 -2.488281 0.328125 -2.53125 C 0.296875 -2.570312 0.28125 -2.617188 0.28125 -2.671875 Z M 0.28125 -2.671875 "/></g></g><g transform="translate(16.287478, 50.666646)"><g><path d="M 1.5 -0.5625 C 1.5 -0.65625 1.460938 -0.726562 1.390625 -0.78125 C 1.316406 -0.84375 1.1875 -0.890625 1 -0.921875 C 0.820312 -0.960938 0.675781 -1.007812 0.5625 -1.0625 C 0.457031 -1.125 0.378906 -1.191406 0.328125 -1.265625 C 0.285156 -1.335938 0.265625 -1.425781 0.265625 -1.53125 C 0.265625 -1.707031 0.335938 -1.851562 0.484375 -1.96875 C 0.628906 -2.09375 0.816406 -2.15625 1.046875 -2.15625 C 1.285156 -2.15625 1.476562 -2.09375 1.625 -1.96875 C 1.769531 -1.84375 1.84375 -1.6875 1.84375 -1.5 L 1.484375 -1.5 C 1.484375 -1.59375 1.441406 -1.675781 1.359375 -1.75 C 1.273438 -1.820312 1.171875 -1.859375 1.046875 -1.859375 C 0.910156 -1.859375 0.804688 -1.828125 0.734375 -1.765625 C 0.660156 -1.710938 0.625 -1.640625 0.625 -1.546875 C 0.625 -1.460938 0.65625 -1.394531 0.71875 -1.34375 C 0.789062 -1.300781 0.914062 -1.257812 1.09375 -1.21875 C 1.28125 -1.175781 1.425781 -1.128906 1.53125 -1.078125 C 1.644531 -1.023438 1.726562 -0.957031 1.78125 -0.875 C 1.832031 -0.789062 1.859375 -0.695312 1.859375 -0.59375 C 1.859375 -0.394531 1.78125 -0.238281 1.625 -0.125 C 1.476562 -0.0078125 1.285156 0.046875 1.046875 0.046875 C 0.878906 0.046875 0.726562 0.015625 0.59375 -0.046875 C 0.46875 -0.109375 0.367188 -0.191406 0.296875 -0.296875 C 0.222656 -0.410156 0.1875 -0.53125 0.1875 -0.65625 L 0.546875 -0.65625 C 0.554688 -0.53125 0.601562 -0.429688 0.6875 -0.359375 C 0.78125 -0.285156 0.898438 -0.25 1.046875 -0.25 C 1.179688 -0.25 1.289062 -0.273438 1.375 -0.328125 C 1.457031 -0.390625 1.5 -0.46875 1.5 -0.5625 Z M 1.09375 -2.671875 L 1.390625 -3 L 1.703125 -3 L 1.703125 -2.984375 L 1.203125 -2.4375 L 0.984375 -2.4375 L 0.5 -2.984375 L 0.5 -3 L 0.796875 -3 Z M 1.09375 -2.671875 "/></g></g><g transform="translate(18.349975, 50.666646)"><g><path d="M 1.15625 0.046875 C 0.863281 0.046875 0.628906 -0.046875 0.453125 -0.234375 C 0.273438 -0.429688 0.1875 -0.6875 0.1875 -1 L 0.1875 -1.0625 C 0.1875 -1.269531 0.222656 -1.457031 0.296875 -1.625 C 0.378906 -1.789062 0.492188 -1.921875 0.640625 -2.015625 C 0.785156 -2.109375 0.941406 -2.15625 1.109375 -2.15625 C 1.378906 -2.15625 1.585938 -2.0625 1.734375 -1.875 C 1.890625 -1.695312 1.96875 -1.441406 1.96875 -1.109375 L 1.96875 -0.953125 L 0.546875 -0.953125 C 0.546875 -0.742188 0.601562 -0.570312 0.71875 -0.4375 C 0.84375 -0.3125 0.992188 -0.25 1.171875 -0.25 C 1.296875 -0.25 1.398438 -0.273438 1.484375 -0.328125 C 1.578125 -0.378906 1.660156 -0.453125 1.734375 -0.546875 L 1.953125 -0.375 C 1.773438 -0.09375 1.507812 0.046875 1.15625 0.046875 Z M 1.109375 -1.859375 C 0.960938 -1.859375 0.835938 -1.800781 0.734375 -1.6875 C 0.640625 -1.582031 0.582031 -1.4375 0.5625 -1.25 L 1.609375 -1.25 L 1.609375 -1.28125 C 1.597656 -1.457031 1.546875 -1.597656 1.453125 -1.703125 C 1.367188 -1.804688 1.253906 -1.859375 1.109375 -1.859375 Z M 1.109375 -1.859375 "/></g></g><g transform="translate(20.469113, 50.666646)"><g><path d="M 0.703125 -0.796875 C 0.703125 -0.953125 0.71875 -1.070312 0.75 -1.15625 C 0.78125 -1.25 0.847656 -1.351562 0.953125 -1.46875 L 1.203125 -1.734375 C 1.316406 -1.859375 1.375 -1.988281 1.375 -2.125 C 1.375 -2.257812 1.335938 -2.363281 1.265625 -2.4375 C 1.191406 -2.519531 1.085938 -2.5625 0.953125 -2.5625 C 0.816406 -2.5625 0.707031 -2.523438 0.625 -2.453125 C 0.550781 -2.390625 0.515625 -2.296875 0.515625 -2.171875 L 0.140625 -2.171875 C 0.148438 -2.390625 0.226562 -2.5625 0.375 -2.6875 C 0.519531 -2.820312 0.710938 -2.890625 0.953125 -2.890625 C 1.191406 -2.890625 1.378906 -2.820312 1.515625 -2.6875 C 1.660156 -2.550781 1.734375 -2.367188 1.734375 -2.140625 C 1.734375 -1.910156 1.628906 -1.6875 1.421875 -1.46875 L 1.203125 -1.25 C 1.109375 -1.144531 1.0625 -0.992188 1.0625 -0.796875 Z M 0.6875 -0.1875 C 0.6875 -0.238281 0.703125 -0.285156 0.734375 -0.328125 C 0.773438 -0.367188 0.828125 -0.390625 0.890625 -0.390625 C 0.960938 -0.390625 1.015625 -0.367188 1.046875 -0.328125 C 1.085938 -0.285156 1.109375 -0.234375 1.109375 -0.171875 C 1.109375 -0.117188 1.085938 -0.0703125 1.046875 -0.03125 C 1.015625 0 0.960938 0.015625 0.890625 0.015625 C 0.828125 0.015625 0.773438 0 0.734375 -0.03125 C 0.703125 -0.0703125 0.6875 -0.125 0.6875 -0.1875 Z M 0.6875 -0.1875 "/></g></g></g></svg>