<svg xmlns="http://www.w3.org/2000/svg" xmlns:xlink="http://www.w3.org/1999/xlink" width="500" zoomAndPan="magnify" viewBox="0 0 72 72" height="500" preserveAspectRatio="xMidYMid meet" version="1.0"><defs><g/><clipPath id="e1c65ce06d"><path d="M 26.0625 43.539062 L 50 43.539062 L 50 68 L 26.0625 68 Z M 26.0625 43.539062 " clip-rule="nonzero"/></clipPath><clipPath id="c213637ec8"><path d="M 37.484375 43.539062 C 43.644531 43.539062 48.835938 48.136719 49.582031 54.253906 C 50.324219 60.367188 46.386719 66.078125 40.40625 67.554688 C 34.425781 69.03125 28.285156 65.8125 26.09375 60.054688 L 37.484375 55.726562 L 37.484375 43.539062 " clip-rule="nonzero"/></clipPath><clipPath id="8ef26bfa39"><path d="M 25 44.015625 L 37.484375 44.015625 L 37.484375 60.675781 L 25 60.675781 Z M 25 44.015625 " clip-rule="nonzero"/></clipPath><clipPath id="4649a7aeeb"><path d="M 26.324219 60.621094 C 24.914062 57.402344 24.960938 53.734375 26.453125 50.554688 C 27.941406 47.371094 30.734375 44.988281 34.109375 44.015625 L 37.484375 55.726562 L 26.324219 60.621094 " clip-rule="nonzero"/></clipPath><clipPath id="1e20c9d8ef"><path d="M 33.488281 43.539062 L 37.484375 43.539062 L 37.484375 55.726562 L 33.488281 55.726562 Z M 33.488281 43.539062 " clip-rule="nonzero"/></clipPath><clipPath id="592ad7a3f5"><path d="M 33.527344 44.199219 C 34.800781 43.761719 36.136719 43.539062 37.484375 43.539062 L 37.484375 55.726562 L 33.527344 44.199219 " clip-rule="nonzero"/></clipPath></defs><g fill="#231f20" fill-opacity="1"><g transform="translate(49.506019, 65.630313)"><g><path d="M 0.25 0 L 0.25 -2.84375 L 1.25 -2.84375 C 1.59375 -2.84375 1.851562 -2.773438 2.03125 -2.640625 C 2.207031 -2.515625 2.296875 -2.320312 2.296875 -2.0625 C 2.296875 -1.925781 2.257812 -1.800781 2.1875 -1.6875 C 2.125 -1.582031 2.023438 -1.507812 1.890625 -1.46875 C 2.035156 -1.425781 2.148438 -1.347656 2.234375 -1.234375 C 2.328125 -1.128906 2.375 -1 2.375 -0.84375 C 2.375 -0.5625 2.285156 -0.347656 2.109375 -0.203125 C 1.929688 -0.0664062 1.679688 0 1.359375 0 Z M 0.84375 -1.234375 L 0.84375 -0.46875 L 1.34375 -0.46875 C 1.476562 -0.46875 1.582031 -0.5 1.65625 -0.5625 C 1.738281 -0.632812 1.78125 -0.726562 1.78125 -0.84375 C 1.78125 -1.101562 1.644531 -1.234375 1.375 -1.234375 Z M 0.84375 -1.65625 L 1.28125 -1.65625 C 1.570312 -1.65625 1.71875 -1.769531 1.71875 -2 C 1.71875 -2.132812 1.679688 -2.226562 1.609375 -2.28125 C 1.535156 -2.34375 1.414062 -2.375 1.25 -2.375 L 0.84375 -2.375 Z M 0.84375 -1.65625 "/></g></g></g><g fill="#231f20" fill-opacity="1"><g transform="translate(52.054319, 65.630313)"><g><path d="M 1.4375 0 C 1.414062 -0.0507812 1.398438 -0.113281 1.390625 -0.1875 C 1.253906 -0.03125 1.078125 0.046875 0.859375 0.046875 C 0.648438 0.046875 0.476562 -0.015625 0.34375 -0.140625 C 0.207031 -0.265625 0.140625 -0.414062 0.140625 -0.59375 C 0.140625 -0.820312 0.21875 -0.992188 0.375 -1.109375 C 0.539062 -1.234375 0.785156 -1.296875 1.109375 -1.296875 L 1.359375 -1.296875 L 1.359375 -1.40625 C 1.359375 -1.507812 1.332031 -1.585938 1.28125 -1.640625 C 1.238281 -1.703125 1.160156 -1.734375 1.046875 -1.734375 C 0.953125 -1.734375 0.878906 -1.707031 0.828125 -1.65625 C 0.773438 -1.613281 0.75 -1.554688 0.75 -1.484375 L 0.1875 -1.484375 C 0.1875 -1.597656 0.222656 -1.707031 0.296875 -1.8125 C 0.367188 -1.914062 0.472656 -2 0.609375 -2.0625 C 0.753906 -2.125 0.910156 -2.15625 1.078125 -2.15625 C 1.335938 -2.15625 1.539062 -2.085938 1.6875 -1.953125 C 1.84375 -1.828125 1.921875 -1.644531 1.921875 -1.40625 L 1.921875 -0.484375 C 1.929688 -0.285156 1.960938 -0.132812 2.015625 -0.03125 L 2.015625 0 Z M 0.96875 -0.390625 C 1.050781 -0.390625 1.128906 -0.40625 1.203125 -0.4375 C 1.273438 -0.476562 1.328125 -0.53125 1.359375 -0.59375 L 1.359375 -0.96875 L 1.15625 -0.96875 C 0.875 -0.96875 0.722656 -0.867188 0.703125 -0.671875 L 0.703125 -0.640625 C 0.703125 -0.566406 0.722656 -0.503906 0.765625 -0.453125 C 0.816406 -0.410156 0.882812 -0.390625 0.96875 -0.390625 Z M 0.96875 -0.390625 "/></g></g></g><g fill="#231f20" fill-opacity="1"><g transform="translate(54.195124, 65.630313)"><g><path d="M 0.984375 -0.84375 L 0.78125 -0.640625 L 0.78125 0 L 0.21875 0 L 0.21875 -3 L 0.78125 -3 L 0.78125 -1.34375 L 0.890625 -1.484375 L 1.4375 -2.109375 L 2.109375 -2.109375 L 1.34375 -1.234375 L 2.171875 0 L 1.53125 0 Z M 0.984375 -0.84375 "/></g></g></g><g fill="#231f20" fill-opacity="1"><g transform="translate(56.328129, 65.630313)"><g><path d="M 1.4375 0 C 1.414062 -0.0507812 1.398438 -0.113281 1.390625 -0.1875 C 1.253906 -0.03125 1.078125 0.046875 0.859375 0.046875 C 0.648438 0.046875 0.476562 -0.015625 0.34375 -0.140625 C 0.207031 -0.265625 0.140625 -0.414062 0.140625 -0.59375 C 0.140625 -0.820312 0.21875 -0.992188 0.375 -1.109375 C 0.539062 -1.234375 0.785156 -1.296875 1.109375 -1.296875 L 1.359375 -1.296875 L 1.359375 -1.40625 C 1.359375 -1.507812 1.332031 -1.585938 1.28125 -1.640625 C 1.238281 -1.703125 1.160156 -1.734375 1.046875 -1.734375 C 0.953125 -1.734375 0.878906 -1.707031 0.828125 -1.65625 C 0.773438 -1.613281 0.75 -1.554688 0.75 -1.484375 L 0.1875 -1.484375 C 0.1875 -1.597656 0.222656 -1.707031 0.296875 -1.8125 C 0.367188 -1.914062 0.472656 -2 0.609375 -2.0625 C 0.753906 -2.125 0.910156 -2.15625 1.078125 -2.15625 C 1.335938 -2.15625 1.539062 -2.085938 1.6875 -1.953125 C 1.84375 -1.828125 1.921875 -1.644531 1.921875 -1.40625 L 1.921875 -0.484375 C 1.929688 -0.285156 1.960938 -0.132812 2.015625 -0.03125 L 2.015625 0 Z M 0.96875 -0.390625 C 1.050781 -0.390625 1.128906 -0.40625 1.203125 -0.4375 C 1.273438 -0.476562 1.328125 -0.53125 1.359375 -0.59375 L 1.359375 -0.96875 L 1.15625 -0.96875 C 0.875 -0.96875 0.722656 -0.867188 0.703125 -0.671875 L 0.703125 -0.640625 C 0.703125 -0.566406 0.722656 -0.503906 0.765625 -0.453125 C 0.816406 -0.410156 0.882812 -0.390625 0.96875 -0.390625 Z M 0.96875 -0.390625 "/></g></g></g><g fill="#231f20" fill-opacity="1"><g transform="translate(58.468933, 65.630313)"><g><path d="M 1.40625 -1.578125 C 1.332031 -1.585938 1.265625 -1.59375 1.203125 -1.59375 C 0.984375 -1.59375 0.84375 -1.523438 0.78125 -1.390625 L 0.78125 0 L 0.21875 0 L 0.21875 -2.109375 L 0.75 -2.109375 L 0.765625 -1.859375 C 0.878906 -2.054688 1.035156 -2.15625 1.234375 -2.15625 C 1.296875 -2.15625 1.351562 -2.144531 1.40625 -2.125 Z M 1.40625 -1.578125 "/></g></g></g><g fill="#231f20" fill-opacity="1"><g transform="translate(50.791199, 71.04605)"><g><path d="M 1.5625 0 L 1 0 L 1 -2.171875 L 0.328125 -1.96875 L 0.328125 -2.421875 L 1.5 -2.84375 L 1.5625 -2.84375 Z M 1.5625 0 "/></g></g></g><g fill="#231f20" fill-opacity="1"><g transform="translate(53.082135, 71.04605)"><g><path d="M 0.765625 -1.671875 L 1.0625 -1.671875 C 1.207031 -1.671875 1.3125 -1.707031 1.375 -1.78125 C 1.445312 -1.851562 1.484375 -1.945312 1.484375 -2.0625 C 1.484375 -2.175781 1.445312 -2.265625 1.375 -2.328125 C 1.3125 -2.390625 1.222656 -2.421875 1.109375 -2.421875 C 0.992188 -2.421875 0.898438 -2.390625 0.828125 -2.328125 C 0.753906 -2.273438 0.71875 -2.203125 0.71875 -2.109375 L 0.15625 -2.109375 C 0.15625 -2.253906 0.195312 -2.382812 0.28125 -2.5 C 0.363281 -2.625 0.472656 -2.71875 0.609375 -2.78125 C 0.753906 -2.851562 0.914062 -2.890625 1.09375 -2.890625 C 1.394531 -2.890625 1.628906 -2.816406 1.796875 -2.671875 C 1.972656 -2.523438 2.0625 -2.328125 2.0625 -2.078125 C 2.0625 -1.941406 2.019531 -1.816406 1.9375 -1.703125 C 1.851562 -1.597656 1.75 -1.519531 1.625 -1.46875 C 1.78125 -1.40625 1.894531 -1.316406 1.96875 -1.203125 C 2.050781 -1.085938 2.09375 -0.953125 2.09375 -0.796875 C 2.09375 -0.546875 2 -0.34375 1.8125 -0.1875 C 1.632812 -0.03125 1.394531 0.046875 1.09375 0.046875 C 0.8125 0.046875 0.578125 -0.0234375 0.390625 -0.171875 C 0.210938 -0.328125 0.125 -0.53125 0.125 -0.78125 L 0.6875 -0.78125 C 0.6875 -0.675781 0.726562 -0.585938 0.8125 -0.515625 C 0.894531 -0.453125 0.992188 -0.421875 1.109375 -0.421875 C 1.242188 -0.421875 1.347656 -0.453125 1.421875 -0.515625 C 1.492188 -0.585938 1.53125 -0.6875 1.53125 -0.8125 C 1.53125 -1.09375 1.375 -1.234375 1.0625 -1.234375 L 0.765625 -1.234375 Z M 0.765625 -1.671875 "/></g></g></g><g fill="#231f20" fill-opacity="1"><g transform="translate(55.373071, 71.04605)"><g/></g></g><g fill="#231f20" fill-opacity="1"><g transform="translate(56.367434, 71.04605)"><g><path d="M 0.140625 -1.078125 C 0.140625 -1.398438 0.210938 -1.660156 0.359375 -1.859375 C 0.515625 -2.054688 0.722656 -2.15625 0.984375 -2.15625 C 1.222656 -2.15625 1.40625 -2.078125 1.53125 -1.921875 L 1.5625 -2.109375 L 2.0625 -2.109375 L 2.0625 -0.078125 C 2.0625 0.109375 2.019531 0.269531 1.9375 0.40625 C 1.851562 0.550781 1.734375 0.65625 1.578125 0.71875 C 1.429688 0.789062 1.253906 0.828125 1.046875 0.828125 C 0.890625 0.828125 0.738281 0.796875 0.59375 0.734375 C 0.445312 0.671875 0.335938 0.59375 0.265625 0.5 L 0.515625 0.15625 C 0.648438 0.3125 0.820312 0.390625 1.03125 0.390625 C 1.175781 0.390625 1.289062 0.347656 1.375 0.265625 C 1.457031 0.191406 1.5 0.0820312 1.5 -0.0625 L 1.5 -0.1875 C 1.375 -0.03125 1.203125 0.046875 0.984375 0.046875 C 0.734375 0.046875 0.53125 -0.0507812 0.375 -0.25 C 0.21875 -0.457031 0.140625 -0.722656 0.140625 -1.046875 Z M 0.703125 -1.03125 C 0.703125 -0.84375 0.738281 -0.691406 0.8125 -0.578125 C 0.894531 -0.472656 1 -0.421875 1.125 -0.421875 C 1.300781 -0.421875 1.425781 -0.484375 1.5 -0.609375 L 1.5 -1.5 C 1.425781 -1.625 1.304688 -1.6875 1.140625 -1.6875 C 1.003906 -1.6875 0.894531 -1.628906 0.8125 -1.515625 C 0.738281 -1.410156 0.703125 -1.25 0.703125 -1.03125 Z M 0.703125 -1.03125 "/></g></g></g><g fill="#231f20" fill-opacity="1"><g transform="translate(12.069744, 46.10213)"><g><path d="M 0.875 -0.46875 L 2.3125 -0.46875 L 2.3125 0 L 0.140625 0 L 0.140625 -0.34375 L 1.546875 -2.375 L 0.140625 -2.375 L 0.140625 -2.84375 L 2.28125 -2.84375 L 2.28125 -2.515625 Z M 1.234375 -3.328125 L 1.515625 -3.609375 L 2 -3.609375 L 2 -3.59375 L 1.40625 -3.046875 L 1.046875 -3.046875 L 0.46875 -3.59375 L 0.46875 -3.609375 L 0.953125 -3.609375 Z M 1.234375 -3.328125 "/></g></g></g><g fill="#231f20" fill-opacity="1"><g transform="translate(14.489363, 46.10213)"><g><path d="M 1.1875 0.046875 C 0.875 0.046875 0.617188 -0.046875 0.421875 -0.234375 C 0.234375 -0.429688 0.140625 -0.6875 0.140625 -1 L 0.140625 -1.0625 C 0.140625 -1.269531 0.179688 -1.457031 0.265625 -1.625 C 0.347656 -1.789062 0.460938 -1.921875 0.609375 -2.015625 C 0.765625 -2.109375 0.9375 -2.15625 1.125 -2.15625 C 1.414062 -2.15625 1.644531 -2.0625 1.8125 -1.875 C 1.976562 -1.695312 2.0625 -1.441406 2.0625 -1.109375 L 2.0625 -0.875 L 0.71875 -0.875 C 0.726562 -0.738281 0.78125 -0.628906 0.875 -0.546875 C 0.96875 -0.460938 1.085938 -0.421875 1.234375 -0.421875 C 1.441406 -0.421875 1.609375 -0.5 1.734375 -0.65625 L 2.015625 -0.34375 C 1.929688 -0.21875 1.816406 -0.117188 1.671875 -0.046875 C 1.523438 0.015625 1.363281 0.046875 1.1875 0.046875 Z M 1.125 -1.703125 C 1.007812 -1.703125 0.914062 -1.660156 0.84375 -1.578125 C 0.78125 -1.503906 0.738281 -1.398438 0.71875 -1.265625 L 1.5 -1.265625 L 1.5 -1.296875 C 1.5 -1.421875 1.46875 -1.519531 1.40625 -1.59375 C 1.34375 -1.664062 1.25 -1.703125 1.125 -1.703125 Z M 1.125 -1.703125 "/></g></g></g><g fill="#231f20" fill-opacity="1"><g transform="translate(16.647717, 46.10213)"><g><path d="M 0.8125 0 L 0.25 0 L 0.25 -3 L 0.8125 -3 Z M 0.8125 0 "/></g></g></g><g fill="#231f20" fill-opacity="1"><g transform="translate(17.706423, 46.10213)"><g><path d="M 0.8125 -2.109375 L 0.8125 0.109375 C 0.8125 0.347656 0.75 0.53125 0.625 0.65625 C 0.5 0.789062 0.320312 0.859375 0.09375 0.859375 C 0 0.859375 -0.09375 0.847656 -0.1875 0.828125 L -0.1875 0.375 C -0.113281 0.382812 -0.0546875 0.390625 -0.015625 0.390625 C 0.160156 0.390625 0.25 0.300781 0.25 0.125 L 0.25 -2.109375 Z M 0.203125 -2.65625 C 0.203125 -2.738281 0.226562 -2.804688 0.28125 -2.859375 C 0.34375 -2.921875 0.421875 -2.953125 0.515625 -2.953125 C 0.617188 -2.953125 0.695312 -2.921875 0.75 -2.859375 C 0.8125 -2.804688 0.84375 -2.738281 0.84375 -2.65625 C 0.84375 -2.570312 0.8125 -2.503906 0.75 -2.453125 C 0.6875 -2.398438 0.609375 -2.375 0.515625 -2.375 C 0.421875 -2.375 0.34375 -2.398438 0.28125 -2.453125 C 0.226562 -2.503906 0.203125 -2.570312 0.203125 -2.65625 Z M 0.203125 -2.65625 "/></g></g></g><g fill="#231f20" fill-opacity="1"><g transform="translate(18.74368, 46.10213)"><g><path d="M 1.1875 0.046875 C 0.875 0.046875 0.617188 -0.046875 0.421875 -0.234375 C 0.234375 -0.429688 0.140625 -0.6875 0.140625 -1 L 0.140625 -1.0625 C 0.140625 -1.269531 0.179688 -1.457031 0.265625 -1.625 C 0.347656 -1.789062 0.460938 -1.921875 0.609375 -2.015625 C 0.765625 -2.109375 0.9375 -2.15625 1.125 -2.15625 C 1.414062 -2.15625 1.644531 -2.0625 1.8125 -1.875 C 1.976562 -1.695312 2.0625 -1.441406 2.0625 -1.109375 L 2.0625 -0.875 L 0.71875 -0.875 C 0.726562 -0.738281 0.78125 -0.628906 0.875 -0.546875 C 0.96875 -0.460938 1.085938 -0.421875 1.234375 -0.421875 C 1.441406 -0.421875 1.609375 -0.5 1.734375 -0.65625 L 2.015625 -0.34375 C 1.929688 -0.21875 1.816406 -0.117188 1.671875 -0.046875 C 1.523438 0.015625 1.363281 0.046875 1.1875 0.046875 Z M 1.125 -1.703125 C 1.007812 -1.703125 0.914062 -1.660156 0.84375 -1.578125 C 0.78125 -1.503906 0.738281 -1.398438 0.71875 -1.265625 L 1.5 -1.265625 L 1.5 -1.296875 C 1.5 -1.421875 1.46875 -1.519531 1.40625 -1.59375 C 1.34375 -1.664062 1.25 -1.703125 1.125 -1.703125 Z M 1.125 -1.703125 "/></g></g></g><g fill="#231f20" fill-opacity="1"><g transform="translate(20.902035, 46.10213)"><g><path d="M 0.859375 -0.453125 L 1.90625 -0.453125 L 1.90625 0 L 0.140625 0 L 0.140625 -0.34375 L 1.140625 -1.65625 L 0.171875 -1.65625 L 0.171875 -2.109375 L 1.875 -2.109375 L 1.875 -1.78125 Z M 0.859375 -0.453125 "/></g></g></g><g fill="#231f20" fill-opacity="1"><g transform="translate(22.933654, 46.10213)"><g><path d="M 0.125 -1.078125 C 0.125 -1.285156 0.164062 -1.472656 0.25 -1.640625 C 0.332031 -1.804688 0.445312 -1.929688 0.59375 -2.015625 C 0.75 -2.109375 0.925781 -2.15625 1.125 -2.15625 C 1.414062 -2.15625 1.648438 -2.066406 1.828125 -1.890625 C 2.003906 -1.710938 2.101562 -1.476562 2.125 -1.1875 L 2.125 -1.03125 C 2.125 -0.707031 2.035156 -0.445312 1.859375 -0.25 C 1.679688 -0.0507812 1.4375 0.046875 1.125 0.046875 C 0.820312 0.046875 0.578125 -0.0507812 0.390625 -0.25 C 0.210938 -0.445312 0.125 -0.710938 0.125 -1.046875 Z M 0.6875 -1.03125 C 0.6875 -0.832031 0.722656 -0.679688 0.796875 -0.578125 C 0.878906 -0.472656 0.988281 -0.421875 1.125 -0.421875 C 1.269531 -0.421875 1.378906 -0.472656 1.453125 -0.578125 C 1.523438 -0.679688 1.5625 -0.847656 1.5625 -1.078125 C 1.5625 -1.273438 1.523438 -1.425781 1.453125 -1.53125 C 1.378906 -1.644531 1.269531 -1.703125 1.125 -1.703125 C 0.988281 -1.703125 0.878906 -1.644531 0.796875 -1.53125 C 0.722656 -1.425781 0.6875 -1.257812 0.6875 -1.03125 Z M 0.6875 -1.03125 "/></g></g></g><g fill="#231f20" fill-opacity="1"><g transform="translate(15.85124, 51.517868)"><g><path d="M 0.28125 -1.40625 L 0.4375 -2.84375 L 2.03125 -2.84375 L 2.03125 -2.375 L 0.90625 -2.375 L 0.828125 -1.765625 C 0.960938 -1.835938 1.109375 -1.875 1.265625 -1.875 C 1.535156 -1.875 1.742188 -1.785156 1.890625 -1.609375 C 2.046875 -1.441406 2.125 -1.207031 2.125 -0.90625 C 2.125 -0.726562 2.082031 -0.566406 2 -0.421875 C 1.925781 -0.273438 1.816406 -0.160156 1.671875 -0.078125 C 1.535156 0.00390625 1.367188 0.046875 1.171875 0.046875 C 0.992188 0.046875 0.832031 0.0078125 0.6875 -0.0625 C 0.539062 -0.132812 0.425781 -0.234375 0.34375 -0.359375 C 0.257812 -0.484375 0.210938 -0.628906 0.203125 -0.796875 L 0.765625 -0.796875 C 0.773438 -0.671875 0.816406 -0.578125 0.890625 -0.515625 C 0.960938 -0.453125 1.054688 -0.421875 1.171875 -0.421875 C 1.296875 -0.421875 1.390625 -0.460938 1.453125 -0.546875 C 1.523438 -0.640625 1.5625 -0.769531 1.5625 -0.9375 C 1.5625 -1.101562 1.519531 -1.226562 1.4375 -1.3125 C 1.363281 -1.394531 1.253906 -1.4375 1.109375 -1.4375 C 0.972656 -1.4375 0.863281 -1.40625 0.78125 -1.34375 L 0.734375 -1.28125 Z M 0.28125 -1.40625 "/></g></g></g><g fill="#231f20" fill-opacity="1"><g transform="translate(18.142177, 51.517868)"><g/></g></g><g fill="#231f20" fill-opacity="1"><g transform="translate(19.136539, 51.517868)"><g><path d="M 0.140625 -1.078125 C 0.140625 -1.398438 0.210938 -1.660156 0.359375 -1.859375 C 0.515625 -2.054688 0.722656 -2.15625 0.984375 -2.15625 C 1.222656 -2.15625 1.40625 -2.078125 1.53125 -1.921875 L 1.5625 -2.109375 L 2.0625 -2.109375 L 2.0625 -0.078125 C 2.0625 0.109375 2.019531 0.269531 1.9375 0.40625 C 1.851562 0.550781 1.734375 0.65625 1.578125 0.71875 C 1.429688 0.789062 1.253906 0.828125 1.046875 0.828125 C 0.890625 0.828125 0.738281 0.796875 0.59375 0.734375 C 0.445312 0.671875 0.335938 0.59375 0.265625 0.5 L 0.515625 0.15625 C 0.648438 0.3125 0.820312 0.390625 1.03125 0.390625 C 1.175781 0.390625 1.289062 0.347656 1.375 0.265625 C 1.457031 0.191406 1.5 0.0820312 1.5 -0.0625 L 1.5 -0.1875 C 1.375 -0.03125 1.203125 0.046875 0.984375 0.046875 C 0.734375 0.046875 0.53125 -0.0507812 0.375 -0.25 C 0.21875 -0.457031 0.140625 -0.722656 0.140625 -1.046875 Z M 0.703125 -1.03125 C 0.703125 -0.84375 0.738281 -0.691406 0.8125 -0.578125 C 0.894531 -0.472656 1 -0.421875 1.125 -0.421875 C 1.300781 -0.421875 1.425781 -0.484375 1.5 -0.609375 L 1.5 -1.5 C 1.425781 -1.625 1.304688 -1.6875 1.140625 -1.6875 C 1.003906 -1.6875 0.894531 -1.628906 0.8125 -1.515625 C 0.738281 -1.410156 0.703125 -1.25 0.703125 -1.03125 Z M 0.703125 -1.03125 "/></g></g></g><g fill="#231f20" fill-opacity="1"><g transform="translate(29.481989, 34.066535)"><g><path d="M 0.875 -0.46875 L 2.3125 -0.46875 L 2.3125 0 L 0.140625 0 L 0.140625 -0.34375 L 1.546875 -2.375 L 0.140625 -2.375 L 0.140625 -2.84375 L 2.28125 -2.84375 L 2.28125 -2.515625 Z M 0.875 -0.46875 "/></g></g></g><g fill="#231f20" fill-opacity="1"><g transform="translate(31.901607, 34.066535)"><g><path d="M 0.8125 0 L 0.25 0 L 0.25 -3 L 0.8125 -3 Z M 0.8125 0 "/></g></g></g><g fill="#231f20" fill-opacity="1"><g transform="translate(32.960313, 34.066535)"><g><path d="M 1.4375 0 C 1.414062 -0.0507812 1.398438 -0.113281 1.390625 -0.1875 C 1.253906 -0.03125 1.078125 0.046875 0.859375 0.046875 C 0.648438 0.046875 0.476562 -0.015625 0.34375 -0.140625 C 0.207031 -0.265625 0.140625 -0.414062 0.140625 -0.59375 C 0.140625 -0.820312 0.21875 -0.992188 0.375 -1.109375 C 0.539062 -1.234375 0.785156 -1.296875 1.109375 -1.296875 L 1.359375 -1.296875 L 1.359375 -1.40625 C 1.359375 -1.507812 1.332031 -1.585938 1.28125 -1.640625 C 1.238281 -1.703125 1.160156 -1.734375 1.046875 -1.734375 C 0.953125 -1.734375 0.878906 -1.707031 0.828125 -1.65625 C 0.773438 -1.613281 0.75 -1.554688 0.75 -1.484375 L 0.1875 -1.484375 C 0.1875 -1.597656 0.222656 -1.707031 0.296875 -1.8125 C 0.367188 -1.914062 0.472656 -2 0.609375 -2.0625 C 0.753906 -2.125 0.910156 -2.15625 1.078125 -2.15625 C 1.335938 -2.15625 1.539062 -2.085938 1.6875 -1.953125 C 1.84375 -1.828125 1.921875 -1.644531 1.921875 -1.40625 L 1.921875 -0.484375 C 1.929688 -0.285156 1.960938 -0.132812 2.015625 -0.03125 L 2.015625 0 Z M 0.96875 -0.390625 C 1.050781 -0.390625 1.128906 -0.40625 1.203125 -0.4375 C 1.273438 -0.476562 1.328125 -0.53125 1.359375 -0.59375 L 1.359375 -0.96875 L 1.15625 -0.96875 C 0.875 -0.96875 0.722656 -0.867188 0.703125 -0.671875 L 0.703125 -0.640625 C 0.703125 -0.566406 0.722656 -0.503906 0.765625 -0.453125 C 0.816406 -0.410156 0.882812 -0.390625 0.96875 -0.390625 Z M 0.96875 -0.390625 "/></g></g></g><g fill="#231f20" fill-opacity="1"><g transform="translate(35.101118, 34.066535)"><g><path d="M 0.890625 -2.640625 L 0.890625 -2.109375 L 1.25 -2.109375 L 1.25 -1.703125 L 0.890625 -1.703125 L 0.890625 -0.640625 C 0.890625 -0.566406 0.90625 -0.507812 0.9375 -0.46875 C 0.96875 -0.4375 1.023438 -0.421875 1.109375 -0.421875 C 1.171875 -0.421875 1.226562 -0.425781 1.28125 -0.4375 L 1.28125 -0.015625 C 1.164062 0.0234375 1.050781 0.046875 0.9375 0.046875 C 0.539062 0.046875 0.335938 -0.15625 0.328125 -0.5625 L 0.328125 -1.703125 L 0.015625 -1.703125 L 0.015625 -2.109375 L 0.328125 -2.109375 L 0.328125 -2.640625 Z M 0.890625 -2.640625 "/></g></g></g><g fill="#231f20" fill-opacity="1"><g transform="translate(36.450331, 34.066535)"><g><path d="M 0.125 -1.078125 C 0.125 -1.285156 0.164062 -1.472656 0.25 -1.640625 C 0.332031 -1.804688 0.445312 -1.929688 0.59375 -2.015625 C 0.75 -2.109375 0.925781 -2.15625 1.125 -2.15625 C 1.414062 -2.15625 1.648438 -2.066406 1.828125 -1.890625 C 2.003906 -1.710938 2.101562 -1.476562 2.125 -1.1875 L 2.125 -1.03125 C 2.125 -0.707031 2.035156 -0.445312 1.859375 -0.25 C 1.679688 -0.0507812 1.4375 0.046875 1.125 0.046875 C 0.820312 0.046875 0.578125 -0.0507812 0.390625 -0.25 C 0.210938 -0.445312 0.125 -0.710938 0.125 -1.046875 Z M 0.6875 -1.03125 C 0.6875 -0.832031 0.722656 -0.679688 0.796875 -0.578125 C 0.878906 -0.472656 0.988281 -0.421875 1.125 -0.421875 C 1.269531 -0.421875 1.378906 -0.472656 1.453125 -0.578125 C 1.523438 -0.679688 1.5625 -0.847656 1.5625 -1.078125 C 1.5625 -1.273438 1.523438 -1.425781 1.453125 -1.53125 C 1.378906 -1.644531 1.269531 -1.703125 1.125 -1.703125 C 0.988281 -1.703125 0.878906 -1.644531 0.796875 -1.53125 C 0.722656 -1.425781 0.6875 -1.257812 0.6875 -1.03125 Z M 0.6875 -1.03125 "/></g></g></g><g fill="#231f20" fill-opacity="1"><g transform="translate(31.311916, 39.482272)"><g><path d="M 1.5625 0 L 1 0 L 1 -2.171875 L 0.328125 -1.96875 L 0.328125 -2.421875 L 1.5 -2.84375 L 1.5625 -2.84375 Z M 1.5625 0 "/></g></g></g><g fill="#231f20" fill-opacity="1"><g transform="translate(33.602852, 39.482272)"><g/></g></g><g fill="#231f20" fill-opacity="1"><g transform="translate(34.597214, 39.482272)"><g><path d="M 0.140625 -1.078125 C 0.140625 -1.398438 0.210938 -1.660156 0.359375 -1.859375 C 0.515625 -2.054688 0.722656 -2.15625 0.984375 -2.15625 C 1.222656 -2.15625 1.40625 -2.078125 1.53125 -1.921875 L 1.5625 -2.109375 L 2.0625 -2.109375 L 2.0625 -0.078125 C 2.0625 0.109375 2.019531 0.269531 1.9375 0.40625 C 1.851562 0.550781 1.734375 0.65625 1.578125 0.71875 C 1.429688 0.789062 1.253906 0.828125 1.046875 0.828125 C 0.890625 0.828125 0.738281 0.796875 0.59375 0.734375 C 0.445312 0.671875 0.335938 0.59375 0.265625 0.5 L 0.515625 0.15625 C 0.648438 0.3125 0.820312 0.390625 1.03125 0.390625 C 1.175781 0.390625 1.289062 0.347656 1.375 0.265625 C 1.457031 0.191406 1.5 0.0820312 1.5 -0.0625 L 1.5 -0.1875 C 1.375 -0.03125 1.203125 0.046875 0.984375 0.046875 C 0.734375 0.046875 0.53125 -0.0507812 0.375 -0.25 C 0.21875 -0.457031 0.140625 -0.722656 0.140625 -1.046875 Z M 0.703125 -1.03125 C 0.703125 -0.84375 0.738281 -0.691406 0.8125 -0.578125 C 0.894531 -0.472656 1 -0.421875 1.125 -0.421875 C 1.300781 -0.421875 1.425781 -0.484375 1.5 -0.609375 L 1.5 -1.5 C 1.425781 -1.625 1.304688 -1.6875 1.140625 -1.6875 C 1.003906 -1.6875 0.894531 -1.628906 0.8125 -1.515625 C 0.738281 -1.410156 0.703125 -1.25 0.703125 -1.03125 Z M 0.703125 -1.03125 "/></g></g></g><g clip-path="url(#e1c65ce06d)"><g clip-path="url(#c213637ec8)"><path fill="#17191a" d="M 25.300781 43.539062 L 49.671875 43.539062 L 49.671875 67.910156 L 25.300781 67.910156 Z M 25.300781 43.539062 " fill-opacity="1" fill-rule="nonzero"/></g></g><g clip-path="url(#8ef26bfa39)"><g clip-path="url(#4649a7aeeb)"><path fill="#a8180f" d="M 25.300781 43.539062 L 49.671875 43.539062 L 49.671875 67.910156 L 25.300781 67.910156 Z M 25.300781 43.539062 " fill-opacity="1" fill-rule="nonzero"/></g></g><g clip-path="url(#1e20c9d8ef)"><g clip-path="url(#592ad7a3f5)"><path fill="#a5e7f0" d="M 25.300781 43.539062 L 49.671875 43.539062 L 49.671875 67.910156 L 25.300781 67.910156 Z M 25.300781 43.539062 " fill-opacity="1" fill-rule="nonzero"/></g></g><g fill="#17191a" fill-opacity="1"><g transform="translate(2.897103, 7.80002)"><g><path d="M 1.765625 -0.953125 L 2.15625 -0.953125 L 2.15625 -0.65625 L 1.765625 -0.65625 L 1.765625 0 L 1.40625 0 L 1.40625 -0.65625 L 0.109375 -0.65625 L 0.109375 -0.875 L 1.375 -2.84375 L 1.765625 -2.84375 Z M 0.515625 -0.953125 L 1.40625 -0.953125 L 1.40625 -2.34375 L 1.359375 -2.265625 Z M 0.515625 -0.953125 "/></g></g><g transform="translate(5.143194, 7.80002)"><g><path d="M 1.109375 -1.140625 C 1.109375 -0.847656 1.066406 -0.566406 0.984375 -0.296875 C 0.910156 -0.0351562 0.796875 0.207031 0.640625 0.4375 C 0.484375 0.664062 0.320312 0.828125 0.15625 0.921875 L 0.078125 0.703125 C 0.273438 0.546875 0.429688 0.304688 0.546875 -0.015625 C 0.671875 -0.335938 0.738281 -0.695312 0.75 -1.09375 L 0.75 -1.15625 C 0.75 -1.425781 0.71875 -1.679688 0.65625 -1.921875 C 0.601562 -2.160156 0.523438 -2.367188 0.421875 -2.546875 C 0.316406 -2.734375 0.203125 -2.878906 0.078125 -2.984375 L 0.15625 -3.203125 C 0.320312 -3.109375 0.484375 -2.953125 0.640625 -2.734375 C 0.796875 -2.515625 0.910156 -2.269531 0.984375 -2 C 1.066406 -1.726562 1.109375 -1.441406 1.109375 -1.140625 Z M 1.109375 -1.140625 "/></g></g><g transform="translate(6.533817, 7.80002)"><g/></g><g transform="translate(7.52405, 7.80002)"><g><path d="M 1.046875 -1.328125 L 0.703125 -0.96875 L 0.703125 0 L 0.328125 0 L 0.328125 -2.84375 L 0.703125 -2.84375 L 0.703125 -1.4375 L 1.96875 -2.84375 L 2.421875 -2.84375 L 1.296875 -1.59375 L 2.515625 0 L 2.0625 0 Z M 1.046875 -1.328125 "/></g></g><g transform="translate(10.031859, 7.80002)"><g><path d="M 0.171875 -1.078125 C 0.171875 -1.285156 0.210938 -1.472656 0.296875 -1.640625 C 0.378906 -1.804688 0.492188 -1.929688 0.640625 -2.015625 C 0.785156 -2.109375 0.953125 -2.15625 1.140625 -2.15625 C 1.421875 -2.15625 1.648438 -2.054688 1.828125 -1.859375 C 2.015625 -1.660156 2.109375 -1.394531 2.109375 -1.0625 L 2.109375 -1.03125 C 2.109375 -0.820312 2.066406 -0.632812 1.984375 -0.46875 C 1.898438 -0.3125 1.785156 -0.1875 1.640625 -0.09375 C 1.492188 0 1.328125 0.046875 1.140625 0.046875 C 0.859375 0.046875 0.625 -0.0507812 0.4375 -0.25 C 0.257812 -0.457031 0.171875 -0.722656 0.171875 -1.046875 Z M 0.546875 -1.03125 C 0.546875 -0.800781 0.597656 -0.613281 0.703125 -0.46875 C 0.816406 -0.320312 0.960938 -0.25 1.140625 -0.25 C 1.328125 -0.25 1.472656 -0.320312 1.578125 -0.46875 C 1.679688 -0.613281 1.734375 -0.816406 1.734375 -1.078125 C 1.734375 -1.304688 1.675781 -1.492188 1.5625 -1.640625 C 1.457031 -1.785156 1.316406 -1.859375 1.140625 -1.859375 C 0.960938 -1.859375 0.816406 -1.785156 0.703125 -1.640625 C 0.597656 -1.503906 0.546875 -1.300781 0.546875 -1.03125 Z M 0.546875 -1.03125 "/></g></g><g transform="translate(12.313105, 7.80002)"><g><path d="M 0.671875 0 L 0.3125 0 L 0.3125 -3 L 0.671875 -3 Z M 0.671875 0 "/></g></g><g transform="translate(13.283807, 7.80002)"><g><path d="M 0.671875 0 L 0.3125 0 L 0.3125 -2.109375 L 0.671875 -2.109375 Z M 0.28125 -2.671875 C 0.28125 -2.734375 0.296875 -2.785156 0.328125 -2.828125 C 0.367188 -2.867188 0.421875 -2.890625 0.484375 -2.890625 C 0.554688 -2.890625 0.609375 -2.867188 0.640625 -2.828125 C 0.679688 -2.785156 0.703125 -2.734375 0.703125 -2.671875 C 0.703125 -2.617188 0.679688 -2.570312 0.640625 -2.53125 C 0.609375 -2.488281 0.554688 -2.46875 0.484375 -2.46875 C 0.421875 -2.46875 0.367188 -2.488281 0.328125 -2.53125 C 0.296875 -2.570312 0.28125 -2.617188 0.28125 -2.671875 Z M 0.28125 -2.671875 "/></g></g><g transform="translate(14.254509, 7.80002)"><g><path d="M 0.859375 -0.984375 L 0.640625 -0.75 L 0.640625 0 L 0.28125 0 L 0.28125 -3 L 0.640625 -3 L 0.640625 -1.1875 L 0.828125 -1.421875 L 1.484375 -2.109375 L 1.921875 -2.109375 L 1.109375 -1.234375 L 2.03125 0 L 1.59375 0 Z M 0.859375 -0.984375 "/></g></g><g transform="translate(16.28185, 7.80002)"><g><path d="M 0.671875 0 L 0.3125 0 L 0.3125 -2.109375 L 0.671875 -2.109375 Z M 0.28125 -2.671875 C 0.28125 -2.734375 0.296875 -2.785156 0.328125 -2.828125 C 0.367188 -2.867188 0.421875 -2.890625 0.484375 -2.890625 C 0.554688 -2.890625 0.609375 -2.867188 0.640625 -2.828125 C 0.679688 -2.785156 0.703125 -2.734375 0.703125 -2.671875 C 0.703125 -2.617188 0.679688 -2.570312 0.640625 -2.53125 C 0.609375 -2.488281 0.554688 -2.46875 0.484375 -2.46875 C 0.421875 -2.46875 0.367188 -2.488281 0.328125 -2.53125 C 0.296875 -2.570312 0.28125 -2.617188 0.28125 -2.671875 Z M 0.28125 -2.671875 "/></g></g><g transform="translate(17.252551, 7.80002)"><g/></g><g transform="translate(18.242784, 7.80002)"><g><path d="M 0.640625 -2.109375 L 0.640625 0.25 C 0.640625 0.65625 0.457031 0.859375 0.09375 0.859375 C 0.0078125 0.859375 -0.0625 0.84375 -0.125 0.8125 L -0.125 0.53125 C -0.0820312 0.539062 -0.03125 0.546875 0.03125 0.546875 C 0.113281 0.546875 0.175781 0.523438 0.21875 0.484375 C 0.257812 0.441406 0.28125 0.363281 0.28125 0.25 L 0.28125 -2.109375 Z M 0.25 -2.671875 C 0.25 -2.734375 0.265625 -2.785156 0.296875 -2.828125 C 0.335938 -2.867188 0.390625 -2.890625 0.453125 -2.890625 C 0.523438 -2.890625 0.578125 -2.867188 0.609375 -2.828125 C 0.648438 -2.785156 0.671875 -2.734375 0.671875 -2.671875 C 0.671875 -2.617188 0.648438 -2.570312 0.609375 -2.53125 C 0.578125 -2.488281 0.523438 -2.46875 0.453125 -2.46875 C 0.390625 -2.46875 0.335938 -2.488281 0.296875 -2.53125 C 0.265625 -2.570312 0.25 -2.617188 0.25 -2.671875 Z M 0.25 -2.671875 "/></g></g><g transform="translate(19.197861, 7.80002)"><g><path d="M 1.15625 0.046875 C 0.863281 0.046875 0.628906 -0.046875 0.453125 -0.234375 C 0.273438 -0.429688 0.1875 -0.6875 0.1875 -1 L 0.1875 -1.0625 C 0.1875 -1.269531 0.222656 -1.457031 0.296875 -1.625 C 0.378906 -1.789062 0.492188 -1.921875 0.640625 -2.015625 C 0.785156 -2.109375 0.941406 -2.15625 1.109375 -2.15625 C 1.378906 -2.15625 1.585938 -2.0625 1.734375 -1.875 C 1.890625 -1.695312 1.96875 -1.441406 1.96875 -1.109375 L 1.96875 -0.953125 L 0.546875 -0.953125 C 0.546875 -0.742188 0.601562 -0.570312 0.71875 -0.4375 C 0.84375 -0.3125 0.992188 -0.25 1.171875 -0.25 C 1.296875 -0.25 1.398438 -0.273438 1.484375 -0.328125 C 1.578125 -0.378906 1.660156 -0.453125 1.734375 -0.546875 L 1.953125 -0.375 C 1.773438 -0.09375 1.507812 0.046875 1.15625 0.046875 Z M 1.109375 -1.859375 C 0.960938 -1.859375 0.835938 -1.800781 0.734375 -1.6875 C 0.640625 -1.582031 0.582031 -1.4375 0.5625 -1.25 L 1.609375 -1.25 L 1.609375 -1.28125 C 1.597656 -1.457031 1.546875 -1.597656 1.453125 -1.703125 C 1.367188 -1.804688 1.253906 -1.859375 1.109375 -1.859375 Z M 1.109375 -1.859375 "/></g></g><g transform="translate(21.316998, 7.80002)"><g/></g><g transform="translate(22.307231, 7.80002)"><g><path d="M 0.609375 -2.109375 L 0.625 -1.875 C 0.78125 -2.0625 0.988281 -2.15625 1.25 -2.15625 C 1.539062 -2.15625 1.742188 -2.039062 1.859375 -1.8125 C 1.921875 -1.914062 2.007812 -2 2.125 -2.0625 C 2.238281 -2.125 2.375 -2.15625 2.53125 -2.15625 C 2.988281 -2.15625 3.222656 -1.910156 3.234375 -1.421875 L 3.234375 0 L 2.875 0 L 2.875 -1.390625 C 2.875 -1.546875 2.835938 -1.660156 2.765625 -1.734375 C 2.703125 -1.804688 2.585938 -1.84375 2.421875 -1.84375 C 2.285156 -1.84375 2.171875 -1.800781 2.078125 -1.71875 C 1.992188 -1.644531 1.945312 -1.539062 1.9375 -1.40625 L 1.9375 0 L 1.578125 0 L 1.578125 -1.390625 C 1.578125 -1.691406 1.425781 -1.84375 1.125 -1.84375 C 0.882812 -1.84375 0.722656 -1.742188 0.640625 -1.546875 L 0.640625 0 L 0.265625 0 L 0.265625 -2.109375 Z M 0.609375 -2.109375 "/></g></g><g transform="translate(25.813086, 7.80002)"><g><path d="M 1.578125 0 C 1.554688 -0.0390625 1.539062 -0.113281 1.53125 -0.21875 C 1.363281 -0.0390625 1.160156 0.046875 0.921875 0.046875 C 0.710938 0.046875 0.539062 -0.0078125 0.40625 -0.125 C 0.28125 -0.25 0.21875 -0.40625 0.21875 -0.59375 C 0.21875 -0.8125 0.300781 -0.976562 0.46875 -1.09375 C 0.632812 -1.21875 0.867188 -1.28125 1.171875 -1.28125 L 1.515625 -1.28125 L 1.515625 -1.453125 C 1.515625 -1.578125 1.476562 -1.675781 1.40625 -1.75 C 1.332031 -1.820312 1.222656 -1.859375 1.078125 -1.859375 C 0.941406 -1.859375 0.832031 -1.828125 0.75 -1.765625 C 0.664062 -1.703125 0.625 -1.625 0.625 -1.53125 L 0.25 -1.53125 C 0.25 -1.632812 0.285156 -1.734375 0.359375 -1.828125 C 0.441406 -1.929688 0.546875 -2.007812 0.671875 -2.0625 C 0.796875 -2.125 0.9375 -2.15625 1.09375 -2.15625 C 1.34375 -2.15625 1.535156 -2.09375 1.671875 -1.96875 C 1.804688 -1.84375 1.878906 -1.675781 1.890625 -1.46875 L 1.890625 -0.5 C 1.890625 -0.300781 1.910156 -0.144531 1.953125 -0.03125 L 1.953125 0 Z M 0.984375 -0.28125 C 1.097656 -0.28125 1.203125 -0.304688 1.296875 -0.359375 C 1.398438 -0.421875 1.472656 -0.5 1.515625 -0.59375 L 1.515625 -1.03125 L 1.234375 -1.03125 C 0.796875 -1.03125 0.578125 -0.898438 0.578125 -0.640625 C 0.578125 -0.523438 0.613281 -0.4375 0.6875 -0.375 C 0.757812 -0.3125 0.859375 -0.28125 0.984375 -0.28125 Z M 0.984375 -0.28125 "/></g></g><g transform="translate(27.988864, 7.80002)"><g><path d="M 1.5 -0.5625 C 1.5 -0.65625 1.460938 -0.726562 1.390625 -0.78125 C 1.316406 -0.84375 1.1875 -0.890625 1 -0.921875 C 0.820312 -0.960938 0.675781 -1.007812 0.5625 -1.0625 C 0.457031 -1.125 0.378906 -1.191406 0.328125 -1.265625 C 0.285156 -1.335938 0.265625 -1.425781 0.265625 -1.53125 C 0.265625 -1.707031 0.335938 -1.851562 0.484375 -1.96875 C 0.628906 -2.09375 0.816406 -2.15625 1.046875 -2.15625 C 1.285156 -2.15625 1.476562 -2.09375 1.625 -1.96875 C 1.769531 -1.84375 1.84375 -1.6875 1.84375 -1.5 L 1.484375 -1.5 C 1.484375 -1.59375 1.441406 -1.675781 1.359375 -1.75 C 1.273438 -1.820312 1.171875 -1.859375 1.046875 -1.859375 C 0.910156 -1.859375 0.804688 -1.828125 0.734375 -1.765625 C 0.660156 -1.710938 0.625 -1.640625 0.625 -1.546875 C 0.625 -1.460938 0.65625 -1.394531 0.71875 -1.34375 C 0.789062 -1.300781 0.914062 -1.257812 1.09375 -1.21875 C 1.28125 -1.175781 1.425781 -1.128906 1.53125 -1.078125 C 1.644531 -1.023438 1.726562 -0.957031 1.78125 -0.875 C 1.832031 -0.789062 1.859375 -0.695312 1.859375 -0.59375 C 1.859375 -0.394531 1.78125 -0.238281 1.625 -0.125 C 1.476562 -0.0078125 1.285156 0.046875 1.046875 0.046875 C 0.878906 0.046875 0.726562 0.015625 0.59375 -0.046875 C 0.46875 -0.109375 0.367188 -0.191406 0.296875 -0.296875 C 0.222656 -0.410156 0.1875 -0.53125 0.1875 -0.65625 L 0.546875 -0.65625 C 0.554688 -0.53125 0.601562 -0.429688 0.6875 -0.359375 C 0.78125 -0.285156 0.898438 -0.25 1.046875 -0.25 C 1.179688 -0.25 1.289062 -0.273438 1.375 -0.328125 C 1.457031 -0.390625 1.5 -0.46875 1.5 -0.5625 Z M 1.5 -0.5625 "/></g></g><g transform="translate(30.051361, 7.80002)"><g><path d="M 1.15625 0.046875 C 0.863281 0.046875 0.628906 -0.046875 0.453125 -0.234375 C 0.273438 -0.429688 0.1875 -0.6875 0.1875 -1 L 0.1875 -1.0625 C 0.1875 -1.269531 0.222656 -1.457031 0.296875 -1.625 C 0.378906 -1.789062 0.492188 -1.921875 0.640625 -2.015625 C 0.785156 -2.109375 0.941406 -2.15625 1.109375 -2.15625 C 1.378906 -2.15625 1.585938 -2.0625 1.734375 -1.875 C 1.890625 -1.695312 1.96875 -1.441406 1.96875 -1.109375 L 1.96875 -0.953125 L 0.546875 -0.953125 C 0.546875 -0.742188 0.601562 -0.570312 0.71875 -0.4375 C 0.84375 -0.3125 0.992188 -0.25 1.171875 -0.25 C 1.296875 -0.25 1.398438 -0.273438 1.484375 -0.328125 C 1.578125 -0.378906 1.660156 -0.453125 1.734375 -0.546875 L 1.953125 -0.375 C 1.773438 -0.09375 1.507812 0.046875 1.15625 0.046875 Z M 1.109375 -1.859375 C 0.960938 -1.859375 0.835938 -1.800781 0.734375 -1.6875 C 0.640625 -1.582031 0.582031 -1.4375 0.5625 -1.25 L 1.609375 -1.25 L 1.609375 -1.28125 C 1.597656 -1.457031 1.546875 -1.597656 1.453125 -1.703125 C 1.367188 -1.804688 1.253906 -1.859375 1.109375 -1.859375 Z M 1.109375 -1.859375 "/></g></g><g transform="translate(32.170498, 7.80002)"><g><path d="M 0.609375 -2.109375 L 0.625 -1.84375 C 0.789062 -2.050781 1.003906 -2.15625 1.265625 -2.15625 C 1.710938 -2.15625 1.9375 -1.898438 1.9375 -1.390625 L 1.9375 0 L 1.578125 0 L 1.578125 -1.40625 C 1.578125 -1.550781 1.539062 -1.660156 1.46875 -1.734375 C 1.40625 -1.804688 1.300781 -1.84375 1.15625 -1.84375 C 1.03125 -1.84375 0.921875 -1.8125 0.828125 -1.75 C 0.742188 -1.6875 0.679688 -1.601562 0.640625 -1.5 L 0.640625 0 L 0.28125 0 L 0.28125 -2.109375 Z M 0.609375 -2.109375 "/></g></g><g transform="translate(34.377526, 7.80002)"><g><path d="M 0.671875 0 L 0.3125 0 L 0.3125 -2.109375 L 0.671875 -2.109375 Z M 0.28125 -2.671875 C 0.28125 -2.734375 0.296875 -2.785156 0.328125 -2.828125 C 0.367188 -2.867188 0.421875 -2.890625 0.484375 -2.890625 C 0.554688 -2.890625 0.609375 -2.867188 0.640625 -2.828125 C 0.679688 -2.785156 0.703125 -2.734375 0.703125 -2.671875 C 0.703125 -2.617188 0.679688 -2.570312 0.640625 -2.53125 C 0.609375 -2.488281 0.554688 -2.46875 0.484375 -2.46875 C 0.421875 -2.46875 0.367188 -2.488281 0.328125 -2.53125 C 0.296875 -2.570312 0.28125 -2.617188 0.28125 -2.671875 Z M 0.28125 -2.671875 "/></g></g><g transform="translate(35.348228, 7.80002)"><g/></g><g transform="translate(36.338461, 7.80002)"><g><path d="M 1.578125 -0.203125 C 1.441406 -0.0351562 1.234375 0.046875 0.953125 0.046875 C 0.734375 0.046875 0.5625 -0.0195312 0.4375 -0.15625 C 0.320312 -0.289062 0.265625 -0.484375 0.265625 -0.734375 L 0.265625 -2.109375 L 0.625 -2.109375 L 0.625 -0.75 C 0.625 -0.425781 0.753906 -0.265625 1.015625 -0.265625 C 1.296875 -0.265625 1.476562 -0.367188 1.5625 -0.578125 L 1.5625 -2.109375 L 1.9375 -2.109375 L 1.9375 0 L 1.59375 0 Z M 1.578125 -0.203125 "/></g></g><g transform="translate(38.543536, 7.80002)"><g><path d="M 0.1875 -1.078125 C 0.1875 -1.398438 0.257812 -1.660156 0.40625 -1.859375 C 0.5625 -2.054688 0.765625 -2.15625 1.015625 -2.15625 C 1.265625 -2.15625 1.460938 -2.070312 1.609375 -1.90625 L 1.609375 -3 L 1.96875 -3 L 1.96875 0 L 1.640625 0 L 1.625 -0.234375 C 1.476562 -0.046875 1.273438 0.046875 1.015625 0.046875 C 0.773438 0.046875 0.578125 -0.0507812 0.421875 -0.25 C 0.265625 -0.457031 0.1875 -0.722656 0.1875 -1.046875 Z M 0.546875 -1.03125 C 0.546875 -0.789062 0.59375 -0.601562 0.6875 -0.46875 C 0.789062 -0.332031 0.929688 -0.265625 1.109375 -0.265625 C 1.335938 -0.265625 1.503906 -0.367188 1.609375 -0.578125 L 1.609375 -1.546875 C 1.503906 -1.742188 1.335938 -1.84375 1.109375 -1.84375 C 0.929688 -1.84375 0.789062 -1.773438 0.6875 -1.640625 C 0.59375 -1.503906 0.546875 -1.300781 0.546875 -1.03125 Z M 0.546875 -1.03125 "/></g></g><g transform="translate(40.799392, 7.80002)"><g><path d="M 0.671875 0 L 0.3125 0 L 0.3125 -2.109375 L 0.671875 -2.109375 Z M 0.28125 -2.671875 C 0.28125 -2.734375 0.296875 -2.785156 0.328125 -2.828125 C 0.367188 -2.867188 0.421875 -2.890625 0.484375 -2.890625 C 0.554688 -2.890625 0.609375 -2.867188 0.640625 -2.828125 C 0.679688 -2.785156 0.703125 -2.734375 0.703125 -2.671875 C 0.703125 -2.617188 0.679688 -2.570312 0.640625 -2.53125 C 0.609375 -2.488281 0.554688 -2.46875 0.484375 -2.46875 C 0.421875 -2.46875 0.367188 -2.488281 0.328125 -2.53125 C 0.296875 -2.570312 0.28125 -2.617188 0.28125 -2.671875 Z M 0.28125 -2.671875 "/></g></g><g transform="translate(41.770094, 7.80002)"><g><path d="M 0.171875 -1.078125 C 0.171875 -1.285156 0.210938 -1.472656 0.296875 -1.640625 C 0.378906 -1.804688 0.492188 -1.929688 0.640625 -2.015625 C 0.785156 -2.109375 0.953125 -2.15625 1.140625 -2.15625 C 1.421875 -2.15625 1.648438 -2.054688 1.828125 -1.859375 C 2.015625 -1.660156 2.109375 -1.394531 2.109375 -1.0625 L 2.109375 -1.03125 C 2.109375 -0.820312 2.066406 -0.632812 1.984375 -0.46875 C 1.898438 -0.3125 1.785156 -0.1875 1.640625 -0.09375 C 1.492188 0 1.328125 0.046875 1.140625 0.046875 C 0.859375 0.046875 0.625 -0.0507812 0.4375 -0.25 C 0.257812 -0.457031 0.171875 -0.722656 0.171875 -1.046875 Z M 0.546875 -1.03125 C 0.546875 -0.800781 0.597656 -0.613281 0.703125 -0.46875 C 0.816406 -0.320312 0.960938 -0.25 1.140625 -0.25 C 1.328125 -0.25 1.472656 -0.320312 1.578125 -0.46875 C 1.679688 -0.613281 1.734375 -0.816406 1.734375 -1.078125 C 1.734375 -1.304688 1.675781 -1.492188 1.5625 -1.640625 C 1.457031 -1.785156 1.316406 -1.859375 1.140625 -1.859375 C 0.960938 -1.859375 0.816406 -1.785156 0.703125 -1.640625 C 0.597656 -1.503906 0.546875 -1.300781 0.546875 -1.03125 Z M 0.546875 -1.03125 "/></g></g><g transform="translate(44.05134, 7.80002)"><g/></g><g transform="translate(45.041573, 7.80002)"><g><path d="M 0.609375 -0.296875 L 1.84375 -0.296875 L 1.84375 0 L 0.171875 0 L 0.171875 -0.265625 L 1.34375 -1.8125 L 0.1875 -1.8125 L 0.1875 -2.109375 L 1.796875 -2.109375 L 1.796875 -1.859375 Z M 0.609375 -0.296875 "/></g></g><g transform="translate(47.023992, 7.80002)"><g><path d="M 0.671875 0 L 0.3125 0 L 0.3125 -3 L 0.671875 -3 Z M 0.671875 0 "/></g></g><g transform="translate(47.994694, 7.80002)"><g><path d="M 1.578125 0 C 1.554688 -0.0390625 1.539062 -0.113281 1.53125 -0.21875 C 1.363281 -0.0390625 1.160156 0.046875 0.921875 0.046875 C 0.710938 0.046875 0.539062 -0.0078125 0.40625 -0.125 C 0.28125 -0.25 0.21875 -0.40625 0.21875 -0.59375 C 0.21875 -0.8125 0.300781 -0.976562 0.46875 -1.09375 C 0.632812 -1.21875 0.867188 -1.28125 1.171875 -1.28125 L 1.515625 -1.28125 L 1.515625 -1.453125 C 1.515625 -1.578125 1.476562 -1.675781 1.40625 -1.75 C 1.332031 -1.820312 1.222656 -1.859375 1.078125 -1.859375 C 0.941406 -1.859375 0.832031 -1.828125 0.75 -1.765625 C 0.664062 -1.703125 0.625 -1.625 0.625 -1.53125 L 0.25 -1.53125 C 0.25 -1.632812 0.285156 -1.734375 0.359375 -1.828125 C 0.441406 -1.929688 0.546875 -2.007812 0.671875 -2.0625 C 0.796875 -2.125 0.9375 -2.15625 1.09375 -2.15625 C 1.34375 -2.15625 1.535156 -2.09375 1.671875 -1.96875 C 1.804688 -1.84375 1.878906 -1.675781 1.890625 -1.46875 L 1.890625 -0.5 C 1.890625 -0.300781 1.910156 -0.144531 1.953125 -0.03125 L 1.953125 0 Z M 0.984375 -0.28125 C 1.097656 -0.28125 1.203125 -0.304688 1.296875 -0.359375 C 1.398438 -0.421875 1.472656 -0.5 1.515625 -0.59375 L 1.515625 -1.03125 L 1.234375 -1.03125 C 0.796875 -1.03125 0.578125 -0.898438 0.578125 -0.640625 C 0.578125 -0.523438 0.613281 -0.4375 0.6875 -0.375 C 0.757812 -0.3125 0.859375 -0.28125 0.984375 -0.28125 Z M 0.984375 -0.28125 "/></g></g><g transform="translate(50.170472, 7.80002)"><g><path d="M 0.765625 -2.625 L 0.765625 -2.109375 L 1.15625 -2.109375 L 1.15625 -1.828125 L 0.765625 -1.828125 L 0.765625 -0.53125 C 0.765625 -0.4375 0.78125 -0.367188 0.8125 -0.328125 C 0.851562 -0.285156 0.914062 -0.265625 1 -0.265625 C 1.039062 -0.265625 1.097656 -0.273438 1.171875 -0.296875 L 1.171875 0 C 1.078125 0.03125 0.984375 0.046875 0.890625 0.046875 C 0.734375 0.046875 0.613281 0 0.53125 -0.09375 C 0.445312 -0.195312 0.40625 -0.34375 0.40625 -0.53125 L 0.40625 -1.828125 L 0.015625 -1.828125 L 0.015625 -2.109375 L 0.40625 -2.109375 L 0.40625 -2.625 Z M 0.765625 -2.625 "/></g></g><g transform="translate(51.477111, 7.80002)"><g><path d="M 1.578125 0 C 1.554688 -0.0390625 1.539062 -0.113281 1.53125 -0.21875 C 1.363281 -0.0390625 1.160156 0.046875 0.921875 0.046875 C 0.710938 0.046875 0.539062 -0.0078125 0.40625 -0.125 C 0.28125 -0.25 0.21875 -0.40625 0.21875 -0.59375 C 0.21875 -0.8125 0.300781 -0.976562 0.46875 -1.09375 C 0.632812 -1.21875 0.867188 -1.28125 1.171875 -1.28125 L 1.515625 -1.28125 L 1.515625 -1.453125 C 1.515625 -1.578125 1.476562 -1.675781 1.40625 -1.75 C 1.332031 -1.820312 1.222656 -1.859375 1.078125 -1.859375 C 0.941406 -1.859375 0.832031 -1.828125 0.75 -1.765625 C 0.664062 -1.703125 0.625 -1.625 0.625 -1.53125 L 0.25 -1.53125 C 0.25 -1.632812 0.285156 -1.734375 0.359375 -1.828125 C 0.441406 -1.929688 0.546875 -2.007812 0.671875 -2.0625 C 0.796875 -2.125 0.9375 -2.15625 1.09375 -2.15625 C 1.34375 -2.15625 1.535156 -2.09375 1.671875 -1.96875 C 1.804688 -1.84375 1.878906 -1.675781 1.890625 -1.46875 L 1.890625 -0.5 C 1.890625 -0.300781 1.910156 -0.144531 1.953125 -0.03125 L 1.953125 0 Z M 0.984375 -0.28125 C 1.097656 -0.28125 1.203125 -0.304688 1.296875 -0.359375 C 1.398438 -0.421875 1.472656 -0.5 1.515625 -0.59375 L 1.515625 -1.03125 L 1.234375 -1.03125 C 0.796875 -1.03125 0.578125 -0.898438 0.578125 -0.640625 C 0.578125 -0.523438 0.613281 -0.4375 0.6875 -0.375 C 0.757812 -0.3125 0.859375 -0.28125 0.984375 -0.28125 Z M 0.984375 -0.28125 "/></g></g><g transform="translate(53.652889, 7.80002)"><g/></g><g transform="translate(54.643122, 7.80002)"><g><path d="M 1.578125 -0.203125 C 1.441406 -0.0351562 1.234375 0.046875 0.953125 0.046875 C 0.734375 0.046875 0.5625 -0.0195312 0.4375 -0.15625 C 0.320312 -0.289062 0.265625 -0.484375 0.265625 -0.734375 L 0.265625 -2.109375 L 0.625 -2.109375 L 0.625 -0.75 C 0.625 -0.425781 0.753906 -0.265625 1.015625 -0.265625 C 1.296875 -0.265625 1.476562 -0.367188 1.5625 -0.578125 L 1.5625 -2.109375 L 1.9375 -2.109375 L 1.9375 0 L 1.59375 0 Z M 1.578125 -0.203125 "/></g></g></g><g fill="#17191a" fill-opacity="1"><g transform="translate(2.897103, 13.133346)"><g><path d="M 1.5 -0.5625 C 1.5 -0.65625 1.460938 -0.726562 1.390625 -0.78125 C 1.316406 -0.84375 1.1875 -0.890625 1 -0.921875 C 0.820312 -0.960938 0.675781 -1.007812 0.5625 -1.0625 C 0.457031 -1.125 0.378906 -1.191406 0.328125 -1.265625 C 0.285156 -1.335938 0.265625 -1.425781 0.265625 -1.53125 C 0.265625 -1.707031 0.335938 -1.851562 0.484375 -1.96875 C 0.628906 -2.09375 0.816406 -2.15625 1.046875 -2.15625 C 1.285156 -2.15625 1.476562 -2.09375 1.625 -1.96875 C 1.769531 -1.84375 1.84375 -1.6875 1.84375 -1.5 L 1.484375 -1.5 C 1.484375 -1.59375 1.441406 -1.675781 1.359375 -1.75 C 1.273438 -1.820312 1.171875 -1.859375 1.046875 -1.859375 C 0.910156 -1.859375 0.804688 -1.828125 0.734375 -1.765625 C 0.660156 -1.710938 0.625 -1.640625 0.625 -1.546875 C 0.625 -1.460938 0.65625 -1.394531 0.71875 -1.34375 C 0.789062 -1.300781 0.914062 -1.257812 1.09375 -1.21875 C 1.28125 -1.175781 1.425781 -1.128906 1.53125 -1.078125 C 1.644531 -1.023438 1.726562 -0.957031 1.78125 -0.875 C 1.832031 -0.789062 1.859375 -0.695312 1.859375 -0.59375 C 1.859375 -0.394531 1.78125 -0.238281 1.625 -0.125 C 1.476562 -0.0078125 1.285156 0.046875 1.046875 0.046875 C 0.878906 0.046875 0.726562 0.015625 0.59375 -0.046875 C 0.46875 -0.109375 0.367188 -0.191406 0.296875 -0.296875 C 0.222656 -0.410156 0.1875 -0.53125 0.1875 -0.65625 L 0.546875 -0.65625 C 0.554688 -0.53125 0.601562 -0.429688 0.6875 -0.359375 C 0.78125 -0.285156 0.898438 -0.25 1.046875 -0.25 C 1.179688 -0.25 1.289062 -0.273438 1.375 -0.328125 C 1.457031 -0.390625 1.5 -0.46875 1.5 -0.5625 Z M 1.5 -0.5625 "/></g></g><g transform="translate(4.9596, 13.133346)"><g><path d="M 0.671875 0 L 0.3125 0 L 0.3125 -3 L 0.671875 -3 Z M 0.671875 0 "/></g></g><g transform="translate(5.930302, 13.133346)"><g><path d="M 0.640625 -2.109375 L 0.640625 0.25 C 0.640625 0.65625 0.457031 0.859375 0.09375 0.859375 C 0.0078125 0.859375 -0.0625 0.84375 -0.125 0.8125 L -0.125 0.53125 C -0.0820312 0.539062 -0.03125 0.546875 0.03125 0.546875 C 0.113281 0.546875 0.175781 0.523438 0.21875 0.484375 C 0.257812 0.441406 0.28125 0.363281 0.28125 0.25 L 0.28125 -2.109375 Z M 0.25 -2.671875 C 0.25 -2.734375 0.265625 -2.785156 0.296875 -2.828125 C 0.335938 -2.867188 0.390625 -2.890625 0.453125 -2.890625 C 0.523438 -2.890625 0.578125 -2.867188 0.609375 -2.828125 C 0.648438 -2.785156 0.671875 -2.734375 0.671875 -2.671875 C 0.671875 -2.617188 0.648438 -2.570312 0.609375 -2.53125 C 0.578125 -2.488281 0.523438 -2.46875 0.453125 -2.46875 C 0.390625 -2.46875 0.335938 -2.488281 0.296875 -2.53125 C 0.265625 -2.570312 0.25 -2.617188 0.25 -2.671875 Z M 0.25 -2.671875 "/></g></g><g transform="translate(6.885379, 13.133346)"><g><path d="M 1.15625 0.046875 C 0.863281 0.046875 0.628906 -0.046875 0.453125 -0.234375 C 0.273438 -0.429688 0.1875 -0.6875 0.1875 -1 L 0.1875 -1.0625 C 0.1875 -1.269531 0.222656 -1.457031 0.296875 -1.625 C 0.378906 -1.789062 0.492188 -1.921875 0.640625 -2.015625 C 0.785156 -2.109375 0.941406 -2.15625 1.109375 -2.15625 C 1.378906 -2.15625 1.585938 -2.0625 1.734375 -1.875 C 1.890625 -1.695312 1.96875 -1.441406 1.96875 -1.109375 L 1.96875 -0.953125 L 0.546875 -0.953125 C 0.546875 -0.742188 0.601562 -0.570312 0.71875 -0.4375 C 0.84375 -0.3125 0.992188 -0.25 1.171875 -0.25 C 1.296875 -0.25 1.398438 -0.273438 1.484375 -0.328125 C 1.578125 -0.378906 1.660156 -0.453125 1.734375 -0.546875 L 1.953125 -0.375 C 1.773438 -0.09375 1.507812 0.046875 1.15625 0.046875 Z M 1.109375 -1.859375 C 0.960938 -1.859375 0.835938 -1.800781 0.734375 -1.6875 C 0.640625 -1.582031 0.582031 -1.4375 0.5625 -1.25 L 1.609375 -1.25 L 1.609375 -1.28125 C 1.597656 -1.457031 1.546875 -1.597656 1.453125 -1.703125 C 1.367188 -1.804688 1.253906 -1.859375 1.109375 -1.859375 Z M 1.109375 -1.859375 "/></g></g><g transform="translate(9.004516, 13.133346)"><g><path d="M 0.1875 -1.078125 C 0.1875 -1.398438 0.257812 -1.660156 0.40625 -1.859375 C 0.5625 -2.054688 0.765625 -2.15625 1.015625 -2.15625 C 1.265625 -2.15625 1.460938 -2.070312 1.609375 -1.90625 L 1.609375 -3 L 1.96875 -3 L 1.96875 0 L 1.640625 0 L 1.625 -0.234375 C 1.476562 -0.046875 1.273438 0.046875 1.015625 0.046875 C 0.773438 0.046875 0.578125 -0.0507812 0.421875 -0.25 C 0.265625 -0.457031 0.1875 -0.722656 0.1875 -1.046875 Z M 0.546875 -1.03125 C 0.546875 -0.789062 0.59375 -0.601562 0.6875 -0.46875 C 0.789062 -0.332031 0.929688 -0.265625 1.109375 -0.265625 C 1.335938 -0.265625 1.503906 -0.367188 1.609375 -0.578125 L 1.609375 -1.546875 C 1.503906 -1.742188 1.335938 -1.84375 1.109375 -1.84375 C 0.929688 -1.84375 0.789062 -1.773438 0.6875 -1.640625 C 0.59375 -1.503906 0.546875 -1.300781 0.546875 -1.03125 Z M 0.546875 -1.03125 "/></g></g><g transform="translate(11.260372, 13.133346)"><g><path d="M 1.15625 0.046875 C 0.863281 0.046875 0.628906 -0.046875 0.453125 -0.234375 C 0.273438 -0.429688 0.1875 -0.6875 0.1875 -1 L 0.1875 -1.0625 C 0.1875 -1.269531 0.222656 -1.457031 0.296875 -1.625 C 0.378906 -1.789062 0.492188 -1.921875 0.640625 -2.015625 C 0.785156 -2.109375 0.941406 -2.15625 1.109375 -2.15625 C 1.378906 -2.15625 1.585938 -2.0625 1.734375 -1.875 C 1.890625 -1.695312 1.96875 -1.441406 1.96875 -1.109375 L 1.96875 -0.953125 L 0.546875 -0.953125 C 0.546875 -0.742188 0.601562 -0.570312 0.71875 -0.4375 C 0.84375 -0.3125 0.992188 -0.25 1.171875 -0.25 C 1.296875 -0.25 1.398438 -0.273438 1.484375 -0.328125 C 1.578125 -0.378906 1.660156 -0.453125 1.734375 -0.546875 L 1.953125 -0.375 C 1.773438 -0.09375 1.507812 0.046875 1.15625 0.046875 Z M 1.109375 -1.859375 C 0.960938 -1.859375 0.835938 -1.800781 0.734375 -1.6875 C 0.640625 -1.582031 0.582031 -1.4375 0.5625 -1.25 L 1.609375 -1.25 L 1.609375 -1.28125 C 1.597656 -1.457031 1.546875 -1.597656 1.453125 -1.703125 C 1.367188 -1.804688 1.253906 -1.859375 1.109375 -1.859375 Z M 1.109375 -1.859375 "/></g></g><g transform="translate(13.37951, 13.133346)"><g><path d="M 1.125 -0.25 C 1.25 -0.25 1.359375 -0.285156 1.453125 -0.359375 C 1.554688 -0.441406 1.613281 -0.546875 1.625 -0.671875 L 1.96875 -0.671875 C 1.957031 -0.546875 1.910156 -0.425781 1.828125 -0.3125 C 1.753906 -0.207031 1.65625 -0.117188 1.53125 -0.046875 C 1.40625 0.015625 1.269531 0.046875 1.125 0.046875 C 0.832031 0.046875 0.601562 -0.046875 0.4375 -0.234375 C 0.269531 -0.429688 0.1875 -0.695312 0.1875 -1.03125 L 0.1875 -1.09375 C 0.1875 -1.300781 0.222656 -1.484375 0.296875 -1.640625 C 0.367188 -1.804688 0.472656 -1.929688 0.609375 -2.015625 C 0.753906 -2.109375 0.925781 -2.15625 1.125 -2.15625 C 1.351562 -2.15625 1.546875 -2.082031 1.703125 -1.9375 C 1.867188 -1.800781 1.957031 -1.617188 1.96875 -1.390625 L 1.625 -1.390625 C 1.613281 -1.523438 1.5625 -1.632812 1.46875 -1.71875 C 1.375 -1.8125 1.257812 -1.859375 1.125 -1.859375 C 0.9375 -1.859375 0.789062 -1.789062 0.6875 -1.65625 C 0.59375 -1.519531 0.546875 -1.328125 0.546875 -1.078125 L 0.546875 -1.015625 C 0.546875 -0.773438 0.59375 -0.585938 0.6875 -0.453125 C 0.789062 -0.316406 0.9375 -0.25 1.125 -0.25 Z M 1.21875 -3 L 1.65625 -3 L 1.125 -2.421875 L 0.828125 -2.421875 Z M 1.21875 -3 "/></g></g><g transform="translate(15.473257, 13.133346)"><g><path d="M 0.171875 -1.078125 C 0.171875 -1.285156 0.210938 -1.472656 0.296875 -1.640625 C 0.378906 -1.804688 0.492188 -1.929688 0.640625 -2.015625 C 0.785156 -2.109375 0.953125 -2.15625 1.140625 -2.15625 C 1.421875 -2.15625 1.648438 -2.054688 1.828125 -1.859375 C 2.015625 -1.660156 2.109375 -1.394531 2.109375 -1.0625 L 2.109375 -1.03125 C 2.109375 -0.820312 2.066406 -0.632812 1.984375 -0.46875 C 1.898438 -0.3125 1.785156 -0.1875 1.640625 -0.09375 C 1.492188 0 1.328125 0.046875 1.140625 0.046875 C 0.859375 0.046875 0.625 -0.0507812 0.4375 -0.25 C 0.257812 -0.457031 0.171875 -0.722656 0.171875 -1.046875 Z M 0.546875 -1.03125 C 0.546875 -0.800781 0.597656 -0.613281 0.703125 -0.46875 C 0.816406 -0.320312 0.960938 -0.25 1.140625 -0.25 C 1.328125 -0.25 1.472656 -0.320312 1.578125 -0.46875 C 1.679688 -0.613281 1.734375 -0.816406 1.734375 -1.078125 C 1.734375 -1.304688 1.675781 -1.492188 1.5625 -1.640625 C 1.457031 -1.785156 1.316406 -1.859375 1.140625 -1.859375 C 0.960938 -1.859375 0.816406 -1.785156 0.703125 -1.640625 C 0.597656 -1.503906 0.546875 -1.300781 0.546875 -1.03125 Z M 0.546875 -1.03125 "/></g></g><g transform="translate(17.754504, 13.133346)"><g><path d="M 0.640625 -2.109375 L 0.640625 0.25 C 0.640625 0.65625 0.457031 0.859375 0.09375 0.859375 C 0.0078125 0.859375 -0.0625 0.84375 -0.125 0.8125 L -0.125 0.53125 C -0.0820312 0.539062 -0.03125 0.546875 0.03125 0.546875 C 0.113281 0.546875 0.175781 0.523438 0.21875 0.484375 C 0.257812 0.441406 0.28125 0.363281 0.28125 0.25 L 0.28125 -2.109375 Z M 0.25 -2.671875 C 0.25 -2.734375 0.265625 -2.785156 0.296875 -2.828125 C 0.335938 -2.867188 0.390625 -2.890625 0.453125 -2.890625 C 0.523438 -2.890625 0.578125 -2.867188 0.609375 -2.828125 C 0.648438 -2.785156 0.671875 -2.734375 0.671875 -2.671875 C 0.671875 -2.617188 0.648438 -2.570312 0.609375 -2.53125 C 0.578125 -2.488281 0.523438 -2.46875 0.453125 -2.46875 C 0.390625 -2.46875 0.335938 -2.488281 0.296875 -2.53125 C 0.265625 -2.570312 0.25 -2.617188 0.25 -2.671875 Z M 0.25 -2.671875 "/></g></g><g transform="translate(18.70958, 13.133346)"><g/></g><g transform="translate(19.699813, 13.133346)"><g><path d="M 1.5 -0.5625 C 1.5 -0.65625 1.460938 -0.726562 1.390625 -0.78125 C 1.316406 -0.84375 1.1875 -0.890625 1 -0.921875 C 0.820312 -0.960938 0.675781 -1.007812 0.5625 -1.0625 C 0.457031 -1.125 0.378906 -1.191406 0.328125 -1.265625 C 0.285156 -1.335938 0.265625 -1.425781 0.265625 -1.53125 C 0.265625 -1.707031 0.335938 -1.851562 0.484375 -1.96875 C 0.628906 -2.09375 0.816406 -2.15625 1.046875 -2.15625 C 1.285156 -2.15625 1.476562 -2.09375 1.625 -1.96875 C 1.769531 -1.84375 1.84375 -1.6875 1.84375 -1.5 L 1.484375 -1.5 C 1.484375 -1.59375 1.441406 -1.675781 1.359375 -1.75 C 1.273438 -1.820312 1.171875 -1.859375 1.046875 -1.859375 C 0.910156 -1.859375 0.804688 -1.828125 0.734375 -1.765625 C 0.660156 -1.710938 0.625 -1.640625 0.625 -1.546875 C 0.625 -1.460938 0.65625 -1.394531 0.71875 -1.34375 C 0.789062 -1.300781 0.914062 -1.257812 1.09375 -1.21875 C 1.28125 -1.175781 1.425781 -1.128906 1.53125 -1.078125 C 1.644531 -1.023438 1.726562 -0.957031 1.78125 -0.875 C 1.832031 -0.789062 1.859375 -0.695312 1.859375 -0.59375 C 1.859375 -0.394531 1.78125 -0.238281 1.625 -0.125 C 1.476562 -0.0078125 1.285156 0.046875 1.046875 0.046875 C 0.878906 0.046875 0.726562 0.015625 0.59375 -0.046875 C 0.46875 -0.109375 0.367188 -0.191406 0.296875 -0.296875 C 0.222656 -0.410156 0.1875 -0.53125 0.1875 -0.65625 L 0.546875 -0.65625 C 0.554688 -0.53125 0.601562 -0.429688 0.6875 -0.359375 C 0.78125 -0.285156 0.898438 -0.25 1.046875 -0.25 C 1.179688 -0.25 1.289062 -0.273438 1.375 -0.328125 C 1.457031 -0.390625 1.5 -0.46875 1.5 -0.5625 Z M 1.5 -0.5625 "/></g></g><g transform="translate(21.76231, 13.133346)"><g><path d="M 0.671875 0 L 0.3125 0 L 0.3125 -3 L 0.671875 -3 Z M 0.671875 0 "/></g></g><g transform="translate(22.733012, 13.133346)"><g><path d="M 0.671875 0 L 0.3125 0 L 0.3125 -2.109375 L 0.671875 -2.109375 Z M 0.28125 -2.671875 C 0.28125 -2.734375 0.296875 -2.785156 0.328125 -2.828125 C 0.367188 -2.867188 0.421875 -2.890625 0.484375 -2.890625 C 0.554688 -2.890625 0.609375 -2.867188 0.640625 -2.828125 C 0.679688 -2.785156 0.703125 -2.734375 0.703125 -2.671875 C 0.703125 -2.617188 0.679688 -2.570312 0.640625 -2.53125 C 0.609375 -2.488281 0.554688 -2.46875 0.484375 -2.46875 C 0.421875 -2.46875 0.367188 -2.488281 0.328125 -2.53125 C 0.296875 -2.570312 0.28125 -2.617188 0.28125 -2.671875 Z M 0.28125 -2.671875 "/></g></g><g transform="translate(23.703714, 13.133346)"><g><path d="M 0.765625 -2.625 L 0.765625 -2.109375 L 1.15625 -2.109375 L 1.15625 -1.828125 L 0.765625 -1.828125 L 0.765625 -0.53125 C 0.765625 -0.4375 0.78125 -0.367188 0.8125 -0.328125 C 0.851562 -0.285156 0.914062 -0.265625 1 -0.265625 C 1.039062 -0.265625 1.097656 -0.273438 1.171875 -0.296875 L 1.171875 0 C 1.078125 0.03125 0.984375 0.046875 0.890625 0.046875 C 0.734375 0.046875 0.613281 0 0.53125 -0.09375 C 0.445312 -0.195312 0.40625 -0.34375 0.40625 -0.53125 L 0.40625 -1.828125 L 0.015625 -1.828125 L 0.015625 -2.109375 L 0.40625 -2.109375 L 0.40625 -2.625 Z M 0.765625 -2.625 "/></g></g><g transform="translate(25.010352, 13.133346)"><g><path d="M 0.671875 0 L 0.3125 0 L 0.3125 -2.109375 L 0.671875 -2.109375 Z M 0.28125 -2.671875 C 0.28125 -2.734375 0.296875 -2.785156 0.328125 -2.828125 C 0.367188 -2.867188 0.421875 -2.890625 0.484375 -2.890625 C 0.554688 -2.890625 0.609375 -2.867188 0.640625 -2.828125 C 0.679688 -2.785156 0.703125 -2.734375 0.703125 -2.671875 C 0.703125 -2.617188 0.679688 -2.570312 0.640625 -2.53125 C 0.609375 -2.488281 0.554688 -2.46875 0.484375 -2.46875 C 0.421875 -2.46875 0.367188 -2.488281 0.328125 -2.53125 C 0.296875 -2.570312 0.28125 -2.617188 0.28125 -2.671875 Z M 0.28125 -2.671875 "/></g></g><g transform="translate(25.981054, 13.133346)"><g><path d="M 0.609375 -2.109375 L 0.625 -1.84375 C 0.789062 -2.050781 1.003906 -2.15625 1.265625 -2.15625 C 1.710938 -2.15625 1.9375 -1.898438 1.9375 -1.390625 L 1.9375 0 L 1.578125 0 L 1.578125 -1.40625 C 1.578125 -1.550781 1.539062 -1.660156 1.46875 -1.734375 C 1.40625 -1.804688 1.300781 -1.84375 1.15625 -1.84375 C 1.03125 -1.84375 0.921875 -1.8125 0.828125 -1.75 C 0.742188 -1.6875 0.679688 -1.601562 0.640625 -1.5 L 0.640625 0 L 0.28125 0 L 0.28125 -2.109375 Z M 0.609375 -2.109375 "/></g></g><g transform="translate(28.188082, 13.133346)"><g><path d="M 0.671875 0 L 0.3125 0 L 0.3125 -2.109375 L 0.671875 -2.109375 Z M 0.28125 -2.671875 C 0.28125 -2.734375 0.296875 -2.785156 0.328125 -2.828125 C 0.367188 -2.867188 0.421875 -2.890625 0.484375 -2.890625 C 0.554688 -2.890625 0.609375 -2.867188 0.640625 -2.828125 C 0.679688 -2.785156 0.703125 -2.734375 0.703125 -2.671875 C 0.703125 -2.617188 0.679688 -2.570312 0.640625 -2.53125 C 0.609375 -2.488281 0.554688 -2.46875 0.484375 -2.46875 C 0.421875 -2.46875 0.367188 -2.488281 0.328125 -2.53125 C 0.296875 -2.570312 0.28125 -2.617188 0.28125 -2.671875 Z M 0.28125 -2.671875 "/></g></g><g transform="translate(29.158784, 13.133346)"><g><path d="M 0.703125 -0.796875 C 0.703125 -0.953125 0.71875 -1.070312 0.75 -1.15625 C 0.78125 -1.25 0.847656 -1.351562 0.953125 -1.46875 L 1.203125 -1.734375 C 1.316406 -1.859375 1.375 -1.988281 1.375 -2.125 C 1.375 -2.257812 1.335938 -2.363281 1.265625 -2.4375 C 1.191406 -2.519531 1.085938 -2.5625 0.953125 -2.5625 C 0.816406 -2.5625 0.707031 -2.523438 0.625 -2.453125 C 0.550781 -2.390625 0.515625 -2.296875 0.515625 -2.171875 L 0.140625 -2.171875 C 0.148438 -2.390625 0.226562 -2.5625 0.375 -2.6875 C 0.519531 -2.820312 0.710938 -2.890625 0.953125 -2.890625 C 1.191406 -2.890625 1.378906 -2.820312 1.515625 -2.6875 C 1.660156 -2.550781 1.734375 -2.367188 1.734375 -2.140625 C 1.734375 -1.910156 1.628906 -1.6875 1.421875 -1.46875 L 1.203125 -1.25 C 1.109375 -1.144531 1.0625 -0.992188 1.0625 -0.796875 Z M 0.6875 -0.1875 C 0.6875 -0.238281 0.703125 -0.285156 0.734375 -0.328125 C 0.773438 -0.367188 0.828125 -0.390625 0.890625 -0.390625 C 0.960938 -0.390625 1.015625 -0.367188 1.046875 -0.328125 C 1.085938 -0.285156 1.109375 -0.234375 1.109375 -0.171875 C 1.109375 -0.117188 1.085938 -0.0703125 1.046875 -0.03125 C 1.015625 0 0.960938 0.015625 0.890625 0.015625 C 0.828125 0.015625 0.773438 0 0.734375 -0.03125 C 0.703125 -0.0703125 0.6875 -0.125 0.6875 -0.1875 Z M 0.6875 -0.1875 "/></g></g></g></svg>