<svg xmlns="http://www.w3.org/2000/svg" xmlns:xlink="http://www.w3.org/1999/xlink" width="500" zoomAndPan="magnify" viewBox="0 0 375 74.999997" height="100" preserveAspectRatio="xMidYMid meet" version="1.0"><defs><clipPath id="e99176e220"><path d="M 161.117188 34 L 173 34 L 173 49 L 161.117188 49 Z M 161.117188 34 " clip-rule="nonzero"/></clipPath><clipPath id="065c80bdc1"><path d="M 205 15.113281 L 212 15.113281 L 212 30 L 205 30 Z M 205 15.113281 " clip-rule="nonzero"/></clipPath><clipPath id="aeb7a92849"><path d="M 203 38 L 213.617188 38 L 213.617188 40 L 203 40 Z M 203 38 " clip-rule="nonzero"/></clipPath></defs><g clip-path="url(#e99176e220)"><path fill="#a8180f" d="M 162.714844 47.3125 C 162.5625 47.96875 162.476562 48.144531 161.589844 48.144531 C 161.332031 48.144531 161.117188 48.144531 161.117188 48.558594 C 161.117188 48.601562 161.136719 48.777344 161.375 48.777344 C 161.65625 48.777344 161.957031 48.734375 162.238281 48.734375 L 163.167969 48.734375 C 163.621094 48.734375 164.726562 48.777344 165.179688 48.777344 C 165.308594 48.777344 165.566406 48.777344 165.566406 48.382812 C 165.566406 48.144531 165.417969 48.144531 165.050781 48.144531 C 164.054688 48.144531 163.988281 47.992188 163.988281 47.816406 C 163.988281 47.554688 164.960938 43.800781 165.09375 43.296875 C 165.328125 43.910156 165.914062 44.761719 167.039062 44.761719 C 169.480469 44.761719 172.117188 41.550781 172.117188 38.339844 C 172.117188 36.332031 170.992188 34.914062 169.371094 34.914062 C 167.988281 34.914062 166.820312 36.265625 166.582031 36.574219 C 166.410156 35.480469 165.566406 34.914062 164.703125 34.914062 C 164.078125 34.914062 163.578125 35.21875 163.167969 36.046875 C 162.78125 36.835938 162.476562 38.167969 162.476562 38.253906 C 162.476562 38.339844 162.5625 38.449219 162.714844 38.449219 C 162.886719 38.449219 162.910156 38.429688 163.039062 37.925781 C 163.363281 36.636719 163.773438 35.351562 164.636719 35.351562 C 165.136719 35.351562 165.308594 35.699219 165.308594 36.355469 C 165.308594 36.878906 165.242188 37.097656 165.15625 37.488281 Z M 166.453125 37.730469 C 166.605469 37.117188 167.210938 36.484375 167.554688 36.179688 C 167.792969 35.960938 168.507812 35.351562 169.328125 35.351562 C 170.28125 35.351562 170.710938 36.3125 170.710938 37.445312 C 170.710938 38.492188 170.105469 40.960938 169.566406 42.097656 C 169.027344 43.273438 168.03125 44.324219 167.039062 44.324219 C 165.566406 44.324219 165.328125 42.445312 165.328125 42.359375 C 165.328125 42.292969 165.375 42.117188 165.394531 42.007812 Z M 166.453125 37.730469 " fill-opacity="1" fill-rule="nonzero"/></g><path fill="#a8180f" d="M 193 37.46875 C 193.300781 37.46875 193.691406 37.46875 193.691406 37.074219 C 193.691406 36.660156 193.324219 36.660156 193 36.660156 L 180.269531 36.660156 C 179.964844 36.660156 179.578125 36.660156 179.578125 37.054688 C 179.578125 37.46875 179.945312 37.46875 180.269531 37.46875 Z M 193 41.527344 C 193.300781 41.527344 193.691406 41.527344 193.691406 41.136719 C 193.691406 40.722656 193.324219 40.722656 193 40.722656 L 180.269531 40.722656 C 179.964844 40.722656 179.578125 40.722656 179.578125 41.113281 C 179.578125 41.527344 179.945312 41.527344 180.269531 41.527344 Z M 193 41.527344 " fill-opacity="1" fill-rule="nonzero"/><g clip-path="url(#065c80bdc1)"><path fill="#a8180f" d="M 209.257812 15.777344 C 209.257812 15.277344 209.257812 15.253906 208.828125 15.253906 C 208.308594 15.84375 207.226562 16.652344 205 16.652344 L 205 17.285156 C 205.5 17.285156 206.578125 17.285156 207.765625 16.71875 L 207.765625 28.09375 C 207.765625 28.878906 207.703125 29.140625 205.800781 29.140625 L 205.128906 29.140625 L 205.128906 29.773438 C 205.714844 29.730469 207.8125 29.730469 208.523438 29.730469 C 209.238281 29.730469 211.3125 29.730469 211.894531 29.773438 L 211.894531 29.140625 L 211.226562 29.140625 C 209.324219 29.140625 209.257812 28.878906 209.257812 28.09375 Z M 209.257812 15.777344 " fill-opacity="1" fill-rule="nonzero"/></g><g clip-path="url(#aeb7a92849)"><path fill="#a8180f" d="M 203.035156 38.648438 L 213.617188 38.648438 L 213.617188 39.519531 L 203.035156 39.519531 Z M 203.035156 38.648438 " fill-opacity="1" fill-rule="nonzero"/></g><path fill="#a8180f" d="M 209.476562 51.636719 C 210.554688 51.046875 212.132812 50.042969 212.132812 48.210938 C 212.132812 46.308594 210.316406 45 208.328125 45 C 206.191406 45 204.503906 46.59375 204.503906 48.582031 C 204.503906 49.324219 204.71875 50.066406 205.324219 50.808594 C 205.5625 51.089844 205.585938 51.113281 207.097656 52.183594 C 205 53.164062 203.921875 54.628906 203.921875 56.222656 C 203.921875 58.535156 206.101562 59.976562 208.308594 59.976562 C 210.707031 59.976562 212.714844 58.1875 212.714844 55.894531 C 212.714844 53.667969 211.160156 52.683594 209.476562 51.636719 Z M 206.535156 49.671875 C 206.253906 49.476562 205.390625 48.90625 205.390625 47.839844 C 205.390625 46.417969 206.859375 45.523438 208.308594 45.523438 C 209.863281 45.523438 211.246094 46.660156 211.246094 48.230469 C 211.246094 49.5625 210.296875 50.632812 209.042969 51.332031 Z M 207.550781 52.488281 L 210.167969 54.214844 C 210.726562 54.585938 211.722656 55.261719 211.722656 56.59375 C 211.722656 58.253906 210.058594 59.386719 208.328125 59.386719 C 206.492188 59.386719 204.914062 58.035156 204.914062 56.222656 C 204.914062 54.519531 206.148438 53.144531 207.550781 52.488281 Z M 207.550781 52.488281 " fill-opacity="1" fill-rule="nonzero"/></svg>