<svg xmlns="http://www.w3.org/2000/svg" xmlns:xlink="http://www.w3.org/1999/xlink" width="500" zoomAndPan="magnify" viewBox="0 0 375 74.999997" height="100" preserveAspectRatio="xMidYMid meet" version="1.0"><defs><clipPath id="c2801bfe9f"><path d="M 35.523438 35 L 44 35 L 44 46 L 35.523438 46 Z M 35.523438 35 " clip-rule="nonzero"/></clipPath><clipPath id="7b94053db5"><path d="M 67 21.132812 L 73 21.132812 L 73 32 L 67 32 Z M 67 21.132812 " clip-rule="nonzero"/></clipPath><clipPath id="ecc51d9127"><path d="M 332 35 L 339.273438 35 L 339.273438 43 L 332 43 Z M 332 35 " clip-rule="nonzero"/></clipPath></defs><g clip-path="url(#c2801bfe9f)"><path fill="#a8180f" d="M 36.6875 44.710938 C 36.578125 45.1875 36.515625 45.316406 35.867188 45.316406 C 35.679688 45.316406 35.519531 45.316406 35.519531 45.617188 C 35.519531 45.648438 35.535156 45.777344 35.710938 45.777344 C 35.914062 45.777344 36.136719 45.746094 36.339844 45.746094 L 37.019531 45.746094 C 37.351562 45.746094 38.15625 45.777344 38.488281 45.777344 C 38.582031 45.777344 38.773438 45.777344 38.773438 45.488281 C 38.773438 45.316406 38.664062 45.316406 38.394531 45.316406 C 37.667969 45.316406 37.621094 45.203125 37.621094 45.074219 C 37.621094 44.882812 38.332031 42.144531 38.425781 41.777344 C 38.597656 42.226562 39.023438 42.847656 39.847656 42.847656 C 41.628906 42.847656 43.554688 40.503906 43.554688 38.164062 C 43.554688 36.699219 42.734375 35.664062 41.550781 35.664062 C 40.539062 35.664062 39.6875 36.648438 39.515625 36.871094 C 39.386719 36.078125 38.773438 35.664062 38.140625 35.664062 C 37.683594 35.664062 37.320312 35.886719 37.019531 36.492188 C 36.734375 37.0625 36.515625 38.035156 36.515625 38.097656 C 36.515625 38.164062 36.578125 38.242188 36.6875 38.242188 C 36.816406 38.242188 36.832031 38.226562 36.925781 37.859375 C 37.164062 36.921875 37.460938 35.980469 38.09375 35.980469 C 38.457031 35.980469 38.582031 36.234375 38.582031 36.714844 C 38.582031 37.097656 38.535156 37.253906 38.472656 37.542969 Z M 39.421875 37.71875 C 39.53125 37.269531 39.972656 36.808594 40.226562 36.585938 C 40.398438 36.425781 40.917969 35.980469 41.519531 35.980469 C 42.214844 35.980469 42.53125 36.683594 42.53125 37.511719 C 42.53125 38.273438 42.089844 40.074219 41.691406 40.902344 C 41.296875 41.761719 40.574219 42.527344 39.847656 42.527344 C 38.773438 42.527344 38.597656 41.15625 38.597656 41.09375 C 38.597656 41.046875 38.628906 40.917969 38.644531 40.839844 Z M 39.421875 37.71875 " fill-opacity="1" fill-rule="nonzero"/></g><path fill="#a8180f" d="M 58.808594 37.527344 C 59.03125 37.527344 59.316406 37.527344 59.316406 37.238281 C 59.316406 36.9375 59.046875 36.9375 58.808594 36.9375 L 49.511719 36.9375 C 49.289062 36.9375 49.007812 36.9375 49.007812 37.222656 C 49.007812 37.527344 49.273438 37.527344 49.511719 37.527344 Z M 58.808594 40.488281 C 59.03125 40.488281 59.316406 40.488281 59.316406 40.203125 C 59.316406 39.898438 59.046875 39.898438 58.808594 39.898438 L 49.511719 39.898438 C 49.289062 39.898438 49.007812 39.898438 49.007812 40.1875 C 49.007812 40.488281 49.273438 40.488281 49.511719 40.488281 Z M 58.808594 40.488281 " fill-opacity="1" fill-rule="nonzero"/><g clip-path="url(#7b94053db5)"><path fill="#a8180f" d="M 70.6875 21.703125 C 70.6875 21.335938 70.6875 21.320312 70.371094 21.320312 C 69.992188 21.75 69.203125 22.339844 67.578125 22.339844 L 67.578125 22.800781 C 67.941406 22.800781 68.730469 22.800781 69.597656 22.386719 L 69.597656 30.6875 C 69.597656 31.257812 69.550781 31.449219 68.160156 31.449219 L 67.671875 31.449219 L 67.671875 31.914062 C 68.097656 31.878906 69.628906 31.878906 70.152344 31.878906 C 70.671875 31.878906 72.1875 31.878906 72.613281 31.914062 L 72.613281 31.449219 L 72.125 31.449219 C 70.734375 31.449219 70.6875 31.257812 70.6875 30.6875 Z M 70.6875 21.703125 " fill-opacity="1" fill-rule="nonzero"/></g><path fill="#a8180f" d="M 66.140625 38.386719 L 73.871094 38.386719 L 73.871094 39.023438 L 66.140625 39.023438 Z M 66.140625 38.386719 " fill-opacity="1" fill-rule="nonzero"/><path fill="#a8180f" d="M 69.046875 47.894531 C 68.777344 47.910156 68.714844 47.925781 68.714844 48.070312 C 68.714844 48.230469 68.792969 48.230469 69.078125 48.230469 L 69.804688 48.230469 C 71.144531 48.230469 71.746094 49.34375 71.746094 50.875 C 71.746094 52.960938 70.671875 53.515625 69.898438 53.515625 C 69.140625 53.515625 67.847656 53.152344 67.386719 52.101562 C 67.894531 52.179688 68.351562 51.894531 68.351562 51.320312 C 68.351562 50.855469 68.019531 50.539062 67.578125 50.539062 C 67.199219 50.539062 66.789062 50.761719 66.789062 51.367188 C 66.789062 52.785156 68.195312 53.949219 69.945312 53.949219 C 71.824219 53.949219 73.214844 52.496094 73.214844 50.890625 C 73.214844 49.425781 72.046875 48.277344 70.53125 48.007812 C 71.902344 47.609375 72.789062 46.445312 72.789062 45.203125 C 72.789062 43.945312 71.492188 43.019531 69.960938 43.019531 C 68.382812 43.019531 67.214844 43.992188 67.214844 45.15625 C 67.214844 45.792969 67.703125 45.917969 67.941406 45.917969 C 68.273438 45.917969 68.652344 45.679688 68.652344 45.203125 C 68.652344 44.691406 68.273438 44.46875 67.925781 44.46875 C 67.832031 44.46875 67.796875 44.46875 67.75 44.484375 C 68.351562 43.402344 69.835938 43.402344 69.914062 43.402344 C 70.433594 43.402344 71.460938 43.640625 71.460938 45.203125 C 71.460938 45.503906 71.414062 46.398438 70.957031 47.082031 C 70.484375 47.785156 69.945312 47.832031 69.519531 47.847656 Z M 69.046875 47.894531 " fill-opacity="1" fill-rule="nonzero"/><path fill="#a8180f" d="M 87.035156 38.304688 C 87.035156 36.792969 86.054688 35.664062 84.617188 35.664062 C 82.535156 35.664062 80.484375 37.957031 80.484375 40.203125 C 80.484375 41.714844 81.460938 42.847656 82.898438 42.847656 C 84.996094 42.847656 87.035156 40.550781 87.035156 38.304688 Z M 82.914062 42.527344 C 82.125 42.527344 81.539062 41.890625 81.539062 40.773438 C 81.539062 40.042969 81.917969 38.417969 82.359375 37.621094 C 83.070312 36.394531 83.957031 35.980469 84.601562 35.980469 C 85.375 35.980469 85.976562 36.617188 85.976562 37.734375 C 85.976562 38.371094 85.644531 40.074219 85.046875 41.046875 C 84.398438 42.113281 83.53125 42.527344 82.914062 42.527344 Z M 82.914062 42.527344 " fill-opacity="1" fill-rule="nonzero"/><path fill="#a8180f" d="M 95.207031 32.03125 C 95.222656 31.96875 95.253906 31.871094 95.253906 31.792969 C 95.253906 31.632812 95.097656 31.632812 95.066406 31.632812 C 95.050781 31.632812 94.277344 31.695312 94.195312 31.710938 C 93.929688 31.726562 93.691406 31.761719 93.40625 31.777344 C 93.011719 31.808594 92.902344 31.824219 92.902344 32.109375 C 92.902344 32.269531 93.027344 32.269531 93.25 32.269531 C 94.023438 32.269531 94.039062 32.414062 94.039062 32.574219 C 94.039062 32.667969 94.007812 32.796875 93.992188 32.84375 L 93.027344 36.714844 C 92.855469 36.300781 92.429688 35.664062 91.609375 35.664062 C 89.824219 35.664062 87.898438 37.988281 87.898438 40.34375 C 87.898438 41.921875 88.8125 42.847656 89.886719 42.847656 C 90.753906 42.847656 91.496094 42.160156 91.9375 41.636719 C 92.097656 42.574219 92.839844 42.847656 93.3125 42.847656 C 93.785156 42.847656 94.164062 42.558594 94.449219 41.984375 C 94.703125 41.445312 94.921875 40.472656 94.921875 40.410156 C 94.921875 40.328125 94.859375 40.265625 94.765625 40.265625 C 94.621094 40.265625 94.605469 40.34375 94.542969 40.585938 C 94.308594 41.523438 94.007812 42.527344 93.359375 42.527344 C 92.902344 42.527344 92.871094 42.113281 92.871094 41.792969 C 92.871094 41.730469 92.871094 41.398438 92.980469 40.949219 Z M 92.019531 40.792969 C 91.9375 41.0625 91.9375 41.09375 91.71875 41.398438 C 91.371094 41.84375 90.675781 42.527344 89.933594 42.527344 C 89.285156 42.527344 88.921875 41.9375 88.921875 41 C 88.921875 40.121094 89.414062 38.339844 89.714844 37.667969 C 90.25 36.554688 90.992188 35.980469 91.609375 35.980469 C 92.648438 35.980469 92.855469 37.285156 92.855469 37.414062 C 92.855469 37.429688 92.808594 37.636719 92.792969 37.667969 Z M 92.019531 40.792969 " fill-opacity="1" fill-rule="nonzero"/><path fill="#a8180f" d="M 98.550781 38.019531 C 98.582031 37.925781 98.976562 37.128906 99.5625 36.617188 C 99.972656 36.234375 100.507812 35.980469 101.125 35.980469 C 101.757812 35.980469 101.976562 36.457031 101.976562 37.097656 C 101.976562 38.003906 101.328125 39.820312 101.015625 40.679688 C 100.871094 41.0625 100.792969 41.269531 100.792969 41.554688 C 100.792969 42.273438 101.28125 42.847656 102.039062 42.847656 C 103.507812 42.847656 104.0625 40.503906 104.0625 40.410156 C 104.0625 40.328125 103.996094 40.265625 103.902344 40.265625 C 103.761719 40.265625 103.746094 40.3125 103.667969 40.585938 C 103.304688 41.890625 102.703125 42.527344 102.085938 42.527344 C 101.929688 42.527344 101.675781 42.511719 101.675781 42 C 101.675781 41.605469 101.851562 41.125 101.945312 40.902344 C 102.261719 40.027344 102.925781 38.242188 102.925781 37.335938 C 102.925781 36.378906 102.371094 35.664062 101.171875 35.664062 C 99.765625 35.664062 99.023438 36.664062 98.742188 37.0625 C 98.691406 36.15625 98.046875 35.664062 97.351562 35.664062 C 96.847656 35.664062 96.5 35.964844 96.230469 36.507812 C 95.945312 37.078125 95.726562 38.035156 95.726562 38.097656 C 95.726562 38.164062 95.789062 38.242188 95.898438 38.242188 C 96.023438 38.242188 96.039062 38.226562 96.136719 37.859375 C 96.386719 36.890625 96.671875 35.980469 97.304688 35.980469 C 97.667969 35.980469 97.792969 36.234375 97.792969 36.714844 C 97.792969 37.0625 97.636719 37.683594 97.523438 38.179688 L 97.082031 39.898438 C 97.019531 40.203125 96.847656 40.917969 96.765625 41.207031 C 96.65625 41.621094 96.484375 42.367188 96.484375 42.449219 C 96.484375 42.671875 96.65625 42.847656 96.894531 42.847656 C 97.082031 42.847656 97.304688 42.75 97.429688 42.511719 C 97.460938 42.433594 97.605469 41.875 97.683594 41.554688 L 98.03125 40.121094 Z M 98.550781 38.019531 " fill-opacity="1" fill-rule="nonzero"/><path fill="#a8180f" d="M 111.726562 38.304688 C 111.726562 36.792969 110.746094 35.664062 109.308594 35.664062 C 107.226562 35.664062 105.171875 37.957031 105.171875 40.203125 C 105.171875 41.714844 106.152344 42.847656 107.589844 42.847656 C 109.6875 42.847656 111.726562 40.550781 111.726562 38.304688 Z M 107.605469 42.527344 C 106.816406 42.527344 106.230469 41.890625 106.230469 40.773438 C 106.230469 40.042969 106.609375 38.417969 107.050781 37.621094 C 107.761719 36.394531 108.644531 35.980469 109.292969 35.980469 C 110.066406 35.980469 110.667969 36.617188 110.667969 37.734375 C 110.667969 38.371094 110.335938 40.074219 109.734375 41.046875 C 109.089844 42.113281 108.21875 42.527344 107.605469 42.527344 Z M 107.605469 42.527344 " fill-opacity="1" fill-rule="nonzero"/><path fill="#a8180f" d="M 115.558594 39.5 C 115.824219 39.550781 116.25 39.644531 116.347656 39.660156 C 116.550781 39.722656 117.261719 39.980469 117.261719 40.742188 C 117.261719 41.238281 116.820312 42.527344 114.988281 42.527344 C 114.65625 42.527344 113.472656 42.480469 113.15625 41.605469 C 113.789062 41.683594 114.105469 41.1875 114.105469 40.839844 C 114.105469 40.503906 113.882812 40.328125 113.566406 40.328125 C 113.21875 40.328125 112.761719 40.601562 112.761719 41.316406 C 112.761719 42.257812 113.710938 42.847656 114.972656 42.847656 C 117.371094 42.847656 118.082031 41.0625 118.082031 40.234375 C 118.082031 39.996094 118.082031 39.550781 117.578125 39.039062 C 117.183594 38.65625 116.804688 38.578125 115.953125 38.402344 C 115.527344 38.304688 114.847656 38.164062 114.847656 37.445312 C 114.847656 37.128906 115.132812 35.980469 116.628906 35.980469 C 117.292969 35.980469 117.941406 36.234375 118.097656 36.808594 C 117.40625 36.808594 117.371094 37.414062 117.371094 37.429688 C 117.371094 37.765625 117.671875 37.859375 117.816406 37.859375 C 118.035156 37.859375 118.476562 37.683594 118.476562 37.015625 C 118.476562 36.347656 117.878906 35.664062 116.648438 35.664062 C 114.578125 35.664062 114.027344 37.304688 114.027344 37.957031 C 114.027344 39.167969 115.195312 39.421875 115.558594 39.5 Z M 115.558594 39.5 " fill-opacity="1" fill-rule="nonzero"/><path fill="#a8180f" d="M 122.492188 38.019531 C 122.523438 37.925781 122.917969 37.128906 123.5 36.617188 C 123.914062 36.234375 124.449219 35.980469 125.066406 35.980469 C 125.695312 35.980469 125.917969 36.457031 125.917969 37.097656 C 125.917969 38.003906 125.269531 39.820312 124.953125 40.679688 C 124.8125 41.0625 124.734375 41.269531 124.734375 41.554688 C 124.734375 42.273438 125.222656 42.847656 125.980469 42.847656 C 127.449219 42.847656 128 40.503906 128 40.410156 C 128 40.328125 127.9375 40.265625 127.84375 40.265625 C 127.703125 40.265625 127.683594 40.3125 127.605469 40.585938 C 127.242188 41.890625 126.644531 42.527344 126.027344 42.527344 C 125.871094 42.527344 125.617188 42.511719 125.617188 42 C 125.617188 41.605469 125.789062 41.125 125.886719 40.902344 C 126.203125 40.027344 126.863281 38.242188 126.863281 37.335938 C 126.863281 36.378906 126.3125 35.664062 125.113281 35.664062 C 123.707031 35.664062 122.964844 36.664062 122.679688 37.0625 C 122.632812 36.15625 121.984375 35.664062 121.292969 35.664062 C 120.785156 35.664062 120.4375 35.964844 120.171875 36.507812 C 119.886719 37.078125 119.664062 38.035156 119.664062 38.097656 C 119.664062 38.164062 119.730469 38.242188 119.839844 38.242188 C 119.964844 38.242188 119.980469 38.226562 120.074219 37.859375 C 120.328125 36.890625 120.613281 35.980469 121.246094 35.980469 C 121.605469 35.980469 121.734375 36.234375 121.734375 36.714844 C 121.734375 37.0625 121.574219 37.683594 121.464844 38.179688 L 121.023438 39.898438 C 120.960938 40.203125 120.785156 40.917969 120.707031 41.207031 C 120.597656 41.621094 120.421875 42.367188 120.421875 42.449219 C 120.421875 42.671875 120.597656 42.847656 120.832031 42.847656 C 121.023438 42.847656 121.246094 42.75 121.371094 42.511719 C 121.402344 42.433594 121.542969 41.875 121.625 41.554688 L 121.96875 40.121094 Z M 122.492188 38.019531 " fill-opacity="1" fill-rule="nonzero"/><path fill="#a8180f" d="M 135.664062 38.304688 C 135.664062 36.792969 134.6875 35.664062 133.25 35.664062 C 131.164062 35.664062 129.113281 37.957031 129.113281 40.203125 C 129.113281 41.714844 130.09375 42.847656 131.527344 42.847656 C 133.628906 42.847656 135.664062 40.550781 135.664062 38.304688 Z M 131.542969 42.527344 C 130.753906 42.527344 130.171875 41.890625 130.171875 40.773438 C 130.171875 40.042969 130.550781 38.417969 130.992188 37.621094 C 131.703125 36.394531 132.585938 35.980469 133.234375 35.980469 C 134.007812 35.980469 134.605469 36.617188 134.605469 37.734375 C 134.605469 38.371094 134.277344 40.074219 133.675781 41.046875 C 133.027344 42.113281 132.160156 42.527344 131.542969 42.527344 Z M 131.542969 42.527344 " fill-opacity="1" fill-rule="nonzero"/><path fill="#a8180f" d="M 144.832031 32.476562 C 144.832031 32.109375 144.832031 32.09375 144.515625 32.09375 C 144.136719 32.523438 143.347656 33.113281 141.71875 33.113281 L 141.71875 33.574219 C 142.082031 33.574219 142.871094 33.574219 143.742188 33.160156 L 143.742188 41.460938 C 143.742188 42.035156 143.695312 42.226562 142.304688 42.226562 L 141.816406 42.226562 L 141.816406 42.6875 C 142.242188 42.65625 143.773438 42.65625 144.292969 42.65625 C 144.816406 42.65625 146.332031 42.65625 146.757812 42.6875 L 146.757812 42.226562 L 146.265625 42.226562 C 144.878906 42.226562 144.832031 42.035156 144.832031 41.460938 Z M 144.832031 32.476562 " fill-opacity="1" fill-rule="nonzero"/><path fill="#a8180f" d="M 155.085938 37.589844 C 155.085938 36.269531 155.007812 34.976562 154.4375 33.765625 C 153.789062 32.445312 152.65625 32.09375 151.878906 32.09375 C 150.964844 32.09375 149.84375 32.554688 149.261719 33.878906 C 148.816406 34.882812 148.660156 35.871094 148.660156 37.589844 C 148.660156 39.132812 148.769531 40.296875 149.339844 41.429688 C 149.953125 42.640625 151.042969 43.019531 151.863281 43.019531 C 153.238281 43.019531 154.027344 42.191406 154.484375 41.269531 C 155.054688 40.074219 155.085938 38.511719 155.085938 37.589844 Z M 151.863281 42.703125 C 151.359375 42.703125 150.332031 42.414062 150.035156 40.679688 C 149.859375 39.722656 149.859375 38.511719 149.859375 37.398438 C 149.859375 36.09375 149.859375 34.914062 150.113281 33.972656 C 150.382812 32.90625 151.1875 32.414062 151.863281 32.414062 C 152.464844 32.414062 153.378906 32.78125 153.679688 34.148438 C 153.886719 35.058594 153.886719 36.316406 153.886719 37.398438 C 153.886719 38.464844 153.886719 39.675781 153.710938 40.648438 C 153.410156 42.398438 152.417969 42.703125 151.863281 42.703125 Z M 151.863281 42.703125 " fill-opacity="1" fill-rule="nonzero"/><path fill="#a8180f" d="M 162.816406 37.589844 C 162.816406 36.269531 162.734375 34.976562 162.167969 33.765625 C 161.519531 32.445312 160.382812 32.09375 159.609375 32.09375 C 158.695312 32.09375 157.574219 32.554688 156.988281 33.878906 C 156.546875 34.882812 156.390625 35.871094 156.390625 37.589844 C 156.390625 39.132812 156.5 40.296875 157.066406 41.429688 C 157.683594 42.640625 158.773438 43.019531 159.59375 43.019531 C 160.96875 43.019531 161.757812 42.191406 162.214844 41.269531 C 162.78125 40.074219 162.816406 38.511719 162.816406 37.589844 Z M 159.59375 42.703125 C 159.089844 42.703125 158.0625 42.414062 157.761719 40.679688 C 157.589844 39.722656 157.589844 38.511719 157.589844 37.398438 C 157.589844 36.09375 157.589844 34.914062 157.839844 33.972656 C 158.109375 32.90625 158.914062 32.414062 159.59375 32.414062 C 160.195312 32.414062 161.109375 32.78125 161.410156 34.148438 C 161.613281 35.058594 161.613281 36.316406 161.613281 37.398438 C 161.613281 38.464844 161.613281 39.675781 161.441406 40.648438 C 161.140625 42.398438 160.148438 42.703125 159.59375 42.703125 Z M 159.59375 42.703125 " fill-opacity="1" fill-rule="nonzero"/><path fill="#a8180f" d="M 175.484375 40.378906 C 175.484375 38.546875 174.585938 37.160156 173.464844 37.160156 C 172.3125 37.160156 171.191406 38.480469 171.191406 40.359375 C 171.191406 42.304688 172.328125 43.578125 173.464844 43.578125 C 174.601562 43.578125 175.484375 42.144531 175.484375 40.378906 Z M 173.480469 43.261719 C 173.257812 43.261719 172.105469 43.148438 172.105469 40.378906 C 172.105469 37.574219 173.242188 37.476562 173.480469 37.476562 C 174.347656 37.476562 175.136719 38.71875 175.136719 40.359375 C 175.136719 42.050781 174.332031 43.261719 173.480469 43.261719 Z M 174.066406 31.3125 C 174.160156 31.171875 174.191406 31.121094 174.191406 31.042969 C 174.191406 30.835938 174.03125 30.742188 173.90625 30.742188 C 173.75 30.742188 173.703125 30.820312 173.574219 30.980469 C 172.566406 32.347656 171.222656 32.476562 170.621094 32.476562 C 170.324219 32.476562 168.964844 32.476562 167.6875 31.234375 C 167.355469 30.898438 167.007812 30.742188 166.597656 30.742188 C 165.445312 30.742188 164.324219 32.0625 164.324219 33.941406 C 164.324219 35.886719 165.460938 37.160156 166.597656 37.160156 C 167.734375 37.160156 168.617188 35.726562 168.617188 33.957031 C 168.617188 33.496094 168.585938 32.90625 168.269531 32.109375 C 169.296875 32.714844 170.179688 32.796875 170.640625 32.796875 C 171.066406 32.796875 171.933594 32.714844 172.769531 32.191406 L 172.785156 32.207031 L 165.746094 43.003906 C 165.648438 43.148438 165.617188 43.195312 165.617188 43.277344 C 165.617188 43.453125 165.761719 43.578125 165.917969 43.578125 C 166.058594 43.578125 166.140625 43.46875 166.21875 43.355469 Z M 166.613281 36.839844 C 166.390625 36.839844 165.238281 36.730469 165.238281 33.957031 C 165.238281 31.15625 166.375 31.058594 166.613281 31.058594 C 167.480469 31.058594 168.269531 32.300781 168.269531 33.941406 C 168.269531 35.628906 167.464844 36.839844 166.613281 36.839844 Z M 166.613281 36.839844 " fill-opacity="1" fill-rule="nonzero"/><path fill="#a8180f" d="M 186.261719 37.636719 C 186.328125 37.382812 186.328125 37.160156 186.328125 37.097656 C 186.328125 36.171875 185.648438 35.664062 184.9375 35.664062 C 183.34375 35.664062 182.488281 37.988281 182.488281 38.097656 C 182.488281 38.179688 182.554688 38.242188 182.648438 38.242188 C 182.773438 38.242188 182.789062 38.179688 182.867188 38.019531 C 183.5 36.476562 184.289062 35.980469 184.890625 35.980469 C 185.222656 35.980469 185.394531 36.15625 185.394531 36.714844 C 185.394531 37.097656 185.347656 37.253906 185.285156 37.542969 L 183.785156 43.546875 C 183.484375 44.726562 182.742188 45.617188 181.875 45.617188 C 181.8125 45.617188 181.480469 45.617188 181.179688 45.457031 C 181.558594 45.378906 181.859375 45.074219 181.859375 44.695312 C 181.859375 44.4375 181.667969 44.183594 181.320312 44.183594 C 180.910156 44.183594 180.53125 44.535156 180.53125 45.011719 C 180.53125 45.664062 181.226562 45.9375 181.875 45.9375 C 182.964844 45.9375 184.398438 45.125 184.792969 43.53125 Z M 186.910156 32.746094 C 186.910156 32.347656 186.578125 32.222656 186.390625 32.222656 C 185.964844 32.222656 185.601562 32.636719 185.601562 32.988281 C 185.601562 33.226562 185.789062 33.511719 186.136719 33.511719 C 186.5 33.511719 186.910156 33.160156 186.910156 32.746094 Z M 186.910156 32.746094 " fill-opacity="1" fill-rule="nonzero"/><path fill="#a8180f" d="M 190.847656 38.992188 C 191.273438 38.992188 192.347656 38.960938 193.105469 38.671875 C 194.304688 38.210938 194.414062 37.285156 194.414062 37 C 194.414062 36.300781 193.816406 35.664062 192.773438 35.664062 C 191.117188 35.664062 188.730469 37.175781 188.730469 40.011719 C 188.730469 41.683594 189.679688 42.847656 191.117188 42.847656 C 193.261719 42.847656 194.621094 41.15625 194.621094 40.949219 C 194.621094 40.855469 194.527344 40.773438 194.464844 40.773438 C 194.414062 40.773438 194.398438 40.792969 194.257812 40.933594 C 193.246094 42.289062 191.746094 42.527344 191.148438 42.527344 C 190.246094 42.527344 189.773438 41.8125 189.773438 40.632812 C 189.773438 40.410156 189.773438 40.011719 190.011719 38.992188 Z M 190.089844 38.671875 C 190.769531 36.21875 192.269531 35.980469 192.773438 35.980469 C 193.46875 35.980469 193.941406 36.394531 193.941406 37 C 193.941406 38.671875 191.414062 38.671875 190.753906 38.671875 Z M 190.089844 38.671875 " fill-opacity="1" fill-rule="nonzero"/><path fill="#a8180f" d="M 201.328125 36.171875 C 200.835938 36.269531 200.585938 36.617188 200.585938 36.96875 C 200.585938 37.351562 200.886719 37.476562 201.105469 37.476562 C 201.546875 37.476562 201.910156 37.097656 201.910156 36.617188 C 201.910156 36.109375 201.421875 35.664062 200.632812 35.664062 C 200 35.664062 199.273438 35.949219 198.613281 36.921875 C 198.5 36.078125 197.871094 35.664062 197.238281 35.664062 C 196.621094 35.664062 196.304688 36.140625 196.117188 36.492188 C 195.847656 37.0625 195.613281 38.019531 195.613281 38.097656 C 195.613281 38.164062 195.675781 38.242188 195.785156 38.242188 C 195.910156 38.242188 195.925781 38.226562 196.023438 37.859375 C 196.257812 36.90625 196.558594 35.980469 197.191406 35.980469 C 197.570312 35.980469 197.679688 36.25 197.679688 36.714844 C 197.679688 37.0625 197.523438 37.683594 197.410156 38.179688 L 196.96875 39.898438 C 196.90625 40.203125 196.734375 40.917969 196.652344 41.207031 C 196.542969 41.621094 196.371094 42.367188 196.371094 42.449219 C 196.371094 42.671875 196.542969 42.847656 196.78125 42.847656 C 196.953125 42.847656 197.253906 42.734375 197.347656 42.414062 C 197.394531 42.289062 197.980469 39.882812 198.074219 39.515625 C 198.152344 39.167969 198.25 38.832031 198.328125 38.480469 C 198.390625 38.257812 198.453125 38.003906 198.5 37.796875 C 198.546875 37.652344 198.976562 36.871094 199.371094 36.523438 C 199.558594 36.347656 199.96875 35.980469 200.617188 35.980469 C 200.871094 35.980469 201.121094 36.027344 201.328125 36.171875 Z M 201.328125 36.171875 " fill-opacity="1" fill-rule="nonzero"/><path fill="#a8180f" d="M 210.566406 39.5 C 210.835938 39.550781 211.261719 39.644531 211.355469 39.660156 C 211.5625 39.722656 212.273438 39.980469 212.273438 40.742188 C 212.273438 41.238281 211.832031 42.527344 210 42.527344 C 209.667969 42.527344 208.484375 42.480469 208.167969 41.605469 C 208.800781 41.683594 209.113281 41.1875 209.113281 40.839844 C 209.113281 40.503906 208.894531 40.328125 208.578125 40.328125 C 208.230469 40.328125 207.773438 40.601562 207.773438 41.316406 C 207.773438 42.257812 208.71875 42.847656 209.984375 42.847656 C 212.382812 42.847656 213.09375 41.0625 213.09375 40.234375 C 213.09375 39.996094 213.09375 39.550781 212.589844 39.039062 C 212.191406 38.65625 211.8125 38.578125 210.960938 38.402344 C 210.535156 38.304688 209.855469 38.164062 209.855469 37.445312 C 209.855469 37.128906 210.140625 35.980469 211.640625 35.980469 C 212.304688 35.980469 212.949219 36.234375 213.109375 36.808594 C 212.414062 36.808594 212.382812 37.414062 212.382812 37.429688 C 212.382812 37.765625 212.683594 37.859375 212.824219 37.859375 C 213.046875 37.859375 213.488281 37.683594 213.488281 37.015625 C 213.488281 36.347656 212.886719 35.664062 211.65625 35.664062 C 209.589844 35.664062 209.035156 37.304688 209.035156 37.957031 C 209.035156 39.167969 210.203125 39.421875 210.566406 39.5 Z M 210.566406 39.5 " fill-opacity="1" fill-rule="nonzero"/><path fill="#a8180f" d="M 221.464844 36.730469 C 221.464844 35.726562 220.957031 35.664062 220.832031 35.664062 C 220.453125 35.664062 220.105469 36.042969 220.105469 36.363281 C 220.105469 36.554688 220.21875 36.664062 220.28125 36.730469 C 220.4375 36.871094 220.847656 37.304688 220.847656 38.132812 C 220.847656 38.800781 219.902344 42.527344 218.007812 42.527344 C 217.042969 42.527344 216.855469 41.714844 216.855469 41.125 C 216.855469 40.328125 217.21875 39.214844 217.644531 38.066406 C 217.894531 37.414062 217.960938 37.253906 217.960938 36.9375 C 217.960938 36.269531 217.484375 35.664062 216.710938 35.664062 C 215.257812 35.664062 214.675781 37.972656 214.675781 38.097656 C 214.675781 38.164062 214.738281 38.242188 214.847656 38.242188 C 214.992188 38.242188 215.007812 38.179688 215.070312 37.957031 C 215.449219 36.585938 216.066406 35.980469 216.664062 35.980469 C 216.808594 35.980469 217.074219 35.980469 217.074219 36.507812 C 217.074219 36.921875 216.902344 37.382812 216.664062 37.988281 C 215.90625 40.027344 215.90625 40.519531 215.90625 40.902344 C 215.90625 41.253906 215.953125 41.90625 216.445312 42.351562 C 217.011719 42.847656 217.800781 42.847656 217.945312 42.847656 C 220.5625 42.847656 221.464844 37.636719 221.464844 36.730469 Z M 221.464844 36.730469 " fill-opacity="1" fill-rule="nonzero"/><path fill="#a8180f" d="M 226.757812 40.410156 C 226.757812 40.328125 226.695312 40.265625 226.597656 40.265625 C 226.457031 40.265625 226.441406 40.3125 226.363281 40.585938 C 225.953125 42.035156 225.304688 42.527344 224.78125 42.527344 C 224.59375 42.527344 224.371094 42.480469 224.371094 42 C 224.371094 41.570312 224.5625 41.09375 224.734375 40.617188 L 225.839844 37.652344 C 225.886719 37.527344 226 37.238281 226 36.9375 C 226 36.269531 225.523438 35.664062 224.75 35.664062 C 223.300781 35.664062 222.714844 37.972656 222.714844 38.097656 C 222.714844 38.164062 222.777344 38.242188 222.890625 38.242188 C 223.03125 38.242188 223.046875 38.179688 223.109375 37.957031 C 223.488281 36.617188 224.089844 35.980469 224.703125 35.980469 C 224.847656 35.980469 225.113281 35.996094 225.113281 36.507812 C 225.113281 36.921875 224.910156 37.445312 224.78125 37.796875 L 223.679688 40.757812 C 223.582031 41.015625 223.488281 41.269531 223.488281 41.554688 C 223.488281 42.273438 223.976562 42.847656 224.734375 42.847656 C 226.1875 42.847656 226.757812 40.519531 226.757812 40.410156 Z M 226.628906 32.746094 C 226.628906 32.507812 226.441406 32.222656 226.09375 32.222656 C 225.730469 32.222656 225.320312 32.574219 225.320312 32.988281 C 225.320312 33.382812 225.652344 33.511719 225.839844 33.511719 C 226.265625 33.511719 226.628906 33.097656 226.628906 32.746094 Z M 226.628906 32.746094 " fill-opacity="1" fill-rule="nonzero"/><path fill="#a8180f" d="M 239.164062 36.730469 C 239.164062 35.726562 238.65625 35.664062 238.53125 35.664062 C 238.152344 35.664062 237.804688 36.042969 237.804688 36.363281 C 237.804688 36.554688 237.914062 36.664062 237.976562 36.730469 C 238.136719 36.871094 238.546875 37.304688 238.546875 38.132812 C 238.546875 38.800781 237.597656 42.527344 235.703125 42.527344 C 234.742188 42.527344 234.550781 41.714844 234.550781 41.125 C 234.550781 40.328125 234.914062 39.214844 235.339844 38.066406 C 235.59375 37.414062 235.65625 37.253906 235.65625 36.9375 C 235.65625 36.269531 235.183594 35.664062 234.410156 35.664062 C 232.957031 35.664062 232.375 37.972656 232.375 38.097656 C 232.375 38.164062 232.4375 38.242188 232.546875 38.242188 C 232.6875 38.242188 232.707031 38.179688 232.769531 37.957031 C 233.148438 36.585938 233.761719 35.980469 234.363281 35.980469 C 234.503906 35.980469 234.773438 35.980469 234.773438 36.507812 C 234.773438 36.921875 234.597656 37.382812 234.363281 37.988281 C 233.605469 40.027344 233.605469 40.519531 233.605469 40.902344 C 233.605469 41.253906 233.652344 41.90625 234.140625 42.351562 C 234.710938 42.847656 235.5 42.847656 235.640625 42.847656 C 238.261719 42.847656 239.164062 37.636719 239.164062 36.730469 Z M 239.164062 36.730469 " fill-opacity="1" fill-rule="nonzero"/><path fill="#a8180f" d="M 247.1875 38.304688 C 247.1875 36.792969 246.207031 35.664062 244.769531 35.664062 C 242.6875 35.664062 240.632812 37.957031 240.632812 40.203125 C 240.632812 41.714844 241.613281 42.847656 243.050781 42.847656 C 245.148438 42.847656 247.1875 40.550781 247.1875 38.304688 Z M 243.066406 42.527344 C 242.277344 42.527344 241.691406 41.890625 241.691406 40.773438 C 241.691406 40.042969 242.070312 38.417969 242.511719 37.621094 C 243.222656 36.394531 244.105469 35.980469 244.753906 35.980469 C 245.527344 35.980469 246.128906 36.617188 246.128906 37.734375 C 246.128906 38.371094 245.796875 40.074219 245.195312 41.046875 C 244.550781 42.113281 243.679688 42.527344 243.066406 42.527344 Z M 243.066406 42.527344 " fill-opacity="1" fill-rule="nonzero"/><path fill="#a8180f" d="M 251.429688 32.03125 C 251.445312 31.96875 251.476562 31.871094 251.476562 31.792969 C 251.476562 31.632812 251.320312 31.632812 251.285156 31.632812 C 251.269531 31.632812 250.703125 31.679688 250.417969 31.710938 C 250.148438 31.726562 249.914062 31.761719 249.628906 31.777344 C 249.25 31.808594 249.140625 31.824219 249.140625 32.109375 C 249.140625 32.269531 249.296875 32.269531 249.457031 32.269531 C 250.261719 32.269531 250.261719 32.414062 250.261719 32.574219 C 250.261719 32.636719 250.261719 32.667969 250.183594 32.953125 L 248.222656 40.855469 C 248.175781 41.03125 248.144531 41.15625 248.144531 41.414062 C 248.144531 42.207031 248.730469 42.847656 249.535156 42.847656 C 250.054688 42.847656 250.402344 42.496094 250.65625 42 C 250.921875 41.476562 251.144531 40.472656 251.144531 40.410156 C 251.144531 40.328125 251.082031 40.265625 250.988281 40.265625 C 250.84375 40.265625 250.828125 40.34375 250.765625 40.585938 C 250.480469 41.683594 250.199219 42.527344 249.566406 42.527344 C 249.09375 42.527344 249.09375 42.019531 249.09375 41.792969 C 249.09375 41.730469 249.09375 41.398438 249.203125 40.949219 Z M 251.429688 32.03125 " fill-opacity="1" fill-rule="nonzero"/><path fill="#a8180f" d="M 255.195312 38.992188 C 255.625 38.992188 256.695312 38.960938 257.453125 38.671875 C 258.65625 38.210938 258.765625 37.285156 258.765625 37 C 258.765625 36.300781 258.164062 35.664062 257.121094 35.664062 C 255.464844 35.664062 253.082031 37.175781 253.082031 40.011719 C 253.082031 41.683594 254.027344 42.847656 255.464844 42.847656 C 257.613281 42.847656 258.96875 41.15625 258.96875 40.949219 C 258.96875 40.855469 258.875 40.773438 258.8125 40.773438 C 258.765625 40.773438 258.75 40.792969 258.605469 40.933594 C 257.597656 42.289062 256.097656 42.527344 255.496094 42.527344 C 254.597656 42.527344 254.125 41.8125 254.125 40.632812 C 254.125 40.410156 254.125 40.011719 254.359375 38.992188 Z M 254.4375 38.671875 C 255.117188 36.21875 256.617188 35.980469 257.121094 35.980469 C 257.816406 35.980469 258.292969 36.394531 258.292969 37 C 258.292969 38.671875 255.765625 38.671875 255.101562 38.671875 Z M 254.4375 38.671875 " fill-opacity="1" fill-rule="nonzero"/><path fill="#a8180f" d="M 264.597656 44.710938 C 264.488281 45.1875 264.425781 45.316406 263.777344 45.316406 C 263.589844 45.316406 263.429688 45.316406 263.429688 45.617188 C 263.429688 45.648438 263.445312 45.777344 263.621094 45.777344 C 263.824219 45.777344 264.046875 45.746094 264.253906 45.746094 L 264.929688 45.746094 C 265.261719 45.746094 266.066406 45.777344 266.398438 45.777344 C 266.492188 45.777344 266.683594 45.777344 266.683594 45.488281 C 266.683594 45.316406 266.574219 45.316406 266.304688 45.316406 C 265.578125 45.316406 265.53125 45.203125 265.53125 45.074219 C 265.53125 44.882812 266.242188 42.144531 266.335938 41.777344 C 266.507812 42.226562 266.9375 42.847656 267.757812 42.847656 C 269.539062 42.847656 271.46875 40.503906 271.46875 38.164062 C 271.46875 36.699219 270.644531 35.664062 269.460938 35.664062 C 268.453125 35.664062 267.597656 36.648438 267.425781 36.871094 C 267.300781 36.078125 266.683594 35.664062 266.050781 35.664062 C 265.59375 35.664062 265.230469 35.886719 264.929688 36.492188 C 264.648438 37.0625 264.425781 38.035156 264.425781 38.097656 C 264.425781 38.164062 264.488281 38.242188 264.597656 38.242188 C 264.726562 38.242188 264.742188 38.226562 264.835938 37.859375 C 265.074219 36.921875 265.371094 35.980469 266.003906 35.980469 C 266.367188 35.980469 266.492188 36.234375 266.492188 36.714844 C 266.492188 37.097656 266.445312 37.253906 266.382812 37.542969 Z M 267.332031 37.71875 C 267.441406 37.269531 267.882812 36.808594 268.136719 36.585938 C 268.308594 36.425781 268.832031 35.980469 269.429688 35.980469 C 270.125 35.980469 270.441406 36.683594 270.441406 37.511719 C 270.441406 38.273438 270 40.074219 269.605469 40.902344 C 269.210938 41.761719 268.484375 42.527344 267.757812 42.527344 C 266.683594 42.527344 266.507812 41.15625 266.507812 41.09375 C 266.507812 41.046875 266.542969 40.917969 266.558594 40.839844 Z M 267.332031 37.71875 " fill-opacity="1" fill-rule="nonzero"/><path fill="#a8180f" d="M 278.878906 38.304688 C 278.878906 36.792969 277.898438 35.664062 276.460938 35.664062 C 274.378906 35.664062 272.324219 37.957031 272.324219 40.203125 C 272.324219 41.714844 273.304688 42.847656 274.742188 42.847656 C 276.839844 42.847656 278.878906 40.550781 278.878906 38.304688 Z M 274.757812 42.527344 C 273.96875 42.527344 273.382812 41.890625 273.382812 40.773438 C 273.382812 40.042969 273.761719 38.417969 274.203125 37.621094 C 274.914062 36.394531 275.800781 35.980469 276.445312 35.980469 C 277.21875 35.980469 277.820312 36.617188 277.820312 37.734375 C 277.820312 38.371094 277.488281 40.074219 276.890625 41.046875 C 276.242188 42.113281 275.375 42.527344 274.757812 42.527344 Z M 274.757812 42.527344 " fill-opacity="1" fill-rule="nonzero"/><path fill="#a8180f" d="M 283.121094 32.03125 C 283.136719 31.96875 283.167969 31.871094 283.167969 31.792969 C 283.167969 31.632812 283.007812 31.632812 282.976562 31.632812 C 282.960938 31.632812 282.394531 31.679688 282.109375 31.710938 C 281.839844 31.726562 281.605469 31.761719 281.320312 31.777344 C 280.941406 31.808594 280.832031 31.824219 280.832031 32.109375 C 280.832031 32.269531 280.988281 32.269531 281.144531 32.269531 C 281.953125 32.269531 281.953125 32.414062 281.953125 32.574219 C 281.953125 32.636719 281.953125 32.667969 281.871094 32.953125 L 279.914062 40.855469 C 279.867188 41.03125 279.835938 41.15625 279.835938 41.414062 C 279.835938 42.207031 280.421875 42.847656 281.226562 42.847656 C 281.746094 42.847656 282.09375 42.496094 282.347656 42 C 282.613281 41.476562 282.835938 40.472656 282.835938 40.410156 C 282.835938 40.328125 282.773438 40.265625 282.675781 40.265625 C 282.535156 40.265625 282.519531 40.34375 282.457031 40.585938 C 282.171875 41.683594 281.886719 42.527344 281.257812 42.527344 C 280.78125 42.527344 280.78125 42.019531 280.78125 41.792969 C 280.78125 41.730469 280.78125 41.398438 280.894531 40.949219 Z M 283.121094 32.03125 " fill-opacity="1" fill-rule="nonzero"/><path fill="#a8180f" d="M 288.8125 40.792969 C 288.734375 41.0625 288.734375 41.09375 288.515625 41.398438 C 288.167969 41.84375 287.472656 42.527344 286.730469 42.527344 C 286.082031 42.527344 285.71875 41.9375 285.71875 41 C 285.71875 40.121094 286.207031 38.339844 286.507812 37.667969 C 287.046875 36.554688 287.789062 35.980469 288.402344 35.980469 C 289.445312 35.980469 289.652344 37.285156 289.652344 37.414062 C 289.652344 37.429688 289.601562 37.636719 289.585938 37.667969 Z M 289.824219 36.714844 C 289.652344 36.300781 289.222656 35.664062 288.402344 35.664062 C 286.621094 35.664062 284.691406 37.988281 284.691406 40.34375 C 284.691406 41.921875 285.609375 42.847656 286.683594 42.847656 C 287.550781 42.847656 288.292969 42.160156 288.734375 41.636719 C 288.894531 42.574219 289.632812 42.847656 290.109375 42.847656 C 290.582031 42.847656 290.960938 42.558594 291.246094 41.984375 C 291.496094 41.445312 291.71875 40.472656 291.71875 40.410156 C 291.71875 40.328125 291.65625 40.265625 291.5625 40.265625 C 291.417969 40.265625 291.402344 40.34375 291.339844 40.585938 C 291.101562 41.523438 290.804688 42.527344 290.15625 42.527344 C 289.699219 42.527344 289.667969 42.113281 289.667969 41.792969 C 289.667969 41.429688 289.714844 41.253906 289.855469 40.632812 C 289.964844 40.234375 290.046875 39.882812 290.171875 39.421875 C 290.753906 37.03125 290.898438 36.457031 290.898438 36.363281 C 290.898438 36.140625 290.722656 35.964844 290.488281 35.964844 C 289.980469 35.964844 289.855469 36.523438 289.824219 36.714844 Z M 289.824219 36.714844 " fill-opacity="1" fill-rule="nonzero"/><path fill="#a8180f" d="M 306.089844 39.023438 C 306.359375 39.023438 306.640625 39.023438 306.640625 38.703125 C 306.640625 38.386719 306.359375 38.386719 306.089844 38.386719 L 297.546875 38.386719 C 297.28125 38.386719 296.996094 38.386719 296.996094 38.703125 C 296.996094 39.023438 297.28125 39.023438 297.546875 39.023438 Z M 306.089844 39.023438 " fill-opacity="1" fill-rule="nonzero"/><path fill="#a8180f" d="M 312.152344 44.710938 C 312.039062 45.1875 311.976562 45.316406 311.332031 45.316406 C 311.140625 45.316406 310.984375 45.316406 310.984375 45.617188 C 310.984375 45.648438 311 45.777344 311.171875 45.777344 C 311.378906 45.777344 311.597656 45.746094 311.804688 45.746094 L 312.484375 45.746094 C 312.8125 45.746094 313.621094 45.777344 313.949219 45.777344 C 314.046875 45.777344 314.234375 45.777344 314.234375 45.488281 C 314.234375 45.316406 314.125 45.316406 313.855469 45.316406 C 313.128906 45.316406 313.082031 45.203125 313.082031 45.074219 C 313.082031 44.882812 313.792969 42.144531 313.886719 41.777344 C 314.0625 42.226562 314.488281 42.847656 315.308594 42.847656 C 317.09375 42.847656 319.019531 40.503906 319.019531 38.164062 C 319.019531 36.699219 318.199219 35.664062 317.015625 35.664062 C 316.003906 35.664062 315.152344 36.648438 314.976562 36.871094 C 314.851562 36.078125 314.234375 35.664062 313.605469 35.664062 C 313.144531 35.664062 312.78125 35.886719 312.484375 36.492188 C 312.199219 37.0625 311.976562 38.035156 311.976562 38.097656 C 311.976562 38.164062 312.039062 38.242188 312.152344 38.242188 C 312.277344 38.242188 312.292969 38.226562 312.386719 37.859375 C 312.625 36.921875 312.925781 35.980469 313.554688 35.980469 C 313.917969 35.980469 314.046875 36.234375 314.046875 36.714844 C 314.046875 37.097656 314 37.253906 313.933594 37.542969 Z M 314.882812 37.71875 C 314.992188 37.269531 315.433594 36.808594 315.6875 36.585938 C 315.863281 36.425781 316.382812 35.980469 316.980469 35.980469 C 317.675781 35.980469 317.992188 36.683594 317.992188 37.511719 C 317.992188 38.273438 317.550781 40.074219 317.15625 40.902344 C 316.761719 41.761719 316.035156 42.527344 315.308594 42.527344 C 314.234375 42.527344 314.0625 41.15625 314.0625 41.09375 C 314.0625 41.046875 314.09375 40.917969 314.109375 40.839844 Z M 314.882812 37.71875 " fill-opacity="1" fill-rule="nonzero"/><path fill="#a8180f" d="M 326.429688 38.304688 C 326.429688 36.792969 325.449219 35.664062 324.015625 35.664062 C 321.929688 35.664062 319.878906 37.957031 319.878906 40.203125 C 319.878906 41.714844 320.855469 42.847656 322.292969 42.847656 C 324.394531 42.847656 326.429688 40.550781 326.429688 38.304688 Z M 322.308594 42.527344 C 321.519531 42.527344 320.9375 41.890625 320.9375 40.773438 C 320.9375 40.042969 321.316406 38.417969 321.757812 37.621094 C 322.46875 36.394531 323.351562 35.980469 324 35.980469 C 324.773438 35.980469 325.371094 36.617188 325.371094 37.734375 C 325.371094 38.371094 325.039062 40.074219 324.441406 41.046875 C 323.792969 42.113281 322.925781 42.527344 322.308594 42.527344 Z M 322.308594 42.527344 " fill-opacity="1" fill-rule="nonzero"/><path fill="#a8180f" d="M 330.671875 32.03125 C 330.6875 31.96875 330.71875 31.871094 330.71875 31.792969 C 330.71875 31.632812 330.5625 31.632812 330.53125 31.632812 C 330.515625 31.632812 329.945312 31.679688 329.664062 31.710938 C 329.394531 31.726562 329.15625 31.761719 328.875 31.777344 C 328.496094 31.808594 328.382812 31.824219 328.382812 32.109375 C 328.382812 32.269531 328.542969 32.269531 328.699219 32.269531 C 329.503906 32.269531 329.503906 32.414062 329.503906 32.574219 C 329.503906 32.636719 329.503906 32.667969 329.425781 32.953125 L 327.46875 40.855469 C 327.421875 41.03125 327.390625 41.15625 327.390625 41.414062 C 327.390625 42.207031 327.972656 42.847656 328.777344 42.847656 C 329.300781 42.847656 329.648438 42.496094 329.898438 42 C 330.167969 41.476562 330.390625 40.472656 330.390625 40.410156 C 330.390625 40.328125 330.324219 40.265625 330.230469 40.265625 C 330.089844 40.265625 330.074219 40.34375 330.011719 40.585938 C 329.726562 41.683594 329.441406 42.527344 328.808594 42.527344 C 328.335938 42.527344 328.335938 42.019531 328.335938 41.792969 C 328.335938 41.730469 328.335938 41.398438 328.445312 40.949219 Z M 330.671875 32.03125 " fill-opacity="1" fill-rule="nonzero"/><g clip-path="url(#ecc51d9127)"><path fill="#a8180f" d="M 336.367188 40.792969 C 336.285156 41.0625 336.285156 41.09375 336.066406 41.398438 C 335.71875 41.84375 335.023438 42.527344 334.28125 42.527344 C 333.632812 42.527344 333.269531 41.9375 333.269531 41 C 333.269531 40.121094 333.761719 38.339844 334.0625 37.667969 C 334.597656 36.554688 335.339844 35.980469 335.957031 35.980469 C 336.996094 35.980469 337.203125 37.285156 337.203125 37.414062 C 337.203125 37.429688 337.15625 37.636719 337.140625 37.667969 Z M 337.375 36.714844 C 337.203125 36.300781 336.777344 35.664062 335.957031 35.664062 C 334.171875 35.664062 332.246094 37.988281 332.246094 40.34375 C 332.246094 41.921875 333.160156 42.847656 334.234375 42.847656 C 335.101562 42.847656 335.84375 42.160156 336.285156 41.636719 C 336.445312 42.574219 337.1875 42.847656 337.660156 42.847656 C 338.132812 42.847656 338.511719 42.558594 338.796875 41.984375 C 339.050781 41.445312 339.269531 40.472656 339.269531 40.410156 C 339.269531 40.328125 339.207031 40.265625 339.113281 40.265625 C 338.96875 40.265625 338.953125 40.34375 338.890625 40.585938 C 338.65625 41.523438 338.355469 42.527344 337.707031 42.527344 C 337.25 42.527344 337.21875 42.113281 337.21875 41.792969 C 337.21875 41.429688 337.265625 41.253906 337.40625 40.632812 C 337.519531 40.234375 337.597656 39.882812 337.722656 39.421875 C 338.308594 37.03125 338.449219 36.457031 338.449219 36.363281 C 338.449219 36.140625 338.277344 35.964844 338.039062 35.964844 C 337.535156 35.964844 337.40625 36.523438 337.375 36.714844 Z M 337.375 36.714844 " fill-opacity="1" fill-rule="nonzero"/></g></svg>