<svg xmlns="http://www.w3.org/2000/svg" xmlns:xlink="http://www.w3.org/1999/xlink" width="500" zoomAndPan="magnify" viewBox="0 0 375 74.999997" height="100" preserveAspectRatio="xMidYMid meet" version="1.0"><defs><clipPath id="627049c23c"><path d="M 152.144531 33 L 167 33 L 167 53 L 152.144531 53 Z M 152.144531 33 " clip-rule="nonzero"/></clipPath><clipPath id="967e0c1ea4"><path d="M 211 7.5 L 221 7.5 L 221 28 L 211 28 Z M 211 7.5 " clip-rule="nonzero"/></clipPath><clipPath id="a1ab02042b"><path d="M 208 38 L 222.644531 38 L 222.644531 41 L 208 41 Z M 208 38 " clip-rule="nonzero"/></clipPath><clipPath id="3964bf233e"><path d="M 209 47 L 222 47 L 222 67.5 L 209 67.5 Z M 209 47 " clip-rule="nonzero"/></clipPath></defs><g clip-path="url(#627049c23c)"><path fill="#a8180f" d="M 154.289062 50.433594 C 154.085938 51.304688 153.96875 51.539062 152.777344 51.539062 C 152.429688 51.539062 152.140625 51.539062 152.140625 52.09375 C 152.140625 52.148438 152.167969 52.382812 152.488281 52.382812 C 152.867188 52.382812 153.273438 52.324219 153.648438 52.324219 L 154.898438 52.324219 C 155.507812 52.324219 156.988281 52.382812 157.597656 52.382812 C 157.769531 52.382812 158.121094 52.382812 158.121094 51.859375 C 158.121094 51.539062 157.914062 51.539062 157.421875 51.539062 C 156.085938 51.539062 156 51.335938 156 51.101562 C 156 50.753906 157.304688 45.746094 157.480469 45.078125 C 157.800781 45.890625 158.582031 47.027344 160.09375 47.027344 C 163.371094 47.027344 166.914062 42.746094 166.914062 38.46875 C 166.914062 35.789062 165.402344 33.898438 163.226562 33.898438 C 161.371094 33.898438 159.800781 35.703125 159.484375 36.109375 C 159.25 34.65625 158.121094 33.898438 156.957031 33.898438 C 156.117188 33.898438 155.449219 34.304688 154.898438 35.414062 C 154.375 36.460938 153.96875 38.234375 153.96875 38.351562 C 153.96875 38.46875 154.085938 38.613281 154.289062 38.613281 C 154.519531 38.613281 154.550781 38.585938 154.722656 37.914062 C 155.160156 36.199219 155.710938 34.480469 156.871094 34.480469 C 157.539062 34.480469 157.769531 34.945312 157.769531 35.820312 C 157.769531 36.519531 157.683594 36.808594 157.566406 37.332031 Z M 159.308594 37.652344 C 159.511719 36.839844 160.324219 35.996094 160.789062 35.585938 C 161.109375 35.296875 162.066406 34.480469 163.167969 34.480469 C 164.445312 34.480469 165.027344 35.761719 165.027344 37.273438 C 165.027344 38.671875 164.214844 41.960938 163.488281 43.476562 C 162.761719 45.046875 161.429688 46.445312 160.09375 46.445312 C 158.121094 46.445312 157.800781 43.941406 157.800781 43.824219 C 157.800781 43.738281 157.859375 43.503906 157.886719 43.359375 Z M 159.308594 37.652344 " fill-opacity="1" fill-rule="nonzero"/></g><path fill="#a8180f" d="M 194.953125 37.304688 C 195.359375 37.304688 195.882812 37.304688 195.882812 36.78125 C 195.882812 36.226562 195.390625 36.226562 194.953125 36.226562 L 177.859375 36.226562 C 177.453125 36.226562 176.933594 36.226562 176.933594 36.75 C 176.933594 37.304688 177.425781 37.304688 177.859375 37.304688 Z M 194.953125 42.71875 C 195.359375 42.71875 195.882812 42.71875 195.882812 42.195312 C 195.882812 41.640625 195.390625 41.640625 194.953125 41.640625 L 177.859375 41.640625 C 177.453125 41.640625 176.933594 41.640625 176.933594 42.164062 C 176.933594 42.71875 177.425781 42.71875 177.859375 42.71875 Z M 194.953125 42.71875 " fill-opacity="1" fill-rule="nonzero"/><g clip-path="url(#967e0c1ea4)"><path fill="#a8180f" d="M 216.789062 8.386719 C 216.789062 7.714844 216.789062 7.6875 216.210938 7.6875 C 215.511719 8.472656 214.0625 9.550781 211.074219 9.550781 L 211.074219 10.394531 C 211.738281 10.394531 213.191406 10.394531 214.789062 9.636719 L 214.789062 24.804688 C 214.789062 25.851562 214.699219 26.199219 212.144531 26.199219 L 211.246094 26.199219 L 211.246094 27.042969 C 212.03125 26.988281 214.84375 26.988281 215.804688 26.988281 C 216.761719 26.988281 219.546875 26.988281 220.332031 27.042969 L 220.332031 26.199219 L 219.429688 26.199219 C 216.875 26.199219 216.789062 25.851562 216.789062 24.804688 Z M 216.789062 8.386719 " fill-opacity="1" fill-rule="nonzero"/></g><g clip-path="url(#a1ab02042b)"><path fill="#a8180f" d="M 208.429688 38.878906 L 222.640625 38.878906 L 222.640625 40.042969 L 208.429688 40.042969 Z M 208.429688 38.878906 " fill-opacity="1" fill-rule="nonzero"/></g><g clip-path="url(#3964bf233e)"><path fill="#a8180f" d="M 213.773438 56.253906 C 213.277344 56.28125 213.160156 56.3125 213.160156 56.574219 C 213.160156 56.867188 213.308594 56.867188 213.828125 56.867188 L 215.164062 56.867188 C 217.632812 56.867188 218.734375 58.902344 218.734375 61.699219 C 218.734375 65.511719 216.761719 66.53125 215.339844 66.53125 C 213.945312 66.53125 211.566406 65.859375 210.722656 63.9375 C 211.652344 64.085938 212.496094 63.558594 212.496094 62.511719 C 212.496094 61.667969 211.886719 61.085938 211.074219 61.085938 C 210.375 61.085938 209.621094 61.492188 209.621094 62.601562 C 209.621094 65.191406 212.203125 67.316406 215.425781 67.316406 C 218.878906 67.316406 221.433594 64.667969 221.433594 61.726562 C 221.433594 59.046875 219.285156 56.953125 216.5 56.457031 C 219.023438 55.730469 220.648438 53.605469 220.648438 51.335938 C 220.648438 49.035156 218.269531 47.347656 215.453125 47.347656 C 212.550781 47.347656 210.40625 49.121094 210.40625 51.246094 C 210.40625 52.410156 211.304688 52.644531 211.738281 52.644531 C 212.347656 52.644531 213.046875 52.207031 213.046875 51.335938 C 213.046875 50.402344 212.347656 49.996094 211.710938 49.996094 C 211.535156 49.996094 211.480469 49.996094 211.390625 50.023438 C 212.496094 48.046875 215.222656 48.046875 215.367188 48.046875 C 216.324219 48.046875 218.210938 48.480469 218.210938 51.335938 C 218.210938 51.886719 218.125 53.519531 217.285156 54.769531 C 216.414062 56.050781 215.425781 56.136719 214.640625 56.167969 Z M 213.773438 56.253906 " fill-opacity="1" fill-rule="nonzero"/></g></svg>