<svg xmlns="http://www.w3.org/2000/svg" xmlns:xlink="http://www.w3.org/1999/xlink" width="500" zoomAndPan="magnify" viewBox="0 0 375 74.999997" height="100" preserveAspectRatio="xMidYMid meet" version="1.0"><defs><clipPath id="72c255934b"><path d="M 145.714844 33 L 161 33 L 161 53 L 145.714844 53 Z M 145.714844 33 " clip-rule="nonzero"/></clipPath><clipPath id="bf80ebe3b1"><path d="M 201 38 L 228.964844 38 L 228.964844 40 L 201 40 Z M 201 38 " clip-rule="nonzero"/></clipPath></defs><g clip-path="url(#72c255934b)"><path fill="#a8180f" d="M 147.824219 50.21875 C 147.621094 51.078125 147.507812 51.308594 146.339844 51.308594 C 145.996094 51.308594 145.710938 51.308594 145.710938 51.851562 C 145.710938 51.910156 145.742188 52.136719 146.054688 52.136719 C 146.425781 52.136719 146.824219 52.082031 147.195312 52.082031 L 148.421875 52.082031 C 149.019531 52.082031 150.476562 52.136719 151.074219 52.136719 C 151.246094 52.136719 151.585938 52.136719 151.585938 51.625 C 151.585938 51.308594 151.386719 51.308594 150.902344 51.308594 C 149.589844 51.308594 149.503906 51.109375 149.503906 50.878906 C 149.503906 50.535156 150.789062 45.609375 150.960938 44.953125 C 151.273438 45.753906 152.042969 46.871094 153.527344 46.871094 C 156.75 46.871094 160.230469 42.660156 160.230469 38.453125 C 160.230469 35.820312 158.746094 33.957031 156.609375 33.957031 C 154.78125 33.957031 153.242188 35.734375 152.929688 36.132812 C 152.699219 34.703125 151.585938 33.957031 150.445312 33.957031 C 149.621094 33.957031 148.964844 34.359375 148.421875 35.445312 C 147.910156 36.476562 147.507812 38.222656 147.507812 38.339844 C 147.507812 38.453125 147.621094 38.597656 147.824219 38.597656 C 148.050781 38.597656 148.078125 38.566406 148.25 37.910156 C 148.679688 36.21875 149.21875 34.53125 150.359375 34.53125 C 151.015625 34.53125 151.246094 34.988281 151.246094 35.847656 C 151.246094 36.535156 151.160156 36.820312 151.046875 37.335938 Z M 152.757812 37.652344 C 152.957031 36.847656 153.753906 36.019531 154.210938 35.617188 C 154.527344 35.332031 155.464844 34.53125 156.550781 34.53125 C 157.804688 34.53125 158.375 35.789062 158.375 37.277344 C 158.375 38.652344 157.578125 41.886719 156.863281 43.378906 C 156.152344 44.921875 154.839844 46.296875 153.527344 46.296875 C 151.585938 46.296875 151.273438 43.835938 151.273438 43.722656 C 151.273438 43.636719 151.332031 43.40625 151.359375 43.261719 Z M 152.757812 37.652344 " fill-opacity="1" fill-rule="nonzero"/></g><path fill="#a8180f" d="M 187.789062 37.308594 C 188.1875 37.308594 188.703125 37.308594 188.703125 36.792969 C 188.703125 36.25 188.214844 36.25 187.789062 36.25 L 170.988281 36.25 C 170.589844 36.25 170.078125 36.25 170.078125 36.761719 C 170.078125 37.308594 170.5625 37.308594 170.988281 37.308594 Z M 187.789062 42.632812 C 188.1875 42.632812 188.703125 42.632812 188.703125 42.117188 C 188.703125 41.574219 188.214844 41.574219 187.789062 41.574219 L 170.988281 41.574219 C 170.589844 41.574219 170.078125 41.574219 170.078125 42.089844 C 170.078125 42.632812 170.5625 42.632812 170.988281 42.632812 Z M 187.789062 42.632812 " fill-opacity="1" fill-rule="nonzero"/><path fill="#a8180f" d="M 206.28125 16.9375 C 205.796875 16.964844 205.683594 16.996094 205.683594 17.253906 C 205.683594 17.539062 205.824219 17.539062 206.339844 17.539062 L 207.652344 17.539062 C 210.074219 17.539062 211.160156 19.542969 211.160156 22.292969 C 211.160156 26.042969 209.21875 27.042969 207.820312 27.042969 C 206.453125 27.042969 204.113281 26.386719 203.285156 24.496094 C 204.199219 24.640625 205.027344 24.125 205.027344 23.09375 C 205.027344 22.261719 204.425781 21.691406 203.628906 21.691406 C 202.945312 21.691406 202.203125 22.089844 202.203125 23.179688 C 202.203125 25.726562 204.742188 27.816406 207.90625 27.816406 C 211.300781 27.816406 213.8125 25.210938 213.8125 22.320312 C 213.8125 19.6875 211.699219 17.625 208.960938 17.136719 C 211.445312 16.421875 213.042969 14.332031 213.042969 12.097656 C 213.042969 9.835938 210.703125 8.175781 207.9375 8.175781 C 205.082031 8.175781 202.972656 9.921875 202.972656 12.011719 C 202.972656 13.160156 203.855469 13.386719 204.285156 13.386719 C 204.882812 13.386719 205.566406 12.957031 205.566406 12.097656 C 205.566406 11.183594 204.882812 10.78125 204.257812 10.78125 C 204.085938 10.78125 204.027344 10.78125 203.941406 10.8125 C 205.027344 8.863281 207.707031 8.863281 207.851562 8.863281 C 208.792969 8.863281 210.644531 9.292969 210.644531 12.097656 C 210.644531 12.644531 210.558594 14.246094 209.734375 15.476562 C 208.878906 16.738281 207.90625 16.824219 207.136719 16.851562 Z M 206.28125 16.9375 " fill-opacity="1" fill-rule="nonzero"/><path fill="#a8180f" d="M 223.210938 8.863281 C 223.210938 8.207031 223.210938 8.175781 222.640625 8.175781 C 221.957031 8.949219 220.53125 10.007812 217.59375 10.007812 L 217.59375 10.839844 C 218.25 10.839844 219.675781 10.839844 221.242188 10.09375 L 221.242188 25.011719 C 221.242188 26.042969 221.160156 26.386719 218.648438 26.386719 L 217.765625 26.386719 L 217.765625 27.214844 C 218.535156 27.160156 221.300781 27.160156 222.242188 27.160156 C 223.183594 27.160156 225.921875 27.160156 226.691406 27.214844 L 226.691406 26.386719 L 225.808594 26.386719 C 223.296875 26.386719 223.210938 26.042969 223.210938 25.011719 Z M 223.210938 8.863281 " fill-opacity="1" fill-rule="nonzero"/><g clip-path="url(#bf80ebe3b1)"><path fill="#a8180f" d="M 201.03125 38.855469 L 228.960938 38.855469 L 228.960938 40 L 201.03125 40 Z M 201.03125 38.855469 " fill-opacity="1" fill-rule="nonzero"/></g><path fill="#a8180f" d="M 204.542969 56.261719 C 204.542969 49.015625 208.050781 47.871094 209.589844 47.871094 C 210.617188 47.871094 211.644531 48.1875 212.1875 49.046875 C 211.84375 49.046875 210.757812 49.046875 210.757812 50.21875 C 210.757812 50.847656 211.1875 51.394531 211.929688 51.394531 C 212.640625 51.394531 213.125 50.964844 213.125 50.132812 C 213.125 48.644531 212.042969 47.183594 209.5625 47.183594 C 205.96875 47.183594 202.203125 50.878906 202.203125 57.175781 C 202.203125 65.050781 205.625 66.824219 208.050781 66.824219 C 211.160156 66.824219 213.8125 64.105469 213.8125 60.382812 C 213.8125 56.574219 211.160156 54.027344 208.304688 54.027344 C 205.769531 54.027344 204.828125 56.230469 204.542969 57.035156 Z M 208.050781 66.050781 C 206.253906 66.050781 205.398438 64.449219 205.140625 63.847656 C 204.882812 63.105469 204.597656 61.699219 204.597656 59.695312 C 204.597656 57.433594 205.625 54.601562 208.191406 54.601562 C 209.761719 54.601562 210.589844 55.660156 211.015625 56.632812 C 211.472656 57.691406 211.472656 59.125 211.472656 60.355469 C 211.472656 61.816406 211.472656 63.105469 210.929688 64.191406 C 210.21875 65.566406 209.191406 66.050781 208.050781 66.050781 Z M 208.050781 66.050781 " fill-opacity="1" fill-rule="nonzero"/><path fill="#a8180f" d="M 223.496094 55.886719 C 224.921875 55.117188 227.003906 53.796875 227.003906 51.394531 C 227.003906 48.902344 224.609375 47.183594 221.984375 47.183594 C 219.160156 47.183594 216.9375 49.273438 216.9375 51.878906 C 216.9375 52.855469 217.222656 53.828125 218.019531 54.800781 C 218.335938 55.171875 218.363281 55.203125 220.359375 56.605469 C 217.59375 57.894531 216.167969 59.8125 216.167969 61.902344 C 216.167969 64.9375 219.046875 66.824219 221.957031 66.824219 C 225.121094 66.824219 227.777344 64.476562 227.777344 61.472656 C 227.777344 58.550781 225.722656 57.261719 223.496094 55.886719 Z M 219.617188 53.3125 C 219.246094 53.054688 218.105469 52.308594 218.105469 50.90625 C 218.105469 49.046875 220.046875 47.871094 221.957031 47.871094 C 224.011719 47.871094 225.835938 49.359375 225.835938 51.421875 C 225.835938 53.167969 224.582031 54.570312 222.925781 55.488281 Z M 220.957031 57.003906 L 224.410156 59.265625 C 225.152344 59.753906 226.464844 60.640625 226.464844 62.386719 C 226.464844 64.5625 224.265625 66.050781 221.984375 66.050781 C 219.5625 66.050781 217.480469 64.277344 217.480469 61.902344 C 217.480469 59.667969 219.105469 57.863281 220.957031 57.003906 Z M 220.957031 57.003906 " fill-opacity="1" fill-rule="nonzero"/></svg>