<svg xmlns="http://www.w3.org/2000/svg" xmlns:xlink="http://www.w3.org/1999/xlink" width="500" zoomAndPan="magnify" viewBox="0 0 375 74.999997" height="100" preserveAspectRatio="xMidYMid meet" version="1.0"><defs><g/></defs><g fill="#17191a" fill-opacity="1"><g transform="translate(0.0000075, 16.200005)"><g><path d="M 9.453125 0 L 1.0625 0 L 1.0625 -1.171875 L 5.5 -6.09375 C 6.15625 -6.832031 6.601562 -7.4375 6.84375 -7.90625 C 7.09375 -8.375 7.21875 -8.859375 7.21875 -9.359375 C 7.21875 -10.023438 7.015625 -10.570312 6.609375 -11 C 6.210938 -11.425781 5.675781 -11.640625 5 -11.640625 C 4.1875 -11.640625 3.554688 -11.40625 3.109375 -10.9375 C 2.660156 -10.476562 2.4375 -9.84375 2.4375 -9.03125 L 0.8125 -9.03125 C 0.8125 -10.207031 1.191406 -11.15625 1.953125 -11.875 C 2.710938 -12.601562 3.726562 -12.96875 5 -12.96875 C 6.1875 -12.96875 7.125 -12.65625 7.8125 -12.03125 C 8.507812 -11.40625 8.859375 -10.578125 8.859375 -9.546875 C 8.859375 -8.285156 8.054688 -6.785156 6.453125 -5.046875 L 3.03125 -1.328125 L 9.453125 -1.328125 Z M 9.453125 0 "/></g></g></g><g fill="#17191a" fill-opacity="1"><g transform="translate(10.100848, 16.200005)"><g><path d="M 4.984375 -5.109375 C 4.984375 -3.796875 4.8125 -2.539062 4.46875 -1.34375 C 4.125 -0.144531 3.597656 0.957031 2.890625 1.96875 C 2.191406 2.976562 1.453125 3.695312 0.671875 4.125 L 0.328125 3.140625 C 1.234375 2.441406 1.957031 1.367188 2.5 -0.078125 C 3.050781 -1.535156 3.332031 -3.15625 3.34375 -4.9375 L 3.34375 -5.21875 C 3.34375 -6.445312 3.210938 -7.585938 2.953125 -8.640625 C 2.703125 -9.703125 2.347656 -10.648438 1.890625 -11.484375 C 1.429688 -12.328125 0.910156 -12.984375 0.328125 -13.453125 L 0.671875 -14.4375 C 1.453125 -14.007812 2.191406 -13.296875 2.890625 -12.296875 C 3.585938 -11.296875 4.109375 -10.191406 4.453125 -8.984375 C 4.804688 -7.773438 4.984375 -6.484375 4.984375 -5.109375 Z M 4.984375 -5.109375 "/></g></g></g><g fill="#17191a" fill-opacity="1"><g transform="translate(16.354586, 16.200005)"><g/></g></g><g fill="#17191a" fill-opacity="1"><g transform="translate(20.807745, 16.200005)"><g><path d="M 6.171875 -5.171875 L 3.171875 -5.171875 L 3.171875 0 L 1.484375 0 L 1.484375 -12.796875 L 5.71875 -12.796875 C 7.15625 -12.796875 8.257812 -12.46875 9.03125 -11.8125 C 9.8125 -11.15625 10.203125 -10.203125 10.203125 -8.953125 C 10.203125 -8.148438 9.984375 -7.453125 9.546875 -6.859375 C 9.117188 -6.273438 8.523438 -5.832031 7.765625 -5.53125 L 10.765625 -0.109375 L 10.765625 0 L 8.953125 0 Z M 3.171875 -6.5625 L 5.765625 -6.5625 C 6.597656 -6.5625 7.265625 -6.773438 7.765625 -7.203125 C 8.265625 -7.640625 8.515625 -8.222656 8.515625 -8.953125 C 8.515625 -9.742188 8.273438 -10.347656 7.796875 -10.765625 C 7.328125 -11.191406 6.644531 -11.40625 5.75 -11.40625 L 3.171875 -11.40625 Z M 3.171875 -6.5625 "/></g></g></g><g fill="#17191a" fill-opacity="1"><g transform="translate(31.883542, 16.200005)"><g><path d="M 2.90625 -9.515625 L 2.90625 1.09375 C 2.90625 2.925781 2.078125 3.84375 0.421875 3.84375 C 0.0664062 3.84375 -0.265625 3.789062 -0.578125 3.6875 L -0.578125 2.375 C -0.390625 2.425781 -0.140625 2.453125 0.171875 2.453125 C 0.535156 2.453125 0.8125 2.351562 1 2.15625 C 1.1875 1.957031 1.28125 1.617188 1.28125 1.140625 L 1.28125 -9.515625 Z M 1.109375 -12.03125 C 1.109375 -12.289062 1.1875 -12.507812 1.34375 -12.6875 C 1.507812 -12.875 1.75 -12.96875 2.0625 -12.96875 C 2.382812 -12.96875 2.625 -12.875 2.78125 -12.6875 C 2.945312 -12.507812 3.03125 -12.289062 3.03125 -12.03125 C 3.03125 -11.769531 2.945312 -11.550781 2.78125 -11.375 C 2.625 -11.195312 2.382812 -11.109375 2.0625 -11.109375 C 1.75 -11.109375 1.507812 -11.195312 1.34375 -11.375 C 1.1875 -11.550781 1.109375 -11.769531 1.109375 -12.03125 Z M 1.109375 -12.03125 "/></g></g></g><g fill="#17191a" fill-opacity="1"><g transform="translate(36.178601, 16.200005)"><g><path d="M 5.171875 0.171875 C 3.890625 0.171875 2.84375 -0.25 2.03125 -1.09375 C 1.21875 -1.9375 0.8125 -3.066406 0.8125 -4.484375 L 0.8125 -4.796875 C 0.8125 -5.734375 0.992188 -6.570312 1.359375 -7.3125 C 1.722656 -8.050781 2.226562 -8.628906 2.875 -9.046875 C 3.519531 -9.472656 4.21875 -9.6875 4.96875 -9.6875 C 6.207031 -9.6875 7.171875 -9.28125 7.859375 -8.46875 C 8.546875 -7.65625 8.890625 -6.488281 8.890625 -4.96875 L 8.890625 -4.296875 L 2.4375 -4.296875 C 2.46875 -3.359375 2.742188 -2.597656 3.265625 -2.015625 C 3.785156 -1.441406 4.453125 -1.15625 5.265625 -1.15625 C 5.835938 -1.15625 6.320312 -1.269531 6.71875 -1.5 C 7.125 -1.738281 7.472656 -2.050781 7.765625 -2.4375 L 8.765625 -1.65625 C 7.960938 -0.4375 6.765625 0.171875 5.171875 0.171875 Z M 4.96875 -8.34375 C 4.3125 -8.34375 3.757812 -8.101562 3.3125 -7.625 C 2.875 -7.15625 2.601562 -6.488281 2.5 -5.625 L 7.265625 -5.625 L 7.265625 -5.75 C 7.210938 -6.570312 6.988281 -7.207031 6.59375 -7.65625 C 6.195312 -8.113281 5.65625 -8.34375 4.96875 -8.34375 Z M 4.96875 -8.34375 "/></g></g></g><g fill="#17191a" fill-opacity="1"><g transform="translate(45.70853, 16.200005)"><g><path d="M 6.765625 -2.515625 C 6.765625 -2.960938 6.597656 -3.304688 6.265625 -3.546875 C 5.941406 -3.785156 5.367188 -3.992188 4.546875 -4.171875 C 3.722656 -4.347656 3.066406 -4.554688 2.578125 -4.796875 C 2.097656 -5.046875 1.738281 -5.34375 1.5 -5.6875 C 1.269531 -6.03125 1.15625 -6.4375 1.15625 -6.90625 C 1.15625 -7.675781 1.484375 -8.332031 2.140625 -8.875 C 2.804688 -9.414062 3.648438 -9.6875 4.671875 -9.6875 C 5.753906 -9.6875 6.628906 -9.40625 7.296875 -8.84375 C 7.972656 -8.289062 8.3125 -7.582031 8.3125 -6.71875 L 6.671875 -6.71875 C 6.671875 -7.164062 6.476562 -7.546875 6.09375 -7.859375 C 5.71875 -8.179688 5.242188 -8.34375 4.671875 -8.34375 C 4.078125 -8.34375 3.613281 -8.210938 3.28125 -7.953125 C 2.945312 -7.703125 2.78125 -7.367188 2.78125 -6.953125 C 2.78125 -6.554688 2.9375 -6.257812 3.25 -6.0625 C 3.5625 -5.863281 4.125 -5.671875 4.9375 -5.484375 C 5.75 -5.304688 6.40625 -5.09375 6.90625 -4.84375 C 7.414062 -4.59375 7.789062 -4.289062 8.03125 -3.9375 C 8.269531 -3.582031 8.390625 -3.148438 8.390625 -2.640625 C 8.390625 -1.785156 8.050781 -1.101562 7.375 -0.59375 C 6.695312 -0.0820312 5.816406 0.171875 4.734375 0.171875 C 3.972656 0.171875 3.296875 0.0351562 2.703125 -0.234375 C 2.117188 -0.503906 1.660156 -0.878906 1.328125 -1.359375 C 0.992188 -1.835938 0.828125 -2.359375 0.828125 -2.921875 L 2.46875 -2.921875 C 2.488281 -2.378906 2.703125 -1.945312 3.109375 -1.625 C 3.523438 -1.3125 4.066406 -1.15625 4.734375 -1.15625 C 5.347656 -1.15625 5.835938 -1.28125 6.203125 -1.53125 C 6.578125 -1.78125 6.765625 -2.109375 6.765625 -2.515625 Z M 4.9375 -12.015625 L 6.25 -13.5 L 7.65625 -13.5 L 7.65625 -13.421875 L 5.421875 -11.015625 L 4.4375 -11.015625 L 2.21875 -13.421875 L 2.21875 -13.5 L 3.609375 -13.5 Z M 4.9375 -12.015625 "/></g></g></g><g fill="#17191a" fill-opacity="1"><g transform="translate(54.983737, 16.200005)"><g><path d="M 5.171875 0.171875 C 3.890625 0.171875 2.84375 -0.25 2.03125 -1.09375 C 1.21875 -1.9375 0.8125 -3.066406 0.8125 -4.484375 L 0.8125 -4.796875 C 0.8125 -5.734375 0.992188 -6.570312 1.359375 -7.3125 C 1.722656 -8.050781 2.226562 -8.628906 2.875 -9.046875 C 3.519531 -9.472656 4.21875 -9.6875 4.96875 -9.6875 C 6.207031 -9.6875 7.171875 -9.28125 7.859375 -8.46875 C 8.546875 -7.65625 8.890625 -6.488281 8.890625 -4.96875 L 8.890625 -4.296875 L 2.4375 -4.296875 C 2.46875 -3.359375 2.742188 -2.597656 3.265625 -2.015625 C 3.785156 -1.441406 4.453125 -1.15625 5.265625 -1.15625 C 5.835938 -1.15625 6.320312 -1.269531 6.71875 -1.5 C 7.125 -1.738281 7.472656 -2.050781 7.765625 -2.4375 L 8.765625 -1.65625 C 7.960938 -0.4375 6.765625 0.171875 5.171875 0.171875 Z M 4.96875 -8.34375 C 4.3125 -8.34375 3.757812 -8.101562 3.3125 -7.625 C 2.875 -7.15625 2.601562 -6.488281 2.5 -5.625 L 7.265625 -5.625 L 7.265625 -5.75 C 7.210938 -6.570312 6.988281 -7.207031 6.59375 -7.65625 C 6.195312 -8.113281 5.65625 -8.34375 4.96875 -8.34375 Z M 4.96875 -8.34375 "/></g></g></g><g fill="#17191a" fill-opacity="1"><g transform="translate(64.513667, 16.200005)"><g><path d="M 2.765625 -9.515625 L 2.828125 -8.3125 C 3.546875 -9.226562 4.492188 -9.6875 5.671875 -9.6875 C 7.679688 -9.6875 8.691406 -8.550781 8.703125 -6.28125 L 8.703125 0 L 7.078125 0 L 7.078125 -6.296875 C 7.078125 -6.984375 6.921875 -7.488281 6.609375 -7.8125 C 6.304688 -8.144531 5.828125 -8.3125 5.171875 -8.3125 C 4.648438 -8.3125 4.1875 -8.171875 3.78125 -7.890625 C 3.382812 -7.609375 3.078125 -7.238281 2.859375 -6.78125 L 2.859375 0 L 1.234375 0 L 1.234375 -9.515625 Z M 2.765625 -9.515625 "/></g></g></g><g fill="#17191a" fill-opacity="1"><g transform="translate(74.43884, 16.200005)"><g><path d="M 2.90625 -9.515625 L 2.90625 1.09375 C 2.90625 2.925781 2.078125 3.84375 0.421875 3.84375 C 0.0664062 3.84375 -0.265625 3.789062 -0.578125 3.6875 L -0.578125 2.375 C -0.390625 2.425781 -0.140625 2.453125 0.171875 2.453125 C 0.535156 2.453125 0.8125 2.351562 1 2.15625 C 1.1875 1.957031 1.28125 1.617188 1.28125 1.140625 L 1.28125 -9.515625 Z M 1.109375 -12.03125 C 1.109375 -12.289062 1.1875 -12.507812 1.34375 -12.6875 C 1.507812 -12.875 1.75 -12.96875 2.0625 -12.96875 C 2.382812 -12.96875 2.625 -12.875 2.78125 -12.6875 C 2.945312 -12.507812 3.03125 -12.289062 3.03125 -12.03125 C 3.03125 -11.769531 2.945312 -11.550781 2.78125 -11.375 C 2.625 -11.195312 2.382812 -11.109375 2.0625 -11.109375 C 1.75 -11.109375 1.507812 -11.195312 1.34375 -11.375 C 1.1875 -11.550781 1.109375 -11.769531 1.109375 -12.03125 Z M 1.109375 -12.03125 "/></g></g></g><g fill="#17191a" fill-opacity="1"><g transform="translate(78.733899, 16.200005)"><g><path d="M 5.171875 0.171875 C 3.890625 0.171875 2.84375 -0.25 2.03125 -1.09375 C 1.21875 -1.9375 0.8125 -3.066406 0.8125 -4.484375 L 0.8125 -4.796875 C 0.8125 -5.734375 0.992188 -6.570312 1.359375 -7.3125 C 1.722656 -8.050781 2.226562 -8.628906 2.875 -9.046875 C 3.519531 -9.472656 4.21875 -9.6875 4.96875 -9.6875 C 6.207031 -9.6875 7.171875 -9.28125 7.859375 -8.46875 C 8.546875 -7.65625 8.890625 -6.488281 8.890625 -4.96875 L 8.890625 -4.296875 L 2.4375 -4.296875 C 2.46875 -3.359375 2.742188 -2.597656 3.265625 -2.015625 C 3.785156 -1.441406 4.453125 -1.15625 5.265625 -1.15625 C 5.835938 -1.15625 6.320312 -1.269531 6.71875 -1.5 C 7.125 -1.738281 7.472656 -2.050781 7.765625 -2.4375 L 8.765625 -1.65625 C 7.960938 -0.4375 6.765625 0.171875 5.171875 0.171875 Z M 4.96875 -8.34375 C 4.3125 -8.34375 3.757812 -8.101562 3.3125 -7.625 C 2.875 -7.15625 2.601562 -6.488281 2.5 -5.625 L 7.265625 -5.625 L 7.265625 -5.75 C 7.210938 -6.570312 6.988281 -7.207031 6.59375 -7.65625 C 6.195312 -8.113281 5.65625 -8.34375 4.96875 -8.34375 Z M 4.96875 -8.34375 "/></g></g></g><g fill="#17191a" fill-opacity="1"><g transform="translate(88.263829, 16.200005)"><g/></g></g><g fill="#17191a" fill-opacity="1"><g transform="translate(92.716988, 16.200005)"><g><path d="M 6.765625 -2.515625 C 6.765625 -2.960938 6.597656 -3.304688 6.265625 -3.546875 C 5.941406 -3.785156 5.367188 -3.992188 4.546875 -4.171875 C 3.722656 -4.347656 3.066406 -4.554688 2.578125 -4.796875 C 2.097656 -5.046875 1.738281 -5.34375 1.5 -5.6875 C 1.269531 -6.03125 1.15625 -6.4375 1.15625 -6.90625 C 1.15625 -7.675781 1.484375 -8.332031 2.140625 -8.875 C 2.804688 -9.414062 3.648438 -9.6875 4.671875 -9.6875 C 5.753906 -9.6875 6.628906 -9.40625 7.296875 -8.84375 C 7.972656 -8.289062 8.3125 -7.582031 8.3125 -6.71875 L 6.671875 -6.71875 C 6.671875 -7.164062 6.476562 -7.546875 6.09375 -7.859375 C 5.71875 -8.179688 5.242188 -8.34375 4.671875 -8.34375 C 4.078125 -8.34375 3.613281 -8.210938 3.28125 -7.953125 C 2.945312 -7.703125 2.78125 -7.367188 2.78125 -6.953125 C 2.78125 -6.554688 2.9375 -6.257812 3.25 -6.0625 C 3.5625 -5.863281 4.125 -5.671875 4.9375 -5.484375 C 5.75 -5.304688 6.40625 -5.09375 6.90625 -4.84375 C 7.414062 -4.59375 7.789062 -4.289062 8.03125 -3.9375 C 8.269531 -3.582031 8.390625 -3.148438 8.390625 -2.640625 C 8.390625 -1.785156 8.050781 -1.101562 7.375 -0.59375 C 6.695312 -0.0820312 5.816406 0.171875 4.734375 0.171875 C 3.972656 0.171875 3.296875 0.0351562 2.703125 -0.234375 C 2.117188 -0.503906 1.660156 -0.878906 1.328125 -1.359375 C 0.992188 -1.835938 0.828125 -2.359375 0.828125 -2.921875 L 2.46875 -2.921875 C 2.488281 -2.378906 2.703125 -1.945312 3.109375 -1.625 C 3.523438 -1.3125 4.066406 -1.15625 4.734375 -1.15625 C 5.347656 -1.15625 5.835938 -1.28125 6.203125 -1.53125 C 6.578125 -1.78125 6.765625 -2.109375 6.765625 -2.515625 Z M 6.765625 -2.515625 "/></g></g></g><g fill="#17191a" fill-opacity="1"><g transform="translate(101.992194, 16.200005)"><g><path d="M 7.109375 -0.9375 C 6.472656 -0.195312 5.539062 0.171875 4.3125 0.171875 C 3.300781 0.171875 2.53125 -0.117188 2 -0.703125 C 1.46875 -1.296875 1.203125 -2.171875 1.203125 -3.328125 L 1.203125 -9.515625 L 2.828125 -9.515625 L 2.828125 -3.359375 C 2.828125 -1.921875 3.410156 -1.203125 4.578125 -1.203125 C 5.816406 -1.203125 6.644531 -1.664062 7.0625 -2.59375 L 7.0625 -9.515625 L 8.6875 -9.515625 L 8.6875 0 L 7.140625 0 Z M 7.109375 -0.9375 "/></g></g></g><g fill="#17191a" fill-opacity="1"><g transform="translate(111.908591, 16.200005)"><g><path d="M 6.765625 -2.515625 C 6.765625 -2.960938 6.597656 -3.304688 6.265625 -3.546875 C 5.941406 -3.785156 5.367188 -3.992188 4.546875 -4.171875 C 3.722656 -4.347656 3.066406 -4.554688 2.578125 -4.796875 C 2.097656 -5.046875 1.738281 -5.34375 1.5 -5.6875 C 1.269531 -6.03125 1.15625 -6.4375 1.15625 -6.90625 C 1.15625 -7.675781 1.484375 -8.332031 2.140625 -8.875 C 2.804688 -9.414062 3.648438 -9.6875 4.671875 -9.6875 C 5.753906 -9.6875 6.628906 -9.40625 7.296875 -8.84375 C 7.972656 -8.289062 8.3125 -7.582031 8.3125 -6.71875 L 6.671875 -6.71875 C 6.671875 -7.164062 6.476562 -7.546875 6.09375 -7.859375 C 5.71875 -8.179688 5.242188 -8.34375 4.671875 -8.34375 C 4.078125 -8.34375 3.613281 -8.210938 3.28125 -7.953125 C 2.945312 -7.703125 2.78125 -7.367188 2.78125 -6.953125 C 2.78125 -6.554688 2.9375 -6.257812 3.25 -6.0625 C 3.5625 -5.863281 4.125 -5.671875 4.9375 -5.484375 C 5.75 -5.304688 6.40625 -5.09375 6.90625 -4.84375 C 7.414062 -4.59375 7.789062 -4.289062 8.03125 -3.9375 C 8.269531 -3.582031 8.390625 -3.148438 8.390625 -2.640625 C 8.390625 -1.785156 8.050781 -1.101562 7.375 -0.59375 C 6.695312 -0.0820312 5.816406 0.171875 4.734375 0.171875 C 3.972656 0.171875 3.296875 0.0351562 2.703125 -0.234375 C 2.117188 -0.503906 1.660156 -0.878906 1.328125 -1.359375 C 0.992188 -1.835938 0.828125 -2.359375 0.828125 -2.921875 L 2.46875 -2.921875 C 2.488281 -2.378906 2.703125 -1.945312 3.109375 -1.625 C 3.523438 -1.3125 4.066406 -1.15625 4.734375 -1.15625 C 5.347656 -1.15625 5.835938 -1.28125 6.203125 -1.53125 C 6.578125 -1.78125 6.765625 -2.109375 6.765625 -2.515625 Z M 6.765625 -2.515625 "/></g></g></g><g fill="#17191a" fill-opacity="1"><g transform="translate(121.183798, 16.200005)"><g><path d="M 3.4375 -11.8125 L 3.4375 -9.515625 L 5.21875 -9.515625 L 5.21875 -8.25 L 3.4375 -8.25 L 3.4375 -2.359375 C 3.4375 -1.972656 3.515625 -1.6875 3.671875 -1.5 C 3.828125 -1.3125 4.097656 -1.21875 4.484375 -1.21875 C 4.671875 -1.21875 4.925781 -1.25 5.25 -1.3125 L 5.25 0 C 4.820312 0.113281 4.410156 0.171875 4.015625 0.171875 C 3.285156 0.171875 2.734375 -0.046875 2.359375 -0.484375 C 1.992188 -0.921875 1.8125 -1.546875 1.8125 -2.359375 L 1.8125 -8.25 L 0.078125 -8.25 L 0.078125 -9.515625 L 1.8125 -9.515625 L 1.8125 -11.8125 Z M 3.4375 -11.8125 "/></g></g></g><g fill="#17191a" fill-opacity="1"><g transform="translate(127.059858, 16.200005)"><g><path d="M 7.109375 0 C 7.015625 -0.1875 6.9375 -0.519531 6.875 -1 C 6.113281 -0.21875 5.210938 0.171875 4.171875 0.171875 C 3.234375 0.171875 2.460938 -0.09375 1.859375 -0.625 C 1.253906 -1.15625 0.953125 -1.828125 0.953125 -2.640625 C 0.953125 -3.628906 1.328125 -4.394531 2.078125 -4.9375 C 2.835938 -5.488281 3.898438 -5.765625 5.265625 -5.765625 L 6.84375 -5.765625 L 6.84375 -6.515625 C 6.84375 -7.078125 6.671875 -7.523438 6.328125 -7.859375 C 5.992188 -8.203125 5.492188 -8.375 4.828125 -8.375 C 4.253906 -8.375 3.769531 -8.226562 3.375 -7.9375 C 2.976562 -7.644531 2.78125 -7.289062 2.78125 -6.875 L 1.15625 -6.875 C 1.15625 -7.34375 1.320312 -7.796875 1.65625 -8.234375 C 1.988281 -8.679688 2.441406 -9.035156 3.015625 -9.296875 C 3.597656 -9.554688 4.238281 -9.6875 4.9375 -9.6875 C 6.03125 -9.6875 6.882812 -9.410156 7.5 -8.859375 C 8.125 -8.316406 8.445312 -7.5625 8.46875 -6.59375 L 8.46875 -2.21875 C 8.46875 -1.351562 8.582031 -0.660156 8.8125 -0.140625 L 8.8125 0 Z M 4.40625 -1.234375 C 4.914062 -1.234375 5.398438 -1.363281 5.859375 -1.625 C 6.316406 -1.894531 6.644531 -2.238281 6.84375 -2.65625 L 6.84375 -4.609375 L 5.578125 -4.609375 C 3.578125 -4.609375 2.578125 -4.023438 2.578125 -2.859375 C 2.578125 -2.347656 2.75 -1.945312 3.09375 -1.65625 C 3.4375 -1.375 3.875 -1.234375 4.40625 -1.234375 Z M 4.40625 -1.234375 "/></g></g></g><g fill="#17191a" fill-opacity="1"><g transform="translate(136.844498, 16.200005)"><g><path d="M 4.375 -2.203125 L 6.71875 -9.515625 L 8.390625 -9.515625 L 4.96875 0 L 3.734375 0 L 0.296875 -9.515625 L 1.953125 -9.515625 Z M 4.375 -2.203125 "/></g></g></g><g fill="#17191a" fill-opacity="1"><g transform="translate(145.557571, 16.200005)"><g><path d="M 7.109375 0 C 7.015625 -0.1875 6.9375 -0.519531 6.875 -1 C 6.113281 -0.21875 5.210938 0.171875 4.171875 0.171875 C 3.234375 0.171875 2.460938 -0.09375 1.859375 -0.625 C 1.253906 -1.15625 0.953125 -1.828125 0.953125 -2.640625 C 0.953125 -3.628906 1.328125 -4.394531 2.078125 -4.9375 C 2.835938 -5.488281 3.898438 -5.765625 5.265625 -5.765625 L 6.84375 -5.765625 L 6.84375 -6.515625 C 6.84375 -7.078125 6.671875 -7.523438 6.328125 -7.859375 C 5.992188 -8.203125 5.492188 -8.375 4.828125 -8.375 C 4.253906 -8.375 3.769531 -8.226562 3.375 -7.9375 C 2.976562 -7.644531 2.78125 -7.289062 2.78125 -6.875 L 1.15625 -6.875 C 1.15625 -7.34375 1.320312 -7.796875 1.65625 -8.234375 C 1.988281 -8.679688 2.441406 -9.035156 3.015625 -9.296875 C 3.597656 -9.554688 4.238281 -9.6875 4.9375 -9.6875 C 6.03125 -9.6875 6.882812 -9.410156 7.5 -8.859375 C 8.125 -8.316406 8.445312 -7.5625 8.46875 -6.59375 L 8.46875 -2.21875 C 8.46875 -1.351562 8.582031 -0.660156 8.8125 -0.140625 L 8.8125 0 Z M 4.40625 -1.234375 C 4.914062 -1.234375 5.398438 -1.363281 5.859375 -1.625 C 6.316406 -1.894531 6.644531 -2.238281 6.84375 -2.65625 L 6.84375 -4.609375 L 5.578125 -4.609375 C 3.578125 -4.609375 2.578125 -4.023438 2.578125 -2.859375 C 2.578125 -2.347656 2.75 -1.945312 3.09375 -1.65625 C 3.4375 -1.375 3.875 -1.234375 4.40625 -1.234375 Z M 4.40625 -1.234375 "/></g></g></g><g fill="#17191a" fill-opacity="1"><g transform="translate(155.33203, 16.200005)"><g/></g></g><g fill="#17191a" fill-opacity="1"><g transform="translate(0.0000075, 40.950003)"><g><path d="M 2.765625 -9.515625 L 2.828125 -8.3125 C 3.546875 -9.226562 4.492188 -9.6875 5.671875 -9.6875 C 7.679688 -9.6875 8.691406 -8.550781 8.703125 -6.28125 L 8.703125 0 L 7.078125 0 L 7.078125 -6.296875 C 7.078125 -6.984375 6.921875 -7.488281 6.609375 -7.8125 C 6.304688 -8.144531 5.828125 -8.3125 5.171875 -8.3125 C 4.648438 -8.3125 4.1875 -8.171875 3.78125 -7.890625 C 3.382812 -7.609375 3.078125 -7.238281 2.859375 -6.78125 L 2.859375 0 L 1.234375 0 L 1.234375 -9.515625 Z M 2.765625 -9.515625 "/></g></g></g><g fill="#17191a" fill-opacity="1"><g transform="translate(9.925181, 40.950003)"><g><path d="M 5.171875 0.171875 C 3.890625 0.171875 2.84375 -0.25 2.03125 -1.09375 C 1.21875 -1.9375 0.8125 -3.066406 0.8125 -4.484375 L 0.8125 -4.796875 C 0.8125 -5.734375 0.992188 -6.570312 1.359375 -7.3125 C 1.722656 -8.050781 2.226562 -8.628906 2.875 -9.046875 C 3.519531 -9.472656 4.21875 -9.6875 4.96875 -9.6875 C 6.207031 -9.6875 7.171875 -9.28125 7.859375 -8.46875 C 8.546875 -7.65625 8.890625 -6.488281 8.890625 -4.96875 L 8.890625 -4.296875 L 2.4375 -4.296875 C 2.46875 -3.359375 2.742188 -2.597656 3.265625 -2.015625 C 3.785156 -1.441406 4.453125 -1.15625 5.265625 -1.15625 C 5.835938 -1.15625 6.320312 -1.269531 6.71875 -1.5 C 7.125 -1.738281 7.472656 -2.050781 7.765625 -2.4375 L 8.765625 -1.65625 C 7.960938 -0.4375 6.765625 0.171875 5.171875 0.171875 Z M 4.96875 -8.34375 C 4.3125 -8.34375 3.757812 -8.101562 3.3125 -7.625 C 2.875 -7.15625 2.601562 -6.488281 2.5 -5.625 L 7.265625 -5.625 L 7.265625 -5.75 C 7.210938 -6.570312 6.988281 -7.207031 6.59375 -7.65625 C 6.195312 -8.113281 5.65625 -8.34375 4.96875 -8.34375 Z M 4.96875 -8.34375 "/></g></g></g><g fill="#17191a" fill-opacity="1"><g transform="translate(19.455111, 40.950003)"><g><path d="M 2.90625 -9.515625 L 2.90625 1.09375 C 2.90625 2.925781 2.078125 3.84375 0.421875 3.84375 C 0.0664062 3.84375 -0.265625 3.789062 -0.578125 3.6875 L -0.578125 2.375 C -0.390625 2.425781 -0.140625 2.453125 0.171875 2.453125 C 0.535156 2.453125 0.8125 2.351562 1 2.15625 C 1.1875 1.957031 1.28125 1.617188 1.28125 1.140625 L 1.28125 -9.515625 Z M 1.109375 -12.03125 C 1.109375 -12.289062 1.1875 -12.507812 1.34375 -12.6875 C 1.507812 -12.875 1.75 -12.96875 2.0625 -12.96875 C 2.382812 -12.96875 2.625 -12.875 2.78125 -12.6875 C 2.945312 -12.507812 3.03125 -12.289062 3.03125 -12.03125 C 3.03125 -11.769531 2.945312 -11.550781 2.78125 -11.375 C 2.625 -11.195312 2.382812 -11.109375 2.0625 -11.109375 C 1.75 -11.109375 1.507812 -11.195312 1.34375 -11.375 C 1.1875 -11.550781 1.109375 -11.769531 1.109375 -12.03125 Z M 1.109375 -12.03125 "/></g></g></g><g fill="#17191a" fill-opacity="1"><g transform="translate(23.75017, 40.950003)"><g><path d="M 5.171875 0.171875 C 3.890625 0.171875 2.84375 -0.25 2.03125 -1.09375 C 1.21875 -1.9375 0.8125 -3.066406 0.8125 -4.484375 L 0.8125 -4.796875 C 0.8125 -5.734375 0.992188 -6.570312 1.359375 -7.3125 C 1.722656 -8.050781 2.226562 -8.628906 2.875 -9.046875 C 3.519531 -9.472656 4.21875 -9.6875 4.96875 -9.6875 C 6.207031 -9.6875 7.171875 -9.28125 7.859375 -8.46875 C 8.546875 -7.65625 8.890625 -6.488281 8.890625 -4.96875 L 8.890625 -4.296875 L 2.4375 -4.296875 C 2.46875 -3.359375 2.742188 -2.597656 3.265625 -2.015625 C 3.785156 -1.441406 4.453125 -1.15625 5.265625 -1.15625 C 5.835938 -1.15625 6.320312 -1.269531 6.71875 -1.5 C 7.125 -1.738281 7.472656 -2.050781 7.765625 -2.4375 L 8.765625 -1.65625 C 7.960938 -0.4375 6.765625 0.171875 5.171875 0.171875 Z M 4.96875 -8.34375 C 4.3125 -8.34375 3.757812 -8.101562 3.3125 -7.625 C 2.875 -7.15625 2.601562 -6.488281 2.5 -5.625 L 7.265625 -5.625 L 7.265625 -5.75 C 7.210938 -6.570312 6.988281 -7.207031 6.59375 -7.65625 C 6.195312 -8.113281 5.65625 -8.34375 4.96875 -8.34375 Z M 4.96875 -8.34375 "/></g></g></g><g fill="#17191a" fill-opacity="1"><g transform="translate(33.280099, 40.950003)"><g><path d="M 0.828125 -4.828125 C 0.828125 -6.285156 1.171875 -7.457031 1.859375 -8.34375 C 2.554688 -9.238281 3.46875 -9.6875 4.59375 -9.6875 C 5.707031 -9.6875 6.585938 -9.304688 7.234375 -8.546875 L 7.234375 -13.5 L 8.859375 -13.5 L 8.859375 0 L 7.359375 0 L 7.28125 -1.015625 C 6.632812 -0.222656 5.734375 0.171875 4.578125 0.171875 C 3.472656 0.171875 2.570312 -0.273438 1.875 -1.171875 C 1.175781 -2.078125 0.828125 -3.257812 0.828125 -4.71875 Z M 2.46875 -4.65625 C 2.46875 -3.570312 2.6875 -2.722656 3.125 -2.109375 C 3.570312 -1.503906 4.1875 -1.203125 4.96875 -1.203125 C 6 -1.203125 6.753906 -1.664062 7.234375 -2.59375 L 7.234375 -6.96875 C 6.742188 -7.863281 6 -8.3125 5 -8.3125 C 4.195312 -8.3125 3.570312 -8 3.125 -7.375 C 2.6875 -6.757812 2.46875 -5.851562 2.46875 -4.65625 Z M 2.46875 -4.65625 "/></g></g></g><g fill="#17191a" fill-opacity="1"><g transform="translate(43.424862, 40.950003)"><g><path d="M 2.765625 -9.515625 L 2.828125 -8.3125 C 3.546875 -9.226562 4.492188 -9.6875 5.671875 -9.6875 C 7.679688 -9.6875 8.691406 -8.550781 8.703125 -6.28125 L 8.703125 0 L 7.078125 0 L 7.078125 -6.296875 C 7.078125 -6.984375 6.921875 -7.488281 6.609375 -7.8125 C 6.304688 -8.144531 5.828125 -8.3125 5.171875 -8.3125 C 4.648438 -8.3125 4.1875 -8.171875 3.78125 -7.890625 C 3.382812 -7.609375 3.078125 -7.238281 2.859375 -6.78125 L 2.859375 0 L 1.234375 0 L 1.234375 -9.515625 Z M 2.765625 -9.515625 "/></g></g></g><g fill="#17191a" fill-opacity="1"><g transform="translate(53.350036, 40.950003)"><g><path d="M 7.109375 0 C 7.015625 -0.1875 6.9375 -0.519531 6.875 -1 C 6.113281 -0.21875 5.210938 0.171875 4.171875 0.171875 C 3.234375 0.171875 2.460938 -0.09375 1.859375 -0.625 C 1.253906 -1.15625 0.953125 -1.828125 0.953125 -2.640625 C 0.953125 -3.628906 1.328125 -4.394531 2.078125 -4.9375 C 2.835938 -5.488281 3.898438 -5.765625 5.265625 -5.765625 L 6.84375 -5.765625 L 6.84375 -6.515625 C 6.84375 -7.078125 6.671875 -7.523438 6.328125 -7.859375 C 5.992188 -8.203125 5.492188 -8.375 4.828125 -8.375 C 4.253906 -8.375 3.769531 -8.226562 3.375 -7.9375 C 2.976562 -7.644531 2.78125 -7.289062 2.78125 -6.875 L 1.15625 -6.875 C 1.15625 -7.34375 1.320312 -7.796875 1.65625 -8.234375 C 1.988281 -8.679688 2.441406 -9.035156 3.015625 -9.296875 C 3.597656 -9.554688 4.238281 -9.6875 4.9375 -9.6875 C 6.03125 -9.6875 6.882812 -9.410156 7.5 -8.859375 C 8.125 -8.316406 8.445312 -7.5625 8.46875 -6.59375 L 8.46875 -2.21875 C 8.46875 -1.351562 8.582031 -0.660156 8.8125 -0.140625 L 8.8125 0 Z M 4.40625 -1.234375 C 4.914062 -1.234375 5.398438 -1.363281 5.859375 -1.625 C 6.316406 -1.894531 6.644531 -2.238281 6.84375 -2.65625 L 6.84375 -4.609375 L 5.578125 -4.609375 C 3.578125 -4.609375 2.578125 -4.023438 2.578125 -2.859375 C 2.578125 -2.347656 2.75 -1.945312 3.09375 -1.65625 C 3.4375 -1.375 3.875 -1.234375 4.40625 -1.234375 Z M 4.40625 -1.234375 "/></g></g></g><g fill="#17191a" fill-opacity="1"><g transform="translate(63.134676, 40.950003)"><g><path d="M 0.828125 -4.828125 C 0.828125 -6.285156 1.171875 -7.457031 1.859375 -8.34375 C 2.554688 -9.238281 3.46875 -9.6875 4.59375 -9.6875 C 5.707031 -9.6875 6.585938 -9.304688 7.234375 -8.546875 L 7.234375 -13.5 L 8.859375 -13.5 L 8.859375 0 L 7.359375 0 L 7.28125 -1.015625 C 6.632812 -0.222656 5.734375 0.171875 4.578125 0.171875 C 3.472656 0.171875 2.570312 -0.273438 1.875 -1.171875 C 1.175781 -2.078125 0.828125 -3.257812 0.828125 -4.71875 Z M 2.46875 -4.65625 C 2.46875 -3.570312 2.6875 -2.722656 3.125 -2.109375 C 3.570312 -1.503906 4.1875 -1.203125 4.96875 -1.203125 C 6 -1.203125 6.753906 -1.664062 7.234375 -2.59375 L 7.234375 -6.96875 C 6.742188 -7.863281 6 -8.3125 5 -8.3125 C 4.195312 -8.3125 3.570312 -8 3.125 -7.375 C 2.6875 -6.757812 2.46875 -5.851562 2.46875 -4.65625 Z M 2.46875 -4.65625 "/></g></g></g><g fill="#17191a" fill-opacity="1"><g transform="translate(73.27944, 40.950003)"><g><path d="M 2.765625 -1.328125 L 8.328125 -1.328125 L 8.328125 0 L 0.78125 0 L 0.78125 -1.203125 L 6.015625 -8.171875 L 0.859375 -8.171875 L 0.859375 -9.515625 L 8.0625 -9.515625 L 8.0625 -8.359375 Z M 4.515625 -12.015625 L 5.828125 -13.5 L 7.234375 -13.5 L 7.234375 -13.421875 L 5 -11.015625 L 4.015625 -11.015625 L 1.796875 -13.421875 L 1.796875 -13.5 L 3.1875 -13.5 Z M 4.515625 -12.015625 "/></g></g></g><g fill="#17191a" fill-opacity="1"><g transform="translate(82.194535, 40.950003)"><g><path d="M 9.28125 -4.65625 C 9.28125 -3.195312 8.945312 -2.023438 8.28125 -1.140625 C 7.613281 -0.265625 6.71875 0.171875 5.59375 0.171875 C 4.382812 0.171875 3.453125 -0.25 2.796875 -1.09375 L 2.71875 0 L 1.234375 0 L 1.234375 -13.5 L 2.859375 -13.5 L 2.859375 -8.46875 C 3.515625 -9.28125 4.414062 -9.6875 5.5625 -9.6875 C 6.71875 -9.6875 7.625 -9.25 8.28125 -8.375 C 8.945312 -7.5 9.28125 -6.304688 9.28125 -4.796875 Z M 7.65625 -4.828125 C 7.65625 -5.941406 7.441406 -6.800781 7.015625 -7.40625 C 6.585938 -8.007812 5.972656 -8.3125 5.171875 -8.3125 C 4.097656 -8.3125 3.328125 -7.8125 2.859375 -6.8125 L 2.859375 -2.703125 C 3.359375 -1.703125 4.132812 -1.203125 5.1875 -1.203125 C 5.96875 -1.203125 6.570312 -1.503906 7 -2.109375 C 7.4375 -2.710938 7.65625 -3.617188 7.65625 -4.828125 Z M 7.65625 -4.828125 "/></g></g></g><g fill="#17191a" fill-opacity="1"><g transform="translate(92.286598, 40.950003)"><g><path d="M 3 0 L 1.375 0 L 1.375 -9.515625 L 3 -9.515625 Z M 1.234375 -12.03125 C 1.234375 -12.289062 1.3125 -12.507812 1.46875 -12.6875 C 1.632812 -12.875 1.875 -12.96875 2.1875 -12.96875 C 2.507812 -12.96875 2.753906 -12.875 2.921875 -12.6875 C 3.085938 -12.507812 3.171875 -12.289062 3.171875 -12.03125 C 3.171875 -11.769531 3.085938 -11.550781 2.921875 -11.375 C 2.753906 -11.195312 2.507812 -11.109375 2.1875 -11.109375 C 1.875 -11.109375 1.632812 -11.195312 1.46875 -11.375 C 1.3125 -11.550781 1.234375 -11.769531 1.234375 -12.03125 Z M 1.234375 -12.03125 "/></g></g></g><g fill="#17191a" fill-opacity="1"><g transform="translate(96.651924, 40.950003)"><g/></g></g><g fill="#17191a" fill-opacity="1"><g transform="translate(101.105083, 40.950003)"><g><path d="M 2.765625 -1.328125 L 8.328125 -1.328125 L 8.328125 0 L 0.78125 0 L 0.78125 -1.203125 L 6.015625 -8.171875 L 0.859375 -8.171875 L 0.859375 -9.515625 L 8.0625 -9.515625 L 8.0625 -8.359375 Z M 2.765625 -1.328125 "/></g></g></g><g fill="#17191a" fill-opacity="1"><g transform="translate(110.020178, 40.950003)"><g><path d="M 7.109375 0 C 7.015625 -0.1875 6.9375 -0.519531 6.875 -1 C 6.113281 -0.21875 5.210938 0.171875 4.171875 0.171875 C 3.234375 0.171875 2.460938 -0.09375 1.859375 -0.625 C 1.253906 -1.15625 0.953125 -1.828125 0.953125 -2.640625 C 0.953125 -3.628906 1.328125 -4.394531 2.078125 -4.9375 C 2.835938 -5.488281 3.898438 -5.765625 5.265625 -5.765625 L 6.84375 -5.765625 L 6.84375 -6.515625 C 6.84375 -7.078125 6.671875 -7.523438 6.328125 -7.859375 C 5.992188 -8.203125 5.492188 -8.375 4.828125 -8.375 C 4.253906 -8.375 3.769531 -8.226562 3.375 -7.9375 C 2.976562 -7.644531 2.78125 -7.289062 2.78125 -6.875 L 1.15625 -6.875 C 1.15625 -7.34375 1.320312 -7.796875 1.65625 -8.234375 C 1.988281 -8.679688 2.441406 -9.035156 3.015625 -9.296875 C 3.597656 -9.554688 4.238281 -9.6875 4.9375 -9.6875 C 6.03125 -9.6875 6.882812 -9.410156 7.5 -8.859375 C 8.125 -8.316406 8.445312 -7.5625 8.46875 -6.59375 L 8.46875 -2.21875 C 8.46875 -1.351562 8.582031 -0.660156 8.8125 -0.140625 L 8.8125 0 Z M 4.40625 -1.234375 C 4.914062 -1.234375 5.398438 -1.363281 5.859375 -1.625 C 6.316406 -1.894531 6.644531 -2.238281 6.84375 -2.65625 L 6.84375 -4.609375 L 5.578125 -4.609375 C 3.578125 -4.609375 2.578125 -4.023438 2.578125 -2.859375 C 2.578125 -2.347656 2.75 -1.945312 3.09375 -1.65625 C 3.4375 -1.375 3.875 -1.234375 4.40625 -1.234375 Z M 4.40625 -1.234375 "/></g></g></g><g fill="#17191a" fill-opacity="1"><g transform="translate(119.804819, 40.950003)"><g><path d="M 9.265625 -4.65625 C 9.265625 -3.207031 8.929688 -2.039062 8.265625 -1.15625 C 7.609375 -0.269531 6.710938 0.171875 5.578125 0.171875 C 4.421875 0.171875 3.515625 -0.191406 2.859375 -0.921875 L 2.859375 3.65625 L 1.234375 3.65625 L 1.234375 -9.515625 L 2.71875 -9.515625 L 2.796875 -8.453125 C 3.453125 -9.273438 4.375 -9.6875 5.5625 -9.6875 C 6.695312 -9.6875 7.597656 -9.253906 8.265625 -8.390625 C 8.929688 -7.535156 9.265625 -6.335938 9.265625 -4.796875 Z M 7.640625 -4.828125 C 7.640625 -5.898438 7.410156 -6.75 6.953125 -7.375 C 6.492188 -8 5.867188 -8.3125 5.078125 -8.3125 C 4.085938 -8.3125 3.347656 -7.875 2.859375 -7 L 2.859375 -2.453125 C 3.347656 -1.585938 4.09375 -1.15625 5.09375 -1.15625 C 5.875 -1.15625 6.492188 -1.460938 6.953125 -2.078125 C 7.410156 -2.691406 7.640625 -3.609375 7.640625 -4.828125 Z M 7.640625 -4.828125 "/></g></g></g><g fill="#17191a" fill-opacity="1"><g transform="translate(129.896882, 40.950003)"><g><path d="M 3 0 L 1.375 0 L 1.375 -9.515625 L 3 -9.515625 Z M 1.234375 -12.03125 C 1.234375 -12.289062 1.3125 -12.507812 1.46875 -12.6875 C 1.632812 -12.875 1.875 -12.96875 2.1875 -12.96875 C 2.507812 -12.96875 2.753906 -12.875 2.921875 -12.6875 C 3.085938 -12.507812 3.171875 -12.289062 3.171875 -12.03125 C 3.171875 -11.769531 3.085938 -11.550781 2.921875 -11.375 C 2.753906 -11.195312 2.507812 -11.109375 2.1875 -11.109375 C 1.875 -11.109375 1.632812 -11.195312 1.46875 -11.375 C 1.3125 -11.550781 1.234375 -11.769531 1.234375 -12.03125 Z M 1.234375 -12.03125 "/></g></g></g><g fill="#17191a" fill-opacity="1"><g transform="translate(134.262207, 40.950003)"><g><path d="M 6.765625 -2.515625 C 6.765625 -2.960938 6.597656 -3.304688 6.265625 -3.546875 C 5.941406 -3.785156 5.367188 -3.992188 4.546875 -4.171875 C 3.722656 -4.347656 3.066406 -4.554688 2.578125 -4.796875 C 2.097656 -5.046875 1.738281 -5.34375 1.5 -5.6875 C 1.269531 -6.03125 1.15625 -6.4375 1.15625 -6.90625 C 1.15625 -7.675781 1.484375 -8.332031 2.140625 -8.875 C 2.804688 -9.414062 3.648438 -9.6875 4.671875 -9.6875 C 5.753906 -9.6875 6.628906 -9.40625 7.296875 -8.84375 C 7.972656 -8.289062 8.3125 -7.582031 8.3125 -6.71875 L 6.671875 -6.71875 C 6.671875 -7.164062 6.476562 -7.546875 6.09375 -7.859375 C 5.71875 -8.179688 5.242188 -8.34375 4.671875 -8.34375 C 4.078125 -8.34375 3.613281 -8.210938 3.28125 -7.953125 C 2.945312 -7.703125 2.78125 -7.367188 2.78125 -6.953125 C 2.78125 -6.554688 2.9375 -6.257812 3.25 -6.0625 C 3.5625 -5.863281 4.125 -5.671875 4.9375 -5.484375 C 5.75 -5.304688 6.40625 -5.09375 6.90625 -4.84375 C 7.414062 -4.59375 7.789062 -4.289062 8.03125 -3.9375 C 8.269531 -3.582031 8.390625 -3.148438 8.390625 -2.640625 C 8.390625 -1.785156 8.050781 -1.101562 7.375 -0.59375 C 6.695312 -0.0820312 5.816406 0.171875 4.734375 0.171875 C 3.972656 0.171875 3.296875 0.0351562 2.703125 -0.234375 C 2.117188 -0.503906 1.660156 -0.878906 1.328125 -1.359375 C 0.992188 -1.835938 0.828125 -2.359375 0.828125 -2.921875 L 2.46875 -2.921875 C 2.488281 -2.378906 2.703125 -1.945312 3.109375 -1.625 C 3.523438 -1.3125 4.066406 -1.15625 4.734375 -1.15625 C 5.347656 -1.15625 5.835938 -1.28125 6.203125 -1.53125 C 6.578125 -1.78125 6.765625 -2.109375 6.765625 -2.515625 Z M 4.9375 -12.015625 L 6.25 -13.5 L 7.65625 -13.5 L 7.65625 -13.421875 L 5.421875 -11.015625 L 4.4375 -11.015625 L 2.21875 -13.421875 L 2.21875 -13.5 L 3.609375 -13.5 Z M 4.9375 -12.015625 "/></g></g></g><g fill="#17191a" fill-opacity="1"><g transform="translate(143.537414, 40.950003)"><g><path d="M 3 0 L 1.375 0 L 1.375 -9.515625 L 3 -9.515625 Z M 1.234375 -12.03125 C 1.234375 -12.289062 1.3125 -12.507812 1.46875 -12.6875 C 1.632812 -12.875 1.875 -12.96875 2.1875 -12.96875 C 2.507812 -12.96875 2.753906 -12.875 2.921875 -12.6875 C 3.085938 -12.507812 3.171875 -12.289062 3.171875 -12.03125 C 3.171875 -11.769531 3.085938 -11.550781 2.921875 -11.375 C 2.753906 -11.195312 2.507812 -11.109375 2.1875 -11.109375 C 1.875 -11.109375 1.632812 -11.195312 1.46875 -11.375 C 1.3125 -11.550781 1.234375 -11.769531 1.234375 -12.03125 Z M 1.234375 -12.03125 "/></g></g></g><g fill="#17191a" fill-opacity="1"><g transform="translate(147.90274, 40.950003)"><g/></g></g><g fill="#17191a" fill-opacity="1"><g transform="translate(152.355899, 40.950003)"><g><path d="M 7.109375 -0.9375 C 6.472656 -0.195312 5.539062 0.171875 4.3125 0.171875 C 3.300781 0.171875 2.53125 -0.117188 2 -0.703125 C 1.46875 -1.296875 1.203125 -2.171875 1.203125 -3.328125 L 1.203125 -9.515625 L 2.828125 -9.515625 L 2.828125 -3.359375 C 2.828125 -1.921875 3.410156 -1.203125 4.578125 -1.203125 C 5.816406 -1.203125 6.644531 -1.664062 7.0625 -2.59375 L 7.0625 -9.515625 L 8.6875 -9.515625 L 8.6875 0 L 7.140625 0 Z M 7.109375 -0.9375 "/></g></g></g><g fill="#17191a" fill-opacity="1"><g transform="translate(162.269529, 40.950003)"><g/></g></g><g fill="#17191a" fill-opacity="1"><g transform="translate(0.0000075, 65.700001)"><g><path d="M 0.796875 -4.84375 C 0.796875 -5.769531 0.976562 -6.601562 1.34375 -7.34375 C 1.71875 -8.09375 2.226562 -8.671875 2.875 -9.078125 C 3.53125 -9.484375 4.273438 -9.6875 5.109375 -9.6875 C 6.410156 -9.6875 7.457031 -9.238281 8.25 -8.34375 C 9.050781 -7.445312 9.453125 -6.253906 9.453125 -4.765625 L 9.453125 -4.65625 C 9.453125 -3.726562 9.273438 -2.894531 8.921875 -2.15625 C 8.566406 -1.425781 8.0625 -0.851562 7.40625 -0.4375 C 6.75 -0.03125 5.992188 0.171875 5.140625 0.171875 C 3.847656 0.171875 2.800781 -0.273438 2 -1.171875 C 1.195312 -2.066406 0.796875 -3.253906 0.796875 -4.734375 Z M 2.4375 -4.65625 C 2.4375 -3.59375 2.679688 -2.742188 3.171875 -2.109375 C 3.660156 -1.472656 4.316406 -1.15625 5.140625 -1.15625 C 5.960938 -1.15625 6.613281 -1.476562 7.09375 -2.125 C 7.582031 -2.769531 7.828125 -3.675781 7.828125 -4.84375 C 7.828125 -5.882812 7.578125 -6.726562 7.078125 -7.375 C 6.585938 -8.019531 5.929688 -8.34375 5.109375 -8.34375 C 4.304688 -8.34375 3.660156 -8.023438 3.171875 -7.390625 C 2.679688 -6.753906 2.4375 -5.84375 2.4375 -4.65625 Z M 2.4375 -4.65625 "/></g></g></g><g fill="#17191a" fill-opacity="1"><g transform="translate(10.258948, 65.700001)"><g><path d="M 9.28125 -4.65625 C 9.28125 -3.195312 8.945312 -2.023438 8.28125 -1.140625 C 7.613281 -0.265625 6.71875 0.171875 5.59375 0.171875 C 4.382812 0.171875 3.453125 -0.25 2.796875 -1.09375 L 2.71875 0 L 1.234375 0 L 1.234375 -13.5 L 2.859375 -13.5 L 2.859375 -8.46875 C 3.515625 -9.28125 4.414062 -9.6875 5.5625 -9.6875 C 6.71875 -9.6875 7.625 -9.25 8.28125 -8.375 C 8.945312 -7.5 9.28125 -6.304688 9.28125 -4.796875 Z M 7.65625 -4.828125 C 7.65625 -5.941406 7.441406 -6.800781 7.015625 -7.40625 C 6.585938 -8.007812 5.972656 -8.3125 5.171875 -8.3125 C 4.097656 -8.3125 3.328125 -7.8125 2.859375 -6.8125 L 2.859375 -2.703125 C 3.359375 -1.703125 4.132812 -1.203125 5.1875 -1.203125 C 5.96875 -1.203125 6.570312 -1.503906 7 -2.109375 C 7.4375 -2.710938 7.65625 -3.617188 7.65625 -4.828125 Z M 7.65625 -4.828125 "/></g></g></g><g fill="#17191a" fill-opacity="1"><g transform="translate(20.351011, 65.700001)"><g><path d="M 3 0 L 1.375 0 L 1.375 -13.5 L 3 -13.5 Z M 3 0 "/></g></g></g><g fill="#17191a" fill-opacity="1"><g transform="translate(24.716337, 65.700001)"><g><path d="M 3 0 L 1.375 0 L 1.375 -9.515625 L 3 -9.515625 Z M 1.234375 -12.03125 C 1.234375 -12.289062 1.3125 -12.507812 1.46875 -12.6875 C 1.632812 -12.875 1.875 -12.96875 2.1875 -12.96875 C 2.507812 -12.96875 2.753906 -12.875 2.921875 -12.6875 C 3.085938 -12.507812 3.171875 -12.289062 3.171875 -12.03125 C 3.171875 -11.769531 3.085938 -11.550781 2.921875 -11.375 C 2.753906 -11.195312 2.507812 -11.109375 2.1875 -11.109375 C 1.875 -11.109375 1.632812 -11.195312 1.46875 -11.375 C 1.3125 -11.550781 1.234375 -11.769531 1.234375 -12.03125 Z M 1.234375 -12.03125 "/></g></g></g><g fill="#17191a" fill-opacity="1"><g transform="translate(29.081663, 65.700001)"><g><path d="M 3.890625 -4.40625 L 2.859375 -3.34375 L 2.859375 0 L 1.234375 0 L 1.234375 -13.5 L 2.859375 -13.5 L 2.859375 -5.328125 L 3.734375 -6.375 L 6.703125 -9.515625 L 8.671875 -9.515625 L 4.96875 -5.53125 L 9.109375 0 L 7.203125 0 Z M 3.890625 -4.40625 "/></g></g></g><g fill="#17191a" fill-opacity="1"><g transform="translate(38.198769, 65.700001)"><g><path d="M 7.109375 -0.9375 C 6.472656 -0.195312 5.539062 0.171875 4.3125 0.171875 C 3.300781 0.171875 2.53125 -0.117188 2 -0.703125 C 1.46875 -1.296875 1.203125 -2.171875 1.203125 -3.328125 L 1.203125 -9.515625 L 2.828125 -9.515625 L 2.828125 -3.359375 C 2.828125 -1.921875 3.410156 -1.203125 4.578125 -1.203125 C 5.816406 -1.203125 6.644531 -1.664062 7.0625 -2.59375 L 7.0625 -9.515625 L 8.6875 -9.515625 L 8.6875 0 L 7.140625 0 Z M 7.109375 -0.9375 "/></g></g></g><g fill="#17191a" fill-opacity="1"><g transform="translate(48.115166, 65.700001)"><g/></g></g><g fill="#17191a" fill-opacity="1"><g transform="translate(52.568325, 65.700001)"><g><path d="M 3 0 L 1.375 0 L 1.375 -9.515625 L 3 -9.515625 Z M 1.234375 -12.03125 C 1.234375 -12.289062 1.3125 -12.507812 1.46875 -12.6875 C 1.632812 -12.875 1.875 -12.96875 2.1875 -12.96875 C 2.507812 -12.96875 2.753906 -12.875 2.921875 -12.6875 C 3.085938 -12.507812 3.171875 -12.289062 3.171875 -12.03125 C 3.171875 -11.769531 3.085938 -11.550781 2.921875 -11.375 C 2.753906 -11.195312 2.507812 -11.109375 2.1875 -11.109375 C 1.875 -11.109375 1.632812 -11.195312 1.46875 -11.375 C 1.3125 -11.550781 1.234375 -11.769531 1.234375 -12.03125 Z M 1.234375 -12.03125 "/></g></g></g><g fill="#17191a" fill-opacity="1"><g transform="translate(56.93365, 65.700001)"><g><path d="M 2.765625 -9.515625 L 2.828125 -8.3125 C 3.546875 -9.226562 4.492188 -9.6875 5.671875 -9.6875 C 7.679688 -9.6875 8.691406 -8.550781 8.703125 -6.28125 L 8.703125 0 L 7.078125 0 L 7.078125 -6.296875 C 7.078125 -6.984375 6.921875 -7.488281 6.609375 -7.8125 C 6.304688 -8.144531 5.828125 -8.3125 5.171875 -8.3125 C 4.648438 -8.3125 4.1875 -8.171875 3.78125 -7.890625 C 3.382812 -7.609375 3.078125 -7.238281 2.859375 -6.78125 L 2.859375 0 L 1.234375 0 L 1.234375 -9.515625 Z M 2.765625 -9.515625 "/></g></g></g><g fill="#17191a" fill-opacity="1"><g transform="translate(66.858824, 65.700001)"><g><path d="M 3.4375 -11.8125 L 3.4375 -9.515625 L 5.21875 -9.515625 L 5.21875 -8.25 L 3.4375 -8.25 L 3.4375 -2.359375 C 3.4375 -1.972656 3.515625 -1.6875 3.671875 -1.5 C 3.828125 -1.3125 4.097656 -1.21875 4.484375 -1.21875 C 4.671875 -1.21875 4.925781 -1.25 5.25 -1.3125 L 5.25 0 C 4.820312 0.113281 4.410156 0.171875 4.015625 0.171875 C 3.285156 0.171875 2.734375 -0.046875 2.359375 -0.484375 C 1.992188 -0.921875 1.8125 -1.546875 1.8125 -2.359375 L 1.8125 -8.25 L 0.078125 -8.25 L 0.078125 -9.515625 L 1.8125 -9.515625 L 1.8125 -11.8125 Z M 3.4375 -11.8125 "/></g></g></g><g fill="#17191a" fill-opacity="1"><g transform="translate(72.734884, 65.700001)"><g><path d="M 5.171875 0.171875 C 3.890625 0.171875 2.84375 -0.25 2.03125 -1.09375 C 1.21875 -1.9375 0.8125 -3.066406 0.8125 -4.484375 L 0.8125 -4.796875 C 0.8125 -5.734375 0.992188 -6.570312 1.359375 -7.3125 C 1.722656 -8.050781 2.226562 -8.628906 2.875 -9.046875 C 3.519531 -9.472656 4.21875 -9.6875 4.96875 -9.6875 C 6.207031 -9.6875 7.171875 -9.28125 7.859375 -8.46875 C 8.546875 -7.65625 8.890625 -6.488281 8.890625 -4.96875 L 8.890625 -4.296875 L 2.4375 -4.296875 C 2.46875 -3.359375 2.742188 -2.597656 3.265625 -2.015625 C 3.785156 -1.441406 4.453125 -1.15625 5.265625 -1.15625 C 5.835938 -1.15625 6.320312 -1.269531 6.71875 -1.5 C 7.125 -1.738281 7.472656 -2.050781 7.765625 -2.4375 L 8.765625 -1.65625 C 7.960938 -0.4375 6.765625 0.171875 5.171875 0.171875 Z M 4.96875 -8.34375 C 4.3125 -8.34375 3.757812 -8.101562 3.3125 -7.625 C 2.875 -7.15625 2.601562 -6.488281 2.5 -5.625 L 7.265625 -5.625 L 7.265625 -5.75 C 7.210938 -6.570312 6.988281 -7.207031 6.59375 -7.65625 C 6.195312 -8.113281 5.65625 -8.34375 4.96875 -8.34375 Z M 4.96875 -8.34375 "/></g></g></g><g fill="#17191a" fill-opacity="1"><g transform="translate(82.264813, 65.700001)"><g><path d="M 5.828125 -8.046875 C 5.578125 -8.085938 5.3125 -8.109375 5.03125 -8.109375 C 3.957031 -8.109375 3.234375 -7.65625 2.859375 -6.75 L 2.859375 0 L 1.234375 0 L 1.234375 -9.515625 L 2.8125 -9.515625 L 2.84375 -8.40625 C 3.375 -9.257812 4.128906 -9.6875 5.109375 -9.6875 C 5.421875 -9.6875 5.660156 -9.644531 5.828125 -9.5625 Z M 5.828125 -8.046875 "/></g></g></g><g fill="#17191a" fill-opacity="1"><g transform="translate(88.351674, 65.700001)"><g><path d="M 4.375 -2.203125 L 6.71875 -9.515625 L 8.390625 -9.515625 L 4.96875 0 L 3.734375 0 L 0.296875 -9.515625 L 1.953125 -9.515625 Z M 4.375 -2.203125 "/></g></g></g><g fill="#17191a" fill-opacity="1"><g transform="translate(97.064747, 65.700001)"><g><path d="M 7.109375 0 C 7.015625 -0.1875 6.9375 -0.519531 6.875 -1 C 6.113281 -0.21875 5.210938 0.171875 4.171875 0.171875 C 3.234375 0.171875 2.460938 -0.09375 1.859375 -0.625 C 1.253906 -1.15625 0.953125 -1.828125 0.953125 -2.640625 C 0.953125 -3.628906 1.328125 -4.394531 2.078125 -4.9375 C 2.835938 -5.488281 3.898438 -5.765625 5.265625 -5.765625 L 6.84375 -5.765625 L 6.84375 -6.515625 C 6.84375 -7.078125 6.671875 -7.523438 6.328125 -7.859375 C 5.992188 -8.203125 5.492188 -8.375 4.828125 -8.375 C 4.253906 -8.375 3.769531 -8.226562 3.375 -7.9375 C 2.976562 -7.644531 2.78125 -7.289062 2.78125 -6.875 L 1.15625 -6.875 C 1.15625 -7.34375 1.320312 -7.796875 1.65625 -8.234375 C 1.988281 -8.679688 2.441406 -9.035156 3.015625 -9.296875 C 3.597656 -9.554688 4.238281 -9.6875 4.9375 -9.6875 C 6.03125 -9.6875 6.882812 -9.410156 7.5 -8.859375 C 8.125 -8.316406 8.445312 -7.5625 8.46875 -6.59375 L 8.46875 -2.21875 C 8.46875 -1.351562 8.582031 -0.660156 8.8125 -0.140625 L 8.8125 0 Z M 4.40625 -1.234375 C 4.914062 -1.234375 5.398438 -1.363281 5.859375 -1.625 C 6.316406 -1.894531 6.644531 -2.238281 6.84375 -2.65625 L 6.84375 -4.609375 L 5.578125 -4.609375 C 3.578125 -4.609375 2.578125 -4.023438 2.578125 -2.859375 C 2.578125 -2.347656 2.75 -1.945312 3.09375 -1.65625 C 3.4375 -1.375 3.875 -1.234375 4.40625 -1.234375 Z M 4.40625 -1.234375 "/></g></g></g><g fill="#17191a" fill-opacity="1"><g transform="translate(106.849387, 65.700001)"><g><path d="M 3 0 L 1.375 0 L 1.375 -13.5 L 3 -13.5 Z M 3 0 "/></g></g></g><g fill="#17191a" fill-opacity="1"><g transform="translate(111.214713, 65.700001)"><g><path d="M 7.109375 0 C 7.015625 -0.1875 6.9375 -0.519531 6.875 -1 C 6.113281 -0.21875 5.210938 0.171875 4.171875 0.171875 C 3.234375 0.171875 2.460938 -0.09375 1.859375 -0.625 C 1.253906 -1.15625 0.953125 -1.828125 0.953125 -2.640625 C 0.953125 -3.628906 1.328125 -4.394531 2.078125 -4.9375 C 2.835938 -5.488281 3.898438 -5.765625 5.265625 -5.765625 L 6.84375 -5.765625 L 6.84375 -6.515625 C 6.84375 -7.078125 6.671875 -7.523438 6.328125 -7.859375 C 5.992188 -8.203125 5.492188 -8.375 4.828125 -8.375 C 4.253906 -8.375 3.769531 -8.226562 3.375 -7.9375 C 2.976562 -7.644531 2.78125 -7.289062 2.78125 -6.875 L 1.15625 -6.875 C 1.15625 -7.34375 1.320312 -7.796875 1.65625 -8.234375 C 1.988281 -8.679688 2.441406 -9.035156 3.015625 -9.296875 C 3.597656 -9.554688 4.238281 -9.6875 4.9375 -9.6875 C 6.03125 -9.6875 6.882812 -9.410156 7.5 -8.859375 C 8.125 -8.316406 8.445312 -7.5625 8.46875 -6.59375 L 8.46875 -2.21875 C 8.46875 -1.351562 8.582031 -0.660156 8.8125 -0.140625 L 8.8125 0 Z M 4.40625 -1.234375 C 4.914062 -1.234375 5.398438 -1.363281 5.859375 -1.625 C 6.316406 -1.894531 6.644531 -2.238281 6.84375 -2.65625 L 6.84375 -4.609375 L 5.578125 -4.609375 C 3.578125 -4.609375 2.578125 -4.023438 2.578125 -2.859375 C 2.578125 -2.347656 2.75 -1.945312 3.09375 -1.65625 C 3.4375 -1.375 3.875 -1.234375 4.40625 -1.234375 Z M 4.40625 -1.234375 "/></g></g></g><g fill="#17191a" fill-opacity="1"><g transform="translate(120.999353, 65.700001)"><g><path d="M 1.171875 -0.859375 C 1.171875 -1.140625 1.253906 -1.375 1.421875 -1.5625 C 1.585938 -1.75 1.835938 -1.84375 2.171875 -1.84375 C 2.503906 -1.84375 2.753906 -1.75 2.921875 -1.5625 C 3.097656 -1.375 3.1875 -1.140625 3.1875 -0.859375 C 3.1875 -0.585938 3.097656 -0.359375 2.921875 -0.171875 C 2.753906 0.00390625 2.503906 0.09375 2.171875 0.09375 C 1.835938 0.09375 1.585938 0.00390625 1.421875 -0.171875 C 1.253906 -0.359375 1.171875 -0.585938 1.171875 -0.859375 Z M 1.1875 -8.625 C 1.1875 -8.90625 1.269531 -9.140625 1.4375 -9.328125 C 1.601562 -9.515625 1.851562 -9.609375 2.1875 -9.609375 C 2.519531 -9.609375 2.769531 -9.515625 2.9375 -9.328125 C 3.113281 -9.140625 3.203125 -8.90625 3.203125 -8.625 C 3.203125 -8.351562 3.113281 -8.125 2.9375 -7.9375 C 2.769531 -7.757812 2.519531 -7.671875 2.1875 -7.671875 C 1.851562 -7.671875 1.601562 -7.757812 1.4375 -7.9375 C 1.269531 -8.125 1.1875 -8.351562 1.1875 -8.625 Z M 1.1875 -8.625 "/></g></g></g><path fill="#17191a" d="M 235.121094 0.46875 C 235.121094 0.0195312 235.121094 0 234.730469 0 C 234.261719 0.527344 233.285156 1.253906 231.277344 1.253906 L 231.277344 1.820312 C 231.722656 1.820312 232.699219 1.820312 233.773438 1.3125 L 233.773438 11.5 C 233.773438 12.203125 233.714844 12.4375 231.996094 12.4375 L 231.394531 12.4375 L 231.394531 13.003906 C 231.917969 12.964844 233.8125 12.964844 234.457031 12.964844 C 235.101562 12.964844 236.976562 12.964844 237.503906 13.003906 L 237.503906 12.4375 L 236.898438 12.4375 C 235.179688 12.4375 235.121094 12.203125 235.121094 11.5 Z M 235.121094 0.46875 " fill-opacity="1" fill-rule="nonzero"/><path fill="#17191a" d="M 229.5 20.957031 L 239.054688 20.957031 L 239.054688 21.738281 L 229.5 21.738281 Z M 229.5 20.957031 " fill-opacity="1" fill-rule="nonzero"/><path fill="#17191a" d="M 238.089844 36.363281 L 237.660156 36.363281 C 237.601562 36.695312 237.445312 37.769531 237.25 38.085938 C 237.113281 38.261719 236 38.261719 235.414062 38.261719 L 231.800781 38.261719 C 232.328125 37.808594 233.519531 36.558594 234.027344 36.089844 C 236.996094 33.351562 238.089844 32.335938 238.089844 30.398438 C 238.089844 28.148438 236.3125 26.644531 234.046875 26.644531 C 231.78125 26.644531 230.457031 28.582031 230.457031 30.261719 C 230.457031 31.257812 231.316406 31.257812 231.375 31.257812 C 231.78125 31.257812 232.289062 30.964844 232.289062 30.339844 C 232.289062 29.792969 231.917969 29.421875 231.375 29.421875 C 231.199219 29.421875 231.160156 29.421875 231.101562 29.441406 C 231.472656 28.109375 232.523438 27.210938 233.792969 27.210938 C 235.453125 27.210938 236.46875 28.601562 236.46875 30.398438 C 236.46875 32.0625 235.511719 33.507812 234.398438 34.757812 L 230.457031 39.179688 L 230.457031 39.648438 L 237.582031 39.648438 Z M 238.089844 36.363281 " fill-opacity="1" fill-rule="nonzero"/><path fill="#17191a" d="M 250.261719 18.253906 C 249.636719 18.371094 249.402344 18.839844 249.402344 19.214844 C 249.402344 19.683594 249.773438 19.839844 250.046875 19.839844 C 250.632812 19.839844 251.042969 19.332031 251.042969 18.800781 C 251.042969 17.980469 250.105469 17.609375 249.285156 17.609375 C 248.09375 17.609375 247.429688 18.78125 247.253906 19.15625 C 246.804688 17.6875 245.59375 17.609375 245.242188 17.609375 C 243.253906 17.609375 242.199219 20.171875 242.199219 20.601562 C 242.199219 20.679688 242.277344 20.777344 242.414062 20.777344 C 242.570312 20.777344 242.609375 20.660156 242.648438 20.582031 C 243.3125 18.410156 244.617188 18 245.183594 18 C 246.0625 18 246.238281 18.820312 246.238281 19.292969 C 246.238281 19.722656 246.121094 20.171875 245.886719 21.109375 L 245.222656 23.789062 C 244.929688 24.960938 244.363281 26.039062 243.332031 26.039062 C 243.234375 26.039062 242.746094 26.039062 242.335938 25.785156 C 243.039062 25.648438 243.195312 25.058594 243.195312 24.824219 C 243.195312 24.433594 242.902344 24.199219 242.53125 24.199219 C 242.0625 24.199219 241.554688 24.609375 241.554688 25.238281 C 241.554688 26.058594 242.472656 26.429688 243.3125 26.429688 C 244.246094 26.429688 244.910156 25.6875 245.320312 24.882812 C 245.632812 26.039062 246.609375 26.429688 247.332031 26.429688 C 249.324219 26.429688 250.378906 23.867188 250.378906 23.4375 C 250.378906 23.339844 250.300781 23.261719 250.183594 23.261719 C 250.007812 23.261719 249.988281 23.359375 249.929688 23.515625 C 249.402344 25.238281 248.269531 26.039062 247.390625 26.039062 C 246.707031 26.039062 246.335938 25.53125 246.335938 24.726562 C 246.335938 24.296875 246.414062 23.984375 246.726562 22.695312 L 247.410156 20.035156 C 247.703125 18.863281 248.367188 18 249.265625 18 C 249.304688 18 249.851562 18 250.261719 18.253906 Z M 250.261719 18.253906 " fill-opacity="1" fill-rule="nonzero"/><path fill="#17191a" d="M 269.070312 21.734375 C 269.402344 21.734375 269.753906 21.734375 269.753906 21.34375 C 269.753906 20.953125 269.402344 20.953125 269.070312 20.953125 L 258.511719 20.953125 C 258.179688 20.953125 257.828125 20.953125 257.828125 21.34375 C 257.828125 21.734375 258.179688 21.734375 258.511719 21.734375 Z M 269.070312 21.734375 " fill-opacity="1" fill-rule="nonzero"/><path fill="#17191a" d="M 280.179688 1.800781 C 281.019531 2.074219 281.703125 2.09375 281.917969 2.09375 C 284.125 2.09375 285.527344 0.46875 285.527344 0.195312 C 285.527344 0.117188 285.488281 0.0195312 285.371094 0.0195312 C 285.332031 0.0195312 285.292969 0.0195312 285.117188 0.0976562 C 284.027344 0.566406 283.089844 0.625 282.582031 0.625 C 281.292969 0.625 280.375 0.234375 280.003906 0.078125 C 279.867188 0.0195312 279.828125 0.0195312 279.808594 0.0195312 C 279.652344 0.0195312 279.652344 0.136719 279.652344 0.449219 L 279.652344 6.257812 C 279.652344 6.609375 279.652344 6.726562 279.886719 6.726562 C 279.984375 6.726562 280.003906 6.707031 280.199219 6.472656 C 280.746094 5.671875 281.664062 5.203125 282.640625 5.203125 C 283.675781 5.203125 284.183594 6.160156 284.339844 6.492188 C 284.667969 7.257812 284.6875 8.214844 284.6875 8.957031 C 284.6875 9.699219 284.6875 10.816406 284.144531 11.695312 C 283.714844 12.398438 282.953125 12.886719 282.09375 12.886719 C 280.804688 12.886719 279.535156 12.007812 279.183594 10.582031 C 279.28125 10.621094 279.398438 10.640625 279.496094 10.640625 C 279.828125 10.640625 280.355469 10.445312 280.355469 9.777344 C 280.355469 9.230469 279.984375 8.917969 279.496094 8.917969 C 279.144531 8.917969 278.636719 9.09375 278.636719 9.855469 C 278.636719 11.519531 279.964844 13.417969 282.132812 13.417969 C 284.339844 13.417969 286.269531 11.558594 286.269531 9.074219 C 286.269531 6.746094 284.707031 4.8125 282.660156 4.8125 C 281.546875 4.8125 280.6875 5.300781 280.179688 5.847656 Z M 280.179688 1.800781 " fill-opacity="1" fill-rule="nonzero"/><path fill="#17191a" d="M 277.679688 20.957031 L 287.238281 20.957031 L 287.238281 21.738281 L 277.679688 21.738281 Z M 277.679688 20.957031 " fill-opacity="1" fill-rule="nonzero"/><path fill="#17191a" d="M 284.726562 26.917969 C 284.726562 26.546875 284.726562 26.449219 284.453125 26.449219 C 284.300781 26.449219 284.242188 26.449219 284.085938 26.683594 L 278.207031 35.816406 L 278.207031 36.382812 L 283.34375 36.382812 L 283.34375 38.164062 C 283.34375 38.886719 283.304688 39.082031 281.878906 39.082031 L 281.488281 39.082031 L 281.488281 39.648438 C 281.9375 39.609375 283.480469 39.609375 284.027344 39.609375 C 284.570312 39.609375 286.132812 39.609375 286.582031 39.648438 L 286.582031 39.082031 L 286.191406 39.082031 C 284.785156 39.082031 284.726562 38.886719 284.726562 38.164062 L 284.726562 36.382812 L 286.699219 36.382812 L 286.699219 35.816406 L 284.726562 35.816406 Z M 283.441406 28.441406 L 283.441406 35.816406 L 278.695312 35.816406 Z M 283.441406 28.441406 " fill-opacity="1" fill-rule="nonzero"/><path fill="#17191a" d="M 307.769531 19.898438 C 308.042969 19.78125 308.160156 19.644531 308.160156 19.46875 C 308.160156 19.273438 308.082031 19.15625 307.769531 19.019531 L 297.011719 13.933594 C 296.738281 13.796875 296.660156 13.796875 296.621094 13.796875 C 296.390625 13.796875 296.234375 13.972656 296.234375 14.1875 C 296.234375 14.421875 296.390625 14.519531 296.601562 14.617188 L 306.851562 19.449219 L 296.640625 24.277344 C 296.253906 24.453125 296.234375 24.609375 296.234375 24.726562 C 296.234375 24.941406 296.410156 25.121094 296.621094 25.121094 C 296.679688 25.121094 296.71875 25.121094 296.972656 24.980469 Z M 307.476562 28.914062 C 307.808594 28.914062 308.160156 28.914062 308.160156 28.523438 C 308.160156 28.128906 307.75 28.128906 307.457031 28.128906 L 296.933594 28.128906 C 296.640625 28.128906 296.234375 28.128906 296.234375 28.523438 C 296.234375 28.914062 296.582031 28.914062 296.914062 28.914062 Z M 307.476562 28.914062 " fill-opacity="1" fill-rule="nonzero"/><path fill="#17191a" d="M 318.808594 19.214844 C 318.476562 19.234375 318.398438 19.253906 318.398438 19.429688 C 318.398438 19.625 318.496094 19.625 318.847656 19.625 L 319.746094 19.625 C 321.40625 19.625 322.148438 20.992188 322.148438 22.871094 C 322.148438 25.433594 320.820312 26.117188 319.863281 26.117188 C 318.925781 26.117188 317.324219 25.667969 316.757812 24.375 C 317.382812 24.472656 317.949219 24.121094 317.949219 23.417969 C 317.949219 22.851562 317.539062 22.460938 316.992188 22.460938 C 316.523438 22.460938 316.019531 22.734375 316.019531 23.476562 C 316.019531 25.21875 317.753906 26.644531 319.921875 26.644531 C 322.246094 26.644531 323.960938 24.863281 323.960938 22.890625 C 323.960938 21.089844 322.519531 19.683594 320.644531 19.351562 C 322.34375 18.863281 323.4375 17.433594 323.4375 15.910156 C 323.4375 14.363281 321.835938 13.230469 319.941406 13.230469 C 317.988281 13.230469 316.542969 14.421875 316.542969 15.851562 C 316.542969 16.632812 317.148438 16.789062 317.441406 16.789062 C 317.851562 16.789062 318.320312 16.496094 318.320312 15.910156 C 318.320312 15.28125 317.851562 15.007812 317.421875 15.007812 C 317.304688 15.007812 317.265625 15.007812 317.207031 15.027344 C 317.949219 13.699219 319.785156 13.699219 319.882812 13.699219 C 320.527344 13.699219 321.796875 13.992188 321.796875 15.910156 C 321.796875 16.28125 321.738281 17.375 321.171875 18.214844 C 320.585938 19.078125 319.921875 19.136719 319.394531 19.15625 Z M 318.808594 19.214844 " fill-opacity="1" fill-rule="nonzero"/><path fill="#17191a" d="M 208.128906 65.515625 C 207.503906 65.632812 207.269531 66.101562 207.269531 66.472656 C 207.269531 66.941406 207.640625 67.097656 207.914062 67.097656 C 208.5 67.097656 208.910156 66.589844 208.910156 66.0625 C 208.910156 65.242188 207.972656 64.871094 207.152344 64.871094 C 205.960938 64.871094 205.296875 66.042969 205.121094 66.414062 C 204.671875 64.949219 203.460938 64.871094 203.109375 64.871094 C 201.121094 64.871094 200.066406 67.433594 200.066406 67.863281 C 200.066406 67.941406 200.144531 68.039062 200.28125 68.039062 C 200.4375 68.039062 200.476562 67.921875 200.515625 67.84375 C 201.179688 65.671875 202.488281 65.261719 203.050781 65.261719 C 203.929688 65.261719 204.105469 66.082031 204.105469 66.550781 C 204.105469 66.980469 203.988281 67.433594 203.753906 68.371094 L 203.089844 71.050781 C 202.796875 72.222656 202.234375 73.296875 201.199219 73.296875 C 201.101562 73.296875 200.613281 73.296875 200.203125 73.042969 C 200.90625 72.90625 201.0625 72.320312 201.0625 72.085938 C 201.0625 71.695312 200.769531 71.460938 200.398438 71.460938 C 199.929688 71.460938 199.421875 71.871094 199.421875 72.496094 C 199.421875 73.316406 200.339844 73.691406 201.179688 73.691406 C 202.117188 73.691406 202.777344 72.945312 203.1875 72.144531 C 203.5 73.296875 204.476562 73.691406 205.199219 73.691406 C 207.191406 73.691406 208.246094 71.128906 208.246094 70.699219 C 208.246094 70.601562 208.167969 70.523438 208.050781 70.523438 C 207.875 70.523438 207.855469 70.621094 207.796875 70.777344 C 207.269531 72.496094 206.136719 73.296875 205.257812 73.296875 C 204.574219 73.296875 204.203125 72.789062 204.203125 71.988281 C 204.203125 71.558594 204.28125 71.246094 204.59375 69.953125 L 205.277344 67.292969 C 205.570312 66.121094 206.234375 65.261719 207.132812 65.261719 C 207.171875 65.261719 207.71875 65.261719 208.128906 65.515625 Z M 208.128906 65.515625 " fill-opacity="1" fill-rule="nonzero"/><path fill="#17191a" d="M 226.941406 68.996094 C 227.269531 68.996094 227.621094 68.996094 227.621094 68.605469 C 227.621094 68.214844 227.269531 68.214844 226.941406 68.214844 L 216.378906 68.214844 C 216.046875 68.214844 215.695312 68.214844 215.695312 68.605469 C 215.695312 68.996094 216.046875 68.996094 216.378906 68.996094 Z M 226.941406 68.996094 " fill-opacity="1" fill-rule="nonzero"/><path fill="#17191a" d="M 242.183594 70.207031 L 241.753906 70.207031 C 241.695312 70.542969 241.542969 71.617188 241.347656 71.929688 C 241.210938 72.105469 240.097656 72.105469 239.511719 72.105469 L 235.898438 72.105469 C 236.425781 71.65625 237.617188 70.402344 238.125 69.933594 C 241.09375 67.195312 242.183594 66.179688 242.183594 64.246094 C 242.183594 61.996094 240.410156 60.488281 238.144531 60.488281 C 235.878906 60.488281 234.550781 62.425781 234.550781 64.105469 C 234.550781 65.105469 235.410156 65.105469 235.46875 65.105469 C 235.878906 65.105469 236.386719 64.8125 236.386719 64.183594 C 236.386719 63.636719 236.015625 63.265625 235.46875 63.265625 C 235.292969 63.265625 235.253906 63.265625 235.195312 63.285156 C 235.566406 61.957031 236.621094 61.054688 237.890625 61.054688 C 239.550781 61.054688 240.566406 62.445312 240.566406 64.246094 C 240.566406 65.90625 239.609375 67.355469 238.496094 68.605469 L 234.550781 73.023438 L 234.550781 73.492188 L 241.675781 73.492188 Z M 242.183594 70.207031 " fill-opacity="1" fill-rule="nonzero"/><path fill="#17191a" d="M 261.441406 63.96875 C 261.792969 63.8125 261.832031 63.675781 261.832031 63.558594 C 261.832031 63.34375 261.675781 63.1875 261.460938 63.1875 C 261.421875 63.1875 261.402344 63.207031 261.128906 63.324219 L 250.566406 68.195312 C 250.214844 68.351562 250.175781 68.488281 250.175781 68.605469 C 250.175781 68.742188 250.195312 68.859375 250.566406 69.035156 L 261.128906 73.90625 C 261.382812 74.023438 261.421875 74.042969 261.460938 74.042969 C 261.675781 74.042969 261.832031 73.886719 261.832031 73.671875 C 261.832031 73.550781 261.792969 73.414062 261.441406 73.257812 L 251.386719 68.625 Z M 261.441406 63.96875 " fill-opacity="1" fill-rule="nonzero"/><path fill="#17191a" d="M 277.453125 70.207031 L 277.023438 70.207031 C 276.964844 70.542969 276.8125 71.617188 276.617188 71.929688 C 276.480469 72.105469 275.367188 72.105469 274.78125 72.105469 L 271.167969 72.105469 C 271.695312 71.65625 272.886719 70.402344 273.394531 69.933594 C 276.363281 67.195312 277.453125 66.179688 277.453125 64.246094 C 277.453125 61.996094 275.679688 60.488281 273.414062 60.488281 C 271.148438 60.488281 269.820312 62.425781 269.820312 64.105469 C 269.820312 65.105469 270.679688 65.105469 270.738281 65.105469 C 271.148438 65.105469 271.65625 64.8125 271.65625 64.183594 C 271.65625 63.636719 271.285156 63.265625 270.738281 63.265625 C 270.5625 63.265625 270.523438 63.265625 270.464844 63.285156 C 270.835938 61.957031 271.890625 61.054688 273.160156 61.054688 C 274.820312 61.054688 275.835938 62.445312 275.835938 64.246094 C 275.835938 65.90625 274.878906 67.355469 273.765625 68.605469 L 269.820312 73.023438 L 269.820312 73.492188 L 276.945312 73.492188 Z M 277.453125 70.207031 " fill-opacity="1" fill-rule="nonzero"/><path fill="#17191a" d="M 287.675781 65.515625 C 287.050781 65.632812 286.816406 66.101562 286.816406 66.472656 C 286.816406 66.941406 287.1875 67.097656 287.460938 67.097656 C 288.042969 67.097656 288.453125 66.589844 288.453125 66.0625 C 288.453125 65.242188 287.519531 64.871094 286.699219 64.871094 C 285.507812 64.871094 284.84375 66.042969 284.667969 66.414062 C 284.21875 64.949219 283.007812 64.871094 282.65625 64.871094 C 280.664062 64.871094 279.613281 67.433594 279.613281 67.863281 C 279.613281 67.941406 279.691406 68.039062 279.828125 68.039062 C 279.984375 68.039062 280.023438 67.921875 280.0625 67.84375 C 280.722656 65.671875 282.03125 65.261719 282.597656 65.261719 C 283.476562 65.261719 283.652344 66.082031 283.652344 66.550781 C 283.652344 66.980469 283.535156 67.433594 283.300781 68.371094 L 282.636719 71.050781 C 282.34375 72.222656 281.777344 73.296875 280.742188 73.296875 C 280.644531 73.296875 280.160156 73.296875 279.75 73.042969 C 280.449219 72.90625 280.605469 72.320312 280.605469 72.085938 C 280.605469 71.695312 280.316406 71.460938 279.945312 71.460938 C 279.476562 71.460938 278.96875 71.871094 278.96875 72.496094 C 278.96875 73.316406 279.886719 73.691406 280.722656 73.691406 C 281.660156 73.691406 282.324219 72.945312 282.734375 72.144531 C 283.046875 73.296875 284.023438 73.691406 284.746094 73.691406 C 286.738281 73.691406 287.792969 71.128906 287.792969 70.699219 C 287.792969 70.601562 287.714844 70.523438 287.597656 70.523438 C 287.421875 70.523438 287.402344 70.621094 287.34375 70.777344 C 286.816406 72.496094 285.683594 73.296875 284.804688 73.296875 C 284.121094 73.296875 283.75 72.789062 283.75 71.988281 C 283.75 71.558594 283.828125 71.246094 284.140625 69.953125 L 284.824219 67.292969 C 285.117188 66.121094 285.78125 65.261719 286.679688 65.261719 C 286.71875 65.261719 287.265625 65.261719 287.675781 65.515625 Z M 287.675781 65.515625 " fill-opacity="1" fill-rule="nonzero"/><path fill="#17191a" d="M 301.410156 68.976562 L 306.796875 68.976562 C 307.070312 68.976562 307.421875 68.976562 307.421875 68.625 C 307.421875 68.253906 307.089844 68.253906 306.796875 68.253906 L 301.410156 68.253906 L 301.410156 62.855469 C 301.410156 62.582031 301.410156 62.230469 301.058594 62.230469 C 300.6875 62.230469 300.6875 62.5625 300.6875 62.855469 L 300.6875 68.253906 L 295.300781 68.253906 C 295.027344 68.253906 294.675781 68.253906 294.675781 68.605469 C 294.675781 68.976562 295.007812 68.976562 295.300781 68.976562 L 300.6875 68.976562 L 300.6875 74.375 C 300.6875 74.648438 300.6875 75 301.039062 75 C 301.410156 75 301.410156 74.667969 301.410156 74.375 Z M 301.410156 68.976562 " fill-opacity="1" fill-rule="nonzero"/><path fill="#17191a" d="M 316.417969 66.472656 C 316.085938 66.492188 316.007812 66.511719 316.007812 66.6875 C 316.007812 66.882812 316.105469 66.882812 316.457031 66.882812 L 317.355469 66.882812 C 319.015625 66.882812 319.757812 68.253906 319.757812 70.128906 C 319.757812 72.691406 318.429688 73.375 317.472656 73.375 C 316.535156 73.375 314.933594 72.925781 314.367188 71.636719 C 314.992188 71.734375 315.558594 71.382812 315.558594 70.679688 C 315.558594 70.109375 315.148438 69.71875 314.601562 69.71875 C 314.132812 69.71875 313.628906 69.992188 313.628906 70.738281 C 313.628906 72.476562 315.363281 73.90625 317.53125 73.90625 C 319.855469 73.90625 321.570312 72.125 321.570312 70.148438 C 321.570312 68.351562 320.128906 66.941406 318.253906 66.609375 C 319.953125 66.121094 321.046875 64.695312 321.046875 63.167969 C 321.046875 61.625 319.445312 60.488281 317.550781 60.488281 C 315.597656 60.488281 314.152344 61.683594 314.152344 63.109375 C 314.152344 63.890625 314.757812 64.046875 315.050781 64.046875 C 315.460938 64.046875 315.929688 63.753906 315.929688 63.167969 C 315.929688 62.542969 315.460938 62.269531 315.03125 62.269531 C 314.914062 62.269531 314.875 62.269531 314.816406 62.289062 C 315.558594 60.957031 317.394531 60.957031 317.492188 60.957031 C 318.136719 60.957031 319.40625 61.253906 319.40625 63.167969 C 319.40625 63.539062 319.347656 64.636719 318.78125 65.476562 C 318.195312 66.335938 317.53125 66.394531 317.003906 66.414062 Z M 316.417969 66.472656 " fill-opacity="1" fill-rule="nonzero"/></svg>