<svg xmlns="http://www.w3.org/2000/svg" xmlns:xlink="http://www.w3.org/1999/xlink" width="500" zoomAndPan="magnify" viewBox="0 0 375 74.999997" height="100" preserveAspectRatio="xMidYMid meet" version="1.0"><defs><g/><clipPath id="228fb5dc34"><path d="M 178 37.5 L 185 37.5 L 185 56 L 178 56 Z M 178 37.5 " clip-rule="nonzero"/></clipPath><clipPath id="86fc913ff9"><path d="M 225 39 L 242 39 L 242 59.25 L 225 59.25 Z M 225 39 " clip-rule="nonzero"/></clipPath></defs><g fill="#17191a" fill-opacity="1"><g transform="translate(0.0000075, 16.199998)"><g><path d="M 3.421875 -7.1875 L 4.65625 -7.1875 C 5.414062 -7.195312 6.015625 -7.398438 6.453125 -7.796875 C 6.898438 -8.191406 7.125 -8.722656 7.125 -9.390625 C 7.125 -10.890625 6.375 -11.640625 4.875 -11.640625 C 4.175781 -11.640625 3.613281 -11.4375 3.1875 -11.03125 C 2.769531 -10.632812 2.5625 -10.101562 2.5625 -9.4375 L 0.9375 -9.4375 C 0.9375 -10.445312 1.304688 -11.285156 2.046875 -11.953125 C 2.796875 -12.628906 3.738281 -12.96875 4.875 -12.96875 C 6.082031 -12.96875 7.03125 -12.648438 7.71875 -12.015625 C 8.40625 -11.378906 8.75 -10.492188 8.75 -9.359375 C 8.75 -8.796875 8.566406 -8.253906 8.203125 -7.734375 C 7.847656 -7.210938 7.359375 -6.820312 6.734375 -6.5625 C 7.429688 -6.34375 7.972656 -5.972656 8.359375 -5.453125 C 8.742188 -4.941406 8.9375 -4.3125 8.9375 -3.5625 C 8.9375 -2.414062 8.5625 -1.503906 7.8125 -0.828125 C 7.0625 -0.160156 6.082031 0.171875 4.875 0.171875 C 3.675781 0.171875 2.703125 -0.148438 1.953125 -0.796875 C 1.203125 -1.453125 0.828125 -2.3125 0.828125 -3.375 L 2.46875 -3.375 C 2.46875 -2.695312 2.6875 -2.15625 3.125 -1.75 C 3.5625 -1.351562 4.148438 -1.15625 4.890625 -1.15625 C 5.671875 -1.15625 6.269531 -1.359375 6.6875 -1.765625 C 7.101562 -2.171875 7.3125 -2.757812 7.3125 -3.53125 C 7.3125 -4.28125 7.082031 -4.851562 6.625 -5.25 C 6.164062 -5.644531 5.507812 -5.847656 4.65625 -5.859375 L 3.421875 -5.859375 Z M 3.421875 -7.1875 "/></g></g></g><g fill="#17191a" fill-opacity="1"><g transform="translate(10.100848, 16.199998)"><g><path d="M 4.984375 -5.109375 C 4.984375 -3.796875 4.8125 -2.539062 4.46875 -1.34375 C 4.125 -0.144531 3.597656 0.957031 2.890625 1.96875 C 2.191406 2.976562 1.453125 3.695312 0.671875 4.125 L 0.328125 3.140625 C 1.234375 2.441406 1.957031 1.367188 2.5 -0.078125 C 3.050781 -1.535156 3.332031 -3.15625 3.34375 -4.9375 L 3.34375 -5.21875 C 3.34375 -6.445312 3.210938 -7.585938 2.953125 -8.640625 C 2.703125 -9.703125 2.347656 -10.648438 1.890625 -11.484375 C 1.429688 -12.328125 0.910156 -12.984375 0.328125 -13.453125 L 0.671875 -14.4375 C 1.453125 -14.007812 2.191406 -13.296875 2.890625 -12.296875 C 3.585938 -11.296875 4.109375 -10.191406 4.453125 -8.984375 C 4.804688 -7.773438 4.984375 -6.484375 4.984375 -5.109375 Z M 4.984375 -5.109375 "/></g></g></g><g fill="#17191a" fill-opacity="1"><g transform="translate(16.354586, 16.199998)"><g/></g></g><g fill="#17191a" fill-opacity="1"><g transform="translate(20.807745, 16.199998)"><g><path d="M 6.171875 -5.171875 L 3.171875 -5.171875 L 3.171875 0 L 1.484375 0 L 1.484375 -12.796875 L 5.71875 -12.796875 C 7.15625 -12.796875 8.257812 -12.46875 9.03125 -11.8125 C 9.8125 -11.15625 10.203125 -10.203125 10.203125 -8.953125 C 10.203125 -8.148438 9.984375 -7.453125 9.546875 -6.859375 C 9.117188 -6.273438 8.523438 -5.832031 7.765625 -5.53125 L 10.765625 -0.109375 L 10.765625 0 L 8.953125 0 Z M 3.171875 -6.5625 L 5.765625 -6.5625 C 6.597656 -6.5625 7.265625 -6.773438 7.765625 -7.203125 C 8.265625 -7.640625 8.515625 -8.222656 8.515625 -8.953125 C 8.515625 -9.742188 8.273438 -10.347656 7.796875 -10.765625 C 7.328125 -11.191406 6.644531 -11.40625 5.75 -11.40625 L 3.171875 -11.40625 Z M 3.171875 -6.5625 "/></g></g></g><g fill="#17191a" fill-opacity="1"><g transform="translate(31.883542, 16.199998)"><g><path d="M 2.90625 -9.515625 L 2.90625 1.09375 C 2.90625 2.925781 2.078125 3.84375 0.421875 3.84375 C 0.0664062 3.84375 -0.265625 3.789062 -0.578125 3.6875 L -0.578125 2.375 C -0.390625 2.425781 -0.140625 2.453125 0.171875 2.453125 C 0.535156 2.453125 0.8125 2.351562 1 2.15625 C 1.1875 1.957031 1.28125 1.617188 1.28125 1.140625 L 1.28125 -9.515625 Z M 1.109375 -12.03125 C 1.109375 -12.289062 1.1875 -12.507812 1.34375 -12.6875 C 1.507812 -12.875 1.75 -12.96875 2.0625 -12.96875 C 2.382812 -12.96875 2.625 -12.875 2.78125 -12.6875 C 2.945312 -12.507812 3.03125 -12.289062 3.03125 -12.03125 C 3.03125 -11.769531 2.945312 -11.550781 2.78125 -11.375 C 2.625 -11.195312 2.382812 -11.109375 2.0625 -11.109375 C 1.75 -11.109375 1.507812 -11.195312 1.34375 -11.375 C 1.1875 -11.550781 1.109375 -11.769531 1.109375 -12.03125 Z M 1.109375 -12.03125 "/></g></g></g><g fill="#17191a" fill-opacity="1"><g transform="translate(36.178601, 16.199998)"><g><path d="M 5.171875 0.171875 C 3.890625 0.171875 2.84375 -0.25 2.03125 -1.09375 C 1.21875 -1.9375 0.8125 -3.066406 0.8125 -4.484375 L 0.8125 -4.796875 C 0.8125 -5.734375 0.992188 -6.570312 1.359375 -7.3125 C 1.722656 -8.050781 2.226562 -8.628906 2.875 -9.046875 C 3.519531 -9.472656 4.21875 -9.6875 4.96875 -9.6875 C 6.207031 -9.6875 7.171875 -9.28125 7.859375 -8.46875 C 8.546875 -7.65625 8.890625 -6.488281 8.890625 -4.96875 L 8.890625 -4.296875 L 2.4375 -4.296875 C 2.46875 -3.359375 2.742188 -2.597656 3.265625 -2.015625 C 3.785156 -1.441406 4.453125 -1.15625 5.265625 -1.15625 C 5.835938 -1.15625 6.320312 -1.269531 6.71875 -1.5 C 7.125 -1.738281 7.472656 -2.050781 7.765625 -2.4375 L 8.765625 -1.65625 C 7.960938 -0.4375 6.765625 0.171875 5.171875 0.171875 Z M 4.96875 -8.34375 C 4.3125 -8.34375 3.757812 -8.101562 3.3125 -7.625 C 2.875 -7.15625 2.601562 -6.488281 2.5 -5.625 L 7.265625 -5.625 L 7.265625 -5.75 C 7.210938 -6.570312 6.988281 -7.207031 6.59375 -7.65625 C 6.195312 -8.113281 5.65625 -8.34375 4.96875 -8.34375 Z M 4.96875 -8.34375 "/></g></g></g><g fill="#17191a" fill-opacity="1"><g transform="translate(45.70853, 16.199998)"><g><path d="M 6.765625 -2.515625 C 6.765625 -2.960938 6.597656 -3.304688 6.265625 -3.546875 C 5.941406 -3.785156 5.367188 -3.992188 4.546875 -4.171875 C 3.722656 -4.347656 3.066406 -4.554688 2.578125 -4.796875 C 2.097656 -5.046875 1.738281 -5.34375 1.5 -5.6875 C 1.269531 -6.03125 1.15625 -6.4375 1.15625 -6.90625 C 1.15625 -7.675781 1.484375 -8.332031 2.140625 -8.875 C 2.804688 -9.414062 3.648438 -9.6875 4.671875 -9.6875 C 5.753906 -9.6875 6.628906 -9.40625 7.296875 -8.84375 C 7.972656 -8.289062 8.3125 -7.582031 8.3125 -6.71875 L 6.671875 -6.71875 C 6.671875 -7.164062 6.476562 -7.546875 6.09375 -7.859375 C 5.71875 -8.179688 5.242188 -8.34375 4.671875 -8.34375 C 4.078125 -8.34375 3.613281 -8.210938 3.28125 -7.953125 C 2.945312 -7.703125 2.78125 -7.367188 2.78125 -6.953125 C 2.78125 -6.554688 2.9375 -6.257812 3.25 -6.0625 C 3.5625 -5.863281 4.125 -5.671875 4.9375 -5.484375 C 5.75 -5.304688 6.40625 -5.09375 6.90625 -4.84375 C 7.414062 -4.59375 7.789062 -4.289062 8.03125 -3.9375 C 8.269531 -3.582031 8.390625 -3.148438 8.390625 -2.640625 C 8.390625 -1.785156 8.050781 -1.101562 7.375 -0.59375 C 6.695312 -0.0820312 5.816406 0.171875 4.734375 0.171875 C 3.972656 0.171875 3.296875 0.0351562 2.703125 -0.234375 C 2.117188 -0.503906 1.660156 -0.878906 1.328125 -1.359375 C 0.992188 -1.835938 0.828125 -2.359375 0.828125 -2.921875 L 2.46875 -2.921875 C 2.488281 -2.378906 2.703125 -1.945312 3.109375 -1.625 C 3.523438 -1.3125 4.066406 -1.15625 4.734375 -1.15625 C 5.347656 -1.15625 5.835938 -1.28125 6.203125 -1.53125 C 6.578125 -1.78125 6.765625 -2.109375 6.765625 -2.515625 Z M 4.9375 -12.015625 L 6.25 -13.5 L 7.65625 -13.5 L 7.65625 -13.421875 L 5.421875 -11.015625 L 4.4375 -11.015625 L 2.21875 -13.421875 L 2.21875 -13.5 L 3.609375 -13.5 Z M 4.9375 -12.015625 "/></g></g></g><g fill="#17191a" fill-opacity="1"><g transform="translate(54.983737, 16.199998)"><g><path d="M 5.171875 0.171875 C 3.890625 0.171875 2.84375 -0.25 2.03125 -1.09375 C 1.21875 -1.9375 0.8125 -3.066406 0.8125 -4.484375 L 0.8125 -4.796875 C 0.8125 -5.734375 0.992188 -6.570312 1.359375 -7.3125 C 1.722656 -8.050781 2.226562 -8.628906 2.875 -9.046875 C 3.519531 -9.472656 4.21875 -9.6875 4.96875 -9.6875 C 6.207031 -9.6875 7.171875 -9.28125 7.859375 -8.46875 C 8.546875 -7.65625 8.890625 -6.488281 8.890625 -4.96875 L 8.890625 -4.296875 L 2.4375 -4.296875 C 2.46875 -3.359375 2.742188 -2.597656 3.265625 -2.015625 C 3.785156 -1.441406 4.453125 -1.15625 5.265625 -1.15625 C 5.835938 -1.15625 6.320312 -1.269531 6.71875 -1.5 C 7.125 -1.738281 7.472656 -2.050781 7.765625 -2.4375 L 8.765625 -1.65625 C 7.960938 -0.4375 6.765625 0.171875 5.171875 0.171875 Z M 4.96875 -8.34375 C 4.3125 -8.34375 3.757812 -8.101562 3.3125 -7.625 C 2.875 -7.15625 2.601562 -6.488281 2.5 -5.625 L 7.265625 -5.625 L 7.265625 -5.75 C 7.210938 -6.570312 6.988281 -7.207031 6.59375 -7.65625 C 6.195312 -8.113281 5.65625 -8.34375 4.96875 -8.34375 Z M 4.96875 -8.34375 "/></g></g></g><g fill="#17191a" fill-opacity="1"><g transform="translate(64.513667, 16.199998)"><g><path d="M 2.765625 -9.515625 L 2.828125 -8.3125 C 3.546875 -9.226562 4.492188 -9.6875 5.671875 -9.6875 C 7.679688 -9.6875 8.691406 -8.550781 8.703125 -6.28125 L 8.703125 0 L 7.078125 0 L 7.078125 -6.296875 C 7.078125 -6.984375 6.921875 -7.488281 6.609375 -7.8125 C 6.304688 -8.144531 5.828125 -8.3125 5.171875 -8.3125 C 4.648438 -8.3125 4.1875 -8.171875 3.78125 -7.890625 C 3.382812 -7.609375 3.078125 -7.238281 2.859375 -6.78125 L 2.859375 0 L 1.234375 0 L 1.234375 -9.515625 Z M 2.765625 -9.515625 "/></g></g></g><g fill="#17191a" fill-opacity="1"><g transform="translate(74.43884, 16.199998)"><g><path d="M 2.90625 -9.515625 L 2.90625 1.09375 C 2.90625 2.925781 2.078125 3.84375 0.421875 3.84375 C 0.0664062 3.84375 -0.265625 3.789062 -0.578125 3.6875 L -0.578125 2.375 C -0.390625 2.425781 -0.140625 2.453125 0.171875 2.453125 C 0.535156 2.453125 0.8125 2.351562 1 2.15625 C 1.1875 1.957031 1.28125 1.617188 1.28125 1.140625 L 1.28125 -9.515625 Z M 1.109375 -12.03125 C 1.109375 -12.289062 1.1875 -12.507812 1.34375 -12.6875 C 1.507812 -12.875 1.75 -12.96875 2.0625 -12.96875 C 2.382812 -12.96875 2.625 -12.875 2.78125 -12.6875 C 2.945312 -12.507812 3.03125 -12.289062 3.03125 -12.03125 C 3.03125 -11.769531 2.945312 -11.550781 2.78125 -11.375 C 2.625 -11.195312 2.382812 -11.109375 2.0625 -11.109375 C 1.75 -11.109375 1.507812 -11.195312 1.34375 -11.375 C 1.1875 -11.550781 1.109375 -11.769531 1.109375 -12.03125 Z M 1.109375 -12.03125 "/></g></g></g><g fill="#17191a" fill-opacity="1"><g transform="translate(78.733899, 16.199998)"><g><path d="M 5.171875 0.171875 C 3.890625 0.171875 2.84375 -0.25 2.03125 -1.09375 C 1.21875 -1.9375 0.8125 -3.066406 0.8125 -4.484375 L 0.8125 -4.796875 C 0.8125 -5.734375 0.992188 -6.570312 1.359375 -7.3125 C 1.722656 -8.050781 2.226562 -8.628906 2.875 -9.046875 C 3.519531 -9.472656 4.21875 -9.6875 4.96875 -9.6875 C 6.207031 -9.6875 7.171875 -9.28125 7.859375 -8.46875 C 8.546875 -7.65625 8.890625 -6.488281 8.890625 -4.96875 L 8.890625 -4.296875 L 2.4375 -4.296875 C 2.46875 -3.359375 2.742188 -2.597656 3.265625 -2.015625 C 3.785156 -1.441406 4.453125 -1.15625 5.265625 -1.15625 C 5.835938 -1.15625 6.320312 -1.269531 6.71875 -1.5 C 7.125 -1.738281 7.472656 -2.050781 7.765625 -2.4375 L 8.765625 -1.65625 C 7.960938 -0.4375 6.765625 0.171875 5.171875 0.171875 Z M 4.96875 -8.34375 C 4.3125 -8.34375 3.757812 -8.101562 3.3125 -7.625 C 2.875 -7.15625 2.601562 -6.488281 2.5 -5.625 L 7.265625 -5.625 L 7.265625 -5.75 C 7.210938 -6.570312 6.988281 -7.207031 6.59375 -7.65625 C 6.195312 -8.113281 5.65625 -8.34375 4.96875 -8.34375 Z M 4.96875 -8.34375 "/></g></g></g><g fill="#17191a" fill-opacity="1"><g transform="translate(88.263829, 16.199998)"><g/></g></g><g fill="#17191a" fill-opacity="1"><g transform="translate(92.716988, 16.199998)"><g><path d="M 6.765625 -2.515625 C 6.765625 -2.960938 6.597656 -3.304688 6.265625 -3.546875 C 5.941406 -3.785156 5.367188 -3.992188 4.546875 -4.171875 C 3.722656 -4.347656 3.066406 -4.554688 2.578125 -4.796875 C 2.097656 -5.046875 1.738281 -5.34375 1.5 -5.6875 C 1.269531 -6.03125 1.15625 -6.4375 1.15625 -6.90625 C 1.15625 -7.675781 1.484375 -8.332031 2.140625 -8.875 C 2.804688 -9.414062 3.648438 -9.6875 4.671875 -9.6875 C 5.753906 -9.6875 6.628906 -9.40625 7.296875 -8.84375 C 7.972656 -8.289062 8.3125 -7.582031 8.3125 -6.71875 L 6.671875 -6.71875 C 6.671875 -7.164062 6.476562 -7.546875 6.09375 -7.859375 C 5.71875 -8.179688 5.242188 -8.34375 4.671875 -8.34375 C 4.078125 -8.34375 3.613281 -8.210938 3.28125 -7.953125 C 2.945312 -7.703125 2.78125 -7.367188 2.78125 -6.953125 C 2.78125 -6.554688 2.9375 -6.257812 3.25 -6.0625 C 3.5625 -5.863281 4.125 -5.671875 4.9375 -5.484375 C 5.75 -5.304688 6.40625 -5.09375 6.90625 -4.84375 C 7.414062 -4.59375 7.789062 -4.289062 8.03125 -3.9375 C 8.269531 -3.582031 8.390625 -3.148438 8.390625 -2.640625 C 8.390625 -1.785156 8.050781 -1.101562 7.375 -0.59375 C 6.695312 -0.0820312 5.816406 0.171875 4.734375 0.171875 C 3.972656 0.171875 3.296875 0.0351562 2.703125 -0.234375 C 2.117188 -0.503906 1.660156 -0.878906 1.328125 -1.359375 C 0.992188 -1.835938 0.828125 -2.359375 0.828125 -2.921875 L 2.46875 -2.921875 C 2.488281 -2.378906 2.703125 -1.945312 3.109375 -1.625 C 3.523438 -1.3125 4.066406 -1.15625 4.734375 -1.15625 C 5.347656 -1.15625 5.835938 -1.28125 6.203125 -1.53125 C 6.578125 -1.78125 6.765625 -2.109375 6.765625 -2.515625 Z M 6.765625 -2.515625 "/></g></g></g><g fill="#17191a" fill-opacity="1"><g transform="translate(101.992194, 16.199998)"><g><path d="M 3 0 L 1.375 0 L 1.375 -13.5 L 3 -13.5 Z M 3 0 "/></g></g></g><g fill="#17191a" fill-opacity="1"><g transform="translate(106.35752, 16.199998)"><g><path d="M 2.90625 -9.515625 L 2.90625 1.09375 C 2.90625 2.925781 2.078125 3.84375 0.421875 3.84375 C 0.0664062 3.84375 -0.265625 3.789062 -0.578125 3.6875 L -0.578125 2.375 C -0.390625 2.425781 -0.140625 2.453125 0.171875 2.453125 C 0.535156 2.453125 0.8125 2.351562 1 2.15625 C 1.1875 1.957031 1.28125 1.617188 1.28125 1.140625 L 1.28125 -9.515625 Z M 1.109375 -12.03125 C 1.109375 -12.289062 1.1875 -12.507812 1.34375 -12.6875 C 1.507812 -12.875 1.75 -12.96875 2.0625 -12.96875 C 2.382812 -12.96875 2.625 -12.875 2.78125 -12.6875 C 2.945312 -12.507812 3.03125 -12.289062 3.03125 -12.03125 C 3.03125 -11.769531 2.945312 -11.550781 2.78125 -11.375 C 2.625 -11.195312 2.382812 -11.109375 2.0625 -11.109375 C 1.75 -11.109375 1.507812 -11.195312 1.34375 -11.375 C 1.1875 -11.550781 1.109375 -11.769531 1.109375 -12.03125 Z M 1.109375 -12.03125 "/></g></g></g><g fill="#17191a" fill-opacity="1"><g transform="translate(110.652579, 16.199998)"><g><path d="M 5.171875 0.171875 C 3.890625 0.171875 2.84375 -0.25 2.03125 -1.09375 C 1.21875 -1.9375 0.8125 -3.066406 0.8125 -4.484375 L 0.8125 -4.796875 C 0.8125 -5.734375 0.992188 -6.570312 1.359375 -7.3125 C 1.722656 -8.050781 2.226562 -8.628906 2.875 -9.046875 C 3.519531 -9.472656 4.21875 -9.6875 4.96875 -9.6875 C 6.207031 -9.6875 7.171875 -9.28125 7.859375 -8.46875 C 8.546875 -7.65625 8.890625 -6.488281 8.890625 -4.96875 L 8.890625 -4.296875 L 2.4375 -4.296875 C 2.46875 -3.359375 2.742188 -2.597656 3.265625 -2.015625 C 3.785156 -1.441406 4.453125 -1.15625 5.265625 -1.15625 C 5.835938 -1.15625 6.320312 -1.269531 6.71875 -1.5 C 7.125 -1.738281 7.472656 -2.050781 7.765625 -2.4375 L 8.765625 -1.65625 C 7.960938 -0.4375 6.765625 0.171875 5.171875 0.171875 Z M 4.96875 -8.34375 C 4.3125 -8.34375 3.757812 -8.101562 3.3125 -7.625 C 2.875 -7.15625 2.601562 -6.488281 2.5 -5.625 L 7.265625 -5.625 L 7.265625 -5.75 C 7.210938 -6.570312 6.988281 -7.207031 6.59375 -7.65625 C 6.195312 -8.113281 5.65625 -8.34375 4.96875 -8.34375 Z M 4.96875 -8.34375 "/></g></g></g><g fill="#17191a" fill-opacity="1"><g transform="translate(120.182508, 16.199998)"><g><path d="M 0.828125 -4.828125 C 0.828125 -6.285156 1.171875 -7.457031 1.859375 -8.34375 C 2.554688 -9.238281 3.46875 -9.6875 4.59375 -9.6875 C 5.707031 -9.6875 6.585938 -9.304688 7.234375 -8.546875 L 7.234375 -13.5 L 8.859375 -13.5 L 8.859375 0 L 7.359375 0 L 7.28125 -1.015625 C 6.632812 -0.222656 5.734375 0.171875 4.578125 0.171875 C 3.472656 0.171875 2.570312 -0.273438 1.875 -1.171875 C 1.175781 -2.078125 0.828125 -3.257812 0.828125 -4.71875 Z M 2.46875 -4.65625 C 2.46875 -3.570312 2.6875 -2.722656 3.125 -2.109375 C 3.570312 -1.503906 4.1875 -1.203125 4.96875 -1.203125 C 6 -1.203125 6.753906 -1.664062 7.234375 -2.59375 L 7.234375 -6.96875 C 6.742188 -7.863281 6 -8.3125 5 -8.3125 C 4.195312 -8.3125 3.570312 -8 3.125 -7.375 C 2.6875 -6.757812 2.46875 -5.851562 2.46875 -4.65625 Z M 2.46875 -4.65625 "/></g></g></g><g fill="#17191a" fill-opacity="1"><g transform="translate(130.327271, 16.199998)"><g><path d="M 5.171875 0.171875 C 3.890625 0.171875 2.84375 -0.25 2.03125 -1.09375 C 1.21875 -1.9375 0.8125 -3.066406 0.8125 -4.484375 L 0.8125 -4.796875 C 0.8125 -5.734375 0.992188 -6.570312 1.359375 -7.3125 C 1.722656 -8.050781 2.226562 -8.628906 2.875 -9.046875 C 3.519531 -9.472656 4.21875 -9.6875 4.96875 -9.6875 C 6.207031 -9.6875 7.171875 -9.28125 7.859375 -8.46875 C 8.546875 -7.65625 8.890625 -6.488281 8.890625 -4.96875 L 8.890625 -4.296875 L 2.4375 -4.296875 C 2.46875 -3.359375 2.742188 -2.597656 3.265625 -2.015625 C 3.785156 -1.441406 4.453125 -1.15625 5.265625 -1.15625 C 5.835938 -1.15625 6.320312 -1.269531 6.71875 -1.5 C 7.125 -1.738281 7.472656 -2.050781 7.765625 -2.4375 L 8.765625 -1.65625 C 7.960938 -0.4375 6.765625 0.171875 5.171875 0.171875 Z M 4.96875 -8.34375 C 4.3125 -8.34375 3.757812 -8.101562 3.3125 -7.625 C 2.875 -7.15625 2.601562 -6.488281 2.5 -5.625 L 7.265625 -5.625 L 7.265625 -5.75 C 7.210938 -6.570312 6.988281 -7.207031 6.59375 -7.65625 C 6.195312 -8.113281 5.65625 -8.34375 4.96875 -8.34375 Z M 4.96875 -8.34375 "/></g></g></g><g fill="#17191a" fill-opacity="1"><g transform="translate(139.857201, 16.199998)"><g><path d="M 5.046875 -1.15625 C 5.628906 -1.15625 6.132812 -1.328125 6.5625 -1.671875 C 7 -2.023438 7.238281 -2.46875 7.28125 -3 L 8.828125 -3 C 8.796875 -2.457031 8.609375 -1.9375 8.265625 -1.4375 C 7.921875 -0.945312 7.457031 -0.554688 6.875 -0.265625 C 6.300781 0.0234375 5.691406 0.171875 5.046875 0.171875 C 3.753906 0.171875 2.722656 -0.257812 1.953125 -1.125 C 1.191406 -1.988281 0.8125 -3.171875 0.8125 -4.671875 L 0.8125 -4.9375 C 0.8125 -5.863281 0.976562 -6.6875 1.3125 -7.40625 C 1.65625 -8.125 2.144531 -8.679688 2.78125 -9.078125 C 3.414062 -9.484375 4.164062 -9.6875 5.03125 -9.6875 C 6.101562 -9.6875 6.988281 -9.363281 7.6875 -8.71875 C 8.394531 -8.082031 8.773438 -7.253906 8.828125 -6.234375 L 7.28125 -6.234375 C 7.238281 -6.847656 7.003906 -7.351562 6.578125 -7.75 C 6.160156 -8.144531 5.644531 -8.34375 5.03125 -8.34375 C 4.207031 -8.34375 3.566406 -8.046875 3.109375 -7.453125 C 2.660156 -6.859375 2.4375 -6 2.4375 -4.875 L 2.4375 -4.578125 C 2.4375 -3.472656 2.660156 -2.625 3.109375 -2.03125 C 3.554688 -1.445312 4.203125 -1.15625 5.046875 -1.15625 Z M 5.484375 -13.5 L 7.453125 -13.5 L 5.09375 -10.921875 L 3.78125 -10.921875 Z M 5.484375 -13.5 "/></g></g></g><g fill="#17191a" fill-opacity="1"><g transform="translate(149.272941, 16.199998)"><g><path d="M 5.171875 0.171875 C 3.890625 0.171875 2.84375 -0.25 2.03125 -1.09375 C 1.21875 -1.9375 0.8125 -3.066406 0.8125 -4.484375 L 0.8125 -4.796875 C 0.8125 -5.734375 0.992188 -6.570312 1.359375 -7.3125 C 1.722656 -8.050781 2.226562 -8.628906 2.875 -9.046875 C 3.519531 -9.472656 4.21875 -9.6875 4.96875 -9.6875 C 6.207031 -9.6875 7.171875 -9.28125 7.859375 -8.46875 C 8.546875 -7.65625 8.890625 -6.488281 8.890625 -4.96875 L 8.890625 -4.296875 L 2.4375 -4.296875 C 2.46875 -3.359375 2.742188 -2.597656 3.265625 -2.015625 C 3.785156 -1.441406 4.453125 -1.15625 5.265625 -1.15625 C 5.835938 -1.15625 6.320312 -1.269531 6.71875 -1.5 C 7.125 -1.738281 7.472656 -2.050781 7.765625 -2.4375 L 8.765625 -1.65625 C 7.960938 -0.4375 6.765625 0.171875 5.171875 0.171875 Z M 4.96875 -8.34375 C 4.3125 -8.34375 3.757812 -8.101562 3.3125 -7.625 C 2.875 -7.15625 2.601562 -6.488281 2.5 -5.625 L 7.265625 -5.625 L 7.265625 -5.75 C 7.210938 -6.570312 6.988281 -7.207031 6.59375 -7.65625 C 6.195312 -8.113281 5.65625 -8.34375 4.96875 -8.34375 Z M 4.96875 -8.34375 "/></g></g></g><g fill="#17191a" fill-opacity="1"><g transform="translate(158.80287, 16.199998)"><g><path d="M 0.84375 -4.828125 C 0.84375 -6.316406 1.1875 -7.5 1.875 -8.375 C 2.5625 -9.25 3.46875 -9.6875 4.59375 -9.6875 C 5.757812 -9.6875 6.664062 -9.273438 7.3125 -8.453125 L 7.390625 -9.515625 L 8.875 -9.515625 L 8.875 -0.234375 C 8.875 1.003906 8.507812 1.976562 7.78125 2.6875 C 7.050781 3.394531 6.070312 3.75 4.84375 3.75 C 4.15625 3.75 3.484375 3.597656 2.828125 3.296875 C 2.171875 3.003906 1.671875 2.601562 1.328125 2.09375 L 2.171875 1.125 C 2.867188 1.988281 3.722656 2.421875 4.734375 2.421875 C 5.523438 2.421875 6.140625 2.195312 6.578125 1.75 C 7.023438 1.300781 7.25 0.675781 7.25 -0.125 L 7.25 -0.953125 C 6.59375 -0.203125 5.703125 0.171875 4.578125 0.171875 C 3.460938 0.171875 2.5625 -0.273438 1.875 -1.171875 C 1.1875 -2.066406 0.84375 -3.285156 0.84375 -4.828125 Z M 2.484375 -4.65625 C 2.484375 -3.582031 2.703125 -2.738281 3.140625 -2.125 C 3.578125 -1.507812 4.191406 -1.203125 4.984375 -1.203125 C 6.003906 -1.203125 6.757812 -1.671875 7.25 -2.609375 L 7.25 -6.9375 C 6.75 -7.851562 6 -8.3125 5 -8.3125 C 4.207031 -8.3125 3.585938 -8 3.140625 -7.375 C 2.703125 -6.757812 2.484375 -5.851562 2.484375 -4.65625 Z M 2.484375 -4.65625 "/></g></g></g><g fill="#17191a" fill-opacity="1"><g transform="translate(168.894933, 16.199998)"><g/></g></g><g fill="#17191a" fill-opacity="1"><g transform="translate(173.348092, 16.199998)"><g><path d="M 3 0 L 1.375 0 L 1.375 -9.515625 L 3 -9.515625 Z M 1.234375 -12.03125 C 1.234375 -12.289062 1.3125 -12.507812 1.46875 -12.6875 C 1.632812 -12.875 1.875 -12.96875 2.1875 -12.96875 C 2.507812 -12.96875 2.753906 -12.875 2.921875 -12.6875 C 3.085938 -12.507812 3.171875 -12.289062 3.171875 -12.03125 C 3.171875 -11.769531 3.085938 -11.550781 2.921875 -11.375 C 2.753906 -11.195312 2.507812 -11.109375 2.1875 -11.109375 C 1.875 -11.109375 1.632812 -11.195312 1.46875 -11.375 C 1.3125 -11.550781 1.234375 -11.769531 1.234375 -12.03125 Z M 1.234375 -12.03125 "/></g></g></g><g fill="#17191a" fill-opacity="1"><g transform="translate(177.713418, 16.199998)"><g><path d="M 2.765625 -1.328125 L 8.328125 -1.328125 L 8.328125 0 L 0.78125 0 L 0.78125 -1.203125 L 6.015625 -8.171875 L 0.859375 -8.171875 L 0.859375 -9.515625 L 8.0625 -9.515625 L 8.0625 -8.359375 Z M 2.765625 -1.328125 "/></g></g></g><g fill="#17191a" fill-opacity="1"><g transform="translate(186.628513, 16.199998)"><g><path d="M 5.828125 -8.046875 C 5.578125 -8.085938 5.3125 -8.109375 5.03125 -8.109375 C 3.957031 -8.109375 3.234375 -7.65625 2.859375 -6.75 L 2.859375 0 L 1.234375 0 L 1.234375 -9.515625 L 2.8125 -9.515625 L 2.84375 -8.40625 C 3.375 -9.257812 4.128906 -9.6875 5.109375 -9.6875 C 5.421875 -9.6875 5.660156 -9.644531 5.828125 -9.5625 Z M 5.828125 -8.046875 "/></g></g></g><g fill="#17191a" fill-opacity="1"><g transform="translate(192.715385, 16.199998)"><g><path d="M 7.109375 0 C 7.015625 -0.1875 6.9375 -0.519531 6.875 -1 C 6.113281 -0.21875 5.210938 0.171875 4.171875 0.171875 C 3.234375 0.171875 2.460938 -0.09375 1.859375 -0.625 C 1.253906 -1.15625 0.953125 -1.828125 0.953125 -2.640625 C 0.953125 -3.628906 1.328125 -4.394531 2.078125 -4.9375 C 2.835938 -5.488281 3.898438 -5.765625 5.265625 -5.765625 L 6.84375 -5.765625 L 6.84375 -6.515625 C 6.84375 -7.078125 6.671875 -7.523438 6.328125 -7.859375 C 5.992188 -8.203125 5.492188 -8.375 4.828125 -8.375 C 4.253906 -8.375 3.769531 -8.226562 3.375 -7.9375 C 2.976562 -7.644531 2.78125 -7.289062 2.78125 -6.875 L 1.15625 -6.875 C 1.15625 -7.34375 1.320312 -7.796875 1.65625 -8.234375 C 1.988281 -8.679688 2.441406 -9.035156 3.015625 -9.296875 C 3.597656 -9.554688 4.238281 -9.6875 4.9375 -9.6875 C 6.03125 -9.6875 6.882812 -9.410156 7.5 -8.859375 C 8.125 -8.316406 8.445312 -7.5625 8.46875 -6.59375 L 8.46875 -2.21875 C 8.46875 -1.351562 8.582031 -0.660156 8.8125 -0.140625 L 8.8125 0 Z M 4.40625 -1.234375 C 4.914062 -1.234375 5.398438 -1.363281 5.859375 -1.625 C 6.316406 -1.894531 6.644531 -2.238281 6.84375 -2.65625 L 6.84375 -4.609375 L 5.578125 -4.609375 C 3.578125 -4.609375 2.578125 -4.023438 2.578125 -2.859375 C 2.578125 -2.347656 2.75 -1.945312 3.09375 -1.65625 C 3.4375 -1.375 3.875 -1.234375 4.40625 -1.234375 Z M 4.40625 -1.234375 "/></g></g></g><g fill="#17191a" fill-opacity="1"><g transform="translate(202.500037, 16.199998)"><g><path d="M 2.765625 -1.328125 L 8.328125 -1.328125 L 8.328125 0 L 0.78125 0 L 0.78125 -1.203125 L 6.015625 -8.171875 L 0.859375 -8.171875 L 0.859375 -9.515625 L 8.0625 -9.515625 L 8.0625 -8.359375 Z M 2.765625 -1.328125 "/></g></g></g><g fill="#17191a" fill-opacity="1"><g transform="translate(211.415121, 16.199998)"><g><path d="M 7.109375 0 C 7.015625 -0.1875 6.9375 -0.519531 6.875 -1 C 6.113281 -0.21875 5.210938 0.171875 4.171875 0.171875 C 3.234375 0.171875 2.460938 -0.09375 1.859375 -0.625 C 1.253906 -1.15625 0.953125 -1.828125 0.953125 -2.640625 C 0.953125 -3.628906 1.328125 -4.394531 2.078125 -4.9375 C 2.835938 -5.488281 3.898438 -5.765625 5.265625 -5.765625 L 6.84375 -5.765625 L 6.84375 -6.515625 C 6.84375 -7.078125 6.671875 -7.523438 6.328125 -7.859375 C 5.992188 -8.203125 5.492188 -8.375 4.828125 -8.375 C 4.253906 -8.375 3.769531 -8.226562 3.375 -7.9375 C 2.976562 -7.644531 2.78125 -7.289062 2.78125 -6.875 L 1.15625 -6.875 C 1.15625 -7.34375 1.320312 -7.796875 1.65625 -8.234375 C 1.988281 -8.679688 2.441406 -9.035156 3.015625 -9.296875 C 3.597656 -9.554688 4.238281 -9.6875 4.9375 -9.6875 C 6.03125 -9.6875 6.882812 -9.410156 7.5 -8.859375 C 8.125 -8.316406 8.445312 -7.5625 8.46875 -6.59375 L 8.46875 -2.21875 C 8.46875 -1.351562 8.582031 -0.660156 8.8125 -0.140625 L 8.8125 0 Z M 4.40625 -1.234375 C 4.914062 -1.234375 5.398438 -1.363281 5.859375 -1.625 C 6.316406 -1.894531 6.644531 -2.238281 6.84375 -2.65625 L 6.84375 -4.609375 L 5.578125 -4.609375 C 3.578125 -4.609375 2.578125 -4.023438 2.578125 -2.859375 C 2.578125 -2.347656 2.75 -1.945312 3.09375 -1.65625 C 3.4375 -1.375 3.875 -1.234375 4.40625 -1.234375 Z M 4.40625 -1.234375 "/></g></g></g><g fill="#17191a" fill-opacity="1"><g transform="translate(221.199773, 16.199998)"><g/></g></g><g fill="#17191a" fill-opacity="1"><g transform="translate(225.652943, 16.199998)"><g><path d="M 2.765625 -9.515625 L 2.828125 -8.3125 C 3.546875 -9.226562 4.492188 -9.6875 5.671875 -9.6875 C 7.679688 -9.6875 8.691406 -8.550781 8.703125 -6.28125 L 8.703125 0 L 7.078125 0 L 7.078125 -6.296875 C 7.078125 -6.984375 6.921875 -7.488281 6.609375 -7.8125 C 6.304688 -8.144531 5.828125 -8.3125 5.171875 -8.3125 C 4.648438 -8.3125 4.1875 -8.171875 3.78125 -7.890625 C 3.382812 -7.609375 3.078125 -7.238281 2.859375 -6.78125 L 2.859375 0 L 1.234375 0 L 1.234375 -9.515625 Z M 2.765625 -9.515625 "/></g></g></g><g fill="#17191a" fill-opacity="1"><g transform="translate(235.578129, 16.199998)"><g><path d="M 7.109375 0 C 7.015625 -0.1875 6.9375 -0.519531 6.875 -1 C 6.113281 -0.21875 5.210938 0.171875 4.171875 0.171875 C 3.234375 0.171875 2.460938 -0.09375 1.859375 -0.625 C 1.253906 -1.15625 0.953125 -1.828125 0.953125 -2.640625 C 0.953125 -3.628906 1.328125 -4.394531 2.078125 -4.9375 C 2.835938 -5.488281 3.898438 -5.765625 5.265625 -5.765625 L 6.84375 -5.765625 L 6.84375 -6.515625 C 6.84375 -7.078125 6.671875 -7.523438 6.328125 -7.859375 C 5.992188 -8.203125 5.492188 -8.375 4.828125 -8.375 C 4.253906 -8.375 3.769531 -8.226562 3.375 -7.9375 C 2.976562 -7.644531 2.78125 -7.289062 2.78125 -6.875 L 1.15625 -6.875 C 1.15625 -7.34375 1.320312 -7.796875 1.65625 -8.234375 C 1.988281 -8.679688 2.441406 -9.035156 3.015625 -9.296875 C 3.597656 -9.554688 4.238281 -9.6875 4.9375 -9.6875 C 6.03125 -9.6875 6.882812 -9.410156 7.5 -8.859375 C 8.125 -8.316406 8.445312 -7.5625 8.46875 -6.59375 L 8.46875 -2.21875 C 8.46875 -1.351562 8.582031 -0.660156 8.8125 -0.140625 L 8.8125 0 Z M 4.40625 -1.234375 C 4.914062 -1.234375 5.398438 -1.363281 5.859375 -1.625 C 6.316406 -1.894531 6.644531 -2.238281 6.84375 -2.65625 L 6.84375 -4.609375 L 5.578125 -4.609375 C 3.578125 -4.609375 2.578125 -4.023438 2.578125 -2.859375 C 2.578125 -2.347656 2.75 -1.945312 3.09375 -1.65625 C 3.4375 -1.375 3.875 -1.234375 4.40625 -1.234375 Z M 4.40625 -1.234375 "/></g></g></g><g fill="#17191a" fill-opacity="1"><g transform="translate(245.362781, 16.199998)"><g><path d="M 9.265625 -4.65625 C 9.265625 -3.207031 8.929688 -2.039062 8.265625 -1.15625 C 7.609375 -0.269531 6.710938 0.171875 5.578125 0.171875 C 4.421875 0.171875 3.515625 -0.191406 2.859375 -0.921875 L 2.859375 3.65625 L 1.234375 3.65625 L 1.234375 -9.515625 L 2.71875 -9.515625 L 2.796875 -8.453125 C 3.453125 -9.273438 4.375 -9.6875 5.5625 -9.6875 C 6.695312 -9.6875 7.597656 -9.253906 8.265625 -8.390625 C 8.929688 -7.535156 9.265625 -6.335938 9.265625 -4.796875 Z M 7.640625 -4.828125 C 7.640625 -5.898438 7.410156 -6.75 6.953125 -7.375 C 6.492188 -8 5.867188 -8.3125 5.078125 -8.3125 C 4.085938 -8.3125 3.347656 -7.875 2.859375 -7 L 2.859375 -2.453125 C 3.347656 -1.585938 4.09375 -1.15625 5.09375 -1.15625 C 5.875 -1.15625 6.492188 -1.460938 6.953125 -2.078125 C 7.410156 -2.691406 7.640625 -3.609375 7.640625 -4.828125 Z M 7.640625 -4.828125 "/></g></g></g><g fill="#17191a" fill-opacity="1"><g transform="translate(255.454844, 16.199998)"><g><path d="M 3 0 L 1.375 0 L 1.375 -9.515625 L 3 -9.515625 Z M 1.234375 -12.03125 C 1.234375 -12.289062 1.3125 -12.507812 1.46875 -12.6875 C 1.632812 -12.875 1.875 -12.96875 2.1875 -12.96875 C 2.507812 -12.96875 2.753906 -12.875 2.921875 -12.6875 C 3.085938 -12.507812 3.171875 -12.289062 3.171875 -12.03125 C 3.171875 -11.769531 3.085938 -11.550781 2.921875 -11.375 C 2.753906 -11.195312 2.507812 -11.109375 2.1875 -11.109375 C 1.875 -11.109375 1.632812 -11.195312 1.46875 -11.375 C 1.3125 -11.550781 1.234375 -11.769531 1.234375 -12.03125 Z M 1.234375 -12.03125 "/></g></g></g><g fill="#17191a" fill-opacity="1"><g transform="translate(259.820169, 16.199998)"><g><path d="M 6.765625 -2.515625 C 6.765625 -2.960938 6.597656 -3.304688 6.265625 -3.546875 C 5.941406 -3.785156 5.367188 -3.992188 4.546875 -4.171875 C 3.722656 -4.347656 3.066406 -4.554688 2.578125 -4.796875 C 2.097656 -5.046875 1.738281 -5.34375 1.5 -5.6875 C 1.269531 -6.03125 1.15625 -6.4375 1.15625 -6.90625 C 1.15625 -7.675781 1.484375 -8.332031 2.140625 -8.875 C 2.804688 -9.414062 3.648438 -9.6875 4.671875 -9.6875 C 5.753906 -9.6875 6.628906 -9.40625 7.296875 -8.84375 C 7.972656 -8.289062 8.3125 -7.582031 8.3125 -6.71875 L 6.671875 -6.71875 C 6.671875 -7.164062 6.476562 -7.546875 6.09375 -7.859375 C 5.71875 -8.179688 5.242188 -8.34375 4.671875 -8.34375 C 4.078125 -8.34375 3.613281 -8.210938 3.28125 -7.953125 C 2.945312 -7.703125 2.78125 -7.367188 2.78125 -6.953125 C 2.78125 -6.554688 2.9375 -6.257812 3.25 -6.0625 C 3.5625 -5.863281 4.125 -5.671875 4.9375 -5.484375 C 5.75 -5.304688 6.40625 -5.09375 6.90625 -4.84375 C 7.414062 -4.59375 7.789062 -4.289062 8.03125 -3.9375 C 8.269531 -3.582031 8.390625 -3.148438 8.390625 -2.640625 C 8.390625 -1.785156 8.050781 -1.101562 7.375 -0.59375 C 6.695312 -0.0820312 5.816406 0.171875 4.734375 0.171875 C 3.972656 0.171875 3.296875 0.0351562 2.703125 -0.234375 C 2.117188 -0.503906 1.660156 -0.878906 1.328125 -1.359375 C 0.992188 -1.835938 0.828125 -2.359375 0.828125 -2.921875 L 2.46875 -2.921875 C 2.488281 -2.378906 2.703125 -1.945312 3.109375 -1.625 C 3.523438 -1.3125 4.066406 -1.15625 4.734375 -1.15625 C 5.347656 -1.15625 5.835938 -1.28125 6.203125 -1.53125 C 6.578125 -1.78125 6.765625 -2.109375 6.765625 -2.515625 Z M 4.9375 -12.015625 L 6.25 -13.5 L 7.65625 -13.5 L 7.65625 -13.421875 L 5.421875 -11.015625 L 4.4375 -11.015625 L 2.21875 -13.421875 L 2.21875 -13.5 L 3.609375 -13.5 Z M 4.9375 -12.015625 "/></g></g></g><g fill="#17191a" fill-opacity="1"><g transform="translate(269.095376, 16.199998)"><g><path d="M 3 0 L 1.375 0 L 1.375 -9.515625 L 3 -9.515625 Z M 1.234375 -12.03125 C 1.234375 -12.289062 1.3125 -12.507812 1.46875 -12.6875 C 1.632812 -12.875 1.875 -12.96875 2.1875 -12.96875 C 2.507812 -12.96875 2.753906 -12.875 2.921875 -12.6875 C 3.085938 -12.507812 3.171875 -12.289062 3.171875 -12.03125 C 3.171875 -11.769531 3.085938 -11.550781 2.921875 -11.375 C 2.753906 -11.195312 2.507812 -11.109375 2.1875 -11.109375 C 1.875 -11.109375 1.632812 -11.195312 1.46875 -11.375 C 1.3125 -11.550781 1.234375 -11.769531 1.234375 -12.03125 Z M 1.234375 -12.03125 "/></g></g></g><g fill="#17191a" fill-opacity="1"><g transform="translate(273.460702, 16.199998)"><g/></g></g><g fill="#17191a" fill-opacity="1"><g transform="translate(277.913849, 16.199998)"><g><path d="M 7.109375 -0.9375 C 6.472656 -0.195312 5.539062 0.171875 4.3125 0.171875 C 3.300781 0.171875 2.53125 -0.117188 2 -0.703125 C 1.46875 -1.296875 1.203125 -2.171875 1.203125 -3.328125 L 1.203125 -9.515625 L 2.828125 -9.515625 L 2.828125 -3.359375 C 2.828125 -1.921875 3.410156 -1.203125 4.578125 -1.203125 C 5.816406 -1.203125 6.644531 -1.664062 7.0625 -2.59375 L 7.0625 -9.515625 L 8.6875 -9.515625 L 8.6875 0 L 7.140625 0 Z M 7.109375 -0.9375 "/></g></g></g><g fill="#17191a" fill-opacity="1"><g transform="translate(287.830245, 16.199998)"><g/></g></g><g fill="#17191a" fill-opacity="1"><g transform="translate(292.283416, 16.199998)"><g><path d="M 0.796875 -4.84375 C 0.796875 -5.769531 0.976562 -6.601562 1.34375 -7.34375 C 1.71875 -8.09375 2.226562 -8.671875 2.875 -9.078125 C 3.53125 -9.484375 4.273438 -9.6875 5.109375 -9.6875 C 6.410156 -9.6875 7.457031 -9.238281 8.25 -8.34375 C 9.050781 -7.445312 9.453125 -6.253906 9.453125 -4.765625 L 9.453125 -4.65625 C 9.453125 -3.726562 9.273438 -2.894531 8.921875 -2.15625 C 8.566406 -1.425781 8.0625 -0.851562 7.40625 -0.4375 C 6.75 -0.03125 5.992188 0.171875 5.140625 0.171875 C 3.847656 0.171875 2.800781 -0.273438 2 -1.171875 C 1.195312 -2.066406 0.796875 -3.253906 0.796875 -4.734375 Z M 2.4375 -4.65625 C 2.4375 -3.59375 2.679688 -2.742188 3.171875 -2.109375 C 3.660156 -1.472656 4.316406 -1.15625 5.140625 -1.15625 C 5.960938 -1.15625 6.613281 -1.476562 7.09375 -2.125 C 7.582031 -2.769531 7.828125 -3.675781 7.828125 -4.84375 C 7.828125 -5.882812 7.578125 -6.726562 7.078125 -7.375 C 6.585938 -8.019531 5.929688 -8.34375 5.109375 -8.34375 C 4.304688 -8.34375 3.660156 -8.023438 3.171875 -7.390625 C 2.679688 -6.753906 2.4375 -5.84375 2.4375 -4.65625 Z M 2.4375 -4.65625 "/></g></g></g><g fill="#17191a" fill-opacity="1"><g transform="translate(302.542357, 16.199998)"><g><path d="M 9.28125 -4.65625 C 9.28125 -3.195312 8.945312 -2.023438 8.28125 -1.140625 C 7.613281 -0.265625 6.71875 0.171875 5.59375 0.171875 C 4.382812 0.171875 3.453125 -0.25 2.796875 -1.09375 L 2.71875 0 L 1.234375 0 L 1.234375 -13.5 L 2.859375 -13.5 L 2.859375 -8.46875 C 3.515625 -9.28125 4.414062 -9.6875 5.5625 -9.6875 C 6.71875 -9.6875 7.625 -9.25 8.28125 -8.375 C 8.945312 -7.5 9.28125 -6.304688 9.28125 -4.796875 Z M 7.65625 -4.828125 C 7.65625 -5.941406 7.441406 -6.800781 7.015625 -7.40625 C 6.585938 -8.007812 5.972656 -8.3125 5.171875 -8.3125 C 4.097656 -8.3125 3.328125 -7.8125 2.859375 -6.8125 L 2.859375 -2.703125 C 3.359375 -1.703125 4.132812 -1.203125 5.1875 -1.203125 C 5.96875 -1.203125 6.570312 -1.503906 7 -2.109375 C 7.4375 -2.710938 7.65625 -3.617188 7.65625 -4.828125 Z M 7.65625 -4.828125 "/></g></g></g><g fill="#17191a" fill-opacity="1"><g transform="translate(312.63442, 16.199998)"><g><path d="M 3 0 L 1.375 0 L 1.375 -13.5 L 3 -13.5 Z M 3 0 "/></g></g></g><g fill="#17191a" fill-opacity="1"><g transform="translate(316.999745, 16.199998)"><g><path d="M 3 0 L 1.375 0 L 1.375 -9.515625 L 3 -9.515625 Z M 1.234375 -12.03125 C 1.234375 -12.289062 1.3125 -12.507812 1.46875 -12.6875 C 1.632812 -12.875 1.875 -12.96875 2.1875 -12.96875 C 2.507812 -12.96875 2.753906 -12.875 2.921875 -12.6875 C 3.085938 -12.507812 3.171875 -12.289062 3.171875 -12.03125 C 3.171875 -11.769531 3.085938 -11.550781 2.921875 -11.375 C 2.753906 -11.195312 2.507812 -11.109375 2.1875 -11.109375 C 1.875 -11.109375 1.632812 -11.195312 1.46875 -11.375 C 1.3125 -11.550781 1.234375 -11.769531 1.234375 -12.03125 Z M 1.234375 -12.03125 "/></g></g></g><g fill="#17191a" fill-opacity="1"><g transform="translate(321.365071, 16.199998)"><g><path d="M 3.890625 -4.40625 L 2.859375 -3.34375 L 2.859375 0 L 1.234375 0 L 1.234375 -13.5 L 2.859375 -13.5 L 2.859375 -5.328125 L 3.734375 -6.375 L 6.703125 -9.515625 L 8.671875 -9.515625 L 4.96875 -5.53125 L 9.109375 0 L 7.203125 0 Z M 3.890625 -4.40625 "/></g></g></g><g fill="#17191a" fill-opacity="1"><g transform="translate(330.482189, 16.199998)"><g><path d="M 7.109375 -0.9375 C 6.472656 -0.195312 5.539062 0.171875 4.3125 0.171875 C 3.300781 0.171875 2.53125 -0.117188 2 -0.703125 C 1.46875 -1.296875 1.203125 -2.171875 1.203125 -3.328125 L 1.203125 -9.515625 L 2.828125 -9.515625 L 2.828125 -3.359375 C 2.828125 -1.921875 3.410156 -1.203125 4.578125 -1.203125 C 5.816406 -1.203125 6.644531 -1.664062 7.0625 -2.59375 L 7.0625 -9.515625 L 8.6875 -9.515625 L 8.6875 0 L 7.140625 0 Z M 7.109375 -0.9375 "/></g></g></g><g fill="#17191a" fill-opacity="1"><g transform="translate(0.0000075, 40.949996)"><g><path d="M 3 0 L 1.375 0 L 1.375 -9.515625 L 3 -9.515625 Z M 1.234375 -12.03125 C 1.234375 -12.289062 1.3125 -12.507812 1.46875 -12.6875 C 1.632812 -12.875 1.875 -12.96875 2.1875 -12.96875 C 2.507812 -12.96875 2.753906 -12.875 2.921875 -12.6875 C 3.085938 -12.507812 3.171875 -12.289062 3.171875 -12.03125 C 3.171875 -11.769531 3.085938 -11.550781 2.921875 -11.375 C 2.753906 -11.195312 2.507812 -11.109375 2.1875 -11.109375 C 1.875 -11.109375 1.632812 -11.195312 1.46875 -11.375 C 1.3125 -11.550781 1.234375 -11.769531 1.234375 -12.03125 Z M 1.234375 -12.03125 "/></g></g></g><g fill="#17191a" fill-opacity="1"><g transform="translate(4.365333, 40.949996)"><g><path d="M 2.765625 -9.515625 L 2.828125 -8.3125 C 3.546875 -9.226562 4.492188 -9.6875 5.671875 -9.6875 C 7.679688 -9.6875 8.691406 -8.550781 8.703125 -6.28125 L 8.703125 0 L 7.078125 0 L 7.078125 -6.296875 C 7.078125 -6.984375 6.921875 -7.488281 6.609375 -7.8125 C 6.304688 -8.144531 5.828125 -8.3125 5.171875 -8.3125 C 4.648438 -8.3125 4.1875 -8.171875 3.78125 -7.890625 C 3.382812 -7.609375 3.078125 -7.238281 2.859375 -6.78125 L 2.859375 0 L 1.234375 0 L 1.234375 -9.515625 Z M 2.765625 -9.515625 "/></g></g></g><g fill="#17191a" fill-opacity="1"><g transform="translate(14.290507, 40.949996)"><g><path d="M 3.4375 -11.8125 L 3.4375 -9.515625 L 5.21875 -9.515625 L 5.21875 -8.25 L 3.4375 -8.25 L 3.4375 -2.359375 C 3.4375 -1.972656 3.515625 -1.6875 3.671875 -1.5 C 3.828125 -1.3125 4.097656 -1.21875 4.484375 -1.21875 C 4.671875 -1.21875 4.925781 -1.25 5.25 -1.3125 L 5.25 0 C 4.820312 0.113281 4.410156 0.171875 4.015625 0.171875 C 3.285156 0.171875 2.734375 -0.046875 2.359375 -0.484375 C 1.992188 -0.921875 1.8125 -1.546875 1.8125 -2.359375 L 1.8125 -8.25 L 0.078125 -8.25 L 0.078125 -9.515625 L 1.8125 -9.515625 L 1.8125 -11.8125 Z M 3.4375 -11.8125 "/></g></g></g><g fill="#17191a" fill-opacity="1"><g transform="translate(20.166567, 40.949996)"><g><path d="M 5.171875 0.171875 C 3.890625 0.171875 2.84375 -0.25 2.03125 -1.09375 C 1.21875 -1.9375 0.8125 -3.066406 0.8125 -4.484375 L 0.8125 -4.796875 C 0.8125 -5.734375 0.992188 -6.570312 1.359375 -7.3125 C 1.722656 -8.050781 2.226562 -8.628906 2.875 -9.046875 C 3.519531 -9.472656 4.21875 -9.6875 4.96875 -9.6875 C 6.207031 -9.6875 7.171875 -9.28125 7.859375 -8.46875 C 8.546875 -7.65625 8.890625 -6.488281 8.890625 -4.96875 L 8.890625 -4.296875 L 2.4375 -4.296875 C 2.46875 -3.359375 2.742188 -2.597656 3.265625 -2.015625 C 3.785156 -1.441406 4.453125 -1.15625 5.265625 -1.15625 C 5.835938 -1.15625 6.320312 -1.269531 6.71875 -1.5 C 7.125 -1.738281 7.472656 -2.050781 7.765625 -2.4375 L 8.765625 -1.65625 C 7.960938 -0.4375 6.765625 0.171875 5.171875 0.171875 Z M 4.96875 -8.34375 C 4.3125 -8.34375 3.757812 -8.101562 3.3125 -7.625 C 2.875 -7.15625 2.601562 -6.488281 2.5 -5.625 L 7.265625 -5.625 L 7.265625 -5.75 C 7.210938 -6.570312 6.988281 -7.207031 6.59375 -7.65625 C 6.195312 -8.113281 5.65625 -8.34375 4.96875 -8.34375 Z M 4.96875 -8.34375 "/></g></g></g><g fill="#17191a" fill-opacity="1"><g transform="translate(29.696496, 40.949996)"><g><path d="M 5.828125 -8.046875 C 5.578125 -8.085938 5.3125 -8.109375 5.03125 -8.109375 C 3.957031 -8.109375 3.234375 -7.65625 2.859375 -6.75 L 2.859375 0 L 1.234375 0 L 1.234375 -9.515625 L 2.8125 -9.515625 L 2.84375 -8.40625 C 3.375 -9.257812 4.128906 -9.6875 5.109375 -9.6875 C 5.421875 -9.6875 5.660156 -9.644531 5.828125 -9.5625 Z M 5.828125 -8.046875 "/></g></g></g><g fill="#17191a" fill-opacity="1"><g transform="translate(35.783357, 40.949996)"><g><path d="M 4.375 -2.203125 L 6.71875 -9.515625 L 8.390625 -9.515625 L 4.96875 0 L 3.734375 0 L 0.296875 -9.515625 L 1.953125 -9.515625 Z M 4.375 -2.203125 "/></g></g></g><g fill="#17191a" fill-opacity="1"><g transform="translate(44.496429, 40.949996)"><g><path d="M 7.109375 0 C 7.015625 -0.1875 6.9375 -0.519531 6.875 -1 C 6.113281 -0.21875 5.210938 0.171875 4.171875 0.171875 C 3.234375 0.171875 2.460938 -0.09375 1.859375 -0.625 C 1.253906 -1.15625 0.953125 -1.828125 0.953125 -2.640625 C 0.953125 -3.628906 1.328125 -4.394531 2.078125 -4.9375 C 2.835938 -5.488281 3.898438 -5.765625 5.265625 -5.765625 L 6.84375 -5.765625 L 6.84375 -6.515625 C 6.84375 -7.078125 6.671875 -7.523438 6.328125 -7.859375 C 5.992188 -8.203125 5.492188 -8.375 4.828125 -8.375 C 4.253906 -8.375 3.769531 -8.226562 3.375 -7.9375 C 2.976562 -7.644531 2.78125 -7.289062 2.78125 -6.875 L 1.15625 -6.875 C 1.15625 -7.34375 1.320312 -7.796875 1.65625 -8.234375 C 1.988281 -8.679688 2.441406 -9.035156 3.015625 -9.296875 C 3.597656 -9.554688 4.238281 -9.6875 4.9375 -9.6875 C 6.03125 -9.6875 6.882812 -9.410156 7.5 -8.859375 C 8.125 -8.316406 8.445312 -7.5625 8.46875 -6.59375 L 8.46875 -2.21875 C 8.46875 -1.351562 8.582031 -0.660156 8.8125 -0.140625 L 8.8125 0 Z M 4.40625 -1.234375 C 4.914062 -1.234375 5.398438 -1.363281 5.859375 -1.625 C 6.316406 -1.894531 6.644531 -2.238281 6.84375 -2.65625 L 6.84375 -4.609375 L 5.578125 -4.609375 C 3.578125 -4.609375 2.578125 -4.023438 2.578125 -2.859375 C 2.578125 -2.347656 2.75 -1.945312 3.09375 -1.65625 C 3.4375 -1.375 3.875 -1.234375 4.40625 -1.234375 Z M 4.40625 -1.234375 "/></g></g></g><g fill="#17191a" fill-opacity="1"><g transform="translate(54.28107, 40.949996)"><g><path d="M 3 0 L 1.375 0 L 1.375 -13.5 L 3 -13.5 Z M 3 0 "/></g></g></g><g fill="#17191a" fill-opacity="1"><g transform="translate(58.646396, 40.949996)"><g><path d="M 7.109375 0 C 7.015625 -0.1875 6.9375 -0.519531 6.875 -1 C 6.113281 -0.21875 5.210938 0.171875 4.171875 0.171875 C 3.234375 0.171875 2.460938 -0.09375 1.859375 -0.625 C 1.253906 -1.15625 0.953125 -1.828125 0.953125 -2.640625 C 0.953125 -3.628906 1.328125 -4.394531 2.078125 -4.9375 C 2.835938 -5.488281 3.898438 -5.765625 5.265625 -5.765625 L 6.84375 -5.765625 L 6.84375 -6.515625 C 6.84375 -7.078125 6.671875 -7.523438 6.328125 -7.859375 C 5.992188 -8.203125 5.492188 -8.375 4.828125 -8.375 C 4.253906 -8.375 3.769531 -8.226562 3.375 -7.9375 C 2.976562 -7.644531 2.78125 -7.289062 2.78125 -6.875 L 1.15625 -6.875 C 1.15625 -7.34375 1.320312 -7.796875 1.65625 -8.234375 C 1.988281 -8.679688 2.441406 -9.035156 3.015625 -9.296875 C 3.597656 -9.554688 4.238281 -9.6875 4.9375 -9.6875 C 6.03125 -9.6875 6.882812 -9.410156 7.5 -8.859375 C 8.125 -8.316406 8.445312 -7.5625 8.46875 -6.59375 L 8.46875 -2.21875 C 8.46875 -1.351562 8.582031 -0.660156 8.8125 -0.140625 L 8.8125 0 Z M 4.40625 -1.234375 C 4.914062 -1.234375 5.398438 -1.363281 5.859375 -1.625 C 6.316406 -1.894531 6.644531 -2.238281 6.84375 -2.65625 L 6.84375 -4.609375 L 5.578125 -4.609375 C 3.578125 -4.609375 2.578125 -4.023438 2.578125 -2.859375 C 2.578125 -2.347656 2.75 -1.945312 3.09375 -1.65625 C 3.4375 -1.375 3.875 -1.234375 4.40625 -1.234375 Z M 4.40625 -1.234375 "/></g></g></g><g fill="#17191a" fill-opacity="1"><g transform="translate(68.431036, 40.949996)"><g><path d="M 1.171875 -0.859375 C 1.171875 -1.140625 1.253906 -1.375 1.421875 -1.5625 C 1.585938 -1.75 1.835938 -1.84375 2.171875 -1.84375 C 2.503906 -1.84375 2.753906 -1.75 2.921875 -1.5625 C 3.097656 -1.375 3.1875 -1.140625 3.1875 -0.859375 C 3.1875 -0.585938 3.097656 -0.359375 2.921875 -0.171875 C 2.753906 0.00390625 2.503906 0.09375 2.171875 0.09375 C 1.835938 0.09375 1.585938 0.00390625 1.421875 -0.171875 C 1.253906 -0.359375 1.171875 -0.585938 1.171875 -0.859375 Z M 1.1875 -8.625 C 1.1875 -8.90625 1.269531 -9.140625 1.4375 -9.328125 C 1.601562 -9.515625 1.851562 -9.609375 2.1875 -9.609375 C 2.519531 -9.609375 2.769531 -9.515625 2.9375 -9.328125 C 3.113281 -9.140625 3.203125 -8.90625 3.203125 -8.625 C 3.203125 -8.351562 3.113281 -8.125 2.9375 -7.9375 C 2.769531 -7.757812 2.519531 -7.671875 2.1875 -7.671875 C 1.851562 -7.671875 1.601562 -7.757812 1.4375 -7.9375 C 1.269531 -8.125 1.1875 -8.351562 1.1875 -8.625 Z M 1.1875 -8.625 "/></g></g></g><path fill="#17191a" d="M 112.285156 44.984375 C 111.449219 45.140625 111.136719 45.769531 111.136719 46.265625 C 111.136719 46.894531 111.632812 47.101562 111.996094 47.101562 C 112.777344 47.101562 113.328125 46.421875 113.328125 45.714844 C 113.328125 44.617188 112.074219 44.117188 110.980469 44.117188 C 109.390625 44.117188 108.503906 45.6875 108.269531 46.1875 C 107.667969 44.222656 106.050781 44.117188 105.582031 44.117188 C 102.925781 44.117188 101.515625 47.546875 101.515625 48.125 C 101.515625 48.226562 101.621094 48.359375 101.804688 48.359375 C 102.011719 48.359375 102.0625 48.203125 102.117188 48.097656 C 103.003906 45.191406 104.75 44.640625 105.503906 44.640625 C 106.679688 44.640625 106.914062 45.742188 106.914062 46.371094 C 106.914062 46.945312 106.757812 47.546875 106.445312 48.804688 L 105.558594 52.390625 C 105.167969 53.960938 104.410156 55.398438 103.027344 55.398438 C 102.898438 55.398438 102.246094 55.398438 101.699219 55.058594 C 102.636719 54.875 102.847656 54.089844 102.847656 53.777344 C 102.847656 53.253906 102.453125 52.941406 101.960938 52.941406 C 101.332031 52.941406 100.65625 53.488281 100.65625 54.328125 C 100.65625 55.425781 101.882812 55.921875 103.003906 55.921875 C 104.253906 55.921875 105.140625 54.929688 105.6875 53.855469 C 106.105469 55.398438 107.410156 55.921875 108.371094 55.921875 C 111.03125 55.921875 112.441406 52.496094 112.441406 51.917969 C 112.441406 51.789062 112.335938 51.683594 112.179688 51.683594 C 111.945312 51.683594 111.917969 51.8125 111.839844 52.023438 C 111.136719 54.328125 109.625 55.398438 108.453125 55.398438 C 107.539062 55.398438 107.042969 54.71875 107.042969 53.644531 C 107.042969 53.070312 107.148438 52.652344 107.566406 50.925781 L 108.476562 47.363281 C 108.867188 45.792969 109.753906 44.640625 110.953125 44.640625 C 111.007812 44.640625 111.738281 44.640625 112.285156 44.984375 Z M 112.285156 44.984375 " fill-opacity="1" fill-rule="nonzero"/><path fill="#17191a" d="M 138.855469 49.695312 C 139.351562 49.457031 139.378906 49.300781 139.378906 49.117188 C 139.378906 48.960938 139.324219 48.777344 138.855469 48.570312 L 124.75 42.050781 C 124.414062 41.894531 124.359375 41.867188 124.308594 41.867188 C 123.996094 41.867188 123.8125 42.128906 123.8125 42.339844 C 123.8125 42.652344 124.023438 42.757812 124.359375 42.914062 L 137.761719 49.117188 L 124.335938 55.347656 C 123.8125 55.582031 123.8125 55.765625 123.8125 55.921875 C 123.8125 56.132812 123.996094 56.394531 124.308594 56.394531 C 124.359375 56.394531 124.386719 56.367188 124.75 56.210938 Z M 138.855469 49.695312 " fill-opacity="1" fill-rule="nonzero"/><path fill="#17191a" d="M 153.570312 46.265625 C 153.128906 46.292969 153.023438 46.316406 153.023438 46.554688 C 153.023438 46.816406 153.152344 46.816406 153.625 46.816406 L 154.824219 46.816406 C 157.039062 46.816406 158.03125 48.648438 158.03125 51.160156 C 158.03125 54.589844 156.257812 55.503906 154.980469 55.503906 C 153.726562 55.503906 151.589844 54.902344 150.832031 53.175781 C 151.667969 53.304688 152.425781 52.835938 152.425781 51.890625 C 152.425781 51.132812 151.875 50.609375 151.144531 50.609375 C 150.519531 50.609375 149.84375 50.976562 149.84375 51.972656 C 149.84375 54.300781 152.164062 56.210938 155.058594 56.210938 C 158.160156 56.210938 160.453125 53.828125 160.453125 51.1875 C 160.453125 48.777344 158.523438 46.894531 156.023438 46.449219 C 158.289062 45.792969 159.75 43.882812 159.75 41.839844 C 159.75 39.773438 157.613281 38.257812 155.082031 38.257812 C 152.476562 38.257812 150.546875 39.851562 150.546875 41.761719 C 150.546875 42.808594 151.355469 43.019531 151.746094 43.019531 C 152.292969 43.019531 152.917969 42.628906 152.917969 41.839844 C 152.917969 41.003906 152.292969 40.636719 151.71875 40.636719 C 151.5625 40.636719 151.511719 40.636719 151.433594 40.664062 C 152.425781 38.882812 154.875 38.882812 155.003906 38.882812 C 155.867188 38.882812 157.558594 39.277344 157.558594 41.839844 C 157.558594 42.339844 157.480469 43.804688 156.726562 44.929688 C 155.945312 46.082031 155.058594 46.160156 154.351562 46.1875 Z M 153.570312 46.265625 " fill-opacity="1" fill-rule="nonzero"/><path fill="#17191a" d="M 176.15625 51.917969 C 176.15625 51.789062 176.050781 51.683594 175.894531 51.683594 C 175.660156 51.683594 175.636719 51.761719 175.503906 52.207031 C 174.828125 54.589844 173.757812 55.398438 172.898438 55.398438 C 172.585938 55.398438 172.21875 55.320312 172.21875 54.535156 C 172.21875 53.828125 172.53125 53.042969 172.820312 52.257812 L 174.644531 47.390625 C 174.722656 47.179688 174.90625 46.710938 174.90625 46.210938 C 174.90625 45.113281 174.125 44.117188 172.847656 44.117188 C 170.445312 44.117188 169.484375 47.914062 169.484375 48.125 C 169.484375 48.226562 169.585938 48.359375 169.769531 48.359375 C 170.003906 48.359375 170.03125 48.253906 170.132812 47.886719 C 170.761719 45.6875 171.75 44.640625 172.769531 44.640625 C 173.003906 44.640625 173.445312 44.667969 173.445312 45.507812 C 173.445312 46.1875 173.105469 47.050781 172.898438 47.625 L 171.074219 52.496094 C 170.917969 52.914062 170.761719 53.332031 170.761719 53.804688 C 170.761719 54.980469 171.566406 55.921875 172.820312 55.921875 C 175.21875 55.921875 176.15625 52.101562 176.15625 51.917969 Z M 175.949219 39.328125 C 175.949219 38.9375 175.636719 38.464844 175.0625 38.464844 C 174.460938 38.464844 173.785156 39.042969 173.785156 39.722656 C 173.785156 40.375 174.332031 40.585938 174.644531 40.585938 C 175.347656 40.585938 175.949219 39.90625 175.949219 39.328125 Z M 175.949219 39.328125 " fill-opacity="1" fill-rule="nonzero"/><g clip-path="url(#228fb5dc34)"><path fill="#17191a" d="M 184.109375 38.152344 C 184.136719 38.046875 184.1875 37.890625 184.1875 37.757812 C 184.1875 37.496094 183.929688 37.496094 183.875 37.496094 C 183.851562 37.496094 182.910156 37.574219 182.441406 37.628906 C 182 37.652344 181.609375 37.707031 181.140625 37.734375 C 180.511719 37.785156 180.332031 37.8125 180.332031 38.28125 C 180.332031 38.542969 180.589844 38.542969 180.851562 38.542969 C 182.183594 38.542969 182.183594 38.78125 182.183594 39.042969 C 182.183594 39.144531 182.183594 39.199219 182.050781 39.667969 L 178.820312 52.652344 C 178.738281 52.941406 178.6875 53.148438 178.6875 53.566406 C 178.6875 54.875 179.652344 55.921875 180.980469 55.921875 C 181.84375 55.921875 182.417969 55.347656 182.832031 54.535156 C 183.277344 53.671875 183.640625 52.023438 183.640625 51.917969 C 183.640625 51.789062 183.539062 51.683594 183.382812 51.683594 C 183.144531 51.683594 183.121094 51.8125 183.015625 52.207031 C 182.546875 54.011719 182.078125 55.398438 181.035156 55.398438 C 180.253906 55.398438 180.253906 54.5625 180.253906 54.195312 C 180.253906 54.089844 180.253906 53.542969 180.433594 52.808594 Z M 184.109375 38.152344 " fill-opacity="1" fill-rule="nonzero"/></g><path fill="#17191a" d="M 193.046875 51.917969 C 193.046875 51.789062 192.941406 51.683594 192.785156 51.683594 C 192.550781 51.683594 192.523438 51.761719 192.394531 52.207031 C 191.714844 54.589844 190.648438 55.398438 189.785156 55.398438 C 189.472656 55.398438 189.109375 55.320312 189.109375 54.535156 C 189.109375 53.828125 189.421875 53.042969 189.707031 52.257812 L 191.53125 47.390625 C 191.609375 47.179688 191.792969 46.710938 191.792969 46.210938 C 191.792969 45.113281 191.011719 44.117188 189.734375 44.117188 C 187.335938 44.117188 186.371094 47.914062 186.371094 48.125 C 186.371094 48.226562 186.476562 48.359375 186.65625 48.359375 C 186.890625 48.359375 186.917969 48.253906 187.023438 47.886719 C 187.648438 45.6875 188.640625 44.640625 189.65625 44.640625 C 189.890625 44.640625 190.332031 44.667969 190.332031 45.507812 C 190.332031 46.1875 189.996094 47.050781 189.785156 47.625 L 187.960938 52.496094 C 187.804688 52.914062 187.648438 53.332031 187.648438 53.804688 C 187.648438 54.980469 188.457031 55.921875 189.707031 55.921875 C 192.105469 55.921875 193.046875 52.101562 193.046875 51.917969 Z M 192.835938 39.328125 C 192.835938 38.9375 192.523438 38.464844 191.949219 38.464844 C 191.351562 38.464844 190.671875 39.042969 190.671875 39.722656 C 190.671875 40.375 191.21875 40.585938 191.53125 40.585938 C 192.238281 40.585938 192.835938 39.90625 192.835938 39.328125 Z M 192.835938 39.328125 " fill-opacity="1" fill-rule="nonzero"/><path fill="#17191a" d="M 213.976562 44.984375 C 213.140625 45.140625 212.828125 45.769531 212.828125 46.265625 C 212.828125 46.894531 213.324219 47.101562 213.6875 47.101562 C 214.472656 47.101562 215.019531 46.421875 215.019531 45.714844 C 215.019531 44.617188 213.765625 44.117188 212.671875 44.117188 C 211.082031 44.117188 210.195312 45.6875 209.960938 46.1875 C 209.359375 44.222656 207.746094 44.117188 207.273438 44.117188 C 204.617188 44.117188 203.207031 47.546875 203.207031 48.125 C 203.207031 48.226562 203.3125 48.359375 203.496094 48.359375 C 203.703125 48.359375 203.753906 48.203125 203.808594 48.097656 C 204.695312 45.191406 206.441406 44.640625 207.195312 44.640625 C 208.371094 44.640625 208.605469 45.742188 208.605469 46.371094 C 208.605469 46.945312 208.449219 47.546875 208.136719 48.804688 L 207.25 52.390625 C 206.859375 53.960938 206.101562 55.398438 204.71875 55.398438 C 204.589844 55.398438 203.9375 55.398438 203.390625 55.058594 C 204.328125 54.875 204.539062 54.089844 204.539062 53.777344 C 204.539062 53.253906 204.144531 52.941406 203.652344 52.941406 C 203.023438 52.941406 202.347656 53.488281 202.347656 54.328125 C 202.347656 55.425781 203.574219 55.921875 204.695312 55.921875 C 205.945312 55.921875 206.832031 54.929688 207.378906 53.855469 C 207.796875 55.398438 209.101562 55.921875 210.066406 55.921875 C 212.722656 55.921875 214.132812 52.496094 214.132812 51.917969 C 214.132812 51.789062 214.027344 51.683594 213.871094 51.683594 C 213.636719 51.683594 213.609375 51.8125 213.53125 52.023438 C 212.828125 54.328125 211.316406 55.398438 210.144531 55.398438 C 209.230469 55.398438 208.734375 54.71875 208.734375 53.644531 C 208.734375 53.070312 208.839844 52.652344 209.257812 50.925781 L 210.167969 47.363281 C 210.558594 45.792969 211.445312 44.640625 212.644531 44.640625 C 212.699219 44.640625 213.429688 44.640625 213.976562 44.984375 Z M 213.976562 44.984375 " fill-opacity="1" fill-rule="nonzero"/><g clip-path="url(#86fc913ff9)"><path fill="#17191a" d="M 240.964844 40.113281 C 241.253906 39.984375 241.460938 39.851562 241.460938 39.539062 C 241.460938 39.25 241.253906 39.015625 240.9375 39.015625 C 240.808594 39.015625 240.574219 39.121094 240.46875 39.171875 L 226.050781 46.003906 C 225.609375 46.210938 225.53125 46.394531 225.53125 46.605469 C 225.53125 46.839844 225.6875 47.023438 226.050781 47.179688 L 240.46875 53.988281 C 240.808594 54.167969 240.859375 54.167969 240.9375 54.167969 C 241.226562 54.167969 241.460938 53.933594 241.460938 53.644531 C 241.460938 53.410156 241.355469 53.253906 240.914062 53.042969 L 227.277344 46.605469 Z M 240.546875 59.246094 C 240.992188 59.246094 241.460938 59.246094 241.460938 58.722656 C 241.460938 58.199219 240.914062 58.199219 240.523438 58.199219 L 226.46875 58.199219 C 226.078125 58.199219 225.53125 58.199219 225.53125 58.722656 C 225.53125 59.246094 226 59.246094 226.441406 59.246094 Z M 240.546875 59.246094 " fill-opacity="1" fill-rule="nonzero"/></g><path fill="#17191a" d="M 258.394531 38.882812 C 258.394531 38.28125 258.394531 38.257812 257.875 38.257812 C 257.246094 38.960938 255.945312 39.929688 253.257812 39.929688 L 253.257812 40.691406 C 253.859375 40.691406 255.164062 40.691406 256.597656 40.007812 L 256.597656 53.644531 C 256.597656 54.589844 256.519531 54.902344 254.222656 54.902344 L 253.414062 54.902344 L 253.414062 55.660156 C 254.121094 55.609375 256.648438 55.609375 257.507812 55.609375 C 258.367188 55.609375 260.871094 55.609375 261.574219 55.660156 L 261.574219 54.902344 L 260.769531 54.902344 C 258.472656 54.902344 258.394531 54.589844 258.394531 53.644531 Z M 258.394531 38.882812 " fill-opacity="1" fill-rule="nonzero"/><path fill="#17191a" d="M 275.332031 47.285156 C 275.332031 45.113281 275.199219 42.992188 274.261719 41.003906 C 273.191406 38.832031 271.316406 38.257812 270.039062 38.257812 C 268.527344 38.257812 266.675781 39.015625 265.710938 41.1875 C 264.980469 42.835938 264.71875 44.460938 264.71875 47.285156 C 264.71875 49.824219 264.902344 51.734375 265.839844 53.59375 C 266.859375 55.582031 268.65625 56.210938 270.011719 56.210938 C 272.28125 56.210938 273.585938 54.851562 274.339844 53.332031 C 275.277344 51.367188 275.332031 48.804688 275.332031 47.285156 Z M 270.011719 55.6875 C 269.179688 55.6875 267.484375 55.214844 266.988281 52.363281 C 266.703125 50.792969 266.703125 48.804688 266.703125 46.972656 C 266.703125 44.824219 266.703125 42.890625 267.117188 41.34375 C 267.5625 39.589844 268.890625 38.78125 270.011719 38.78125 C 271.003906 38.78125 272.515625 39.382812 273.011719 41.632812 C 273.347656 43.125 273.347656 45.191406 273.347656 46.972656 C 273.347656 48.726562 273.347656 50.714844 273.0625 52.3125 C 272.566406 55.191406 270.925781 55.6875 270.011719 55.6875 Z M 270.011719 55.6875 " fill-opacity="1" fill-rule="nonzero"/></svg>