<svg xmlns="http://www.w3.org/2000/svg" xmlns:xlink="http://www.w3.org/1999/xlink" width="500" zoomAndPan="magnify" viewBox="0 0 375 74.999997" height="100" preserveAspectRatio="xMidYMid meet" version="1.0"><defs><g/><clipPath id="f875438684"><path d="M 190 33 L 206 33 L 206 48.417969 L 190 48.417969 Z M 190 33 " clip-rule="nonzero"/></clipPath><clipPath id="045fe70765"><path d="M 252 31 L 261.980469 31 L 261.980469 47 L 252 47 Z M 252 31 " clip-rule="nonzero"/></clipPath></defs><g fill="#17191a" fill-opacity="1"><g transform="translate(0.0000075, 16.199998)"><g><path d="M 7.921875 -4.296875 L 9.703125 -4.296875 L 9.703125 -2.96875 L 7.921875 -2.96875 L 7.921875 0 L 6.296875 0 L 6.296875 -2.96875 L 0.46875 -2.96875 L 0.46875 -3.921875 L 6.203125 -12.796875 L 7.921875 -12.796875 Z M 2.3125 -4.296875 L 6.296875 -4.296875 L 6.296875 -10.578125 L 6.09375 -10.21875 Z M 2.3125 -4.296875 "/></g></g></g><g fill="#17191a" fill-opacity="1"><g transform="translate(10.100848, 16.199998)"><g><path d="M 4.984375 -5.109375 C 4.984375 -3.796875 4.8125 -2.539062 4.46875 -1.34375 C 4.125 -0.144531 3.597656 0.957031 2.890625 1.96875 C 2.191406 2.976562 1.453125 3.695312 0.671875 4.125 L 0.328125 3.140625 C 1.234375 2.441406 1.957031 1.367188 2.5 -0.078125 C 3.050781 -1.535156 3.332031 -3.15625 3.34375 -4.9375 L 3.34375 -5.21875 C 3.34375 -6.445312 3.210938 -7.585938 2.953125 -8.640625 C 2.703125 -9.703125 2.347656 -10.648438 1.890625 -11.484375 C 1.429688 -12.328125 0.910156 -12.984375 0.328125 -13.453125 L 0.671875 -14.4375 C 1.453125 -14.007812 2.191406 -13.296875 2.890625 -12.296875 C 3.585938 -11.296875 4.109375 -10.191406 4.453125 -8.984375 C 4.804688 -7.773438 4.984375 -6.484375 4.984375 -5.109375 Z M 4.984375 -5.109375 "/></g></g></g><g fill="#17191a" fill-opacity="1"><g transform="translate(16.354586, 16.199998)"><g/></g></g><g fill="#17191a" fill-opacity="1"><g transform="translate(20.807745, 16.199998)"><g><path d="M 6.171875 -5.171875 L 3.171875 -5.171875 L 3.171875 0 L 1.484375 0 L 1.484375 -12.796875 L 5.71875 -12.796875 C 7.15625 -12.796875 8.257812 -12.46875 9.03125 -11.8125 C 9.8125 -11.15625 10.203125 -10.203125 10.203125 -8.953125 C 10.203125 -8.148438 9.984375 -7.453125 9.546875 -6.859375 C 9.117188 -6.273438 8.523438 -5.832031 7.765625 -5.53125 L 10.765625 -0.109375 L 10.765625 0 L 8.953125 0 Z M 3.171875 -6.5625 L 5.765625 -6.5625 C 6.597656 -6.5625 7.265625 -6.773438 7.765625 -7.203125 C 8.265625 -7.640625 8.515625 -8.222656 8.515625 -8.953125 C 8.515625 -9.742188 8.273438 -10.347656 7.796875 -10.765625 C 7.328125 -11.191406 6.644531 -11.40625 5.75 -11.40625 L 3.171875 -11.40625 Z M 3.171875 -6.5625 "/></g></g></g><g fill="#17191a" fill-opacity="1"><g transform="translate(31.883542, 16.199998)"><g><path d="M 2.90625 -9.515625 L 2.90625 1.09375 C 2.90625 2.925781 2.078125 3.84375 0.421875 3.84375 C 0.0664062 3.84375 -0.265625 3.789062 -0.578125 3.6875 L -0.578125 2.375 C -0.390625 2.425781 -0.140625 2.453125 0.171875 2.453125 C 0.535156 2.453125 0.8125 2.351562 1 2.15625 C 1.1875 1.957031 1.28125 1.617188 1.28125 1.140625 L 1.28125 -9.515625 Z M 1.109375 -12.03125 C 1.109375 -12.289062 1.1875 -12.507812 1.34375 -12.6875 C 1.507812 -12.875 1.75 -12.96875 2.0625 -12.96875 C 2.382812 -12.96875 2.625 -12.875 2.78125 -12.6875 C 2.945312 -12.507812 3.03125 -12.289062 3.03125 -12.03125 C 3.03125 -11.769531 2.945312 -11.550781 2.78125 -11.375 C 2.625 -11.195312 2.382812 -11.109375 2.0625 -11.109375 C 1.75 -11.109375 1.507812 -11.195312 1.34375 -11.375 C 1.1875 -11.550781 1.109375 -11.769531 1.109375 -12.03125 Z M 1.109375 -12.03125 "/></g></g></g><g fill="#17191a" fill-opacity="1"><g transform="translate(36.178601, 16.199998)"><g><path d="M 5.171875 0.171875 C 3.890625 0.171875 2.84375 -0.25 2.03125 -1.09375 C 1.21875 -1.9375 0.8125 -3.066406 0.8125 -4.484375 L 0.8125 -4.796875 C 0.8125 -5.734375 0.992188 -6.570312 1.359375 -7.3125 C 1.722656 -8.050781 2.226562 -8.628906 2.875 -9.046875 C 3.519531 -9.472656 4.21875 -9.6875 4.96875 -9.6875 C 6.207031 -9.6875 7.171875 -9.28125 7.859375 -8.46875 C 8.546875 -7.65625 8.890625 -6.488281 8.890625 -4.96875 L 8.890625 -4.296875 L 2.4375 -4.296875 C 2.46875 -3.359375 2.742188 -2.597656 3.265625 -2.015625 C 3.785156 -1.441406 4.453125 -1.15625 5.265625 -1.15625 C 5.835938 -1.15625 6.320312 -1.269531 6.71875 -1.5 C 7.125 -1.738281 7.472656 -2.050781 7.765625 -2.4375 L 8.765625 -1.65625 C 7.960938 -0.4375 6.765625 0.171875 5.171875 0.171875 Z M 4.96875 -8.34375 C 4.3125 -8.34375 3.757812 -8.101562 3.3125 -7.625 C 2.875 -7.15625 2.601562 -6.488281 2.5 -5.625 L 7.265625 -5.625 L 7.265625 -5.75 C 7.210938 -6.570312 6.988281 -7.207031 6.59375 -7.65625 C 6.195312 -8.113281 5.65625 -8.34375 4.96875 -8.34375 Z M 4.96875 -8.34375 "/></g></g></g><g fill="#17191a" fill-opacity="1"><g transform="translate(45.70853, 16.199998)"><g><path d="M 6.765625 -2.515625 C 6.765625 -2.960938 6.597656 -3.304688 6.265625 -3.546875 C 5.941406 -3.785156 5.367188 -3.992188 4.546875 -4.171875 C 3.722656 -4.347656 3.066406 -4.554688 2.578125 -4.796875 C 2.097656 -5.046875 1.738281 -5.34375 1.5 -5.6875 C 1.269531 -6.03125 1.15625 -6.4375 1.15625 -6.90625 C 1.15625 -7.675781 1.484375 -8.332031 2.140625 -8.875 C 2.804688 -9.414062 3.648438 -9.6875 4.671875 -9.6875 C 5.753906 -9.6875 6.628906 -9.40625 7.296875 -8.84375 C 7.972656 -8.289062 8.3125 -7.582031 8.3125 -6.71875 L 6.671875 -6.71875 C 6.671875 -7.164062 6.476562 -7.546875 6.09375 -7.859375 C 5.71875 -8.179688 5.242188 -8.34375 4.671875 -8.34375 C 4.078125 -8.34375 3.613281 -8.210938 3.28125 -7.953125 C 2.945312 -7.703125 2.78125 -7.367188 2.78125 -6.953125 C 2.78125 -6.554688 2.9375 -6.257812 3.25 -6.0625 C 3.5625 -5.863281 4.125 -5.671875 4.9375 -5.484375 C 5.75 -5.304688 6.40625 -5.09375 6.90625 -4.84375 C 7.414062 -4.59375 7.789062 -4.289062 8.03125 -3.9375 C 8.269531 -3.582031 8.390625 -3.148438 8.390625 -2.640625 C 8.390625 -1.785156 8.050781 -1.101562 7.375 -0.59375 C 6.695312 -0.0820312 5.816406 0.171875 4.734375 0.171875 C 3.972656 0.171875 3.296875 0.0351562 2.703125 -0.234375 C 2.117188 -0.503906 1.660156 -0.878906 1.328125 -1.359375 C 0.992188 -1.835938 0.828125 -2.359375 0.828125 -2.921875 L 2.46875 -2.921875 C 2.488281 -2.378906 2.703125 -1.945312 3.109375 -1.625 C 3.523438 -1.3125 4.066406 -1.15625 4.734375 -1.15625 C 5.347656 -1.15625 5.835938 -1.28125 6.203125 -1.53125 C 6.578125 -1.78125 6.765625 -2.109375 6.765625 -2.515625 Z M 4.9375 -12.015625 L 6.25 -13.5 L 7.65625 -13.5 L 7.65625 -13.421875 L 5.421875 -11.015625 L 4.4375 -11.015625 L 2.21875 -13.421875 L 2.21875 -13.5 L 3.609375 -13.5 Z M 4.9375 -12.015625 "/></g></g></g><g fill="#17191a" fill-opacity="1"><g transform="translate(54.983737, 16.199998)"><g><path d="M 5.171875 0.171875 C 3.890625 0.171875 2.84375 -0.25 2.03125 -1.09375 C 1.21875 -1.9375 0.8125 -3.066406 0.8125 -4.484375 L 0.8125 -4.796875 C 0.8125 -5.734375 0.992188 -6.570312 1.359375 -7.3125 C 1.722656 -8.050781 2.226562 -8.628906 2.875 -9.046875 C 3.519531 -9.472656 4.21875 -9.6875 4.96875 -9.6875 C 6.207031 -9.6875 7.171875 -9.28125 7.859375 -8.46875 C 8.546875 -7.65625 8.890625 -6.488281 8.890625 -4.96875 L 8.890625 -4.296875 L 2.4375 -4.296875 C 2.46875 -3.359375 2.742188 -2.597656 3.265625 -2.015625 C 3.785156 -1.441406 4.453125 -1.15625 5.265625 -1.15625 C 5.835938 -1.15625 6.320312 -1.269531 6.71875 -1.5 C 7.125 -1.738281 7.472656 -2.050781 7.765625 -2.4375 L 8.765625 -1.65625 C 7.960938 -0.4375 6.765625 0.171875 5.171875 0.171875 Z M 4.96875 -8.34375 C 4.3125 -8.34375 3.757812 -8.101562 3.3125 -7.625 C 2.875 -7.15625 2.601562 -6.488281 2.5 -5.625 L 7.265625 -5.625 L 7.265625 -5.75 C 7.210938 -6.570312 6.988281 -7.207031 6.59375 -7.65625 C 6.195312 -8.113281 5.65625 -8.34375 4.96875 -8.34375 Z M 4.96875 -8.34375 "/></g></g></g><g fill="#17191a" fill-opacity="1"><g transform="translate(64.513667, 16.199998)"><g><path d="M 2.765625 -9.515625 L 2.828125 -8.3125 C 3.546875 -9.226562 4.492188 -9.6875 5.671875 -9.6875 C 7.679688 -9.6875 8.691406 -8.550781 8.703125 -6.28125 L 8.703125 0 L 7.078125 0 L 7.078125 -6.296875 C 7.078125 -6.984375 6.921875 -7.488281 6.609375 -7.8125 C 6.304688 -8.144531 5.828125 -8.3125 5.171875 -8.3125 C 4.648438 -8.3125 4.1875 -8.171875 3.78125 -7.890625 C 3.382812 -7.609375 3.078125 -7.238281 2.859375 -6.78125 L 2.859375 0 L 1.234375 0 L 1.234375 -9.515625 Z M 2.765625 -9.515625 "/></g></g></g><g fill="#17191a" fill-opacity="1"><g transform="translate(74.43884, 16.199998)"><g><path d="M 2.90625 -9.515625 L 2.90625 1.09375 C 2.90625 2.925781 2.078125 3.84375 0.421875 3.84375 C 0.0664062 3.84375 -0.265625 3.789062 -0.578125 3.6875 L -0.578125 2.375 C -0.390625 2.425781 -0.140625 2.453125 0.171875 2.453125 C 0.535156 2.453125 0.8125 2.351562 1 2.15625 C 1.1875 1.957031 1.28125 1.617188 1.28125 1.140625 L 1.28125 -9.515625 Z M 1.109375 -12.03125 C 1.109375 -12.289062 1.1875 -12.507812 1.34375 -12.6875 C 1.507812 -12.875 1.75 -12.96875 2.0625 -12.96875 C 2.382812 -12.96875 2.625 -12.875 2.78125 -12.6875 C 2.945312 -12.507812 3.03125 -12.289062 3.03125 -12.03125 C 3.03125 -11.769531 2.945312 -11.550781 2.78125 -11.375 C 2.625 -11.195312 2.382812 -11.109375 2.0625 -11.109375 C 1.75 -11.109375 1.507812 -11.195312 1.34375 -11.375 C 1.1875 -11.550781 1.109375 -11.769531 1.109375 -12.03125 Z M 1.109375 -12.03125 "/></g></g></g><g fill="#17191a" fill-opacity="1"><g transform="translate(78.733899, 16.199998)"><g><path d="M 5.171875 0.171875 C 3.890625 0.171875 2.84375 -0.25 2.03125 -1.09375 C 1.21875 -1.9375 0.8125 -3.066406 0.8125 -4.484375 L 0.8125 -4.796875 C 0.8125 -5.734375 0.992188 -6.570312 1.359375 -7.3125 C 1.722656 -8.050781 2.226562 -8.628906 2.875 -9.046875 C 3.519531 -9.472656 4.21875 -9.6875 4.96875 -9.6875 C 6.207031 -9.6875 7.171875 -9.28125 7.859375 -8.46875 C 8.546875 -7.65625 8.890625 -6.488281 8.890625 -4.96875 L 8.890625 -4.296875 L 2.4375 -4.296875 C 2.46875 -3.359375 2.742188 -2.597656 3.265625 -2.015625 C 3.785156 -1.441406 4.453125 -1.15625 5.265625 -1.15625 C 5.835938 -1.15625 6.320312 -1.269531 6.71875 -1.5 C 7.125 -1.738281 7.472656 -2.050781 7.765625 -2.4375 L 8.765625 -1.65625 C 7.960938 -0.4375 6.765625 0.171875 5.171875 0.171875 Z M 4.96875 -8.34375 C 4.3125 -8.34375 3.757812 -8.101562 3.3125 -7.625 C 2.875 -7.15625 2.601562 -6.488281 2.5 -5.625 L 7.265625 -5.625 L 7.265625 -5.75 C 7.210938 -6.570312 6.988281 -7.207031 6.59375 -7.65625 C 6.195312 -8.113281 5.65625 -8.34375 4.96875 -8.34375 Z M 4.96875 -8.34375 "/></g></g></g><g fill="#17191a" fill-opacity="1"><g transform="translate(88.263829, 16.199998)"><g/></g></g><g fill="#17191a" fill-opacity="1"><g transform="translate(92.716988, 16.199998)"><g><path d="M 2.765625 -9.515625 L 2.828125 -8.3125 C 3.546875 -9.226562 4.492188 -9.6875 5.671875 -9.6875 C 7.679688 -9.6875 8.691406 -8.550781 8.703125 -6.28125 L 8.703125 0 L 7.078125 0 L 7.078125 -6.296875 C 7.078125 -6.984375 6.921875 -7.488281 6.609375 -7.8125 C 6.304688 -8.144531 5.828125 -8.3125 5.171875 -8.3125 C 4.648438 -8.3125 4.1875 -8.171875 3.78125 -7.890625 C 3.382812 -7.609375 3.078125 -7.238281 2.859375 -6.78125 L 2.859375 0 L 1.234375 0 L 1.234375 -9.515625 Z M 2.765625 -9.515625 "/></g></g></g><g fill="#17191a" fill-opacity="1"><g transform="translate(102.642162, 16.199998)"><g><path d="M 5.171875 0.171875 C 3.890625 0.171875 2.84375 -0.25 2.03125 -1.09375 C 1.21875 -1.9375 0.8125 -3.066406 0.8125 -4.484375 L 0.8125 -4.796875 C 0.8125 -5.734375 0.992188 -6.570312 1.359375 -7.3125 C 1.722656 -8.050781 2.226562 -8.628906 2.875 -9.046875 C 3.519531 -9.472656 4.21875 -9.6875 4.96875 -9.6875 C 6.207031 -9.6875 7.171875 -9.28125 7.859375 -8.46875 C 8.546875 -7.65625 8.890625 -6.488281 8.890625 -4.96875 L 8.890625 -4.296875 L 2.4375 -4.296875 C 2.46875 -3.359375 2.742188 -2.597656 3.265625 -2.015625 C 3.785156 -1.441406 4.453125 -1.15625 5.265625 -1.15625 C 5.835938 -1.15625 6.320312 -1.269531 6.71875 -1.5 C 7.125 -1.738281 7.472656 -2.050781 7.765625 -2.4375 L 8.765625 -1.65625 C 7.960938 -0.4375 6.765625 0.171875 5.171875 0.171875 Z M 4.96875 -8.34375 C 4.3125 -8.34375 3.757812 -8.101562 3.3125 -7.625 C 2.875 -7.15625 2.601562 -6.488281 2.5 -5.625 L 7.265625 -5.625 L 7.265625 -5.75 C 7.210938 -6.570312 6.988281 -7.207031 6.59375 -7.65625 C 6.195312 -8.113281 5.65625 -8.34375 4.96875 -8.34375 Z M 4.96875 -8.34375 "/></g></g></g><g fill="#17191a" fill-opacity="1"><g transform="translate(112.172091, 16.199998)"><g><path d="M 2.90625 -9.515625 L 2.90625 1.09375 C 2.90625 2.925781 2.078125 3.84375 0.421875 3.84375 C 0.0664062 3.84375 -0.265625 3.789062 -0.578125 3.6875 L -0.578125 2.375 C -0.390625 2.425781 -0.140625 2.453125 0.171875 2.453125 C 0.535156 2.453125 0.8125 2.351562 1 2.15625 C 1.1875 1.957031 1.28125 1.617188 1.28125 1.140625 L 1.28125 -9.515625 Z M 1.109375 -12.03125 C 1.109375 -12.289062 1.1875 -12.507812 1.34375 -12.6875 C 1.507812 -12.875 1.75 -12.96875 2.0625 -12.96875 C 2.382812 -12.96875 2.625 -12.875 2.78125 -12.6875 C 2.945312 -12.507812 3.03125 -12.289062 3.03125 -12.03125 C 3.03125 -11.769531 2.945312 -11.550781 2.78125 -11.375 C 2.625 -11.195312 2.382812 -11.109375 2.0625 -11.109375 C 1.75 -11.109375 1.507812 -11.195312 1.34375 -11.375 C 1.1875 -11.550781 1.109375 -11.769531 1.109375 -12.03125 Z M 1.109375 -12.03125 "/></g></g></g><g fill="#17191a" fill-opacity="1"><g transform="translate(116.46715, 16.199998)"><g><path d="M 5.171875 0.171875 C 3.890625 0.171875 2.84375 -0.25 2.03125 -1.09375 C 1.21875 -1.9375 0.8125 -3.066406 0.8125 -4.484375 L 0.8125 -4.796875 C 0.8125 -5.734375 0.992188 -6.570312 1.359375 -7.3125 C 1.722656 -8.050781 2.226562 -8.628906 2.875 -9.046875 C 3.519531 -9.472656 4.21875 -9.6875 4.96875 -9.6875 C 6.207031 -9.6875 7.171875 -9.28125 7.859375 -8.46875 C 8.546875 -7.65625 8.890625 -6.488281 8.890625 -4.96875 L 8.890625 -4.296875 L 2.4375 -4.296875 C 2.46875 -3.359375 2.742188 -2.597656 3.265625 -2.015625 C 3.785156 -1.441406 4.453125 -1.15625 5.265625 -1.15625 C 5.835938 -1.15625 6.320312 -1.269531 6.71875 -1.5 C 7.125 -1.738281 7.472656 -2.050781 7.765625 -2.4375 L 8.765625 -1.65625 C 7.960938 -0.4375 6.765625 0.171875 5.171875 0.171875 Z M 4.96875 -8.34375 C 4.3125 -8.34375 3.757812 -8.101562 3.3125 -7.625 C 2.875 -7.15625 2.601562 -6.488281 2.5 -5.625 L 7.265625 -5.625 L 7.265625 -5.75 C 7.210938 -6.570312 6.988281 -7.207031 6.59375 -7.65625 C 6.195312 -8.113281 5.65625 -8.34375 4.96875 -8.34375 Z M 4.96875 -8.34375 "/></g></g></g><g fill="#17191a" fill-opacity="1"><g transform="translate(125.997079, 16.199998)"><g><path d="M 0.828125 -4.828125 C 0.828125 -6.285156 1.171875 -7.457031 1.859375 -8.34375 C 2.554688 -9.238281 3.46875 -9.6875 4.59375 -9.6875 C 5.707031 -9.6875 6.585938 -9.304688 7.234375 -8.546875 L 7.234375 -13.5 L 8.859375 -13.5 L 8.859375 0 L 7.359375 0 L 7.28125 -1.015625 C 6.632812 -0.222656 5.734375 0.171875 4.578125 0.171875 C 3.472656 0.171875 2.570312 -0.273438 1.875 -1.171875 C 1.175781 -2.078125 0.828125 -3.257812 0.828125 -4.71875 Z M 2.46875 -4.65625 C 2.46875 -3.570312 2.6875 -2.722656 3.125 -2.109375 C 3.570312 -1.503906 4.1875 -1.203125 4.96875 -1.203125 C 6 -1.203125 6.753906 -1.664062 7.234375 -2.59375 L 7.234375 -6.96875 C 6.742188 -7.863281 6 -8.3125 5 -8.3125 C 4.195312 -8.3125 3.570312 -8 3.125 -7.375 C 2.6875 -6.757812 2.46875 -5.851562 2.46875 -4.65625 Z M 2.46875 -4.65625 "/></g></g></g><g fill="#17191a" fill-opacity="1"><g transform="translate(136.141842, 16.199998)"><g><path d="M 2.765625 -9.515625 L 2.828125 -8.3125 C 3.546875 -9.226562 4.492188 -9.6875 5.671875 -9.6875 C 7.679688 -9.6875 8.691406 -8.550781 8.703125 -6.28125 L 8.703125 0 L 7.078125 0 L 7.078125 -6.296875 C 7.078125 -6.984375 6.921875 -7.488281 6.609375 -7.8125 C 6.304688 -8.144531 5.828125 -8.3125 5.171875 -8.3125 C 4.648438 -8.3125 4.1875 -8.171875 3.78125 -7.890625 C 3.382812 -7.609375 3.078125 -7.238281 2.859375 -6.78125 L 2.859375 0 L 1.234375 0 L 1.234375 -9.515625 Z M 2.765625 -9.515625 "/></g></g></g><g fill="#17191a" fill-opacity="1"><g transform="translate(146.067016, 16.199998)"><g><path d="M 7.109375 0 C 7.015625 -0.1875 6.9375 -0.519531 6.875 -1 C 6.113281 -0.21875 5.210938 0.171875 4.171875 0.171875 C 3.234375 0.171875 2.460938 -0.09375 1.859375 -0.625 C 1.253906 -1.15625 0.953125 -1.828125 0.953125 -2.640625 C 0.953125 -3.628906 1.328125 -4.394531 2.078125 -4.9375 C 2.835938 -5.488281 3.898438 -5.765625 5.265625 -5.765625 L 6.84375 -5.765625 L 6.84375 -6.515625 C 6.84375 -7.078125 6.671875 -7.523438 6.328125 -7.859375 C 5.992188 -8.203125 5.492188 -8.375 4.828125 -8.375 C 4.253906 -8.375 3.769531 -8.226562 3.375 -7.9375 C 2.976562 -7.644531 2.78125 -7.289062 2.78125 -6.875 L 1.15625 -6.875 C 1.15625 -7.34375 1.320312 -7.796875 1.65625 -8.234375 C 1.988281 -8.679688 2.441406 -9.035156 3.015625 -9.296875 C 3.597656 -9.554688 4.238281 -9.6875 4.9375 -9.6875 C 6.03125 -9.6875 6.882812 -9.410156 7.5 -8.859375 C 8.125 -8.316406 8.445312 -7.5625 8.46875 -6.59375 L 8.46875 -2.21875 C 8.46875 -1.351562 8.582031 -0.660156 8.8125 -0.140625 L 8.8125 0 Z M 4.40625 -1.234375 C 4.914062 -1.234375 5.398438 -1.363281 5.859375 -1.625 C 6.316406 -1.894531 6.644531 -2.238281 6.84375 -2.65625 L 6.84375 -4.609375 L 5.578125 -4.609375 C 3.578125 -4.609375 2.578125 -4.023438 2.578125 -2.859375 C 2.578125 -2.347656 2.75 -1.945312 3.09375 -1.65625 C 3.4375 -1.375 3.875 -1.234375 4.40625 -1.234375 Z M 4.40625 -1.234375 "/></g></g></g><g fill="#17191a" fill-opacity="1"><g transform="translate(155.851657, 16.199998)"><g><path d="M 0.828125 -4.828125 C 0.828125 -6.285156 1.171875 -7.457031 1.859375 -8.34375 C 2.554688 -9.238281 3.46875 -9.6875 4.59375 -9.6875 C 5.707031 -9.6875 6.585938 -9.304688 7.234375 -8.546875 L 7.234375 -13.5 L 8.859375 -13.5 L 8.859375 0 L 7.359375 0 L 7.28125 -1.015625 C 6.632812 -0.222656 5.734375 0.171875 4.578125 0.171875 C 3.472656 0.171875 2.570312 -0.273438 1.875 -1.171875 C 1.175781 -2.078125 0.828125 -3.257812 0.828125 -4.71875 Z M 2.46875 -4.65625 C 2.46875 -3.570312 2.6875 -2.722656 3.125 -2.109375 C 3.570312 -1.503906 4.1875 -1.203125 4.96875 -1.203125 C 6 -1.203125 6.753906 -1.664062 7.234375 -2.59375 L 7.234375 -6.96875 C 6.742188 -7.863281 6 -8.3125 5 -8.3125 C 4.195312 -8.3125 3.570312 -8 3.125 -7.375 C 2.6875 -6.757812 2.46875 -5.851562 2.46875 -4.65625 Z M 2.46875 -4.65625 "/></g></g></g><g fill="#17191a" fill-opacity="1"><g transform="translate(165.99642, 16.199998)"><g><path d="M 2.765625 -1.328125 L 8.328125 -1.328125 L 8.328125 0 L 0.78125 0 L 0.78125 -1.203125 L 6.015625 -8.171875 L 0.859375 -8.171875 L 0.859375 -9.515625 L 8.0625 -9.515625 L 8.0625 -8.359375 Z M 4.515625 -12.015625 L 5.828125 -13.5 L 7.234375 -13.5 L 7.234375 -13.421875 L 5 -11.015625 L 4.015625 -11.015625 L 1.796875 -13.421875 L 1.796875 -13.5 L 3.1875 -13.5 Z M 4.515625 -12.015625 "/></g></g></g><g fill="#17191a" fill-opacity="1"><g transform="translate(174.911515, 16.199998)"><g><path d="M 9.28125 -4.65625 C 9.28125 -3.195312 8.945312 -2.023438 8.28125 -1.140625 C 7.613281 -0.265625 6.71875 0.171875 5.59375 0.171875 C 4.382812 0.171875 3.453125 -0.25 2.796875 -1.09375 L 2.71875 0 L 1.234375 0 L 1.234375 -13.5 L 2.859375 -13.5 L 2.859375 -8.46875 C 3.515625 -9.28125 4.414062 -9.6875 5.5625 -9.6875 C 6.71875 -9.6875 7.625 -9.25 8.28125 -8.375 C 8.945312 -7.5 9.28125 -6.304688 9.28125 -4.796875 Z M 7.65625 -4.828125 C 7.65625 -5.941406 7.441406 -6.800781 7.015625 -7.40625 C 6.585938 -8.007812 5.972656 -8.3125 5.171875 -8.3125 C 4.097656 -8.3125 3.328125 -7.8125 2.859375 -6.8125 L 2.859375 -2.703125 C 3.359375 -1.703125 4.132812 -1.203125 5.1875 -1.203125 C 5.96875 -1.203125 6.570312 -1.503906 7 -2.109375 C 7.4375 -2.710938 7.65625 -3.617188 7.65625 -4.828125 Z M 7.65625 -4.828125 "/></g></g></g><g fill="#17191a" fill-opacity="1"><g transform="translate(185.003578, 16.199998)"><g><path d="M 5.171875 0.171875 C 3.890625 0.171875 2.84375 -0.25 2.03125 -1.09375 C 1.21875 -1.9375 0.8125 -3.066406 0.8125 -4.484375 L 0.8125 -4.796875 C 0.8125 -5.734375 0.992188 -6.570312 1.359375 -7.3125 C 1.722656 -8.050781 2.226562 -8.628906 2.875 -9.046875 C 3.519531 -9.472656 4.21875 -9.6875 4.96875 -9.6875 C 6.207031 -9.6875 7.171875 -9.28125 7.859375 -8.46875 C 8.546875 -7.65625 8.890625 -6.488281 8.890625 -4.96875 L 8.890625 -4.296875 L 2.4375 -4.296875 C 2.46875 -3.359375 2.742188 -2.597656 3.265625 -2.015625 C 3.785156 -1.441406 4.453125 -1.15625 5.265625 -1.15625 C 5.835938 -1.15625 6.320312 -1.269531 6.71875 -1.5 C 7.125 -1.738281 7.472656 -2.050781 7.765625 -2.4375 L 8.765625 -1.65625 C 7.960938 -0.4375 6.765625 0.171875 5.171875 0.171875 Z M 4.96875 -8.34375 C 4.3125 -8.34375 3.757812 -8.101562 3.3125 -7.625 C 2.875 -7.15625 2.601562 -6.488281 2.5 -5.625 L 7.265625 -5.625 L 7.265625 -5.75 C 7.210938 -6.570312 6.988281 -7.207031 6.59375 -7.65625 C 6.195312 -8.113281 5.65625 -8.34375 4.96875 -8.34375 Z M 4.96875 -8.34375 "/></g></g></g><g fill="#17191a" fill-opacity="1"><g transform="translate(194.533508, 16.199998)"><g/></g></g><g fill="#17191a" fill-opacity="1"><g transform="translate(198.986655, 16.199998)"><g><path d="M 2.765625 -9.515625 L 2.828125 -8.3125 C 3.546875 -9.226562 4.492188 -9.6875 5.671875 -9.6875 C 7.679688 -9.6875 8.691406 -8.550781 8.703125 -6.28125 L 8.703125 0 L 7.078125 0 L 7.078125 -6.296875 C 7.078125 -6.984375 6.921875 -7.488281 6.609375 -7.8125 C 6.304688 -8.144531 5.828125 -8.3125 5.171875 -8.3125 C 4.648438 -8.3125 4.1875 -8.171875 3.78125 -7.890625 C 3.382812 -7.609375 3.078125 -7.238281 2.859375 -6.78125 L 2.859375 0 L 1.234375 0 L 1.234375 -9.515625 Z M 2.765625 -9.515625 "/></g></g></g><g fill="#17191a" fill-opacity="1"><g transform="translate(208.91184, 16.199998)"><g><path d="M 7.109375 0 C 7.015625 -0.1875 6.9375 -0.519531 6.875 -1 C 6.113281 -0.21875 5.210938 0.171875 4.171875 0.171875 C 3.234375 0.171875 2.460938 -0.09375 1.859375 -0.625 C 1.253906 -1.15625 0.953125 -1.828125 0.953125 -2.640625 C 0.953125 -3.628906 1.328125 -4.394531 2.078125 -4.9375 C 2.835938 -5.488281 3.898438 -5.765625 5.265625 -5.765625 L 6.84375 -5.765625 L 6.84375 -6.515625 C 6.84375 -7.078125 6.671875 -7.523438 6.328125 -7.859375 C 5.992188 -8.203125 5.492188 -8.375 4.828125 -8.375 C 4.253906 -8.375 3.769531 -8.226562 3.375 -7.9375 C 2.976562 -7.644531 2.78125 -7.289062 2.78125 -6.875 L 1.15625 -6.875 C 1.15625 -7.34375 1.320312 -7.796875 1.65625 -8.234375 C 1.988281 -8.679688 2.441406 -9.035156 3.015625 -9.296875 C 3.597656 -9.554688 4.238281 -9.6875 4.9375 -9.6875 C 6.03125 -9.6875 6.882812 -9.410156 7.5 -8.859375 C 8.125 -8.316406 8.445312 -7.5625 8.46875 -6.59375 L 8.46875 -2.21875 C 8.46875 -1.351562 8.582031 -0.660156 8.8125 -0.140625 L 8.8125 0 Z M 4.40625 -1.234375 C 4.914062 -1.234375 5.398438 -1.363281 5.859375 -1.625 C 6.316406 -1.894531 6.644531 -2.238281 6.84375 -2.65625 L 6.84375 -4.609375 L 5.578125 -4.609375 C 3.578125 -4.609375 2.578125 -4.023438 2.578125 -2.859375 C 2.578125 -2.347656 2.75 -1.945312 3.09375 -1.65625 C 3.4375 -1.375 3.875 -1.234375 4.40625 -1.234375 Z M 4.40625 -1.234375 "/></g></g></g><g fill="#17191a" fill-opacity="1"><g transform="translate(218.696492, 16.199998)"><g><path d="M 9.265625 -4.65625 C 9.265625 -3.207031 8.929688 -2.039062 8.265625 -1.15625 C 7.609375 -0.269531 6.710938 0.171875 5.578125 0.171875 C 4.421875 0.171875 3.515625 -0.191406 2.859375 -0.921875 L 2.859375 3.65625 L 1.234375 3.65625 L 1.234375 -9.515625 L 2.71875 -9.515625 L 2.796875 -8.453125 C 3.453125 -9.273438 4.375 -9.6875 5.5625 -9.6875 C 6.695312 -9.6875 7.597656 -9.253906 8.265625 -8.390625 C 8.929688 -7.535156 9.265625 -6.335938 9.265625 -4.796875 Z M 7.640625 -4.828125 C 7.640625 -5.898438 7.410156 -6.75 6.953125 -7.375 C 6.492188 -8 5.867188 -8.3125 5.078125 -8.3125 C 4.085938 -8.3125 3.347656 -7.875 2.859375 -7 L 2.859375 -2.453125 C 3.347656 -1.585938 4.09375 -1.15625 5.09375 -1.15625 C 5.875 -1.15625 6.492188 -1.460938 6.953125 -2.078125 C 7.410156 -2.691406 7.640625 -3.609375 7.640625 -4.828125 Z M 7.640625 -4.828125 "/></g></g></g><g fill="#17191a" fill-opacity="1"><g transform="translate(228.788555, 16.199998)"><g><path d="M 3 0 L 1.375 0 L 1.375 -9.515625 L 3 -9.515625 Z M 1.234375 -12.03125 C 1.234375 -12.289062 1.3125 -12.507812 1.46875 -12.6875 C 1.632812 -12.875 1.875 -12.96875 2.1875 -12.96875 C 2.507812 -12.96875 2.753906 -12.875 2.921875 -12.6875 C 3.085938 -12.507812 3.171875 -12.289062 3.171875 -12.03125 C 3.171875 -11.769531 3.085938 -11.550781 2.921875 -11.375 C 2.753906 -11.195312 2.507812 -11.109375 2.1875 -11.109375 C 1.875 -11.109375 1.632812 -11.195312 1.46875 -11.375 C 1.3125 -11.550781 1.234375 -11.769531 1.234375 -12.03125 Z M 1.234375 -12.03125 "/></g></g></g><g fill="#17191a" fill-opacity="1"><g transform="translate(233.153881, 16.199998)"><g><path d="M 6.765625 -2.515625 C 6.765625 -2.960938 6.597656 -3.304688 6.265625 -3.546875 C 5.941406 -3.785156 5.367188 -3.992188 4.546875 -4.171875 C 3.722656 -4.347656 3.066406 -4.554688 2.578125 -4.796875 C 2.097656 -5.046875 1.738281 -5.34375 1.5 -5.6875 C 1.269531 -6.03125 1.15625 -6.4375 1.15625 -6.90625 C 1.15625 -7.675781 1.484375 -8.332031 2.140625 -8.875 C 2.804688 -9.414062 3.648438 -9.6875 4.671875 -9.6875 C 5.753906 -9.6875 6.628906 -9.40625 7.296875 -8.84375 C 7.972656 -8.289062 8.3125 -7.582031 8.3125 -6.71875 L 6.671875 -6.71875 C 6.671875 -7.164062 6.476562 -7.546875 6.09375 -7.859375 C 5.71875 -8.179688 5.242188 -8.34375 4.671875 -8.34375 C 4.078125 -8.34375 3.613281 -8.210938 3.28125 -7.953125 C 2.945312 -7.703125 2.78125 -7.367188 2.78125 -6.953125 C 2.78125 -6.554688 2.9375 -6.257812 3.25 -6.0625 C 3.5625 -5.863281 4.125 -5.671875 4.9375 -5.484375 C 5.75 -5.304688 6.40625 -5.09375 6.90625 -4.84375 C 7.414062 -4.59375 7.789062 -4.289062 8.03125 -3.9375 C 8.269531 -3.582031 8.390625 -3.148438 8.390625 -2.640625 C 8.390625 -1.785156 8.050781 -1.101562 7.375 -0.59375 C 6.695312 -0.0820312 5.816406 0.171875 4.734375 0.171875 C 3.972656 0.171875 3.296875 0.0351562 2.703125 -0.234375 C 2.117188 -0.503906 1.660156 -0.878906 1.328125 -1.359375 C 0.992188 -1.835938 0.828125 -2.359375 0.828125 -2.921875 L 2.46875 -2.921875 C 2.488281 -2.378906 2.703125 -1.945312 3.109375 -1.625 C 3.523438 -1.3125 4.066406 -1.15625 4.734375 -1.15625 C 5.347656 -1.15625 5.835938 -1.28125 6.203125 -1.53125 C 6.578125 -1.78125 6.765625 -2.109375 6.765625 -2.515625 Z M 4.9375 -12.015625 L 6.25 -13.5 L 7.65625 -13.5 L 7.65625 -13.421875 L 5.421875 -11.015625 L 4.4375 -11.015625 L 2.21875 -13.421875 L 2.21875 -13.5 L 3.609375 -13.5 Z M 4.9375 -12.015625 "/></g></g></g><g fill="#17191a" fill-opacity="1"><g transform="translate(242.429088, 16.199998)"><g><path d="M 3 0 L 1.375 0 L 1.375 -9.515625 L 3 -9.515625 Z M 1.234375 -12.03125 C 1.234375 -12.289062 1.3125 -12.507812 1.46875 -12.6875 C 1.632812 -12.875 1.875 -12.96875 2.1875 -12.96875 C 2.507812 -12.96875 2.753906 -12.875 2.921875 -12.6875 C 3.085938 -12.507812 3.171875 -12.289062 3.171875 -12.03125 C 3.171875 -11.769531 3.085938 -11.550781 2.921875 -11.375 C 2.753906 -11.195312 2.507812 -11.109375 2.1875 -11.109375 C 1.875 -11.109375 1.632812 -11.195312 1.46875 -11.375 C 1.3125 -11.550781 1.234375 -11.769531 1.234375 -12.03125 Z M 1.234375 -12.03125 "/></g></g></g><g fill="#17191a" fill-opacity="1"><g transform="translate(246.794413, 16.199998)"><g/></g></g><g fill="#17191a" fill-opacity="1"><g transform="translate(251.247561, 16.199998)"><g><path d="M 7.109375 -0.9375 C 6.472656 -0.195312 5.539062 0.171875 4.3125 0.171875 C 3.300781 0.171875 2.53125 -0.117188 2 -0.703125 C 1.46875 -1.296875 1.203125 -2.171875 1.203125 -3.328125 L 1.203125 -9.515625 L 2.828125 -9.515625 L 2.828125 -3.359375 C 2.828125 -1.921875 3.410156 -1.203125 4.578125 -1.203125 C 5.816406 -1.203125 6.644531 -1.664062 7.0625 -2.59375 L 7.0625 -9.515625 L 8.6875 -9.515625 L 8.6875 0 L 7.140625 0 Z M 7.109375 -0.9375 "/></g></g></g><g fill="#17191a" fill-opacity="1"><g transform="translate(261.163957, 16.199998)"><g/></g></g><g fill="#17191a" fill-opacity="1"><g transform="translate(265.617128, 16.199998)"><g><path d="M 0.796875 -4.84375 C 0.796875 -5.769531 0.976562 -6.601562 1.34375 -7.34375 C 1.71875 -8.09375 2.226562 -8.671875 2.875 -9.078125 C 3.53125 -9.484375 4.273438 -9.6875 5.109375 -9.6875 C 6.410156 -9.6875 7.457031 -9.238281 8.25 -8.34375 C 9.050781 -7.445312 9.453125 -6.253906 9.453125 -4.765625 L 9.453125 -4.65625 C 9.453125 -3.726562 9.273438 -2.894531 8.921875 -2.15625 C 8.566406 -1.425781 8.0625 -0.851562 7.40625 -0.4375 C 6.75 -0.03125 5.992188 0.171875 5.140625 0.171875 C 3.847656 0.171875 2.800781 -0.273438 2 -1.171875 C 1.195312 -2.066406 0.796875 -3.253906 0.796875 -4.734375 Z M 2.4375 -4.65625 C 2.4375 -3.59375 2.679688 -2.742188 3.171875 -2.109375 C 3.660156 -1.472656 4.316406 -1.15625 5.140625 -1.15625 C 5.960938 -1.15625 6.613281 -1.476562 7.09375 -2.125 C 7.582031 -2.769531 7.828125 -3.675781 7.828125 -4.84375 C 7.828125 -5.882812 7.578125 -6.726562 7.078125 -7.375 C 6.585938 -8.019531 5.929688 -8.34375 5.109375 -8.34375 C 4.304688 -8.34375 3.660156 -8.023438 3.171875 -7.390625 C 2.679688 -6.753906 2.4375 -5.84375 2.4375 -4.65625 Z M 2.4375 -4.65625 "/></g></g></g><g fill="#17191a" fill-opacity="1"><g transform="translate(275.876068, 16.199998)"><g><path d="M 9.28125 -4.65625 C 9.28125 -3.195312 8.945312 -2.023438 8.28125 -1.140625 C 7.613281 -0.265625 6.71875 0.171875 5.59375 0.171875 C 4.382812 0.171875 3.453125 -0.25 2.796875 -1.09375 L 2.71875 0 L 1.234375 0 L 1.234375 -13.5 L 2.859375 -13.5 L 2.859375 -8.46875 C 3.515625 -9.28125 4.414062 -9.6875 5.5625 -9.6875 C 6.71875 -9.6875 7.625 -9.25 8.28125 -8.375 C 8.945312 -7.5 9.28125 -6.304688 9.28125 -4.796875 Z M 7.65625 -4.828125 C 7.65625 -5.941406 7.441406 -6.800781 7.015625 -7.40625 C 6.585938 -8.007812 5.972656 -8.3125 5.171875 -8.3125 C 4.097656 -8.3125 3.328125 -7.8125 2.859375 -6.8125 L 2.859375 -2.703125 C 3.359375 -1.703125 4.132812 -1.203125 5.1875 -1.203125 C 5.96875 -1.203125 6.570312 -1.503906 7 -2.109375 C 7.4375 -2.710938 7.65625 -3.617188 7.65625 -4.828125 Z M 7.65625 -4.828125 "/></g></g></g><g fill="#17191a" fill-opacity="1"><g transform="translate(285.968132, 16.199998)"><g><path d="M 3 0 L 1.375 0 L 1.375 -13.5 L 3 -13.5 Z M 3 0 "/></g></g></g><g fill="#17191a" fill-opacity="1"><g transform="translate(290.333457, 16.199998)"><g><path d="M 3 0 L 1.375 0 L 1.375 -9.515625 L 3 -9.515625 Z M 1.234375 -12.03125 C 1.234375 -12.289062 1.3125 -12.507812 1.46875 -12.6875 C 1.632812 -12.875 1.875 -12.96875 2.1875 -12.96875 C 2.507812 -12.96875 2.753906 -12.875 2.921875 -12.6875 C 3.085938 -12.507812 3.171875 -12.289062 3.171875 -12.03125 C 3.171875 -11.769531 3.085938 -11.550781 2.921875 -11.375 C 2.753906 -11.195312 2.507812 -11.109375 2.1875 -11.109375 C 1.875 -11.109375 1.632812 -11.195312 1.46875 -11.375 C 1.3125 -11.550781 1.234375 -11.769531 1.234375 -12.03125 Z M 1.234375 -12.03125 "/></g></g></g><g fill="#17191a" fill-opacity="1"><g transform="translate(294.698783, 16.199998)"><g><path d="M 3.890625 -4.40625 L 2.859375 -3.34375 L 2.859375 0 L 1.234375 0 L 1.234375 -13.5 L 2.859375 -13.5 L 2.859375 -5.328125 L 3.734375 -6.375 L 6.703125 -9.515625 L 8.671875 -9.515625 L 4.96875 -5.53125 L 9.109375 0 L 7.203125 0 Z M 3.890625 -4.40625 "/></g></g></g><g fill="#17191a" fill-opacity="1"><g transform="translate(303.815901, 16.199998)"><g><path d="M 7.109375 -0.9375 C 6.472656 -0.195312 5.539062 0.171875 4.3125 0.171875 C 3.300781 0.171875 2.53125 -0.117188 2 -0.703125 C 1.46875 -1.296875 1.203125 -2.171875 1.203125 -3.328125 L 1.203125 -9.515625 L 2.828125 -9.515625 L 2.828125 -3.359375 C 2.828125 -1.921875 3.410156 -1.203125 4.578125 -1.203125 C 5.816406 -1.203125 6.644531 -1.664062 7.0625 -2.59375 L 7.0625 -9.515625 L 8.6875 -9.515625 L 8.6875 0 L 7.140625 0 Z M 7.109375 -0.9375 "/></g></g></g><g fill="#17191a" fill-opacity="1"><g transform="translate(0.0000075, 40.949996)"><g><path d="M 3 0 L 1.375 0 L 1.375 -9.515625 L 3 -9.515625 Z M 1.234375 -12.03125 C 1.234375 -12.289062 1.3125 -12.507812 1.46875 -12.6875 C 1.632812 -12.875 1.875 -12.96875 2.1875 -12.96875 C 2.507812 -12.96875 2.753906 -12.875 2.921875 -12.6875 C 3.085938 -12.507812 3.171875 -12.289062 3.171875 -12.03125 C 3.171875 -11.769531 3.085938 -11.550781 2.921875 -11.375 C 2.753906 -11.195312 2.507812 -11.109375 2.1875 -11.109375 C 1.875 -11.109375 1.632812 -11.195312 1.46875 -11.375 C 1.3125 -11.550781 1.234375 -11.769531 1.234375 -12.03125 Z M 1.234375 -12.03125 "/></g></g></g><g fill="#17191a" fill-opacity="1"><g transform="translate(4.365333, 40.949996)"><g><path d="M 2.765625 -9.515625 L 2.828125 -8.3125 C 3.546875 -9.226562 4.492188 -9.6875 5.671875 -9.6875 C 7.679688 -9.6875 8.691406 -8.550781 8.703125 -6.28125 L 8.703125 0 L 7.078125 0 L 7.078125 -6.296875 C 7.078125 -6.984375 6.921875 -7.488281 6.609375 -7.8125 C 6.304688 -8.144531 5.828125 -8.3125 5.171875 -8.3125 C 4.648438 -8.3125 4.1875 -8.171875 3.78125 -7.890625 C 3.382812 -7.609375 3.078125 -7.238281 2.859375 -6.78125 L 2.859375 0 L 1.234375 0 L 1.234375 -9.515625 Z M 2.765625 -9.515625 "/></g></g></g><g fill="#17191a" fill-opacity="1"><g transform="translate(14.290507, 40.949996)"><g><path d="M 3.4375 -11.8125 L 3.4375 -9.515625 L 5.21875 -9.515625 L 5.21875 -8.25 L 3.4375 -8.25 L 3.4375 -2.359375 C 3.4375 -1.972656 3.515625 -1.6875 3.671875 -1.5 C 3.828125 -1.3125 4.097656 -1.21875 4.484375 -1.21875 C 4.671875 -1.21875 4.925781 -1.25 5.25 -1.3125 L 5.25 0 C 4.820312 0.113281 4.410156 0.171875 4.015625 0.171875 C 3.285156 0.171875 2.734375 -0.046875 2.359375 -0.484375 C 1.992188 -0.921875 1.8125 -1.546875 1.8125 -2.359375 L 1.8125 -8.25 L 0.078125 -8.25 L 0.078125 -9.515625 L 1.8125 -9.515625 L 1.8125 -11.8125 Z M 3.4375 -11.8125 "/></g></g></g><g fill="#17191a" fill-opacity="1"><g transform="translate(20.166567, 40.949996)"><g><path d="M 5.171875 0.171875 C 3.890625 0.171875 2.84375 -0.25 2.03125 -1.09375 C 1.21875 -1.9375 0.8125 -3.066406 0.8125 -4.484375 L 0.8125 -4.796875 C 0.8125 -5.734375 0.992188 -6.570312 1.359375 -7.3125 C 1.722656 -8.050781 2.226562 -8.628906 2.875 -9.046875 C 3.519531 -9.472656 4.21875 -9.6875 4.96875 -9.6875 C 6.207031 -9.6875 7.171875 -9.28125 7.859375 -8.46875 C 8.546875 -7.65625 8.890625 -6.488281 8.890625 -4.96875 L 8.890625 -4.296875 L 2.4375 -4.296875 C 2.46875 -3.359375 2.742188 -2.597656 3.265625 -2.015625 C 3.785156 -1.441406 4.453125 -1.15625 5.265625 -1.15625 C 5.835938 -1.15625 6.320312 -1.269531 6.71875 -1.5 C 7.125 -1.738281 7.472656 -2.050781 7.765625 -2.4375 L 8.765625 -1.65625 C 7.960938 -0.4375 6.765625 0.171875 5.171875 0.171875 Z M 4.96875 -8.34375 C 4.3125 -8.34375 3.757812 -8.101562 3.3125 -7.625 C 2.875 -7.15625 2.601562 -6.488281 2.5 -5.625 L 7.265625 -5.625 L 7.265625 -5.75 C 7.210938 -6.570312 6.988281 -7.207031 6.59375 -7.65625 C 6.195312 -8.113281 5.65625 -8.34375 4.96875 -8.34375 Z M 4.96875 -8.34375 "/></g></g></g><g fill="#17191a" fill-opacity="1"><g transform="translate(29.696496, 40.949996)"><g><path d="M 5.828125 -8.046875 C 5.578125 -8.085938 5.3125 -8.109375 5.03125 -8.109375 C 3.957031 -8.109375 3.234375 -7.65625 2.859375 -6.75 L 2.859375 0 L 1.234375 0 L 1.234375 -9.515625 L 2.8125 -9.515625 L 2.84375 -8.40625 C 3.375 -9.257812 4.128906 -9.6875 5.109375 -9.6875 C 5.421875 -9.6875 5.660156 -9.644531 5.828125 -9.5625 Z M 5.828125 -8.046875 "/></g></g></g><g fill="#17191a" fill-opacity="1"><g transform="translate(35.783357, 40.949996)"><g><path d="M 4.375 -2.203125 L 6.71875 -9.515625 L 8.390625 -9.515625 L 4.96875 0 L 3.734375 0 L 0.296875 -9.515625 L 1.953125 -9.515625 Z M 4.375 -2.203125 "/></g></g></g><g fill="#17191a" fill-opacity="1"><g transform="translate(44.496429, 40.949996)"><g><path d="M 7.109375 0 C 7.015625 -0.1875 6.9375 -0.519531 6.875 -1 C 6.113281 -0.21875 5.210938 0.171875 4.171875 0.171875 C 3.234375 0.171875 2.460938 -0.09375 1.859375 -0.625 C 1.253906 -1.15625 0.953125 -1.828125 0.953125 -2.640625 C 0.953125 -3.628906 1.328125 -4.394531 2.078125 -4.9375 C 2.835938 -5.488281 3.898438 -5.765625 5.265625 -5.765625 L 6.84375 -5.765625 L 6.84375 -6.515625 C 6.84375 -7.078125 6.671875 -7.523438 6.328125 -7.859375 C 5.992188 -8.203125 5.492188 -8.375 4.828125 -8.375 C 4.253906 -8.375 3.769531 -8.226562 3.375 -7.9375 C 2.976562 -7.644531 2.78125 -7.289062 2.78125 -6.875 L 1.15625 -6.875 C 1.15625 -7.34375 1.320312 -7.796875 1.65625 -8.234375 C 1.988281 -8.679688 2.441406 -9.035156 3.015625 -9.296875 C 3.597656 -9.554688 4.238281 -9.6875 4.9375 -9.6875 C 6.03125 -9.6875 6.882812 -9.410156 7.5 -8.859375 C 8.125 -8.316406 8.445312 -7.5625 8.46875 -6.59375 L 8.46875 -2.21875 C 8.46875 -1.351562 8.582031 -0.660156 8.8125 -0.140625 L 8.8125 0 Z M 4.40625 -1.234375 C 4.914062 -1.234375 5.398438 -1.363281 5.859375 -1.625 C 6.316406 -1.894531 6.644531 -2.238281 6.84375 -2.65625 L 6.84375 -4.609375 L 5.578125 -4.609375 C 3.578125 -4.609375 2.578125 -4.023438 2.578125 -2.859375 C 2.578125 -2.347656 2.75 -1.945312 3.09375 -1.65625 C 3.4375 -1.375 3.875 -1.234375 4.40625 -1.234375 Z M 4.40625 -1.234375 "/></g></g></g><g fill="#17191a" fill-opacity="1"><g transform="translate(54.28107, 40.949996)"><g><path d="M 3 0 L 1.375 0 L 1.375 -13.5 L 3 -13.5 Z M 3 0 "/></g></g></g><g fill="#17191a" fill-opacity="1"><g transform="translate(58.646396, 40.949996)"><g><path d="M 7.109375 0 C 7.015625 -0.1875 6.9375 -0.519531 6.875 -1 C 6.113281 -0.21875 5.210938 0.171875 4.171875 0.171875 C 3.234375 0.171875 2.460938 -0.09375 1.859375 -0.625 C 1.253906 -1.15625 0.953125 -1.828125 0.953125 -2.640625 C 0.953125 -3.628906 1.328125 -4.394531 2.078125 -4.9375 C 2.835938 -5.488281 3.898438 -5.765625 5.265625 -5.765625 L 6.84375 -5.765625 L 6.84375 -6.515625 C 6.84375 -7.078125 6.671875 -7.523438 6.328125 -7.859375 C 5.992188 -8.203125 5.492188 -8.375 4.828125 -8.375 C 4.253906 -8.375 3.769531 -8.226562 3.375 -7.9375 C 2.976562 -7.644531 2.78125 -7.289062 2.78125 -6.875 L 1.15625 -6.875 C 1.15625 -7.34375 1.320312 -7.796875 1.65625 -8.234375 C 1.988281 -8.679688 2.441406 -9.035156 3.015625 -9.296875 C 3.597656 -9.554688 4.238281 -9.6875 4.9375 -9.6875 C 6.03125 -9.6875 6.882812 -9.410156 7.5 -8.859375 C 8.125 -8.316406 8.445312 -7.5625 8.46875 -6.59375 L 8.46875 -2.21875 C 8.46875 -1.351562 8.582031 -0.660156 8.8125 -0.140625 L 8.8125 0 Z M 4.40625 -1.234375 C 4.914062 -1.234375 5.398438 -1.363281 5.859375 -1.625 C 6.316406 -1.894531 6.644531 -2.238281 6.84375 -2.65625 L 6.84375 -4.609375 L 5.578125 -4.609375 C 3.578125 -4.609375 2.578125 -4.023438 2.578125 -2.859375 C 2.578125 -2.347656 2.75 -1.945312 3.09375 -1.65625 C 3.4375 -1.375 3.875 -1.234375 4.40625 -1.234375 Z M 4.40625 -1.234375 "/></g></g></g><g fill="#17191a" fill-opacity="1"><g transform="translate(68.431036, 40.949996)"><g><path d="M 1.171875 -0.859375 C 1.171875 -1.140625 1.253906 -1.375 1.421875 -1.5625 C 1.585938 -1.75 1.835938 -1.84375 2.171875 -1.84375 C 2.503906 -1.84375 2.753906 -1.75 2.921875 -1.5625 C 3.097656 -1.375 3.1875 -1.140625 3.1875 -0.859375 C 3.1875 -0.585938 3.097656 -0.359375 2.921875 -0.171875 C 2.753906 0.00390625 2.503906 0.09375 2.171875 0.09375 C 1.835938 0.09375 1.585938 0.00390625 1.421875 -0.171875 C 1.253906 -0.359375 1.171875 -0.585938 1.171875 -0.859375 Z M 1.1875 -8.625 C 1.1875 -8.90625 1.269531 -9.140625 1.4375 -9.328125 C 1.601562 -9.515625 1.851562 -9.609375 2.1875 -9.609375 C 2.519531 -9.609375 2.769531 -9.515625 2.9375 -9.328125 C 3.113281 -9.140625 3.203125 -8.90625 3.203125 -8.625 C 3.203125 -8.351562 3.113281 -8.125 2.9375 -7.9375 C 2.769531 -7.757812 2.519531 -7.671875 2.1875 -7.671875 C 1.851562 -7.671875 1.601562 -7.757812 1.4375 -7.9375 C 1.269531 -8.125 1.1875 -8.351562 1.1875 -8.625 Z M 1.1875 -8.625 "/></g></g></g><path fill="#17191a" d="M 123.320312 37.125 C 122.605469 37.261719 122.335938 37.800781 122.335938 38.230469 C 122.335938 38.769531 122.761719 38.949219 123.074219 38.949219 C 123.742188 38.949219 124.210938 38.363281 124.210938 37.757812 C 124.210938 36.808594 123.140625 36.382812 122.203125 36.382812 C 120.839844 36.382812 120.078125 37.734375 119.878906 38.164062 C 119.363281 36.472656 117.980469 36.382812 117.578125 36.382812 C 115.300781 36.382812 114.09375 39.335938 114.09375 39.832031 C 114.09375 39.921875 114.183594 40.03125 114.339844 40.03125 C 114.515625 40.03125 114.5625 39.898438 114.605469 39.808594 C 115.367188 37.304688 116.863281 36.832031 117.511719 36.832031 C 118.515625 36.832031 118.71875 37.777344 118.71875 38.320312 C 118.71875 38.816406 118.582031 39.335938 118.316406 40.417969 L 117.554688 43.503906 C 117.21875 44.855469 116.574219 46.097656 115.386719 46.097656 C 115.277344 46.097656 114.71875 46.097656 114.25 45.804688 C 115.054688 45.644531 115.230469 44.96875 115.230469 44.699219 C 115.230469 44.246094 114.898438 43.976562 114.472656 43.976562 C 113.9375 43.976562 113.355469 44.449219 113.355469 45.171875 C 113.355469 46.117188 114.40625 46.546875 115.367188 46.546875 C 116.4375 46.546875 117.199219 45.691406 117.667969 44.765625 C 118.023438 46.097656 119.140625 46.546875 119.96875 46.546875 C 122.246094 46.546875 123.453125 43.59375 123.453125 43.097656 C 123.453125 42.984375 123.363281 42.894531 123.230469 42.894531 C 123.027344 42.894531 123.007812 43.007812 122.9375 43.1875 C 122.335938 45.171875 121.039062 46.097656 120.035156 46.097656 C 119.253906 46.097656 118.828125 45.511719 118.828125 44.585938 C 118.828125 44.089844 118.917969 43.730469 119.277344 42.242188 L 120.058594 39.175781 C 120.390625 37.824219 121.152344 36.832031 122.179688 36.832031 C 122.222656 36.832031 122.851562 36.832031 123.320312 37.125 Z M 123.320312 37.125 " fill-opacity="1" fill-rule="nonzero"/><path fill="#17191a" d="M 129.359375 33.949219 C 129.597656 33.726562 130.222656 33.230469 130.460938 33.019531 C 131.386719 32.164062 132.265625 31.335938 132.265625 29.96875 C 132.265625 28.179688 130.773438 27.023438 128.914062 27.023438 C 127.125 27.023438 125.949219 28.390625 125.949219 29.726562 C 125.949219 30.464844 126.53125 30.570312 126.738281 30.570312 C 127.050781 30.570312 127.511719 30.34375 127.511719 29.773438 C 127.511719 28.992188 126.769531 28.992188 126.589844 28.992188 C 127.023438 27.894531 128.019531 27.519531 128.75 27.519531 C 130.132812 27.519531 130.847656 28.707031 130.847656 29.96875 C 130.847656 31.53125 129.761719 32.671875 128.003906 34.492188 L 126.128906 36.445312 C 125.949219 36.609375 125.949219 36.640625 125.949219 37.015625 L 131.832031 37.015625 L 132.265625 34.324219 L 131.800781 34.324219 C 131.757812 34.625 131.636719 35.378906 131.460938 35.664062 C 131.371094 35.785156 130.238281 35.785156 130 35.785156 L 127.347656 35.785156 Z M 129.359375 33.949219 " fill-opacity="1" fill-rule="nonzero"/><path fill="#17191a" d="M 153.6875 41.136719 C 154.066406 41.136719 154.46875 41.136719 154.46875 40.6875 C 154.46875 40.234375 154.066406 40.234375 153.6875 40.234375 L 141.601562 40.234375 C 141.222656 40.234375 140.820312 40.234375 140.820312 40.6875 C 140.820312 41.136719 141.222656 41.136719 141.601562 41.136719 Z M 153.6875 41.136719 " fill-opacity="1" fill-rule="nonzero"/><path fill="#17191a" d="M 164.164062 33.40625 C 165.125 33.722656 165.90625 33.746094 166.152344 33.746094 C 168.675781 33.746094 170.285156 31.875 170.285156 31.558594 C 170.285156 31.46875 170.242188 31.355469 170.105469 31.355469 C 170.0625 31.355469 170.015625 31.355469 169.816406 31.445312 C 168.566406 31.988281 167.492188 32.054688 166.914062 32.054688 C 165.4375 32.054688 164.386719 31.601562 163.964844 31.421875 C 163.808594 31.355469 163.761719 31.355469 163.742188 31.355469 C 163.5625 31.355469 163.5625 31.492188 163.5625 31.851562 L 163.5625 38.546875 C 163.5625 38.949219 163.5625 39.085938 163.828125 39.085938 C 163.941406 39.085938 163.964844 39.0625 164.1875 38.792969 C 164.8125 37.871094 165.863281 37.328125 166.980469 37.328125 C 168.164062 37.328125 168.746094 38.433594 168.921875 38.816406 C 169.300781 39.695312 169.324219 40.800781 169.324219 41.65625 C 169.324219 42.511719 169.324219 43.796875 168.699219 44.8125 C 168.207031 45.621094 167.335938 46.1875 166.355469 46.1875 C 164.878906 46.1875 163.425781 45.171875 163.027344 43.527344 C 163.136719 43.570312 163.269531 43.59375 163.382812 43.59375 C 163.761719 43.59375 164.367188 43.367188 164.367188 42.601562 C 164.367188 41.972656 163.941406 41.609375 163.382812 41.609375 C 162.980469 41.609375 162.398438 41.8125 162.398438 42.691406 C 162.398438 44.609375 163.917969 46.792969 166.398438 46.792969 C 168.921875 46.792969 171.132812 44.652344 171.132812 41.792969 C 171.132812 39.109375 169.347656 36.878906 167 36.878906 C 165.726562 36.878906 164.746094 37.441406 164.164062 38.070312 Z M 164.164062 33.40625 " fill-opacity="1" fill-rule="nonzero"/><path fill="#17191a" d="M 182.832031 37.125 C 182.117188 37.261719 181.847656 37.800781 181.847656 38.230469 C 181.847656 38.769531 182.273438 38.949219 182.585938 38.949219 C 183.253906 38.949219 183.722656 38.363281 183.722656 37.757812 C 183.722656 36.808594 182.652344 36.382812 181.714844 36.382812 C 180.351562 36.382812 179.589844 37.734375 179.390625 38.164062 C 178.875 36.472656 177.492188 36.382812 177.089844 36.382812 C 174.8125 36.382812 173.605469 39.335938 173.605469 39.832031 C 173.605469 39.921875 173.695312 40.03125 173.851562 40.03125 C 174.027344 40.03125 174.074219 39.898438 174.117188 39.808594 C 174.878906 37.304688 176.375 36.832031 177.023438 36.832031 C 178.027344 36.832031 178.230469 37.777344 178.230469 38.320312 C 178.230469 38.816406 178.09375 39.335938 177.828125 40.417969 L 177.066406 43.503906 C 176.730469 44.855469 176.085938 46.097656 174.898438 46.097656 C 174.789062 46.097656 174.230469 46.097656 173.761719 45.804688 C 174.566406 45.644531 174.742188 44.96875 174.742188 44.699219 C 174.742188 44.246094 174.410156 43.976562 173.984375 43.976562 C 173.449219 43.976562 172.867188 44.449219 172.867188 45.171875 C 172.867188 46.117188 173.917969 46.546875 174.878906 46.546875 C 175.949219 46.546875 176.710938 45.691406 177.179688 44.765625 C 177.535156 46.097656 178.652344 46.546875 179.480469 46.546875 C 181.757812 46.546875 182.964844 43.59375 182.964844 43.097656 C 182.964844 42.984375 182.875 42.894531 182.742188 42.894531 C 182.539062 42.894531 182.519531 43.007812 182.449219 43.1875 C 181.847656 45.171875 180.550781 46.097656 179.546875 46.097656 C 178.765625 46.097656 178.339844 45.511719 178.339844 44.585938 C 178.339844 44.089844 178.429688 43.730469 178.789062 42.242188 L 179.570312 39.175781 C 179.902344 37.824219 180.664062 36.832031 181.691406 36.832031 C 181.734375 36.832031 182.363281 36.832031 182.832031 37.125 Z M 182.832031 37.125 " fill-opacity="1" fill-rule="nonzero"/><g clip-path="url(#f875438684)"><path fill="#17191a" d="M 198.550781 41.113281 L 204.714844 41.113281 C 205.027344 41.113281 205.429688 41.113281 205.429688 40.710938 C 205.429688 40.28125 205.050781 40.28125 204.714844 40.28125 L 198.550781 40.28125 L 198.550781 34.058594 C 198.550781 33.746094 198.550781 33.339844 198.148438 33.339844 C 197.722656 33.339844 197.722656 33.722656 197.722656 34.058594 L 197.722656 40.28125 L 191.558594 40.28125 C 191.246094 40.28125 190.84375 40.28125 190.84375 40.6875 C 190.84375 41.113281 191.222656 41.113281 191.558594 41.113281 L 197.722656 41.113281 L 197.722656 47.335938 C 197.722656 47.652344 197.722656 48.058594 198.125 48.058594 C 198.550781 48.058594 198.550781 47.671875 198.550781 47.335938 Z M 198.550781 41.113281 " fill-opacity="1" fill-rule="nonzero"/></g><path fill="#17191a" d="M 219.679688 31.648438 C 219.679688 31.21875 219.679688 31.109375 219.367188 31.109375 C 219.1875 31.109375 219.121094 31.109375 218.941406 31.378906 L 212.21875 41.902344 L 212.21875 42.558594 L 218.09375 42.558594 L 218.09375 44.609375 C 218.09375 45.441406 218.046875 45.667969 216.417969 45.667969 L 215.96875 45.667969 L 215.96875 46.320312 C 216.484375 46.277344 218.25 46.277344 218.875 46.277344 C 219.5 46.277344 221.289062 46.277344 221.800781 46.320312 L 221.800781 45.667969 L 221.355469 45.667969 C 219.746094 45.667969 219.679688 45.441406 219.679688 44.609375 L 219.679688 42.558594 L 221.933594 42.558594 L 221.933594 41.902344 L 219.679688 41.902344 Z M 218.203125 33.40625 L 218.203125 41.902344 L 212.777344 41.902344 Z M 218.203125 33.40625 " fill-opacity="1" fill-rule="nonzero"/><path fill="#17191a" d="M 243.476562 41.183594 C 243.902344 40.980469 243.921875 40.84375 243.921875 40.6875 C 243.921875 40.550781 243.878906 40.394531 243.476562 40.214844 L 231.390625 34.601562 C 231.101562 34.464844 231.054688 34.445312 231.011719 34.445312 C 230.742188 34.445312 230.585938 34.667969 230.585938 34.847656 C 230.585938 35.121094 230.765625 35.210938 231.054688 35.34375 L 242.539062 40.6875 L 231.035156 46.050781 C 230.585938 46.253906 230.585938 46.410156 230.585938 46.546875 C 230.585938 46.726562 230.742188 46.953125 231.011719 46.953125 C 231.054688 46.953125 231.078125 46.929688 231.390625 46.792969 Z M 243.476562 41.183594 " fill-opacity="1" fill-rule="nonzero"/><g clip-path="url(#045fe70765)"><path fill="#17191a" d="M 261.980469 39.109375 C 261.980469 37.238281 261.871094 35.414062 261.066406 33.699219 C 260.148438 31.828125 258.542969 31.332031 257.445312 31.332031 C 256.152344 31.332031 254.566406 31.988281 253.738281 33.855469 C 253.113281 35.277344 252.890625 36.675781 252.890625 39.109375 C 252.890625 41.296875 253.046875 42.941406 253.851562 44.539062 C 254.722656 46.253906 256.261719 46.792969 257.425781 46.792969 C 259.367188 46.792969 260.484375 45.621094 261.132812 44.316406 C 261.9375 42.625 261.980469 40.417969 261.980469 39.109375 Z M 257.425781 46.34375 C 256.710938 46.34375 255.257812 45.9375 254.832031 43.480469 C 254.585938 42.128906 254.585938 40.417969 254.585938 38.839844 C 254.585938 36.992188 254.585938 35.324219 254.945312 33.992188 C 255.324219 32.484375 256.464844 31.785156 257.425781 31.785156 C 258.273438 31.785156 259.570312 32.300781 259.992188 34.242188 C 260.285156 35.523438 260.285156 37.304688 260.285156 38.839844 C 260.285156 40.347656 260.285156 42.0625 260.039062 43.4375 C 259.613281 45.914062 258.207031 46.34375 257.425781 46.34375 Z M 257.425781 46.34375 " fill-opacity="1" fill-rule="nonzero"/></g></svg>