<svg xmlns="http://www.w3.org/2000/svg" xmlns:xlink="http://www.w3.org/1999/xlink" width="500" zoomAndPan="magnify" viewBox="0 0 375 74.999997" height="100" preserveAspectRatio="xMidYMid meet" version="1.0"><defs><clipPath id="5bfb7cd439"><path d="M 111 36 L 119 36 L 119 50.554688 L 111 50.554688 Z M 111 36 " clip-rule="nonzero"/></clipPath><clipPath id="f6629b31b6"><path d="M 165 24.304688 L 179 24.304688 L 179 46 L 165 46 Z M 165 24.304688 " clip-rule="nonzero"/></clipPath><clipPath id="2d526e90ed"><path d="M 216 36 L 226 36 L 226 50.554688 L 216 50.554688 Z M 216 36 " clip-rule="nonzero"/></clipPath><clipPath id="fd4268a479"><path d="M 273 24.304688 L 284 24.304688 L 284 46 L 273 46 Z M 273 24.304688 " clip-rule="nonzero"/></clipPath></defs><path fill="#a8180f" d="M 106.78125 32.796875 C 105.757812 32.988281 105.371094 33.75 105.371094 34.355469 C 105.371094 35.121094 105.980469 35.375 106.425781 35.375 C 107.386719 35.375 108.058594 34.546875 108.058594 33.6875 C 108.058594 32.351562 106.523438 31.746094 105.179688 31.746094 C 103.230469 31.746094 102.144531 33.65625 101.855469 34.261719 C 101.121094 31.875 99.136719 31.746094 98.5625 31.746094 C 95.300781 31.746094 93.574219 35.914062 93.574219 36.613281 C 93.574219 36.742188 93.703125 36.902344 93.925781 36.902344 C 94.183594 36.902344 94.246094 36.710938 94.308594 36.582031 C 95.398438 33.050781 97.539062 32.382812 98.464844 32.382812 C 99.90625 32.382812 100.191406 33.71875 100.191406 34.484375 C 100.191406 35.183594 100 35.914062 99.617188 37.441406 L 98.53125 41.800781 C 98.050781 43.710938 97.125 45.460938 95.429688 45.460938 C 95.269531 45.460938 94.46875 45.460938 93.796875 45.046875 C 94.949219 44.824219 95.203125 43.871094 95.203125 43.488281 C 95.203125 42.851562 94.726562 42.46875 94.117188 42.46875 C 93.351562 42.46875 92.519531 43.136719 92.519531 44.15625 C 92.519531 45.492188 94.023438 46.097656 95.398438 46.097656 C 96.929688 46.097656 98.019531 44.886719 98.691406 43.582031 C 99.203125 45.460938 100.800781 46.097656 101.984375 46.097656 C 105.246094 46.097656 106.972656 41.929688 106.972656 41.226562 C 106.972656 41.070312 106.84375 40.941406 106.652344 40.941406 C 106.363281 40.941406 106.332031 41.101562 106.234375 41.355469 C 105.371094 44.15625 103.519531 45.460938 102.078125 45.460938 C 100.960938 45.460938 100.351562 44.632812 100.351562 43.328125 C 100.351562 42.628906 100.480469 42.121094 100.992188 40.019531 L 102.109375 35.691406 C 102.589844 33.78125 103.679688 32.382812 105.148438 32.382812 C 105.210938 32.382812 106.109375 32.382812 106.78125 32.796875 Z M 106.78125 32.796875 " fill-opacity="1" fill-rule="nonzero"/><g clip-path="url(#5bfb7cd439)"><path fill="#a8180f" d="M 116.109375 37.039062 C 116.109375 36.46875 116.066406 36.445312 115.488281 36.445312 C 114.617188 37.296875 113.484375 37.804688 111.460938 37.804688 L 111.460938 38.503906 C 112.035156 38.503906 113.1875 38.503906 114.421875 37.933594 L 114.421875 48.8125 C 114.421875 49.597656 114.359375 49.851562 112.335938 49.851562 L 111.589844 49.851562 L 111.589844 50.554688 C 112.460938 50.488281 114.296875 50.488281 115.253906 50.488281 C 116.214844 50.488281 118.070312 50.488281 118.941406 50.554688 L 118.941406 49.851562 L 118.195312 49.851562 C 116.171875 49.851562 116.109375 49.597656 116.109375 48.8125 Z M 116.109375 37.039062 " fill-opacity="1" fill-rule="nonzero"/></g><path fill="#a8180f" d="M 152.535156 35.46875 C 152.980469 35.46875 153.558594 35.46875 153.558594 34.898438 C 153.558594 34.292969 153.015625 34.292969 152.535156 34.292969 L 133.703125 34.292969 C 133.253906 34.292969 132.679688 34.292969 132.679688 34.863281 C 132.679688 35.46875 133.222656 35.46875 133.703125 35.46875 Z M 152.535156 41.386719 C 152.980469 41.386719 153.558594 41.386719 153.558594 40.816406 C 153.558594 40.210938 153.015625 40.210938 152.535156 40.210938 L 133.703125 40.210938 C 133.253906 40.210938 132.679688 40.210938 132.679688 40.78125 C 132.679688 41.386719 133.222656 41.386719 133.703125 41.386719 Z M 152.535156 41.386719 " fill-opacity="1" fill-rule="nonzero"/><g clip-path="url(#f6629b31b6)"><path fill="#a8180f" d="M 175.726562 25.066406 C 175.726562 24.460938 175.726562 24.300781 175.28125 24.300781 C 175.023438 24.300781 174.929688 24.300781 174.671875 24.683594 L 165.046875 39.542969 L 165.046875 40.464844 L 173.457031 40.464844 L 173.457031 43.359375 C 173.457031 44.539062 173.394531 44.855469 171.058594 44.855469 L 170.417969 44.855469 L 170.417969 45.777344 C 171.15625 45.714844 173.679688 45.714844 174.578125 45.714844 C 175.472656 45.714844 178.03125 45.714844 178.765625 45.777344 L 178.765625 44.855469 L 178.125 44.855469 C 175.824219 44.855469 175.726562 44.539062 175.726562 43.359375 L 175.726562 40.464844 L 178.957031 40.464844 L 178.957031 39.542969 L 175.726562 39.542969 Z M 173.617188 27.546875 L 173.617188 39.542969 L 165.847656 39.542969 Z M 173.617188 27.546875 " fill-opacity="1" fill-rule="nonzero"/></g><path fill="#a8180f" d="M 212.757812 32.796875 C 211.734375 32.988281 211.351562 33.75 211.351562 34.355469 C 211.351562 35.121094 211.957031 35.375 212.40625 35.375 C 213.367188 35.375 214.035156 34.546875 214.035156 33.6875 C 214.035156 32.351562 212.503906 31.746094 211.160156 31.746094 C 209.210938 31.746094 208.121094 33.65625 207.835938 34.261719 C 207.097656 31.875 205.117188 31.746094 204.539062 31.746094 C 201.28125 31.746094 199.554688 35.914062 199.554688 36.613281 C 199.554688 36.742188 199.679688 36.902344 199.90625 36.902344 C 200.160156 36.902344 200.222656 36.710938 200.289062 36.582031 C 201.375 33.050781 203.519531 32.382812 204.445312 32.382812 C 205.882812 32.382812 206.171875 33.71875 206.171875 34.484375 C 206.171875 35.183594 205.980469 35.914062 205.597656 37.441406 L 204.507812 41.800781 C 204.027344 43.710938 203.101562 45.460938 201.40625 45.460938 C 201.246094 45.460938 200.449219 45.460938 199.777344 45.046875 C 200.929688 44.824219 201.183594 43.871094 201.183594 43.488281 C 201.183594 42.851562 200.703125 42.46875 200.097656 42.46875 C 199.328125 42.46875 198.496094 43.136719 198.496094 44.15625 C 198.496094 45.492188 200 46.097656 201.375 46.097656 C 202.910156 46.097656 203.996094 44.886719 204.667969 43.582031 C 205.179688 45.460938 206.777344 46.097656 207.960938 46.097656 C 211.222656 46.097656 212.949219 41.929688 212.949219 41.226562 C 212.949219 41.070312 212.820312 40.941406 212.628906 40.941406 C 212.34375 40.941406 212.308594 41.101562 212.214844 41.355469 C 211.351562 44.15625 209.496094 45.460938 208.058594 45.460938 C 206.9375 45.460938 206.332031 44.632812 206.332031 43.328125 C 206.332031 42.628906 206.460938 42.121094 206.972656 40.019531 L 208.089844 35.691406 C 208.570312 33.78125 209.65625 32.382812 211.128906 32.382812 C 211.191406 32.382812 212.085938 32.382812 212.757812 32.796875 Z M 212.757812 32.796875 " fill-opacity="1" fill-rule="nonzero"/><g clip-path="url(#2d526e90ed)"><path fill="#a8180f" d="M 221.402344 46.226562 C 221.746094 45.90625 222.640625 45.207031 222.980469 44.910156 C 224.304688 43.703125 225.5625 42.535156 225.5625 40.605469 C 225.5625 38.082031 223.429688 36.445312 220.765625 36.445312 C 218.207031 36.445312 216.523438 38.378906 216.523438 40.265625 C 216.523438 41.304688 217.355469 41.453125 217.652344 41.453125 C 218.101562 41.453125 218.761719 41.136719 218.761719 40.328125 C 218.761719 39.226562 217.695312 39.226562 217.441406 39.226562 C 218.058594 37.675781 219.484375 37.148438 220.53125 37.148438 C 222.511719 37.148438 223.535156 38.824219 223.535156 40.605469 C 223.535156 42.8125 221.980469 44.421875 219.464844 46.988281 L 216.777344 49.746094 C 216.523438 49.980469 216.523438 50.023438 216.523438 50.554688 L 224.941406 50.554688 L 225.5625 46.757812 L 224.898438 46.757812 C 224.835938 47.179688 224.664062 48.242188 224.410156 48.644531 C 224.28125 48.8125 222.660156 48.8125 222.320312 48.8125 L 218.527344 48.8125 Z M 221.402344 46.226562 " fill-opacity="1" fill-rule="nonzero"/></g><path fill="#a8180f" d="M 258.511719 35.46875 C 258.960938 35.46875 259.535156 35.46875 259.535156 34.898438 C 259.535156 34.292969 258.992188 34.292969 258.511719 34.292969 L 239.679688 34.292969 C 239.234375 34.292969 238.65625 34.292969 238.65625 34.863281 C 238.65625 35.46875 239.199219 35.46875 239.679688 35.46875 Z M 258.511719 41.386719 C 258.960938 41.386719 259.535156 41.386719 259.535156 40.816406 C 259.535156 40.210938 258.992188 40.210938 258.511719 40.210938 L 239.679688 40.210938 C 239.234375 40.210938 238.65625 40.210938 238.65625 40.78125 C 238.65625 41.386719 239.199219 41.386719 239.679688 41.386719 Z M 258.511719 41.386719 " fill-opacity="1" fill-rule="nonzero"/><g clip-path="url(#fd4268a479)"><path fill="#a8180f" d="M 279.371094 25.382812 C 279.371094 24.652344 279.371094 24.617188 278.730469 24.617188 C 277.960938 25.476562 276.363281 26.65625 273.070312 26.65625 L 273.070312 27.578125 C 273.804688 27.578125 275.40625 27.578125 277.164062 26.75 L 277.164062 43.328125 C 277.164062 44.472656 277.066406 44.855469 274.253906 44.855469 L 273.261719 44.855469 L 273.261719 45.777344 C 274.125 45.714844 277.226562 45.714844 278.28125 45.714844 C 279.335938 45.714844 282.40625 45.714844 283.269531 45.777344 L 283.269531 44.855469 L 282.277344 44.855469 C 279.464844 44.855469 279.371094 44.472656 279.371094 43.328125 Z M 279.371094 25.382812 " fill-opacity="1" fill-rule="nonzero"/></g></svg>