<svg xmlns="http://www.w3.org/2000/svg" xmlns:xlink="http://www.w3.org/1999/xlink" width="500" zoomAndPan="magnify" viewBox="0 0 375 74.999997" height="100" preserveAspectRatio="xMidYMid meet" version="1.0"><defs><g/><clipPath id="9b89c01d20"><path d="M 280 31 L 288 31 L 288 42.75 L 280 42.75 Z M 280 31 " clip-rule="nonzero"/></clipPath><clipPath id="56b5b3a7c8"><path d="M 348 26 L 364.5 26 L 364.5 28 L 348 28 Z M 348 26 " clip-rule="nonzero"/></clipPath><clipPath id="452ebc38d6"><path d="M 349 31 L 356 31 L 356 42.75 L 349 42.75 Z M 349 31 " clip-rule="nonzero"/></clipPath><clipPath id="faf62c1e67"><path d="M 357 31 L 364 31 L 364 42.75 L 357 42.75 Z M 357 31 " clip-rule="nonzero"/></clipPath><clipPath id="f3f050a856"><path d="M 107 43.050781 L 120 43.050781 L 120 56 L 107 56 Z M 107 43.050781 " clip-rule="nonzero"/></clipPath><clipPath id="b1d4bcc92a"><path d="M 121 47 L 128.726562 47 L 128.726562 59.550781 L 121 59.550781 Z M 121 47 " clip-rule="nonzero"/></clipPath></defs><g fill="#17191a" fill-opacity="1"><g transform="translate(0.0000075, 31.200004)"><g><path d="M 6.40625 0 L 4.765625 0 L 4.765625 -10.84375 L 1.5 -9.640625 L 1.5 -11.109375 L 6.15625 -12.859375 L 6.40625 -12.859375 Z M 6.40625 0 "/></g></g></g><g fill="#17191a" fill-opacity="1"><g transform="translate(10.100848, 31.200004)"><g><path d="M 4.984375 -5.109375 C 4.984375 -3.796875 4.8125 -2.539062 4.46875 -1.34375 C 4.125 -0.144531 3.597656 0.957031 2.890625 1.96875 C 2.191406 2.976562 1.453125 3.695312 0.671875 4.125 L 0.328125 3.140625 C 1.234375 2.441406 1.957031 1.367188 2.5 -0.078125 C 3.050781 -1.535156 3.332031 -3.15625 3.34375 -4.9375 L 3.34375 -5.21875 C 3.34375 -6.445312 3.210938 -7.585938 2.953125 -8.640625 C 2.703125 -9.703125 2.347656 -10.648438 1.890625 -11.484375 C 1.429688 -12.328125 0.910156 -12.984375 0.328125 -13.453125 L 0.671875 -14.4375 C 1.453125 -14.007812 2.191406 -13.296875 2.890625 -12.296875 C 3.585938 -11.296875 4.109375 -10.191406 4.453125 -8.984375 C 4.804688 -7.773438 4.984375 -6.484375 4.984375 -5.109375 Z M 4.984375 -5.109375 "/></g></g></g><g fill="#17191a" fill-opacity="1"><g transform="translate(16.354586, 31.200004)"><g/></g></g><g fill="#17191a" fill-opacity="1"><g transform="translate(20.807745, 31.200004)"><g><path d="M 10.5 -12.796875 L 10.5 -4.09375 C 10.488281 -2.882812 10.109375 -1.894531 9.359375 -1.125 C 8.609375 -0.363281 7.585938 0.0625 6.296875 0.15625 L 5.84375 0.171875 C 4.445312 0.171875 3.332031 -0.203125 2.5 -0.953125 C 1.664062 -1.710938 1.242188 -2.753906 1.234375 -4.078125 L 1.234375 -12.796875 L 2.90625 -12.796875 L 2.90625 -4.125 C 2.90625 -3.207031 3.160156 -2.488281 3.671875 -1.96875 C 4.179688 -1.457031 4.90625 -1.203125 5.84375 -1.203125 C 6.800781 -1.203125 7.53125 -1.457031 8.03125 -1.96875 C 8.539062 -2.476562 8.796875 -3.195312 8.796875 -4.125 L 8.796875 -12.796875 Z M 10.5 -12.796875 "/></g></g></g><g fill="#17191a" fill-opacity="1"><g transform="translate(32.47202, 31.200004)"><g/></g></g><g fill="#17191a" fill-opacity="1"><g transform="translate(36.925179, 31.200004)"><g><path d="M 0.84375 -4.828125 C 0.84375 -6.316406 1.1875 -7.5 1.875 -8.375 C 2.5625 -9.25 3.46875 -9.6875 4.59375 -9.6875 C 5.757812 -9.6875 6.664062 -9.273438 7.3125 -8.453125 L 7.390625 -9.515625 L 8.875 -9.515625 L 8.875 -0.234375 C 8.875 1.003906 8.507812 1.976562 7.78125 2.6875 C 7.050781 3.394531 6.070312 3.75 4.84375 3.75 C 4.15625 3.75 3.484375 3.597656 2.828125 3.296875 C 2.171875 3.003906 1.671875 2.601562 1.328125 2.09375 L 2.171875 1.125 C 2.867188 1.988281 3.722656 2.421875 4.734375 2.421875 C 5.523438 2.421875 6.140625 2.195312 6.578125 1.75 C 7.023438 1.300781 7.25 0.675781 7.25 -0.125 L 7.25 -0.953125 C 6.59375 -0.203125 5.703125 0.171875 4.578125 0.171875 C 3.460938 0.171875 2.5625 -0.273438 1.875 -1.171875 C 1.1875 -2.066406 0.84375 -3.285156 0.84375 -4.828125 Z M 2.484375 -4.65625 C 2.484375 -3.582031 2.703125 -2.738281 3.140625 -2.125 C 3.578125 -1.507812 4.191406 -1.203125 4.984375 -1.203125 C 6.003906 -1.203125 6.757812 -1.671875 7.25 -2.609375 L 7.25 -6.9375 C 6.75 -7.851562 6 -8.3125 5 -8.3125 C 4.207031 -8.3125 3.585938 -8 3.140625 -7.375 C 2.703125 -6.757812 2.484375 -5.851562 2.484375 -4.65625 Z M 2.484375 -4.65625 "/></g></g></g><g fill="#17191a" fill-opacity="1"><g transform="translate(47.017242, 31.200004)"><g><path d="M 5.171875 0.171875 C 3.890625 0.171875 2.84375 -0.25 2.03125 -1.09375 C 1.21875 -1.9375 0.8125 -3.066406 0.8125 -4.484375 L 0.8125 -4.796875 C 0.8125 -5.734375 0.992188 -6.570312 1.359375 -7.3125 C 1.722656 -8.050781 2.226562 -8.628906 2.875 -9.046875 C 3.519531 -9.472656 4.21875 -9.6875 4.96875 -9.6875 C 6.207031 -9.6875 7.171875 -9.28125 7.859375 -8.46875 C 8.546875 -7.65625 8.890625 -6.488281 8.890625 -4.96875 L 8.890625 -4.296875 L 2.4375 -4.296875 C 2.46875 -3.359375 2.742188 -2.597656 3.265625 -2.015625 C 3.785156 -1.441406 4.453125 -1.15625 5.265625 -1.15625 C 5.835938 -1.15625 6.320312 -1.269531 6.71875 -1.5 C 7.125 -1.738281 7.472656 -2.050781 7.765625 -2.4375 L 8.765625 -1.65625 C 7.960938 -0.4375 6.765625 0.171875 5.171875 0.171875 Z M 4.96875 -8.34375 C 4.3125 -8.34375 3.757812 -8.101562 3.3125 -7.625 C 2.875 -7.15625 2.601562 -6.488281 2.5 -5.625 L 7.265625 -5.625 L 7.265625 -5.75 C 7.210938 -6.570312 6.988281 -7.207031 6.59375 -7.65625 C 6.195312 -8.113281 5.65625 -8.34375 4.96875 -8.34375 Z M 4.96875 -8.34375 "/></g></g></g><g fill="#17191a" fill-opacity="1"><g transform="translate(56.547172, 31.200004)"><g><path d="M 0.796875 -4.84375 C 0.796875 -5.769531 0.976562 -6.601562 1.34375 -7.34375 C 1.71875 -8.09375 2.226562 -8.671875 2.875 -9.078125 C 3.53125 -9.484375 4.273438 -9.6875 5.109375 -9.6875 C 6.410156 -9.6875 7.457031 -9.238281 8.25 -8.34375 C 9.050781 -7.445312 9.453125 -6.253906 9.453125 -4.765625 L 9.453125 -4.65625 C 9.453125 -3.726562 9.273438 -2.894531 8.921875 -2.15625 C 8.566406 -1.425781 8.0625 -0.851562 7.40625 -0.4375 C 6.75 -0.03125 5.992188 0.171875 5.140625 0.171875 C 3.847656 0.171875 2.800781 -0.273438 2 -1.171875 C 1.195312 -2.066406 0.796875 -3.253906 0.796875 -4.734375 Z M 2.4375 -4.65625 C 2.4375 -3.59375 2.679688 -2.742188 3.171875 -2.109375 C 3.660156 -1.472656 4.316406 -1.15625 5.140625 -1.15625 C 5.960938 -1.15625 6.613281 -1.476562 7.09375 -2.125 C 7.582031 -2.769531 7.828125 -3.675781 7.828125 -4.84375 C 7.828125 -5.882812 7.578125 -6.726562 7.078125 -7.375 C 6.585938 -8.019531 5.929688 -8.34375 5.109375 -8.34375 C 4.304688 -8.34375 3.660156 -8.023438 3.171875 -7.390625 C 2.679688 -6.753906 2.4375 -5.84375 2.4375 -4.65625 Z M 2.4375 -4.65625 "/></g></g></g><g fill="#17191a" fill-opacity="1"><g transform="translate(66.806113, 31.200004)"><g><path d="M 2.765625 -9.515625 L 2.796875 -8.453125 C 3.492188 -9.273438 4.4375 -9.6875 5.625 -9.6875 C 6.957031 -9.6875 7.863281 -9.175781 8.34375 -8.15625 C 8.65625 -8.613281 9.066406 -8.984375 9.578125 -9.265625 C 10.085938 -9.546875 10.6875 -9.6875 11.375 -9.6875 C 13.457031 -9.6875 14.519531 -8.582031 14.5625 -6.375 L 14.5625 0 L 12.921875 0 L 12.921875 -6.28125 C 12.921875 -6.957031 12.765625 -7.460938 12.453125 -7.796875 C 12.148438 -8.140625 11.632812 -8.3125 10.90625 -8.3125 C 10.300781 -8.3125 9.796875 -8.128906 9.390625 -7.765625 C 8.992188 -7.398438 8.765625 -6.914062 8.703125 -6.3125 L 8.703125 0 L 7.0625 0 L 7.0625 -6.234375 C 7.0625 -7.617188 6.382812 -8.3125 5.03125 -8.3125 C 3.96875 -8.3125 3.238281 -7.851562 2.84375 -6.9375 L 2.84375 0 L 1.21875 0 L 1.21875 -9.515625 Z M 2.765625 -9.515625 "/></g></g></g><g fill="#17191a" fill-opacity="1"><g transform="translate(82.572213, 31.200004)"><g><path d="M 5.171875 0.171875 C 3.890625 0.171875 2.84375 -0.25 2.03125 -1.09375 C 1.21875 -1.9375 0.8125 -3.066406 0.8125 -4.484375 L 0.8125 -4.796875 C 0.8125 -5.734375 0.992188 -6.570312 1.359375 -7.3125 C 1.722656 -8.050781 2.226562 -8.628906 2.875 -9.046875 C 3.519531 -9.472656 4.21875 -9.6875 4.96875 -9.6875 C 6.207031 -9.6875 7.171875 -9.28125 7.859375 -8.46875 C 8.546875 -7.65625 8.890625 -6.488281 8.890625 -4.96875 L 8.890625 -4.296875 L 2.4375 -4.296875 C 2.46875 -3.359375 2.742188 -2.597656 3.265625 -2.015625 C 3.785156 -1.441406 4.453125 -1.15625 5.265625 -1.15625 C 5.835938 -1.15625 6.320312 -1.269531 6.71875 -1.5 C 7.125 -1.738281 7.472656 -2.050781 7.765625 -2.4375 L 8.765625 -1.65625 C 7.960938 -0.4375 6.765625 0.171875 5.171875 0.171875 Z M 4.96875 -8.34375 C 4.3125 -8.34375 3.757812 -8.101562 3.3125 -7.625 C 2.875 -7.15625 2.601562 -6.488281 2.5 -5.625 L 7.265625 -5.625 L 7.265625 -5.75 C 7.210938 -6.570312 6.988281 -7.207031 6.59375 -7.65625 C 6.195312 -8.113281 5.65625 -8.34375 4.96875 -8.34375 Z M 4.96875 -8.34375 "/></g></g></g><g fill="#17191a" fill-opacity="1"><g transform="translate(92.102142, 31.200004)"><g><path d="M 3.4375 -11.8125 L 3.4375 -9.515625 L 5.21875 -9.515625 L 5.21875 -8.25 L 3.4375 -8.25 L 3.4375 -2.359375 C 3.4375 -1.972656 3.515625 -1.6875 3.671875 -1.5 C 3.828125 -1.3125 4.097656 -1.21875 4.484375 -1.21875 C 4.671875 -1.21875 4.925781 -1.25 5.25 -1.3125 L 5.25 0 C 4.820312 0.113281 4.410156 0.171875 4.015625 0.171875 C 3.285156 0.171875 2.734375 -0.046875 2.359375 -0.484375 C 1.992188 -0.921875 1.8125 -1.546875 1.8125 -2.359375 L 1.8125 -8.25 L 0.078125 -8.25 L 0.078125 -9.515625 L 1.8125 -9.515625 L 1.8125 -11.8125 Z M 3.4375 -11.8125 "/></g></g></g><g fill="#17191a" fill-opacity="1"><g transform="translate(97.978202, 31.200004)"><g><path d="M 5.828125 -8.046875 C 5.578125 -8.085938 5.3125 -8.109375 5.03125 -8.109375 C 3.957031 -8.109375 3.234375 -7.65625 2.859375 -6.75 L 2.859375 0 L 1.234375 0 L 1.234375 -9.515625 L 2.8125 -9.515625 L 2.84375 -8.40625 C 3.375 -9.257812 4.128906 -9.6875 5.109375 -9.6875 C 5.421875 -9.6875 5.660156 -9.644531 5.828125 -9.5625 Z M 5.828125 -8.046875 "/></g></g></g><g fill="#17191a" fill-opacity="1"><g transform="translate(104.065063, 31.200004)"><g><path d="M 3 0 L 1.375 0 L 1.375 -9.515625 L 3 -9.515625 Z M 1.234375 -12.03125 C 1.234375 -12.289062 1.3125 -12.507812 1.46875 -12.6875 C 1.632812 -12.875 1.875 -12.96875 2.1875 -12.96875 C 2.507812 -12.96875 2.753906 -12.875 2.921875 -12.6875 C 3.085938 -12.507812 3.171875 -12.289062 3.171875 -12.03125 C 3.171875 -11.769531 3.085938 -11.550781 2.921875 -11.375 C 2.753906 -11.195312 2.507812 -11.109375 2.1875 -11.109375 C 1.875 -11.109375 1.632812 -11.195312 1.46875 -11.375 C 1.3125 -11.550781 1.234375 -11.769531 1.234375 -12.03125 Z M 1.234375 -12.03125 "/></g></g></g><g fill="#17191a" fill-opacity="1"><g transform="translate(108.430388, 31.200004)"><g><path d="M 2.90625 -9.515625 L 2.90625 1.09375 C 2.90625 2.925781 2.078125 3.84375 0.421875 3.84375 C 0.0664062 3.84375 -0.265625 3.789062 -0.578125 3.6875 L -0.578125 2.375 C -0.390625 2.425781 -0.140625 2.453125 0.171875 2.453125 C 0.535156 2.453125 0.8125 2.351562 1 2.15625 C 1.1875 1.957031 1.28125 1.617188 1.28125 1.140625 L 1.28125 -9.515625 Z M 1.109375 -12.03125 C 1.109375 -12.289062 1.1875 -12.507812 1.34375 -12.6875 C 1.507812 -12.875 1.75 -12.96875 2.0625 -12.96875 C 2.382812 -12.96875 2.625 -12.875 2.78125 -12.6875 C 2.945312 -12.507812 3.03125 -12.289062 3.03125 -12.03125 C 3.03125 -11.769531 2.945312 -11.550781 2.78125 -11.375 C 2.625 -11.195312 2.382812 -11.109375 2.0625 -11.109375 C 1.75 -11.109375 1.507812 -11.195312 1.34375 -11.375 C 1.1875 -11.550781 1.109375 -11.769531 1.109375 -12.03125 Z M 1.109375 -12.03125 "/></g></g></g><g fill="#17191a" fill-opacity="1"><g transform="translate(112.725447, 31.200004)"><g><path d="M 6.765625 -2.515625 C 6.765625 -2.960938 6.597656 -3.304688 6.265625 -3.546875 C 5.941406 -3.785156 5.367188 -3.992188 4.546875 -4.171875 C 3.722656 -4.347656 3.066406 -4.554688 2.578125 -4.796875 C 2.097656 -5.046875 1.738281 -5.34375 1.5 -5.6875 C 1.269531 -6.03125 1.15625 -6.4375 1.15625 -6.90625 C 1.15625 -7.675781 1.484375 -8.332031 2.140625 -8.875 C 2.804688 -9.414062 3.648438 -9.6875 4.671875 -9.6875 C 5.753906 -9.6875 6.628906 -9.40625 7.296875 -8.84375 C 7.972656 -8.289062 8.3125 -7.582031 8.3125 -6.71875 L 6.671875 -6.71875 C 6.671875 -7.164062 6.476562 -7.546875 6.09375 -7.859375 C 5.71875 -8.179688 5.242188 -8.34375 4.671875 -8.34375 C 4.078125 -8.34375 3.613281 -8.210938 3.28125 -7.953125 C 2.945312 -7.703125 2.78125 -7.367188 2.78125 -6.953125 C 2.78125 -6.554688 2.9375 -6.257812 3.25 -6.0625 C 3.5625 -5.863281 4.125 -5.671875 4.9375 -5.484375 C 5.75 -5.304688 6.40625 -5.09375 6.90625 -4.84375 C 7.414062 -4.59375 7.789062 -4.289062 8.03125 -3.9375 C 8.269531 -3.582031 8.390625 -3.148438 8.390625 -2.640625 C 8.390625 -1.785156 8.050781 -1.101562 7.375 -0.59375 C 6.695312 -0.0820312 5.816406 0.171875 4.734375 0.171875 C 3.972656 0.171875 3.296875 0.0351562 2.703125 -0.234375 C 2.117188 -0.503906 1.660156 -0.878906 1.328125 -1.359375 C 0.992188 -1.835938 0.828125 -2.359375 0.828125 -2.921875 L 2.46875 -2.921875 C 2.488281 -2.378906 2.703125 -1.945312 3.109375 -1.625 C 3.523438 -1.3125 4.066406 -1.15625 4.734375 -1.15625 C 5.347656 -1.15625 5.835938 -1.28125 6.203125 -1.53125 C 6.578125 -1.78125 6.765625 -2.109375 6.765625 -2.515625 Z M 6.765625 -2.515625 "/></g></g></g><g fill="#17191a" fill-opacity="1"><g transform="translate(122.000654, 31.200004)"><g><path d="M 3.890625 -4.40625 L 2.859375 -3.34375 L 2.859375 0 L 1.234375 0 L 1.234375 -13.5 L 2.859375 -13.5 L 2.859375 -5.328125 L 3.734375 -6.375 L 6.703125 -9.515625 L 8.671875 -9.515625 L 4.96875 -5.53125 L 9.109375 0 L 7.203125 0 Z M 3.890625 -4.40625 "/></g></g></g><g fill="#17191a" fill-opacity="1"><g transform="translate(131.11776, 31.200004)"><g><path d="M 0.796875 -4.84375 C 0.796875 -5.769531 0.976562 -6.601562 1.34375 -7.34375 C 1.71875 -8.09375 2.226562 -8.671875 2.875 -9.078125 C 3.53125 -9.484375 4.273438 -9.6875 5.109375 -9.6875 C 6.410156 -9.6875 7.457031 -9.238281 8.25 -8.34375 C 9.050781 -7.445312 9.453125 -6.253906 9.453125 -4.765625 L 9.453125 -4.65625 C 9.453125 -3.726562 9.273438 -2.894531 8.921875 -2.15625 C 8.566406 -1.425781 8.0625 -0.851562 7.40625 -0.4375 C 6.75 -0.03125 5.992188 0.171875 5.140625 0.171875 C 3.847656 0.171875 2.800781 -0.273438 2 -1.171875 C 1.195312 -2.066406 0.796875 -3.253906 0.796875 -4.734375 Z M 2.4375 -4.65625 C 2.4375 -3.59375 2.679688 -2.742188 3.171875 -2.109375 C 3.660156 -1.472656 4.316406 -1.15625 5.140625 -1.15625 C 5.960938 -1.15625 6.613281 -1.476562 7.09375 -2.125 C 7.582031 -2.769531 7.828125 -3.675781 7.828125 -4.84375 C 7.828125 -5.882812 7.578125 -6.726562 7.078125 -7.375 C 6.585938 -8.019531 5.929688 -8.34375 5.109375 -8.34375 C 4.304688 -8.34375 3.660156 -8.023438 3.171875 -7.390625 C 2.679688 -6.753906 2.4375 -5.84375 2.4375 -4.65625 Z M 2.4375 -4.65625 "/></g></g></g><g fill="#17191a" fill-opacity="1"><g transform="translate(141.376701, 31.200004)"><g><path d="M 2.765625 -9.515625 L 2.796875 -8.453125 C 3.492188 -9.273438 4.4375 -9.6875 5.625 -9.6875 C 6.957031 -9.6875 7.863281 -9.175781 8.34375 -8.15625 C 8.65625 -8.613281 9.066406 -8.984375 9.578125 -9.265625 C 10.085938 -9.546875 10.6875 -9.6875 11.375 -9.6875 C 13.457031 -9.6875 14.519531 -8.582031 14.5625 -6.375 L 14.5625 0 L 12.921875 0 L 12.921875 -6.28125 C 12.921875 -6.957031 12.765625 -7.460938 12.453125 -7.796875 C 12.148438 -8.140625 11.632812 -8.3125 10.90625 -8.3125 C 10.300781 -8.3125 9.796875 -8.128906 9.390625 -7.765625 C 8.992188 -7.398438 8.765625 -6.914062 8.703125 -6.3125 L 8.703125 0 L 7.0625 0 L 7.0625 -6.234375 C 7.0625 -7.617188 6.382812 -8.3125 5.03125 -8.3125 C 3.96875 -8.3125 3.238281 -7.851562 2.84375 -6.9375 L 2.84375 0 L 1.21875 0 L 1.21875 -9.515625 Z M 2.765625 -9.515625 "/></g></g></g><g fill="#17191a" fill-opacity="1"><g transform="translate(157.142802, 31.200004)"><g/></g></g><g fill="#17191a" fill-opacity="1"><g transform="translate(161.595961, 31.200004)"><g><path d="M 2.765625 -9.515625 L 2.828125 -8.3125 C 3.546875 -9.226562 4.492188 -9.6875 5.671875 -9.6875 C 7.679688 -9.6875 8.691406 -8.550781 8.703125 -6.28125 L 8.703125 0 L 7.078125 0 L 7.078125 -6.296875 C 7.078125 -6.984375 6.921875 -7.488281 6.609375 -7.8125 C 6.304688 -8.144531 5.828125 -8.3125 5.171875 -8.3125 C 4.648438 -8.3125 4.1875 -8.171875 3.78125 -7.890625 C 3.382812 -7.609375 3.078125 -7.238281 2.859375 -6.78125 L 2.859375 0 L 1.234375 0 L 1.234375 -9.515625 Z M 2.765625 -9.515625 "/></g></g></g><g fill="#17191a" fill-opacity="1"><g transform="translate(171.521135, 31.200004)"><g><path d="M 3 0 L 1.375 0 L 1.375 -9.515625 L 3 -9.515625 Z M 1.234375 -12.03125 C 1.234375 -12.289062 1.3125 -12.507812 1.46875 -12.6875 C 1.632812 -12.875 1.875 -12.96875 2.1875 -12.96875 C 2.507812 -12.96875 2.753906 -12.875 2.921875 -12.6875 C 3.085938 -12.507812 3.171875 -12.289062 3.171875 -12.03125 C 3.171875 -11.769531 3.085938 -11.550781 2.921875 -11.375 C 2.753906 -11.195312 2.507812 -11.109375 2.1875 -11.109375 C 1.875 -11.109375 1.632812 -11.195312 1.46875 -11.375 C 1.3125 -11.550781 1.234375 -11.769531 1.234375 -12.03125 Z M 1.234375 -12.03125 "/></g></g></g><g fill="#17191a" fill-opacity="1"><g transform="translate(175.88646, 31.200004)"><g><path d="M 2.765625 -1.328125 L 8.328125 -1.328125 L 8.328125 0 L 0.78125 0 L 0.78125 -1.203125 L 6.015625 -8.171875 L 0.859375 -8.171875 L 0.859375 -9.515625 L 8.0625 -9.515625 L 8.0625 -8.359375 Z M 2.765625 -1.328125 "/></g></g></g><g fill="#17191a" fill-opacity="1"><g transform="translate(184.801556, 31.200004)"><g><path d="M 7.109375 -0.9375 C 6.472656 -0.195312 5.539062 0.171875 4.3125 0.171875 C 3.300781 0.171875 2.53125 -0.117188 2 -0.703125 C 1.46875 -1.296875 1.203125 -2.171875 1.203125 -3.328125 L 1.203125 -9.515625 L 2.828125 -9.515625 L 2.828125 -3.359375 C 2.828125 -1.921875 3.410156 -1.203125 4.578125 -1.203125 C 5.816406 -1.203125 6.644531 -1.664062 7.0625 -2.59375 L 7.0625 -9.515625 L 8.6875 -9.515625 L 8.6875 0 L 7.140625 0 Z M 7.109375 -0.9375 "/></g></g></g><g fill="#17191a" fill-opacity="1"><g transform="translate(194.717963, 31.200004)"><g/></g></g><g fill="#17191a" fill-opacity="1"><g transform="translate(199.171134, 31.200004)"><g><path d="M 4.375 -2.203125 L 6.71875 -9.515625 L 8.390625 -9.515625 L 4.96875 0 L 3.734375 0 L 0.296875 -9.515625 L 1.953125 -9.515625 Z M 4.375 -2.203125 "/></g></g></g><g fill="#17191a" fill-opacity="1"><g transform="translate(207.884207, 31.200004)"><g><path d="M 5.828125 -8.046875 C 5.578125 -8.085938 5.3125 -8.109375 5.03125 -8.109375 C 3.957031 -8.109375 3.234375 -7.65625 2.859375 -6.75 L 2.859375 0 L 1.234375 0 L 1.234375 -9.515625 L 2.8125 -9.515625 L 2.84375 -8.40625 C 3.375 -9.257812 4.128906 -9.6875 5.109375 -9.6875 C 5.421875 -9.6875 5.660156 -9.644531 5.828125 -9.5625 Z M 5.828125 -8.046875 "/></g></g></g><g fill="#17191a" fill-opacity="1"><g transform="translate(213.971067, 31.200004)"><g><path d="M 3 0 L 1.375 0 L 1.375 -9.515625 L 3 -9.515625 Z M 1.234375 -12.03125 C 1.234375 -12.289062 1.3125 -12.507812 1.46875 -12.6875 C 1.632812 -12.875 1.875 -12.96875 2.1875 -12.96875 C 2.507812 -12.96875 2.753906 -12.875 2.921875 -12.6875 C 3.085938 -12.507812 3.171875 -12.289062 3.171875 -12.03125 C 3.171875 -11.769531 3.085938 -11.550781 2.921875 -11.375 C 2.753906 -11.195312 2.507812 -11.109375 2.1875 -11.109375 C 1.875 -11.109375 1.632812 -11.195312 1.46875 -11.375 C 1.3125 -11.550781 1.234375 -11.769531 1.234375 -12.03125 Z M 1.234375 -12.03125 "/></g></g></g><g fill="#17191a" fill-opacity="1"><g transform="translate(218.336393, 31.200004)"><g><path d="M 2.90625 -9.515625 L 2.90625 1.09375 C 2.90625 2.925781 2.078125 3.84375 0.421875 3.84375 C 0.0664062 3.84375 -0.265625 3.789062 -0.578125 3.6875 L -0.578125 2.375 C -0.390625 2.425781 -0.140625 2.453125 0.171875 2.453125 C 0.535156 2.453125 0.8125 2.351562 1 2.15625 C 1.1875 1.957031 1.28125 1.617188 1.28125 1.140625 L 1.28125 -9.515625 Z M 1.109375 -12.03125 C 1.109375 -12.289062 1.1875 -12.507812 1.34375 -12.6875 C 1.507812 -12.875 1.75 -12.96875 2.0625 -12.96875 C 2.382812 -12.96875 2.625 -12.875 2.78125 -12.6875 C 2.945312 -12.507812 3.03125 -12.289062 3.03125 -12.03125 C 3.03125 -11.769531 2.945312 -11.550781 2.78125 -11.375 C 2.625 -11.195312 2.382812 -11.109375 2.0625 -11.109375 C 1.75 -11.109375 1.507812 -11.195312 1.34375 -11.375 C 1.1875 -11.550781 1.109375 -11.769531 1.109375 -12.03125 Z M 1.109375 -12.03125 "/></g></g></g><g fill="#17191a" fill-opacity="1"><g transform="translate(222.631451, 31.200004)"><g><path d="M 5.171875 0.171875 C 3.890625 0.171875 2.84375 -0.25 2.03125 -1.09375 C 1.21875 -1.9375 0.8125 -3.066406 0.8125 -4.484375 L 0.8125 -4.796875 C 0.8125 -5.734375 0.992188 -6.570312 1.359375 -7.3125 C 1.722656 -8.050781 2.226562 -8.628906 2.875 -9.046875 C 3.519531 -9.472656 4.21875 -9.6875 4.96875 -9.6875 C 6.207031 -9.6875 7.171875 -9.28125 7.859375 -8.46875 C 8.546875 -7.65625 8.890625 -6.488281 8.890625 -4.96875 L 8.890625 -4.296875 L 2.4375 -4.296875 C 2.46875 -3.359375 2.742188 -2.597656 3.265625 -2.015625 C 3.785156 -1.441406 4.453125 -1.15625 5.265625 -1.15625 C 5.835938 -1.15625 6.320312 -1.269531 6.71875 -1.5 C 7.125 -1.738281 7.472656 -2.050781 7.765625 -2.4375 L 8.765625 -1.65625 C 7.960938 -0.4375 6.765625 0.171875 5.171875 0.171875 Z M 4.96875 -8.34375 C 4.3125 -8.34375 3.757812 -8.101562 3.3125 -7.625 C 2.875 -7.15625 2.601562 -6.488281 2.5 -5.625 L 7.265625 -5.625 L 7.265625 -5.75 C 7.210938 -6.570312 6.988281 -7.207031 6.59375 -7.65625 C 6.195312 -8.113281 5.65625 -8.34375 4.96875 -8.34375 Z M 4.96875 -8.34375 "/></g></g></g><g fill="#17191a" fill-opacity="1"><g transform="translate(232.161381, 31.200004)"><g><path d="M 0.828125 -4.828125 C 0.828125 -6.285156 1.171875 -7.457031 1.859375 -8.34375 C 2.554688 -9.238281 3.46875 -9.6875 4.59375 -9.6875 C 5.707031 -9.6875 6.585938 -9.304688 7.234375 -8.546875 L 7.234375 -13.5 L 8.859375 -13.5 L 8.859375 0 L 7.359375 0 L 7.28125 -1.015625 C 6.632812 -0.222656 5.734375 0.171875 4.578125 0.171875 C 3.472656 0.171875 2.570312 -0.273438 1.875 -1.171875 C 1.175781 -2.078125 0.828125 -3.257812 0.828125 -4.71875 Z M 2.46875 -4.65625 C 2.46875 -3.570312 2.6875 -2.722656 3.125 -2.109375 C 3.570312 -1.503906 4.1875 -1.203125 4.96875 -1.203125 C 6 -1.203125 6.753906 -1.664062 7.234375 -2.59375 L 7.234375 -6.96875 C 6.742188 -7.863281 6 -8.3125 5 -8.3125 C 4.195312 -8.3125 3.570312 -8 3.125 -7.375 C 2.6875 -6.757812 2.46875 -5.851562 2.46875 -4.65625 Z M 2.46875 -4.65625 "/></g></g></g><g fill="#17191a" fill-opacity="1"><g transform="translate(242.306155, 31.200004)"><g><path d="M 3 0 L 1.375 0 L 1.375 -9.515625 L 3 -9.515625 Z M 1.234375 -12.03125 C 1.234375 -12.289062 1.3125 -12.507812 1.46875 -12.6875 C 1.632812 -12.875 1.875 -12.96875 2.1875 -12.96875 C 2.507812 -12.96875 2.753906 -12.875 2.921875 -12.6875 C 3.085938 -12.507812 3.171875 -12.289062 3.171875 -12.03125 C 3.171875 -11.769531 3.085938 -11.550781 2.921875 -11.375 C 2.753906 -11.195312 2.507812 -11.109375 2.1875 -11.109375 C 1.875 -11.109375 1.632812 -11.195312 1.46875 -11.375 C 1.3125 -11.550781 1.234375 -11.769531 1.234375 -12.03125 Z M 1.234375 -12.03125 "/></g></g></g><g fill="#17191a" fill-opacity="1"><g transform="translate(246.66796, 31.200004)"><g/></g></g><g fill="#17191a" fill-opacity="1"><g transform="translate(251.121119, 31.200004)"><g/></g></g><g fill="#17191a" fill-opacity="1"><g transform="translate(255.574278, 31.200004)"><g/></g></g><g fill="#17191a" fill-opacity="1"><g transform="translate(260.027437, 31.200004)"><g/></g></g><g fill="#17191a" fill-opacity="1"><g transform="translate(264.480596, 31.200004)"><g/></g></g><g fill="#17191a" fill-opacity="1"><g transform="translate(268.933755, 31.200004)"><g/></g></g><g fill="#17191a" fill-opacity="1"><g transform="translate(273.386914, 31.200004)"><g/></g></g><g fill="#17191a" fill-opacity="1"><g transform="translate(277.840073, 31.200004)"><g/></g></g><g fill="#17191a" fill-opacity="1"><g transform="translate(282.293232, 31.200004)"><g/></g></g><g fill="#17191a" fill-opacity="1"><g transform="translate(286.746391, 31.200004)"><g/></g></g><g fill="#17191a" fill-opacity="1"><g transform="translate(291.19955, 31.200004)"><g/></g></g><g fill="#17191a" fill-opacity="1"><g transform="translate(295.652709, 31.200004)"><g/></g></g><g fill="#17191a" fill-opacity="1"><g transform="translate(300.105868, 31.200004)"><g/></g></g><g fill="#17191a" fill-opacity="1"><g transform="translate(304.559027, 31.200004)"><g/></g></g><g fill="#17191a" fill-opacity="1"><g transform="translate(309.012186, 31.200004)"><g/></g></g><g fill="#17191a" fill-opacity="1"><g transform="translate(313.465345, 31.200004)"><g/></g></g><g fill="#17191a" fill-opacity="1"><g transform="translate(317.918504, 31.200004)"><g/></g></g><g fill="#17191a" fill-opacity="1"><g transform="translate(322.371663, 31.200004)"><g/></g></g><g fill="#17191a" fill-opacity="1"><g transform="translate(326.824822, 31.200004)"><g/></g></g><g fill="#17191a" fill-opacity="1"><g transform="translate(331.277981, 31.200004)"><g/></g></g><g fill="#17191a" fill-opacity="1"><g transform="translate(335.73114, 31.200004)"><g/></g></g><g fill="#17191a" fill-opacity="1"><g transform="translate(340.184299, 31.200004)"><g/></g></g><g fill="#17191a" fill-opacity="1"><g transform="translate(344.637458, 31.200004)"><g/></g></g><g fill="#17191a" fill-opacity="1"><g transform="translate(349.090617, 31.200004)"><g/></g></g><g fill="#17191a" fill-opacity="1"><g transform="translate(353.543776, 31.200004)"><g/></g></g><g fill="#17191a" fill-opacity="1"><g transform="translate(357.996935, 31.200004)"><g/></g></g><g fill="#17191a" fill-opacity="1"><g transform="translate(362.450093, 31.200004)"><g/></g></g><g fill="#17191a" fill-opacity="1"><g transform="translate(366.902325, 31.200004)"><g><path d="M 1.265625 -0.859375 C 1.265625 -1.140625 1.347656 -1.375 1.515625 -1.5625 C 1.679688 -1.75 1.929688 -1.84375 2.265625 -1.84375 C 2.597656 -1.84375 2.847656 -1.75 3.015625 -1.5625 C 3.191406 -1.375 3.28125 -1.140625 3.28125 -0.859375 C 3.28125 -0.585938 3.191406 -0.359375 3.015625 -0.171875 C 2.847656 0.00390625 2.597656 0.09375 2.265625 0.09375 C 1.929688 0.09375 1.679688 0.00390625 1.515625 -0.171875 C 1.347656 -0.359375 1.265625 -0.585938 1.265625 -0.859375 Z M 1.265625 -0.859375 "/></g></g></g><g fill="#17191a" fill-opacity="1"><g transform="translate(0.0000075, 55.950002)"><g><path d="M 4.734375 -5.953125 L 3.171875 -4.328125 L 3.171875 0 L 1.484375 0 L 1.484375 -12.796875 L 3.171875 -12.796875 L 3.171875 -6.46875 L 8.859375 -12.796875 L 10.90625 -12.796875 L 5.859375 -7.140625 L 11.296875 0 L 9.265625 0 Z M 4.734375 -5.953125 "/></g></g></g><g fill="#17191a" fill-opacity="1"><g transform="translate(11.277816, 55.950002)"><g><path d="M 0.796875 -4.84375 C 0.796875 -5.769531 0.976562 -6.601562 1.34375 -7.34375 C 1.71875 -8.09375 2.226562 -8.671875 2.875 -9.078125 C 3.53125 -9.484375 4.273438 -9.6875 5.109375 -9.6875 C 6.410156 -9.6875 7.457031 -9.238281 8.25 -8.34375 C 9.050781 -7.445312 9.453125 -6.253906 9.453125 -4.765625 L 9.453125 -4.65625 C 9.453125 -3.726562 9.273438 -2.894531 8.921875 -2.15625 C 8.566406 -1.425781 8.0625 -0.851562 7.40625 -0.4375 C 6.75 -0.03125 5.992188 0.171875 5.140625 0.171875 C 3.847656 0.171875 2.800781 -0.273438 2 -1.171875 C 1.195312 -2.066406 0.796875 -3.253906 0.796875 -4.734375 Z M 2.4375 -4.65625 C 2.4375 -3.59375 2.679688 -2.742188 3.171875 -2.109375 C 3.660156 -1.472656 4.316406 -1.15625 5.140625 -1.15625 C 5.960938 -1.15625 6.613281 -1.476562 7.09375 -2.125 C 7.582031 -2.769531 7.828125 -3.675781 7.828125 -4.84375 C 7.828125 -5.882812 7.578125 -6.726562 7.078125 -7.375 C 6.585938 -8.019531 5.929688 -8.34375 5.109375 -8.34375 C 4.304688 -8.34375 3.660156 -8.023438 3.171875 -7.390625 C 2.679688 -6.753906 2.4375 -5.84375 2.4375 -4.65625 Z M 2.4375 -4.65625 "/></g></g></g><g fill="#17191a" fill-opacity="1"><g transform="translate(21.536757, 55.950002)"><g><path d="M 3 0 L 1.375 0 L 1.375 -13.5 L 3 -13.5 Z M 3 0 "/></g></g></g><g fill="#17191a" fill-opacity="1"><g transform="translate(25.902082, 55.950002)"><g><path d="M 3 0 L 1.375 0 L 1.375 -9.515625 L 3 -9.515625 Z M 1.234375 -12.03125 C 1.234375 -12.289062 1.3125 -12.507812 1.46875 -12.6875 C 1.632812 -12.875 1.875 -12.96875 2.1875 -12.96875 C 2.507812 -12.96875 2.753906 -12.875 2.921875 -12.6875 C 3.085938 -12.507812 3.171875 -12.289062 3.171875 -12.03125 C 3.171875 -11.769531 3.085938 -11.550781 2.921875 -11.375 C 2.753906 -11.195312 2.507812 -11.109375 2.1875 -11.109375 C 1.875 -11.109375 1.632812 -11.195312 1.46875 -11.375 C 1.3125 -11.550781 1.234375 -11.769531 1.234375 -12.03125 Z M 1.234375 -12.03125 "/></g></g></g><g fill="#17191a" fill-opacity="1"><g transform="translate(30.267408, 55.950002)"><g><path d="M 3.890625 -4.40625 L 2.859375 -3.34375 L 2.859375 0 L 1.234375 0 L 1.234375 -13.5 L 2.859375 -13.5 L 2.859375 -5.328125 L 3.734375 -6.375 L 6.703125 -9.515625 L 8.671875 -9.515625 L 4.96875 -5.53125 L 9.109375 0 L 7.203125 0 Z M 3.890625 -4.40625 "/></g></g></g><g fill="#17191a" fill-opacity="1"><g transform="translate(39.384514, 55.950002)"><g><path d="M 0.796875 -4.84375 C 0.796875 -5.769531 0.976562 -6.601562 1.34375 -7.34375 C 1.71875 -8.09375 2.226562 -8.671875 2.875 -9.078125 C 3.53125 -9.484375 4.273438 -9.6875 5.109375 -9.6875 C 6.410156 -9.6875 7.457031 -9.238281 8.25 -8.34375 C 9.050781 -7.445312 9.453125 -6.253906 9.453125 -4.765625 L 9.453125 -4.65625 C 9.453125 -3.726562 9.273438 -2.894531 8.921875 -2.15625 C 8.566406 -1.425781 8.0625 -0.851562 7.40625 -0.4375 C 6.75 -0.03125 5.992188 0.171875 5.140625 0.171875 C 3.847656 0.171875 2.800781 -0.273438 2 -1.171875 C 1.195312 -2.066406 0.796875 -3.253906 0.796875 -4.734375 Z M 2.4375 -4.65625 C 2.4375 -3.59375 2.679688 -2.742188 3.171875 -2.109375 C 3.660156 -1.472656 4.316406 -1.15625 5.140625 -1.15625 C 5.960938 -1.15625 6.613281 -1.476562 7.09375 -2.125 C 7.582031 -2.769531 7.828125 -3.675781 7.828125 -4.84375 C 7.828125 -5.882812 7.578125 -6.726562 7.078125 -7.375 C 6.585938 -8.019531 5.929688 -8.34375 5.109375 -8.34375 C 4.304688 -8.34375 3.660156 -8.023438 3.171875 -7.390625 C 2.679688 -6.753906 2.4375 -5.84375 2.4375 -4.65625 Z M 2.4375 -4.65625 "/></g></g></g><g fill="#17191a" fill-opacity="1"><g transform="translate(49.643455, 55.950002)"><g/></g></g><g fill="#17191a" fill-opacity="1"><g transform="translate(54.096614, 55.950002)"><g><path d="M 3 0 L 1.375 0 L 1.375 -9.515625 L 3 -9.515625 Z M 1.234375 -12.03125 C 1.234375 -12.289062 1.3125 -12.507812 1.46875 -12.6875 C 1.632812 -12.875 1.875 -12.96875 2.1875 -12.96875 C 2.507812 -12.96875 2.753906 -12.875 2.921875 -12.6875 C 3.085938 -12.507812 3.171875 -12.289062 3.171875 -12.03125 C 3.171875 -11.769531 3.085938 -11.550781 2.921875 -11.375 C 2.753906 -11.195312 2.507812 -11.109375 2.1875 -11.109375 C 1.875 -11.109375 1.632812 -11.195312 1.46875 -11.375 C 1.3125 -11.550781 1.234375 -11.769531 1.234375 -12.03125 Z M 1.234375 -12.03125 "/></g></g></g><g fill="#17191a" fill-opacity="1"><g transform="translate(58.46194, 55.950002)"><g><path d="M 2.765625 -1.328125 L 8.328125 -1.328125 L 8.328125 0 L 0.78125 0 L 0.78125 -1.203125 L 6.015625 -8.171875 L 0.859375 -8.171875 L 0.859375 -9.515625 L 8.0625 -9.515625 L 8.0625 -8.359375 Z M 2.765625 -1.328125 "/></g></g></g><g fill="#17191a" fill-opacity="1"><g transform="translate(67.377035, 55.950002)"><g><path d="M 2.765625 -9.515625 L 2.828125 -8.3125 C 3.546875 -9.226562 4.492188 -9.6875 5.671875 -9.6875 C 7.679688 -9.6875 8.691406 -8.550781 8.703125 -6.28125 L 8.703125 0 L 7.078125 0 L 7.078125 -6.296875 C 7.078125 -6.984375 6.921875 -7.488281 6.609375 -7.8125 C 6.304688 -8.144531 5.828125 -8.3125 5.171875 -8.3125 C 4.648438 -8.3125 4.1875 -8.171875 3.78125 -7.890625 C 3.382812 -7.609375 3.078125 -7.238281 2.859375 -6.78125 L 2.859375 0 L 1.234375 0 L 1.234375 -9.515625 Z M 2.765625 -9.515625 "/></g></g></g><g fill="#17191a" fill-opacity="1"><g transform="translate(77.302209, 55.950002)"><g><path d="M 0.796875 -4.84375 C 0.796875 -5.769531 0.976562 -6.601562 1.34375 -7.34375 C 1.71875 -8.09375 2.226562 -8.671875 2.875 -9.078125 C 3.53125 -9.484375 4.273438 -9.6875 5.109375 -9.6875 C 6.410156 -9.6875 7.457031 -9.238281 8.25 -8.34375 C 9.050781 -7.445312 9.453125 -6.253906 9.453125 -4.765625 L 9.453125 -4.65625 C 9.453125 -3.726562 9.273438 -2.894531 8.921875 -2.15625 C 8.566406 -1.425781 8.0625 -0.851562 7.40625 -0.4375 C 6.75 -0.03125 5.992188 0.171875 5.140625 0.171875 C 3.847656 0.171875 2.800781 -0.273438 2 -1.171875 C 1.195312 -2.066406 0.796875 -3.253906 0.796875 -4.734375 Z M 2.4375 -4.65625 C 2.4375 -3.59375 2.679688 -2.742188 3.171875 -2.109375 C 3.660156 -1.472656 4.316406 -1.15625 5.140625 -1.15625 C 5.960938 -1.15625 6.613281 -1.476562 7.09375 -2.125 C 7.582031 -2.769531 7.828125 -3.675781 7.828125 -4.84375 C 7.828125 -5.882812 7.578125 -6.726562 7.078125 -7.375 C 6.585938 -8.019531 5.929688 -8.34375 5.109375 -8.34375 C 4.304688 -8.34375 3.660156 -8.023438 3.171875 -7.390625 C 2.679688 -6.753906 2.4375 -5.84375 2.4375 -4.65625 Z M 2.4375 -4.65625 "/></g></g></g><g fill="#17191a" fill-opacity="1"><g transform="translate(87.56115, 55.950002)"><g><path d="M 6.765625 -2.515625 C 6.765625 -2.960938 6.597656 -3.304688 6.265625 -3.546875 C 5.941406 -3.785156 5.367188 -3.992188 4.546875 -4.171875 C 3.722656 -4.347656 3.066406 -4.554688 2.578125 -4.796875 C 2.097656 -5.046875 1.738281 -5.34375 1.5 -5.6875 C 1.269531 -6.03125 1.15625 -6.4375 1.15625 -6.90625 C 1.15625 -7.675781 1.484375 -8.332031 2.140625 -8.875 C 2.804688 -9.414062 3.648438 -9.6875 4.671875 -9.6875 C 5.753906 -9.6875 6.628906 -9.40625 7.296875 -8.84375 C 7.972656 -8.289062 8.3125 -7.582031 8.3125 -6.71875 L 6.671875 -6.71875 C 6.671875 -7.164062 6.476562 -7.546875 6.09375 -7.859375 C 5.71875 -8.179688 5.242188 -8.34375 4.671875 -8.34375 C 4.078125 -8.34375 3.613281 -8.210938 3.28125 -7.953125 C 2.945312 -7.703125 2.78125 -7.367188 2.78125 -6.953125 C 2.78125 -6.554688 2.9375 -6.257812 3.25 -6.0625 C 3.5625 -5.863281 4.125 -5.671875 4.9375 -5.484375 C 5.75 -5.304688 6.40625 -5.09375 6.90625 -4.84375 C 7.414062 -4.59375 7.789062 -4.289062 8.03125 -3.9375 C 8.269531 -3.582031 8.390625 -3.148438 8.390625 -2.640625 C 8.390625 -1.785156 8.050781 -1.101562 7.375 -0.59375 C 6.695312 -0.0820312 5.816406 0.171875 4.734375 0.171875 C 3.972656 0.171875 3.296875 0.0351562 2.703125 -0.234375 C 2.117188 -0.503906 1.660156 -0.878906 1.328125 -1.359375 C 0.992188 -1.835938 0.828125 -2.359375 0.828125 -2.921875 L 2.46875 -2.921875 C 2.488281 -2.378906 2.703125 -1.945312 3.109375 -1.625 C 3.523438 -1.3125 4.066406 -1.15625 4.734375 -1.15625 C 5.347656 -1.15625 5.835938 -1.28125 6.203125 -1.53125 C 6.578125 -1.78125 6.765625 -2.109375 6.765625 -2.515625 Z M 6.765625 -2.515625 "/></g></g></g><g fill="#17191a" fill-opacity="1"><g transform="translate(96.836357, 55.950002)"><g><path d="M 3 0 L 1.375 0 L 1.375 -9.515625 L 3 -9.515625 Z M 1.234375 -12.03125 C 1.234375 -12.289062 1.3125 -12.507812 1.46875 -12.6875 C 1.632812 -12.875 1.875 -12.96875 2.1875 -12.96875 C 2.507812 -12.96875 2.753906 -12.875 2.921875 -12.6875 C 3.085938 -12.507812 3.171875 -12.289062 3.171875 -12.03125 C 3.171875 -11.769531 3.085938 -11.550781 2.921875 -11.375 C 2.753906 -11.195312 2.507812 -11.109375 2.1875 -11.109375 C 1.875 -11.109375 1.632812 -11.195312 1.46875 -11.375 C 1.3125 -11.550781 1.234375 -11.769531 1.234375 -12.03125 Z M 1.234375 -12.03125 "/></g></g></g><g fill="#17191a" fill-opacity="1"><g transform="translate(101.191405, 55.950002)"><g/></g></g><g fill="#17191a" fill-opacity="1"><g transform="translate(105.644564, 55.950002)"><g/></g></g><g fill="#17191a" fill-opacity="1"><g transform="translate(110.097723, 55.950002)"><g/></g></g><g fill="#17191a" fill-opacity="1"><g transform="translate(114.550882, 55.950002)"><g/></g></g><g fill="#17191a" fill-opacity="1"><g transform="translate(119.004041, 55.950002)"><g/></g></g><g fill="#17191a" fill-opacity="1"><g transform="translate(123.4572, 55.950002)"><g/></g></g><g fill="#17191a" fill-opacity="1"><g transform="translate(127.910359, 55.950002)"><g/></g></g><g fill="#17191a" fill-opacity="1"><g transform="translate(132.363282, 55.950002)"><g><path d="M 3.140625 -3.609375 C 3.148438 -4.304688 3.226562 -4.851562 3.375 -5.25 C 3.519531 -5.65625 3.816406 -6.101562 4.265625 -6.59375 L 5.421875 -7.78125 C 5.910156 -8.34375 6.15625 -8.941406 6.15625 -9.578125 C 6.15625 -10.191406 5.992188 -10.671875 5.671875 -11.015625 C 5.347656 -11.367188 4.878906 -11.546875 4.265625 -11.546875 C 3.671875 -11.546875 3.191406 -11.382812 2.828125 -11.0625 C 2.460938 -10.75 2.28125 -10.328125 2.28125 -9.796875 L 0.65625 -9.796875 C 0.664062 -10.742188 1.003906 -11.507812 1.671875 -12.09375 C 2.335938 -12.675781 3.203125 -12.96875 4.265625 -12.96875 C 5.378906 -12.96875 6.242188 -12.671875 6.859375 -12.078125 C 7.472656 -11.484375 7.78125 -10.671875 7.78125 -9.640625 C 7.78125 -8.609375 7.304688 -7.59375 6.359375 -6.59375 L 5.40625 -5.65625 C 4.976562 -5.175781 4.765625 -4.492188 4.765625 -3.609375 Z M 3.0625 -0.8125 C 3.0625 -1.082031 3.140625 -1.304688 3.296875 -1.484375 C 3.460938 -1.660156 3.703125 -1.75 4.015625 -1.75 C 4.335938 -1.75 4.582031 -1.660156 4.75 -1.484375 C 4.914062 -1.304688 5 -1.082031 5 -0.8125 C 5 -0.550781 4.914062 -0.332031 4.75 -0.15625 C 4.582031 0.0078125 4.335938 0.09375 4.015625 0.09375 C 3.703125 0.09375 3.460938 0.0078125 3.296875 -0.15625 C 3.140625 -0.332031 3.0625 -0.550781 3.0625 -0.8125 Z M 3.0625 -0.8125 "/></g></g></g><path fill="#17191a" d="M 256.277344 24.015625 C 256.277344 23.933594 256.210938 23.867188 256.128906 23.867188 C 255.996094 23.867188 255.351562 24.457031 255.039062 25.027344 C 254.742188 24.292969 254.230469 23.851562 253.519531 23.851562 C 251.65625 23.851562 249.644531 26.238281 249.644531 28.660156 C 249.644531 30.28125 250.601562 31.230469 251.722656 31.230469 C 252.597656 31.230469 253.324219 30.574219 253.667969 30.199219 L 253.6875 30.214844 L 253.058594 32.671875 L 252.910156 33.257812 C 252.761719 33.75 252.515625 33.75 251.738281 33.765625 C 251.558594 33.765625 251.390625 33.765625 251.390625 34.078125 C 251.390625 34.191406 251.492188 34.242188 251.605469 34.242188 C 251.839844 34.242188 252.136719 34.207031 252.367188 34.207031 L 254.050781 34.207031 C 254.296875 34.207031 254.578125 34.242188 254.824219 34.242188 C 254.921875 34.242188 255.121094 34.242188 255.121094 33.929688 C 255.121094 33.765625 254.988281 33.765625 254.742188 33.765625 C 253.964844 33.765625 253.917969 33.652344 253.917969 33.519531 C 253.917969 33.4375 253.933594 33.421875 253.984375 33.210938 Z M 253.949219 29.121094 C 253.867188 29.398438 253.867188 29.429688 253.636719 29.742188 C 253.273438 30.199219 252.546875 30.902344 251.773438 30.902344 C 251.09375 30.902344 250.714844 30.296875 250.714844 29.332031 C 250.714844 28.433594 251.226562 26.597656 251.539062 25.914062 C 252.101562 24.765625 252.878906 24.179688 253.519531 24.179688 C 254.609375 24.179688 254.824219 25.519531 254.824219 25.652344 C 254.824219 25.667969 254.773438 25.878906 254.757812 25.914062 Z M 253.949219 29.121094 " fill-opacity="1" fill-rule="nonzero"/><path fill="#17191a" d="M 272.476562 25.765625 C 272.710938 25.765625 273.007812 25.765625 273.007812 25.46875 C 273.007812 25.160156 272.726562 25.160156 272.476562 25.160156 L 262.757812 25.160156 C 262.527344 25.160156 262.230469 25.160156 262.230469 25.453125 C 262.230469 25.765625 262.511719 25.765625 262.757812 25.765625 Z M 272.476562 28.808594 C 272.710938 28.808594 273.007812 28.808594 273.007812 28.515625 C 273.007812 28.203125 272.726562 28.203125 272.476562 28.203125 L 262.757812 28.203125 C 262.527344 28.203125 262.230469 28.203125 262.230469 28.496094 C 262.230469 28.808594 262.511719 28.808594 262.757812 28.808594 Z M 272.476562 28.808594 " fill-opacity="1" fill-rule="nonzero"/><path fill="#17191a" d="M 284.894531 9.507812 C 284.894531 9.132812 284.894531 9.117188 284.5625 9.117188 C 284.167969 9.558594 283.34375 10.164062 281.640625 10.164062 L 281.640625 10.636719 C 282.023438 10.636719 282.847656 10.636719 283.753906 10.210938 L 283.753906 18.738281 C 283.753906 19.328125 283.707031 19.523438 282.253906 19.523438 L 281.742188 19.523438 L 281.742188 19.996094 C 282.1875 19.964844 283.789062 19.964844 284.332031 19.964844 C 284.875 19.964844 286.460938 19.964844 286.90625 19.996094 L 286.90625 19.523438 L 286.394531 19.523438 C 284.941406 19.523438 284.894531 19.328125 284.894531 18.738281 Z M 284.894531 9.507812 " fill-opacity="1" fill-rule="nonzero"/><path fill="#17191a" d="M 280.140625 26.648438 L 288.21875 26.648438 L 288.21875 27.304688 L 280.140625 27.304688 Z M 280.140625 26.648438 " fill-opacity="1" fill-rule="nonzero"/><g clip-path="url(#9b89c01d20)"><path fill="#17191a" d="M 287.402344 39.542969 L 287.039062 39.542969 C 286.988281 39.820312 286.855469 40.71875 286.691406 40.980469 C 286.578125 41.128906 285.636719 41.128906 285.140625 41.128906 L 282.089844 41.128906 C 282.535156 40.753906 283.539062 39.707031 283.96875 39.3125 C 286.476562 37.023438 287.402344 36.171875 287.402344 34.550781 C 287.402344 32.667969 285.898438 31.410156 283.984375 31.410156 C 282.070312 31.410156 280.949219 33.03125 280.949219 34.4375 C 280.949219 35.273438 281.675781 35.273438 281.726562 35.273438 C 282.070312 35.273438 282.5 35.027344 282.5 34.503906 C 282.5 34.042969 282.1875 33.734375 281.726562 33.734375 C 281.578125 33.734375 281.542969 33.734375 281.492188 33.75 C 281.808594 32.636719 282.699219 31.882812 283.769531 31.882812 C 285.171875 31.882812 286.03125 33.046875 286.03125 34.550781 C 286.03125 35.941406 285.222656 37.152344 284.28125 38.199219 L 280.949219 41.898438 L 280.949219 42.292969 L 286.972656 42.292969 Z M 287.402344 39.542969 " fill-opacity="1" fill-rule="nonzero"/></g><path fill="#17191a" d="M 293.089844 31.132812 C 293.089844 30.183594 292.773438 29.480469 292.097656 29.480469 C 291.570312 29.480469 291.304688 29.90625 291.304688 30.265625 C 291.304688 30.625 291.554688 31.066406 292.113281 31.066406 C 292.328125 31.066406 292.511719 31 292.660156 30.855469 C 292.691406 30.820312 292.707031 30.820312 292.726562 30.820312 C 292.757812 30.820312 292.757812 31.050781 292.757812 31.132812 C 292.757812 31.671875 292.660156 32.734375 291.703125 33.800781 C 291.519531 33.996094 291.519531 34.027344 291.519531 34.0625 C 291.519531 34.144531 291.601562 34.226562 291.6875 34.226562 C 291.816406 34.226562 293.089844 33.015625 293.089844 31.132812 Z M 293.089844 31.132812 " fill-opacity="1" fill-rule="nonzero"/><path fill="#17191a" d="M 302.074219 29.121094 C 301.992188 29.398438 301.992188 29.429688 301.761719 29.742188 C 301.398438 30.199219 300.671875 30.902344 299.898438 30.902344 C 299.222656 30.902344 298.839844 30.296875 298.839844 29.332031 C 298.839844 28.433594 299.351562 26.597656 299.667969 25.914062 C 300.226562 24.765625 301.003906 24.179688 301.648438 24.179688 C 302.734375 24.179688 302.949219 25.519531 302.949219 25.652344 C 302.949219 25.667969 302.902344 25.878906 302.882812 25.914062 Z M 303.132812 24.929688 C 302.949219 24.503906 302.503906 23.851562 301.648438 23.851562 C 299.78125 23.851562 297.769531 26.238281 297.769531 28.660156 C 297.769531 30.28125 298.726562 31.230469 299.847656 31.230469 C 300.753906 31.230469 301.53125 30.527344 301.992188 29.988281 C 302.160156 30.953125 302.933594 31.230469 303.429688 31.230469 C 303.925781 31.230469 304.320312 30.9375 304.617188 30.347656 C 304.882812 29.789062 305.113281 28.792969 305.113281 28.726562 C 305.113281 28.644531 305.046875 28.578125 304.945312 28.578125 C 304.796875 28.578125 304.78125 28.660156 304.714844 28.90625 C 304.46875 29.871094 304.15625 30.902344 303.480469 30.902344 C 303 30.902344 302.96875 30.476562 302.96875 30.148438 C 302.96875 29.773438 303.015625 29.59375 303.164062 28.957031 C 303.28125 28.546875 303.363281 28.1875 303.496094 27.710938 C 304.105469 25.257812 304.253906 24.667969 304.253906 24.570312 C 304.253906 24.339844 304.074219 24.160156 303.824219 24.160156 C 303.296875 24.160156 303.164062 24.734375 303.132812 24.929688 Z M 303.132812 24.929688 " fill-opacity="1" fill-rule="nonzero"/><path fill="#17191a" d="M 307.132812 27.390625 C 307.273438 27.433594 307.714844 27.542969 308.175781 27.542969 C 309.550781 27.542969 310.386719 26.585938 310.386719 26.421875 C 310.386719 26.300781 310.308594 26.269531 310.253906 26.269531 C 310.234375 26.269531 310.210938 26.269531 310.113281 26.324219 C 309.683594 26.484375 309.175781 26.617188 308.582031 26.617188 C 307.933594 26.617188 307.394531 26.453125 307.054688 26.324219 C 306.945312 26.269531 306.921875 26.269531 306.910156 26.269531 C 306.769531 26.269531 306.769531 26.386719 306.769531 26.585938 L 306.769531 29.78125 C 306.769531 29.976562 306.769531 30.109375 306.945312 30.109375 C 307.03125 30.109375 307.066406 30.0625 307.121094 29.976562 C 307.253906 29.8125 307.671875 29.257812 308.605469 29.257812 C 309.222656 29.257812 309.519531 29.757812 309.617188 29.964844 C 309.804688 30.359375 309.828125 30.859375 309.828125 31.285156 C 309.828125 31.6875 309.816406 32.277344 309.507812 32.757812 C 309.296875 33.085938 308.859375 33.425781 308.273438 33.425781 C 307.558594 33.425781 306.855469 32.976562 306.601562 32.269531 C 306.636719 32.277344 306.703125 32.277344 306.714844 32.277344 C 307.019531 32.277344 307.261719 32.082031 307.261719 31.742188 C 307.261719 31.339844 306.945312 31.199219 306.722656 31.199219 C 306.527344 31.199219 306.175781 31.308594 306.175781 31.777344 C 306.175781 32.757812 307.03125 33.75 308.296875 33.75 C 309.671875 33.75 310.839844 32.691406 310.839844 31.339844 C 310.839844 30.074219 309.914062 28.953125 308.617188 28.953125 C 308.066406 28.953125 307.550781 29.125 307.132812 29.496094 Z M 307.132812 27.390625 " fill-opacity="1" fill-rule="nonzero"/><path fill="#17191a" d="M 327.84375 25.765625 C 328.078125 25.765625 328.375 25.765625 328.375 25.46875 C 328.375 25.160156 328.09375 25.160156 327.84375 25.160156 L 318.125 25.160156 C 317.894531 25.160156 317.597656 25.160156 317.597656 25.453125 C 317.597656 25.765625 317.878906 25.765625 318.125 25.765625 Z M 327.84375 28.808594 C 328.078125 28.808594 328.375 28.808594 328.375 28.515625 C 328.375 28.203125 328.09375 28.203125 327.84375 28.203125 L 318.125 28.203125 C 317.894531 28.203125 317.597656 28.203125 317.597656 28.496094 C 317.597656 28.808594 317.878906 28.808594 318.125 28.808594 Z M 327.84375 28.808594 " fill-opacity="1" fill-rule="nonzero"/><path fill="#17191a" d="M 344.730469 27.304688 C 345.011719 27.304688 345.308594 27.304688 345.308594 26.976562 C 345.308594 26.648438 345.011719 26.648438 344.730469 26.648438 L 335.804688 26.648438 C 335.523438 26.648438 335.226562 26.648438 335.226562 26.976562 C 335.226562 27.304688 335.523438 27.304688 335.804688 27.304688 Z M 344.730469 27.304688 " fill-opacity="1" fill-rule="nonzero"/><path fill="#17191a" d="M 355.417969 14.125 C 355.136719 14.140625 355.070312 14.15625 355.070312 14.304688 C 355.070312 14.46875 355.152344 14.46875 355.453125 14.46875 L 356.210938 14.46875 C 357.613281 14.46875 358.238281 15.613281 358.238281 17.183594 C 358.238281 19.328125 357.117188 19.898438 356.308594 19.898438 C 355.515625 19.898438 354.164062 19.523438 353.6875 18.445312 C 354.214844 18.523438 354.691406 18.230469 354.691406 17.640625 C 354.691406 17.167969 354.34375 16.839844 353.882812 16.839844 C 353.488281 16.839844 353.058594 17.070312 353.058594 17.691406 C 353.058594 19.148438 354.527344 20.339844 356.359375 20.339844 C 358.324219 20.339844 359.773438 18.851562 359.773438 17.199219 C 359.773438 15.695312 358.554688 14.515625 356.96875 14.238281 C 358.40625 13.828125 359.328125 12.632812 359.328125 11.359375 C 359.328125 10.066406 357.976562 9.117188 356.375 9.117188 C 354.726562 9.117188 353.503906 10.113281 353.503906 11.308594 C 353.503906 11.964844 354.015625 12.09375 354.261719 12.09375 C 354.609375 12.09375 355.003906 11.847656 355.003906 11.359375 C 355.003906 10.835938 354.609375 10.605469 354.246094 10.605469 C 354.148438 10.605469 354.113281 10.605469 354.066406 10.621094 C 354.691406 9.507812 356.242188 9.507812 356.324219 9.507812 C 356.871094 9.507812 357.941406 9.753906 357.941406 11.359375 C 357.941406 11.667969 357.894531 12.585938 357.414062 13.289062 C 356.917969 14.007812 356.359375 14.058594 355.914062 14.074219 Z M 355.417969 14.125 " fill-opacity="1" fill-rule="nonzero"/><g clip-path="url(#56b5b3a7c8)"><path fill="#17191a" d="M 348.339844 26.648438 L 364.5 26.648438 L 364.5 27.304688 L 348.339844 27.304688 Z M 348.339844 26.648438 " fill-opacity="1" fill-rule="nonzero"/></g><g clip-path="url(#452ebc38d6)"><path fill="#17191a" d="M 353.09375 31.800781 C 353.09375 31.425781 353.09375 31.410156 352.765625 31.410156 C 352.367188 31.851562 351.542969 32.457031 349.84375 32.457031 L 349.84375 32.933594 C 350.222656 32.933594 351.046875 32.933594 351.957031 32.507812 L 351.957031 41.03125 C 351.957031 41.621094 351.90625 41.816406 350.453125 41.816406 L 349.941406 41.816406 L 349.941406 42.292969 C 350.386719 42.257812 351.988281 42.257812 352.53125 42.257812 C 353.078125 42.257812 354.660156 42.257812 355.109375 42.292969 L 355.109375 41.816406 L 354.597656 41.816406 C 353.144531 41.816406 353.09375 41.621094 353.09375 41.03125 Z M 353.09375 31.800781 " fill-opacity="1" fill-rule="nonzero"/></g><g clip-path="url(#faf62c1e67)"><path fill="#17191a" d="M 358.449219 36.597656 C 358.449219 32.457031 360.480469 31.800781 361.371094 31.800781 C 361.964844 31.800781 362.558594 31.984375 362.871094 32.472656 C 362.675781 32.472656 362.046875 32.472656 362.046875 33.144531 C 362.046875 33.503906 362.296875 33.816406 362.722656 33.816406 C 363.136719 33.816406 363.417969 33.570312 363.417969 33.09375 C 363.417969 32.246094 362.789062 31.410156 361.355469 31.410156 C 359.277344 31.410156 357.097656 33.519531 357.097656 37.121094 C 357.097656 41.621094 359.078125 42.636719 360.480469 42.636719 C 362.277344 42.636719 363.8125 41.082031 363.8125 38.953125 C 363.8125 36.777344 362.277344 35.320312 360.628906 35.320312 C 359.160156 35.320312 358.617188 36.582031 358.449219 37.039062 Z M 360.480469 42.191406 C 359.441406 42.191406 358.945312 41.277344 358.796875 40.933594 C 358.648438 40.507812 358.484375 39.707031 358.484375 38.5625 C 358.484375 37.269531 359.078125 35.648438 360.5625 35.648438 C 361.46875 35.648438 361.949219 36.253906 362.195312 36.808594 C 362.460938 37.414062 362.460938 38.234375 362.460938 38.9375 C 362.460938 39.769531 362.460938 40.507812 362.148438 41.128906 C 361.734375 41.914062 361.140625 42.191406 360.480469 42.191406 Z M 360.480469 42.191406 " fill-opacity="1" fill-rule="nonzero"/></g><g clip-path="url(#f3f050a856)"><path fill="#17191a" d="M 114.363281 52.019531 C 114.230469 52.484375 114.230469 52.539062 113.851562 53.058594 C 113.253906 53.820312 112.066406 54.992188 110.792969 54.992188 C 109.6875 54.992188 109.0625 53.984375 109.0625 52.375 C 109.0625 50.875 109.902344 47.820312 110.414062 46.675781 C 111.335938 44.765625 112.605469 43.785156 113.660156 43.785156 C 115.445312 43.785156 115.796875 46.023438 115.796875 46.238281 C 115.796875 46.265625 115.714844 46.621094 115.6875 46.675781 Z M 116.09375 45.039062 C 115.796875 44.332031 115.066406 43.238281 113.660156 43.238281 C 110.605469 43.238281 107.304688 47.222656 107.304688 51.257812 C 107.304688 53.957031 108.875 55.539062 110.714844 55.539062 C 112.199219 55.539062 113.472656 54.367188 114.230469 53.464844 C 114.5 55.074219 115.769531 55.539062 116.582031 55.539062 C 117.394531 55.539062 118.042969 55.046875 118.527344 54.066406 C 118.960938 53.140625 119.339844 51.476562 119.339844 51.367188 C 119.339844 51.230469 119.230469 51.121094 119.070312 51.121094 C 118.824219 51.121094 118.800781 51.257812 118.691406 51.667969 C 118.285156 53.273438 117.769531 54.992188 116.664062 54.992188 C 115.878906 54.992188 115.824219 54.285156 115.824219 53.738281 C 115.824219 53.113281 115.90625 52.8125 116.148438 51.75 C 116.339844 51.066406 116.472656 50.464844 116.691406 49.675781 C 117.691406 45.585938 117.933594 44.605469 117.933594 44.441406 C 117.933594 44.058594 117.636719 43.757812 117.230469 43.757812 C 116.363281 43.757812 116.148438 44.710938 116.09375 45.039062 Z M 116.09375 45.039062 " fill-opacity="1" fill-rule="nonzero"/></g><g clip-path="url(#b1d4bcc92a)"><path fill="#17191a" d="M 125.207031 55.648438 C 125.496094 55.375 126.253906 54.777344 126.542969 54.523438 C 127.660156 53.484375 128.722656 52.484375 128.722656 50.832031 C 128.722656 48.667969 126.921875 47.269531 124.667969 47.269531 C 122.503906 47.269531 121.078125 48.921875 121.078125 50.539062 C 121.078125 51.433594 121.78125 51.558594 122.035156 51.558594 C 122.414062 51.558594 122.972656 51.285156 122.972656 50.59375 C 122.972656 49.648438 122.070312 49.648438 121.855469 49.648438 C 122.378906 48.324219 123.585938 47.867188 124.46875 47.867188 C 126.144531 47.867188 127.011719 49.304688 127.011719 50.832031 C 127.011719 52.722656 125.695312 54.105469 123.566406 56.304688 L 121.296875 58.667969 C 121.078125 58.867188 121.078125 58.902344 121.078125 59.359375 L 128.199219 59.359375 L 128.722656 56.105469 L 128.164062 56.105469 C 128.109375 56.46875 127.964844 57.375 127.75 57.722656 C 127.640625 57.867188 126.273438 57.867188 125.984375 57.867188 L 122.773438 57.867188 Z M 125.207031 55.648438 " fill-opacity="1" fill-rule="nonzero"/></g></svg>