<svg xmlns="http://www.w3.org/2000/svg" xmlns:xlink="http://www.w3.org/1999/xlink" width="500" zoomAndPan="magnify" viewBox="0 0 375 74.999997" height="100" preserveAspectRatio="xMidYMid meet" version="1.0"><defs><clipPath id="4479694af0"><path d="M 219 13.035156 L 230 13.035156 L 230 30 L 219 30 Z M 219 13.035156 " clip-rule="nonzero"/></clipPath><clipPath id="2cf5cbc5ad"><path d="M 219 45 L 230 45 L 230 61.785156 L 219 61.785156 Z M 219 45 " clip-rule="nonzero"/></clipPath></defs><path fill="#a8180f" d="M 151.363281 42.429688 C 151.246094 42.839844 151.246094 42.886719 150.90625 43.34375 C 150.378906 44.015625 149.320312 45.050781 148.191406 45.050781 C 147.203125 45.050781 146.652344 44.160156 146.652344 42.742188 C 146.652344 41.417969 147.394531 38.726562 147.851562 37.714844 C 148.671875 36.035156 149.800781 35.167969 150.738281 35.167969 C 152.328125 35.167969 152.640625 37.140625 152.640625 37.332031 C 152.640625 37.355469 152.566406 37.667969 152.542969 37.714844 Z M 152.902344 36.273438 C 152.640625 35.648438 151.988281 34.6875 150.738281 34.6875 C 148.023438 34.6875 145.085938 38.199219 145.085938 41.757812 C 145.085938 44.136719 146.480469 45.53125 148.117188 45.53125 C 149.441406 45.53125 150.570312 44.496094 151.246094 43.703125 C 151.484375 45.121094 152.617188 45.53125 153.335938 45.53125 C 154.058594 45.53125 154.636719 45.097656 155.070312 44.234375 C 155.453125 43.414062 155.789062 41.949219 155.789062 41.851562 C 155.789062 41.730469 155.695312 41.636719 155.550781 41.636719 C 155.332031 41.636719 155.308594 41.757812 155.214844 42.117188 C 154.851562 43.535156 154.394531 45.050781 153.410156 45.050781 C 152.710938 45.050781 152.664062 44.425781 152.664062 43.945312 C 152.664062 43.390625 152.734375 43.125 152.953125 42.1875 C 153.121094 41.585938 153.242188 41.058594 153.433594 40.363281 C 154.324219 36.753906 154.539062 35.890625 154.539062 35.746094 C 154.539062 35.410156 154.273438 35.144531 153.914062 35.144531 C 153.144531 35.144531 152.953125 35.984375 152.902344 36.273438 Z M 152.902344 36.273438 " fill-opacity="1" fill-rule="nonzero"/><path fill="#a8180f" d="M 161.007812 45.628906 C 161.265625 45.386719 161.941406 44.859375 162.195312 44.636719 C 163.191406 43.722656 164.136719 42.839844 164.136719 41.378906 C 164.136719 39.472656 162.53125 38.238281 160.527344 38.238281 C 158.605469 38.238281 157.335938 39.699219 157.335938 41.125 C 157.335938 41.910156 157.964844 42.023438 158.1875 42.023438 C 158.523438 42.023438 159.019531 41.78125 159.019531 41.171875 C 159.019531 40.339844 158.21875 40.339844 158.027344 40.339844 C 158.492188 39.167969 159.566406 38.769531 160.351562 38.769531 C 161.84375 38.769531 162.613281 40.035156 162.613281 41.378906 C 162.613281 43.046875 161.441406 44.265625 159.550781 46.207031 L 157.53125 48.289062 C 157.335938 48.464844 157.335938 48.496094 157.335938 48.898438 L 163.671875 48.898438 L 164.136719 46.03125 L 163.640625 46.03125 C 163.589844 46.351562 163.460938 47.152344 163.269531 47.457031 C 163.175781 47.585938 161.957031 47.585938 161.699219 47.585938 L 158.84375 47.585938 Z M 161.007812 45.628906 " fill-opacity="1" fill-rule="nonzero"/><path fill="#a8180f" d="M 188.925781 37.5 C 189.261719 37.5 189.695312 37.5 189.695312 37.066406 C 189.695312 36.609375 189.285156 36.609375 188.925781 36.609375 L 174.757812 36.609375 C 174.421875 36.609375 173.988281 36.609375 173.988281 37.042969 C 173.988281 37.5 174.398438 37.5 174.757812 37.5 Z M 188.925781 41.972656 C 189.261719 41.972656 189.695312 41.972656 189.695312 41.539062 C 189.695312 41.082031 189.285156 41.082031 188.925781 41.082031 L 174.757812 41.082031 C 174.421875 41.082031 173.988281 41.082031 173.988281 41.515625 C 173.988281 41.972656 174.398438 41.972656 174.757812 41.972656 Z M 188.925781 41.972656 " fill-opacity="1" fill-rule="nonzero"/><path fill="#a8180f" d="M 213.539062 39.761719 C 213.945312 39.761719 214.378906 39.761719 214.378906 39.28125 C 214.378906 38.796875 213.945312 38.796875 213.539062 38.796875 L 200.527344 38.796875 C 200.117188 38.796875 199.683594 38.796875 199.683594 39.28125 C 199.683594 39.761719 200.117188 39.761719 200.527344 39.761719 Z M 213.539062 39.761719 " fill-opacity="1" fill-rule="nonzero"/><g clip-path="url(#4479694af0)"><path fill="#a8180f" d="M 223.226562 20.394531 C 222.816406 20.417969 222.71875 20.441406 222.71875 20.660156 C 222.71875 20.898438 222.839844 20.898438 223.273438 20.898438 L 224.378906 20.898438 C 226.425781 20.898438 227.339844 22.582031 227.339844 24.890625 C 227.339844 28.039062 225.703125 28.882812 224.523438 28.882812 C 223.371094 28.882812 221.398438 28.328125 220.699219 26.742188 C 221.46875 26.863281 222.167969 26.429688 222.167969 25.5625 C 222.167969 24.867188 221.660156 24.386719 220.988281 24.386719 C 220.410156 24.386719 219.785156 24.722656 219.785156 25.636719 C 219.785156 27.777344 221.925781 29.53125 224.597656 29.53125 C 227.457031 29.53125 229.574219 27.34375 229.574219 24.914062 C 229.574219 22.703125 227.796875 20.972656 225.484375 20.5625 C 227.578125 19.960938 228.925781 18.207031 228.925781 16.332031 C 228.925781 14.429688 226.953125 13.035156 224.621094 13.035156 C 222.214844 13.035156 220.433594 14.503906 220.433594 16.257812 C 220.433594 17.21875 221.179688 17.414062 221.542969 17.414062 C 222.046875 17.414062 222.625 17.050781 222.625 16.332031 C 222.625 15.5625 222.046875 15.222656 221.519531 15.222656 C 221.375 15.222656 221.324219 15.222656 221.253906 15.25 C 222.167969 13.613281 224.429688 13.613281 224.546875 13.613281 C 225.34375 13.613281 226.90625 13.972656 226.90625 16.332031 C 226.90625 16.789062 226.832031 18.132812 226.136719 19.167969 C 225.414062 20.226562 224.597656 20.296875 223.945312 20.320312 Z M 223.226562 20.394531 " fill-opacity="1" fill-rule="nonzero"/></g><path fill="#a8180f" d="M 218.800781 38.800781 L 230.574219 38.800781 L 230.574219 39.761719 L 218.800781 39.761719 Z M 218.800781 38.800781 " fill-opacity="1" fill-rule="nonzero"/><g clip-path="url(#2cf5cbc5ad)"><path fill="#a8180f" d="M 229.382812 57.746094 L 228.855469 57.746094 C 228.78125 58.152344 228.589844 59.476562 228.347656 59.859375 C 228.179688 60.078125 226.808594 60.078125 226.085938 60.078125 L 221.636719 60.078125 C 222.289062 59.523438 223.753906 57.984375 224.378906 57.410156 C 228.035156 54.042969 229.382812 52.792969 229.382812 50.410156 C 229.382812 47.648438 227.195312 45.796875 224.402344 45.796875 C 221.613281 45.796875 219.976562 48.175781 219.976562 50.242188 C 219.976562 51.46875 221.035156 51.46875 221.109375 51.46875 C 221.613281 51.46875 222.238281 51.109375 222.238281 50.339844 C 222.238281 49.667969 221.78125 49.210938 221.109375 49.210938 C 220.890625 49.210938 220.84375 49.210938 220.773438 49.234375 C 221.230469 47.597656 222.527344 46.492188 224.089844 46.492188 C 226.136719 46.492188 227.386719 48.199219 227.386719 50.410156 C 227.386719 52.457031 226.207031 54.234375 224.835938 55.773438 L 219.976562 61.207031 L 219.976562 61.785156 L 228.757812 61.785156 Z M 229.382812 57.746094 " fill-opacity="1" fill-rule="nonzero"/></g></svg>