<svg xmlns="http://www.w3.org/2000/svg" xmlns:xlink="http://www.w3.org/1999/xlink" width="500" zoomAndPan="magnify" viewBox="0 0 375 74.999997" height="100" preserveAspectRatio="xMidYMid meet" version="1.0"><defs><g/><clipPath id="c9b424caac"><path d="M 282 17.25 L 291 17.25 L 291 33 L 282 33 Z M 282 17.25 " clip-rule="nonzero"/></clipPath><clipPath id="7234720ef2"><path d="M 349 17.25 L 356 17.25 L 356 32 L 349 32 Z M 349 17.25 " clip-rule="nonzero"/></clipPath><clipPath id="6f95097f6b"><path d="M 358 17.25 L 367.5 17.25 L 367.5 33 L 358 33 Z M 358 17.25 " clip-rule="nonzero"/></clipPath></defs><g fill="#17191a" fill-opacity="1"><g transform="translate(0.0000075, 31.200004)"><g><path d="M 9.453125 0 L 1.0625 0 L 1.0625 -1.171875 L 5.5 -6.09375 C 6.15625 -6.832031 6.601562 -7.4375 6.84375 -7.90625 C 7.09375 -8.375 7.21875 -8.859375 7.21875 -9.359375 C 7.21875 -10.023438 7.015625 -10.570312 6.609375 -11 C 6.210938 -11.425781 5.675781 -11.640625 5 -11.640625 C 4.1875 -11.640625 3.554688 -11.40625 3.109375 -10.9375 C 2.660156 -10.476562 2.4375 -9.84375 2.4375 -9.03125 L 0.8125 -9.03125 C 0.8125 -10.207031 1.191406 -11.15625 1.953125 -11.875 C 2.710938 -12.601562 3.726562 -12.96875 5 -12.96875 C 6.1875 -12.96875 7.125 -12.65625 7.8125 -12.03125 C 8.507812 -11.40625 8.859375 -10.578125 8.859375 -9.546875 C 8.859375 -8.285156 8.054688 -6.785156 6.453125 -5.046875 L 3.03125 -1.328125 L 9.453125 -1.328125 Z M 9.453125 0 "/></g></g></g><g fill="#17191a" fill-opacity="1"><g transform="translate(10.100848, 31.200004)"><g><path d="M 4.984375 -5.109375 C 4.984375 -3.796875 4.8125 -2.539062 4.46875 -1.34375 C 4.125 -0.144531 3.597656 0.957031 2.890625 1.96875 C 2.191406 2.976562 1.453125 3.695312 0.671875 4.125 L 0.328125 3.140625 C 1.234375 2.441406 1.957031 1.367188 2.5 -0.078125 C 3.050781 -1.535156 3.332031 -3.15625 3.34375 -4.9375 L 3.34375 -5.21875 C 3.34375 -6.445312 3.210938 -7.585938 2.953125 -8.640625 C 2.703125 -9.703125 2.347656 -10.648438 1.890625 -11.484375 C 1.429688 -12.328125 0.910156 -12.984375 0.328125 -13.453125 L 0.671875 -14.4375 C 1.453125 -14.007812 2.191406 -13.296875 2.890625 -12.296875 C 3.585938 -11.296875 4.109375 -10.191406 4.453125 -8.984375 C 4.804688 -7.773438 4.984375 -6.484375 4.984375 -5.109375 Z M 4.984375 -5.109375 "/></g></g></g><g fill="#17191a" fill-opacity="1"><g transform="translate(16.354586, 31.200004)"><g/></g></g><g fill="#17191a" fill-opacity="1"><g transform="translate(20.807745, 31.200004)"><g><path d="M 10.5 -12.796875 L 10.5 -4.09375 C 10.488281 -2.882812 10.109375 -1.894531 9.359375 -1.125 C 8.609375 -0.363281 7.585938 0.0625 6.296875 0.15625 L 5.84375 0.171875 C 4.445312 0.171875 3.332031 -0.203125 2.5 -0.953125 C 1.664062 -1.710938 1.242188 -2.753906 1.234375 -4.078125 L 1.234375 -12.796875 L 2.90625 -12.796875 L 2.90625 -4.125 C 2.90625 -3.207031 3.160156 -2.488281 3.671875 -1.96875 C 4.179688 -1.457031 4.90625 -1.203125 5.84375 -1.203125 C 6.800781 -1.203125 7.53125 -1.457031 8.03125 -1.96875 C 8.539062 -2.476562 8.796875 -3.195312 8.796875 -4.125 L 8.796875 -12.796875 Z M 10.5 -12.796875 "/></g></g></g><g fill="#17191a" fill-opacity="1"><g transform="translate(32.47202, 31.200004)"><g/></g></g><g fill="#17191a" fill-opacity="1"><g transform="translate(36.925179, 31.200004)"><g><path d="M 7.109375 0 C 7.015625 -0.1875 6.9375 -0.519531 6.875 -1 C 6.113281 -0.21875 5.210938 0.171875 4.171875 0.171875 C 3.234375 0.171875 2.460938 -0.09375 1.859375 -0.625 C 1.253906 -1.15625 0.953125 -1.828125 0.953125 -2.640625 C 0.953125 -3.628906 1.328125 -4.394531 2.078125 -4.9375 C 2.835938 -5.488281 3.898438 -5.765625 5.265625 -5.765625 L 6.84375 -5.765625 L 6.84375 -6.515625 C 6.84375 -7.078125 6.671875 -7.523438 6.328125 -7.859375 C 5.992188 -8.203125 5.492188 -8.375 4.828125 -8.375 C 4.253906 -8.375 3.769531 -8.226562 3.375 -7.9375 C 2.976562 -7.644531 2.78125 -7.289062 2.78125 -6.875 L 1.15625 -6.875 C 1.15625 -7.34375 1.320312 -7.796875 1.65625 -8.234375 C 1.988281 -8.679688 2.441406 -9.035156 3.015625 -9.296875 C 3.597656 -9.554688 4.238281 -9.6875 4.9375 -9.6875 C 6.03125 -9.6875 6.882812 -9.410156 7.5 -8.859375 C 8.125 -8.316406 8.445312 -7.5625 8.46875 -6.59375 L 8.46875 -2.21875 C 8.46875 -1.351562 8.582031 -0.660156 8.8125 -0.140625 L 8.8125 0 Z M 4.40625 -1.234375 C 4.914062 -1.234375 5.398438 -1.363281 5.859375 -1.625 C 6.316406 -1.894531 6.644531 -2.238281 6.84375 -2.65625 L 6.84375 -4.609375 L 5.578125 -4.609375 C 3.578125 -4.609375 2.578125 -4.023438 2.578125 -2.859375 C 2.578125 -2.347656 2.75 -1.945312 3.09375 -1.65625 C 3.4375 -1.375 3.875 -1.234375 4.40625 -1.234375 Z M 4.40625 -1.234375 "/></g></g></g><g fill="#17191a" fill-opacity="1"><g transform="translate(46.70982, 31.200004)"><g><path d="M 5.828125 -8.046875 C 5.578125 -8.085938 5.3125 -8.109375 5.03125 -8.109375 C 3.957031 -8.109375 3.234375 -7.65625 2.859375 -6.75 L 2.859375 0 L 1.234375 0 L 1.234375 -9.515625 L 2.8125 -9.515625 L 2.84375 -8.40625 C 3.375 -9.257812 4.128906 -9.6875 5.109375 -9.6875 C 5.421875 -9.6875 5.660156 -9.644531 5.828125 -9.5625 Z M 5.828125 -8.046875 "/></g></g></g><g fill="#17191a" fill-opacity="1"><g transform="translate(52.79668, 31.200004)"><g><path d="M 3 0 L 1.375 0 L 1.375 -9.515625 L 3 -9.515625 Z M 1.234375 -12.03125 C 1.234375 -12.289062 1.3125 -12.507812 1.46875 -12.6875 C 1.632812 -12.875 1.875 -12.96875 2.1875 -12.96875 C 2.507812 -12.96875 2.753906 -12.875 2.921875 -12.6875 C 3.085938 -12.507812 3.171875 -12.289062 3.171875 -12.03125 C 3.171875 -11.769531 3.085938 -11.550781 2.921875 -11.375 C 2.753906 -11.195312 2.507812 -11.109375 2.1875 -11.109375 C 1.875 -11.109375 1.632812 -11.195312 1.46875 -11.375 C 1.3125 -11.550781 1.234375 -11.769531 1.234375 -12.03125 Z M 1.234375 -12.03125 "/></g></g></g><g fill="#17191a" fill-opacity="1"><g transform="translate(57.162006, 31.200004)"><g><path d="M 3.4375 -11.8125 L 3.4375 -9.515625 L 5.21875 -9.515625 L 5.21875 -8.25 L 3.4375 -8.25 L 3.4375 -2.359375 C 3.4375 -1.972656 3.515625 -1.6875 3.671875 -1.5 C 3.828125 -1.3125 4.097656 -1.21875 4.484375 -1.21875 C 4.671875 -1.21875 4.925781 -1.25 5.25 -1.3125 L 5.25 0 C 4.820312 0.113281 4.410156 0.171875 4.015625 0.171875 C 3.285156 0.171875 2.734375 -0.046875 2.359375 -0.484375 C 1.992188 -0.921875 1.8125 -1.546875 1.8125 -2.359375 L 1.8125 -8.25 L 0.078125 -8.25 L 0.078125 -9.515625 L 1.8125 -9.515625 L 1.8125 -11.8125 Z M 3.4375 -11.8125 "/></g></g></g><g fill="#17191a" fill-opacity="1"><g transform="translate(63.038066, 31.200004)"><g><path d="M 2.765625 -9.515625 L 2.796875 -8.453125 C 3.492188 -9.273438 4.4375 -9.6875 5.625 -9.6875 C 6.957031 -9.6875 7.863281 -9.175781 8.34375 -8.15625 C 8.65625 -8.613281 9.066406 -8.984375 9.578125 -9.265625 C 10.085938 -9.546875 10.6875 -9.6875 11.375 -9.6875 C 13.457031 -9.6875 14.519531 -8.582031 14.5625 -6.375 L 14.5625 0 L 12.921875 0 L 12.921875 -6.28125 C 12.921875 -6.957031 12.765625 -7.460938 12.453125 -7.796875 C 12.148438 -8.140625 11.632812 -8.3125 10.90625 -8.3125 C 10.300781 -8.3125 9.796875 -8.128906 9.390625 -7.765625 C 8.992188 -7.398438 8.765625 -6.914062 8.703125 -6.3125 L 8.703125 0 L 7.0625 0 L 7.0625 -6.234375 C 7.0625 -7.617188 6.382812 -8.3125 5.03125 -8.3125 C 3.96875 -8.3125 3.238281 -7.851562 2.84375 -6.9375 L 2.84375 0 L 1.21875 0 L 1.21875 -9.515625 Z M 2.765625 -9.515625 "/></g></g></g><g fill="#17191a" fill-opacity="1"><g transform="translate(78.804166, 31.200004)"><g><path d="M 5.171875 0.171875 C 3.890625 0.171875 2.84375 -0.25 2.03125 -1.09375 C 1.21875 -1.9375 0.8125 -3.066406 0.8125 -4.484375 L 0.8125 -4.796875 C 0.8125 -5.734375 0.992188 -6.570312 1.359375 -7.3125 C 1.722656 -8.050781 2.226562 -8.628906 2.875 -9.046875 C 3.519531 -9.472656 4.21875 -9.6875 4.96875 -9.6875 C 6.207031 -9.6875 7.171875 -9.28125 7.859375 -8.46875 C 8.546875 -7.65625 8.890625 -6.488281 8.890625 -4.96875 L 8.890625 -4.296875 L 2.4375 -4.296875 C 2.46875 -3.359375 2.742188 -2.597656 3.265625 -2.015625 C 3.785156 -1.441406 4.453125 -1.15625 5.265625 -1.15625 C 5.835938 -1.15625 6.320312 -1.269531 6.71875 -1.5 C 7.125 -1.738281 7.472656 -2.050781 7.765625 -2.4375 L 8.765625 -1.65625 C 7.960938 -0.4375 6.765625 0.171875 5.171875 0.171875 Z M 4.96875 -8.34375 C 4.3125 -8.34375 3.757812 -8.101562 3.3125 -7.625 C 2.875 -7.15625 2.601562 -6.488281 2.5 -5.625 L 7.265625 -5.625 L 7.265625 -5.75 C 7.210938 -6.570312 6.988281 -7.207031 6.59375 -7.65625 C 6.195312 -8.113281 5.65625 -8.34375 4.96875 -8.34375 Z M 4.96875 -8.34375 "/></g></g></g><g fill="#17191a" fill-opacity="1"><g transform="translate(88.334095, 31.200004)"><g><path d="M 3.4375 -11.8125 L 3.4375 -9.515625 L 5.21875 -9.515625 L 5.21875 -8.25 L 3.4375 -8.25 L 3.4375 -2.359375 C 3.4375 -1.972656 3.515625 -1.6875 3.671875 -1.5 C 3.828125 -1.3125 4.097656 -1.21875 4.484375 -1.21875 C 4.671875 -1.21875 4.925781 -1.25 5.25 -1.3125 L 5.25 0 C 4.820312 0.113281 4.410156 0.171875 4.015625 0.171875 C 3.285156 0.171875 2.734375 -0.046875 2.359375 -0.484375 C 1.992188 -0.921875 1.8125 -1.546875 1.8125 -2.359375 L 1.8125 -8.25 L 0.078125 -8.25 L 0.078125 -9.515625 L 1.8125 -9.515625 L 1.8125 -11.8125 Z M 3.4375 -11.8125 "/></g></g></g><g fill="#17191a" fill-opacity="1"><g transform="translate(94.210155, 31.200004)"><g><path d="M 3 0 L 1.375 0 L 1.375 -9.515625 L 3 -9.515625 Z M 1.234375 -12.03125 C 1.234375 -12.289062 1.3125 -12.507812 1.46875 -12.6875 C 1.632812 -12.875 1.875 -12.96875 2.1875 -12.96875 C 2.507812 -12.96875 2.753906 -12.875 2.921875 -12.6875 C 3.085938 -12.507812 3.171875 -12.289062 3.171875 -12.03125 C 3.171875 -11.769531 3.085938 -11.550781 2.921875 -11.375 C 2.753906 -11.195312 2.507812 -11.109375 2.1875 -11.109375 C 1.875 -11.109375 1.632812 -11.195312 1.46875 -11.375 C 1.3125 -11.550781 1.234375 -11.769531 1.234375 -12.03125 Z M 1.234375 -12.03125 "/></g></g></g><g fill="#17191a" fill-opacity="1"><g transform="translate(98.575481, 31.200004)"><g><path d="M 5.046875 -1.15625 C 5.628906 -1.15625 6.132812 -1.328125 6.5625 -1.671875 C 7 -2.023438 7.238281 -2.46875 7.28125 -3 L 8.828125 -3 C 8.796875 -2.457031 8.609375 -1.9375 8.265625 -1.4375 C 7.921875 -0.945312 7.457031 -0.554688 6.875 -0.265625 C 6.300781 0.0234375 5.691406 0.171875 5.046875 0.171875 C 3.753906 0.171875 2.722656 -0.257812 1.953125 -1.125 C 1.191406 -1.988281 0.8125 -3.171875 0.8125 -4.671875 L 0.8125 -4.9375 C 0.8125 -5.863281 0.976562 -6.6875 1.3125 -7.40625 C 1.65625 -8.125 2.144531 -8.679688 2.78125 -9.078125 C 3.414062 -9.484375 4.164062 -9.6875 5.03125 -9.6875 C 6.101562 -9.6875 6.988281 -9.363281 7.6875 -8.71875 C 8.394531 -8.082031 8.773438 -7.253906 8.828125 -6.234375 L 7.28125 -6.234375 C 7.238281 -6.847656 7.003906 -7.351562 6.578125 -7.75 C 6.160156 -8.144531 5.644531 -8.34375 5.03125 -8.34375 C 4.207031 -8.34375 3.566406 -8.046875 3.109375 -7.453125 C 2.660156 -6.859375 2.4375 -6 2.4375 -4.875 L 2.4375 -4.578125 C 2.4375 -3.472656 2.660156 -2.625 3.109375 -2.03125 C 3.554688 -1.445312 4.203125 -1.15625 5.046875 -1.15625 Z M 4.671875 -12.015625 L 5.984375 -13.5 L 7.390625 -13.5 L 7.390625 -13.421875 L 5.15625 -11.015625 L 4.171875 -11.015625 L 1.953125 -13.421875 L 1.953125 -13.5 L 3.34375 -13.5 Z M 4.671875 -12.015625 "/></g></g></g><g fill="#17191a" fill-opacity="1"><g transform="translate(107.991221, 31.200004)"><g><path d="M 3.890625 -4.40625 L 2.859375 -3.34375 L 2.859375 0 L 1.234375 0 L 1.234375 -13.5 L 2.859375 -13.5 L 2.859375 -5.328125 L 3.734375 -6.375 L 6.703125 -9.515625 L 8.671875 -9.515625 L 4.96875 -5.53125 L 9.109375 0 L 7.203125 0 Z M 3.890625 -4.40625 "/></g></g></g><g fill="#17191a" fill-opacity="1"><g transform="translate(117.108328, 31.200004)"><g><path d="M 0.796875 -4.84375 C 0.796875 -5.769531 0.976562 -6.601562 1.34375 -7.34375 C 1.71875 -8.09375 2.226562 -8.671875 2.875 -9.078125 C 3.53125 -9.484375 4.273438 -9.6875 5.109375 -9.6875 C 6.410156 -9.6875 7.457031 -9.238281 8.25 -8.34375 C 9.050781 -7.445312 9.453125 -6.253906 9.453125 -4.765625 L 9.453125 -4.65625 C 9.453125 -3.726562 9.273438 -2.894531 8.921875 -2.15625 C 8.566406 -1.425781 8.0625 -0.851562 7.40625 -0.4375 C 6.75 -0.03125 5.992188 0.171875 5.140625 0.171875 C 3.847656 0.171875 2.800781 -0.273438 2 -1.171875 C 1.195312 -2.066406 0.796875 -3.253906 0.796875 -4.734375 Z M 2.4375 -4.65625 C 2.4375 -3.59375 2.679688 -2.742188 3.171875 -2.109375 C 3.660156 -1.472656 4.316406 -1.15625 5.140625 -1.15625 C 5.960938 -1.15625 6.613281 -1.476562 7.09375 -2.125 C 7.582031 -2.769531 7.828125 -3.675781 7.828125 -4.84375 C 7.828125 -5.882812 7.578125 -6.726562 7.078125 -7.375 C 6.585938 -8.019531 5.929688 -8.34375 5.109375 -8.34375 C 4.304688 -8.34375 3.660156 -8.023438 3.171875 -7.390625 C 2.679688 -6.753906 2.4375 -5.84375 2.4375 -4.65625 Z M 2.4375 -4.65625 "/></g></g></g><g fill="#17191a" fill-opacity="1"><g transform="translate(127.367269, 31.200004)"><g><path d="M 2.765625 -9.515625 L 2.796875 -8.453125 C 3.492188 -9.273438 4.4375 -9.6875 5.625 -9.6875 C 6.957031 -9.6875 7.863281 -9.175781 8.34375 -8.15625 C 8.65625 -8.613281 9.066406 -8.984375 9.578125 -9.265625 C 10.085938 -9.546875 10.6875 -9.6875 11.375 -9.6875 C 13.457031 -9.6875 14.519531 -8.582031 14.5625 -6.375 L 14.5625 0 L 12.921875 0 L 12.921875 -6.28125 C 12.921875 -6.957031 12.765625 -7.460938 12.453125 -7.796875 C 12.148438 -8.140625 11.632812 -8.3125 10.90625 -8.3125 C 10.300781 -8.3125 9.796875 -8.128906 9.390625 -7.765625 C 8.992188 -7.398438 8.765625 -6.914062 8.703125 -6.3125 L 8.703125 0 L 7.0625 0 L 7.0625 -6.234375 C 7.0625 -7.617188 6.382812 -8.3125 5.03125 -8.3125 C 3.96875 -8.3125 3.238281 -7.851562 2.84375 -6.9375 L 2.84375 0 L 1.21875 0 L 1.21875 -9.515625 Z M 2.765625 -9.515625 "/></g></g></g><g fill="#17191a" fill-opacity="1"><g transform="translate(143.133369, 31.200004)"><g/></g></g><g fill="#17191a" fill-opacity="1"><g transform="translate(147.586528, 31.200004)"><g><path d="M 2.765625 -9.515625 L 2.828125 -8.3125 C 3.546875 -9.226562 4.492188 -9.6875 5.671875 -9.6875 C 7.679688 -9.6875 8.691406 -8.550781 8.703125 -6.28125 L 8.703125 0 L 7.078125 0 L 7.078125 -6.296875 C 7.078125 -6.984375 6.921875 -7.488281 6.609375 -7.8125 C 6.304688 -8.144531 5.828125 -8.3125 5.171875 -8.3125 C 4.648438 -8.3125 4.1875 -8.171875 3.78125 -7.890625 C 3.382812 -7.609375 3.078125 -7.238281 2.859375 -6.78125 L 2.859375 0 L 1.234375 0 L 1.234375 -9.515625 Z M 2.765625 -9.515625 "/></g></g></g><g fill="#17191a" fill-opacity="1"><g transform="translate(157.511702, 31.200004)"><g><path d="M 3 0 L 1.375 0 L 1.375 -9.515625 L 3 -9.515625 Z M 1.234375 -12.03125 C 1.234375 -12.289062 1.3125 -12.507812 1.46875 -12.6875 C 1.632812 -12.875 1.875 -12.96875 2.1875 -12.96875 C 2.507812 -12.96875 2.753906 -12.875 2.921875 -12.6875 C 3.085938 -12.507812 3.171875 -12.289062 3.171875 -12.03125 C 3.171875 -11.769531 3.085938 -11.550781 2.921875 -11.375 C 2.753906 -11.195312 2.507812 -11.109375 2.1875 -11.109375 C 1.875 -11.109375 1.632812 -11.195312 1.46875 -11.375 C 1.3125 -11.550781 1.234375 -11.769531 1.234375 -12.03125 Z M 1.234375 -12.03125 "/></g></g></g><g fill="#17191a" fill-opacity="1"><g transform="translate(161.877028, 31.200004)"><g><path d="M 2.765625 -1.328125 L 8.328125 -1.328125 L 8.328125 0 L 0.78125 0 L 0.78125 -1.203125 L 6.015625 -8.171875 L 0.859375 -8.171875 L 0.859375 -9.515625 L 8.0625 -9.515625 L 8.0625 -8.359375 Z M 2.765625 -1.328125 "/></g></g></g><g fill="#17191a" fill-opacity="1"><g transform="translate(170.792123, 31.200004)"><g><path d="M 7.109375 -0.9375 C 6.472656 -0.195312 5.539062 0.171875 4.3125 0.171875 C 3.300781 0.171875 2.53125 -0.117188 2 -0.703125 C 1.46875 -1.296875 1.203125 -2.171875 1.203125 -3.328125 L 1.203125 -9.515625 L 2.828125 -9.515625 L 2.828125 -3.359375 C 2.828125 -1.921875 3.410156 -1.203125 4.578125 -1.203125 C 5.816406 -1.203125 6.644531 -1.664062 7.0625 -2.59375 L 7.0625 -9.515625 L 8.6875 -9.515625 L 8.6875 0 L 7.140625 0 Z M 7.109375 -0.9375 "/></g></g></g><g fill="#17191a" fill-opacity="1"><g transform="translate(180.708519, 31.200004)"><g/></g></g><g fill="#17191a" fill-opacity="1"><g transform="translate(185.161678, 31.200004)"><g><path d="M 4.375 -2.203125 L 6.71875 -9.515625 L 8.390625 -9.515625 L 4.96875 0 L 3.734375 0 L 0.296875 -9.515625 L 1.953125 -9.515625 Z M 4.375 -2.203125 "/></g></g></g><g fill="#17191a" fill-opacity="1"><g transform="translate(193.874763, 31.200004)"><g><path d="M 5.828125 -8.046875 C 5.578125 -8.085938 5.3125 -8.109375 5.03125 -8.109375 C 3.957031 -8.109375 3.234375 -7.65625 2.859375 -6.75 L 2.859375 0 L 1.234375 0 L 1.234375 -9.515625 L 2.8125 -9.515625 L 2.84375 -8.40625 C 3.375 -9.257812 4.128906 -9.6875 5.109375 -9.6875 C 5.421875 -9.6875 5.660156 -9.644531 5.828125 -9.5625 Z M 5.828125 -8.046875 "/></g></g></g><g fill="#17191a" fill-opacity="1"><g transform="translate(199.961623, 31.200004)"><g><path d="M 3 0 L 1.375 0 L 1.375 -9.515625 L 3 -9.515625 Z M 1.234375 -12.03125 C 1.234375 -12.289062 1.3125 -12.507812 1.46875 -12.6875 C 1.632812 -12.875 1.875 -12.96875 2.1875 -12.96875 C 2.507812 -12.96875 2.753906 -12.875 2.921875 -12.6875 C 3.085938 -12.507812 3.171875 -12.289062 3.171875 -12.03125 C 3.171875 -11.769531 3.085938 -11.550781 2.921875 -11.375 C 2.753906 -11.195312 2.507812 -11.109375 2.1875 -11.109375 C 1.875 -11.109375 1.632812 -11.195312 1.46875 -11.375 C 1.3125 -11.550781 1.234375 -11.769531 1.234375 -12.03125 Z M 1.234375 -12.03125 "/></g></g></g><g fill="#17191a" fill-opacity="1"><g transform="translate(204.326949, 31.200004)"><g><path d="M 2.90625 -9.515625 L 2.90625 1.09375 C 2.90625 2.925781 2.078125 3.84375 0.421875 3.84375 C 0.0664062 3.84375 -0.265625 3.789062 -0.578125 3.6875 L -0.578125 2.375 C -0.390625 2.425781 -0.140625 2.453125 0.171875 2.453125 C 0.535156 2.453125 0.8125 2.351562 1 2.15625 C 1.1875 1.957031 1.28125 1.617188 1.28125 1.140625 L 1.28125 -9.515625 Z M 1.109375 -12.03125 C 1.109375 -12.289062 1.1875 -12.507812 1.34375 -12.6875 C 1.507812 -12.875 1.75 -12.96875 2.0625 -12.96875 C 2.382812 -12.96875 2.625 -12.875 2.78125 -12.6875 C 2.945312 -12.507812 3.03125 -12.289062 3.03125 -12.03125 C 3.03125 -11.769531 2.945312 -11.550781 2.78125 -11.375 C 2.625 -11.195312 2.382812 -11.109375 2.0625 -11.109375 C 1.75 -11.109375 1.507812 -11.195312 1.34375 -11.375 C 1.1875 -11.550781 1.109375 -11.769531 1.109375 -12.03125 Z M 1.109375 -12.03125 "/></g></g></g><g fill="#17191a" fill-opacity="1"><g transform="translate(208.622007, 31.200004)"><g><path d="M 5.171875 0.171875 C 3.890625 0.171875 2.84375 -0.25 2.03125 -1.09375 C 1.21875 -1.9375 0.8125 -3.066406 0.8125 -4.484375 L 0.8125 -4.796875 C 0.8125 -5.734375 0.992188 -6.570312 1.359375 -7.3125 C 1.722656 -8.050781 2.226562 -8.628906 2.875 -9.046875 C 3.519531 -9.472656 4.21875 -9.6875 4.96875 -9.6875 C 6.207031 -9.6875 7.171875 -9.28125 7.859375 -8.46875 C 8.546875 -7.65625 8.890625 -6.488281 8.890625 -4.96875 L 8.890625 -4.296875 L 2.4375 -4.296875 C 2.46875 -3.359375 2.742188 -2.597656 3.265625 -2.015625 C 3.785156 -1.441406 4.453125 -1.15625 5.265625 -1.15625 C 5.835938 -1.15625 6.320312 -1.269531 6.71875 -1.5 C 7.125 -1.738281 7.472656 -2.050781 7.765625 -2.4375 L 8.765625 -1.65625 C 7.960938 -0.4375 6.765625 0.171875 5.171875 0.171875 Z M 4.96875 -8.34375 C 4.3125 -8.34375 3.757812 -8.101562 3.3125 -7.625 C 2.875 -7.15625 2.601562 -6.488281 2.5 -5.625 L 7.265625 -5.625 L 7.265625 -5.75 C 7.210938 -6.570312 6.988281 -7.207031 6.59375 -7.65625 C 6.195312 -8.113281 5.65625 -8.34375 4.96875 -8.34375 Z M 4.96875 -8.34375 "/></g></g></g><g fill="#17191a" fill-opacity="1"><g transform="translate(218.151937, 31.200004)"><g><path d="M 0.828125 -4.828125 C 0.828125 -6.285156 1.171875 -7.457031 1.859375 -8.34375 C 2.554688 -9.238281 3.46875 -9.6875 4.59375 -9.6875 C 5.707031 -9.6875 6.585938 -9.304688 7.234375 -8.546875 L 7.234375 -13.5 L 8.859375 -13.5 L 8.859375 0 L 7.359375 0 L 7.28125 -1.015625 C 6.632812 -0.222656 5.734375 0.171875 4.578125 0.171875 C 3.472656 0.171875 2.570312 -0.273438 1.875 -1.171875 C 1.175781 -2.078125 0.828125 -3.257812 0.828125 -4.71875 Z M 2.46875 -4.65625 C 2.46875 -3.570312 2.6875 -2.722656 3.125 -2.109375 C 3.570312 -1.503906 4.1875 -1.203125 4.96875 -1.203125 C 6 -1.203125 6.753906 -1.664062 7.234375 -2.59375 L 7.234375 -6.96875 C 6.742188 -7.863281 6 -8.3125 5 -8.3125 C 4.195312 -8.3125 3.570312 -8 3.125 -7.375 C 2.6875 -6.757812 2.46875 -5.851562 2.46875 -4.65625 Z M 2.46875 -4.65625 "/></g></g></g><g fill="#17191a" fill-opacity="1"><g transform="translate(228.296711, 31.200004)"><g><path d="M 3 0 L 1.375 0 L 1.375 -9.515625 L 3 -9.515625 Z M 1.234375 -12.03125 C 1.234375 -12.289062 1.3125 -12.507812 1.46875 -12.6875 C 1.632812 -12.875 1.875 -12.96875 2.1875 -12.96875 C 2.507812 -12.96875 2.753906 -12.875 2.921875 -12.6875 C 3.085938 -12.507812 3.171875 -12.289062 3.171875 -12.03125 C 3.171875 -11.769531 3.085938 -11.550781 2.921875 -11.375 C 2.753906 -11.195312 2.507812 -11.109375 2.1875 -11.109375 C 1.875 -11.109375 1.632812 -11.195312 1.46875 -11.375 C 1.3125 -11.550781 1.234375 -11.769531 1.234375 -12.03125 Z M 1.234375 -12.03125 "/></g></g></g><g fill="#17191a" fill-opacity="1"><g transform="translate(232.652336, 31.200004)"><g/></g></g><g fill="#17191a" fill-opacity="1"><g transform="translate(237.105495, 31.200004)"><g/></g></g><g fill="#17191a" fill-opacity="1"><g transform="translate(241.558654, 31.200004)"><g/></g></g><g fill="#17191a" fill-opacity="1"><g transform="translate(246.011813, 31.200004)"><g/></g></g><g fill="#17191a" fill-opacity="1"><g transform="translate(250.464972, 31.200004)"><g/></g></g><g fill="#17191a" fill-opacity="1"><g transform="translate(254.918131, 31.200004)"><g/></g></g><g fill="#17191a" fill-opacity="1"><g transform="translate(259.37129, 31.200004)"><g/></g></g><g fill="#17191a" fill-opacity="1"><g transform="translate(263.824449, 31.200004)"><g/></g></g><g fill="#17191a" fill-opacity="1"><g transform="translate(268.277608, 31.200004)"><g/></g></g><g fill="#17191a" fill-opacity="1"><g transform="translate(272.730767, 31.200004)"><g/></g></g><g fill="#17191a" fill-opacity="1"><g transform="translate(277.183926, 31.200004)"><g/></g></g><g fill="#17191a" fill-opacity="1"><g transform="translate(281.637085, 31.200004)"><g/></g></g><g fill="#17191a" fill-opacity="1"><g transform="translate(286.090244, 31.200004)"><g/></g></g><g fill="#17191a" fill-opacity="1"><g transform="translate(290.543403, 31.200004)"><g/></g></g><g fill="#17191a" fill-opacity="1"><g transform="translate(294.996562, 31.200004)"><g/></g></g><g fill="#17191a" fill-opacity="1"><g transform="translate(299.449721, 31.200004)"><g/></g></g><g fill="#17191a" fill-opacity="1"><g transform="translate(303.90288, 31.200004)"><g/></g></g><g fill="#17191a" fill-opacity="1"><g transform="translate(308.356039, 31.200004)"><g/></g></g><g fill="#17191a" fill-opacity="1"><g transform="translate(312.809198, 31.200004)"><g/></g></g><g fill="#17191a" fill-opacity="1"><g transform="translate(317.262357, 31.200004)"><g/></g></g><g fill="#17191a" fill-opacity="1"><g transform="translate(321.715516, 31.200004)"><g/></g></g><g fill="#17191a" fill-opacity="1"><g transform="translate(326.168675, 31.200004)"><g/></g></g><g fill="#17191a" fill-opacity="1"><g transform="translate(330.621834, 31.200004)"><g/></g></g><g fill="#17191a" fill-opacity="1"><g transform="translate(335.074993, 31.200004)"><g/></g></g><g fill="#17191a" fill-opacity="1"><g transform="translate(339.528152, 31.200004)"><g/></g></g><g fill="#17191a" fill-opacity="1"><g transform="translate(343.981311, 31.200004)"><g/></g></g><g fill="#17191a" fill-opacity="1"><g transform="translate(348.43447, 31.200004)"><g/></g></g><g fill="#17191a" fill-opacity="1"><g transform="translate(352.887629, 31.200004)"><g/></g></g><g fill="#17191a" fill-opacity="1"><g transform="translate(357.340788, 31.200004)"><g/></g></g><g fill="#17191a" fill-opacity="1"><g transform="translate(361.793947, 31.200004)"><g/></g></g><g fill="#17191a" fill-opacity="1"><g transform="translate(366.246075, 31.200004)"><g><path d="M 1.265625 -0.859375 C 1.265625 -1.140625 1.347656 -1.375 1.515625 -1.5625 C 1.679688 -1.75 1.929688 -1.84375 2.265625 -1.84375 C 2.597656 -1.84375 2.847656 -1.75 3.015625 -1.5625 C 3.191406 -1.375 3.28125 -1.140625 3.28125 -0.859375 C 3.28125 -0.585938 3.191406 -0.359375 3.015625 -0.171875 C 2.847656 0.00390625 2.597656 0.09375 2.265625 0.09375 C 1.929688 0.09375 1.679688 0.00390625 1.515625 -0.171875 C 1.347656 -0.359375 1.265625 -0.585938 1.265625 -0.859375 Z M 1.265625 -0.859375 "/></g></g></g><g fill="#17191a" fill-opacity="1"><g transform="translate(370.968727, 31.200004)"><g/></g></g><g fill="#17191a" fill-opacity="1"><g transform="translate(0.0000075, 55.950002)"><g><path d="M 4.734375 -5.953125 L 3.171875 -4.328125 L 3.171875 0 L 1.484375 0 L 1.484375 -12.796875 L 3.171875 -12.796875 L 3.171875 -6.46875 L 8.859375 -12.796875 L 10.90625 -12.796875 L 5.859375 -7.140625 L 11.296875 0 L 9.265625 0 Z M 4.734375 -5.953125 "/></g></g></g><g fill="#17191a" fill-opacity="1"><g transform="translate(11.277816, 55.950002)"><g><path d="M 0.796875 -4.84375 C 0.796875 -5.769531 0.976562 -6.601562 1.34375 -7.34375 C 1.71875 -8.09375 2.226562 -8.671875 2.875 -9.078125 C 3.53125 -9.484375 4.273438 -9.6875 5.109375 -9.6875 C 6.410156 -9.6875 7.457031 -9.238281 8.25 -8.34375 C 9.050781 -7.445312 9.453125 -6.253906 9.453125 -4.765625 L 9.453125 -4.65625 C 9.453125 -3.726562 9.273438 -2.894531 8.921875 -2.15625 C 8.566406 -1.425781 8.0625 -0.851562 7.40625 -0.4375 C 6.75 -0.03125 5.992188 0.171875 5.140625 0.171875 C 3.847656 0.171875 2.800781 -0.273438 2 -1.171875 C 1.195312 -2.066406 0.796875 -3.253906 0.796875 -4.734375 Z M 2.4375 -4.65625 C 2.4375 -3.59375 2.679688 -2.742188 3.171875 -2.109375 C 3.660156 -1.472656 4.316406 -1.15625 5.140625 -1.15625 C 5.960938 -1.15625 6.613281 -1.476562 7.09375 -2.125 C 7.582031 -2.769531 7.828125 -3.675781 7.828125 -4.84375 C 7.828125 -5.882812 7.578125 -6.726562 7.078125 -7.375 C 6.585938 -8.019531 5.929688 -8.34375 5.109375 -8.34375 C 4.304688 -8.34375 3.660156 -8.023438 3.171875 -7.390625 C 2.679688 -6.753906 2.4375 -5.84375 2.4375 -4.65625 Z M 2.4375 -4.65625 "/></g></g></g><g fill="#17191a" fill-opacity="1"><g transform="translate(21.536757, 55.950002)"><g><path d="M 3 0 L 1.375 0 L 1.375 -13.5 L 3 -13.5 Z M 3 0 "/></g></g></g><g fill="#17191a" fill-opacity="1"><g transform="translate(25.902082, 55.950002)"><g><path d="M 3 0 L 1.375 0 L 1.375 -9.515625 L 3 -9.515625 Z M 1.234375 -12.03125 C 1.234375 -12.289062 1.3125 -12.507812 1.46875 -12.6875 C 1.632812 -12.875 1.875 -12.96875 2.1875 -12.96875 C 2.507812 -12.96875 2.753906 -12.875 2.921875 -12.6875 C 3.085938 -12.507812 3.171875 -12.289062 3.171875 -12.03125 C 3.171875 -11.769531 3.085938 -11.550781 2.921875 -11.375 C 2.753906 -11.195312 2.507812 -11.109375 2.1875 -11.109375 C 1.875 -11.109375 1.632812 -11.195312 1.46875 -11.375 C 1.3125 -11.550781 1.234375 -11.769531 1.234375 -12.03125 Z M 1.234375 -12.03125 "/></g></g></g><g fill="#17191a" fill-opacity="1"><g transform="translate(30.267408, 55.950002)"><g><path d="M 3.890625 -4.40625 L 2.859375 -3.34375 L 2.859375 0 L 1.234375 0 L 1.234375 -13.5 L 2.859375 -13.5 L 2.859375 -5.328125 L 3.734375 -6.375 L 6.703125 -9.515625 L 8.671875 -9.515625 L 4.96875 -5.53125 L 9.109375 0 L 7.203125 0 Z M 3.890625 -4.40625 "/></g></g></g><g fill="#17191a" fill-opacity="1"><g transform="translate(39.384514, 55.950002)"><g><path d="M 0.796875 -4.84375 C 0.796875 -5.769531 0.976562 -6.601562 1.34375 -7.34375 C 1.71875 -8.09375 2.226562 -8.671875 2.875 -9.078125 C 3.53125 -9.484375 4.273438 -9.6875 5.109375 -9.6875 C 6.410156 -9.6875 7.457031 -9.238281 8.25 -8.34375 C 9.050781 -7.445312 9.453125 -6.253906 9.453125 -4.765625 L 9.453125 -4.65625 C 9.453125 -3.726562 9.273438 -2.894531 8.921875 -2.15625 C 8.566406 -1.425781 8.0625 -0.851562 7.40625 -0.4375 C 6.75 -0.03125 5.992188 0.171875 5.140625 0.171875 C 3.847656 0.171875 2.800781 -0.273438 2 -1.171875 C 1.195312 -2.066406 0.796875 -3.253906 0.796875 -4.734375 Z M 2.4375 -4.65625 C 2.4375 -3.59375 2.679688 -2.742188 3.171875 -2.109375 C 3.660156 -1.472656 4.316406 -1.15625 5.140625 -1.15625 C 5.960938 -1.15625 6.613281 -1.476562 7.09375 -2.125 C 7.582031 -2.769531 7.828125 -3.675781 7.828125 -4.84375 C 7.828125 -5.882812 7.578125 -6.726562 7.078125 -7.375 C 6.585938 -8.019531 5.929688 -8.34375 5.109375 -8.34375 C 4.304688 -8.34375 3.660156 -8.023438 3.171875 -7.390625 C 2.679688 -6.753906 2.4375 -5.84375 2.4375 -4.65625 Z M 2.4375 -4.65625 "/></g></g></g><g fill="#17191a" fill-opacity="1"><g transform="translate(49.643455, 55.950002)"><g/></g></g><g fill="#17191a" fill-opacity="1"><g transform="translate(54.096614, 55.950002)"><g><path d="M 3 0 L 1.375 0 L 1.375 -9.515625 L 3 -9.515625 Z M 1.234375 -12.03125 C 1.234375 -12.289062 1.3125 -12.507812 1.46875 -12.6875 C 1.632812 -12.875 1.875 -12.96875 2.1875 -12.96875 C 2.507812 -12.96875 2.753906 -12.875 2.921875 -12.6875 C 3.085938 -12.507812 3.171875 -12.289062 3.171875 -12.03125 C 3.171875 -11.769531 3.085938 -11.550781 2.921875 -11.375 C 2.753906 -11.195312 2.507812 -11.109375 2.1875 -11.109375 C 1.875 -11.109375 1.632812 -11.195312 1.46875 -11.375 C 1.3125 -11.550781 1.234375 -11.769531 1.234375 -12.03125 Z M 1.234375 -12.03125 "/></g></g></g><g fill="#17191a" fill-opacity="1"><g transform="translate(58.46194, 55.950002)"><g><path d="M 2.765625 -1.328125 L 8.328125 -1.328125 L 8.328125 0 L 0.78125 0 L 0.78125 -1.203125 L 6.015625 -8.171875 L 0.859375 -8.171875 L 0.859375 -9.515625 L 8.0625 -9.515625 L 8.0625 -8.359375 Z M 2.765625 -1.328125 "/></g></g></g><g fill="#17191a" fill-opacity="1"><g transform="translate(67.377035, 55.950002)"><g><path d="M 2.765625 -9.515625 L 2.828125 -8.3125 C 3.546875 -9.226562 4.492188 -9.6875 5.671875 -9.6875 C 7.679688 -9.6875 8.691406 -8.550781 8.703125 -6.28125 L 8.703125 0 L 7.078125 0 L 7.078125 -6.296875 C 7.078125 -6.984375 6.921875 -7.488281 6.609375 -7.8125 C 6.304688 -8.144531 5.828125 -8.3125 5.171875 -8.3125 C 4.648438 -8.3125 4.1875 -8.171875 3.78125 -7.890625 C 3.382812 -7.609375 3.078125 -7.238281 2.859375 -6.78125 L 2.859375 0 L 1.234375 0 L 1.234375 -9.515625 Z M 2.765625 -9.515625 "/></g></g></g><g fill="#17191a" fill-opacity="1"><g transform="translate(77.302209, 55.950002)"><g><path d="M 0.796875 -4.84375 C 0.796875 -5.769531 0.976562 -6.601562 1.34375 -7.34375 C 1.71875 -8.09375 2.226562 -8.671875 2.875 -9.078125 C 3.53125 -9.484375 4.273438 -9.6875 5.109375 -9.6875 C 6.410156 -9.6875 7.457031 -9.238281 8.25 -8.34375 C 9.050781 -7.445312 9.453125 -6.253906 9.453125 -4.765625 L 9.453125 -4.65625 C 9.453125 -3.726562 9.273438 -2.894531 8.921875 -2.15625 C 8.566406 -1.425781 8.0625 -0.851562 7.40625 -0.4375 C 6.75 -0.03125 5.992188 0.171875 5.140625 0.171875 C 3.847656 0.171875 2.800781 -0.273438 2 -1.171875 C 1.195312 -2.066406 0.796875 -3.253906 0.796875 -4.734375 Z M 2.4375 -4.65625 C 2.4375 -3.59375 2.679688 -2.742188 3.171875 -2.109375 C 3.660156 -1.472656 4.316406 -1.15625 5.140625 -1.15625 C 5.960938 -1.15625 6.613281 -1.476562 7.09375 -2.125 C 7.582031 -2.769531 7.828125 -3.675781 7.828125 -4.84375 C 7.828125 -5.882812 7.578125 -6.726562 7.078125 -7.375 C 6.585938 -8.019531 5.929688 -8.34375 5.109375 -8.34375 C 4.304688 -8.34375 3.660156 -8.023438 3.171875 -7.390625 C 2.679688 -6.753906 2.4375 -5.84375 2.4375 -4.65625 Z M 2.4375 -4.65625 "/></g></g></g><g fill="#17191a" fill-opacity="1"><g transform="translate(87.56115, 55.950002)"><g><path d="M 6.765625 -2.515625 C 6.765625 -2.960938 6.597656 -3.304688 6.265625 -3.546875 C 5.941406 -3.785156 5.367188 -3.992188 4.546875 -4.171875 C 3.722656 -4.347656 3.066406 -4.554688 2.578125 -4.796875 C 2.097656 -5.046875 1.738281 -5.34375 1.5 -5.6875 C 1.269531 -6.03125 1.15625 -6.4375 1.15625 -6.90625 C 1.15625 -7.675781 1.484375 -8.332031 2.140625 -8.875 C 2.804688 -9.414062 3.648438 -9.6875 4.671875 -9.6875 C 5.753906 -9.6875 6.628906 -9.40625 7.296875 -8.84375 C 7.972656 -8.289062 8.3125 -7.582031 8.3125 -6.71875 L 6.671875 -6.71875 C 6.671875 -7.164062 6.476562 -7.546875 6.09375 -7.859375 C 5.71875 -8.179688 5.242188 -8.34375 4.671875 -8.34375 C 4.078125 -8.34375 3.613281 -8.210938 3.28125 -7.953125 C 2.945312 -7.703125 2.78125 -7.367188 2.78125 -6.953125 C 2.78125 -6.554688 2.9375 -6.257812 3.25 -6.0625 C 3.5625 -5.863281 4.125 -5.671875 4.9375 -5.484375 C 5.75 -5.304688 6.40625 -5.09375 6.90625 -4.84375 C 7.414062 -4.59375 7.789062 -4.289062 8.03125 -3.9375 C 8.269531 -3.582031 8.390625 -3.148438 8.390625 -2.640625 C 8.390625 -1.785156 8.050781 -1.101562 7.375 -0.59375 C 6.695312 -0.0820312 5.816406 0.171875 4.734375 0.171875 C 3.972656 0.171875 3.296875 0.0351562 2.703125 -0.234375 C 2.117188 -0.503906 1.660156 -0.878906 1.328125 -1.359375 C 0.992188 -1.835938 0.828125 -2.359375 0.828125 -2.921875 L 2.46875 -2.921875 C 2.488281 -2.378906 2.703125 -1.945312 3.109375 -1.625 C 3.523438 -1.3125 4.066406 -1.15625 4.734375 -1.15625 C 5.347656 -1.15625 5.835938 -1.28125 6.203125 -1.53125 C 6.578125 -1.78125 6.765625 -2.109375 6.765625 -2.515625 Z M 6.765625 -2.515625 "/></g></g></g><g fill="#17191a" fill-opacity="1"><g transform="translate(96.836357, 55.950002)"><g><path d="M 3 0 L 1.375 0 L 1.375 -9.515625 L 3 -9.515625 Z M 1.234375 -12.03125 C 1.234375 -12.289062 1.3125 -12.507812 1.46875 -12.6875 C 1.632812 -12.875 1.875 -12.96875 2.1875 -12.96875 C 2.507812 -12.96875 2.753906 -12.875 2.921875 -12.6875 C 3.085938 -12.507812 3.171875 -12.289062 3.171875 -12.03125 C 3.171875 -11.769531 3.085938 -11.550781 2.921875 -11.375 C 2.753906 -11.195312 2.507812 -11.109375 2.1875 -11.109375 C 1.875 -11.109375 1.632812 -11.195312 1.46875 -11.375 C 1.3125 -11.550781 1.234375 -11.769531 1.234375 -12.03125 Z M 1.234375 -12.03125 "/></g></g></g><g fill="#17191a" fill-opacity="1"><g transform="translate(101.201683, 55.950002)"><g/></g></g><g fill="#17191a" fill-opacity="1"><g transform="translate(105.654841, 55.950002)"><g><path d="M 6.765625 -2.515625 C 6.765625 -2.960938 6.597656 -3.304688 6.265625 -3.546875 C 5.941406 -3.785156 5.367188 -3.992188 4.546875 -4.171875 C 3.722656 -4.347656 3.066406 -4.554688 2.578125 -4.796875 C 2.097656 -5.046875 1.738281 -5.34375 1.5 -5.6875 C 1.269531 -6.03125 1.15625 -6.4375 1.15625 -6.90625 C 1.15625 -7.675781 1.484375 -8.332031 2.140625 -8.875 C 2.804688 -9.414062 3.648438 -9.6875 4.671875 -9.6875 C 5.753906 -9.6875 6.628906 -9.40625 7.296875 -8.84375 C 7.972656 -8.289062 8.3125 -7.582031 8.3125 -6.71875 L 6.671875 -6.71875 C 6.671875 -7.164062 6.476562 -7.546875 6.09375 -7.859375 C 5.71875 -8.179688 5.242188 -8.34375 4.671875 -8.34375 C 4.078125 -8.34375 3.613281 -8.210938 3.28125 -7.953125 C 2.945312 -7.703125 2.78125 -7.367188 2.78125 -6.953125 C 2.78125 -6.554688 2.9375 -6.257812 3.25 -6.0625 C 3.5625 -5.863281 4.125 -5.671875 4.9375 -5.484375 C 5.75 -5.304688 6.40625 -5.09375 6.90625 -4.84375 C 7.414062 -4.59375 7.789062 -4.289062 8.03125 -3.9375 C 8.269531 -3.582031 8.390625 -3.148438 8.390625 -2.640625 C 8.390625 -1.785156 8.050781 -1.101562 7.375 -0.59375 C 6.695312 -0.0820312 5.816406 0.171875 4.734375 0.171875 C 3.972656 0.171875 3.296875 0.0351562 2.703125 -0.234375 C 2.117188 -0.503906 1.660156 -0.878906 1.328125 -1.359375 C 0.992188 -1.835938 0.828125 -2.359375 0.828125 -2.921875 L 2.46875 -2.921875 C 2.488281 -2.378906 2.703125 -1.945312 3.109375 -1.625 C 3.523438 -1.3125 4.066406 -1.15625 4.734375 -1.15625 C 5.347656 -1.15625 5.835938 -1.28125 6.203125 -1.53125 C 6.578125 -1.78125 6.765625 -2.109375 6.765625 -2.515625 Z M 6.765625 -2.515625 "/></g></g></g><g fill="#17191a" fill-opacity="1"><g transform="translate(114.930048, 55.950002)"><g><path d="M 7.109375 -0.9375 C 6.472656 -0.195312 5.539062 0.171875 4.3125 0.171875 C 3.300781 0.171875 2.53125 -0.117188 2 -0.703125 C 1.46875 -1.296875 1.203125 -2.171875 1.203125 -3.328125 L 1.203125 -9.515625 L 2.828125 -9.515625 L 2.828125 -3.359375 C 2.828125 -1.921875 3.410156 -1.203125 4.578125 -1.203125 C 5.816406 -1.203125 6.644531 -1.664062 7.0625 -2.59375 L 7.0625 -9.515625 L 8.6875 -9.515625 L 8.6875 0 L 7.140625 0 Z M 7.109375 -0.9375 "/></g></g></g><g fill="#17191a" fill-opacity="1"><g transform="translate(124.846445, 55.950002)"><g><path d="M 2.765625 -9.515625 L 2.796875 -8.453125 C 3.492188 -9.273438 4.4375 -9.6875 5.625 -9.6875 C 6.957031 -9.6875 7.863281 -9.175781 8.34375 -8.15625 C 8.65625 -8.613281 9.066406 -8.984375 9.578125 -9.265625 C 10.085938 -9.546875 10.6875 -9.6875 11.375 -9.6875 C 13.457031 -9.6875 14.519531 -8.582031 14.5625 -6.375 L 14.5625 0 L 12.921875 0 L 12.921875 -6.28125 C 12.921875 -6.957031 12.765625 -7.460938 12.453125 -7.796875 C 12.148438 -8.140625 11.632812 -8.3125 10.90625 -8.3125 C 10.300781 -8.3125 9.796875 -8.128906 9.390625 -7.765625 C 8.992188 -7.398438 8.765625 -6.914062 8.703125 -6.3125 L 8.703125 0 L 7.0625 0 L 7.0625 -6.234375 C 7.0625 -7.617188 6.382812 -8.3125 5.03125 -8.3125 C 3.96875 -8.3125 3.238281 -7.851562 2.84375 -6.9375 L 2.84375 0 L 1.21875 0 L 1.21875 -9.515625 Z M 2.765625 -9.515625 "/></g></g></g><g fill="#17191a" fill-opacity="1"><g transform="translate(140.612545, 55.950002)"><g><path d="M 7.109375 0 C 7.015625 -0.1875 6.9375 -0.519531 6.875 -1 C 6.113281 -0.21875 5.210938 0.171875 4.171875 0.171875 C 3.234375 0.171875 2.460938 -0.09375 1.859375 -0.625 C 1.253906 -1.15625 0.953125 -1.828125 0.953125 -2.640625 C 0.953125 -3.628906 1.328125 -4.394531 2.078125 -4.9375 C 2.835938 -5.488281 3.898438 -5.765625 5.265625 -5.765625 L 6.84375 -5.765625 L 6.84375 -6.515625 C 6.84375 -7.078125 6.671875 -7.523438 6.328125 -7.859375 C 5.992188 -8.203125 5.492188 -8.375 4.828125 -8.375 C 4.253906 -8.375 3.769531 -8.226562 3.375 -7.9375 C 2.976562 -7.644531 2.78125 -7.289062 2.78125 -6.875 L 1.15625 -6.875 C 1.15625 -7.34375 1.320312 -7.796875 1.65625 -8.234375 C 1.988281 -8.679688 2.441406 -9.035156 3.015625 -9.296875 C 3.597656 -9.554688 4.238281 -9.6875 4.9375 -9.6875 C 6.03125 -9.6875 6.882812 -9.410156 7.5 -8.859375 C 8.125 -8.316406 8.445312 -7.5625 8.46875 -6.59375 L 8.46875 -2.21875 C 8.46875 -1.351562 8.582031 -0.660156 8.8125 -0.140625 L 8.8125 0 Z M 4.40625 -1.234375 C 4.914062 -1.234375 5.398438 -1.363281 5.859375 -1.625 C 6.316406 -1.894531 6.644531 -2.238281 6.84375 -2.65625 L 6.84375 -4.609375 L 5.578125 -4.609375 C 3.578125 -4.609375 2.578125 -4.023438 2.578125 -2.859375 C 2.578125 -2.347656 2.75 -1.945312 3.09375 -1.65625 C 3.4375 -1.375 3.875 -1.234375 4.40625 -1.234375 Z M 4.40625 -1.234375 "/></g></g></g><g fill="#17191a" fill-opacity="1"><g transform="translate(150.397186, 55.950002)"><g/></g></g><g fill="#17191a" fill-opacity="1"><g transform="translate(154.850345, 55.950002)"><g><path d="M 9.265625 -4.65625 C 9.265625 -3.207031 8.929688 -2.039062 8.265625 -1.15625 C 7.609375 -0.269531 6.710938 0.171875 5.578125 0.171875 C 4.421875 0.171875 3.515625 -0.191406 2.859375 -0.921875 L 2.859375 3.65625 L 1.234375 3.65625 L 1.234375 -9.515625 L 2.71875 -9.515625 L 2.796875 -8.453125 C 3.453125 -9.273438 4.375 -9.6875 5.5625 -9.6875 C 6.695312 -9.6875 7.597656 -9.253906 8.265625 -8.390625 C 8.929688 -7.535156 9.265625 -6.335938 9.265625 -4.796875 Z M 7.640625 -4.828125 C 7.640625 -5.898438 7.410156 -6.75 6.953125 -7.375 C 6.492188 -8 5.867188 -8.3125 5.078125 -8.3125 C 4.085938 -8.3125 3.347656 -7.875 2.859375 -7 L 2.859375 -2.453125 C 3.347656 -1.585938 4.09375 -1.15625 5.09375 -1.15625 C 5.875 -1.15625 6.492188 -1.460938 6.953125 -2.078125 C 7.410156 -2.691406 7.640625 -3.609375 7.640625 -4.828125 Z M 7.640625 -4.828125 "/></g></g></g><g fill="#17191a" fill-opacity="1"><g transform="translate(164.942408, 55.950002)"><g><path d="M 5.828125 -8.046875 C 5.578125 -8.085938 5.3125 -8.109375 5.03125 -8.109375 C 3.957031 -8.109375 3.234375 -7.65625 2.859375 -6.75 L 2.859375 0 L 1.234375 0 L 1.234375 -9.515625 L 2.8125 -9.515625 L 2.84375 -8.40625 C 3.375 -9.257812 4.128906 -9.6875 5.109375 -9.6875 C 5.421875 -9.6875 5.660156 -9.644531 5.828125 -9.5625 Z M 5.828125 -8.046875 "/></g></g></g><g fill="#17191a" fill-opacity="1"><g transform="translate(171.029268, 55.950002)"><g><path d="M 4.375 -2.203125 L 6.71875 -9.515625 L 8.390625 -9.515625 L 4.96875 0 L 3.734375 0 L 0.296875 -9.515625 L 1.953125 -9.515625 Z M 4.375 -2.203125 "/></g></g></g><g fill="#17191a" fill-opacity="1"><g transform="translate(179.742341, 55.950002)"><g><path d="M 7.109375 0 C 7.015625 -0.1875 6.9375 -0.519531 6.875 -1 C 6.113281 -0.21875 5.210938 0.171875 4.171875 0.171875 C 3.234375 0.171875 2.460938 -0.09375 1.859375 -0.625 C 1.253906 -1.15625 0.953125 -1.828125 0.953125 -2.640625 C 0.953125 -3.628906 1.328125 -4.394531 2.078125 -4.9375 C 2.835938 -5.488281 3.898438 -5.765625 5.265625 -5.765625 L 6.84375 -5.765625 L 6.84375 -6.515625 C 6.84375 -7.078125 6.671875 -7.523438 6.328125 -7.859375 C 5.992188 -8.203125 5.492188 -8.375 4.828125 -8.375 C 4.253906 -8.375 3.769531 -8.226562 3.375 -7.9375 C 2.976562 -7.644531 2.78125 -7.289062 2.78125 -6.875 L 1.15625 -6.875 C 1.15625 -7.34375 1.320312 -7.796875 1.65625 -8.234375 C 1.988281 -8.679688 2.441406 -9.035156 3.015625 -9.296875 C 3.597656 -9.554688 4.238281 -9.6875 4.9375 -9.6875 C 6.03125 -9.6875 6.882812 -9.410156 7.5 -8.859375 C 8.125 -8.316406 8.445312 -7.5625 8.46875 -6.59375 L 8.46875 -2.21875 C 8.46875 -1.351562 8.582031 -0.660156 8.8125 -0.140625 L 8.8125 0 Z M 4.40625 -1.234375 C 4.914062 -1.234375 5.398438 -1.363281 5.859375 -1.625 C 6.316406 -1.894531 6.644531 -2.238281 6.84375 -2.65625 L 6.84375 -4.609375 L 5.578125 -4.609375 C 3.578125 -4.609375 2.578125 -4.023438 2.578125 -2.859375 C 2.578125 -2.347656 2.75 -1.945312 3.09375 -1.65625 C 3.4375 -1.375 3.875 -1.234375 4.40625 -1.234375 Z M 4.40625 -1.234375 "/></g></g></g><g fill="#17191a" fill-opacity="1"><g transform="translate(189.526981, 55.950002)"><g/></g></g><g fill="#17191a" fill-opacity="1"><g transform="translate(193.98014, 55.950002)"><g><path d="M 7.921875 -4.296875 L 9.703125 -4.296875 L 9.703125 -2.96875 L 7.921875 -2.96875 L 7.921875 0 L 6.296875 0 L 6.296875 -2.96875 L 0.46875 -2.96875 L 0.46875 -3.921875 L 6.203125 -12.796875 L 7.921875 -12.796875 Z M 2.3125 -4.296875 L 6.296875 -4.296875 L 6.296875 -10.578125 L 6.09375 -10.21875 Z M 2.3125 -4.296875 "/></g></g></g><g fill="#17191a" fill-opacity="1"><g transform="translate(204.080969, 55.950002)"><g><path d="M 9.453125 0 L 1.0625 0 L 1.0625 -1.171875 L 5.5 -6.09375 C 6.15625 -6.832031 6.601562 -7.4375 6.84375 -7.90625 C 7.09375 -8.375 7.21875 -8.859375 7.21875 -9.359375 C 7.21875 -10.023438 7.015625 -10.570312 6.609375 -11 C 6.210938 -11.425781 5.675781 -11.640625 5 -11.640625 C 4.1875 -11.640625 3.554688 -11.40625 3.109375 -10.9375 C 2.660156 -10.476562 2.4375 -9.84375 2.4375 -9.03125 L 0.8125 -9.03125 C 0.8125 -10.207031 1.191406 -11.15625 1.953125 -11.875 C 2.710938 -12.601562 3.726562 -12.96875 5 -12.96875 C 6.1875 -12.96875 7.125 -12.65625 7.8125 -12.03125 C 8.507812 -11.40625 8.859375 -10.578125 8.859375 -9.546875 C 8.859375 -8.285156 8.054688 -6.785156 6.453125 -5.046875 L 3.03125 -1.328125 L 9.453125 -1.328125 Z M 9.453125 0 "/></g></g></g><g fill="#17191a" fill-opacity="1"><g transform="translate(214.181799, 55.950002)"><g/></g></g><g fill="#17191a" fill-opacity="1"><g transform="translate(218.634969, 55.950002)"><g><path d="M 5.046875 -1.15625 C 5.628906 -1.15625 6.132812 -1.328125 6.5625 -1.671875 C 7 -2.023438 7.238281 -2.46875 7.28125 -3 L 8.828125 -3 C 8.796875 -2.457031 8.609375 -1.9375 8.265625 -1.4375 C 7.921875 -0.945312 7.457031 -0.554688 6.875 -0.265625 C 6.300781 0.0234375 5.691406 0.171875 5.046875 0.171875 C 3.753906 0.171875 2.722656 -0.257812 1.953125 -1.125 C 1.191406 -1.988281 0.8125 -3.171875 0.8125 -4.671875 L 0.8125 -4.9375 C 0.8125 -5.863281 0.976562 -6.6875 1.3125 -7.40625 C 1.65625 -8.125 2.144531 -8.679688 2.78125 -9.078125 C 3.414062 -9.484375 4.164062 -9.6875 5.03125 -9.6875 C 6.101562 -9.6875 6.988281 -9.363281 7.6875 -8.71875 C 8.394531 -8.082031 8.773438 -7.253906 8.828125 -6.234375 L 7.28125 -6.234375 C 7.238281 -6.847656 7.003906 -7.351562 6.578125 -7.75 C 6.160156 -8.144531 5.644531 -8.34375 5.03125 -8.34375 C 4.207031 -8.34375 3.566406 -8.046875 3.109375 -7.453125 C 2.660156 -6.859375 2.4375 -6 2.4375 -4.875 L 2.4375 -4.578125 C 2.4375 -3.472656 2.660156 -2.625 3.109375 -2.03125 C 3.554688 -1.445312 4.203125 -1.15625 5.046875 -1.15625 Z M 4.671875 -12.015625 L 5.984375 -13.5 L 7.390625 -13.5 L 7.390625 -13.421875 L 5.15625 -11.015625 L 4.171875 -11.015625 L 1.953125 -13.421875 L 1.953125 -13.5 L 3.34375 -13.5 Z M 4.671875 -12.015625 "/></g></g></g><g fill="#17191a" fill-opacity="1"><g transform="translate(228.050709, 55.950002)"><g><path d="M 3 0 L 1.375 0 L 1.375 -13.5 L 3 -13.5 Z M 3 0 "/></g></g></g><g fill="#17191a" fill-opacity="1"><g transform="translate(232.416035, 55.950002)"><g><path d="M 7.109375 0 C 7.015625 -0.1875 6.9375 -0.519531 6.875 -1 C 6.113281 -0.21875 5.210938 0.171875 4.171875 0.171875 C 3.234375 0.171875 2.460938 -0.09375 1.859375 -0.625 C 1.253906 -1.15625 0.953125 -1.828125 0.953125 -2.640625 C 0.953125 -3.628906 1.328125 -4.394531 2.078125 -4.9375 C 2.835938 -5.488281 3.898438 -5.765625 5.265625 -5.765625 L 6.84375 -5.765625 L 6.84375 -6.515625 C 6.84375 -7.078125 6.671875 -7.523438 6.328125 -7.859375 C 5.992188 -8.203125 5.492188 -8.375 4.828125 -8.375 C 4.253906 -8.375 3.769531 -8.226562 3.375 -7.9375 C 2.976562 -7.644531 2.78125 -7.289062 2.78125 -6.875 L 1.15625 -6.875 C 1.15625 -7.34375 1.320312 -7.796875 1.65625 -8.234375 C 1.988281 -8.679688 2.441406 -9.035156 3.015625 -9.296875 C 3.597656 -9.554688 4.238281 -9.6875 4.9375 -9.6875 C 6.03125 -9.6875 6.882812 -9.410156 7.5 -8.859375 C 8.125 -8.316406 8.445312 -7.5625 8.46875 -6.59375 L 8.46875 -2.21875 C 8.46875 -1.351562 8.582031 -0.660156 8.8125 -0.140625 L 8.8125 0 Z M 4.40625 -1.234375 C 4.914062 -1.234375 5.398438 -1.363281 5.859375 -1.625 C 6.316406 -1.894531 6.644531 -2.238281 6.84375 -2.65625 L 6.84375 -4.609375 L 5.578125 -4.609375 C 3.578125 -4.609375 2.578125 -4.023438 2.578125 -2.859375 C 2.578125 -2.347656 2.75 -1.945312 3.09375 -1.65625 C 3.4375 -1.375 3.875 -1.234375 4.40625 -1.234375 Z M 4.40625 -1.234375 "/></g></g></g><g fill="#17191a" fill-opacity="1"><g transform="translate(242.200687, 55.950002)"><g><path d="M 2.765625 -9.515625 L 2.828125 -8.3125 C 3.546875 -9.226562 4.492188 -9.6875 5.671875 -9.6875 C 7.679688 -9.6875 8.691406 -8.550781 8.703125 -6.28125 L 8.703125 0 L 7.078125 0 L 7.078125 -6.296875 C 7.078125 -6.984375 6.921875 -7.488281 6.609375 -7.8125 C 6.304688 -8.144531 5.828125 -8.3125 5.171875 -8.3125 C 4.648438 -8.3125 4.1875 -8.171875 3.78125 -7.890625 C 3.382812 -7.609375 3.078125 -7.238281 2.859375 -6.78125 L 2.859375 0 L 1.234375 0 L 1.234375 -9.515625 Z M 2.765625 -9.515625 "/></g></g></g><g fill="#17191a" fill-opacity="1"><g transform="translate(252.125872, 55.950002)"><g><path d="M 7.109375 0 C 7.015625 -0.1875 6.9375 -0.519531 6.875 -1 C 6.113281 -0.21875 5.210938 0.171875 4.171875 0.171875 C 3.234375 0.171875 2.460938 -0.09375 1.859375 -0.625 C 1.253906 -1.15625 0.953125 -1.828125 0.953125 -2.640625 C 0.953125 -3.628906 1.328125 -4.394531 2.078125 -4.9375 C 2.835938 -5.488281 3.898438 -5.765625 5.265625 -5.765625 L 6.84375 -5.765625 L 6.84375 -6.515625 C 6.84375 -7.078125 6.671875 -7.523438 6.328125 -7.859375 C 5.992188 -8.203125 5.492188 -8.375 4.828125 -8.375 C 4.253906 -8.375 3.769531 -8.226562 3.375 -7.9375 C 2.976562 -7.644531 2.78125 -7.289062 2.78125 -6.875 L 1.15625 -6.875 C 1.15625 -7.34375 1.320312 -7.796875 1.65625 -8.234375 C 1.988281 -8.679688 2.441406 -9.035156 3.015625 -9.296875 C 3.597656 -9.554688 4.238281 -9.6875 4.9375 -9.6875 C 6.03125 -9.6875 6.882812 -9.410156 7.5 -8.859375 C 8.125 -8.316406 8.445312 -7.5625 8.46875 -6.59375 L 8.46875 -2.21875 C 8.46875 -1.351562 8.582031 -0.660156 8.8125 -0.140625 L 8.8125 0 Z M 4.40625 -1.234375 C 4.914062 -1.234375 5.398438 -1.363281 5.859375 -1.625 C 6.316406 -1.894531 6.644531 -2.238281 6.84375 -2.65625 L 6.84375 -4.609375 L 5.578125 -4.609375 C 3.578125 -4.609375 2.578125 -4.023438 2.578125 -2.859375 C 2.578125 -2.347656 2.75 -1.945312 3.09375 -1.65625 C 3.4375 -1.375 3.875 -1.234375 4.40625 -1.234375 Z M 4.40625 -1.234375 "/></g></g></g><g fill="#17191a" fill-opacity="1"><g transform="translate(261.910524, 55.950002)"><g/></g></g><g fill="#17191a" fill-opacity="1"><g transform="translate(266.363694, 55.950002)"><g><path d="M 3.4375 -11.8125 L 3.4375 -9.515625 L 5.21875 -9.515625 L 5.21875 -8.25 L 3.4375 -8.25 L 3.4375 -2.359375 C 3.4375 -1.972656 3.515625 -1.6875 3.671875 -1.5 C 3.828125 -1.3125 4.097656 -1.21875 4.484375 -1.21875 C 4.671875 -1.21875 4.925781 -1.25 5.25 -1.3125 L 5.25 0 C 4.820312 0.113281 4.410156 0.171875 4.015625 0.171875 C 3.285156 0.171875 2.734375 -0.046875 2.359375 -0.484375 C 1.992188 -0.921875 1.8125 -1.546875 1.8125 -2.359375 L 1.8125 -8.25 L 0.078125 -8.25 L 0.078125 -9.515625 L 1.8125 -9.515625 L 1.8125 -11.8125 Z M 3.4375 -11.8125 "/></g></g></g><g fill="#17191a" fill-opacity="1"><g transform="translate(272.239754, 55.950002)"><g><path d="M 0.796875 -4.84375 C 0.796875 -5.769531 0.976562 -6.601562 1.34375 -7.34375 C 1.71875 -8.09375 2.226562 -8.671875 2.875 -9.078125 C 3.53125 -9.484375 4.273438 -9.6875 5.109375 -9.6875 C 6.410156 -9.6875 7.457031 -9.238281 8.25 -8.34375 C 9.050781 -7.445312 9.453125 -6.253906 9.453125 -4.765625 L 9.453125 -4.65625 C 9.453125 -3.726562 9.273438 -2.894531 8.921875 -2.15625 C 8.566406 -1.425781 8.0625 -0.851562 7.40625 -0.4375 C 6.75 -0.03125 5.992188 0.171875 5.140625 0.171875 C 3.847656 0.171875 2.800781 -0.273438 2 -1.171875 C 1.195312 -2.066406 0.796875 -3.253906 0.796875 -4.734375 Z M 2.4375 -4.65625 C 2.4375 -3.59375 2.679688 -2.742188 3.171875 -2.109375 C 3.660156 -1.472656 4.316406 -1.15625 5.140625 -1.15625 C 5.960938 -1.15625 6.613281 -1.476562 7.09375 -2.125 C 7.582031 -2.769531 7.828125 -3.675781 7.828125 -4.84375 C 7.828125 -5.882812 7.578125 -6.726562 7.078125 -7.375 C 6.585938 -8.019531 5.929688 -8.34375 5.109375 -8.34375 C 4.304688 -8.34375 3.660156 -8.023438 3.171875 -7.390625 C 2.679688 -6.753906 2.4375 -5.84375 2.4375 -4.65625 Z M 2.4375 -4.65625 "/></g></g></g><g fill="#17191a" fill-opacity="1"><g transform="translate(282.498695, 55.950002)"><g><path d="M 0.84375 -4.828125 C 0.84375 -6.316406 1.1875 -7.5 1.875 -8.375 C 2.5625 -9.25 3.46875 -9.6875 4.59375 -9.6875 C 5.757812 -9.6875 6.664062 -9.273438 7.3125 -8.453125 L 7.390625 -9.515625 L 8.875 -9.515625 L 8.875 -0.234375 C 8.875 1.003906 8.507812 1.976562 7.78125 2.6875 C 7.050781 3.394531 6.070312 3.75 4.84375 3.75 C 4.15625 3.75 3.484375 3.597656 2.828125 3.296875 C 2.171875 3.003906 1.671875 2.601562 1.328125 2.09375 L 2.171875 1.125 C 2.867188 1.988281 3.722656 2.421875 4.734375 2.421875 C 5.523438 2.421875 6.140625 2.195312 6.578125 1.75 C 7.023438 1.300781 7.25 0.675781 7.25 -0.125 L 7.25 -0.953125 C 6.59375 -0.203125 5.703125 0.171875 4.578125 0.171875 C 3.460938 0.171875 2.5625 -0.273438 1.875 -1.171875 C 1.1875 -2.066406 0.84375 -3.285156 0.84375 -4.828125 Z M 2.484375 -4.65625 C 2.484375 -3.582031 2.703125 -2.738281 3.140625 -2.125 C 3.578125 -1.507812 4.191406 -1.203125 4.984375 -1.203125 C 6.003906 -1.203125 6.757812 -1.671875 7.25 -2.609375 L 7.25 -6.9375 C 6.75 -7.851562 6 -8.3125 5 -8.3125 C 4.207031 -8.3125 3.585938 -8 3.140625 -7.375 C 2.703125 -6.757812 2.484375 -5.851562 2.484375 -4.65625 Z M 2.484375 -4.65625 "/></g></g></g><g fill="#17191a" fill-opacity="1"><g transform="translate(292.590758, 55.950002)"><g><path d="M 7.109375 0 C 7.015625 -0.1875 6.9375 -0.519531 6.875 -1 C 6.113281 -0.21875 5.210938 0.171875 4.171875 0.171875 C 3.234375 0.171875 2.460938 -0.09375 1.859375 -0.625 C 1.253906 -1.15625 0.953125 -1.828125 0.953125 -2.640625 C 0.953125 -3.628906 1.328125 -4.394531 2.078125 -4.9375 C 2.835938 -5.488281 3.898438 -5.765625 5.265625 -5.765625 L 6.84375 -5.765625 L 6.84375 -6.515625 C 6.84375 -7.078125 6.671875 -7.523438 6.328125 -7.859375 C 5.992188 -8.203125 5.492188 -8.375 4.828125 -8.375 C 4.253906 -8.375 3.769531 -8.226562 3.375 -7.9375 C 2.976562 -7.644531 2.78125 -7.289062 2.78125 -6.875 L 1.15625 -6.875 C 1.15625 -7.34375 1.320312 -7.796875 1.65625 -8.234375 C 1.988281 -8.679688 2.441406 -9.035156 3.015625 -9.296875 C 3.597656 -9.554688 4.238281 -9.6875 4.9375 -9.6875 C 6.03125 -9.6875 6.882812 -9.410156 7.5 -8.859375 C 8.125 -8.316406 8.445312 -7.5625 8.46875 -6.59375 L 8.46875 -2.21875 C 8.46875 -1.351562 8.582031 -0.660156 8.8125 -0.140625 L 8.8125 0 Z M 4.40625 -1.234375 C 4.914062 -1.234375 5.398438 -1.363281 5.859375 -1.625 C 6.316406 -1.894531 6.644531 -2.238281 6.84375 -2.65625 L 6.84375 -4.609375 L 5.578125 -4.609375 C 3.578125 -4.609375 2.578125 -4.023438 2.578125 -2.859375 C 2.578125 -2.347656 2.75 -1.945312 3.09375 -1.65625 C 3.4375 -1.375 3.875 -1.234375 4.40625 -1.234375 Z M 4.40625 -1.234375 "/></g></g></g><g fill="#17191a" fill-opacity="1"><g transform="translate(302.37541, 55.950002)"><g/></g></g><g fill="#17191a" fill-opacity="1"><g transform="translate(306.828581, 55.950002)"><g><path d="M 2.765625 -9.515625 L 2.828125 -8.3125 C 3.546875 -9.226562 4.492188 -9.6875 5.671875 -9.6875 C 7.679688 -9.6875 8.691406 -8.550781 8.703125 -6.28125 L 8.703125 0 L 7.078125 0 L 7.078125 -6.296875 C 7.078125 -6.984375 6.921875 -7.488281 6.609375 -7.8125 C 6.304688 -8.144531 5.828125 -8.3125 5.171875 -8.3125 C 4.648438 -8.3125 4.1875 -8.171875 3.78125 -7.890625 C 3.382812 -7.609375 3.078125 -7.238281 2.859375 -6.78125 L 2.859375 0 L 1.234375 0 L 1.234375 -9.515625 Z M 2.765625 -9.515625 "/></g></g></g><g fill="#17191a" fill-opacity="1"><g transform="translate(316.753766, 55.950002)"><g><path d="M 3 0 L 1.375 0 L 1.375 -9.515625 L 3 -9.515625 Z M 1.234375 -12.03125 C 1.234375 -12.289062 1.3125 -12.507812 1.46875 -12.6875 C 1.632812 -12.875 1.875 -12.96875 2.1875 -12.96875 C 2.507812 -12.96875 2.753906 -12.875 2.921875 -12.6875 C 3.085938 -12.507812 3.171875 -12.289062 3.171875 -12.03125 C 3.171875 -11.769531 3.085938 -11.550781 2.921875 -11.375 C 2.753906 -11.195312 2.507812 -11.109375 2.1875 -11.109375 C 1.875 -11.109375 1.632812 -11.195312 1.46875 -11.375 C 1.3125 -11.550781 1.234375 -11.769531 1.234375 -12.03125 Z M 1.234375 -12.03125 "/></g></g></g><g fill="#17191a" fill-opacity="1"><g transform="translate(321.119091, 55.950002)"><g><path d="M 2.765625 -1.328125 L 8.328125 -1.328125 L 8.328125 0 L 0.78125 0 L 0.78125 -1.203125 L 6.015625 -8.171875 L 0.859375 -8.171875 L 0.859375 -9.515625 L 8.0625 -9.515625 L 8.0625 -8.359375 Z M 2.765625 -1.328125 "/></g></g></g><g fill="#17191a" fill-opacity="1"><g transform="translate(330.034176, 55.950002)"><g><path d="M 7.109375 0 C 7.015625 -0.1875 6.9375 -0.519531 6.875 -1 C 6.113281 -0.21875 5.210938 0.171875 4.171875 0.171875 C 3.234375 0.171875 2.460938 -0.09375 1.859375 -0.625 C 1.253906 -1.15625 0.953125 -1.828125 0.953125 -2.640625 C 0.953125 -3.628906 1.328125 -4.394531 2.078125 -4.9375 C 2.835938 -5.488281 3.898438 -5.765625 5.265625 -5.765625 L 6.84375 -5.765625 L 6.84375 -6.515625 C 6.84375 -7.078125 6.671875 -7.523438 6.328125 -7.859375 C 5.992188 -8.203125 5.492188 -8.375 4.828125 -8.375 C 4.253906 -8.375 3.769531 -8.226562 3.375 -7.9375 C 2.976562 -7.644531 2.78125 -7.289062 2.78125 -6.875 L 1.15625 -6.875 C 1.15625 -7.34375 1.320312 -7.796875 1.65625 -8.234375 C 1.988281 -8.679688 2.441406 -9.035156 3.015625 -9.296875 C 3.597656 -9.554688 4.238281 -9.6875 4.9375 -9.6875 C 6.03125 -9.6875 6.882812 -9.410156 7.5 -8.859375 C 8.125 -8.316406 8.445312 -7.5625 8.46875 -6.59375 L 8.46875 -2.21875 C 8.46875 -1.351562 8.582031 -0.660156 8.8125 -0.140625 L 8.8125 0 Z M 4.40625 -1.234375 C 4.914062 -1.234375 5.398438 -1.363281 5.859375 -1.625 C 6.316406 -1.894531 6.644531 -2.238281 6.84375 -2.65625 L 6.84375 -4.609375 L 5.578125 -4.609375 C 3.578125 -4.609375 2.578125 -4.023438 2.578125 -2.859375 C 2.578125 -2.347656 2.75 -1.945312 3.09375 -1.65625 C 3.4375 -1.375 3.875 -1.234375 4.40625 -1.234375 Z M 4.40625 -1.234375 "/></g></g></g><g fill="#17191a" fill-opacity="1"><g transform="translate(339.818827, 55.950002)"><g><path d="M 3.140625 -3.609375 C 3.148438 -4.304688 3.226562 -4.851562 3.375 -5.25 C 3.519531 -5.65625 3.816406 -6.101562 4.265625 -6.59375 L 5.421875 -7.78125 C 5.910156 -8.34375 6.15625 -8.941406 6.15625 -9.578125 C 6.15625 -10.191406 5.992188 -10.671875 5.671875 -11.015625 C 5.347656 -11.367188 4.878906 -11.546875 4.265625 -11.546875 C 3.671875 -11.546875 3.191406 -11.382812 2.828125 -11.0625 C 2.460938 -10.75 2.28125 -10.328125 2.28125 -9.796875 L 0.65625 -9.796875 C 0.664062 -10.742188 1.003906 -11.507812 1.671875 -12.09375 C 2.335938 -12.675781 3.203125 -12.96875 4.265625 -12.96875 C 5.378906 -12.96875 6.242188 -12.671875 6.859375 -12.078125 C 7.472656 -11.484375 7.78125 -10.671875 7.78125 -9.640625 C 7.78125 -8.609375 7.304688 -7.59375 6.359375 -6.59375 L 5.40625 -5.65625 C 4.976562 -5.175781 4.765625 -4.492188 4.765625 -3.609375 Z M 3.0625 -0.8125 C 3.0625 -1.082031 3.140625 -1.304688 3.296875 -1.484375 C 3.460938 -1.660156 3.703125 -1.75 4.015625 -1.75 C 4.335938 -1.75 4.582031 -1.660156 4.75 -1.484375 C 4.914062 -1.304688 5 -1.082031 5 -0.8125 C 5 -0.550781 4.914062 -0.332031 4.75 -0.15625 C 4.582031 0.0078125 4.335938 0.09375 4.015625 0.09375 C 3.703125 0.09375 3.460938 0.0078125 3.296875 -0.15625 C 3.140625 -0.332031 3.0625 -0.550781 3.0625 -0.8125 Z M 3.0625 -0.8125 "/></g></g></g><path fill="#17191a" d="M 241.757812 29.21875 C 241.65625 29.578125 241.65625 29.621094 241.363281 30.023438 C 240.90625 30.617188 239.992188 31.527344 239.015625 31.527344 C 238.160156 31.527344 237.683594 30.746094 237.683594 29.496094 C 237.683594 28.328125 238.328125 25.957031 238.722656 25.066406 C 239.429688 23.585938 240.40625 22.820312 241.21875 22.820312 C 242.589844 22.820312 242.863281 24.558594 242.863281 24.726562 C 242.863281 24.75 242.800781 25.023438 242.777344 25.066406 Z M 243.089844 23.796875 C 242.863281 23.246094 242.300781 22.398438 241.21875 22.398438 C 238.867188 22.398438 236.332031 25.492188 236.332031 28.625 C 236.332031 30.722656 237.539062 31.953125 238.953125 31.953125 C 240.097656 31.953125 241.074219 31.042969 241.65625 30.34375 C 241.863281 31.59375 242.839844 31.953125 243.464844 31.953125 C 244.089844 31.953125 244.589844 31.570312 244.960938 30.808594 C 245.296875 30.085938 245.585938 28.796875 245.585938 28.710938 C 245.585938 28.605469 245.503906 28.519531 245.378906 28.519531 C 245.191406 28.519531 245.171875 28.625 245.085938 28.945312 C 244.777344 30.195312 244.378906 31.527344 243.527344 31.527344 C 242.925781 31.527344 242.882812 30.976562 242.882812 30.554688 C 242.882812 30.066406 242.945312 29.832031 243.132812 29.007812 C 243.277344 28.476562 243.382812 28.011719 243.546875 27.398438 C 244.316406 24.21875 244.503906 23.457031 244.503906 23.328125 C 244.503906 23.03125 244.277344 22.800781 243.964844 22.800781 C 243.296875 22.800781 243.132812 23.542969 243.089844 23.796875 Z M 243.089844 23.796875 " fill-opacity="1" fill-rule="nonzero"/><path fill="#17191a" d="M 250.542969 25.921875 C 250.542969 25.542969 250.515625 25.527344 250.140625 25.527344 C 249.574219 26.09375 248.839844 26.429688 247.519531 26.429688 L 247.519531 26.898438 C 247.894531 26.898438 248.644531 26.898438 249.449219 26.515625 L 249.449219 33.761719 C 249.449219 34.285156 249.40625 34.453125 248.089844 34.453125 L 247.605469 34.453125 L 247.605469 34.917969 C 248.171875 34.875 249.363281 34.875 249.988281 34.875 C 250.613281 34.875 251.820312 34.875 252.386719 34.917969 L 252.386719 34.453125 L 251.902344 34.453125 C 250.585938 34.453125 250.542969 34.285156 250.542969 33.761719 Z M 250.542969 25.921875 " fill-opacity="1" fill-rule="nonzero"/><path fill="#17191a" d="M 274.238281 24.875 C 274.53125 24.875 274.902344 24.875 274.902344 24.496094 C 274.902344 24.09375 274.550781 24.09375 274.238281 24.09375 L 261.988281 24.09375 C 261.695312 24.09375 261.324219 24.09375 261.324219 24.472656 C 261.324219 24.875 261.675781 24.875 261.988281 24.875 Z M 274.238281 28.816406 C 274.53125 28.816406 274.902344 28.816406 274.902344 28.433594 C 274.902344 28.03125 274.550781 28.03125 274.238281 28.03125 L 261.988281 28.03125 C 261.695312 28.03125 261.324219 28.03125 261.324219 28.414062 C 261.324219 28.816406 261.675781 28.816406 261.988281 28.816406 Z M 274.238281 28.816406 " fill-opacity="1" fill-rule="nonzero"/><g clip-path="url(#c9b424caac)"><path fill="#17191a" d="M 284.480469 19.601562 C 285.375 19.898438 286.101562 19.917969 286.328125 19.917969 C 288.679688 19.917969 290.175781 18.160156 290.175781 17.863281 C 290.175781 17.78125 290.136719 17.671875 290.011719 17.671875 C 289.96875 17.671875 289.929688 17.671875 289.742188 17.757812 C 288.574219 18.265625 287.578125 18.332031 287.035156 18.332031 C 285.664062 18.332031 284.6875 17.90625 284.292969 17.738281 C 284.144531 17.671875 284.105469 17.671875 284.082031 17.671875 C 283.917969 17.671875 283.917969 17.800781 283.917969 18.140625 L 283.917969 24.429688 C 283.917969 24.8125 283.917969 24.941406 284.167969 24.941406 C 284.269531 24.941406 284.292969 24.917969 284.5 24.664062 C 285.082031 23.796875 286.058594 23.289062 287.097656 23.289062 C 288.203125 23.289062 288.742188 24.324219 288.910156 24.6875 C 289.261719 25.511719 289.285156 26.550781 289.285156 27.355469 C 289.285156 28.160156 289.285156 29.367188 288.699219 30.320312 C 288.242188 31.082031 287.433594 31.613281 286.515625 31.613281 C 285.144531 31.613281 283.792969 30.660156 283.417969 29.113281 C 283.523438 29.15625 283.648438 29.175781 283.75 29.175781 C 284.105469 29.175781 284.667969 28.964844 284.667969 28.246094 C 284.667969 27.652344 284.269531 27.3125 283.75 27.3125 C 283.375 27.3125 282.835938 27.503906 282.835938 28.328125 C 282.835938 30.128906 284.25 32.183594 286.558594 32.183594 C 288.910156 32.183594 290.96875 30.171875 290.96875 27.480469 C 290.96875 24.960938 289.304688 22.863281 287.121094 22.863281 C 285.933594 22.863281 285.019531 23.394531 284.480469 23.988281 Z M 284.480469 19.601562 " fill-opacity="1" fill-rule="nonzero"/></g><path fill="#17191a" d="M 296.054688 31.824219 C 296.054688 30.597656 295.660156 29.683594 294.808594 29.683594 C 294.140625 29.683594 293.808594 30.234375 293.808594 30.703125 C 293.808594 31.167969 294.121094 31.738281 294.828125 31.738281 C 295.097656 31.738281 295.328125 31.65625 295.515625 31.464844 C 295.554688 31.421875 295.578125 31.421875 295.597656 31.421875 C 295.640625 31.421875 295.640625 31.71875 295.640625 31.824219 C 295.640625 32.523438 295.515625 33.902344 294.308594 35.277344 C 294.078125 35.53125 294.078125 35.574219 294.078125 35.617188 C 294.078125 35.722656 294.183594 35.828125 294.285156 35.828125 C 294.453125 35.828125 296.054688 34.261719 296.054688 31.824219 Z M 296.054688 31.824219 " fill-opacity="1" fill-rule="nonzero"/><path fill="#17191a" d="M 307.382812 29.21875 C 307.277344 29.578125 307.277344 29.621094 306.988281 30.023438 C 306.53125 30.617188 305.613281 31.527344 304.636719 31.527344 C 303.785156 31.527344 303.304688 30.746094 303.304688 29.496094 C 303.304688 28.328125 303.949219 25.957031 304.34375 25.066406 C 305.054688 23.585938 306.03125 22.820312 306.839844 22.820312 C 308.214844 22.820312 308.484375 24.558594 308.484375 24.726562 C 308.484375 24.75 308.421875 25.023438 308.402344 25.066406 Z M 308.714844 23.796875 C 308.484375 23.246094 307.921875 22.398438 306.839844 22.398438 C 304.492188 22.398438 301.953125 25.492188 301.953125 28.625 C 301.953125 30.722656 303.160156 31.953125 304.574219 31.953125 C 305.71875 31.953125 306.695312 31.042969 307.277344 30.34375 C 307.484375 31.59375 308.464844 31.953125 309.085938 31.953125 C 309.710938 31.953125 310.210938 31.570312 310.585938 30.808594 C 310.917969 30.085938 311.210938 28.796875 311.210938 28.710938 C 311.210938 28.605469 311.125 28.519531 311 28.519531 C 310.8125 28.519531 310.792969 28.625 310.710938 28.945312 C 310.398438 30.195312 310.003906 31.527344 309.148438 31.527344 C 308.546875 31.527344 308.503906 30.976562 308.503906 30.554688 C 308.503906 30.066406 308.566406 29.832031 308.753906 29.007812 C 308.902344 28.476562 309.003906 28.011719 309.171875 27.398438 C 309.941406 24.21875 310.128906 23.457031 310.128906 23.328125 C 310.128906 23.03125 309.898438 22.800781 309.585938 22.800781 C 308.921875 22.800781 308.753906 23.542969 308.714844 23.796875 Z M 308.714844 23.796875 " fill-opacity="1" fill-rule="nonzero"/><path fill="#17191a" d="M 313.753906 26.980469 C 313.933594 27.039062 314.488281 27.179688 315.070312 27.179688 C 316.804688 27.179688 317.859375 25.9375 317.859375 25.726562 C 317.859375 25.570312 317.761719 25.527344 317.691406 25.527344 C 317.664062 25.527344 317.636719 25.527344 317.511719 25.597656 C 316.96875 25.808594 316.332031 25.980469 315.582031 25.980469 C 314.765625 25.980469 314.085938 25.765625 313.65625 25.597656 C 313.519531 25.527344 313.488281 25.527344 313.476562 25.527344 C 313.296875 25.527344 313.296875 25.683594 313.296875 25.9375 L 313.296875 30.074219 C 313.296875 30.328125 313.296875 30.5 313.519531 30.5 C 313.628906 30.5 313.671875 30.441406 313.738281 30.328125 C 313.90625 30.117188 314.433594 29.398438 315.613281 29.398438 C 316.386719 29.398438 316.761719 30.046875 316.886719 30.316406 C 317.121094 30.824219 317.152344 31.472656 317.152344 32.023438 C 317.152344 32.546875 317.136719 33.308594 316.75 33.929688 C 316.484375 34.355469 315.929688 34.792969 315.195312 34.792969 C 314.292969 34.792969 313.40625 34.214844 313.085938 33.296875 C 313.128906 33.308594 313.210938 33.308594 313.226562 33.308594 C 313.613281 33.308594 313.917969 33.054688 313.917969 32.617188 C 313.917969 32.09375 313.519531 31.910156 313.242188 31.910156 C 312.992188 31.910156 312.546875 32.050781 312.546875 32.660156 C 312.546875 33.929688 313.628906 35.214844 315.222656 35.214844 C 316.957031 35.214844 318.425781 33.847656 318.425781 32.09375 C 318.425781 30.457031 317.261719 29 315.625 29 C 314.933594 29 314.28125 29.226562 313.753906 29.707031 Z M 313.753906 26.980469 " fill-opacity="1" fill-rule="nonzero"/><path fill="#17191a" d="M 339.859375 24.875 C 340.152344 24.875 340.527344 24.875 340.527344 24.496094 C 340.527344 24.09375 340.171875 24.09375 339.859375 24.09375 L 327.609375 24.09375 C 327.320312 24.09375 326.945312 24.09375 326.945312 24.472656 C 326.945312 24.875 327.296875 24.875 327.609375 24.875 Z M 339.859375 28.816406 C 340.152344 28.816406 340.527344 28.816406 340.527344 28.433594 C 340.527344 28.03125 340.171875 28.03125 339.859375 28.03125 L 327.609375 28.03125 C 327.320312 28.03125 326.945312 28.03125 326.945312 28.414062 C 326.945312 28.816406 327.296875 28.816406 327.609375 28.816406 Z M 339.859375 28.816406 " fill-opacity="1" fill-rule="nonzero"/><g clip-path="url(#7234720ef2)"><path fill="#17191a" d="M 353.429688 18.160156 C 353.429688 17.671875 353.429688 17.652344 353.011719 17.652344 C 352.515625 18.222656 351.472656 19.007812 349.332031 19.007812 L 349.332031 19.621094 C 349.808594 19.621094 350.851562 19.621094 351.992188 19.070312 L 351.992188 30.109375 C 351.992188 30.871094 351.929688 31.125 350.101562 31.125 L 349.457031 31.125 L 349.457031 31.738281 C 350.019531 31.699219 352.035156 31.699219 352.722656 31.699219 C 353.40625 31.699219 355.40625 31.699219 355.964844 31.738281 L 355.964844 31.125 L 355.320312 31.125 C 353.492188 31.125 353.429688 30.871094 353.429688 30.109375 Z M 353.429688 18.160156 " fill-opacity="1" fill-rule="nonzero"/></g><g clip-path="url(#6f95097f6b)"><path fill="#17191a" d="M 367.5 18.585938 L 367.5 18.097656 L 362.488281 18.097656 C 359.972656 18.097656 359.929688 17.820312 359.847656 17.417969 L 359.390625 17.417969 L 358.746094 21.65625 L 359.203125 21.65625 C 359.265625 21.273438 359.453125 19.960938 359.722656 19.726562 C 359.886719 19.601562 361.449219 19.601562 361.738281 19.601562 L 366.148438 19.601562 L 363.945312 22.820312 C 363.382812 23.648438 361.28125 27.121094 361.28125 31.105469 C 361.28125 31.335938 361.28125 32.183594 362.132812 32.183594 C 363.007812 32.183594 363.007812 31.359375 363.007812 31.082031 L 363.007812 30.023438 C 363.007812 26.867188 363.507812 24.410156 364.484375 22.992188 Z M 367.5 18.585938 " fill-opacity="1" fill-rule="nonzero"/></g></svg>