<svg xmlns="http://www.w3.org/2000/svg" xmlns:xlink="http://www.w3.org/1999/xlink" width="500" zoomAndPan="magnify" viewBox="0 0 375 74.999997" height="100" preserveAspectRatio="xMidYMid meet" version="1.0"><defs><clipPath id="bdc7a5fe38"><path d="M 142 36 L 151 36 L 151 49.570312 L 142 49.570312 Z M 142 36 " clip-rule="nonzero"/></clipPath><clipPath id="15738f8719"><path d="M 152 37 L 161 37 L 161 49.570312 L 152 49.570312 Z M 152 37 " clip-rule="nonzero"/></clipPath><clipPath id="500cb1d21d"><path d="M 237 27 L 248.863281 27 L 248.863281 46 L 237 46 Z M 237 27 " clip-rule="nonzero"/></clipPath></defs><path fill="#a8180f" d="M 142.890625 26.265625 C 142.890625 26.023438 142.703125 26.023438 142.652344 26.023438 C 142.542969 26.023438 142.515625 26.050781 142.195312 26.457031 C 142.035156 26.644531 140.933594 28.050781 140.90625 28.078125 C 140.023438 26.320312 138.25 26.023438 137.125 26.023438 C 133.71875 26.023438 130.636719 29.160156 130.636719 32.214844 C 130.636719 34.242188 131.84375 35.433594 133.15625 35.890625 C 133.449219 36 135.035156 36.433594 135.839844 36.621094 C 137.207031 37 137.554688 37.109375 138.117188 37.703125 C 138.226562 37.839844 138.761719 38.460938 138.761719 39.730469 C 138.761719 42.246094 136.453125 44.839844 133.773438 44.839844 C 131.574219 44.839844 129.132812 43.894531 129.132812 40.867188 C 129.132812 40.351562 129.242188 39.703125 129.320312 39.433594 C 129.320312 39.351562 129.347656 39.21875 129.347656 39.164062 C 129.347656 39.054688 129.292969 38.921875 129.078125 38.921875 C 128.839844 38.921875 128.8125 38.972656 128.703125 39.433594 L 127.335938 44.976562 C 127.335938 45.003906 127.230469 45.355469 127.230469 45.382812 C 127.230469 45.625 127.441406 45.625 127.496094 45.625 C 127.605469 45.625 127.632812 45.597656 127.953125 45.191406 L 129.1875 43.570312 C 129.832031 44.542969 131.226562 45.625 133.71875 45.625 C 137.179688 45.625 140.34375 42.246094 140.34375 38.867188 C 140.34375 37.730469 140.074219 36.730469 139.054688 35.730469 C 138.492188 35.164062 138.011719 35.027344 135.542969 34.378906 C 133.746094 33.890625 133.503906 33.808594 133.023438 33.378906 C 132.566406 32.917969 132.21875 32.269531 132.21875 31.351562 C 132.21875 29.078125 134.496094 26.753906 137.046875 26.753906 C 139.671875 26.753906 140.90625 28.375 140.90625 30.945312 C 140.90625 31.648438 140.773438 32.378906 140.773438 32.484375 C 140.773438 32.730469 140.988281 32.730469 141.066406 32.730469 C 141.308594 32.730469 141.335938 32.648438 141.445312 32.214844 Z M 142.890625 26.265625 " fill-opacity="1" fill-rule="nonzero"/><g clip-path="url(#bdc7a5fe38)"><path fill="#a8180f" d="M 149.058594 37.453125 C 149.058594 37.09375 149.058594 36.949219 148.683594 36.949219 C 148.449219 36.949219 148.433594 36.964844 148.253906 37.21875 L 142.550781 45.5625 L 142.550781 46.160156 L 147.59375 46.160156 L 147.59375 47.65625 C 147.59375 48.320312 147.539062 48.519531 146.160156 48.519531 L 145.75 48.519531 L 145.75 49.113281 C 147.269531 49.0625 147.304688 49.0625 148.324219 49.0625 C 149.34375 49.0625 149.378906 49.0625 150.898438 49.113281 L 150.898438 48.519531 L 150.488281 48.519531 C 149.113281 48.519531 149.058594 48.320312 149.058594 47.65625 L 149.058594 46.160156 L 150.953125 46.160156 L 150.953125 45.5625 L 149.058594 45.5625 Z M 147.71875 38.914062 L 147.71875 45.5625 L 143.175781 45.5625 Z M 147.71875 38.914062 " fill-opacity="1" fill-rule="nonzero"/></g><g clip-path="url(#15738f8719)"><path fill="#a8180f" d="M 156.554688 45.4375 C 156.839844 45.167969 157.589844 44.574219 157.878906 44.320312 C 158.984375 43.292969 160.039062 42.300781 160.039062 40.660156 C 160.039062 38.515625 158.253906 37.128906 156.019531 37.128906 C 153.871094 37.128906 152.460938 38.769531 152.460938 40.375 C 152.460938 41.257812 153.15625 41.382812 153.40625 41.382812 C 153.78125 41.382812 154.335938 41.113281 154.335938 40.425781 C 154.335938 39.488281 153.441406 39.488281 153.226562 39.488281 C 153.746094 38.175781 154.945312 37.722656 155.820312 37.722656 C 157.484375 37.722656 158.34375 39.148438 158.34375 40.660156 C 158.34375 42.535156 157.035156 43.90625 154.925781 46.085938 L 152.675781 48.429688 C 152.460938 48.628906 152.460938 48.664062 152.460938 49.113281 L 159.523438 49.113281 L 160.039062 45.890625 L 159.488281 45.890625 C 159.433594 46.25 159.289062 47.152344 159.074219 47.492188 C 158.96875 47.636719 157.609375 47.636719 157.324219 47.636719 L 154.140625 47.636719 Z M 156.554688 45.4375 " fill-opacity="1" fill-rule="nonzero"/></g><path fill="#a8180f" d="M 187.683594 36.296875 C 188.058594 36.296875 188.539062 36.296875 188.539062 35.8125 C 188.539062 35.296875 188.085938 35.296875 187.683594 35.296875 L 171.882812 35.296875 C 171.507812 35.296875 171.027344 35.296875 171.027344 35.785156 C 171.027344 36.296875 171.480469 36.296875 171.882812 36.296875 Z M 187.683594 41.328125 C 188.058594 41.328125 188.539062 41.328125 188.539062 40.839844 C 188.539062 40.328125 188.085938 40.328125 187.683594 40.328125 L 171.882812 40.328125 C 171.507812 40.328125 171.027344 40.328125 171.027344 40.8125 C 171.027344 41.328125 171.480469 41.328125 171.882812 41.328125 Z M 187.683594 41.328125 " fill-opacity="1" fill-rule="nonzero"/><path fill="#a8180f" d="M 209.253906 40.515625 L 208.664062 40.515625 C 208.582031 40.976562 208.367188 42.460938 208.101562 42.894531 C 207.914062 43.136719 206.382812 43.136719 205.578125 43.136719 L 200.617188 43.136719 C 201.339844 42.515625 202.976562 40.785156 203.675781 40.136719 C 207.75 36.351562 209.253906 34.945312 209.253906 32.269531 C 209.253906 29.160156 206.8125 27.078125 203.703125 27.078125 C 200.589844 27.078125 198.765625 29.753906 198.765625 32.078125 C 198.765625 33.457031 199.945312 33.457031 200.027344 33.457031 C 200.589844 33.457031 201.289062 33.054688 201.289062 32.1875 C 201.289062 31.429688 200.777344 30.917969 200.027344 30.917969 C 199.785156 30.917969 199.730469 30.917969 199.652344 30.945312 C 200.160156 29.105469 201.609375 27.863281 203.351562 27.863281 C 205.632812 27.863281 207.027344 29.78125 207.027344 32.269531 C 207.027344 34.566406 205.714844 36.566406 204.183594 38.296875 L 198.765625 44.410156 L 198.765625 45.058594 L 208.554688 45.058594 Z M 209.253906 40.515625 " fill-opacity="1" fill-rule="nonzero"/><path fill="#a8180f" d="M 223.324219 28.269531 L 223.324219 27.644531 L 216.859375 27.644531 C 213.613281 27.644531 213.558594 27.292969 213.453125 26.78125 L 212.863281 26.78125 L 212.03125 32.1875 L 212.621094 32.1875 C 212.703125 31.703125 212.941406 30.023438 213.292969 29.726562 C 213.507812 29.566406 215.519531 29.566406 215.894531 29.566406 L 221.578125 29.566406 L 218.738281 33.675781 C 218.011719 34.730469 215.304688 39.164062 215.304688 44.246094 C 215.304688 44.542969 215.304688 45.625 216.402344 45.625 C 217.53125 45.625 217.53125 44.570312 217.53125 44.21875 L 217.53125 42.867188 C 217.53125 38.839844 218.171875 35.703125 219.433594 33.890625 Z M 223.324219 28.269531 " fill-opacity="1" fill-rule="nonzero"/><path fill="#a8180f" d="M 233.53125 37.191406 C 233.53125 43.570312 230.714844 44.894531 229.105469 44.894531 C 228.460938 44.894531 227.039062 44.816406 226.367188 43.867188 L 226.53125 43.867188 C 226.71875 43.921875 227.683594 43.761719 227.683594 42.761719 C 227.683594 42.164062 227.28125 41.652344 226.582031 41.652344 C 225.886719 41.652344 225.457031 42.109375 225.457031 42.8125 C 225.457031 44.488281 226.796875 45.625 229.132812 45.625 C 232.484375 45.625 235.730469 42.03125 235.730469 36.164062 C 235.730469 28.890625 232.726562 27.078125 230.363281 27.078125 C 227.414062 27.078125 224.8125 29.566406 224.8125 33.132812 C 224.8125 36.703125 227.308594 39.136719 229.988281 39.136719 C 231.972656 39.136719 232.992188 37.675781 233.53125 36.296875 Z M 230.097656 38.597656 C 228.40625 38.597656 227.683594 37.21875 227.441406 36.703125 C 227.011719 35.675781 227.011719 34.378906 227.011719 33.160156 C 227.011719 31.648438 227.011719 30.347656 227.710938 29.242188 C 228.191406 28.511719 228.917969 27.726562 230.363281 27.726562 C 231.894531 27.726562 232.671875 29.078125 232.941406 29.699219 C 233.476562 31.027344 233.476562 33.324219 233.476562 33.730469 C 233.476562 36 232.457031 38.597656 230.097656 38.597656 Z M 230.097656 38.597656 " fill-opacity="1" fill-rule="nonzero"/><g clip-path="url(#500cb1d21d)"><path fill="#a8180f" d="M 241.777344 35.351562 C 241.324219 35.378906 241.214844 35.40625 241.214844 35.648438 C 241.214844 35.917969 241.351562 35.917969 241.832031 35.917969 L 243.066406 35.917969 C 245.347656 35.917969 246.367188 37.8125 246.367188 40.40625 C 246.367188 43.949219 244.542969 44.894531 243.226562 44.894531 C 241.941406 44.894531 239.742188 44.273438 238.964844 42.488281 C 239.820312 42.625 240.597656 42.136719 240.597656 41.164062 C 240.597656 40.378906 240.035156 39.839844 239.285156 39.839844 C 238.640625 39.839844 237.945312 40.21875 237.945312 41.246094 C 237.945312 43.652344 240.332031 45.625 243.308594 45.625 C 246.5 45.625 248.859375 43.164062 248.859375 40.433594 C 248.859375 37.945312 246.875 36 244.300781 35.539062 C 246.632812 34.863281 248.136719 32.890625 248.136719 30.78125 C 248.136719 28.644531 245.9375 27.078125 243.335938 27.078125 C 240.652344 27.078125 238.667969 28.726562 238.667969 30.699219 C 238.667969 31.78125 239.5 32 239.902344 32 C 240.464844 32 241.109375 31.59375 241.109375 30.78125 C 241.109375 29.917969 240.464844 29.539062 239.875 29.539062 C 239.714844 29.539062 239.660156 29.539062 239.578125 29.566406 C 240.597656 27.726562 243.121094 27.726562 243.253906 27.726562 C 244.140625 27.726562 245.882812 28.132812 245.882812 30.78125 C 245.882812 31.296875 245.800781 32.808594 245.023438 33.972656 C 244.21875 35.164062 243.308594 35.242188 242.582031 35.269531 Z M 241.777344 35.351562 " fill-opacity="1" fill-rule="nonzero"/></g></svg>