<svg xmlns="http://www.w3.org/2000/svg" xmlns:xlink="http://www.w3.org/1999/xlink" width="500" zoomAndPan="magnify" viewBox="0 0 375 74.999997" height="100" preserveAspectRatio="xMidYMid meet" version="1.0"><defs><g/><clipPath id="fd134bb3e1"><path d="M 236.058594 23 L 245 23 L 245 32 L 236.058594 32 Z M 236.058594 23 " clip-rule="nonzero"/></clipPath><clipPath id="9130b6caef"><path d="M 245 26 L 251 26 L 251 34.828125 L 245 34.828125 Z M 245 26 " clip-rule="nonzero"/></clipPath><clipPath id="fd253db426"><path d="M 276 19.078125 L 284 19.078125 L 284 32 L 276 32 Z M 276 19.078125 " clip-rule="nonzero"/></clipPath><clipPath id="1bd0cabe01"><path d="M 285 19.078125 L 293 19.078125 L 293 32 L 285 32 Z M 285 19.078125 " clip-rule="nonzero"/></clipPath><clipPath id="140e6c94cc"><path d="M 294 29 L 297 29 L 297 34.828125 L 294 34.828125 Z M 294 29 " clip-rule="nonzero"/></clipPath><clipPath id="261bd93e8c"><path d="M 347 19.078125 L 356 19.078125 L 356 32 L 347 32 Z M 347 19.078125 " clip-rule="nonzero"/></clipPath><clipPath id="e32901b600"><path d="M 356 19.078125 L 363.558594 19.078125 L 363.558594 32 L 356 32 Z M 356 19.078125 " clip-rule="nonzero"/></clipPath><clipPath id="032125fc03"><path d="M 124 46 L 133 46 L 133 60.75 L 124 60.75 Z M 124 46 " clip-rule="nonzero"/></clipPath><clipPath id="d420754314"><path d="M 134 46 L 144.339844 46 L 144.339844 60.75 L 134 60.75 Z M 134 46 " clip-rule="nonzero"/></clipPath></defs><g fill="#17191a" fill-opacity="1"><g transform="translate(0.0000075, 31.199996)"><g><path d="M 3.421875 -7.1875 L 4.65625 -7.1875 C 5.414062 -7.195312 6.015625 -7.398438 6.453125 -7.796875 C 6.898438 -8.191406 7.125 -8.722656 7.125 -9.390625 C 7.125 -10.890625 6.375 -11.640625 4.875 -11.640625 C 4.175781 -11.640625 3.613281 -11.4375 3.1875 -11.03125 C 2.769531 -10.632812 2.5625 -10.101562 2.5625 -9.4375 L 0.9375 -9.4375 C 0.9375 -10.445312 1.304688 -11.285156 2.046875 -11.953125 C 2.796875 -12.628906 3.738281 -12.96875 4.875 -12.96875 C 6.082031 -12.96875 7.03125 -12.648438 7.71875 -12.015625 C 8.40625 -11.378906 8.75 -10.492188 8.75 -9.359375 C 8.75 -8.796875 8.566406 -8.253906 8.203125 -7.734375 C 7.847656 -7.210938 7.359375 -6.820312 6.734375 -6.5625 C 7.429688 -6.34375 7.972656 -5.972656 8.359375 -5.453125 C 8.742188 -4.941406 8.9375 -4.3125 8.9375 -3.5625 C 8.9375 -2.414062 8.5625 -1.503906 7.8125 -0.828125 C 7.0625 -0.160156 6.082031 0.171875 4.875 0.171875 C 3.675781 0.171875 2.703125 -0.148438 1.953125 -0.796875 C 1.203125 -1.453125 0.828125 -2.3125 0.828125 -3.375 L 2.46875 -3.375 C 2.46875 -2.695312 2.6875 -2.15625 3.125 -1.75 C 3.5625 -1.351562 4.148438 -1.15625 4.890625 -1.15625 C 5.671875 -1.15625 6.269531 -1.359375 6.6875 -1.765625 C 7.101562 -2.171875 7.3125 -2.757812 7.3125 -3.53125 C 7.3125 -4.28125 7.082031 -4.851562 6.625 -5.25 C 6.164062 -5.644531 5.507812 -5.847656 4.65625 -5.859375 L 3.421875 -5.859375 Z M 3.421875 -7.1875 "/></g></g></g><g fill="#17191a" fill-opacity="1"><g transform="translate(10.100848, 31.199996)"><g><path d="M 4.984375 -5.109375 C 4.984375 -3.796875 4.8125 -2.539062 4.46875 -1.34375 C 4.125 -0.144531 3.597656 0.957031 2.890625 1.96875 C 2.191406 2.976562 1.453125 3.695312 0.671875 4.125 L 0.328125 3.140625 C 1.234375 2.441406 1.957031 1.367188 2.5 -0.078125 C 3.050781 -1.535156 3.332031 -3.15625 3.34375 -4.9375 L 3.34375 -5.21875 C 3.34375 -6.445312 3.210938 -7.585938 2.953125 -8.640625 C 2.703125 -9.703125 2.347656 -10.648438 1.890625 -11.484375 C 1.429688 -12.328125 0.910156 -12.984375 0.328125 -13.453125 L 0.671875 -14.4375 C 1.453125 -14.007812 2.191406 -13.296875 2.890625 -12.296875 C 3.585938 -11.296875 4.109375 -10.191406 4.453125 -8.984375 C 4.804688 -7.773438 4.984375 -6.484375 4.984375 -5.109375 Z M 4.984375 -5.109375 "/></g></g></g><g fill="#17191a" fill-opacity="1"><g transform="translate(16.354586, 31.199996)"><g/></g></g><g fill="#17191a" fill-opacity="1"><g transform="translate(20.807745, 31.199996)"><g><path d="M 10.5 -12.796875 L 10.5 -4.09375 C 10.488281 -2.882812 10.109375 -1.894531 9.359375 -1.125 C 8.609375 -0.363281 7.585938 0.0625 6.296875 0.15625 L 5.84375 0.171875 C 4.445312 0.171875 3.332031 -0.203125 2.5 -0.953125 C 1.664062 -1.710938 1.242188 -2.753906 1.234375 -4.078125 L 1.234375 -12.796875 L 2.90625 -12.796875 L 2.90625 -4.125 C 2.90625 -3.207031 3.160156 -2.488281 3.671875 -1.96875 C 4.179688 -1.457031 4.90625 -1.203125 5.84375 -1.203125 C 6.800781 -1.203125 7.53125 -1.457031 8.03125 -1.96875 C 8.539062 -2.476562 8.796875 -3.195312 8.796875 -4.125 L 8.796875 -12.796875 Z M 10.5 -12.796875 "/></g></g></g><g fill="#17191a" fill-opacity="1"><g transform="translate(32.47202, 31.199996)"><g/></g></g><g fill="#17191a" fill-opacity="1"><g transform="translate(36.925179, 31.199996)"><g><path d="M 7.109375 0 C 7.015625 -0.1875 6.9375 -0.519531 6.875 -1 C 6.113281 -0.21875 5.210938 0.171875 4.171875 0.171875 C 3.234375 0.171875 2.460938 -0.09375 1.859375 -0.625 C 1.253906 -1.15625 0.953125 -1.828125 0.953125 -2.640625 C 0.953125 -3.628906 1.328125 -4.394531 2.078125 -4.9375 C 2.835938 -5.488281 3.898438 -5.765625 5.265625 -5.765625 L 6.84375 -5.765625 L 6.84375 -6.515625 C 6.84375 -7.078125 6.671875 -7.523438 6.328125 -7.859375 C 5.992188 -8.203125 5.492188 -8.375 4.828125 -8.375 C 4.253906 -8.375 3.769531 -8.226562 3.375 -7.9375 C 2.976562 -7.644531 2.78125 -7.289062 2.78125 -6.875 L 1.15625 -6.875 C 1.15625 -7.34375 1.320312 -7.796875 1.65625 -8.234375 C 1.988281 -8.679688 2.441406 -9.035156 3.015625 -9.296875 C 3.597656 -9.554688 4.238281 -9.6875 4.9375 -9.6875 C 6.03125 -9.6875 6.882812 -9.410156 7.5 -8.859375 C 8.125 -8.316406 8.445312 -7.5625 8.46875 -6.59375 L 8.46875 -2.21875 C 8.46875 -1.351562 8.582031 -0.660156 8.8125 -0.140625 L 8.8125 0 Z M 4.40625 -1.234375 C 4.914062 -1.234375 5.398438 -1.363281 5.859375 -1.625 C 6.316406 -1.894531 6.644531 -2.238281 6.84375 -2.65625 L 6.84375 -4.609375 L 5.578125 -4.609375 C 3.578125 -4.609375 2.578125 -4.023438 2.578125 -2.859375 C 2.578125 -2.347656 2.75 -1.945312 3.09375 -1.65625 C 3.4375 -1.375 3.875 -1.234375 4.40625 -1.234375 Z M 4.40625 -1.234375 "/></g></g></g><g fill="#17191a" fill-opacity="1"><g transform="translate(46.70982, 31.199996)"><g><path d="M 5.828125 -8.046875 C 5.578125 -8.085938 5.3125 -8.109375 5.03125 -8.109375 C 3.957031 -8.109375 3.234375 -7.65625 2.859375 -6.75 L 2.859375 0 L 1.234375 0 L 1.234375 -9.515625 L 2.8125 -9.515625 L 2.84375 -8.40625 C 3.375 -9.257812 4.128906 -9.6875 5.109375 -9.6875 C 5.421875 -9.6875 5.660156 -9.644531 5.828125 -9.5625 Z M 5.828125 -8.046875 "/></g></g></g><g fill="#17191a" fill-opacity="1"><g transform="translate(52.79668, 31.199996)"><g><path d="M 3 0 L 1.375 0 L 1.375 -9.515625 L 3 -9.515625 Z M 1.234375 -12.03125 C 1.234375 -12.289062 1.3125 -12.507812 1.46875 -12.6875 C 1.632812 -12.875 1.875 -12.96875 2.1875 -12.96875 C 2.507812 -12.96875 2.753906 -12.875 2.921875 -12.6875 C 3.085938 -12.507812 3.171875 -12.289062 3.171875 -12.03125 C 3.171875 -11.769531 3.085938 -11.550781 2.921875 -11.375 C 2.753906 -11.195312 2.507812 -11.109375 2.1875 -11.109375 C 1.875 -11.109375 1.632812 -11.195312 1.46875 -11.375 C 1.3125 -11.550781 1.234375 -11.769531 1.234375 -12.03125 Z M 1.234375 -12.03125 "/></g></g></g><g fill="#17191a" fill-opacity="1"><g transform="translate(57.162006, 31.199996)"><g><path d="M 3.4375 -11.8125 L 3.4375 -9.515625 L 5.21875 -9.515625 L 5.21875 -8.25 L 3.4375 -8.25 L 3.4375 -2.359375 C 3.4375 -1.972656 3.515625 -1.6875 3.671875 -1.5 C 3.828125 -1.3125 4.097656 -1.21875 4.484375 -1.21875 C 4.671875 -1.21875 4.925781 -1.25 5.25 -1.3125 L 5.25 0 C 4.820312 0.113281 4.410156 0.171875 4.015625 0.171875 C 3.285156 0.171875 2.734375 -0.046875 2.359375 -0.484375 C 1.992188 -0.921875 1.8125 -1.546875 1.8125 -2.359375 L 1.8125 -8.25 L 0.078125 -8.25 L 0.078125 -9.515625 L 1.8125 -9.515625 L 1.8125 -11.8125 Z M 3.4375 -11.8125 "/></g></g></g><g fill="#17191a" fill-opacity="1"><g transform="translate(63.038066, 31.199996)"><g><path d="M 2.765625 -9.515625 L 2.796875 -8.453125 C 3.492188 -9.273438 4.4375 -9.6875 5.625 -9.6875 C 6.957031 -9.6875 7.863281 -9.175781 8.34375 -8.15625 C 8.65625 -8.613281 9.066406 -8.984375 9.578125 -9.265625 C 10.085938 -9.546875 10.6875 -9.6875 11.375 -9.6875 C 13.457031 -9.6875 14.519531 -8.582031 14.5625 -6.375 L 14.5625 0 L 12.921875 0 L 12.921875 -6.28125 C 12.921875 -6.957031 12.765625 -7.460938 12.453125 -7.796875 C 12.148438 -8.140625 11.632812 -8.3125 10.90625 -8.3125 C 10.300781 -8.3125 9.796875 -8.128906 9.390625 -7.765625 C 8.992188 -7.398438 8.765625 -6.914062 8.703125 -6.3125 L 8.703125 0 L 7.0625 0 L 7.0625 -6.234375 C 7.0625 -7.617188 6.382812 -8.3125 5.03125 -8.3125 C 3.96875 -8.3125 3.238281 -7.851562 2.84375 -6.9375 L 2.84375 0 L 1.21875 0 L 1.21875 -9.515625 Z M 2.765625 -9.515625 "/></g></g></g><g fill="#17191a" fill-opacity="1"><g transform="translate(78.804166, 31.199996)"><g><path d="M 5.171875 0.171875 C 3.890625 0.171875 2.84375 -0.25 2.03125 -1.09375 C 1.21875 -1.9375 0.8125 -3.066406 0.8125 -4.484375 L 0.8125 -4.796875 C 0.8125 -5.734375 0.992188 -6.570312 1.359375 -7.3125 C 1.722656 -8.050781 2.226562 -8.628906 2.875 -9.046875 C 3.519531 -9.472656 4.21875 -9.6875 4.96875 -9.6875 C 6.207031 -9.6875 7.171875 -9.28125 7.859375 -8.46875 C 8.546875 -7.65625 8.890625 -6.488281 8.890625 -4.96875 L 8.890625 -4.296875 L 2.4375 -4.296875 C 2.46875 -3.359375 2.742188 -2.597656 3.265625 -2.015625 C 3.785156 -1.441406 4.453125 -1.15625 5.265625 -1.15625 C 5.835938 -1.15625 6.320312 -1.269531 6.71875 -1.5 C 7.125 -1.738281 7.472656 -2.050781 7.765625 -2.4375 L 8.765625 -1.65625 C 7.960938 -0.4375 6.765625 0.171875 5.171875 0.171875 Z M 4.96875 -8.34375 C 4.3125 -8.34375 3.757812 -8.101562 3.3125 -7.625 C 2.875 -7.15625 2.601562 -6.488281 2.5 -5.625 L 7.265625 -5.625 L 7.265625 -5.75 C 7.210938 -6.570312 6.988281 -7.207031 6.59375 -7.65625 C 6.195312 -8.113281 5.65625 -8.34375 4.96875 -8.34375 Z M 4.96875 -8.34375 "/></g></g></g><g fill="#17191a" fill-opacity="1"><g transform="translate(88.334095, 31.199996)"><g><path d="M 3.4375 -11.8125 L 3.4375 -9.515625 L 5.21875 -9.515625 L 5.21875 -8.25 L 3.4375 -8.25 L 3.4375 -2.359375 C 3.4375 -1.972656 3.515625 -1.6875 3.671875 -1.5 C 3.828125 -1.3125 4.097656 -1.21875 4.484375 -1.21875 C 4.671875 -1.21875 4.925781 -1.25 5.25 -1.3125 L 5.25 0 C 4.820312 0.113281 4.410156 0.171875 4.015625 0.171875 C 3.285156 0.171875 2.734375 -0.046875 2.359375 -0.484375 C 1.992188 -0.921875 1.8125 -1.546875 1.8125 -2.359375 L 1.8125 -8.25 L 0.078125 -8.25 L 0.078125 -9.515625 L 1.8125 -9.515625 L 1.8125 -11.8125 Z M 3.4375 -11.8125 "/></g></g></g><g fill="#17191a" fill-opacity="1"><g transform="translate(94.210155, 31.199996)"><g><path d="M 3 0 L 1.375 0 L 1.375 -9.515625 L 3 -9.515625 Z M 1.234375 -12.03125 C 1.234375 -12.289062 1.3125 -12.507812 1.46875 -12.6875 C 1.632812 -12.875 1.875 -12.96875 2.1875 -12.96875 C 2.507812 -12.96875 2.753906 -12.875 2.921875 -12.6875 C 3.085938 -12.507812 3.171875 -12.289062 3.171875 -12.03125 C 3.171875 -11.769531 3.085938 -11.550781 2.921875 -11.375 C 2.753906 -11.195312 2.507812 -11.109375 2.1875 -11.109375 C 1.875 -11.109375 1.632812 -11.195312 1.46875 -11.375 C 1.3125 -11.550781 1.234375 -11.769531 1.234375 -12.03125 Z M 1.234375 -12.03125 "/></g></g></g><g fill="#17191a" fill-opacity="1"><g transform="translate(98.575481, 31.199996)"><g><path d="M 5.046875 -1.15625 C 5.628906 -1.15625 6.132812 -1.328125 6.5625 -1.671875 C 7 -2.023438 7.238281 -2.46875 7.28125 -3 L 8.828125 -3 C 8.796875 -2.457031 8.609375 -1.9375 8.265625 -1.4375 C 7.921875 -0.945312 7.457031 -0.554688 6.875 -0.265625 C 6.300781 0.0234375 5.691406 0.171875 5.046875 0.171875 C 3.753906 0.171875 2.722656 -0.257812 1.953125 -1.125 C 1.191406 -1.988281 0.8125 -3.171875 0.8125 -4.671875 L 0.8125 -4.9375 C 0.8125 -5.863281 0.976562 -6.6875 1.3125 -7.40625 C 1.65625 -8.125 2.144531 -8.679688 2.78125 -9.078125 C 3.414062 -9.484375 4.164062 -9.6875 5.03125 -9.6875 C 6.101562 -9.6875 6.988281 -9.363281 7.6875 -8.71875 C 8.394531 -8.082031 8.773438 -7.253906 8.828125 -6.234375 L 7.28125 -6.234375 C 7.238281 -6.847656 7.003906 -7.351562 6.578125 -7.75 C 6.160156 -8.144531 5.644531 -8.34375 5.03125 -8.34375 C 4.207031 -8.34375 3.566406 -8.046875 3.109375 -7.453125 C 2.660156 -6.859375 2.4375 -6 2.4375 -4.875 L 2.4375 -4.578125 C 2.4375 -3.472656 2.660156 -2.625 3.109375 -2.03125 C 3.554688 -1.445312 4.203125 -1.15625 5.046875 -1.15625 Z M 4.671875 -12.015625 L 5.984375 -13.5 L 7.390625 -13.5 L 7.390625 -13.421875 L 5.15625 -11.015625 L 4.171875 -11.015625 L 1.953125 -13.421875 L 1.953125 -13.5 L 3.34375 -13.5 Z M 4.671875 -12.015625 "/></g></g></g><g fill="#17191a" fill-opacity="1"><g transform="translate(107.991221, 31.199996)"><g><path d="M 3.890625 -4.40625 L 2.859375 -3.34375 L 2.859375 0 L 1.234375 0 L 1.234375 -13.5 L 2.859375 -13.5 L 2.859375 -5.328125 L 3.734375 -6.375 L 6.703125 -9.515625 L 8.671875 -9.515625 L 4.96875 -5.53125 L 9.109375 0 L 7.203125 0 Z M 3.890625 -4.40625 "/></g></g></g><g fill="#17191a" fill-opacity="1"><g transform="translate(117.108328, 31.199996)"><g><path d="M 0.796875 -4.84375 C 0.796875 -5.769531 0.976562 -6.601562 1.34375 -7.34375 C 1.71875 -8.09375 2.226562 -8.671875 2.875 -9.078125 C 3.53125 -9.484375 4.273438 -9.6875 5.109375 -9.6875 C 6.410156 -9.6875 7.457031 -9.238281 8.25 -8.34375 C 9.050781 -7.445312 9.453125 -6.253906 9.453125 -4.765625 L 9.453125 -4.65625 C 9.453125 -3.726562 9.273438 -2.894531 8.921875 -2.15625 C 8.566406 -1.425781 8.0625 -0.851562 7.40625 -0.4375 C 6.75 -0.03125 5.992188 0.171875 5.140625 0.171875 C 3.847656 0.171875 2.800781 -0.273438 2 -1.171875 C 1.195312 -2.066406 0.796875 -3.253906 0.796875 -4.734375 Z M 2.4375 -4.65625 C 2.4375 -3.59375 2.679688 -2.742188 3.171875 -2.109375 C 3.660156 -1.472656 4.316406 -1.15625 5.140625 -1.15625 C 5.960938 -1.15625 6.613281 -1.476562 7.09375 -2.125 C 7.582031 -2.769531 7.828125 -3.675781 7.828125 -4.84375 C 7.828125 -5.882812 7.578125 -6.726562 7.078125 -7.375 C 6.585938 -8.019531 5.929688 -8.34375 5.109375 -8.34375 C 4.304688 -8.34375 3.660156 -8.023438 3.171875 -7.390625 C 2.679688 -6.753906 2.4375 -5.84375 2.4375 -4.65625 Z M 2.4375 -4.65625 "/></g></g></g><g fill="#17191a" fill-opacity="1"><g transform="translate(127.367269, 31.199996)"><g><path d="M 2.765625 -9.515625 L 2.796875 -8.453125 C 3.492188 -9.273438 4.4375 -9.6875 5.625 -9.6875 C 6.957031 -9.6875 7.863281 -9.175781 8.34375 -8.15625 C 8.65625 -8.613281 9.066406 -8.984375 9.578125 -9.265625 C 10.085938 -9.546875 10.6875 -9.6875 11.375 -9.6875 C 13.457031 -9.6875 14.519531 -8.582031 14.5625 -6.375 L 14.5625 0 L 12.921875 0 L 12.921875 -6.28125 C 12.921875 -6.957031 12.765625 -7.460938 12.453125 -7.796875 C 12.148438 -8.140625 11.632812 -8.3125 10.90625 -8.3125 C 10.300781 -8.3125 9.796875 -8.128906 9.390625 -7.765625 C 8.992188 -7.398438 8.765625 -6.914062 8.703125 -6.3125 L 8.703125 0 L 7.0625 0 L 7.0625 -6.234375 C 7.0625 -7.617188 6.382812 -8.3125 5.03125 -8.3125 C 3.96875 -8.3125 3.238281 -7.851562 2.84375 -6.9375 L 2.84375 0 L 1.21875 0 L 1.21875 -9.515625 Z M 2.765625 -9.515625 "/></g></g></g><g fill="#17191a" fill-opacity="1"><g transform="translate(143.133369, 31.199996)"><g/></g></g><g fill="#17191a" fill-opacity="1"><g transform="translate(147.586528, 31.199996)"><g><path d="M 2.765625 -9.515625 L 2.828125 -8.3125 C 3.546875 -9.226562 4.492188 -9.6875 5.671875 -9.6875 C 7.679688 -9.6875 8.691406 -8.550781 8.703125 -6.28125 L 8.703125 0 L 7.078125 0 L 7.078125 -6.296875 C 7.078125 -6.984375 6.921875 -7.488281 6.609375 -7.8125 C 6.304688 -8.144531 5.828125 -8.3125 5.171875 -8.3125 C 4.648438 -8.3125 4.1875 -8.171875 3.78125 -7.890625 C 3.382812 -7.609375 3.078125 -7.238281 2.859375 -6.78125 L 2.859375 0 L 1.234375 0 L 1.234375 -9.515625 Z M 2.765625 -9.515625 "/></g></g></g><g fill="#17191a" fill-opacity="1"><g transform="translate(157.511702, 31.199996)"><g><path d="M 3 0 L 1.375 0 L 1.375 -9.515625 L 3 -9.515625 Z M 1.234375 -12.03125 C 1.234375 -12.289062 1.3125 -12.507812 1.46875 -12.6875 C 1.632812 -12.875 1.875 -12.96875 2.1875 -12.96875 C 2.507812 -12.96875 2.753906 -12.875 2.921875 -12.6875 C 3.085938 -12.507812 3.171875 -12.289062 3.171875 -12.03125 C 3.171875 -11.769531 3.085938 -11.550781 2.921875 -11.375 C 2.753906 -11.195312 2.507812 -11.109375 2.1875 -11.109375 C 1.875 -11.109375 1.632812 -11.195312 1.46875 -11.375 C 1.3125 -11.550781 1.234375 -11.769531 1.234375 -12.03125 Z M 1.234375 -12.03125 "/></g></g></g><g fill="#17191a" fill-opacity="1"><g transform="translate(161.877028, 31.199996)"><g><path d="M 2.765625 -1.328125 L 8.328125 -1.328125 L 8.328125 0 L 0.78125 0 L 0.78125 -1.203125 L 6.015625 -8.171875 L 0.859375 -8.171875 L 0.859375 -9.515625 L 8.0625 -9.515625 L 8.0625 -8.359375 Z M 2.765625 -1.328125 "/></g></g></g><g fill="#17191a" fill-opacity="1"><g transform="translate(170.792123, 31.199996)"><g><path d="M 7.109375 -0.9375 C 6.472656 -0.195312 5.539062 0.171875 4.3125 0.171875 C 3.300781 0.171875 2.53125 -0.117188 2 -0.703125 C 1.46875 -1.296875 1.203125 -2.171875 1.203125 -3.328125 L 1.203125 -9.515625 L 2.828125 -9.515625 L 2.828125 -3.359375 C 2.828125 -1.921875 3.410156 -1.203125 4.578125 -1.203125 C 5.816406 -1.203125 6.644531 -1.664062 7.0625 -2.59375 L 7.0625 -9.515625 L 8.6875 -9.515625 L 8.6875 0 L 7.140625 0 Z M 7.109375 -0.9375 "/></g></g></g><g fill="#17191a" fill-opacity="1"><g transform="translate(180.708519, 31.199996)"><g/></g></g><g fill="#17191a" fill-opacity="1"><g transform="translate(185.161678, 31.199996)"><g><path d="M 4.375 -2.203125 L 6.71875 -9.515625 L 8.390625 -9.515625 L 4.96875 0 L 3.734375 0 L 0.296875 -9.515625 L 1.953125 -9.515625 Z M 4.375 -2.203125 "/></g></g></g><g fill="#17191a" fill-opacity="1"><g transform="translate(193.874763, 31.199996)"><g><path d="M 5.828125 -8.046875 C 5.578125 -8.085938 5.3125 -8.109375 5.03125 -8.109375 C 3.957031 -8.109375 3.234375 -7.65625 2.859375 -6.75 L 2.859375 0 L 1.234375 0 L 1.234375 -9.515625 L 2.8125 -9.515625 L 2.84375 -8.40625 C 3.375 -9.257812 4.128906 -9.6875 5.109375 -9.6875 C 5.421875 -9.6875 5.660156 -9.644531 5.828125 -9.5625 Z M 5.828125 -8.046875 "/></g></g></g><g fill="#17191a" fill-opacity="1"><g transform="translate(199.961623, 31.199996)"><g><path d="M 3 0 L 1.375 0 L 1.375 -9.515625 L 3 -9.515625 Z M 1.234375 -12.03125 C 1.234375 -12.289062 1.3125 -12.507812 1.46875 -12.6875 C 1.632812 -12.875 1.875 -12.96875 2.1875 -12.96875 C 2.507812 -12.96875 2.753906 -12.875 2.921875 -12.6875 C 3.085938 -12.507812 3.171875 -12.289062 3.171875 -12.03125 C 3.171875 -11.769531 3.085938 -11.550781 2.921875 -11.375 C 2.753906 -11.195312 2.507812 -11.109375 2.1875 -11.109375 C 1.875 -11.109375 1.632812 -11.195312 1.46875 -11.375 C 1.3125 -11.550781 1.234375 -11.769531 1.234375 -12.03125 Z M 1.234375 -12.03125 "/></g></g></g><g fill="#17191a" fill-opacity="1"><g transform="translate(204.326949, 31.199996)"><g><path d="M 2.90625 -9.515625 L 2.90625 1.09375 C 2.90625 2.925781 2.078125 3.84375 0.421875 3.84375 C 0.0664062 3.84375 -0.265625 3.789062 -0.578125 3.6875 L -0.578125 2.375 C -0.390625 2.425781 -0.140625 2.453125 0.171875 2.453125 C 0.535156 2.453125 0.8125 2.351562 1 2.15625 C 1.1875 1.957031 1.28125 1.617188 1.28125 1.140625 L 1.28125 -9.515625 Z M 1.109375 -12.03125 C 1.109375 -12.289062 1.1875 -12.507812 1.34375 -12.6875 C 1.507812 -12.875 1.75 -12.96875 2.0625 -12.96875 C 2.382812 -12.96875 2.625 -12.875 2.78125 -12.6875 C 2.945312 -12.507812 3.03125 -12.289062 3.03125 -12.03125 C 3.03125 -11.769531 2.945312 -11.550781 2.78125 -11.375 C 2.625 -11.195312 2.382812 -11.109375 2.0625 -11.109375 C 1.75 -11.109375 1.507812 -11.195312 1.34375 -11.375 C 1.1875 -11.550781 1.109375 -11.769531 1.109375 -12.03125 Z M 1.109375 -12.03125 "/></g></g></g><g fill="#17191a" fill-opacity="1"><g transform="translate(208.622007, 31.199996)"><g><path d="M 5.171875 0.171875 C 3.890625 0.171875 2.84375 -0.25 2.03125 -1.09375 C 1.21875 -1.9375 0.8125 -3.066406 0.8125 -4.484375 L 0.8125 -4.796875 C 0.8125 -5.734375 0.992188 -6.570312 1.359375 -7.3125 C 1.722656 -8.050781 2.226562 -8.628906 2.875 -9.046875 C 3.519531 -9.472656 4.21875 -9.6875 4.96875 -9.6875 C 6.207031 -9.6875 7.171875 -9.28125 7.859375 -8.46875 C 8.546875 -7.65625 8.890625 -6.488281 8.890625 -4.96875 L 8.890625 -4.296875 L 2.4375 -4.296875 C 2.46875 -3.359375 2.742188 -2.597656 3.265625 -2.015625 C 3.785156 -1.441406 4.453125 -1.15625 5.265625 -1.15625 C 5.835938 -1.15625 6.320312 -1.269531 6.71875 -1.5 C 7.125 -1.738281 7.472656 -2.050781 7.765625 -2.4375 L 8.765625 -1.65625 C 7.960938 -0.4375 6.765625 0.171875 5.171875 0.171875 Z M 4.96875 -8.34375 C 4.3125 -8.34375 3.757812 -8.101562 3.3125 -7.625 C 2.875 -7.15625 2.601562 -6.488281 2.5 -5.625 L 7.265625 -5.625 L 7.265625 -5.75 C 7.210938 -6.570312 6.988281 -7.207031 6.59375 -7.65625 C 6.195312 -8.113281 5.65625 -8.34375 4.96875 -8.34375 Z M 4.96875 -8.34375 "/></g></g></g><g fill="#17191a" fill-opacity="1"><g transform="translate(218.151937, 31.199996)"><g><path d="M 0.828125 -4.828125 C 0.828125 -6.285156 1.171875 -7.457031 1.859375 -8.34375 C 2.554688 -9.238281 3.46875 -9.6875 4.59375 -9.6875 C 5.707031 -9.6875 6.585938 -9.304688 7.234375 -8.546875 L 7.234375 -13.5 L 8.859375 -13.5 L 8.859375 0 L 7.359375 0 L 7.28125 -1.015625 C 6.632812 -0.222656 5.734375 0.171875 4.578125 0.171875 C 3.472656 0.171875 2.570312 -0.273438 1.875 -1.171875 C 1.175781 -2.078125 0.828125 -3.257812 0.828125 -4.71875 Z M 2.46875 -4.65625 C 2.46875 -3.570312 2.6875 -2.722656 3.125 -2.109375 C 3.570312 -1.503906 4.1875 -1.203125 4.96875 -1.203125 C 6 -1.203125 6.753906 -1.664062 7.234375 -2.59375 L 7.234375 -6.96875 C 6.742188 -7.863281 6 -8.3125 5 -8.3125 C 4.195312 -8.3125 3.570312 -8 3.125 -7.375 C 2.6875 -6.757812 2.46875 -5.851562 2.46875 -4.65625 Z M 2.46875 -4.65625 "/></g></g></g><g fill="#17191a" fill-opacity="1"><g transform="translate(228.296711, 31.199996)"><g><path d="M 3 0 L 1.375 0 L 1.375 -9.515625 L 3 -9.515625 Z M 1.234375 -12.03125 C 1.234375 -12.289062 1.3125 -12.507812 1.46875 -12.6875 C 1.632812 -12.875 1.875 -12.96875 2.1875 -12.96875 C 2.507812 -12.96875 2.753906 -12.875 2.921875 -12.6875 C 3.085938 -12.507812 3.171875 -12.289062 3.171875 -12.03125 C 3.171875 -11.769531 3.085938 -11.550781 2.921875 -11.375 C 2.753906 -11.195312 2.507812 -11.109375 2.1875 -11.109375 C 1.875 -11.109375 1.632812 -11.195312 1.46875 -11.375 C 1.3125 -11.550781 1.234375 -11.769531 1.234375 -12.03125 Z M 1.234375 -12.03125 "/></g></g></g><g fill="#17191a" fill-opacity="1"><g transform="translate(232.652336, 31.199996)"><g/></g></g><g fill="#17191a" fill-opacity="1"><g transform="translate(237.105495, 31.199996)"><g/></g></g><g fill="#17191a" fill-opacity="1"><g transform="translate(241.558654, 31.199996)"><g/></g></g><g fill="#17191a" fill-opacity="1"><g transform="translate(246.011813, 31.199996)"><g/></g></g><g fill="#17191a" fill-opacity="1"><g transform="translate(250.464972, 31.199996)"><g/></g></g><g fill="#17191a" fill-opacity="1"><g transform="translate(254.918131, 31.199996)"><g/></g></g><g fill="#17191a" fill-opacity="1"><g transform="translate(259.37129, 31.199996)"><g/></g></g><g fill="#17191a" fill-opacity="1"><g transform="translate(263.824449, 31.199996)"><g/></g></g><g fill="#17191a" fill-opacity="1"><g transform="translate(268.277608, 31.199996)"><g/></g></g><g fill="#17191a" fill-opacity="1"><g transform="translate(272.730767, 31.199996)"><g/></g></g><g fill="#17191a" fill-opacity="1"><g transform="translate(277.183926, 31.199996)"><g/></g></g><g fill="#17191a" fill-opacity="1"><g transform="translate(281.637085, 31.199996)"><g/></g></g><g fill="#17191a" fill-opacity="1"><g transform="translate(286.090244, 31.199996)"><g/></g></g><g fill="#17191a" fill-opacity="1"><g transform="translate(290.543403, 31.199996)"><g/></g></g><g fill="#17191a" fill-opacity="1"><g transform="translate(294.996562, 31.199996)"><g/></g></g><g fill="#17191a" fill-opacity="1"><g transform="translate(299.449721, 31.199996)"><g/></g></g><g fill="#17191a" fill-opacity="1"><g transform="translate(303.90288, 31.199996)"><g/></g></g><g fill="#17191a" fill-opacity="1"><g transform="translate(308.356039, 31.199996)"><g/></g></g><g fill="#17191a" fill-opacity="1"><g transform="translate(312.809198, 31.199996)"><g/></g></g><g fill="#17191a" fill-opacity="1"><g transform="translate(317.262357, 31.199996)"><g/></g></g><g fill="#17191a" fill-opacity="1"><g transform="translate(321.715516, 31.199996)"><g/></g></g><g fill="#17191a" fill-opacity="1"><g transform="translate(326.168675, 31.199996)"><g/></g></g><g fill="#17191a" fill-opacity="1"><g transform="translate(330.621834, 31.199996)"><g/></g></g><g fill="#17191a" fill-opacity="1"><g transform="translate(335.074993, 31.199996)"><g/></g></g><g fill="#17191a" fill-opacity="1"><g transform="translate(339.528152, 31.199996)"><g/></g></g><g fill="#17191a" fill-opacity="1"><g transform="translate(343.981311, 31.199996)"><g/></g></g><g fill="#17191a" fill-opacity="1"><g transform="translate(348.43447, 31.199996)"><g/></g></g><g fill="#17191a" fill-opacity="1"><g transform="translate(352.887629, 31.199996)"><g/></g></g><g fill="#17191a" fill-opacity="1"><g transform="translate(357.340788, 31.199996)"><g/></g></g><g fill="#17191a" fill-opacity="1"><g transform="translate(361.793947, 31.199996)"><g/></g></g><g fill="#17191a" fill-opacity="1"><g transform="translate(366.246075, 31.199996)"><g><path d="M 1.265625 -0.859375 C 1.265625 -1.140625 1.347656 -1.375 1.515625 -1.5625 C 1.679688 -1.75 1.929688 -1.84375 2.265625 -1.84375 C 2.597656 -1.84375 2.847656 -1.75 3.015625 -1.5625 C 3.191406 -1.375 3.28125 -1.140625 3.28125 -0.859375 C 3.28125 -0.585938 3.191406 -0.359375 3.015625 -0.171875 C 2.847656 0.00390625 2.597656 0.09375 2.265625 0.09375 C 1.929688 0.09375 1.679688 0.00390625 1.515625 -0.171875 C 1.347656 -0.359375 1.265625 -0.585938 1.265625 -0.859375 Z M 1.265625 -0.859375 "/></g></g></g><g fill="#17191a" fill-opacity="1"><g transform="translate(370.968727, 31.199996)"><g/></g></g><g fill="#17191a" fill-opacity="1"><g transform="translate(0.0000075, 55.949994)"><g><path d="M 4.734375 -5.953125 L 3.171875 -4.328125 L 3.171875 0 L 1.484375 0 L 1.484375 -12.796875 L 3.171875 -12.796875 L 3.171875 -6.46875 L 8.859375 -12.796875 L 10.90625 -12.796875 L 5.859375 -7.140625 L 11.296875 0 L 9.265625 0 Z M 4.734375 -5.953125 "/></g></g></g><g fill="#17191a" fill-opacity="1"><g transform="translate(11.277816, 55.949994)"><g><path d="M 0.796875 -4.84375 C 0.796875 -5.769531 0.976562 -6.601562 1.34375 -7.34375 C 1.71875 -8.09375 2.226562 -8.671875 2.875 -9.078125 C 3.53125 -9.484375 4.273438 -9.6875 5.109375 -9.6875 C 6.410156 -9.6875 7.457031 -9.238281 8.25 -8.34375 C 9.050781 -7.445312 9.453125 -6.253906 9.453125 -4.765625 L 9.453125 -4.65625 C 9.453125 -3.726562 9.273438 -2.894531 8.921875 -2.15625 C 8.566406 -1.425781 8.0625 -0.851562 7.40625 -0.4375 C 6.75 -0.03125 5.992188 0.171875 5.140625 0.171875 C 3.847656 0.171875 2.800781 -0.273438 2 -1.171875 C 1.195312 -2.066406 0.796875 -3.253906 0.796875 -4.734375 Z M 2.4375 -4.65625 C 2.4375 -3.59375 2.679688 -2.742188 3.171875 -2.109375 C 3.660156 -1.472656 4.316406 -1.15625 5.140625 -1.15625 C 5.960938 -1.15625 6.613281 -1.476562 7.09375 -2.125 C 7.582031 -2.769531 7.828125 -3.675781 7.828125 -4.84375 C 7.828125 -5.882812 7.578125 -6.726562 7.078125 -7.375 C 6.585938 -8.019531 5.929688 -8.34375 5.109375 -8.34375 C 4.304688 -8.34375 3.660156 -8.023438 3.171875 -7.390625 C 2.679688 -6.753906 2.4375 -5.84375 2.4375 -4.65625 Z M 2.4375 -4.65625 "/></g></g></g><g fill="#17191a" fill-opacity="1"><g transform="translate(21.536757, 55.949994)"><g><path d="M 3 0 L 1.375 0 L 1.375 -13.5 L 3 -13.5 Z M 3 0 "/></g></g></g><g fill="#17191a" fill-opacity="1"><g transform="translate(25.902082, 55.949994)"><g><path d="M 3 0 L 1.375 0 L 1.375 -9.515625 L 3 -9.515625 Z M 1.234375 -12.03125 C 1.234375 -12.289062 1.3125 -12.507812 1.46875 -12.6875 C 1.632812 -12.875 1.875 -12.96875 2.1875 -12.96875 C 2.507812 -12.96875 2.753906 -12.875 2.921875 -12.6875 C 3.085938 -12.507812 3.171875 -12.289062 3.171875 -12.03125 C 3.171875 -11.769531 3.085938 -11.550781 2.921875 -11.375 C 2.753906 -11.195312 2.507812 -11.109375 2.1875 -11.109375 C 1.875 -11.109375 1.632812 -11.195312 1.46875 -11.375 C 1.3125 -11.550781 1.234375 -11.769531 1.234375 -12.03125 Z M 1.234375 -12.03125 "/></g></g></g><g fill="#17191a" fill-opacity="1"><g transform="translate(30.267408, 55.949994)"><g><path d="M 3.890625 -4.40625 L 2.859375 -3.34375 L 2.859375 0 L 1.234375 0 L 1.234375 -13.5 L 2.859375 -13.5 L 2.859375 -5.328125 L 3.734375 -6.375 L 6.703125 -9.515625 L 8.671875 -9.515625 L 4.96875 -5.53125 L 9.109375 0 L 7.203125 0 Z M 3.890625 -4.40625 "/></g></g></g><g fill="#17191a" fill-opacity="1"><g transform="translate(39.384514, 55.949994)"><g><path d="M 0.796875 -4.84375 C 0.796875 -5.769531 0.976562 -6.601562 1.34375 -7.34375 C 1.71875 -8.09375 2.226562 -8.671875 2.875 -9.078125 C 3.53125 -9.484375 4.273438 -9.6875 5.109375 -9.6875 C 6.410156 -9.6875 7.457031 -9.238281 8.25 -8.34375 C 9.050781 -7.445312 9.453125 -6.253906 9.453125 -4.765625 L 9.453125 -4.65625 C 9.453125 -3.726562 9.273438 -2.894531 8.921875 -2.15625 C 8.566406 -1.425781 8.0625 -0.851562 7.40625 -0.4375 C 6.75 -0.03125 5.992188 0.171875 5.140625 0.171875 C 3.847656 0.171875 2.800781 -0.273438 2 -1.171875 C 1.195312 -2.066406 0.796875 -3.253906 0.796875 -4.734375 Z M 2.4375 -4.65625 C 2.4375 -3.59375 2.679688 -2.742188 3.171875 -2.109375 C 3.660156 -1.472656 4.316406 -1.15625 5.140625 -1.15625 C 5.960938 -1.15625 6.613281 -1.476562 7.09375 -2.125 C 7.582031 -2.769531 7.828125 -3.675781 7.828125 -4.84375 C 7.828125 -5.882812 7.578125 -6.726562 7.078125 -7.375 C 6.585938 -8.019531 5.929688 -8.34375 5.109375 -8.34375 C 4.304688 -8.34375 3.660156 -8.023438 3.171875 -7.390625 C 2.679688 -6.753906 2.4375 -5.84375 2.4375 -4.65625 Z M 2.4375 -4.65625 "/></g></g></g><g fill="#17191a" fill-opacity="1"><g transform="translate(49.643455, 55.949994)"><g/></g></g><g fill="#17191a" fill-opacity="1"><g transform="translate(54.096614, 55.949994)"><g><path d="M 3 0 L 1.375 0 L 1.375 -9.515625 L 3 -9.515625 Z M 1.234375 -12.03125 C 1.234375 -12.289062 1.3125 -12.507812 1.46875 -12.6875 C 1.632812 -12.875 1.875 -12.96875 2.1875 -12.96875 C 2.507812 -12.96875 2.753906 -12.875 2.921875 -12.6875 C 3.085938 -12.507812 3.171875 -12.289062 3.171875 -12.03125 C 3.171875 -11.769531 3.085938 -11.550781 2.921875 -11.375 C 2.753906 -11.195312 2.507812 -11.109375 2.1875 -11.109375 C 1.875 -11.109375 1.632812 -11.195312 1.46875 -11.375 C 1.3125 -11.550781 1.234375 -11.769531 1.234375 -12.03125 Z M 1.234375 -12.03125 "/></g></g></g><g fill="#17191a" fill-opacity="1"><g transform="translate(58.46194, 55.949994)"><g><path d="M 2.765625 -1.328125 L 8.328125 -1.328125 L 8.328125 0 L 0.78125 0 L 0.78125 -1.203125 L 6.015625 -8.171875 L 0.859375 -8.171875 L 0.859375 -9.515625 L 8.0625 -9.515625 L 8.0625 -8.359375 Z M 2.765625 -1.328125 "/></g></g></g><g fill="#17191a" fill-opacity="1"><g transform="translate(67.377035, 55.949994)"><g><path d="M 2.765625 -9.515625 L 2.828125 -8.3125 C 3.546875 -9.226562 4.492188 -9.6875 5.671875 -9.6875 C 7.679688 -9.6875 8.691406 -8.550781 8.703125 -6.28125 L 8.703125 0 L 7.078125 0 L 7.078125 -6.296875 C 7.078125 -6.984375 6.921875 -7.488281 6.609375 -7.8125 C 6.304688 -8.144531 5.828125 -8.3125 5.171875 -8.3125 C 4.648438 -8.3125 4.1875 -8.171875 3.78125 -7.890625 C 3.382812 -7.609375 3.078125 -7.238281 2.859375 -6.78125 L 2.859375 0 L 1.234375 0 L 1.234375 -9.515625 Z M 2.765625 -9.515625 "/></g></g></g><g fill="#17191a" fill-opacity="1"><g transform="translate(77.302209, 55.949994)"><g><path d="M 0.796875 -4.84375 C 0.796875 -5.769531 0.976562 -6.601562 1.34375 -7.34375 C 1.71875 -8.09375 2.226562 -8.671875 2.875 -9.078125 C 3.53125 -9.484375 4.273438 -9.6875 5.109375 -9.6875 C 6.410156 -9.6875 7.457031 -9.238281 8.25 -8.34375 C 9.050781 -7.445312 9.453125 -6.253906 9.453125 -4.765625 L 9.453125 -4.65625 C 9.453125 -3.726562 9.273438 -2.894531 8.921875 -2.15625 C 8.566406 -1.425781 8.0625 -0.851562 7.40625 -0.4375 C 6.75 -0.03125 5.992188 0.171875 5.140625 0.171875 C 3.847656 0.171875 2.800781 -0.273438 2 -1.171875 C 1.195312 -2.066406 0.796875 -3.253906 0.796875 -4.734375 Z M 2.4375 -4.65625 C 2.4375 -3.59375 2.679688 -2.742188 3.171875 -2.109375 C 3.660156 -1.472656 4.316406 -1.15625 5.140625 -1.15625 C 5.960938 -1.15625 6.613281 -1.476562 7.09375 -2.125 C 7.582031 -2.769531 7.828125 -3.675781 7.828125 -4.84375 C 7.828125 -5.882812 7.578125 -6.726562 7.078125 -7.375 C 6.585938 -8.019531 5.929688 -8.34375 5.109375 -8.34375 C 4.304688 -8.34375 3.660156 -8.023438 3.171875 -7.390625 C 2.679688 -6.753906 2.4375 -5.84375 2.4375 -4.65625 Z M 2.4375 -4.65625 "/></g></g></g><g fill="#17191a" fill-opacity="1"><g transform="translate(87.56115, 55.949994)"><g><path d="M 6.765625 -2.515625 C 6.765625 -2.960938 6.597656 -3.304688 6.265625 -3.546875 C 5.941406 -3.785156 5.367188 -3.992188 4.546875 -4.171875 C 3.722656 -4.347656 3.066406 -4.554688 2.578125 -4.796875 C 2.097656 -5.046875 1.738281 -5.34375 1.5 -5.6875 C 1.269531 -6.03125 1.15625 -6.4375 1.15625 -6.90625 C 1.15625 -7.675781 1.484375 -8.332031 2.140625 -8.875 C 2.804688 -9.414062 3.648438 -9.6875 4.671875 -9.6875 C 5.753906 -9.6875 6.628906 -9.40625 7.296875 -8.84375 C 7.972656 -8.289062 8.3125 -7.582031 8.3125 -6.71875 L 6.671875 -6.71875 C 6.671875 -7.164062 6.476562 -7.546875 6.09375 -7.859375 C 5.71875 -8.179688 5.242188 -8.34375 4.671875 -8.34375 C 4.078125 -8.34375 3.613281 -8.210938 3.28125 -7.953125 C 2.945312 -7.703125 2.78125 -7.367188 2.78125 -6.953125 C 2.78125 -6.554688 2.9375 -6.257812 3.25 -6.0625 C 3.5625 -5.863281 4.125 -5.671875 4.9375 -5.484375 C 5.75 -5.304688 6.40625 -5.09375 6.90625 -4.84375 C 7.414062 -4.59375 7.789062 -4.289062 8.03125 -3.9375 C 8.269531 -3.582031 8.390625 -3.148438 8.390625 -2.640625 C 8.390625 -1.785156 8.050781 -1.101562 7.375 -0.59375 C 6.695312 -0.0820312 5.816406 0.171875 4.734375 0.171875 C 3.972656 0.171875 3.296875 0.0351562 2.703125 -0.234375 C 2.117188 -0.503906 1.660156 -0.878906 1.328125 -1.359375 C 0.992188 -1.835938 0.828125 -2.359375 0.828125 -2.921875 L 2.46875 -2.921875 C 2.488281 -2.378906 2.703125 -1.945312 3.109375 -1.625 C 3.523438 -1.3125 4.066406 -1.15625 4.734375 -1.15625 C 5.347656 -1.15625 5.835938 -1.28125 6.203125 -1.53125 C 6.578125 -1.78125 6.765625 -2.109375 6.765625 -2.515625 Z M 6.765625 -2.515625 "/></g></g></g><g fill="#17191a" fill-opacity="1"><g transform="translate(96.836357, 55.949994)"><g><path d="M 3 0 L 1.375 0 L 1.375 -9.515625 L 3 -9.515625 Z M 1.234375 -12.03125 C 1.234375 -12.289062 1.3125 -12.507812 1.46875 -12.6875 C 1.632812 -12.875 1.875 -12.96875 2.1875 -12.96875 C 2.507812 -12.96875 2.753906 -12.875 2.921875 -12.6875 C 3.085938 -12.507812 3.171875 -12.289062 3.171875 -12.03125 C 3.171875 -11.769531 3.085938 -11.550781 2.921875 -11.375 C 2.753906 -11.195312 2.507812 -11.109375 2.1875 -11.109375 C 1.875 -11.109375 1.632812 -11.195312 1.46875 -11.375 C 1.3125 -11.550781 1.234375 -11.769531 1.234375 -12.03125 Z M 1.234375 -12.03125 "/></g></g></g><g fill="#17191a" fill-opacity="1"><g transform="translate(101.191405, 55.949994)"><g/></g></g><g fill="#17191a" fill-opacity="1"><g transform="translate(105.644564, 55.949994)"><g/></g></g><g fill="#17191a" fill-opacity="1"><g transform="translate(110.097723, 55.949994)"><g/></g></g><g fill="#17191a" fill-opacity="1"><g transform="translate(114.550882, 55.949994)"><g/></g></g><g fill="#17191a" fill-opacity="1"><g transform="translate(119.004041, 55.949994)"><g/></g></g><g fill="#17191a" fill-opacity="1"><g transform="translate(123.4572, 55.949994)"><g/></g></g><g fill="#17191a" fill-opacity="1"><g transform="translate(127.910359, 55.949994)"><g/></g></g><g fill="#17191a" fill-opacity="1"><g transform="translate(132.363518, 55.949994)"><g/></g></g><g fill="#17191a" fill-opacity="1"><g transform="translate(136.816677, 55.949994)"><g/></g></g><g fill="#17191a" fill-opacity="1"><g transform="translate(141.269836, 55.949994)"><g/></g></g><g fill="#17191a" fill-opacity="1"><g transform="translate(145.722995, 55.949994)"><g/></g></g><g fill="#17191a" fill-opacity="1"><g transform="translate(150.17578, 55.949994)"><g><path d="M 3.140625 -3.609375 C 3.148438 -4.304688 3.226562 -4.851562 3.375 -5.25 C 3.519531 -5.65625 3.816406 -6.101562 4.265625 -6.59375 L 5.421875 -7.78125 C 5.910156 -8.34375 6.15625 -8.941406 6.15625 -9.578125 C 6.15625 -10.191406 5.992188 -10.671875 5.671875 -11.015625 C 5.347656 -11.367188 4.878906 -11.546875 4.265625 -11.546875 C 3.671875 -11.546875 3.191406 -11.382812 2.828125 -11.0625 C 2.460938 -10.75 2.28125 -10.328125 2.28125 -9.796875 L 0.65625 -9.796875 C 0.664062 -10.742188 1.003906 -11.507812 1.671875 -12.09375 C 2.335938 -12.675781 3.203125 -12.96875 4.265625 -12.96875 C 5.378906 -12.96875 6.242188 -12.671875 6.859375 -12.078125 C 7.472656 -11.484375 7.78125 -10.671875 7.78125 -9.640625 C 7.78125 -8.609375 7.304688 -7.59375 6.359375 -6.59375 L 5.40625 -5.65625 C 4.976562 -5.175781 4.765625 -4.492188 4.765625 -3.609375 Z M 3.0625 -0.8125 C 3.0625 -1.082031 3.140625 -1.304688 3.296875 -1.484375 C 3.460938 -1.660156 3.703125 -1.75 4.015625 -1.75 C 4.335938 -1.75 4.582031 -1.660156 4.75 -1.484375 C 4.914062 -1.304688 5 -1.082031 5 -0.8125 C 5 -0.550781 4.914062 -0.332031 4.75 -0.15625 C 4.582031 0.0078125 4.335938 0.09375 4.015625 0.09375 C 3.703125 0.09375 3.460938 0.0078125 3.296875 -0.15625 C 3.140625 -0.332031 3.0625 -0.550781 3.0625 -0.8125 Z M 3.0625 -0.8125 "/></g></g></g><g clip-path="url(#fd134bb3e1)"><path fill="#17191a" d="M 241.417969 29.121094 C 241.328125 29.421875 241.328125 29.457031 241.078125 29.796875 C 240.6875 30.292969 239.902344 31.058594 239.066406 31.058594 C 238.335938 31.058594 237.929688 30.402344 237.929688 29.351562 C 237.929688 28.375 238.480469 26.382812 238.816406 25.636719 C 239.421875 24.390625 240.261719 23.75 240.953125 23.75 C 242.128906 23.75 242.359375 25.210938 242.359375 25.351562 C 242.359375 25.371094 242.304688 25.601562 242.289062 25.636719 Z M 242.554688 24.570312 C 242.359375 24.105469 241.878906 23.394531 240.953125 23.394531 C 238.941406 23.394531 236.769531 25.992188 236.769531 28.621094 C 236.769531 30.382812 237.804688 31.414062 239.015625 31.414062 C 239.992188 31.414062 240.828125 30.648438 241.328125 30.0625 C 241.503906 31.113281 242.34375 31.414062 242.875 31.414062 C 243.410156 31.414062 243.835938 31.09375 244.15625 30.453125 C 244.441406 29.847656 244.691406 28.765625 244.691406 28.695312 C 244.691406 28.605469 244.621094 28.535156 244.511719 28.535156 C 244.351562 28.535156 244.335938 28.621094 244.265625 28.890625 C 243.996094 29.9375 243.660156 31.058594 242.929688 31.058594 C 242.414062 31.058594 242.378906 30.597656 242.378906 30.242188 C 242.378906 29.832031 242.429688 29.636719 242.589844 28.941406 C 242.714844 28.5 242.804688 28.105469 242.949219 27.59375 C 243.605469 24.925781 243.765625 24.285156 243.765625 24.179688 C 243.765625 23.929688 243.570312 23.734375 243.304688 23.734375 C 242.734375 23.734375 242.589844 24.355469 242.554688 24.570312 Z M 242.554688 24.570312 " fill-opacity="1" fill-rule="nonzero"/></g><g clip-path="url(#9130b6caef)"><path fill="#17191a" d="M 246.867188 27.242188 C 247.023438 27.289062 247.496094 27.410156 247.996094 27.410156 C 249.480469 27.410156 250.382812 26.367188 250.382812 26.1875 C 250.382812 26.058594 250.296875 26.023438 250.238281 26.023438 C 250.214844 26.023438 250.191406 26.023438 250.085938 26.082031 C 249.621094 26.257812 249.074219 26.402344 248.433594 26.402344 C 247.734375 26.402344 247.152344 26.222656 246.785156 26.082031 C 246.667969 26.023438 246.644531 26.023438 246.632812 26.023438 C 246.476562 26.023438 246.476562 26.152344 246.476562 26.367188 L 246.476562 29.839844 C 246.476562 30.050781 246.476562 30.195312 246.667969 30.195312 C 246.761719 30.195312 246.796875 30.148438 246.855469 30.050781 C 247 29.875 247.449219 29.269531 248.460938 29.269531 C 249.125 29.269531 249.445312 29.816406 249.550781 30.039062 C 249.753906 30.46875 249.777344 31.011719 249.777344 31.472656 C 249.777344 31.914062 249.765625 32.554688 249.433594 33.074219 C 249.207031 33.429688 248.730469 33.796875 248.101562 33.796875 C 247.332031 33.796875 246.574219 33.3125 246.300781 32.539062 C 246.335938 32.554688 246.40625 32.554688 246.417969 32.554688 C 246.75 32.554688 247.011719 32.339844 247.011719 31.972656 C 247.011719 31.535156 246.667969 31.378906 246.429688 31.378906 C 246.214844 31.378906 245.835938 31.5 245.835938 32.007812 C 245.835938 33.074219 246.761719 34.152344 248.125 34.152344 C 249.609375 34.152344 250.867188 33.003906 250.867188 31.535156 C 250.867188 30.160156 249.871094 28.9375 248.472656 28.9375 C 247.878906 28.9375 247.320312 29.128906 246.867188 29.53125 Z M 246.867188 27.242188 " fill-opacity="1" fill-rule="nonzero"/></g><path fill="#17191a" d="M 269.210938 25.476562 C 269.460938 25.476562 269.78125 25.476562 269.78125 25.15625 C 269.78125 24.820312 269.476562 24.820312 269.210938 24.820312 L 258.726562 24.820312 C 258.476562 24.820312 258.15625 24.820312 258.15625 25.136719 C 258.15625 25.476562 258.460938 25.476562 258.726562 25.476562 Z M 269.210938 28.78125 C 269.460938 28.78125 269.78125 28.78125 269.78125 28.464844 C 269.78125 28.125 269.476562 28.125 269.210938 28.125 L 258.726562 28.125 C 258.476562 28.125 258.15625 28.125 258.15625 28.445312 C 258.15625 28.78125 258.460938 28.78125 258.726562 28.78125 Z M 269.210938 28.78125 " fill-opacity="1" fill-rule="nonzero"/><g clip-path="url(#fd253db426)"><path fill="#17191a" d="M 283.527344 28.25 L 283.136719 28.25 C 283.082031 28.550781 282.941406 29.53125 282.761719 29.8125 C 282.636719 29.972656 281.625 29.972656 281.089844 29.972656 L 277.796875 29.972656 C 278.277344 29.566406 279.363281 28.425781 279.824219 28 C 282.53125 25.511719 283.527344 24.585938 283.527344 22.828125 C 283.527344 20.78125 281.910156 19.414062 279.84375 19.414062 C 277.777344 19.414062 276.570312 21.175781 276.570312 22.703125 C 276.570312 23.609375 277.351562 23.609375 277.40625 23.609375 C 277.777344 23.609375 278.242188 23.34375 278.242188 22.773438 C 278.242188 22.277344 277.902344 21.9375 277.40625 21.9375 C 277.246094 21.9375 277.210938 21.9375 277.15625 21.957031 C 277.496094 20.746094 278.457031 19.929688 279.613281 19.929688 C 281.125 19.929688 282.050781 21.191406 282.050781 22.828125 C 282.050781 24.339844 281.179688 25.652344 280.164062 26.792969 L 276.570312 30.808594 L 276.570312 31.234375 L 283.066406 31.234375 Z M 283.527344 28.25 " fill-opacity="1" fill-rule="nonzero"/></g><g clip-path="url(#1bd0cabe01)"><path fill="#17191a" d="M 292.382812 25.546875 C 292.382812 24.070312 292.296875 22.632812 291.65625 21.28125 C 290.925781 19.804688 289.644531 19.414062 288.769531 19.414062 C 287.738281 19.414062 286.476562 19.929688 285.816406 21.40625 C 285.316406 22.523438 285.140625 23.628906 285.140625 25.546875 C 285.140625 27.273438 285.265625 28.570312 285.90625 29.832031 C 286.597656 31.183594 287.828125 31.609375 288.753906 31.609375 C 290.300781 31.609375 291.191406 30.683594 291.707031 29.652344 C 292.347656 28.320312 292.382812 26.578125 292.382812 25.546875 Z M 288.753906 31.253906 C 288.183594 31.253906 287.027344 30.933594 286.6875 28.996094 C 286.492188 27.929688 286.492188 26.578125 286.492188 25.335938 C 286.492188 23.875 286.492188 22.5625 286.777344 21.511719 C 287.082031 20.320312 287.988281 19.769531 288.753906 19.769531 C 289.429688 19.769531 290.460938 20.179688 290.800781 21.707031 C 291.03125 22.722656 291.03125 24.125 291.03125 25.335938 C 291.03125 26.523438 291.03125 27.875 290.835938 28.960938 C 290.496094 30.917969 289.375 31.253906 288.753906 31.253906 Z M 288.753906 31.253906 " fill-opacity="1" fill-rule="nonzero"/></g><g clip-path="url(#140e6c94cc)"><path fill="#17191a" d="M 296.59375 31.308594 C 296.59375 30.277344 296.257812 29.511719 295.527344 29.511719 C 294.957031 29.511719 294.671875 29.972656 294.671875 30.363281 C 294.671875 30.757812 294.941406 31.234375 295.542969 31.234375 C 295.777344 31.234375 295.972656 31.164062 296.132812 31.003906 C 296.167969 30.96875 296.183594 30.96875 296.203125 30.96875 C 296.238281 30.96875 296.238281 31.21875 296.238281 31.308594 C 296.238281 31.894531 296.132812 33.050781 295.101562 34.207031 C 294.902344 34.417969 294.902344 34.453125 294.902344 34.488281 C 294.902344 34.578125 294.992188 34.667969 295.082031 34.667969 C 295.222656 34.667969 296.59375 33.351562 296.59375 31.308594 Z M 296.59375 31.308594 " fill-opacity="1" fill-rule="nonzero"/></g><path fill="#17191a" d="M 306.289062 29.121094 C 306.199219 29.421875 306.199219 29.457031 305.949219 29.796875 C 305.558594 30.292969 304.777344 31.058594 303.9375 31.058594 C 303.210938 31.058594 302.800781 30.402344 302.800781 29.351562 C 302.800781 28.375 303.351562 26.382812 303.691406 25.636719 C 304.296875 24.390625 305.132812 23.75 305.824219 23.75 C 307 23.75 307.230469 25.210938 307.230469 25.351562 C 307.230469 25.371094 307.179688 25.601562 307.160156 25.636719 Z M 307.429688 24.570312 C 307.230469 24.105469 306.75 23.394531 305.824219 23.394531 C 303.816406 23.394531 301.644531 25.992188 301.644531 28.621094 C 301.644531 30.382812 302.675781 31.414062 303.886719 31.414062 C 304.863281 31.414062 305.703125 30.648438 306.199219 30.0625 C 306.378906 31.113281 307.214844 31.414062 307.75 31.414062 C 308.28125 31.414062 308.710938 31.09375 309.03125 30.453125 C 309.316406 29.847656 309.5625 28.765625 309.5625 28.695312 C 309.5625 28.605469 309.492188 28.535156 309.386719 28.535156 C 309.226562 28.535156 309.207031 28.621094 309.136719 28.890625 C 308.871094 29.9375 308.53125 31.058594 307.800781 31.058594 C 307.285156 31.058594 307.25 30.597656 307.25 30.242188 C 307.25 29.832031 307.304688 29.636719 307.464844 28.941406 C 307.589844 28.5 307.675781 28.105469 307.820312 27.59375 C 308.476562 24.925781 308.636719 24.285156 308.636719 24.179688 C 308.636719 23.929688 308.441406 23.734375 308.175781 23.734375 C 307.605469 23.734375 307.464844 24.355469 307.429688 24.570312 Z M 307.429688 24.570312 " fill-opacity="1" fill-rule="nonzero"/><path fill="#17191a" d="M 313.804688 26.355469 C 313.804688 26.035156 313.78125 26.023438 313.460938 26.023438 C 312.976562 26.496094 312.347656 26.78125 311.21875 26.78125 L 311.21875 27.171875 C 311.539062 27.171875 312.179688 27.171875 312.867188 26.851562 L 312.867188 32.933594 C 312.867188 33.371094 312.832031 33.511719 311.707031 33.511719 L 311.289062 33.511719 L 311.289062 33.902344 C 311.777344 33.867188 312.796875 33.867188 313.332031 33.867188 C 313.863281 33.867188 314.898438 33.867188 315.382812 33.902344 L 315.382812 33.511719 L 314.96875 33.511719 C 313.839844 33.511719 313.804688 33.371094 313.804688 32.933594 Z M 313.804688 26.355469 " fill-opacity="1" fill-rule="nonzero"/><path fill="#17191a" d="M 319.730469 31.484375 C 319.917969 31.308594 320.417969 30.917969 320.609375 30.75 C 321.34375 30.074219 322.042969 29.425781 322.042969 28.34375 C 322.042969 26.933594 320.855469 26.023438 319.375 26.023438 C 317.949219 26.023438 317.011719 27.101562 317.011719 28.15625 C 317.011719 28.738281 317.476562 28.820312 317.640625 28.820312 C 317.890625 28.820312 318.257812 28.640625 318.257812 28.191406 C 318.257812 27.574219 317.664062 27.574219 317.523438 27.574219 C 317.867188 26.710938 318.660156 26.414062 319.242188 26.414062 C 320.347656 26.414062 320.917969 27.351562 320.917969 28.34375 C 320.917969 29.578125 320.050781 30.480469 318.648438 31.914062 L 317.15625 33.453125 C 317.011719 33.582031 317.011719 33.609375 317.011719 33.902344 L 321.699219 33.902344 L 322.042969 31.78125 L 321.675781 31.78125 C 321.640625 32.019531 321.546875 32.613281 321.402344 32.835938 C 321.332031 32.933594 320.429688 32.933594 320.238281 32.933594 L 318.128906 32.933594 Z M 319.730469 31.484375 " fill-opacity="1" fill-rule="nonzero"/><path fill="#17191a" d="M 340.386719 25.476562 C 340.636719 25.476562 340.957031 25.476562 340.957031 25.15625 C 340.957031 24.820312 340.652344 24.820312 340.386719 24.820312 L 329.902344 24.820312 C 329.652344 24.820312 329.332031 24.820312 329.332031 25.136719 C 329.332031 25.476562 329.636719 25.476562 329.902344 25.476562 Z M 340.386719 28.78125 C 340.636719 28.78125 340.957031 28.78125 340.957031 28.464844 C 340.957031 28.125 340.652344 28.125 340.386719 28.125 L 329.902344 28.125 C 329.652344 28.125 329.332031 28.125 329.332031 28.445312 C 329.332031 28.78125 329.636719 28.78125 329.902344 28.78125 Z M 340.386719 28.78125 " fill-opacity="1" fill-rule="nonzero"/><g clip-path="url(#261bd93e8c)"><path fill="#17191a" d="M 353.296875 19.664062 C 353.296875 19.324219 353.296875 19.238281 353.046875 19.238281 C 352.90625 19.238281 352.851562 19.238281 352.710938 19.449219 L 347.351562 27.75 L 347.351562 28.265625 L 352.035156 28.265625 L 352.035156 29.886719 C 352.035156 30.542969 351.996094 30.71875 350.699219 30.71875 L 350.34375 30.71875 L 350.34375 31.234375 C 350.753906 31.199219 352.160156 31.199219 352.65625 31.199219 C 353.15625 31.199219 354.578125 31.199219 354.988281 31.234375 L 354.988281 30.71875 L 354.632812 30.71875 C 353.351562 30.71875 353.296875 30.542969 353.296875 29.886719 L 353.296875 28.265625 L 355.09375 28.265625 L 355.09375 27.75 L 353.296875 27.75 Z M 352.121094 21.050781 L 352.121094 27.75 L 347.796875 27.75 Z M 352.121094 21.050781 " fill-opacity="1" fill-rule="nonzero"/></g><g clip-path="url(#e32901b600)"><path fill="#17191a" d="M 360.890625 24.820312 C 361.78125 24.339844 363.078125 23.519531 363.078125 22.027344 C 363.078125 20.480469 361.582031 19.414062 359.945312 19.414062 C 358.183594 19.414062 356.796875 20.710938 356.796875 22.328125 C 356.796875 22.933594 356.972656 23.539062 357.472656 24.144531 C 357.667969 24.375 357.6875 24.390625 358.933594 25.261719 C 357.207031 26.0625 356.316406 27.253906 356.316406 28.550781 C 356.316406 30.4375 358.113281 31.609375 359.929688 31.609375 C 361.90625 31.609375 363.558594 30.152344 363.558594 28.285156 C 363.558594 26.472656 362.277344 25.671875 360.890625 24.820312 Z M 358.46875 23.21875 C 358.238281 23.058594 357.527344 22.597656 357.527344 21.726562 C 357.527344 20.570312 358.734375 19.839844 359.929688 19.839844 C 361.210938 19.839844 362.347656 20.765625 362.347656 22.046875 C 362.347656 23.128906 361.566406 24 360.535156 24.570312 Z M 359.304688 25.511719 L 361.460938 26.917969 C 361.921875 27.21875 362.742188 27.769531 362.742188 28.855469 C 362.742188 30.207031 361.371094 31.128906 359.945312 31.128906 C 358.433594 31.128906 357.132812 30.027344 357.132812 28.550781 C 357.132812 27.164062 358.148438 26.046875 359.304688 25.511719 Z M 359.304688 25.511719 " fill-opacity="1" fill-rule="nonzero"/></g><path fill="#17191a" d="M 116.445312 51.976562 C 116.292969 52.503906 116.292969 52.566406 115.859375 53.15625 C 115.175781 54.023438 113.8125 55.355469 112.355469 55.355469 C 111.085938 55.355469 110.375 54.210938 110.375 52.378906 C 110.375 50.675781 111.335938 47.203125 111.921875 45.902344 C 112.976562 43.734375 114.433594 42.617188 115.640625 42.617188 C 117.6875 42.617188 118.089844 45.160156 118.089844 45.40625 C 118.089844 45.4375 117.996094 45.839844 117.964844 45.902344 Z M 118.429688 44.042969 C 118.089844 43.238281 117.253906 42 115.640625 42 C 112.140625 42 108.359375 46.523438 108.359375 51.109375 C 108.359375 54.179688 110.15625 55.976562 112.265625 55.976562 C 113.96875 55.976562 115.425781 54.644531 116.292969 53.621094 C 116.601562 55.449219 118.058594 55.976562 118.988281 55.976562 C 119.917969 55.976562 120.660156 55.417969 121.21875 54.300781 C 121.714844 53.25 122.148438 51.359375 122.148438 51.234375 C 122.148438 51.078125 122.023438 50.957031 121.835938 50.957031 C 121.558594 50.957031 121.527344 51.109375 121.402344 51.574219 C 120.9375 53.402344 120.351562 55.355469 119.078125 55.355469 C 118.179688 55.355469 118.121094 54.550781 118.121094 53.929688 C 118.121094 53.21875 118.210938 52.875 118.492188 51.667969 C 118.707031 50.894531 118.863281 50.210938 119.109375 49.3125 C 120.257812 44.664062 120.535156 43.546875 120.535156 43.363281 C 120.535156 42.929688 120.195312 42.585938 119.730469 42.585938 C 118.738281 42.585938 118.492188 43.671875 118.429688 44.042969 Z M 118.429688 44.042969 " fill-opacity="1" fill-rule="nonzero"/><g clip-path="url(#032125fc03)"><path fill="#17191a" d="M 128.871094 56.101562 C 129.199219 55.792969 130.070312 55.109375 130.398438 54.820312 C 131.679688 53.644531 132.898438 52.507812 132.898438 50.625 C 132.898438 48.167969 130.832031 46.578125 128.25 46.578125 C 125.773438 46.578125 124.140625 48.457031 124.140625 50.296875 C 124.140625 51.308594 124.945312 51.453125 125.234375 51.453125 C 125.667969 51.453125 126.308594 51.144531 126.308594 50.359375 C 126.308594 49.285156 125.277344 49.285156 125.027344 49.285156 C 125.628906 47.773438 127.011719 47.257812 128.023438 47.257812 C 129.945312 47.257812 130.9375 48.890625 130.9375 50.625 C 130.9375 52.773438 129.429688 54.34375 126.992188 56.84375 L 124.386719 59.53125 C 124.140625 59.757812 124.140625 59.800781 124.140625 60.316406 L 132.300781 60.316406 L 132.898438 56.617188 L 132.257812 56.617188 C 132.195312 57.03125 132.03125 58.066406 131.78125 58.457031 C 131.660156 58.621094 130.089844 58.621094 129.757812 58.621094 L 126.082031 58.621094 Z M 128.871094 56.101562 " fill-opacity="1" fill-rule="nonzero"/></g><g clip-path="url(#d420754314)"><path fill="#17191a" d="M 139.246094 53.414062 C 140.875 53.414062 141.910156 54.613281 141.910156 56.785156 C 141.910156 59.367188 140.441406 60.128906 139.347656 60.128906 C 138.210938 60.128906 136.664062 59.71875 135.941406 58.621094 C 136.683594 58.621094 137.199219 58.148438 137.199219 57.464844 C 137.199219 56.804688 136.722656 56.328125 136.0625 56.328125 C 135.503906 56.328125 134.925781 56.679688 134.925781 57.507812 C 134.925781 59.46875 137.035156 60.75 139.390625 60.75 C 142.136719 60.75 144.058594 58.851562 144.058594 56.785156 C 144.058594 55.070312 142.695312 53.5 140.585938 53.042969 C 142.21875 52.464844 143.4375 51.058594 143.4375 49.40625 C 143.4375 47.753906 141.578125 46.578125 139.429688 46.578125 C 137.21875 46.578125 135.546875 47.773438 135.546875 49.34375 C 135.546875 50.109375 136.0625 50.441406 136.601562 50.441406 C 137.242188 50.441406 137.652344 49.984375 137.652344 49.386719 C 137.652344 48.621094 136.992188 48.332031 136.539062 48.3125 C 137.40625 47.175781 138.996094 47.113281 139.367188 47.113281 C 139.90625 47.113281 141.476562 47.277344 141.476562 49.40625 C 141.476562 50.855469 140.875 51.722656 140.585938 52.050781 C 139.96875 52.691406 139.492188 52.734375 138.230469 52.816406 C 137.839844 52.835938 137.675781 52.859375 137.675781 53.125 C 137.675781 53.414062 137.859375 53.414062 138.210938 53.414062 Z M 139.246094 53.414062 " fill-opacity="1" fill-rule="nonzero"/></g></svg>