<svg xmlns="http://www.w3.org/2000/svg" xmlns:xlink="http://www.w3.org/1999/xlink" width="500" zoomAndPan="magnify" viewBox="0 0 375 74.999997" height="100" preserveAspectRatio="xMidYMid meet" version="1.0"><defs><clipPath id="17fccf33f1"><path d="M 159 36 L 170 36 L 170 51.140625 L 159 51.140625 Z M 159 36 " clip-rule="nonzero"/></clipPath><clipPath id="cb42d4a91e"><path d="M 215 24.140625 L 229 24.140625 L 229 47 L 215 47 Z M 215 24.140625 " clip-rule="nonzero"/></clipPath><clipPath id="b2df8489d7"><path d="M 231 24.140625 L 244 24.140625 L 244 46 L 231 46 Z M 231 24.140625 " clip-rule="nonzero"/></clipPath></defs><path fill="#a8180f" d="M 140.628906 41.921875 C 140.46875 42.476562 140.46875 42.542969 140.015625 43.160156 C 139.308594 44.074219 137.894531 45.472656 136.382812 45.472656 C 135.0625 45.472656 134.320312 44.269531 134.320312 42.347656 C 134.320312 40.554688 135.320312 36.90625 135.929688 35.539062 C 137.023438 33.261719 138.539062 32.085938 139.792969 32.085938 C 141.914062 32.085938 142.335938 34.757812 142.335938 35.019531 C 142.335938 35.050781 142.238281 35.472656 142.207031 35.539062 Z M 142.6875 33.585938 C 142.335938 32.738281 141.464844 31.4375 139.792969 31.4375 C 136.15625 31.4375 132.230469 36.191406 132.230469 41.011719 C 132.230469 44.234375 134.097656 46.125 136.285156 46.125 C 138.054688 46.125 139.566406 44.722656 140.46875 43.648438 C 140.789062 45.570312 142.300781 46.125 143.265625 46.125 C 144.234375 46.125 145.003906 45.539062 145.582031 44.367188 C 146.097656 43.257812 146.550781 41.273438 146.550781 41.140625 C 146.550781 40.980469 146.421875 40.847656 146.226562 40.847656 C 145.9375 40.847656 145.90625 41.011719 145.777344 41.5 C 145.292969 43.421875 144.683594 45.472656 143.363281 45.472656 C 142.429688 45.472656 142.367188 44.625 142.367188 43.976562 C 142.367188 43.226562 142.460938 42.867188 142.753906 41.597656 C 142.976562 40.785156 143.136719 40.066406 143.394531 39.121094 C 144.585938 34.238281 144.875 33.0625 144.875 32.867188 C 144.875 32.414062 144.523438 32.054688 144.039062 32.054688 C 143.011719 32.054688 142.753906 33.195312 142.6875 33.585938 Z M 142.6875 33.585938 " fill-opacity="1" fill-rule="nonzero"/><path fill="#a8180f" d="M 153.53125 46.257812 C 153.875 45.929688 154.777344 45.214844 155.121094 44.910156 C 156.449219 43.671875 157.714844 42.480469 157.714844 40.503906 C 157.714844 37.917969 155.570312 36.246094 152.886719 36.246094 C 150.3125 36.246094 148.621094 38.222656 148.621094 40.15625 C 148.621094 41.21875 149.457031 41.371094 149.757812 41.371094 C 150.207031 41.371094 150.871094 41.046875 150.871094 40.222656 C 150.871094 39.09375 149.800781 39.09375 149.542969 39.09375 C 150.164062 37.507812 151.601562 36.964844 152.652344 36.964844 C 154.648438 36.964844 155.675781 38.679688 155.675781 40.503906 C 155.675781 42.761719 154.109375 44.410156 151.578125 47.039062 L 148.875 49.863281 C 148.621094 50.101562 148.621094 50.144531 148.621094 50.6875 L 157.09375 50.6875 L 157.714844 46.800781 L 157.050781 46.800781 C 156.984375 47.234375 156.8125 48.320312 156.554688 48.734375 C 156.425781 48.90625 154.796875 48.90625 154.453125 48.90625 L 150.636719 48.90625 Z M 153.53125 46.257812 " fill-opacity="1" fill-rule="nonzero"/><g clip-path="url(#17fccf33f1)"><path fill="#a8180f" d="M 164.304688 43.433594 C 166 43.433594 167.074219 44.695312 167.074219 46.972656 C 167.074219 49.6875 165.550781 50.492188 164.414062 50.492188 C 163.234375 50.492188 161.625 50.058594 160.875 48.90625 C 161.644531 48.90625 162.183594 48.40625 162.183594 47.691406 C 162.183594 46.996094 161.6875 46.496094 161 46.496094 C 160.421875 46.496094 159.820312 46.863281 159.820312 47.734375 C 159.820312 49.796875 162.011719 51.144531 164.457031 51.144531 C 167.308594 51.144531 169.304688 49.144531 169.304688 46.972656 C 169.304688 45.171875 167.886719 43.519531 165.699219 43.042969 C 167.394531 42.4375 168.660156 40.960938 168.660156 39.222656 C 168.660156 37.484375 166.730469 36.246094 164.5 36.246094 C 162.203125 36.246094 160.464844 37.507812 160.464844 39.15625 C 160.464844 39.960938 161 40.308594 161.558594 40.308594 C 162.222656 40.308594 162.652344 39.832031 162.652344 39.199219 C 162.652344 38.398438 161.96875 38.09375 161.496094 38.070312 C 162.394531 36.878906 164.046875 36.8125 164.433594 36.8125 C 164.992188 36.8125 166.621094 36.984375 166.621094 39.222656 C 166.621094 40.742188 166 41.652344 165.699219 42 C 165.054688 42.675781 164.5625 42.71875 163.253906 42.804688 C 162.847656 42.828125 162.675781 42.847656 162.675781 43.128906 C 162.675781 43.433594 162.867188 43.433594 163.234375 43.433594 Z M 164.304688 43.433594 " fill-opacity="1" fill-rule="nonzero"/></g><path fill="#a8180f" d="M 202.273438 35.246094 C 202.726562 35.246094 203.304688 35.246094 203.304688 34.660156 C 203.304688 34.042969 202.757812 34.042969 202.273438 34.042969 L 183.324219 34.042969 C 182.871094 34.042969 182.292969 34.042969 182.292969 34.628906 C 182.292969 35.246094 182.839844 35.246094 183.324219 35.246094 Z M 202.273438 41.304688 C 202.726562 41.304688 203.304688 41.304688 203.304688 40.71875 C 203.304688 40.097656 202.757812 40.097656 202.273438 40.097656 L 183.324219 40.097656 C 182.871094 40.097656 182.292969 40.097656 182.292969 40.6875 C 182.292969 41.304688 182.839844 41.304688 183.324219 41.304688 Z M 202.273438 41.304688 " fill-opacity="1" fill-rule="nonzero"/><g clip-path="url(#cb42d4a91e)"><path fill="#a8180f" d="M 225.773438 36.320312 C 225.773438 44.007812 222.394531 45.605469 220.464844 45.605469 C 219.691406 45.605469 217.988281 45.507812 217.183594 44.367188 L 217.375 44.367188 C 217.601562 44.429688 218.757812 44.234375 218.757812 43.03125 C 218.757812 42.3125 218.277344 41.695312 217.441406 41.695312 C 216.601562 41.695312 216.089844 42.25 216.089844 43.097656 C 216.089844 45.117188 217.695312 46.484375 220.496094 46.484375 C 224.519531 46.484375 228.410156 42.152344 228.410156 35.082031 C 228.410156 26.324219 224.808594 24.140625 221.976562 24.140625 C 218.4375 24.140625 215.316406 27.136719 215.316406 31.4375 C 215.316406 35.734375 218.308594 38.667969 221.527344 38.667969 C 223.90625 38.667969 225.128906 36.90625 225.773438 35.246094 Z M 221.65625 38.015625 C 219.628906 38.015625 218.757812 36.355469 218.46875 35.734375 C 217.953125 34.496094 217.953125 32.933594 217.953125 31.46875 C 217.953125 29.644531 217.953125 28.082031 218.792969 26.746094 C 219.371094 25.867188 220.238281 24.921875 221.976562 24.921875 C 223.8125 24.921875 224.742188 26.550781 225.066406 27.300781 C 225.710938 28.894531 225.710938 31.664062 225.710938 32.152344 C 225.710938 34.886719 224.488281 38.015625 221.65625 38.015625 Z M 221.65625 38.015625 " fill-opacity="1" fill-rule="nonzero"/></g><g clip-path="url(#b2df8489d7)"><path fill="#a8180f" d="M 243.90625 40.328125 L 243.199219 40.328125 C 243.101562 40.882812 242.847656 42.671875 242.523438 43.195312 C 242.300781 43.488281 240.464844 43.488281 239.5 43.488281 L 233.546875 43.488281 C 234.414062 42.738281 236.378906 40.652344 237.214844 39.871094 C 242.105469 35.3125 243.90625 33.617188 243.90625 30.394531 C 243.90625 26.648438 240.980469 24.140625 237.246094 24.140625 C 233.515625 24.140625 231.328125 27.363281 231.328125 30.164062 C 231.328125 31.828125 232.742188 31.828125 232.839844 31.828125 C 233.515625 31.828125 234.351562 31.339844 234.351562 30.296875 C 234.351562 29.382812 233.738281 28.765625 232.839844 28.765625 C 232.550781 28.765625 232.484375 28.765625 232.386719 28.796875 C 233 26.582031 234.738281 25.085938 236.828125 25.085938 C 239.5625 25.085938 241.238281 27.398438 241.238281 30.394531 C 241.238281 33.160156 239.660156 35.574219 237.828125 37.65625 L 231.328125 45.019531 L 231.328125 45.800781 L 243.070312 45.800781 Z M 243.90625 40.328125 " fill-opacity="1" fill-rule="nonzero"/></g></svg>