<svg xmlns="http://www.w3.org/2000/svg" xmlns:xlink="http://www.w3.org/1999/xlink" width="1024" zoomAndPan="magnify" viewBox="0 0 768 767.999994" height="1024" preserveAspectRatio="xMidYMid meet" version="1.0"><defs><clipPath id="aacd4b9bf7"><path d="M 0 180 L 628 180 L 628 644.339844 L 0 644.339844 Z M 0 180 " clip-rule="nonzero"/></clipPath></defs><path fill="#17191a" d="M 539.394531 460.320312 C 506.519531 460.320312 476.636719 446.867188 452.730469 424.445312 C 430.320312 400.53125 416.871094 369.144531 416.871094 337.753906 C 416.871094 304.871094 430.320312 273.480469 452.730469 251.0625 C 476.636719 227.144531 506.519531 215.1875 539.394531 215.1875 C 572.265625 215.1875 603.640625 227.144531 626.054688 251.0625 C 649.960938 273.480469 663.410156 303.375 663.410156 336.257812 C 663.410156 369.144531 649.960938 400.53125 626.054688 424.445312 C 603.640625 446.867188 572.265625 460.320312 539.394531 460.320312 Z M 467.671875 409.5 C 506.519531 448.363281 572.265625 448.363281 611.113281 409.5 C 632.03125 390.070312 642.488281 363.164062 642.488281 336.257812 C 640.996094 309.355469 630.535156 285.441406 611.113281 266.007812 C 591.6875 246.578125 566.289062 234.621094 539.394531 234.621094 C 512.496094 234.621094 487.097656 246.578125 467.671875 266.007812 C 428.824219 304.871094 428.824219 369.144531 467.671875 409.5 Z M 460.203125 258.535156 Z M 460.203125 258.535156 " fill-opacity="1" fill-rule="evenodd"/><path fill="#17191a" d="M 539.394531 413.984375 C 519.96875 413.984375 500.542969 406.511719 485.601562 391.5625 C 470.660156 378.109375 463.191406 358.679688 463.191406 339.25 C 461.695312 318.324219 470.660156 297.398438 485.601562 282.449219 C 500.542969 268.996094 519.96875 260.03125 539.394531 260.03125 C 560.3125 260.03125 579.734375 268.996094 594.675781 282.449219 C 609.617188 297.398438 617.089844 316.828125 617.089844 337.753906 C 617.089844 358.679688 609.617188 378.109375 594.675781 391.5625 C 579.734375 405.015625 560.3125 413.984375 539.394531 413.984375 Z M 539.394531 280.957031 C 525.945312 280.957031 511.003906 286.933594 500.542969 297.398438 C 490.085938 307.859375 482.613281 322.808594 484.109375 337.753906 C 484.109375 352.703125 490.085938 366.152344 500.542969 376.617188 C 521.464844 397.542969 557.324219 397.542969 579.734375 376.617188 C 600.652344 355.691406 600.652344 319.816406 579.734375 297.398438 C 569.277344 286.933594 554.335938 280.957031 539.394531 280.957031 Z M 539.394531 280.957031 " fill-opacity="1" fill-rule="evenodd"/><path fill="#17191a" d="M 657.433594 464.804688 C 654.445312 464.804688 652.949219 463.308594 649.960938 461.816406 L 611.113281 424.445312 C 606.628906 419.960938 606.628906 413.984375 611.113281 409.5 C 615.59375 405.015625 621.570312 405.015625 626.054688 409.5 L 664.902344 446.867188 C 669.386719 451.351562 669.386719 457.332031 664.902344 461.816406 C 663.410156 463.308594 660.421875 464.804688 657.433594 464.804688 Z M 657.433594 464.804688 " fill-opacity="1" fill-rule="evenodd"/><path fill="#17191a" d="M 733.632812 561.960938 C 732.140625 561.960938 732.140625 561.960938 732.140625 561.960938 C 723.175781 561.960938 717.199219 558.96875 711.222656 552.992188 L 649.960938 491.707031 C 643.984375 487.222656 640.996094 479.75 640.996094 470.78125 C 639.5 461.816406 643.984375 452.847656 649.960938 446.867188 C 661.914062 436.40625 681.339844 434.910156 694.785156 446.867188 L 756.046875 508.148438 C 756.046875 508.148438 756.046875 508.148438 756.046875 509.644531 C 768 521.601562 768 541.035156 756.046875 552.992188 C 750.070312 558.96875 741.105469 561.960938 733.632812 561.960938 Z M 672.375 458.824219 C 669.386719 458.824219 666.398438 460.320312 664.902344 461.816406 C 663.410156 463.308594 661.914062 467.792969 661.914062 470.78125 C 661.914062 472.277344 661.914062 473.773438 664.902344 476.761719 L 726.164062 538.042969 C 726.164062 538.042969 727.65625 538.042969 727.65625 538.042969 C 729.152344 541.035156 732.140625 541.035156 733.632812 541.035156 C 736.621094 542.527344 739.609375 541.035156 741.105469 538.042969 C 745.585938 535.054688 745.585938 527.582031 741.105469 523.097656 L 681.339844 461.816406 C 678.351562 460.320312 675.363281 458.824219 672.375 458.824219 Z M 672.375 458.824219 " fill-opacity="1" fill-rule="evenodd"/><path fill="#17191a" d="M 313.773438 615.769531 C 310.785156 615.769531 307.796875 614.273438 306.304688 612.78125 C 306.304688 612.78125 282.398438 588.863281 239.066406 567.9375 C 200.21875 550 137.464844 530.570312 55.285156 545.519531 C 52.296875 545.519531 49.308594 545.519531 47.8125 542.527344 C 44.824219 541.035156 43.332031 538.042969 43.332031 535.054688 L 43.332031 140.453125 C 43.332031 135.96875 47.8125 131.484375 52.296875 129.992188 C 53.789062 129.992188 91.144531 124.011719 141.945312 129.992188 C 188.265625 135.96875 254.007812 152.410156 313.773438 203.230469 C 373.539062 152.410156 439.285156 135.96875 484.109375 129.992188 C 536.40625 124.011719 572.265625 129.992188 573.757812 129.992188 C 579.734375 131.484375 582.722656 135.96875 582.722656 140.453125 L 582.722656 230.136719 C 582.722656 236.113281 578.242188 240.597656 572.265625 240.597656 C 566.289062 240.597656 561.804688 236.113281 561.804688 230.136719 L 561.804688 149.421875 C 548.359375 147.925781 521.464844 146.433594 487.097656 150.917969 C 442.273438 156.894531 378.023438 173.335938 321.246094 224.15625 C 316.761719 228.640625 310.785156 228.640625 307.796875 224.15625 C 212.171875 141.949219 97.121094 146.433594 64.25 149.421875 L 64.25 523.097656 C 144.933594 511.140625 209.183594 530.570312 249.523438 550 C 280.902344 564.949219 303.316406 581.390625 313.773438 590.359375 C 324.234375 581.390625 346.644531 564.949219 378.023438 550 C 418.367188 530.570312 482.613281 511.140625 563.300781 523.097656 L 563.300781 443.878906 C 563.300781 437.898438 567.78125 433.414062 573.757812 433.414062 C 579.734375 433.414062 584.21875 437.898438 584.21875 443.878906 L 584.21875 535.054688 C 584.21875 538.042969 582.722656 541.035156 581.230469 542.527344 C 578.242188 545.519531 575.253906 545.519531 572.265625 545.519531 C 491.578125 530.570312 427.332031 550 388.484375 567.9375 C 345.152344 588.863281 321.246094 612.78125 321.246094 612.78125 C 319.75 614.273438 316.761719 615.769531 313.773438 615.769531 Z M 313.773438 615.769531 " fill-opacity="1" fill-rule="evenodd"/><g clip-path="url(#aacd4b9bf7)"><path fill="#17191a" d="M 617.089844 644.167969 C 617.089844 644.167969 615.59375 644.167969 615.59375 644.167969 C 409.402344 605.304688 218.148438 605.304688 11.953125 644.167969 C 8.964844 644.167969 5.976562 644.167969 4.484375 641.179688 C 1.496094 639.683594 0 636.695312 0 633.707031 L 1.496094 194.261719 C 1.496094 188.285156 5.976562 183.800781 10.460938 183.800781 C 11.953125 183.800781 35.859375 180.8125 53.789062 180.8125 C 59.765625 180.8125 64.25 185.292969 64.25 191.273438 C 64.25 197.253906 59.765625 201.738281 53.789062 201.738281 C 43.332031 201.738281 31.378906 203.230469 22.414062 203.230469 L 20.917969 621.746094 C 219.640625 584.378906 406.414062 584.378906 606.628906 621.746094 L 605.136719 419.960938 C 605.136719 413.984375 609.617188 409.5 615.59375 409.5 C 621.570312 409.5 626.054688 413.984375 626.054688 419.960938 L 627.546875 633.707031 C 627.546875 636.695312 626.054688 639.683594 624.558594 641.179688 C 621.570312 642.671875 620.078125 644.167969 617.089844 644.167969 Z M 615.59375 264.515625 C 609.617188 264.515625 605.136719 260.03125 605.136719 254.050781 L 605.136719 203.230469 C 596.171875 203.230469 584.21875 201.738281 572.265625 201.738281 C 566.289062 201.738281 561.804688 197.253906 561.804688 191.273438 C 561.804688 185.292969 566.289062 180.8125 572.265625 180.8125 C 591.6875 180.8125 615.59375 183.800781 617.089844 183.800781 C 623.066406 183.800781 626.054688 188.285156 626.054688 194.261719 L 626.054688 254.050781 C 626.054688 260.03125 621.570312 264.515625 615.59375 264.515625 Z M 615.59375 264.515625 " fill-opacity="1" fill-rule="evenodd"/></g><path fill="#17191a" d="M 313.773438 615.769531 C 307.796875 615.769531 303.316406 611.285156 303.316406 605.304688 L 303.316406 216.683594 C 303.316406 210.703125 307.796875 206.21875 313.773438 206.21875 C 319.75 206.21875 324.234375 210.703125 324.234375 216.683594 L 324.234375 605.304688 C 324.234375 611.285156 319.75 615.769531 313.773438 615.769531 Z M 313.773438 615.769531 " fill-opacity="1" fill-rule="evenodd"/><path fill="#17191a" d="M 361.585938 267.503906 C 358.597656 267.503906 355.609375 266.007812 354.117188 264.515625 C 349.632812 260.03125 351.128906 252.554688 354.117188 249.566406 C 424.34375 183.800781 522.957031 198.746094 527.441406 198.746094 C 533.417969 200.242188 537.898438 204.726562 536.40625 210.703125 C 534.910156 216.683594 530.429688 219.671875 524.453125 219.671875 C 522.957031 219.671875 431.8125 206.21875 369.058594 264.515625 C 367.5625 266.007812 364.574219 267.503906 361.585938 267.503906 Z M 361.585938 267.503906 " fill-opacity="1" fill-rule="evenodd"/><path fill="#17191a" d="M 361.585938 331.777344 C 358.597656 331.777344 357.105469 330.28125 354.117188 328.785156 C 351.128906 324.300781 351.128906 318.324219 354.117188 313.839844 C 378.023438 289.921875 406.414062 274.976562 443.765625 267.503906 C 449.742188 266.007812 454.226562 270.492188 455.71875 274.976562 C 457.214844 280.957031 452.730469 286.933594 448.25 288.429688 C 415.378906 294.40625 389.976562 307.859375 369.058594 328.785156 C 367.5625 330.28125 364.574219 331.777344 361.585938 331.777344 Z M 361.585938 331.777344 " fill-opacity="1" fill-rule="evenodd"/><path fill="#17191a" d="M 361.585938 394.554688 C 358.597656 394.554688 357.105469 393.058594 354.117188 391.5625 C 351.128906 387.078125 351.128906 381.101562 354.117188 376.617188 C 372.046875 358.679688 395.953125 345.226562 424.34375 334.765625 C 430.320312 333.269531 436.296875 336.257812 437.789062 342.238281 C 439.285156 346.722656 436.296875 352.703125 430.320312 355.691406 C 406.414062 363.164062 385.492188 375.121094 369.058594 391.5625 C 367.5625 393.058594 364.574219 394.554688 361.585938 394.554688 Z M 361.585938 394.554688 " fill-opacity="1" fill-rule="evenodd"/><path fill="#17191a" d="M 361.585938 457.332031 C 358.597656 457.332031 355.609375 455.835938 354.117188 454.339844 C 349.632812 449.855469 351.128906 443.878906 354.117188 439.394531 C 379.515625 415.480469 409.402344 400.53125 446.753906 393.058594 C 452.730469 391.5625 457.214844 396.046875 458.707031 400.53125 C 460.203125 406.511719 455.71875 412.488281 451.238281 413.984375 C 416.871094 419.960938 389.976562 433.414062 369.058594 454.339844 C 367.5625 455.835938 364.574219 457.332031 361.585938 457.332031 Z M 361.585938 457.332031 " fill-opacity="1" fill-rule="evenodd"/><path fill="#17191a" d="M 361.585938 520.109375 C 358.597656 520.109375 355.609375 518.613281 354.117188 517.117188 C 349.632812 512.632812 351.128906 505.160156 354.117188 502.171875 C 424.34375 437.898438 522.957031 451.351562 527.441406 451.351562 C 533.417969 451.351562 537.898438 457.332031 536.40625 463.308594 C 536.40625 469.289062 530.429688 472.277344 524.453125 472.277344 C 524.453125 472.277344 431.8125 460.320312 369.058594 517.117188 C 367.5625 518.613281 364.574219 520.109375 361.585938 520.109375 Z M 361.585938 520.109375 " fill-opacity="1" fill-rule="evenodd"/><path fill="#17191a" d="M 265.960938 267.503906 C 262.972656 267.503906 261.480469 266.007812 258.492188 264.515625 C 195.734375 206.21875 104.589844 219.671875 103.097656 219.671875 C 97.121094 219.671875 92.636719 216.683594 91.144531 210.703125 C 91.144531 204.726562 94.132812 200.242188 100.109375 198.746094 C 104.589844 198.746094 203.207031 183.800781 273.433594 249.566406 C 277.914062 252.554688 277.914062 260.03125 273.433594 264.515625 C 271.9375 266.007812 268.949219 267.503906 265.960938 267.503906 Z M 265.960938 267.503906 " fill-opacity="1" fill-rule="evenodd"/><path fill="#17191a" d="M 265.960938 331.777344 C 262.972656 331.777344 261.480469 330.28125 258.492188 328.785156 C 195.734375 270.492188 104.589844 282.449219 103.097656 282.449219 C 97.121094 282.449219 92.636719 279.460938 91.144531 273.480469 C 91.144531 267.503906 94.132812 261.523438 100.109375 261.523438 C 104.589844 261.523438 203.207031 248.070312 273.433594 313.839844 C 277.914062 316.828125 277.914062 324.300781 273.433594 328.785156 C 271.9375 330.28125 268.949219 331.777344 265.960938 331.777344 Z M 265.960938 331.777344 " fill-opacity="1" fill-rule="evenodd"/><path fill="#17191a" d="M 265.960938 394.554688 C 262.972656 394.554688 261.480469 393.058594 258.492188 391.5625 C 195.734375 333.269531 104.589844 345.226562 103.097656 345.226562 C 97.121094 345.226562 92.636719 342.238281 91.144531 336.257812 C 91.144531 330.28125 94.132812 324.300781 100.109375 324.300781 C 104.589844 324.300781 203.207031 310.847656 273.433594 376.617188 C 277.914062 379.605469 277.914062 387.078125 273.433594 391.5625 C 271.9375 393.058594 268.949219 394.554688 265.960938 394.554688 Z M 265.960938 394.554688 " fill-opacity="1" fill-rule="evenodd"/><path fill="#17191a" d="M 265.960938 457.332031 C 262.972656 457.332031 261.480469 455.835938 258.492188 454.339844 C 195.734375 396.046875 104.589844 409.5 103.097656 409.5 C 97.121094 409.5 92.636719 406.511719 91.144531 400.53125 C 91.144531 394.554688 94.132812 390.070312 100.109375 388.574219 C 104.589844 388.574219 203.207031 373.628906 273.433594 439.394531 C 277.914062 442.382812 277.914062 449.855469 273.433594 454.339844 C 271.9375 455.835938 268.949219 457.332031 265.960938 457.332031 Z M 265.960938 457.332031 " fill-opacity="1" fill-rule="evenodd"/><path fill="#17191a" d="M 265.960938 520.109375 C 262.972656 520.109375 261.480469 518.613281 258.492188 517.117188 C 195.734375 460.320312 104.589844 472.277344 103.097656 472.277344 C 97.121094 472.277344 92.636719 469.289062 91.144531 463.308594 C 91.144531 457.332031 94.132812 451.351562 100.109375 451.351562 C 104.589844 451.351562 203.207031 437.898438 273.433594 502.171875 C 277.914062 505.160156 277.914062 512.632812 273.433594 517.117188 C 271.9375 518.613281 268.949219 520.109375 265.960938 520.109375 Z M 265.960938 520.109375 " fill-opacity="1" fill-rule="evenodd"/></svg>