<svg xmlns="http://www.w3.org/2000/svg" xmlns:xlink="http://www.w3.org/1999/xlink" width="1024" zoomAndPan="magnify" viewBox="0 0 768 767.999994" height="1024" preserveAspectRatio="xMidYMid meet" version="1.0"><defs><clipPath id="f5bddd4422"><path d="M 39.601562 0 L 526 0 L 526 700 L 39.601562 700 Z M 39.601562 0 " clip-rule="nonzero"/></clipPath></defs><path fill="#17191a" d="M 305.375 102.589844 C 308.523438 99.441406 310.324219 95.390625 310.324219 90.890625 L 310.324219 52.199219 C 310.324219 47.703125 308.523438 43.652344 305.375 40.503906 C 302.679688 37.355469 298.179688 35.554688 293.683594 35.554688 L 107.957031 35.554688 C 103.457031 35.554688 99.410156 37.355469 96.261719 40.503906 C 93.566406 43.652344 91.316406 47.703125 91.316406 52.199219 L 91.316406 90.890625 C 91.316406 95.390625 93.566406 99.441406 96.261719 102.589844 C 99.410156 105.289062 103.457031 107.539062 107.957031 107.539062 L 293.683594 107.539062 C 298.179688 107.539062 302.679688 105.289062 305.375 102.589844 Z M 305.375 102.589844 " fill-opacity="1" fill-rule="evenodd"/><path fill="#17191a" d="M 397.566406 9.011719 L 397.566406 104.839844 C 397.566406 109.789062 401.613281 113.835938 406.558594 113.835938 L 516.289062 113.835938 C 518.535156 113.835938 521.234375 112.9375 523.035156 110.6875 C 526.183594 107.089844 525.730469 101.238281 522.132812 98.089844 L 413.304688 2.710938 C 411.507812 1.363281 409.257812 0.0117188 406.558594 0.0117188 C 401.613281 0.0117188 397.566406 4.0625 397.566406 9.011719 Z M 397.566406 9.011719 " fill-opacity="1" fill-rule="evenodd"/><g clip-path="url(#f5bddd4422)"><path fill="#17191a" d="M 319.765625 619.070312 Z M 379.578125 104.839844 L 379.578125 9.011719 C 379.578125 5.859375 380.027344 3.160156 381.375 0.0117188 L 62.535156 0.0117188 C 56.238281 0.0117188 50.84375 2.261719 46.796875 6.3125 L 46.34375 6.761719 C 42.296875 10.808594 39.601562 16.660156 39.601562 22.957031 L 39.601562 676.660156 C 39.601562 682.957031 42.296875 688.804688 46.34375 692.855469 C 50.394531 696.902344 56.238281 699.601562 62.535156 699.601562 L 502.347656 699.601562 C 508.644531 699.601562 514.488281 696.902344 518.535156 692.855469 C 522.585938 688.804688 525.28125 682.957031 525.28125 676.660156 L 525.28125 558.335938 L 525.730469 558.335938 L 525.730469 552.488281 L 498.75 600.175781 L 492.902344 610.074219 C 490.207031 615.023438 485.707031 618.621094 480.761719 620.871094 L 432.644531 645.164062 L 397.566406 655.0625 C 390.371094 652.8125 384.074219 648.316406 380.476562 641.117188 C 380.027344 640.214844 379.578125 638.867188 379.128906 637.96875 L 376.429688 637.96875 C 374.179688 637.96875 371.933594 637.066406 370.582031 635.71875 L 360.691406 627.621094 L 340.902344 642.914062 C 338.203125 645.164062 334.15625 645.617188 331.007812 643.816406 L 314.371094 636.167969 L 280.191406 636.167969 C 275.246094 636.167969 271.199219 632.117188 271.199219 627.167969 C 271.199219 622.21875 275.246094 618.171875 280.191406 618.171875 L 316.167969 618.171875 C 317.519531 618.171875 318.417969 618.621094 319.765625 619.070312 L 334.15625 625.371094 L 354.394531 609.625 C 357.542969 606.925781 362.488281 606.472656 366.085938 609.171875 L 376.878906 617.722656 L 375.980469 604.675781 L 259.507812 604.675781 C 254.558594 604.675781 250.511719 600.625 250.511719 595.675781 C 250.511719 590.726562 254.558594 586.679688 259.507812 586.679688 L 375.082031 586.679688 L 374.179688 576.332031 L 374.179688 570.484375 L 331.460938 570.484375 C 326.511719 570.484375 322.464844 566.882812 322.464844 561.484375 C 322.464844 556.535156 326.511719 552.488281 331.460938 552.488281 L 373.28125 552.488281 C 374.179688 548.886719 375.53125 545.289062 377.328125 542.140625 L 380.476562 536.738281 L 259.507812 536.738281 C 254.558594 536.738281 250.511719 532.691406 250.511719 527.742188 C 250.511719 522.792969 254.558594 518.746094 259.507812 518.746094 L 390.820312 518.746094 L 447.933594 419.765625 L 421.851562 419.765625 C 416.902344 419.765625 412.855469 415.71875 412.855469 410.769531 C 412.855469 405.820312 416.902344 401.769531 421.851562 401.769531 L 456.925781 401.769531 C 457.378906 401.769531 457.828125 401.769531 458.277344 401.769531 L 525.28125 286.148438 L 525.28125 130.484375 C 522.132812 131.382812 518.988281 131.832031 516.289062 131.832031 L 406.558594 131.832031 C 391.71875 131.832031 379.578125 119.683594 379.578125 104.839844 Z M 250.511719 157.925781 C 250.511719 152.976562 254.558594 148.929688 259.507812 148.929688 L 458.277344 148.929688 C 463.222656 148.929688 467.269531 152.976562 467.269531 157.925781 C 467.269531 162.875 463.222656 166.925781 458.277344 166.925781 L 259.507812 166.925781 C 254.558594 166.925781 250.511719 162.875 250.511719 157.925781 Z M 250.511719 191.667969 C 250.511719 186.71875 254.558594 182.671875 259.507812 182.671875 L 458.277344 182.671875 C 463.222656 182.671875 467.269531 186.71875 467.269531 191.667969 C 467.269531 196.617188 463.222656 200.667969 458.277344 200.667969 L 259.507812 200.667969 C 254.558594 200.667969 250.511719 196.617188 250.511719 191.667969 Z M 250.511719 225.859375 C 250.511719 220.914062 254.558594 216.863281 259.507812 216.863281 L 388.121094 216.863281 C 393.070312 216.863281 397.117188 220.914062 397.117188 225.859375 C 397.117188 230.808594 393.070312 234.859375 388.121094 234.859375 L 259.507812 234.859375 C 254.558594 234.859375 250.511719 230.808594 250.511719 225.859375 Z M 412.855469 225.859375 C 412.855469 220.914062 416.902344 216.863281 421.851562 216.863281 L 456.925781 216.863281 C 461.875 216.863281 465.921875 220.914062 465.921875 225.859375 C 465.921875 230.808594 461.875 234.859375 456.925781 234.859375 L 421.851562 234.859375 C 416.902344 234.859375 412.855469 230.808594 412.855469 225.859375 Z M 261.753906 333.835938 L 297.730469 333.835938 C 302.679688 333.835938 306.726562 337.886719 306.726562 342.835938 C 306.726562 347.785156 302.679688 351.832031 297.730469 351.832031 L 261.753906 351.832031 C 256.808594 351.832031 252.761719 347.785156 252.761719 342.835938 C 252.761719 337.886719 256.808594 333.835938 261.753906 333.835938 Z M 250.511719 376.578125 C 250.511719 371.628906 254.558594 367.578125 259.507812 367.578125 L 458.277344 367.578125 C 463.222656 367.578125 467.269531 371.628906 467.269531 376.578125 C 467.269531 381.527344 463.222656 385.574219 458.277344 385.574219 L 259.507812 385.574219 C 254.558594 385.574219 250.511719 381.527344 250.511719 376.578125 Z M 250.511719 410.769531 C 250.511719 405.820312 254.558594 401.769531 259.507812 401.769531 L 388.121094 401.769531 C 393.070312 401.769531 397.117188 405.820312 397.117188 410.769531 C 397.117188 415.71875 393.070312 419.765625 388.121094 419.765625 L 259.507812 419.765625 C 254.558594 419.765625 250.511719 415.71875 250.511719 410.769531 Z M 331.910156 342.835938 C 331.910156 337.886719 335.957031 333.835938 340.902344 333.835938 L 376.429688 333.835938 C 381.375 333.835938 385.425781 337.886719 385.425781 342.835938 C 385.425781 347.785156 381.375 351.832031 376.429688 351.832031 L 340.902344 351.832031 C 335.957031 351.832031 331.910156 347.785156 331.910156 342.835938 Z M 411.058594 342.835938 C 411.058594 337.886719 415.105469 333.835938 420.050781 333.835938 L 455.578125 333.835938 C 460.523438 333.835938 464.570312 337.886719 464.570312 342.835938 C 464.570312 347.785156 460.523438 351.832031 455.578125 351.832031 L 420.050781 351.832031 C 415.105469 351.832031 411.058594 347.785156 411.058594 342.835938 Z M 250.511719 561.484375 C 250.511719 556.535156 254.558594 552.488281 259.507812 552.488281 L 294.582031 552.488281 C 299.53125 552.488281 303.578125 556.535156 303.578125 561.484375 C 303.578125 566.882812 299.53125 570.484375 294.582031 570.484375 L 259.507812 570.484375 C 254.558594 570.484375 250.511719 566.882812 250.511719 561.484375 Z M 232.074219 528.191406 L 232.074219 595.226562 C 232.074219 597.476562 232.074219 599.726562 231.625 601.976562 L 222.628906 618.621094 C 216.335938 624.46875 208.238281 628.070312 199.246094 628.070312 L 104.808594 628.070312 C 96.261719 628.070312 87.71875 624.46875 81.421875 618.621094 C 75.578125 612.324219 71.980469 603.773438 71.980469 595.226562 L 71.980469 528.191406 C 71.980469 519.644531 75.578125 511.097656 81.421875 504.796875 C 87.71875 498.949219 96.261719 495.347656 104.808594 495.347656 L 199.246094 495.347656 C 208.238281 495.347656 216.335938 498.949219 222.628906 504.796875 C 224.429688 506.597656 223.980469 506.597656 224.429688 507.046875 C 229.375 512.894531 232.074219 520.542969 232.074219 528.191406 Z M 232.074219 410.320312 C 232.074219 412.570312 232.074219 414.816406 231.625 417.066406 L 222.628906 433.265625 C 216.335938 439.5625 208.238281 443.160156 199.246094 443.160156 L 104.808594 443.160156 C 96.261719 443.160156 87.71875 439.5625 81.421875 433.265625 C 80.972656 432.8125 80.523438 431.914062 79.625 431.464844 C 74.675781 425.617188 71.980469 417.96875 71.980469 410.320312 L 71.980469 343.285156 C 71.980469 338.335938 73.328125 333.386719 75.125 328.886719 L 81.421875 319.890625 C 87.71875 314.039062 96.261719 310.441406 104.808594 310.441406 L 199.246094 310.441406 C 208.238281 310.441406 216.335938 314.039062 222.628906 319.890625 C 224.429688 321.6875 223.980469 321.6875 224.429688 322.140625 C 229.375 327.988281 232.074219 335.636719 232.074219 343.285156 Z M 231.625 232.160156 L 222.628906 248.355469 C 216.335938 254.65625 208.238281 258.253906 199.246094 258.253906 L 104.808594 258.253906 C 96.261719 258.253906 87.71875 254.65625 81.421875 248.355469 C 75.578125 242.507812 71.980469 233.960938 71.980469 225.410156 L 71.980469 158.375 C 71.980469 149.378906 75.578125 141.28125 81.421875 134.980469 C 87.71875 128.683594 96.261719 125.535156 104.808594 125.535156 L 199.246094 125.535156 C 208.238281 125.535156 216.335938 128.683594 222.628906 134.980469 C 224.429688 136.78125 223.980469 136.78125 224.429688 137.230469 C 229.375 143.078125 232.074219 150.277344 232.074219 158.375 L 232.074219 225.410156 C 232.074219 227.660156 232.074219 229.910156 231.625 232.160156 Z M 318.417969 115.1875 C 311.671875 121.484375 303.128906 125.535156 293.683594 125.535156 L 107.957031 125.535156 C 98.960938 125.535156 89.96875 121.484375 83.671875 115.1875 C 77.375 108.886719 73.328125 99.890625 73.328125 90.890625 L 73.328125 52.199219 C 73.328125 42.753906 77.375 34.203125 83.671875 27.90625 C 89.96875 21.15625 98.960938 17.558594 107.957031 17.558594 L 293.683594 17.558594 C 303.128906 17.558594 311.671875 21.15625 318.417969 27.90625 C 324.714844 34.203125 328.3125 42.753906 328.3125 52.199219 L 328.3125 90.890625 C 328.3125 99.890625 324.714844 108.886719 318.417969 115.1875 Z M 318.417969 115.1875 " fill-opacity="1" fill-rule="evenodd"/></g><path fill="#17191a" d="M 210.039062 235.757812 Z M 214.085938 225.410156 L 214.085938 158.375 C 214.085938 150.277344 207.339844 143.53125 199.246094 143.53125 L 104.808594 143.53125 C 96.710938 143.53125 89.96875 150.277344 89.96875 158.375 L 89.96875 225.410156 C 89.96875 233.507812 96.710938 240.257812 104.808594 240.257812 L 199.246094 240.257812 C 203.292969 240.257812 207.339844 238.457031 210.039062 235.757812 C 212.738281 233.058594 214.085938 229.460938 214.085938 225.410156 Z M 178.558594 184.019531 L 150.675781 212.363281 C 147.078125 215.511719 141.234375 215.511719 137.636719 212.363281 L 125.492188 199.765625 C 121.894531 196.617188 121.894531 190.769531 125.492188 187.167969 C 129.089844 183.570312 134.9375 183.570312 138.085938 187.167969 L 143.933594 193.019531 L 165.96875 171.421875 C 169.566406 167.824219 174.960938 167.824219 178.558594 171.421875 C 182.15625 175.023438 182.15625 180.421875 178.558594 184.019531 Z M 178.558594 184.019531 " fill-opacity="1" fill-rule="evenodd"/><path fill="#17191a" d="M 210.039062 420.667969 Z M 199.246094 328.4375 L 104.808594 328.4375 C 100.761719 328.4375 97.164062 329.789062 94.464844 332.9375 C 91.765625 335.636719 89.96875 339.234375 89.96875 343.285156 L 89.96875 410.320312 C 89.96875 418.417969 96.710938 425.164062 104.808594 425.164062 L 199.246094 425.164062 C 203.292969 425.164062 207.339844 423.367188 210.039062 420.667969 C 212.738281 417.96875 214.085938 414.367188 214.085938 410.320312 L 214.085938 343.285156 C 214.085938 335.1875 207.339844 328.4375 199.246094 328.4375 Z M 170.914062 357.679688 C 174.511719 361.28125 174.511719 367.128906 170.914062 370.277344 L 164.617188 376.578125 L 170.914062 382.875 C 174.511719 386.472656 174.511719 392.324219 170.914062 395.921875 C 167.765625 399.070312 161.921875 399.070312 158.324219 395.921875 L 152.027344 389.625 L 145.730469 395.921875 C 142.132812 399.070312 136.738281 399.070312 133.140625 395.921875 C 129.542969 392.324219 129.542969 386.472656 133.140625 382.875 L 139.433594 376.578125 L 133.140625 370.277344 C 129.542969 367.128906 129.542969 361.28125 133.140625 357.679688 C 136.738281 354.082031 142.132812 354.082031 145.730469 357.679688 L 152.027344 363.980469 L 158.324219 357.679688 C 161.921875 354.082031 167.765625 354.082031 170.914062 357.679688 Z M 170.914062 357.679688 " fill-opacity="1" fill-rule="evenodd"/><path fill="#17191a" d="M 210.039062 605.574219 Z M 199.246094 513.34375 L 104.808594 513.34375 C 96.710938 513.34375 89.96875 520.09375 89.96875 528.191406 L 89.96875 595.226562 C 89.96875 603.324219 96.710938 610.074219 104.808594 610.074219 L 199.246094 610.074219 C 203.292969 610.074219 207.339844 608.273438 210.039062 605.574219 C 212.738281 602.875 214.085938 599.277344 214.085938 595.226562 L 214.085938 528.191406 C 214.085938 520.09375 207.339844 513.34375 199.246094 513.34375 Z M 125.492188 556.984375 C 129.089844 553.835938 134.9375 553.835938 138.085938 556.984375 L 143.933594 562.835938 L 165.96875 541.238281 C 169.566406 537.640625 174.960938 537.640625 178.558594 541.238281 C 182.15625 544.839844 182.15625 550.6875 178.558594 553.835938 L 150.675781 582.179688 C 147.078125 585.777344 141.234375 585.777344 137.636719 582.179688 L 125.492188 570.03125 C 121.894531 566.433594 121.894531 560.585938 125.492188 556.984375 Z M 125.492188 556.984375 " fill-opacity="1" fill-rule="evenodd"/><path fill="#17191a" d="M 391.71875 563.285156 L 395.316406 628.96875 C 395.316406 630.320312 395.765625 631.667969 396.667969 633.019531 C 398.914062 637.515625 404.3125 639.316406 408.359375 637.066406 L 472.667969 604.675781 C 474.015625 604.226562 475.363281 603.324219 476.265625 602.425781 L 467.71875 604.675781 C 461.875 606.023438 456.027344 602.875 454.230469 597.027344 L 449.730469 579.03125 L 431.742188 583.980469 C 425.898438 585.328125 420.050781 582.179688 418.703125 576.332031 L 413.753906 558.335938 L 395.765625 563.285156 C 394.417969 563.285156 393.070312 563.734375 391.71875 563.285156 Z M 391.71875 563.285156 " fill-opacity="1" fill-rule="evenodd"/><path fill="#17191a" d="M 467.71875 562.835938 Z M 418.703125 534.492188 Z M 431.742188 542.589844 L 436.691406 560.136719 L 453.78125 555.636719 L 454.679688 555.1875 C 460.074219 553.835938 466.371094 556.984375 467.71875 562.835938 L 472.667969 580.832031 L 480.3125 578.582031 C 483.460938 578.128906 486.609375 578.582031 489.304688 580.378906 L 667.839844 270.851562 C 631.414062 265.902344 597.234375 240.707031 580.597656 226.3125 L 399.363281 539.890625 L 418.703125 534.492188 C 424.546875 533.140625 430.394531 536.289062 431.742188 542.140625 Z M 431.742188 542.589844 " fill-opacity="1" fill-rule="evenodd"/><path fill="#17191a" d="M 589.140625 211.015625 C 601.28125 221.363281 641.308594 252.40625 677.734375 253.304688 L 703.367188 208.765625 C 661.09375 207.414062 627.816406 178.621094 615.222656 166.023438 Z M 589.140625 211.015625 " fill-opacity="1" fill-rule="evenodd"/><path fill="#17191a" d="M 625.566406 152.527344 C 625.566406 152.527344 662.441406 191.21875 706.964844 191.21875 C 709.210938 191.21875 711.011719 191.667969 712.808594 193.019531 L 719.554688 181.320312 L 720.003906 180.421875 C 726.75 168.722656 728.101562 155.226562 724.953125 143.078125 C 721.804688 131.382812 714.160156 120.585938 702.917969 113.835938 L 702.015625 113.386719 C 690.324219 106.636719 676.832031 105.289062 664.691406 108.4375 C 652.550781 112.035156 641.757812 119.683594 635.011719 131.382812 L 624.21875 150.277344 C 624.667969 151.179688 625.117188 151.628906 625.566406 152.527344 Z M 625.566406 152.527344 " fill-opacity="1" fill-rule="evenodd"/><path fill="#17191a" d="M 543.269531 254.65625 L 595.4375 163.773438 L 543.269531 163.773438 Z M 543.269531 254.65625 " fill-opacity="1" fill-rule="evenodd"/><path fill="#17191a" d="M 219.484375 762.140625 Z M 697.519531 255.105469 L 543.71875 521.445312 L 543.71875 576.332031 L 543.269531 576.332031 L 543.269531 676.660156 C 543.269531 699.152344 524.832031 717.597656 502.347656 717.597656 L 212.289062 717.597656 L 212.289062 747.292969 C 212.289062 753.140625 214.984375 758.539062 219.484375 762.140625 C 222.628906 765.738281 229.375 767.988281 234.773438 767.988281 L 675.035156 767.988281 C 686.726562 767.988281 697.519531 758.988281 697.519531 747.292969 Z M 697.519531 255.105469 " fill-opacity="1" fill-rule="evenodd"/></svg>