<svg xmlns="http://www.w3.org/2000/svg" xmlns:xlink="http://www.w3.org/1999/xlink" width="500" zoomAndPan="magnify" viewBox="0 0 375 74.999997" height="100" preserveAspectRatio="xMidYMid meet" version="1.0"><defs><g/><clipPath id="88e3e91d5f"><path d="M 266 7.5 L 272 7.5 L 272 15 L 266 15 Z M 266 7.5 " clip-rule="nonzero"/></clipPath><clipPath id="7c4996eb8f"><path d="M 248.039062 27 L 338.789062 27 L 338.789062 29 L 248.039062 29 Z M 248.039062 27 " clip-rule="nonzero"/></clipPath></defs><g fill="#17191a" fill-opacity="1"><g transform="translate(15.000006, 31.534077)"><g><path d="M 6.40625 0 L 4.765625 0 L 4.765625 -10.84375 L 1.5 -9.640625 L 1.5 -11.109375 L 6.15625 -12.859375 L 6.40625 -12.859375 Z M 6.40625 0 "/></g></g></g><g fill="#17191a" fill-opacity="1"><g transform="translate(25.104909, 31.534077)"><g><path d="M 4.984375 -5.109375 C 4.984375 -3.796875 4.8125 -2.539062 4.46875 -1.34375 C 4.125 -0.144531 3.597656 0.957031 2.890625 1.96875 C 2.191406 2.976562 1.453125 3.695312 0.671875 4.125 L 0.328125 3.140625 C 1.234375 2.441406 1.957031 1.367188 2.5 -0.078125 C 3.050781 -1.535156 3.332031 -3.15625 3.34375 -4.9375 L 3.34375 -5.21875 C 3.34375 -6.445312 3.210938 -7.585938 2.953125 -8.640625 C 2.703125 -9.703125 2.347656 -10.648438 1.890625 -11.484375 C 1.429688 -12.328125 0.910156 -12.984375 0.328125 -13.453125 L 0.671875 -14.4375 C 1.453125 -14.007812 2.191406 -13.296875 2.890625 -12.296875 C 3.585938 -11.296875 4.109375 -10.191406 4.453125 -8.984375 C 4.804688 -7.773438 4.984375 -6.484375 4.984375 -5.109375 Z M 4.984375 -5.109375 "/></g></g></g><g fill="#17191a" fill-opacity="1"><g transform="translate(31.361161, 31.534077)"><g/></g></g><g fill="#17191a" fill-opacity="1"><g transform="translate(35.816106, 31.534077)"><g><path d="M 3.296875 0 L 1.609375 0 L 1.609375 -12.796875 L 3.296875 -12.796875 Z M 3.296875 0 "/></g></g></g><g fill="#17191a" fill-opacity="1"><g transform="translate(40.710393, 31.534077)"><g><path d="M 2.765625 -1.328125 L 8.328125 -1.328125 L 8.328125 0 L 0.78125 0 L 0.78125 -1.203125 L 6.015625 -8.171875 L 0.859375 -8.171875 L 0.859375 -9.515625 L 8.0625 -9.515625 L 8.0625 -8.359375 Z M 2.765625 -1.328125 "/></g></g></g><g fill="#17191a" fill-opacity="1"><g transform="translate(49.629068, 31.534077)"><g><path d="M 5.828125 -8.046875 C 5.578125 -8.085938 5.3125 -8.109375 5.03125 -8.109375 C 3.957031 -8.109375 3.234375 -7.65625 2.859375 -6.75 L 2.859375 0 L 1.234375 0 L 1.234375 -9.515625 L 2.8125 -9.515625 L 2.84375 -8.40625 C 3.375 -9.257812 4.128906 -9.6875 5.109375 -9.6875 C 5.421875 -9.6875 5.660156 -9.644531 5.828125 -9.5625 Z M 5.828125 -8.046875 "/></g></g></g><g fill="#17191a" fill-opacity="1"><g transform="translate(55.71837, 31.534077)"><g><path d="M 7.109375 0 C 7.015625 -0.1875 6.9375 -0.519531 6.875 -1 C 6.113281 -0.21875 5.210938 0.171875 4.171875 0.171875 C 3.234375 0.171875 2.460938 -0.09375 1.859375 -0.625 C 1.253906 -1.15625 0.953125 -1.828125 0.953125 -2.640625 C 0.953125 -3.628906 1.328125 -4.394531 2.078125 -4.9375 C 2.835938 -5.488281 3.898438 -5.765625 5.265625 -5.765625 L 6.84375 -5.765625 L 6.84375 -6.515625 C 6.84375 -7.078125 6.671875 -7.523438 6.328125 -7.859375 C 5.992188 -8.203125 5.492188 -8.375 4.828125 -8.375 C 4.253906 -8.375 3.769531 -8.226562 3.375 -7.9375 C 2.976562 -7.644531 2.78125 -7.289062 2.78125 -6.875 L 1.15625 -6.875 C 1.15625 -7.34375 1.320312 -7.796875 1.65625 -8.234375 C 1.988281 -8.679688 2.441406 -9.035156 3.015625 -9.296875 C 3.597656 -9.554688 4.238281 -9.6875 4.9375 -9.6875 C 6.03125 -9.6875 6.882812 -9.410156 7.5 -8.859375 C 8.125 -8.316406 8.445312 -7.5625 8.46875 -6.59375 L 8.46875 -2.21875 C 8.46875 -1.351562 8.582031 -0.660156 8.8125 -0.140625 L 8.8125 0 Z M 4.40625 -1.234375 C 4.914062 -1.234375 5.398438 -1.363281 5.859375 -1.625 C 6.316406 -1.894531 6.644531 -2.238281 6.84375 -2.65625 L 6.84375 -4.609375 L 5.578125 -4.609375 C 3.578125 -4.609375 2.578125 -4.023438 2.578125 -2.859375 C 2.578125 -2.347656 2.75 -1.945312 3.09375 -1.65625 C 3.4375 -1.375 3.875 -1.234375 4.40625 -1.234375 Z M 4.40625 -1.234375 "/></g></g></g><g fill="#17191a" fill-opacity="1"><g transform="translate(65.506945, 31.534077)"><g><path d="M 5.046875 -1.15625 C 5.628906 -1.15625 6.132812 -1.328125 6.5625 -1.671875 C 7 -2.023438 7.238281 -2.46875 7.28125 -3 L 8.828125 -3 C 8.796875 -2.457031 8.609375 -1.9375 8.265625 -1.4375 C 7.921875 -0.945312 7.457031 -0.554688 6.875 -0.265625 C 6.300781 0.0234375 5.691406 0.171875 5.046875 0.171875 C 3.753906 0.171875 2.722656 -0.257812 1.953125 -1.125 C 1.191406 -1.988281 0.8125 -3.171875 0.8125 -4.671875 L 0.8125 -4.9375 C 0.8125 -5.863281 0.976562 -6.6875 1.3125 -7.40625 C 1.65625 -8.125 2.144531 -8.679688 2.78125 -9.078125 C 3.414062 -9.484375 4.164062 -9.6875 5.03125 -9.6875 C 6.101562 -9.6875 6.988281 -9.363281 7.6875 -8.71875 C 8.394531 -8.082031 8.773438 -7.253906 8.828125 -6.234375 L 7.28125 -6.234375 C 7.238281 -6.847656 7.003906 -7.351562 6.578125 -7.75 C 6.160156 -8.144531 5.644531 -8.34375 5.03125 -8.34375 C 4.207031 -8.34375 3.566406 -8.046875 3.109375 -7.453125 C 2.660156 -6.859375 2.4375 -6 2.4375 -4.875 L 2.4375 -4.578125 C 2.4375 -3.472656 2.660156 -2.625 3.109375 -2.03125 C 3.554688 -1.445312 4.203125 -1.15625 5.046875 -1.15625 Z M 4.671875 -12.015625 L 5.984375 -13.5 L 7.390625 -13.5 L 7.390625 -13.421875 L 5.15625 -11.015625 L 4.171875 -11.015625 L 1.953125 -13.421875 L 1.953125 -13.5 L 3.34375 -13.5 Z M 4.671875 -12.015625 "/></g></g></g><g fill="#17191a" fill-opacity="1"><g transform="translate(74.926472, 31.534077)"><g><path d="M 7.109375 -0.9375 C 6.472656 -0.195312 5.539062 0.171875 4.3125 0.171875 C 3.300781 0.171875 2.53125 -0.117188 2 -0.703125 C 1.46875 -1.296875 1.203125 -2.171875 1.203125 -3.328125 L 1.203125 -9.515625 L 2.828125 -9.515625 L 2.828125 -3.359375 C 2.828125 -1.921875 3.410156 -1.203125 4.578125 -1.203125 C 5.816406 -1.203125 6.644531 -1.664062 7.0625 -2.59375 L 7.0625 -9.515625 L 8.6875 -9.515625 L 8.6875 0 L 7.140625 0 Z M 7.109375 -0.9375 "/></g></g></g><g fill="#17191a" fill-opacity="1"><g transform="translate(84.84685, 31.534077)"><g><path d="M 2.765625 -9.515625 L 2.828125 -8.3125 C 3.546875 -9.226562 4.492188 -9.6875 5.671875 -9.6875 C 7.679688 -9.6875 8.691406 -8.550781 8.703125 -6.28125 L 8.703125 0 L 7.078125 0 L 7.078125 -6.296875 C 7.078125 -6.984375 6.921875 -7.488281 6.609375 -7.8125 C 6.304688 -8.144531 5.828125 -8.3125 5.171875 -8.3125 C 4.648438 -8.3125 4.1875 -8.171875 3.78125 -7.890625 C 3.382812 -7.609375 3.078125 -7.238281 2.859375 -6.78125 L 2.859375 0 L 1.234375 0 L 1.234375 -9.515625 Z M 2.765625 -9.515625 "/></g></g></g><g fill="#17191a" fill-opacity="1"><g transform="translate(94.776016, 31.534077)"><g><path d="M 7.109375 0 C 7.015625 -0.1875 6.9375 -0.519531 6.875 -1 C 6.113281 -0.21875 5.210938 0.171875 4.171875 0.171875 C 3.234375 0.171875 2.460938 -0.09375 1.859375 -0.625 C 1.253906 -1.15625 0.953125 -1.828125 0.953125 -2.640625 C 0.953125 -3.628906 1.328125 -4.394531 2.078125 -4.9375 C 2.835938 -5.488281 3.898438 -5.765625 5.265625 -5.765625 L 6.84375 -5.765625 L 6.84375 -6.515625 C 6.84375 -7.078125 6.671875 -7.523438 6.328125 -7.859375 C 5.992188 -8.203125 5.492188 -8.375 4.828125 -8.375 C 4.253906 -8.375 3.769531 -8.226562 3.375 -7.9375 C 2.976562 -7.644531 2.78125 -7.289062 2.78125 -6.875 L 1.15625 -6.875 C 1.15625 -7.34375 1.320312 -7.796875 1.65625 -8.234375 C 1.988281 -8.679688 2.441406 -9.035156 3.015625 -9.296875 C 3.597656 -9.554688 4.238281 -9.6875 4.9375 -9.6875 C 6.03125 -9.6875 6.882812 -9.410156 7.5 -8.859375 C 8.125 -8.316406 8.445312 -7.5625 8.46875 -6.59375 L 8.46875 -2.21875 C 8.46875 -1.351562 8.582031 -0.660156 8.8125 -0.140625 L 8.8125 0 Z M 4.40625 -1.234375 C 4.914062 -1.234375 5.398438 -1.363281 5.859375 -1.625 C 6.316406 -1.894531 6.644531 -2.238281 6.84375 -2.65625 L 6.84375 -4.609375 L 5.578125 -4.609375 C 3.578125 -4.609375 2.578125 -4.023438 2.578125 -2.859375 C 2.578125 -2.347656 2.75 -1.945312 3.09375 -1.65625 C 3.4375 -1.375 3.875 -1.234375 4.40625 -1.234375 Z M 4.40625 -1.234375 "/></g></g></g><g fill="#17191a" fill-opacity="1"><g transform="translate(104.564591, 31.534077)"><g><path d="M 2.90625 -9.515625 L 2.90625 1.09375 C 2.90625 2.925781 2.078125 3.84375 0.421875 3.84375 C 0.0664062 3.84375 -0.265625 3.789062 -0.578125 3.6875 L -0.578125 2.375 C -0.390625 2.425781 -0.140625 2.453125 0.171875 2.453125 C 0.535156 2.453125 0.8125 2.351562 1 2.15625 C 1.1875 1.957031 1.28125 1.617188 1.28125 1.140625 L 1.28125 -9.515625 Z M 1.109375 -12.03125 C 1.109375 -12.289062 1.1875 -12.507812 1.34375 -12.6875 C 1.507812 -12.875 1.75 -12.96875 2.0625 -12.96875 C 2.382812 -12.96875 2.625 -12.875 2.78125 -12.6875 C 2.945312 -12.507812 3.03125 -12.289062 3.03125 -12.03125 C 3.03125 -11.769531 2.945312 -11.550781 2.78125 -11.375 C 2.625 -11.195312 2.382812 -11.109375 2.0625 -11.109375 C 1.75 -11.109375 1.507812 -11.195312 1.34375 -11.375 C 1.1875 -11.550781 1.109375 -11.769531 1.109375 -12.03125 Z M 1.109375 -12.03125 "/></g></g></g><g fill="#17191a" fill-opacity="1"><g transform="translate(108.861371, 31.534077)"><g/></g></g><g fill="#17191a" fill-opacity="1"><g transform="translate(113.316315, 31.534077)"><g><path d="M 4.375 -2.203125 L 6.71875 -9.515625 L 8.390625 -9.515625 L 4.96875 0 L 3.734375 0 L 0.296875 -9.515625 L 1.953125 -9.515625 Z M 4.375 -2.203125 "/></g></g></g><g fill="#17191a" fill-opacity="1"><g transform="translate(122.032892, 31.534077)"><g><path d="M 5.828125 -8.046875 C 5.578125 -8.085938 5.3125 -8.109375 5.03125 -8.109375 C 3.957031 -8.109375 3.234375 -7.65625 2.859375 -6.75 L 2.859375 0 L 1.234375 0 L 1.234375 -9.515625 L 2.8125 -9.515625 L 2.84375 -8.40625 C 3.375 -9.257812 4.128906 -9.6875 5.109375 -9.6875 C 5.421875 -9.6875 5.660156 -9.644531 5.828125 -9.5625 Z M 5.828125 -8.046875 "/></g></g></g><g fill="#17191a" fill-opacity="1"><g transform="translate(128.122194, 31.534077)"><g><path d="M 3 0 L 1.375 0 L 1.375 -9.515625 L 3 -9.515625 Z M 1.234375 -12.03125 C 1.234375 -12.289062 1.3125 -12.507812 1.46875 -12.6875 C 1.632812 -12.875 1.875 -12.96875 2.1875 -12.96875 C 2.507812 -12.96875 2.753906 -12.875 2.921875 -12.6875 C 3.085938 -12.507812 3.171875 -12.289062 3.171875 -12.03125 C 3.171875 -11.769531 3.085938 -11.550781 2.921875 -11.375 C 2.753906 -11.195312 2.507812 -11.109375 2.1875 -11.109375 C 1.875 -11.109375 1.632812 -11.195312 1.46875 -11.375 C 1.3125 -11.550781 1.234375 -11.769531 1.234375 -12.03125 Z M 1.234375 -12.03125 "/></g></g></g><g fill="#17191a" fill-opacity="1"><g transform="translate(132.48927, 31.534077)"><g><path d="M 2.90625 -9.515625 L 2.90625 1.09375 C 2.90625 2.925781 2.078125 3.84375 0.421875 3.84375 C 0.0664062 3.84375 -0.265625 3.789062 -0.578125 3.6875 L -0.578125 2.375 C -0.390625 2.425781 -0.140625 2.453125 0.171875 2.453125 C 0.535156 2.453125 0.8125 2.351562 1 2.15625 C 1.1875 1.957031 1.28125 1.617188 1.28125 1.140625 L 1.28125 -9.515625 Z M 1.109375 -12.03125 C 1.109375 -12.289062 1.1875 -12.507812 1.34375 -12.6875 C 1.507812 -12.875 1.75 -12.96875 2.0625 -12.96875 C 2.382812 -12.96875 2.625 -12.875 2.78125 -12.6875 C 2.945312 -12.507812 3.03125 -12.289062 3.03125 -12.03125 C 3.03125 -11.769531 2.945312 -11.550781 2.78125 -11.375 C 2.625 -11.195312 2.382812 -11.109375 2.0625 -11.109375 C 1.75 -11.109375 1.507812 -11.195312 1.34375 -11.375 C 1.1875 -11.550781 1.109375 -11.769531 1.109375 -12.03125 Z M 1.109375 -12.03125 "/></g></g></g><g fill="#17191a" fill-opacity="1"><g transform="translate(136.78605, 31.534077)"><g><path d="M 5.171875 0.171875 C 3.890625 0.171875 2.84375 -0.25 2.03125 -1.09375 C 1.21875 -1.9375 0.8125 -3.066406 0.8125 -4.484375 L 0.8125 -4.796875 C 0.8125 -5.734375 0.992188 -6.570312 1.359375 -7.3125 C 1.722656 -8.050781 2.226562 -8.628906 2.875 -9.046875 C 3.519531 -9.472656 4.21875 -9.6875 4.96875 -9.6875 C 6.207031 -9.6875 7.171875 -9.28125 7.859375 -8.46875 C 8.546875 -7.65625 8.890625 -6.488281 8.890625 -4.96875 L 8.890625 -4.296875 L 2.4375 -4.296875 C 2.46875 -3.359375 2.742188 -2.597656 3.265625 -2.015625 C 3.785156 -1.441406 4.453125 -1.15625 5.265625 -1.15625 C 5.835938 -1.15625 6.320312 -1.269531 6.71875 -1.5 C 7.125 -1.738281 7.472656 -2.050781 7.765625 -2.4375 L 8.765625 -1.65625 C 7.960938 -0.4375 6.765625 0.171875 5.171875 0.171875 Z M 4.96875 -8.34375 C 4.3125 -8.34375 3.757812 -8.101562 3.3125 -7.625 C 2.875 -7.15625 2.601562 -6.488281 2.5 -5.625 L 7.265625 -5.625 L 7.265625 -5.75 C 7.210938 -6.570312 6.988281 -7.207031 6.59375 -7.65625 C 6.195312 -8.113281 5.65625 -8.34375 4.96875 -8.34375 Z M 4.96875 -8.34375 "/></g></g></g><g fill="#17191a" fill-opacity="1"><g transform="translate(146.319806, 31.534077)"><g><path d="M 0.828125 -4.828125 C 0.828125 -6.285156 1.171875 -7.457031 1.859375 -8.34375 C 2.554688 -9.238281 3.46875 -9.6875 4.59375 -9.6875 C 5.707031 -9.6875 6.585938 -9.304688 7.234375 -8.546875 L 7.234375 -13.5 L 8.859375 -13.5 L 8.859375 0 L 7.359375 0 L 7.28125 -1.015625 C 6.632812 -0.222656 5.734375 0.171875 4.578125 0.171875 C 3.472656 0.171875 2.570312 -0.273438 1.875 -1.171875 C 1.175781 -2.078125 0.828125 -3.257812 0.828125 -4.71875 Z M 2.46875 -4.65625 C 2.46875 -3.570312 2.6875 -2.722656 3.125 -2.109375 C 3.570312 -1.503906 4.1875 -1.203125 4.96875 -1.203125 C 6 -1.203125 6.753906 -1.664062 7.234375 -2.59375 L 7.234375 -6.96875 C 6.742188 -7.863281 6 -8.3125 5 -8.3125 C 4.195312 -8.3125 3.570312 -8 3.125 -7.375 C 2.6875 -6.757812 2.46875 -5.851562 2.46875 -4.65625 Z M 2.46875 -4.65625 "/></g></g></g><g fill="#17191a" fill-opacity="1"><g transform="translate(156.468643, 31.534077)"><g><path d="M 2.765625 -9.515625 L 2.828125 -8.3125 C 3.546875 -9.226562 4.492188 -9.6875 5.671875 -9.6875 C 7.679688 -9.6875 8.691406 -8.550781 8.703125 -6.28125 L 8.703125 0 L 7.078125 0 L 7.078125 -6.296875 C 7.078125 -6.984375 6.921875 -7.488281 6.609375 -7.8125 C 6.304688 -8.144531 5.828125 -8.3125 5.171875 -8.3125 C 4.648438 -8.3125 4.1875 -8.171875 3.78125 -7.890625 C 3.382812 -7.609375 3.078125 -7.238281 2.859375 -6.78125 L 2.859375 0 L 1.234375 0 L 1.234375 -9.515625 Z M 2.765625 -9.515625 "/></g></g></g><g fill="#17191a" fill-opacity="1"><g transform="translate(166.397808, 31.534077)"><g><path d="M 0.796875 -4.84375 C 0.796875 -5.769531 0.976562 -6.601562 1.34375 -7.34375 C 1.71875 -8.09375 2.226562 -8.671875 2.875 -9.078125 C 3.53125 -9.484375 4.273438 -9.6875 5.109375 -9.6875 C 6.410156 -9.6875 7.457031 -9.238281 8.25 -8.34375 C 9.050781 -7.445312 9.453125 -6.253906 9.453125 -4.765625 L 9.453125 -4.65625 C 9.453125 -3.726562 9.273438 -2.894531 8.921875 -2.15625 C 8.566406 -1.425781 8.0625 -0.851562 7.40625 -0.4375 C 6.75 -0.03125 5.992188 0.171875 5.140625 0.171875 C 3.847656 0.171875 2.800781 -0.273438 2 -1.171875 C 1.195312 -2.066406 0.796875 -3.253906 0.796875 -4.734375 Z M 2.4375 -4.65625 C 2.4375 -3.59375 2.679688 -2.742188 3.171875 -2.109375 C 3.660156 -1.472656 4.316406 -1.15625 5.140625 -1.15625 C 5.960938 -1.15625 6.613281 -1.476562 7.09375 -2.125 C 7.582031 -2.769531 7.828125 -3.675781 7.828125 -4.84375 C 7.828125 -5.882812 7.578125 -6.726562 7.078125 -7.375 C 6.585938 -8.019531 5.929688 -8.34375 5.109375 -8.34375 C 4.304688 -8.34375 3.660156 -8.023438 3.171875 -7.390625 C 2.679688 -6.753906 2.4375 -5.84375 2.4375 -4.65625 Z M 2.4375 -4.65625 "/></g></g></g><g fill="#17191a" fill-opacity="1"><g transform="translate(176.660874, 31.534077)"><g><path d="M 6.765625 -2.515625 C 6.765625 -2.960938 6.597656 -3.304688 6.265625 -3.546875 C 5.941406 -3.785156 5.367188 -3.992188 4.546875 -4.171875 C 3.722656 -4.347656 3.066406 -4.554688 2.578125 -4.796875 C 2.097656 -5.046875 1.738281 -5.34375 1.5 -5.6875 C 1.269531 -6.03125 1.15625 -6.4375 1.15625 -6.90625 C 1.15625 -7.675781 1.484375 -8.332031 2.140625 -8.875 C 2.804688 -9.414062 3.648438 -9.6875 4.671875 -9.6875 C 5.753906 -9.6875 6.628906 -9.40625 7.296875 -8.84375 C 7.972656 -8.289062 8.3125 -7.582031 8.3125 -6.71875 L 6.671875 -6.71875 C 6.671875 -7.164062 6.476562 -7.546875 6.09375 -7.859375 C 5.71875 -8.179688 5.242188 -8.34375 4.671875 -8.34375 C 4.078125 -8.34375 3.613281 -8.210938 3.28125 -7.953125 C 2.945312 -7.703125 2.78125 -7.367188 2.78125 -6.953125 C 2.78125 -6.554688 2.9375 -6.257812 3.25 -6.0625 C 3.5625 -5.863281 4.125 -5.671875 4.9375 -5.484375 C 5.75 -5.304688 6.40625 -5.09375 6.90625 -4.84375 C 7.414062 -4.59375 7.789062 -4.289062 8.03125 -3.9375 C 8.269531 -3.582031 8.390625 -3.148438 8.390625 -2.640625 C 8.390625 -1.785156 8.050781 -1.101562 7.375 -0.59375 C 6.695312 -0.0820312 5.816406 0.171875 4.734375 0.171875 C 3.972656 0.171875 3.296875 0.0351562 2.703125 -0.234375 C 2.117188 -0.503906 1.660156 -0.878906 1.328125 -1.359375 C 0.992188 -1.835938 0.828125 -2.359375 0.828125 -2.921875 L 2.46875 -2.921875 C 2.488281 -2.378906 2.703125 -1.945312 3.109375 -1.625 C 3.523438 -1.3125 4.066406 -1.15625 4.734375 -1.15625 C 5.347656 -1.15625 5.835938 -1.28125 6.203125 -1.53125 C 6.578125 -1.78125 6.765625 -2.109375 6.765625 -2.515625 Z M 6.765625 -2.515625 "/></g></g></g><g fill="#17191a" fill-opacity="1"><g transform="translate(185.939811, 31.534077)"><g><path d="M 3.4375 -11.8125 L 3.4375 -9.515625 L 5.21875 -9.515625 L 5.21875 -8.25 L 3.4375 -8.25 L 3.4375 -2.359375 C 3.4375 -1.972656 3.515625 -1.6875 3.671875 -1.5 C 3.828125 -1.3125 4.097656 -1.21875 4.484375 -1.21875 C 4.671875 -1.21875 4.925781 -1.25 5.25 -1.3125 L 5.25 0 C 4.820312 0.113281 4.410156 0.171875 4.015625 0.171875 C 3.285156 0.171875 2.734375 -0.046875 2.359375 -0.484375 C 1.992188 -0.921875 1.8125 -1.546875 1.8125 -2.359375 L 1.8125 -8.25 L 0.078125 -8.25 L 0.078125 -9.515625 L 1.8125 -9.515625 L 1.8125 -11.8125 Z M 3.4375 -11.8125 "/></g></g></g><g fill="#17191a" fill-opacity="1"><g transform="translate(191.818229, 31.534077)"><g/></g></g><g fill="#17191a" fill-opacity="1"><g transform="translate(196.273173, 31.534077)"><g><path d="M 3 0 L 1.375 0 L 1.375 -9.515625 L 3 -9.515625 Z M 1.234375 -12.03125 C 1.234375 -12.289062 1.3125 -12.507812 1.46875 -12.6875 C 1.632812 -12.875 1.875 -12.96875 2.1875 -12.96875 C 2.507812 -12.96875 2.753906 -12.875 2.921875 -12.6875 C 3.085938 -12.507812 3.171875 -12.289062 3.171875 -12.03125 C 3.171875 -11.769531 3.085938 -11.550781 2.921875 -11.375 C 2.753906 -11.195312 2.507812 -11.109375 2.1875 -11.109375 C 1.875 -11.109375 1.632812 -11.195312 1.46875 -11.375 C 1.3125 -11.550781 1.234375 -11.769531 1.234375 -12.03125 Z M 1.234375 -12.03125 "/></g></g></g><g fill="#17191a" fill-opacity="1"><g transform="translate(200.640248, 31.534077)"><g><path d="M 2.765625 -1.328125 L 8.328125 -1.328125 L 8.328125 0 L 0.78125 0 L 0.78125 -1.203125 L 6.015625 -8.171875 L 0.859375 -8.171875 L 0.859375 -9.515625 L 8.0625 -9.515625 L 8.0625 -8.359375 Z M 2.765625 -1.328125 "/></g></g></g><g fill="#17191a" fill-opacity="1"><g transform="translate(209.558923, 31.534077)"><g><path d="M 5.828125 -8.046875 C 5.578125 -8.085938 5.3125 -8.109375 5.03125 -8.109375 C 3.957031 -8.109375 3.234375 -7.65625 2.859375 -6.75 L 2.859375 0 L 1.234375 0 L 1.234375 -9.515625 L 2.8125 -9.515625 L 2.84375 -8.40625 C 3.375 -9.257812 4.128906 -9.6875 5.109375 -9.6875 C 5.421875 -9.6875 5.660156 -9.644531 5.828125 -9.5625 Z M 5.828125 -8.046875 "/></g></g></g><g fill="#17191a" fill-opacity="1"><g transform="translate(215.648225, 31.534077)"><g><path d="M 7.109375 0 C 7.015625 -0.1875 6.9375 -0.519531 6.875 -1 C 6.113281 -0.21875 5.210938 0.171875 4.171875 0.171875 C 3.234375 0.171875 2.460938 -0.09375 1.859375 -0.625 C 1.253906 -1.15625 0.953125 -1.828125 0.953125 -2.640625 C 0.953125 -3.628906 1.328125 -4.394531 2.078125 -4.9375 C 2.835938 -5.488281 3.898438 -5.765625 5.265625 -5.765625 L 6.84375 -5.765625 L 6.84375 -6.515625 C 6.84375 -7.078125 6.671875 -7.523438 6.328125 -7.859375 C 5.992188 -8.203125 5.492188 -8.375 4.828125 -8.375 C 4.253906 -8.375 3.769531 -8.226562 3.375 -7.9375 C 2.976562 -7.644531 2.78125 -7.289062 2.78125 -6.875 L 1.15625 -6.875 C 1.15625 -7.34375 1.320312 -7.796875 1.65625 -8.234375 C 1.988281 -8.679688 2.441406 -9.035156 3.015625 -9.296875 C 3.597656 -9.554688 4.238281 -9.6875 4.9375 -9.6875 C 6.03125 -9.6875 6.882812 -9.410156 7.5 -8.859375 C 8.125 -8.316406 8.445312 -7.5625 8.46875 -6.59375 L 8.46875 -2.21875 C 8.46875 -1.351562 8.582031 -0.660156 8.8125 -0.140625 L 8.8125 0 Z M 4.40625 -1.234375 C 4.914062 -1.234375 5.398438 -1.363281 5.859375 -1.625 C 6.316406 -1.894531 6.644531 -2.238281 6.84375 -2.65625 L 6.84375 -4.609375 L 5.578125 -4.609375 C 3.578125 -4.609375 2.578125 -4.023438 2.578125 -2.859375 C 2.578125 -2.347656 2.75 -1.945312 3.09375 -1.65625 C 3.4375 -1.375 3.875 -1.234375 4.40625 -1.234375 Z M 4.40625 -1.234375 "/></g></g></g><g fill="#17191a" fill-opacity="1"><g transform="translate(225.4368, 31.534077)"><g><path d="M 2.765625 -1.328125 L 8.328125 -1.328125 L 8.328125 0 L 0.78125 0 L 0.78125 -1.203125 L 6.015625 -8.171875 L 0.859375 -8.171875 L 0.859375 -9.515625 L 8.0625 -9.515625 L 8.0625 -8.359375 Z M 2.765625 -1.328125 "/></g></g></g><g fill="#17191a" fill-opacity="1"><g transform="translate(234.355475, 31.534077)"><g><path d="M 7.109375 0 C 7.015625 -0.1875 6.9375 -0.519531 6.875 -1 C 6.113281 -0.21875 5.210938 0.171875 4.171875 0.171875 C 3.234375 0.171875 2.460938 -0.09375 1.859375 -0.625 C 1.253906 -1.15625 0.953125 -1.828125 0.953125 -2.640625 C 0.953125 -3.628906 1.328125 -4.394531 2.078125 -4.9375 C 2.835938 -5.488281 3.898438 -5.765625 5.265625 -5.765625 L 6.84375 -5.765625 L 6.84375 -6.515625 C 6.84375 -7.078125 6.671875 -7.523438 6.328125 -7.859375 C 5.992188 -8.203125 5.492188 -8.375 4.828125 -8.375 C 4.253906 -8.375 3.769531 -8.226562 3.375 -7.9375 C 2.976562 -7.644531 2.78125 -7.289062 2.78125 -6.875 L 1.15625 -6.875 C 1.15625 -7.34375 1.320312 -7.796875 1.65625 -8.234375 C 1.988281 -8.679688 2.441406 -9.035156 3.015625 -9.296875 C 3.597656 -9.554688 4.238281 -9.6875 4.9375 -9.6875 C 6.03125 -9.6875 6.882812 -9.410156 7.5 -8.859375 C 8.125 -8.316406 8.445312 -7.5625 8.46875 -6.59375 L 8.46875 -2.21875 C 8.46875 -1.351562 8.582031 -0.660156 8.8125 -0.140625 L 8.8125 0 Z M 4.40625 -1.234375 C 4.914062 -1.234375 5.398438 -1.363281 5.859375 -1.625 C 6.316406 -1.894531 6.644531 -2.238281 6.84375 -2.65625 L 6.84375 -4.609375 L 5.578125 -4.609375 C 3.578125 -4.609375 2.578125 -4.023438 2.578125 -2.859375 C 2.578125 -2.347656 2.75 -1.945312 3.09375 -1.65625 C 3.4375 -1.375 3.875 -1.234375 4.40625 -1.234375 Z M 4.40625 -1.234375 "/></g></g></g><g fill="#17191a" fill-opacity="1"><g transform="translate(244.143315, 31.534077)"><g/></g></g><g fill="#17191a" fill-opacity="1"><g transform="translate(15.000006, 56.53508)"><g><path d="M 2.765625 -1.328125 L 8.328125 -1.328125 L 8.328125 0 L 0.78125 0 L 0.78125 -1.203125 L 6.015625 -8.171875 L 0.859375 -8.171875 L 0.859375 -9.515625 L 8.0625 -9.515625 L 8.0625 -8.359375 Z M 2.765625 -1.328125 "/></g></g></g><g fill="#17191a" fill-opacity="1"><g transform="translate(23.918681, 56.53508)"><g><path d="M 7.109375 0 C 7.015625 -0.1875 6.9375 -0.519531 6.875 -1 C 6.113281 -0.21875 5.210938 0.171875 4.171875 0.171875 C 3.234375 0.171875 2.460938 -0.09375 1.859375 -0.625 C 1.253906 -1.15625 0.953125 -1.828125 0.953125 -2.640625 C 0.953125 -3.628906 1.328125 -4.394531 2.078125 -4.9375 C 2.835938 -5.488281 3.898438 -5.765625 5.265625 -5.765625 L 6.84375 -5.765625 L 6.84375 -6.515625 C 6.84375 -7.078125 6.671875 -7.523438 6.328125 -7.859375 C 5.992188 -8.203125 5.492188 -8.375 4.828125 -8.375 C 4.253906 -8.375 3.769531 -8.226562 3.375 -7.9375 C 2.976562 -7.644531 2.78125 -7.289062 2.78125 -6.875 L 1.15625 -6.875 C 1.15625 -7.34375 1.320312 -7.796875 1.65625 -8.234375 C 1.988281 -8.679688 2.441406 -9.035156 3.015625 -9.296875 C 3.597656 -9.554688 4.238281 -9.6875 4.9375 -9.6875 C 6.03125 -9.6875 6.882812 -9.410156 7.5 -8.859375 C 8.125 -8.316406 8.445312 -7.5625 8.46875 -6.59375 L 8.46875 -2.21875 C 8.46875 -1.351562 8.582031 -0.660156 8.8125 -0.140625 L 8.8125 0 Z M 4.40625 -1.234375 C 4.914062 -1.234375 5.398438 -1.363281 5.859375 -1.625 C 6.316406 -1.894531 6.644531 -2.238281 6.84375 -2.65625 L 6.84375 -4.609375 L 5.578125 -4.609375 C 3.578125 -4.609375 2.578125 -4.023438 2.578125 -2.859375 C 2.578125 -2.347656 2.75 -1.945312 3.09375 -1.65625 C 3.4375 -1.375 3.875 -1.234375 4.40625 -1.234375 Z M 4.40625 -1.234375 "/></g></g></g><g fill="#17191a" fill-opacity="1"><g transform="translate(33.707256, 56.53508)"><g/></g></g><g fill="#17191a" fill-opacity="1"><g transform="translate(38.1622, 56.53508)"><g><path d="M 4.421875 -6.03125 L 6.53125 -9.515625 L 8.421875 -9.515625 L 5.3125 -4.8125 L 8.53125 0 L 6.640625 0 L 4.453125 -3.5625 L 2.25 0 L 0.359375 0 L 3.5625 -4.8125 L 0.453125 -9.515625 L 2.34375 -9.515625 Z M 4.421875 -6.03125 "/></g></g></g><g fill="#17191a" fill-opacity="1"><g transform="translate(47.080875, 56.53508)"><g><path d="M 8.671875 -7.15625 L 1.34375 -7.15625 L 1.34375 -8.5625 L 8.671875 -8.5625 Z M 8.671875 -3.5 L 1.34375 -3.5 L 1.34375 -4.90625 L 8.671875 -4.90625 Z M 8.671875 -3.5 "/></g></g></g><g fill="#17191a" fill-opacity="1"><g transform="translate(56.957319, 56.53508)"><g><path d="M 9.453125 0 L 1.0625 0 L 1.0625 -1.171875 L 5.5 -6.09375 C 6.15625 -6.832031 6.601562 -7.4375 6.84375 -7.90625 C 7.09375 -8.375 7.21875 -8.859375 7.21875 -9.359375 C 7.21875 -10.023438 7.015625 -10.570312 6.609375 -11 C 6.210938 -11.425781 5.675781 -11.640625 5 -11.640625 C 4.1875 -11.640625 3.554688 -11.40625 3.109375 -10.9375 C 2.660156 -10.476562 2.4375 -9.84375 2.4375 -9.03125 L 0.8125 -9.03125 C 0.8125 -10.207031 1.191406 -11.15625 1.953125 -11.875 C 2.710938 -12.601562 3.726562 -12.96875 5 -12.96875 C 6.1875 -12.96875 7.125 -12.65625 7.8125 -12.03125 C 8.507812 -11.40625 8.859375 -10.578125 8.859375 -9.546875 C 8.859375 -8.285156 8.054688 -6.785156 6.453125 -5.046875 L 3.03125 -1.328125 L 9.453125 -1.328125 Z M 9.453125 0 "/></g></g></g><g fill="#17191a" fill-opacity="1"><g transform="translate(67.062222, 56.53508)"><g><path d="M 1.265625 -0.859375 C 1.265625 -1.140625 1.347656 -1.375 1.515625 -1.5625 C 1.679688 -1.75 1.929688 -1.84375 2.265625 -1.84375 C 2.597656 -1.84375 2.847656 -1.75 3.015625 -1.5625 C 3.191406 -1.375 3.28125 -1.140625 3.28125 -0.859375 C 3.28125 -0.585938 3.191406 -0.359375 3.015625 -0.171875 C 2.847656 0.00390625 2.597656 0.09375 2.265625 0.09375 C 1.929688 0.09375 1.679688 0.00390625 1.515625 -0.171875 C 1.347656 -0.359375 1.265625 -0.585938 1.265625 -0.859375 Z M 1.265625 -0.859375 "/></g></g></g><g fill="#17191a" fill-opacity="1"><g transform="translate(71.798346, 56.53508)"><g><path d="M 3.421875 -7.1875 L 4.65625 -7.1875 C 5.414062 -7.195312 6.015625 -7.398438 6.453125 -7.796875 C 6.898438 -8.191406 7.125 -8.722656 7.125 -9.390625 C 7.125 -10.890625 6.375 -11.640625 4.875 -11.640625 C 4.175781 -11.640625 3.613281 -11.4375 3.1875 -11.03125 C 2.769531 -10.632812 2.5625 -10.101562 2.5625 -9.4375 L 0.9375 -9.4375 C 0.9375 -10.445312 1.304688 -11.285156 2.046875 -11.953125 C 2.796875 -12.628906 3.738281 -12.96875 4.875 -12.96875 C 6.082031 -12.96875 7.03125 -12.648438 7.71875 -12.015625 C 8.40625 -11.378906 8.75 -10.492188 8.75 -9.359375 C 8.75 -8.796875 8.566406 -8.253906 8.203125 -7.734375 C 7.847656 -7.210938 7.359375 -6.820312 6.734375 -6.5625 C 7.429688 -6.34375 7.972656 -5.972656 8.359375 -5.453125 C 8.742188 -4.941406 8.9375 -4.3125 8.9375 -3.5625 C 8.9375 -2.414062 8.5625 -1.503906 7.8125 -0.828125 C 7.0625 -0.160156 6.082031 0.171875 4.875 0.171875 C 3.675781 0.171875 2.703125 -0.148438 1.953125 -0.796875 C 1.203125 -1.453125 0.828125 -2.3125 0.828125 -3.375 L 2.46875 -3.375 C 2.46875 -2.695312 2.6875 -2.15625 3.125 -1.75 C 3.5625 -1.351562 4.148438 -1.15625 4.890625 -1.15625 C 5.671875 -1.15625 6.269531 -1.359375 6.6875 -1.765625 C 7.101562 -2.171875 7.3125 -2.757812 7.3125 -3.53125 C 7.3125 -4.28125 7.082031 -4.851562 6.625 -5.25 C 6.164062 -5.644531 5.507812 -5.847656 4.65625 -5.859375 L 3.421875 -5.859375 Z M 3.421875 -7.1875 "/></g></g></g><g fill="#17191a" fill-opacity="1"><g transform="translate(81.903248, 56.53508)"><g/></g></g><g fill="#17191a" fill-opacity="1"><g transform="translate(86.358192, 56.53508)"><g><path d="M 1.265625 -0.859375 C 1.265625 -1.140625 1.347656 -1.375 1.515625 -1.5625 C 1.679688 -1.75 1.929688 -1.84375 2.265625 -1.84375 C 2.597656 -1.84375 2.847656 -1.75 3.015625 -1.5625 C 3.191406 -1.375 3.28125 -1.140625 3.28125 -0.859375 C 3.28125 -0.585938 3.191406 -0.359375 3.015625 -0.171875 C 2.847656 0.00390625 2.597656 0.09375 2.265625 0.09375 C 1.929688 0.09375 1.679688 0.00390625 1.515625 -0.171875 C 1.347656 -0.359375 1.265625 -0.585938 1.265625 -0.859375 Z M 1.265625 -0.859375 "/></g></g></g><g fill="#17191a" fill-opacity="1"><g transform="translate(91.0903, 56.53508)"><g/></g></g><g fill="#17191a" fill-opacity="1"><g transform="translate(95.545244, 56.53508)"><g/></g></g><g fill="#17191a" fill-opacity="1"><g transform="translate(104.455132, 56.53508)"><g/></g></g><g fill="#17191a" fill-opacity="1"><g transform="translate(108.910076, 56.53508)"><g/></g></g><g fill="#17191a" fill-opacity="1"><g transform="translate(113.365021, 56.53508)"><g/></g></g><g fill="#17191a" fill-opacity="1"><g transform="translate(117.819965, 56.53508)"><g/></g></g><g fill="#17191a" fill-opacity="1"><g transform="translate(122.274909, 56.53508)"><g/></g></g><g fill="#17191a" fill-opacity="1"><g transform="translate(126.729853, 56.53508)"><g/></g></g><g fill="#17191a" fill-opacity="1"><g transform="translate(131.184797, 56.53508)"><g/></g></g><g fill="#17191a" fill-opacity="1"><g transform="translate(135.639741, 56.53508)"><g/></g></g><g fill="#17191a" fill-opacity="1"><g transform="translate(140.094685, 56.53508)"><g/></g></g><g fill="#17191a" fill-opacity="1"><g transform="translate(144.549629, 56.53508)"><g/></g></g><g fill="#17191a" fill-opacity="1"><g transform="translate(149.004573, 56.53508)"><g/></g></g><g fill="#17191a" fill-opacity="1"><g transform="translate(153.459517, 56.53508)"><g/></g></g><g fill="#17191a" fill-opacity="1"><g transform="translate(157.914461, 56.53508)"><g/></g></g><g fill="#17191a" fill-opacity="1"><g transform="translate(162.369405, 56.53508)"><g/></g></g><g fill="#17191a" fill-opacity="1"><g transform="translate(166.824349, 56.53508)"><g/></g></g><g fill="#17191a" fill-opacity="1"><g transform="translate(171.279293, 56.53508)"><g/></g></g><g fill="#17191a" fill-opacity="1"><g transform="translate(175.734237, 56.53508)"><g/></g></g><g fill="#17191a" fill-opacity="1"><g transform="translate(180.189181, 56.53508)"><g/></g></g><g fill="#17191a" fill-opacity="1"><g transform="translate(184.644125, 56.53508)"><g/></g></g><g fill="#17191a" fill-opacity="1"><g transform="translate(189.099069, 56.53508)"><g/></g></g><g fill="#17191a" fill-opacity="1"><g transform="translate(193.554013, 56.53508)"><g/></g></g><g fill="#17191a" fill-opacity="1"><g transform="translate(198.008957, 56.53508)"><g/></g></g><g fill="#17191a" fill-opacity="1"><g transform="translate(202.463901, 56.53508)"><g/></g></g><g fill="#17191a" fill-opacity="1"><g transform="translate(206.918845, 56.53508)"><g/></g></g><g fill="#17191a" fill-opacity="1"><g transform="translate(211.373789, 56.53508)"><g/></g></g><g fill="#17191a" fill-opacity="1"><g transform="translate(215.828734, 56.53508)"><g/></g></g><g fill="#17191a" fill-opacity="1"><g transform="translate(220.283678, 56.53508)"><g/></g></g><g fill="#17191a" fill-opacity="1"><g transform="translate(224.738622, 56.53508)"><g/></g></g><g fill="#17191a" fill-opacity="1"><g transform="translate(229.193566, 56.53508)"><g/></g></g><g fill="#17191a" fill-opacity="1"><g transform="translate(233.64851, 56.53508)"><g/></g></g><g fill="#17191a" fill-opacity="1"><g transform="translate(238.103454, 56.53508)"><g/></g></g><g fill="#17191a" fill-opacity="1"><g transform="translate(242.558398, 56.53508)"><g/></g></g><g fill="#17191a" fill-opacity="1"><g transform="translate(247.013342, 56.53508)"><g/></g></g><g fill="#17191a" fill-opacity="1"><g transform="translate(251.468286, 56.53508)"><g/></g></g><g fill="#17191a" fill-opacity="1"><g transform="translate(255.92323, 56.53508)"><g/></g></g><g fill="#17191a" fill-opacity="1"><g transform="translate(260.378174, 56.53508)"><g/></g></g><g fill="#17191a" fill-opacity="1"><g transform="translate(264.833118, 56.53508)"><g/></g></g><g fill="#17191a" fill-opacity="1"><g transform="translate(269.288062, 56.53508)"><g/></g></g><g fill="#17191a" fill-opacity="1"><g transform="translate(273.743006, 56.53508)"><g/></g></g><g fill="#17191a" fill-opacity="1"><g transform="translate(278.19795, 56.53508)"><g/></g></g><g fill="#17191a" fill-opacity="1"><g transform="translate(282.652894, 56.53508)"><g/></g></g><g fill="#17191a" fill-opacity="1"><g transform="translate(287.107838, 56.53508)"><g/></g></g><g fill="#17191a" fill-opacity="1"><g transform="translate(291.562782, 56.53508)"><g/></g></g><path fill="#17191a" d="M 250.527344 11.394531 C 251.242188 11.628906 251.824219 11.644531 252.007812 11.644531 C 253.882812 11.644531 255.078125 10.257812 255.078125 10.023438 C 255.078125 9.957031 255.042969 9.875 254.945312 9.875 C 254.910156 9.875 254.878906 9.875 254.730469 9.941406 C 253.800781 10.34375 253.003906 10.390625 252.570312 10.390625 C 251.476562 10.390625 250.695312 10.058594 250.378906 9.925781 C 250.261719 9.875 250.230469 9.875 250.210938 9.875 C 250.078125 9.875 250.078125 9.976562 250.078125 10.242188 L 250.078125 15.203125 C 250.078125 15.503906 250.078125 15.601562 250.277344 15.601562 C 250.363281 15.601562 250.378906 15.585938 250.542969 15.386719 C 251.011719 14.699219 251.789062 14.300781 252.621094 14.300781 C 253.5 14.300781 253.933594 15.117188 254.066406 15.402344 C 254.347656 16.054688 254.363281 16.871094 254.363281 17.507812 C 254.363281 18.140625 254.363281 19.09375 253.898438 19.84375 C 253.535156 20.445312 252.886719 20.863281 252.15625 20.863281 C 251.058594 20.863281 249.980469 20.109375 249.679688 18.890625 C 249.765625 18.925781 249.863281 18.941406 249.945312 18.941406 C 250.230469 18.941406 250.675781 18.773438 250.675781 18.207031 C 250.675781 17.738281 250.363281 17.472656 249.945312 17.472656 C 249.648438 17.472656 249.214844 17.621094 249.214844 18.273438 C 249.214844 19.695312 250.34375 21.3125 252.1875 21.3125 C 254.066406 21.3125 255.707031 19.726562 255.707031 17.605469 C 255.707031 15.621094 254.378906 13.964844 252.636719 13.964844 C 251.691406 13.964844 250.960938 14.382812 250.527344 14.851562 Z M 250.527344 11.394531 " fill-opacity="1" fill-rule="nonzero"/><path fill="#17191a" d="M 264.402344 14.148438 C 263.871094 14.25 263.671875 14.652344 263.671875 14.96875 C 263.671875 15.367188 263.988281 15.503906 264.21875 15.503906 C 264.71875 15.503906 265.066406 15.066406 265.066406 14.617188 C 265.066406 13.914062 264.269531 13.597656 263.570312 13.597656 C 262.558594 13.597656 261.996094 14.601562 261.84375 14.917969 C 261.464844 13.664062 260.433594 13.597656 260.136719 13.597656 C 258.441406 13.597656 257.542969 15.785156 257.542969 16.152344 C 257.542969 16.21875 257.609375 16.304688 257.726562 16.304688 C 257.859375 16.304688 257.894531 16.203125 257.925781 16.136719 C 258.492188 14.285156 259.605469 13.933594 260.085938 13.933594 C 260.832031 13.933594 260.980469 14.632812 260.980469 15.035156 C 260.980469 15.402344 260.882812 15.785156 260.683594 16.585938 L 260.117188 18.875 C 259.871094 19.878906 259.386719 20.796875 258.507812 20.796875 C 258.425781 20.796875 258.007812 20.796875 257.660156 20.578125 C 258.257812 20.460938 258.390625 19.960938 258.390625 19.761719 C 258.390625 19.425781 258.140625 19.226562 257.828125 19.226562 C 257.429688 19.226562 256.996094 19.578125 256.996094 20.109375 C 256.996094 20.8125 257.777344 21.128906 258.492188 21.128906 C 259.289062 21.128906 259.851562 20.496094 260.203125 19.808594 C 260.46875 20.796875 261.296875 21.128906 261.910156 21.128906 C 263.605469 21.128906 264.5 18.941406 264.5 18.574219 C 264.5 18.492188 264.433594 18.425781 264.335938 18.425781 C 264.1875 18.425781 264.167969 18.507812 264.121094 18.640625 C 263.671875 20.109375 262.707031 20.796875 261.960938 20.796875 C 261.378906 20.796875 261.066406 20.363281 261.066406 19.675781 C 261.066406 19.308594 261.132812 19.042969 261.398438 17.941406 L 261.976562 15.667969 C 262.226562 14.667969 262.792969 13.933594 263.554688 13.933594 C 263.589844 13.933594 264.054688 13.933594 264.402344 14.148438 Z M 264.402344 14.148438 " fill-opacity="1" fill-rule="nonzero"/><g clip-path="url(#88e3e91d5f)"><path fill="#17191a" d="M 268.890625 12.632812 C 269.070312 12.464844 269.535156 12.097656 269.710938 11.941406 C 270.398438 11.308594 271.050781 10.695312 271.050781 9.683594 C 271.050781 8.359375 269.945312 7.5 268.558594 7.5 C 267.230469 7.5 266.355469 8.511719 266.355469 9.503906 C 266.355469 10.050781 266.789062 10.128906 266.945312 10.128906 C 267.175781 10.128906 267.519531 9.960938 267.519531 9.539062 C 267.519531 8.957031 266.964844 8.957031 266.832031 8.957031 C 267.15625 8.144531 267.894531 7.867188 268.4375 7.867188 C 269.46875 7.867188 270 8.746094 270 9.683594 C 270 10.839844 269.191406 11.6875 267.886719 13.035156 L 266.488281 14.480469 C 266.355469 14.601562 266.355469 14.625 266.355469 14.902344 L 270.730469 14.902344 L 271.050781 12.910156 L 270.707031 12.910156 C 270.675781 13.132812 270.585938 13.691406 270.453125 13.902344 C 270.386719 13.992188 269.546875 13.992188 269.367188 13.992188 L 267.398438 13.992188 Z M 268.890625 12.632812 " fill-opacity="1" fill-rule="nonzero"/></g><path fill="#17191a" d="M 286.976562 17.121094 C 287.257812 17.121094 287.554688 17.121094 287.554688 16.789062 C 287.554688 16.453125 287.257812 16.453125 286.976562 16.453125 L 277.992188 16.453125 C 277.710938 16.453125 277.410156 16.453125 277.410156 16.789062 C 277.410156 17.121094 277.710938 17.121094 277.992188 17.121094 Z M 286.976562 17.121094 " fill-opacity="1" fill-rule="nonzero"/><path fill="#17191a" d="M 295.691406 14.96875 C 295.410156 14.984375 295.34375 15 295.34375 15.152344 C 295.34375 15.320312 295.425781 15.320312 295.726562 15.320312 L 296.488281 15.320312 C 297.898438 15.320312 298.53125 16.488281 298.53125 18.089844 C 298.53125 20.277344 297.402344 20.863281 296.589844 20.863281 C 295.792969 20.863281 294.429688 20.476562 293.949219 19.375 C 294.480469 19.460938 294.960938 19.160156 294.960938 18.558594 C 294.960938 18.074219 294.613281 17.738281 294.148438 17.738281 C 293.75 17.738281 293.316406 17.972656 293.316406 18.609375 C 293.316406 20.09375 294.796875 21.3125 296.636719 21.3125 C 298.613281 21.3125 300.074219 19.792969 300.074219 18.105469 C 300.074219 16.570312 298.847656 15.367188 297.253906 15.085938 C 298.695312 14.667969 299.628906 13.449219 299.628906 12.144531 C 299.628906 10.828125 298.265625 9.859375 296.65625 9.859375 C 294.996094 9.859375 293.765625 10.875 293.765625 12.097656 C 293.765625 12.765625 294.28125 12.898438 294.53125 12.898438 C 294.878906 12.898438 295.277344 12.648438 295.277344 12.144531 C 295.277344 11.613281 294.878906 11.378906 294.511719 11.378906 C 294.414062 11.378906 294.378906 11.378906 294.332031 11.394531 C 294.960938 10.257812 296.523438 10.257812 296.605469 10.257812 C 297.152344 10.257812 298.230469 10.507812 298.230469 12.144531 C 298.230469 12.464844 298.183594 13.398438 297.699219 14.117188 C 297.203125 14.851562 296.636719 14.902344 296.191406 14.917969 Z M 295.691406 14.96875 " fill-opacity="1" fill-rule="nonzero"/><path fill="#17191a" d="M 308.636719 14.148438 C 308.105469 14.25 307.90625 14.652344 307.90625 14.96875 C 307.90625 15.367188 308.222656 15.503906 308.453125 15.503906 C 308.953125 15.503906 309.300781 15.066406 309.300781 14.617188 C 309.300781 13.914062 308.503906 13.597656 307.804688 13.597656 C 306.792969 13.597656 306.226562 14.601562 306.078125 14.917969 C 305.695312 13.664062 304.667969 13.597656 304.367188 13.597656 C 302.675781 13.597656 301.777344 15.785156 301.777344 16.152344 C 301.777344 16.21875 301.84375 16.304688 301.960938 16.304688 C 302.09375 16.304688 302.128906 16.203125 302.160156 16.136719 C 302.726562 14.285156 303.835938 13.933594 304.320312 13.933594 C 305.066406 13.933594 305.214844 14.632812 305.214844 15.035156 C 305.214844 15.402344 305.117188 15.785156 304.917969 16.585938 L 304.351562 18.875 C 304.101562 19.878906 303.621094 20.796875 302.742188 20.796875 C 302.660156 20.796875 302.242188 20.796875 301.894531 20.578125 C 302.492188 20.460938 302.625 19.960938 302.625 19.761719 C 302.625 19.425781 302.375 19.226562 302.0625 19.226562 C 301.664062 19.226562 301.230469 19.578125 301.230469 20.109375 C 301.230469 20.8125 302.011719 21.128906 302.726562 21.128906 C 303.523438 21.128906 304.085938 20.496094 304.433594 19.808594 C 304.699219 20.796875 305.53125 21.128906 306.144531 21.128906 C 307.839844 21.128906 308.734375 18.941406 308.734375 18.574219 C 308.734375 18.492188 308.667969 18.425781 308.570312 18.425781 C 308.421875 18.425781 308.402344 18.507812 308.355469 18.640625 C 307.90625 20.109375 306.941406 20.796875 306.195312 20.796875 C 305.613281 20.796875 305.296875 20.363281 305.296875 19.675781 C 305.296875 19.308594 305.363281 19.042969 305.628906 17.941406 L 306.210938 15.667969 C 306.460938 14.667969 307.027344 13.933594 307.789062 13.933594 C 307.824219 13.933594 308.289062 13.933594 308.636719 14.148438 Z M 308.636719 14.148438 " fill-opacity="1" fill-rule="nonzero"/><path fill="#17191a" d="M 324.636719 17.121094 C 324.917969 17.121094 325.21875 17.121094 325.21875 16.789062 C 325.21875 16.453125 324.917969 16.453125 324.636719 16.453125 L 315.652344 16.453125 C 315.371094 16.453125 315.074219 16.453125 315.074219 16.789062 C 315.074219 17.121094 315.371094 17.121094 315.652344 17.121094 Z M 324.636719 17.121094 " fill-opacity="1" fill-rule="nonzero"/><path fill="#17191a" d="M 335.082031 10.257812 C 335.082031 9.875 335.082031 9.859375 334.75 9.859375 C 334.351562 10.308594 333.519531 10.925781 331.808594 10.925781 L 331.808594 11.410156 C 332.191406 11.410156 333.019531 11.410156 333.933594 10.976562 L 333.933594 19.675781 C 333.933594 20.277344 333.886719 20.476562 332.421875 20.476562 L 331.910156 20.476562 L 331.910156 20.960938 C 332.355469 20.929688 333.96875 20.929688 334.515625 20.929688 C 335.0625 20.929688 336.65625 20.929688 337.105469 20.960938 L 337.105469 20.476562 L 336.589844 20.476562 C 335.128906 20.476562 335.082031 20.277344 335.082031 19.675781 Z M 335.082031 10.257812 " fill-opacity="1" fill-rule="nonzero"/><g clip-path="url(#7c4996eb8f)"><path fill="#17191a" d="M 248.402344 27.75 L 338.425781 27.75 L 338.425781 28.417969 L 248.402344 28.417969 Z M 248.402344 27.75 " fill-opacity="1" fill-rule="nonzero"/></g><path fill="#17191a" d="M 275.140625 39.871094 C 275.421875 39.871094 275.71875 39.871094 275.71875 39.539062 C 275.71875 39.203125 275.421875 39.203125 275.140625 39.203125 L 266.15625 39.203125 C 265.875 39.203125 265.574219 39.203125 265.574219 39.539062 C 265.574219 39.871094 265.875 39.871094 266.15625 39.871094 Z M 275.140625 39.871094 " fill-opacity="1" fill-rule="nonzero"/><path fill="#17191a" d="M 284.417969 40.90625 L 284.050781 40.90625 C 284.003906 41.191406 283.871094 42.109375 283.703125 42.378906 C 283.585938 42.527344 282.640625 42.527344 282.144531 42.527344 L 279.070312 42.527344 C 279.519531 42.144531 280.53125 41.074219 280.964844 40.675781 C 283.488281 38.335938 284.417969 37.46875 284.417969 35.816406 C 284.417969 33.894531 282.90625 32.609375 280.980469 32.609375 C 279.054688 32.609375 277.925781 34.261719 277.925781 35.699219 C 277.925781 36.550781 278.65625 36.550781 278.707031 36.550781 C 279.054688 36.550781 279.488281 36.300781 279.488281 35.765625 C 279.488281 35.296875 279.171875 34.980469 278.707031 34.980469 C 278.554688 34.980469 278.523438 34.980469 278.472656 34.996094 C 278.789062 33.859375 279.6875 33.09375 280.765625 33.09375 C 282.175781 33.09375 283.039062 34.277344 283.039062 35.816406 C 283.039062 37.234375 282.226562 38.46875 281.28125 39.539062 L 277.925781 43.3125 L 277.925781 43.714844 L 283.984375 43.714844 Z M 284.417969 40.90625 " fill-opacity="1" fill-rule="nonzero"/><path fill="#17191a" d="M 293.113281 36.898438 C 292.578125 37 292.378906 37.402344 292.378906 37.71875 C 292.378906 38.117188 292.695312 38.253906 292.929688 38.253906 C 293.425781 38.253906 293.777344 37.820312 293.777344 37.367188 C 293.777344 36.667969 292.980469 36.347656 292.28125 36.347656 C 291.269531 36.347656 290.703125 37.351562 290.554688 37.667969 C 290.171875 36.414062 289.144531 36.347656 288.84375 36.347656 C 287.152344 36.347656 286.253906 38.535156 286.253906 38.902344 C 286.253906 38.972656 286.320312 39.054688 286.4375 39.054688 C 286.570312 39.054688 286.601562 38.953125 286.636719 38.886719 C 287.199219 37.035156 288.3125 36.683594 288.792969 36.683594 C 289.542969 36.683594 289.691406 37.382812 289.691406 37.785156 C 289.691406 38.152344 289.589844 38.535156 289.390625 39.339844 L 288.828125 41.625 C 288.578125 42.628906 288.097656 43.546875 287.21875 43.546875 C 287.132812 43.546875 286.71875 43.546875 286.371094 43.328125 C 286.96875 43.210938 287.101562 42.710938 287.101562 42.511719 C 287.101562 42.175781 286.851562 41.976562 286.535156 41.976562 C 286.136719 41.976562 285.707031 42.328125 285.707031 42.863281 C 285.707031 43.5625 286.488281 43.878906 287.199219 43.878906 C 287.996094 43.878906 288.5625 43.246094 288.910156 42.5625 C 289.175781 43.546875 290.007812 43.878906 290.621094 43.878906 C 292.3125 43.878906 293.210938 41.691406 293.210938 41.324219 C 293.210938 41.242188 293.144531 41.175781 293.046875 41.175781 C 292.894531 41.175781 292.878906 41.257812 292.828125 41.390625 C 292.378906 42.863281 291.417969 43.546875 290.671875 43.546875 C 290.089844 43.546875 289.773438 43.113281 289.773438 42.425781 C 289.773438 42.058594 289.839844 41.792969 290.105469 40.691406 L 290.6875 38.417969 C 290.9375 37.417969 291.5 36.683594 292.265625 36.683594 C 292.296875 36.683594 292.761719 36.683594 293.113281 36.898438 Z M 293.113281 36.898438 " fill-opacity="1" fill-rule="nonzero"/><path fill="#17191a" d="M 304.792969 39.855469 L 309.375 39.855469 C 309.609375 39.855469 309.90625 39.855469 309.90625 39.554688 C 309.90625 39.238281 309.625 39.238281 309.375 39.238281 L 304.792969 39.238281 L 304.792969 34.628906 C 304.792969 34.394531 304.792969 34.09375 304.496094 34.09375 C 304.179688 34.09375 304.179688 34.378906 304.179688 34.628906 L 304.179688 39.238281 L 299.597656 39.238281 C 299.363281 39.238281 299.066406 39.238281 299.066406 39.539062 C 299.066406 39.855469 299.347656 39.855469 299.597656 39.855469 L 304.179688 39.855469 L 304.179688 44.464844 C 304.179688 44.699219 304.179688 45 304.476562 45 C 304.792969 45 304.792969 44.714844 304.792969 44.464844 Z M 304.792969 39.855469 " fill-opacity="1" fill-rule="nonzero"/><path fill="#17191a" d="M 322.390625 33.34375 L 322.390625 32.960938 L 318.390625 32.960938 C 316.378906 32.960938 316.347656 32.742188 316.28125 32.425781 L 315.914062 32.425781 L 315.402344 35.765625 L 315.765625 35.765625 C 315.816406 35.464844 315.964844 34.429688 316.179688 34.246094 C 316.3125 34.144531 317.558594 34.144531 317.792969 34.144531 L 321.3125 34.144531 L 319.550781 36.683594 C 319.105469 37.335938 317.425781 40.074219 317.425781 43.210938 C 317.425781 43.394531 317.425781 44.0625 318.105469 44.0625 C 318.804688 44.0625 318.804688 43.414062 318.804688 43.195312 L 318.804688 42.359375 C 318.804688 39.871094 319.203125 37.933594 319.984375 36.816406 Z M 322.390625 33.34375 " fill-opacity="1" fill-rule="nonzero"/></svg>