<svg xmlns="http://www.w3.org/2000/svg" xmlns:xlink="http://www.w3.org/1999/xlink" width="500" zoomAndPan="magnify" viewBox="0 0 375 74.999997" height="100" preserveAspectRatio="xMidYMid meet" version="1.0"><defs><g/><clipPath id="d00fbf99d9"><path d="M 50 40 L 56 40 L 56 62.199219 L 50 62.199219 Z M 50 40 " clip-rule="nonzero"/></clipPath><clipPath id="b5835c1e1c"><path d="M 116 40 L 122 40 L 122 62.199219 L 116 62.199219 Z M 116 40 " clip-rule="nonzero"/></clipPath><clipPath id="c707405906"><path d="M 151 40 L 157 40 L 157 62.199219 L 151 62.199219 Z M 151 40 " clip-rule="nonzero"/></clipPath><clipPath id="ca3960c76a"><path d="M 207 40 L 213 40 L 213 62.199219 L 207 62.199219 Z M 207 40 " clip-rule="nonzero"/></clipPath><clipPath id="9d76076ee0"><path d="M 215 38.199219 L 221.417969 38.199219 L 221.417969 48 L 215 48 Z M 215 38.199219 " clip-rule="nonzero"/></clipPath></defs><g fill="#17191a" fill-opacity="1"><g transform="translate(15.000006, 31.534074)"><g><path d="M 9.453125 0 L 1.0625 0 L 1.0625 -1.171875 L 5.5 -6.09375 C 6.15625 -6.832031 6.601562 -7.4375 6.84375 -7.90625 C 7.09375 -8.375 7.21875 -8.859375 7.21875 -9.359375 C 7.21875 -10.023438 7.015625 -10.570312 6.609375 -11 C 6.210938 -11.425781 5.675781 -11.640625 5 -11.640625 C 4.1875 -11.640625 3.554688 -11.40625 3.109375 -10.9375 C 2.660156 -10.476562 2.4375 -9.84375 2.4375 -9.03125 L 0.8125 -9.03125 C 0.8125 -10.207031 1.191406 -11.15625 1.953125 -11.875 C 2.710938 -12.601562 3.726562 -12.96875 5 -12.96875 C 6.1875 -12.96875 7.125 -12.65625 7.8125 -12.03125 C 8.507812 -11.40625 8.859375 -10.578125 8.859375 -9.546875 C 8.859375 -8.285156 8.054688 -6.785156 6.453125 -5.046875 L 3.03125 -1.328125 L 9.453125 -1.328125 Z M 9.453125 0 "/></g></g></g><g fill="#17191a" fill-opacity="1"><g transform="translate(25.104909, 31.534074)"><g><path d="M 4.984375 -5.109375 C 4.984375 -3.796875 4.8125 -2.539062 4.46875 -1.34375 C 4.125 -0.144531 3.597656 0.957031 2.890625 1.96875 C 2.191406 2.976562 1.453125 3.695312 0.671875 4.125 L 0.328125 3.140625 C 1.234375 2.441406 1.957031 1.367188 2.5 -0.078125 C 3.050781 -1.535156 3.332031 -3.15625 3.34375 -4.9375 L 3.34375 -5.21875 C 3.34375 -6.445312 3.210938 -7.585938 2.953125 -8.640625 C 2.703125 -9.703125 2.347656 -10.648438 1.890625 -11.484375 C 1.429688 -12.328125 0.910156 -12.984375 0.328125 -13.453125 L 0.671875 -14.4375 C 1.453125 -14.007812 2.191406 -13.296875 2.890625 -12.296875 C 3.585938 -11.296875 4.109375 -10.191406 4.453125 -8.984375 C 4.804688 -7.773438 4.984375 -6.484375 4.984375 -5.109375 Z M 4.984375 -5.109375 "/></g></g></g><g fill="#17191a" fill-opacity="1"><g transform="translate(31.361161, 31.534074)"><g/></g></g><g fill="#17191a" fill-opacity="1"><g transform="translate(35.816106, 31.534074)"><g><path d="M 10.90625 -4.0625 C 10.738281 -2.707031 10.234375 -1.660156 9.390625 -0.921875 C 8.554688 -0.191406 7.441406 0.171875 6.046875 0.171875 C 4.535156 0.171875 3.320312 -0.367188 2.40625 -1.453125 C 1.5 -2.535156 1.046875 -3.984375 1.046875 -5.796875 L 1.046875 -7.03125 C 1.046875 -8.21875 1.257812 -9.257812 1.6875 -10.15625 C 2.113281 -11.0625 2.710938 -11.753906 3.484375 -12.234375 C 4.265625 -12.722656 5.171875 -12.96875 6.203125 -12.96875 C 7.554688 -12.96875 8.644531 -12.585938 9.46875 -11.828125 C 10.289062 -11.078125 10.769531 -10.03125 10.90625 -8.6875 L 9.203125 -8.6875 C 9.054688 -9.707031 8.738281 -10.441406 8.25 -10.890625 C 7.757812 -11.347656 7.078125 -11.578125 6.203125 -11.578125 C 5.117188 -11.578125 4.269531 -11.175781 3.65625 -10.375 C 3.050781 -9.582031 2.75 -8.453125 2.75 -6.984375 L 2.75 -5.75 C 2.75 -4.363281 3.035156 -3.257812 3.609375 -2.4375 C 4.191406 -1.613281 5.003906 -1.203125 6.046875 -1.203125 C 6.984375 -1.203125 7.703125 -1.414062 8.203125 -1.84375 C 8.703125 -2.269531 9.035156 -3.007812 9.203125 -4.0625 Z M 5.96875 -15.03125 L 7.28125 -16.515625 L 8.6875 -16.515625 L 8.6875 -16.4375 L 6.453125 -14.03125 L 5.46875 -14.03125 L 3.25 -16.4375 L 3.25 -16.515625 L 4.640625 -16.515625 Z M 5.96875 -15.03125 "/></g></g></g><g fill="#17191a" fill-opacity="1"><g transform="translate(47.529006, 31.534074)"><g><path d="M 5.171875 0.171875 C 3.890625 0.171875 2.84375 -0.25 2.03125 -1.09375 C 1.21875 -1.9375 0.8125 -3.066406 0.8125 -4.484375 L 0.8125 -4.796875 C 0.8125 -5.734375 0.992188 -6.570312 1.359375 -7.3125 C 1.722656 -8.050781 2.226562 -8.628906 2.875 -9.046875 C 3.519531 -9.472656 4.21875 -9.6875 4.96875 -9.6875 C 6.207031 -9.6875 7.171875 -9.28125 7.859375 -8.46875 C 8.546875 -7.65625 8.890625 -6.488281 8.890625 -4.96875 L 8.890625 -4.296875 L 2.4375 -4.296875 C 2.46875 -3.359375 2.742188 -2.597656 3.265625 -2.015625 C 3.785156 -1.441406 4.453125 -1.15625 5.265625 -1.15625 C 5.835938 -1.15625 6.320312 -1.269531 6.71875 -1.5 C 7.125 -1.738281 7.472656 -2.050781 7.765625 -2.4375 L 8.765625 -1.65625 C 7.960938 -0.4375 6.765625 0.171875 5.171875 0.171875 Z M 4.96875 -8.34375 C 4.3125 -8.34375 3.757812 -8.101562 3.3125 -7.625 C 2.875 -7.15625 2.601562 -6.488281 2.5 -5.625 L 7.265625 -5.625 L 7.265625 -5.75 C 7.210938 -6.570312 6.988281 -7.207031 6.59375 -7.65625 C 6.195312 -8.113281 5.65625 -8.34375 4.96875 -8.34375 Z M 4.96875 -8.34375 "/></g></g></g><g fill="#17191a" fill-opacity="1"><g transform="translate(57.062762, 31.534074)"><g><path d="M 2.765625 -9.515625 L 2.796875 -8.453125 C 3.492188 -9.273438 4.4375 -9.6875 5.625 -9.6875 C 6.957031 -9.6875 7.863281 -9.175781 8.34375 -8.15625 C 8.65625 -8.613281 9.066406 -8.984375 9.578125 -9.265625 C 10.085938 -9.546875 10.6875 -9.6875 11.375 -9.6875 C 13.457031 -9.6875 14.519531 -8.582031 14.5625 -6.375 L 14.5625 0 L 12.921875 0 L 12.921875 -6.28125 C 12.921875 -6.957031 12.765625 -7.460938 12.453125 -7.796875 C 12.148438 -8.140625 11.632812 -8.3125 10.90625 -8.3125 C 10.300781 -8.3125 9.796875 -8.128906 9.390625 -7.765625 C 8.992188 -7.398438 8.765625 -6.914062 8.703125 -6.3125 L 8.703125 0 L 7.0625 0 L 7.0625 -6.234375 C 7.0625 -7.617188 6.382812 -8.3125 5.03125 -8.3125 C 3.96875 -8.3125 3.238281 -7.851562 2.84375 -6.9375 L 2.84375 0 L 1.21875 0 L 1.21875 -9.515625 Z M 2.765625 -9.515625 "/></g></g></g><g fill="#17191a" fill-opacity="1"><g transform="translate(72.835196, 31.534074)"><g><path d="M 7.109375 -0.9375 C 6.472656 -0.195312 5.539062 0.171875 4.3125 0.171875 C 3.300781 0.171875 2.53125 -0.117188 2 -0.703125 C 1.46875 -1.296875 1.203125 -2.171875 1.203125 -3.328125 L 1.203125 -9.515625 L 2.828125 -9.515625 L 2.828125 -3.359375 C 2.828125 -1.921875 3.410156 -1.203125 4.578125 -1.203125 C 5.816406 -1.203125 6.644531 -1.664062 7.0625 -2.59375 L 7.0625 -9.515625 L 8.6875 -9.515625 L 8.6875 0 L 7.140625 0 Z M 7.109375 -0.9375 "/></g></g></g><g fill="#17191a" fill-opacity="1"><g transform="translate(82.755575, 31.534074)"><g/></g></g><g fill="#17191a" fill-opacity="1"><g transform="translate(87.210519, 31.534074)"><g><path d="M 2.90625 -9.515625 L 2.90625 1.09375 C 2.90625 2.925781 2.078125 3.84375 0.421875 3.84375 C 0.0664062 3.84375 -0.265625 3.789062 -0.578125 3.6875 L -0.578125 2.375 C -0.390625 2.425781 -0.140625 2.453125 0.171875 2.453125 C 0.535156 2.453125 0.8125 2.351562 1 2.15625 C 1.1875 1.957031 1.28125 1.617188 1.28125 1.140625 L 1.28125 -9.515625 Z M 1.109375 -12.03125 C 1.109375 -12.289062 1.1875 -12.507812 1.34375 -12.6875 C 1.507812 -12.875 1.75 -12.96875 2.0625 -12.96875 C 2.382812 -12.96875 2.625 -12.875 2.78125 -12.6875 C 2.945312 -12.507812 3.03125 -12.289062 3.03125 -12.03125 C 3.03125 -11.769531 2.945312 -11.550781 2.78125 -11.375 C 2.625 -11.195312 2.382812 -11.109375 2.0625 -11.109375 C 1.75 -11.109375 1.507812 -11.195312 1.34375 -11.375 C 1.1875 -11.550781 1.109375 -11.769531 1.109375 -12.03125 Z M 1.109375 -12.03125 "/></g></g></g><g fill="#17191a" fill-opacity="1"><g transform="translate(91.507299, 31.534074)"><g><path d="M 5.171875 0.171875 C 3.890625 0.171875 2.84375 -0.25 2.03125 -1.09375 C 1.21875 -1.9375 0.8125 -3.066406 0.8125 -4.484375 L 0.8125 -4.796875 C 0.8125 -5.734375 0.992188 -6.570312 1.359375 -7.3125 C 1.722656 -8.050781 2.226562 -8.628906 2.875 -9.046875 C 3.519531 -9.472656 4.21875 -9.6875 4.96875 -9.6875 C 6.207031 -9.6875 7.171875 -9.28125 7.859375 -8.46875 C 8.546875 -7.65625 8.890625 -6.488281 8.890625 -4.96875 L 8.890625 -4.296875 L 2.4375 -4.296875 C 2.46875 -3.359375 2.742188 -2.597656 3.265625 -2.015625 C 3.785156 -1.441406 4.453125 -1.15625 5.265625 -1.15625 C 5.835938 -1.15625 6.320312 -1.269531 6.71875 -1.5 C 7.125 -1.738281 7.472656 -2.050781 7.765625 -2.4375 L 8.765625 -1.65625 C 7.960938 -0.4375 6.765625 0.171875 5.171875 0.171875 Z M 4.96875 -8.34375 C 4.3125 -8.34375 3.757812 -8.101562 3.3125 -7.625 C 2.875 -7.15625 2.601562 -6.488281 2.5 -5.625 L 7.265625 -5.625 L 7.265625 -5.75 C 7.210938 -6.570312 6.988281 -7.207031 6.59375 -7.65625 C 6.195312 -8.113281 5.65625 -8.34375 4.96875 -8.34375 Z M 4.96875 -8.34375 "/></g></g></g><g fill="#17191a" fill-opacity="1"><g transform="translate(101.041055, 31.534074)"><g/></g></g><g fill="#17191a" fill-opacity="1"><g transform="translate(105.495999, 31.534074)"><g><path d="M 2.90625 -9.515625 L 2.90625 1.09375 C 2.90625 2.925781 2.078125 3.84375 0.421875 3.84375 C 0.0664062 3.84375 -0.265625 3.789062 -0.578125 3.6875 L -0.578125 2.375 C -0.390625 2.425781 -0.140625 2.453125 0.171875 2.453125 C 0.535156 2.453125 0.8125 2.351562 1 2.15625 C 1.1875 1.957031 1.28125 1.617188 1.28125 1.140625 L 1.28125 -9.515625 Z M 1.109375 -12.03125 C 1.109375 -12.289062 1.1875 -12.507812 1.34375 -12.6875 C 1.507812 -12.875 1.75 -12.96875 2.0625 -12.96875 C 2.382812 -12.96875 2.625 -12.875 2.78125 -12.6875 C 2.945312 -12.507812 3.03125 -12.289062 3.03125 -12.03125 C 3.03125 -11.769531 2.945312 -11.550781 2.78125 -11.375 C 2.625 -11.195312 2.382812 -11.109375 2.0625 -11.109375 C 1.75 -11.109375 1.507812 -11.195312 1.34375 -11.375 C 1.1875 -11.550781 1.109375 -11.769531 1.109375 -12.03125 Z M 1.109375 -12.03125 "/></g></g></g><g fill="#17191a" fill-opacity="1"><g transform="translate(109.792779, 31.534074)"><g><path d="M 5.171875 0.171875 C 3.890625 0.171875 2.84375 -0.25 2.03125 -1.09375 C 1.21875 -1.9375 0.8125 -3.066406 0.8125 -4.484375 L 0.8125 -4.796875 C 0.8125 -5.734375 0.992188 -6.570312 1.359375 -7.3125 C 1.722656 -8.050781 2.226562 -8.628906 2.875 -9.046875 C 3.519531 -9.472656 4.21875 -9.6875 4.96875 -9.6875 C 6.207031 -9.6875 7.171875 -9.28125 7.859375 -8.46875 C 8.546875 -7.65625 8.890625 -6.488281 8.890625 -4.96875 L 8.890625 -4.296875 L 2.4375 -4.296875 C 2.46875 -3.359375 2.742188 -2.597656 3.265625 -2.015625 C 3.785156 -1.441406 4.453125 -1.15625 5.265625 -1.15625 C 5.835938 -1.15625 6.320312 -1.269531 6.71875 -1.5 C 7.125 -1.738281 7.472656 -2.050781 7.765625 -2.4375 L 8.765625 -1.65625 C 7.960938 -0.4375 6.765625 0.171875 5.171875 0.171875 Z M 4.96875 -8.34375 C 4.3125 -8.34375 3.757812 -8.101562 3.3125 -7.625 C 2.875 -7.15625 2.601562 -6.488281 2.5 -5.625 L 7.265625 -5.625 L 7.265625 -5.75 C 7.210938 -6.570312 6.988281 -7.207031 6.59375 -7.65625 C 6.195312 -8.113281 5.65625 -8.34375 4.96875 -8.34375 Z M 4.96875 -8.34375 "/></g></g></g><g fill="#17191a" fill-opacity="1"><g transform="translate(119.326535, 31.534074)"><g><path d="M 0.828125 -4.828125 C 0.828125 -6.285156 1.171875 -7.457031 1.859375 -8.34375 C 2.554688 -9.238281 3.46875 -9.6875 4.59375 -9.6875 C 5.707031 -9.6875 6.585938 -9.304688 7.234375 -8.546875 L 7.234375 -13.5 L 8.859375 -13.5 L 8.859375 0 L 7.359375 0 L 7.28125 -1.015625 C 6.632812 -0.222656 5.734375 0.171875 4.578125 0.171875 C 3.472656 0.171875 2.570312 -0.273438 1.875 -1.171875 C 1.175781 -2.078125 0.828125 -3.257812 0.828125 -4.71875 Z M 2.46875 -4.65625 C 2.46875 -3.570312 2.6875 -2.722656 3.125 -2.109375 C 3.570312 -1.503906 4.1875 -1.203125 4.96875 -1.203125 C 6 -1.203125 6.753906 -1.664062 7.234375 -2.59375 L 7.234375 -6.96875 C 6.742188 -7.863281 6 -8.3125 5 -8.3125 C 4.195312 -8.3125 3.570312 -8 3.125 -7.375 C 2.6875 -6.757812 2.46875 -5.851562 2.46875 -4.65625 Z M 2.46875 -4.65625 "/></g></g></g><g fill="#17191a" fill-opacity="1"><g transform="translate(129.475372, 31.534074)"><g><path d="M 2.765625 -9.515625 L 2.828125 -8.3125 C 3.546875 -9.226562 4.492188 -9.6875 5.671875 -9.6875 C 7.679688 -9.6875 8.691406 -8.550781 8.703125 -6.28125 L 8.703125 0 L 7.078125 0 L 7.078125 -6.296875 C 7.078125 -6.984375 6.921875 -7.488281 6.609375 -7.8125 C 6.304688 -8.144531 5.828125 -8.3125 5.171875 -8.3125 C 4.648438 -8.3125 4.1875 -8.171875 3.78125 -7.890625 C 3.382812 -7.609375 3.078125 -7.238281 2.859375 -6.78125 L 2.859375 0 L 1.234375 0 L 1.234375 -9.515625 Z M 2.765625 -9.515625 "/></g></g></g><g fill="#17191a" fill-opacity="1"><g transform="translate(139.404538, 31.534074)"><g><path d="M 7.109375 0 C 7.015625 -0.1875 6.9375 -0.519531 6.875 -1 C 6.113281 -0.21875 5.210938 0.171875 4.171875 0.171875 C 3.234375 0.171875 2.460938 -0.09375 1.859375 -0.625 C 1.253906 -1.15625 0.953125 -1.828125 0.953125 -2.640625 C 0.953125 -3.628906 1.328125 -4.394531 2.078125 -4.9375 C 2.835938 -5.488281 3.898438 -5.765625 5.265625 -5.765625 L 6.84375 -5.765625 L 6.84375 -6.515625 C 6.84375 -7.078125 6.671875 -7.523438 6.328125 -7.859375 C 5.992188 -8.203125 5.492188 -8.375 4.828125 -8.375 C 4.253906 -8.375 3.769531 -8.226562 3.375 -7.9375 C 2.976562 -7.644531 2.78125 -7.289062 2.78125 -6.875 L 1.15625 -6.875 C 1.15625 -7.34375 1.320312 -7.796875 1.65625 -8.234375 C 1.988281 -8.679688 2.441406 -9.035156 3.015625 -9.296875 C 3.597656 -9.554688 4.238281 -9.6875 4.9375 -9.6875 C 6.03125 -9.6875 6.882812 -9.410156 7.5 -8.859375 C 8.125 -8.316406 8.445312 -7.5625 8.46875 -6.59375 L 8.46875 -2.21875 C 8.46875 -1.351562 8.582031 -0.660156 8.8125 -0.140625 L 8.8125 0 Z M 4.40625 -1.234375 C 4.914062 -1.234375 5.398438 -1.363281 5.859375 -1.625 C 6.316406 -1.894531 6.644531 -2.238281 6.84375 -2.65625 L 6.84375 -4.609375 L 5.578125 -4.609375 C 3.578125 -4.609375 2.578125 -4.023438 2.578125 -2.859375 C 2.578125 -2.347656 2.75 -1.945312 3.09375 -1.65625 C 3.4375 -1.375 3.875 -1.234375 4.40625 -1.234375 Z M 4.40625 -1.234375 "/></g></g></g><g fill="#17191a" fill-opacity="1"><g transform="translate(149.193113, 31.534074)"><g><path d="M 3.890625 -4.40625 L 2.859375 -3.34375 L 2.859375 0 L 1.234375 0 L 1.234375 -13.5 L 2.859375 -13.5 L 2.859375 -5.328125 L 3.734375 -6.375 L 6.703125 -9.515625 L 8.671875 -9.515625 L 4.96875 -5.53125 L 9.109375 0 L 7.203125 0 Z M 3.890625 -4.40625 "/></g></g></g><g fill="#17191a" fill-opacity="1"><g transform="translate(158.313886, 31.534074)"><g/></g></g><g fill="#17191a" fill-opacity="1"><g transform="translate(162.76883, 31.534074)"><g><path d="M 0.828125 -4.828125 C 0.828125 -6.285156 1.171875 -7.457031 1.859375 -8.34375 C 2.554688 -9.238281 3.46875 -9.6875 4.59375 -9.6875 C 5.707031 -9.6875 6.585938 -9.304688 7.234375 -8.546875 L 7.234375 -13.5 L 8.859375 -13.5 L 8.859375 0 L 7.359375 0 L 7.28125 -1.015625 C 6.632812 -0.222656 5.734375 0.171875 4.578125 0.171875 C 3.472656 0.171875 2.570312 -0.273438 1.875 -1.171875 C 1.175781 -2.078125 0.828125 -3.257812 0.828125 -4.71875 Z M 2.46875 -4.65625 C 2.46875 -3.570312 2.6875 -2.722656 3.125 -2.109375 C 3.570312 -1.503906 4.1875 -1.203125 4.96875 -1.203125 C 6 -1.203125 6.753906 -1.664062 7.234375 -2.59375 L 7.234375 -6.96875 C 6.742188 -7.863281 6 -8.3125 5 -8.3125 C 4.195312 -8.3125 3.570312 -8 3.125 -7.375 C 2.6875 -6.757812 2.46875 -5.851562 2.46875 -4.65625 Z M 2.46875 -4.65625 "/></g></g></g><g fill="#17191a" fill-opacity="1"><g transform="translate(172.917667, 31.534074)"><g><path d="M 0.796875 -4.84375 C 0.796875 -5.769531 0.976562 -6.601562 1.34375 -7.34375 C 1.71875 -8.09375 2.226562 -8.671875 2.875 -9.078125 C 3.53125 -9.484375 4.273438 -9.6875 5.109375 -9.6875 C 6.410156 -9.6875 7.457031 -9.238281 8.25 -8.34375 C 9.050781 -7.445312 9.453125 -6.253906 9.453125 -4.765625 L 9.453125 -4.65625 C 9.453125 -3.726562 9.273438 -2.894531 8.921875 -2.15625 C 8.566406 -1.425781 8.0625 -0.851562 7.40625 -0.4375 C 6.75 -0.03125 5.992188 0.171875 5.140625 0.171875 C 3.847656 0.171875 2.800781 -0.273438 2 -1.171875 C 1.195312 -2.066406 0.796875 -3.253906 0.796875 -4.734375 Z M 2.4375 -4.65625 C 2.4375 -3.59375 2.679688 -2.742188 3.171875 -2.109375 C 3.660156 -1.472656 4.316406 -1.15625 5.140625 -1.15625 C 5.960938 -1.15625 6.613281 -1.476562 7.09375 -2.125 C 7.582031 -2.769531 7.828125 -3.675781 7.828125 -4.84375 C 7.828125 -5.882812 7.578125 -6.726562 7.078125 -7.375 C 6.585938 -8.019531 5.929688 -8.34375 5.109375 -8.34375 C 4.304688 -8.34375 3.660156 -8.023438 3.171875 -7.390625 C 2.679688 -6.753906 2.4375 -5.84375 2.4375 -4.65625 Z M 2.4375 -4.65625 "/></g></g></g><g fill="#17191a" fill-opacity="1"><g transform="translate(183.180733, 31.534074)"><g/></g></g><g fill="#17191a" fill-opacity="1"><g transform="translate(187.635677, 31.534074)"><g><path d="M 3.890625 -4.40625 L 2.859375 -3.34375 L 2.859375 0 L 1.234375 0 L 1.234375 -13.5 L 2.859375 -13.5 L 2.859375 -5.328125 L 3.734375 -6.375 L 6.703125 -9.515625 L 8.671875 -9.515625 L 4.96875 -5.53125 L 9.109375 0 L 7.203125 0 Z M 3.890625 -4.40625 "/></g></g></g><g fill="#17191a" fill-opacity="1"><g transform="translate(196.75645, 31.534074)"><g><path d="M 5.828125 -8.046875 C 5.578125 -8.085938 5.3125 -8.109375 5.03125 -8.109375 C 3.957031 -8.109375 3.234375 -7.65625 2.859375 -6.75 L 2.859375 0 L 1.234375 0 L 1.234375 -9.515625 L 2.8125 -9.515625 L 2.84375 -8.40625 C 3.375 -9.257812 4.128906 -9.6875 5.109375 -9.6875 C 5.421875 -9.6875 5.660156 -9.644531 5.828125 -9.5625 Z M 5.828125 -8.046875 "/></g></g></g><g fill="#17191a" fill-opacity="1"><g transform="translate(202.845752, 31.534074)"><g><path d="M 7.109375 0 C 7.015625 -0.1875 6.9375 -0.519531 6.875 -1 C 6.113281 -0.21875 5.210938 0.171875 4.171875 0.171875 C 3.234375 0.171875 2.460938 -0.09375 1.859375 -0.625 C 1.253906 -1.15625 0.953125 -1.828125 0.953125 -2.640625 C 0.953125 -3.628906 1.328125 -4.394531 2.078125 -4.9375 C 2.835938 -5.488281 3.898438 -5.765625 5.265625 -5.765625 L 6.84375 -5.765625 L 6.84375 -6.515625 C 6.84375 -7.078125 6.671875 -7.523438 6.328125 -7.859375 C 5.992188 -8.203125 5.492188 -8.375 4.828125 -8.375 C 4.253906 -8.375 3.769531 -8.226562 3.375 -7.9375 C 2.976562 -7.644531 2.78125 -7.289062 2.78125 -6.875 L 1.15625 -6.875 C 1.15625 -7.34375 1.320312 -7.796875 1.65625 -8.234375 C 1.988281 -8.679688 2.441406 -9.035156 3.015625 -9.296875 C 3.597656 -9.554688 4.238281 -9.6875 4.9375 -9.6875 C 6.03125 -9.6875 6.882812 -9.410156 7.5 -8.859375 C 8.125 -8.316406 8.445312 -7.5625 8.46875 -6.59375 L 8.46875 -2.21875 C 8.46875 -1.351562 8.582031 -0.660156 8.8125 -0.140625 L 8.8125 0 Z M 4.40625 -1.234375 C 4.914062 -1.234375 5.398438 -1.363281 5.859375 -1.625 C 6.316406 -1.894531 6.644531 -2.238281 6.84375 -2.65625 L 6.84375 -4.609375 L 5.578125 -4.609375 C 3.578125 -4.609375 2.578125 -4.023438 2.578125 -2.859375 C 2.578125 -2.347656 2.75 -1.945312 3.09375 -1.65625 C 3.4375 -1.375 3.875 -1.234375 4.40625 -1.234375 Z M 4.40625 -1.234375 "/></g></g></g><g fill="#17191a" fill-opacity="1"><g transform="translate(212.634328, 31.534074)"><g><path d="M 2.90625 -9.515625 L 2.90625 1.09375 C 2.90625 2.925781 2.078125 3.84375 0.421875 3.84375 C 0.0664062 3.84375 -0.265625 3.789062 -0.578125 3.6875 L -0.578125 2.375 C -0.390625 2.425781 -0.140625 2.453125 0.171875 2.453125 C 0.535156 2.453125 0.8125 2.351562 1 2.15625 C 1.1875 1.957031 1.28125 1.617188 1.28125 1.140625 L 1.28125 -9.515625 Z M 1.109375 -12.03125 C 1.109375 -12.289062 1.1875 -12.507812 1.34375 -12.6875 C 1.507812 -12.875 1.75 -12.96875 2.0625 -12.96875 C 2.382812 -12.96875 2.625 -12.875 2.78125 -12.6875 C 2.945312 -12.507812 3.03125 -12.289062 3.03125 -12.03125 C 3.03125 -11.769531 2.945312 -11.550781 2.78125 -11.375 C 2.625 -11.195312 2.382812 -11.109375 2.0625 -11.109375 C 1.75 -11.109375 1.507812 -11.195312 1.34375 -11.375 C 1.1875 -11.550781 1.109375 -11.769531 1.109375 -12.03125 Z M 1.109375 -12.03125 "/></g></g></g><g fill="#17191a" fill-opacity="1"><g transform="translate(216.931108, 31.534074)"><g><path d="M 7.109375 0 C 7.015625 -0.1875 6.9375 -0.519531 6.875 -1 C 6.113281 -0.21875 5.210938 0.171875 4.171875 0.171875 C 3.234375 0.171875 2.460938 -0.09375 1.859375 -0.625 C 1.253906 -1.15625 0.953125 -1.828125 0.953125 -2.640625 C 0.953125 -3.628906 1.328125 -4.394531 2.078125 -4.9375 C 2.835938 -5.488281 3.898438 -5.765625 5.265625 -5.765625 L 6.84375 -5.765625 L 6.84375 -6.515625 C 6.84375 -7.078125 6.671875 -7.523438 6.328125 -7.859375 C 5.992188 -8.203125 5.492188 -8.375 4.828125 -8.375 C 4.253906 -8.375 3.769531 -8.226562 3.375 -7.9375 C 2.976562 -7.644531 2.78125 -7.289062 2.78125 -6.875 L 1.15625 -6.875 C 1.15625 -7.34375 1.320312 -7.796875 1.65625 -8.234375 C 1.988281 -8.679688 2.441406 -9.035156 3.015625 -9.296875 C 3.597656 -9.554688 4.238281 -9.6875 4.9375 -9.6875 C 6.03125 -9.6875 6.882812 -9.410156 7.5 -8.859375 C 8.125 -8.316406 8.445312 -7.5625 8.46875 -6.59375 L 8.46875 -2.21875 C 8.46875 -1.351562 8.582031 -0.660156 8.8125 -0.140625 L 8.8125 0 Z M 4.40625 -1.234375 C 4.914062 -1.234375 5.398438 -1.363281 5.859375 -1.625 C 6.316406 -1.894531 6.644531 -2.238281 6.84375 -2.65625 L 6.84375 -4.609375 L 5.578125 -4.609375 C 3.578125 -4.609375 2.578125 -4.023438 2.578125 -2.859375 C 2.578125 -2.347656 2.75 -1.945312 3.09375 -1.65625 C 3.4375 -1.375 3.875 -1.234375 4.40625 -1.234375 Z M 4.40625 -1.234375 "/></g></g></g><g fill="#17191a" fill-opacity="1"><g transform="translate(226.719683, 31.534074)"><g/></g></g><g fill="#17191a" fill-opacity="1"><g transform="translate(231.174627, 31.534074)"><g><path d="M 5.828125 -8.046875 C 5.578125 -8.085938 5.3125 -8.109375 5.03125 -8.109375 C 3.957031 -8.109375 3.234375 -7.65625 2.859375 -6.75 L 2.859375 0 L 1.234375 0 L 1.234375 -9.515625 L 2.8125 -9.515625 L 2.84375 -8.40625 C 3.375 -9.257812 4.128906 -9.6875 5.109375 -9.6875 C 5.421875 -9.6875 5.660156 -9.644531 5.828125 -9.5625 Z M 5.828125 -8.046875 "/></g></g></g><g fill="#17191a" fill-opacity="1"><g transform="translate(237.263917, 31.534074)"><g><path d="M 7.109375 0 C 7.015625 -0.1875 6.9375 -0.519531 6.875 -1 C 6.113281 -0.21875 5.210938 0.171875 4.171875 0.171875 C 3.234375 0.171875 2.460938 -0.09375 1.859375 -0.625 C 1.253906 -1.15625 0.953125 -1.828125 0.953125 -2.640625 C 0.953125 -3.628906 1.328125 -4.394531 2.078125 -4.9375 C 2.835938 -5.488281 3.898438 -5.765625 5.265625 -5.765625 L 6.84375 -5.765625 L 6.84375 -6.515625 C 6.84375 -7.078125 6.671875 -7.523438 6.328125 -7.859375 C 5.992188 -8.203125 5.492188 -8.375 4.828125 -8.375 C 4.253906 -8.375 3.769531 -8.226562 3.375 -7.9375 C 2.976562 -7.644531 2.78125 -7.289062 2.78125 -6.875 L 1.15625 -6.875 C 1.15625 -7.34375 1.320312 -7.796875 1.65625 -8.234375 C 1.988281 -8.679688 2.441406 -9.035156 3.015625 -9.296875 C 3.597656 -9.554688 4.238281 -9.6875 4.9375 -9.6875 C 6.03125 -9.6875 6.882812 -9.410156 7.5 -8.859375 C 8.125 -8.316406 8.445312 -7.5625 8.46875 -6.59375 L 8.46875 -2.21875 C 8.46875 -1.351562 8.582031 -0.660156 8.8125 -0.140625 L 8.8125 0 Z M 4.40625 -1.234375 C 4.914062 -1.234375 5.398438 -1.363281 5.859375 -1.625 C 6.316406 -1.894531 6.644531 -2.238281 6.84375 -2.65625 L 6.84375 -4.609375 L 5.578125 -4.609375 C 3.578125 -4.609375 2.578125 -4.023438 2.578125 -2.859375 C 2.578125 -2.347656 2.75 -1.945312 3.09375 -1.65625 C 3.4375 -1.375 3.875 -1.234375 4.40625 -1.234375 Z M 4.40625 -1.234375 "/></g></g></g><g fill="#17191a" fill-opacity="1"><g transform="translate(247.052492, 31.534074)"><g><path d="M 6.765625 -2.515625 C 6.765625 -2.960938 6.597656 -3.304688 6.265625 -3.546875 C 5.941406 -3.785156 5.367188 -3.992188 4.546875 -4.171875 C 3.722656 -4.347656 3.066406 -4.554688 2.578125 -4.796875 C 2.097656 -5.046875 1.738281 -5.34375 1.5 -5.6875 C 1.269531 -6.03125 1.15625 -6.4375 1.15625 -6.90625 C 1.15625 -7.675781 1.484375 -8.332031 2.140625 -8.875 C 2.804688 -9.414062 3.648438 -9.6875 4.671875 -9.6875 C 5.753906 -9.6875 6.628906 -9.40625 7.296875 -8.84375 C 7.972656 -8.289062 8.3125 -7.582031 8.3125 -6.71875 L 6.671875 -6.71875 C 6.671875 -7.164062 6.476562 -7.546875 6.09375 -7.859375 C 5.71875 -8.179688 5.242188 -8.34375 4.671875 -8.34375 C 4.078125 -8.34375 3.613281 -8.210938 3.28125 -7.953125 C 2.945312 -7.703125 2.78125 -7.367188 2.78125 -6.953125 C 2.78125 -6.554688 2.9375 -6.257812 3.25 -6.0625 C 3.5625 -5.863281 4.125 -5.671875 4.9375 -5.484375 C 5.75 -5.304688 6.40625 -5.09375 6.90625 -4.84375 C 7.414062 -4.59375 7.789062 -4.289062 8.03125 -3.9375 C 8.269531 -3.582031 8.390625 -3.148438 8.390625 -2.640625 C 8.390625 -1.785156 8.050781 -1.101562 7.375 -0.59375 C 6.695312 -0.0820312 5.816406 0.171875 4.734375 0.171875 C 3.972656 0.171875 3.296875 0.0351562 2.703125 -0.234375 C 2.117188 -0.503906 1.660156 -0.878906 1.328125 -1.359375 C 0.992188 -1.835938 0.828125 -2.359375 0.828125 -2.921875 L 2.46875 -2.921875 C 2.488281 -2.378906 2.703125 -1.945312 3.109375 -1.625 C 3.523438 -1.3125 4.066406 -1.15625 4.734375 -1.15625 C 5.347656 -1.15625 5.835938 -1.28125 6.203125 -1.53125 C 6.578125 -1.78125 6.765625 -2.109375 6.765625 -2.515625 Z M 6.765625 -2.515625 "/></g></g></g><g fill="#17191a" fill-opacity="1"><g transform="translate(256.331429, 31.534074)"><g><path d="M 9.265625 -4.65625 C 9.265625 -3.207031 8.929688 -2.039062 8.265625 -1.15625 C 7.609375 -0.269531 6.710938 0.171875 5.578125 0.171875 C 4.421875 0.171875 3.515625 -0.191406 2.859375 -0.921875 L 2.859375 3.65625 L 1.234375 3.65625 L 1.234375 -9.515625 L 2.71875 -9.515625 L 2.796875 -8.453125 C 3.453125 -9.273438 4.375 -9.6875 5.5625 -9.6875 C 6.695312 -9.6875 7.597656 -9.253906 8.265625 -8.390625 C 8.929688 -7.535156 9.265625 -6.335938 9.265625 -4.796875 Z M 7.640625 -4.828125 C 7.640625 -5.898438 7.410156 -6.75 6.953125 -7.375 C 6.492188 -8 5.867188 -8.3125 5.078125 -8.3125 C 4.085938 -8.3125 3.347656 -7.875 2.859375 -7 L 2.859375 -2.453125 C 3.347656 -1.585938 4.09375 -1.15625 5.09375 -1.15625 C 5.875 -1.15625 6.492188 -1.460938 6.953125 -2.078125 C 7.410156 -2.691406 7.640625 -3.609375 7.640625 -4.828125 Z M 7.640625 -4.828125 "/></g></g></g><g fill="#17191a" fill-opacity="1"><g transform="translate(266.427531, 31.534074)"><g><path d="M 3 0 L 1.375 0 L 1.375 -9.515625 L 3 -9.515625 Z M 1.234375 -12.03125 C 1.234375 -12.289062 1.3125 -12.507812 1.46875 -12.6875 C 1.632812 -12.875 1.875 -12.96875 2.1875 -12.96875 C 2.507812 -12.96875 2.753906 -12.875 2.921875 -12.6875 C 3.085938 -12.507812 3.171875 -12.289062 3.171875 -12.03125 C 3.171875 -11.769531 3.085938 -11.550781 2.921875 -11.375 C 2.753906 -11.195312 2.507812 -11.109375 2.1875 -11.109375 C 1.875 -11.109375 1.632812 -11.195312 1.46875 -11.375 C 1.3125 -11.550781 1.234375 -11.769531 1.234375 -12.03125 Z M 1.234375 -12.03125 "/></g></g></g><g fill="#17191a" fill-opacity="1"><g transform="translate(270.794619, 31.534074)"><g><path d="M 6.765625 -2.515625 C 6.765625 -2.960938 6.597656 -3.304688 6.265625 -3.546875 C 5.941406 -3.785156 5.367188 -3.992188 4.546875 -4.171875 C 3.722656 -4.347656 3.066406 -4.554688 2.578125 -4.796875 C 2.097656 -5.046875 1.738281 -5.34375 1.5 -5.6875 C 1.269531 -6.03125 1.15625 -6.4375 1.15625 -6.90625 C 1.15625 -7.675781 1.484375 -8.332031 2.140625 -8.875 C 2.804688 -9.414062 3.648438 -9.6875 4.671875 -9.6875 C 5.753906 -9.6875 6.628906 -9.40625 7.296875 -8.84375 C 7.972656 -8.289062 8.3125 -7.582031 8.3125 -6.71875 L 6.671875 -6.71875 C 6.671875 -7.164062 6.476562 -7.546875 6.09375 -7.859375 C 5.71875 -8.179688 5.242188 -8.34375 4.671875 -8.34375 C 4.078125 -8.34375 3.613281 -8.210938 3.28125 -7.953125 C 2.945312 -7.703125 2.78125 -7.367188 2.78125 -6.953125 C 2.78125 -6.554688 2.9375 -6.257812 3.25 -6.0625 C 3.5625 -5.863281 4.125 -5.671875 4.9375 -5.484375 C 5.75 -5.304688 6.40625 -5.09375 6.90625 -4.84375 C 7.414062 -4.59375 7.789062 -4.289062 8.03125 -3.9375 C 8.269531 -3.582031 8.390625 -3.148438 8.390625 -2.640625 C 8.390625 -1.785156 8.050781 -1.101562 7.375 -0.59375 C 6.695312 -0.0820312 5.816406 0.171875 4.734375 0.171875 C 3.972656 0.171875 3.296875 0.0351562 2.703125 -0.234375 C 2.117188 -0.503906 1.660156 -0.878906 1.328125 -1.359375 C 0.992188 -1.835938 0.828125 -2.359375 0.828125 -2.921875 L 2.46875 -2.921875 C 2.488281 -2.378906 2.703125 -1.945312 3.109375 -1.625 C 3.523438 -1.3125 4.066406 -1.15625 4.734375 -1.15625 C 5.347656 -1.15625 5.835938 -1.28125 6.203125 -1.53125 C 6.578125 -1.78125 6.765625 -2.109375 6.765625 -2.515625 Z M 6.765625 -2.515625 "/></g></g></g><g fill="#17191a" fill-opacity="1"><g transform="translate(280.073556, 31.534074)"><g><path d="M 7.109375 0 C 7.015625 -0.1875 6.9375 -0.519531 6.875 -1 C 6.113281 -0.21875 5.210938 0.171875 4.171875 0.171875 C 3.234375 0.171875 2.460938 -0.09375 1.859375 -0.625 C 1.253906 -1.15625 0.953125 -1.828125 0.953125 -2.640625 C 0.953125 -3.628906 1.328125 -4.394531 2.078125 -4.9375 C 2.835938 -5.488281 3.898438 -5.765625 5.265625 -5.765625 L 6.84375 -5.765625 L 6.84375 -6.515625 C 6.84375 -7.078125 6.671875 -7.523438 6.328125 -7.859375 C 5.992188 -8.203125 5.492188 -8.375 4.828125 -8.375 C 4.253906 -8.375 3.769531 -8.226562 3.375 -7.9375 C 2.976562 -7.644531 2.78125 -7.289062 2.78125 -6.875 L 1.15625 -6.875 C 1.15625 -7.34375 1.320312 -7.796875 1.65625 -8.234375 C 1.988281 -8.679688 2.441406 -9.035156 3.015625 -9.296875 C 3.597656 -9.554688 4.238281 -9.6875 4.9375 -9.6875 C 6.03125 -9.6875 6.882812 -9.410156 7.5 -8.859375 C 8.125 -8.316406 8.445312 -7.5625 8.46875 -6.59375 L 8.46875 -2.21875 C 8.46875 -1.351562 8.582031 -0.660156 8.8125 -0.140625 L 8.8125 0 Z M 4.40625 -1.234375 C 4.914062 -1.234375 5.398438 -1.363281 5.859375 -1.625 C 6.316406 -1.894531 6.644531 -2.238281 6.84375 -2.65625 L 6.84375 -4.609375 L 5.578125 -4.609375 C 3.578125 -4.609375 2.578125 -4.023438 2.578125 -2.859375 C 2.578125 -2.347656 2.75 -1.945312 3.09375 -1.65625 C 3.4375 -1.375 3.875 -1.234375 4.40625 -1.234375 Z M 4.40625 -1.234375 "/></g></g></g><g fill="#17191a" fill-opacity="1"><g transform="translate(289.862131, 31.534074)"><g><path d="M 2.765625 -9.515625 L 2.828125 -8.3125 C 3.546875 -9.226562 4.492188 -9.6875 5.671875 -9.6875 C 7.679688 -9.6875 8.691406 -8.550781 8.703125 -6.28125 L 8.703125 0 L 7.078125 0 L 7.078125 -6.296875 C 7.078125 -6.984375 6.921875 -7.488281 6.609375 -7.8125 C 6.304688 -8.144531 5.828125 -8.3125 5.171875 -8.3125 C 4.648438 -8.3125 4.1875 -8.171875 3.78125 -7.890625 C 3.382812 -7.609375 3.078125 -7.238281 2.859375 -6.78125 L 2.859375 0 L 1.234375 0 L 1.234375 -9.515625 Z M 2.765625 -9.515625 "/></g></g></g><g fill="#17191a" fill-opacity="1"><g transform="translate(299.791297, 31.534074)"><g/></g></g><g fill="#17191a" fill-opacity="1"><g transform="translate(304.246228, 31.534074)"><g><path d="M 3 0 L 1.375 0 L 1.375 -9.515625 L 3 -9.515625 Z M 1.234375 -12.03125 C 1.234375 -12.289062 1.3125 -12.507812 1.46875 -12.6875 C 1.632812 -12.875 1.875 -12.96875 2.1875 -12.96875 C 2.507812 -12.96875 2.753906 -12.875 2.921875 -12.6875 C 3.085938 -12.507812 3.171875 -12.289062 3.171875 -12.03125 C 3.171875 -11.769531 3.085938 -11.550781 2.921875 -11.375 C 2.753906 -11.195312 2.507812 -11.109375 2.1875 -11.109375 C 1.875 -11.109375 1.632812 -11.195312 1.46875 -11.375 C 1.3125 -11.550781 1.234375 -11.769531 1.234375 -12.03125 Z M 1.234375 -12.03125 "/></g></g></g><g fill="#17191a" fill-opacity="1"><g transform="translate(308.613316, 31.534074)"><g><path d="M 2.765625 -1.328125 L 8.328125 -1.328125 L 8.328125 0 L 0.78125 0 L 0.78125 -1.203125 L 6.015625 -8.171875 L 0.859375 -8.171875 L 0.859375 -9.515625 L 8.0625 -9.515625 L 8.0625 -8.359375 Z M 2.765625 -1.328125 "/></g></g></g><g fill="#17191a" fill-opacity="1"><g transform="translate(317.531979, 31.534074)"><g><path d="M 5.828125 -8.046875 C 5.578125 -8.085938 5.3125 -8.109375 5.03125 -8.109375 C 3.957031 -8.109375 3.234375 -7.65625 2.859375 -6.75 L 2.859375 0 L 1.234375 0 L 1.234375 -9.515625 L 2.8125 -9.515625 L 2.84375 -8.40625 C 3.375 -9.257812 4.128906 -9.6875 5.109375 -9.6875 C 5.421875 -9.6875 5.660156 -9.644531 5.828125 -9.5625 Z M 5.828125 -8.046875 "/></g></g></g><g fill="#17191a" fill-opacity="1"><g transform="translate(323.621293, 31.534074)"><g><path d="M 7.109375 0 C 7.015625 -0.1875 6.9375 -0.519531 6.875 -1 C 6.113281 -0.21875 5.210938 0.171875 4.171875 0.171875 C 3.234375 0.171875 2.460938 -0.09375 1.859375 -0.625 C 1.253906 -1.15625 0.953125 -1.828125 0.953125 -2.640625 C 0.953125 -3.628906 1.328125 -4.394531 2.078125 -4.9375 C 2.835938 -5.488281 3.898438 -5.765625 5.265625 -5.765625 L 6.84375 -5.765625 L 6.84375 -6.515625 C 6.84375 -7.078125 6.671875 -7.523438 6.328125 -7.859375 C 5.992188 -8.203125 5.492188 -8.375 4.828125 -8.375 C 4.253906 -8.375 3.769531 -8.226562 3.375 -7.9375 C 2.976562 -7.644531 2.78125 -7.289062 2.78125 -6.875 L 1.15625 -6.875 C 1.15625 -7.34375 1.320312 -7.796875 1.65625 -8.234375 C 1.988281 -8.679688 2.441406 -9.035156 3.015625 -9.296875 C 3.597656 -9.554688 4.238281 -9.6875 4.9375 -9.6875 C 6.03125 -9.6875 6.882812 -9.410156 7.5 -8.859375 C 8.125 -8.316406 8.445312 -7.5625 8.46875 -6.59375 L 8.46875 -2.21875 C 8.46875 -1.351562 8.582031 -0.660156 8.8125 -0.140625 L 8.8125 0 Z M 4.40625 -1.234375 C 4.914062 -1.234375 5.398438 -1.363281 5.859375 -1.625 C 6.316406 -1.894531 6.644531 -2.238281 6.84375 -2.65625 L 6.84375 -4.609375 L 5.578125 -4.609375 C 3.578125 -4.609375 2.578125 -4.023438 2.578125 -2.859375 C 2.578125 -2.347656 2.75 -1.945312 3.09375 -1.65625 C 3.4375 -1.375 3.875 -1.234375 4.40625 -1.234375 Z M 4.40625 -1.234375 "/></g></g></g><g fill="#17191a" fill-opacity="1"><g transform="translate(333.409869, 31.534074)"><g><path d="M 2.765625 -1.328125 L 8.328125 -1.328125 L 8.328125 0 L 0.78125 0 L 0.78125 -1.203125 L 6.015625 -8.171875 L 0.859375 -8.171875 L 0.859375 -9.515625 L 8.0625 -9.515625 L 8.0625 -8.359375 Z M 2.765625 -1.328125 "/></g></g></g><g fill="#17191a" fill-opacity="1"><g transform="translate(19.45495, 56.535077)"><g/></g></g><g fill="#17191a" fill-opacity="1"><g transform="translate(23.909894, 56.535077)"><g/></g></g><g fill="#17191a" fill-opacity="1"><g transform="translate(28.364838, 56.535077)"><g/></g></g><g fill="#17191a" fill-opacity="1"><g transform="translate(32.819782, 56.535077)"><g/></g></g><g fill="#17191a" fill-opacity="1"><g transform="translate(37.274726, 56.535077)"><g/></g></g><g fill="#17191a" fill-opacity="1"><g transform="translate(41.729671, 56.535077)"><g/></g></g><g fill="#17191a" fill-opacity="1"><g transform="translate(46.184615, 56.535077)"><g/></g></g><g fill="#17191a" fill-opacity="1"><g transform="translate(50.639559, 56.535077)"><g/></g></g><g fill="#17191a" fill-opacity="1"><g transform="translate(55.094503, 56.535077)"><g/></g></g><g fill="#17191a" fill-opacity="1"><g transform="translate(59.549447, 56.535077)"><g/></g></g><g fill="#17191a" fill-opacity="1"><g transform="translate(64.004391, 56.535077)"><g/></g></g><g fill="#17191a" fill-opacity="1"><g transform="translate(68.459335, 56.535077)"><g/></g></g><g fill="#17191a" fill-opacity="1"><g transform="translate(72.914279, 56.535077)"><g/></g></g><g fill="#17191a" fill-opacity="1"><g transform="translate(77.369223, 56.535077)"><g/></g></g><g fill="#17191a" fill-opacity="1"><g transform="translate(81.824167, 56.535077)"><g/></g></g><g fill="#17191a" fill-opacity="1"><g transform="translate(86.279111, 56.535077)"><g/></g></g><g fill="#17191a" fill-opacity="1"><g transform="translate(90.734055, 56.535077)"><g/></g></g><g fill="#17191a" fill-opacity="1"><g transform="translate(95.188999, 56.535077)"><g/></g></g><g fill="#17191a" fill-opacity="1"><g transform="translate(99.643943, 56.535077)"><g/></g></g><g fill="#17191a" fill-opacity="1"><g transform="translate(104.098887, 56.535077)"><g/></g></g><g fill="#17191a" fill-opacity="1"><g transform="translate(108.553831, 56.535077)"><g/></g></g><g fill="#17191a" fill-opacity="1"><g transform="translate(113.008775, 56.535077)"><g/></g></g><g fill="#17191a" fill-opacity="1"><g transform="translate(117.463719, 56.535077)"><g/></g></g><g fill="#17191a" fill-opacity="1"><g transform="translate(121.918663, 56.535077)"><g/></g></g><g fill="#17191a" fill-opacity="1"><g transform="translate(126.373607, 56.535077)"><g/></g></g><g fill="#17191a" fill-opacity="1"><g transform="translate(130.828551, 56.535077)"><g/></g></g><g fill="#17191a" fill-opacity="1"><g transform="translate(135.283495, 56.535077)"><g/></g></g><g fill="#17191a" fill-opacity="1"><g transform="translate(139.73844, 56.535077)"><g/></g></g><g fill="#17191a" fill-opacity="1"><g transform="translate(144.193384, 56.535077)"><g/></g></g><g fill="#17191a" fill-opacity="1"><g transform="translate(148.648328, 56.535077)"><g/></g></g><g fill="#17191a" fill-opacity="1"><g transform="translate(153.103272, 56.535077)"><g/></g></g><g fill="#17191a" fill-opacity="1"><g transform="translate(157.558216, 56.535077)"><g/></g></g><g fill="#17191a" fill-opacity="1"><g transform="translate(162.01316, 56.535077)"><g/></g></g><g fill="#17191a" fill-opacity="1"><g transform="translate(166.468104, 56.535077)"><g/></g></g><g fill="#17191a" fill-opacity="1"><g transform="translate(170.923048, 56.535077)"><g/></g></g><g fill="#17191a" fill-opacity="1"><g transform="translate(175.377992, 56.535077)"><g/></g></g><g fill="#17191a" fill-opacity="1"><g transform="translate(179.832936, 56.535077)"><g/></g></g><g fill="#17191a" fill-opacity="1"><g transform="translate(184.28788, 56.535077)"><g/></g></g><g fill="#17191a" fill-opacity="1"><g transform="translate(188.742824, 56.535077)"><g/></g></g><g fill="#17191a" fill-opacity="1"><g transform="translate(193.197768, 56.535077)"><g/></g></g><g fill="#17191a" fill-opacity="1"><g transform="translate(197.652712, 56.535077)"><g/></g></g><g fill="#17191a" fill-opacity="1"><g transform="translate(202.107656, 56.535077)"><g/></g></g><g fill="#17191a" fill-opacity="1"><g transform="translate(206.5626, 56.535077)"><g/></g></g><g fill="#17191a" fill-opacity="1"><g transform="translate(211.017544, 56.535077)"><g/></g></g><g fill="#17191a" fill-opacity="1"><g transform="translate(215.472488, 56.535077)"><g/></g></g><g fill="#17191a" fill-opacity="1"><g transform="translate(219.927432, 56.535077)"><g/></g></g><g fill="#17191a" fill-opacity="1"><g transform="translate(224.376897, 56.535077)"><g><path d="M 3.140625 -3.609375 C 3.148438 -4.304688 3.226562 -4.851562 3.375 -5.25 C 3.519531 -5.65625 3.816406 -6.101562 4.265625 -6.59375 L 5.421875 -7.78125 C 5.910156 -8.34375 6.15625 -8.941406 6.15625 -9.578125 C 6.15625 -10.191406 5.992188 -10.671875 5.671875 -11.015625 C 5.347656 -11.367188 4.878906 -11.546875 4.265625 -11.546875 C 3.671875 -11.546875 3.191406 -11.382812 2.828125 -11.0625 C 2.460938 -10.75 2.28125 -10.328125 2.28125 -9.796875 L 0.65625 -9.796875 C 0.664062 -10.742188 1.003906 -11.507812 1.671875 -12.09375 C 2.335938 -12.675781 3.203125 -12.96875 4.265625 -12.96875 C 5.378906 -12.96875 6.242188 -12.671875 6.859375 -12.078125 C 7.472656 -11.484375 7.78125 -10.671875 7.78125 -9.640625 C 7.78125 -8.609375 7.304688 -7.59375 6.359375 -6.59375 L 5.40625 -5.65625 C 4.976562 -5.175781 4.765625 -4.492188 4.765625 -3.609375 Z M 3.0625 -0.8125 C 3.0625 -1.082031 3.140625 -1.304688 3.296875 -1.484375 C 3.460938 -1.660156 3.703125 -1.75 4.015625 -1.75 C 4.335938 -1.75 4.582031 -1.660156 4.75 -1.484375 C 4.914062 -1.304688 5 -1.082031 5 -0.8125 C 5 -0.550781 4.914062 -0.332031 4.75 -0.15625 C 4.582031 0.0078125 4.335938 0.09375 4.015625 0.09375 C 3.703125 0.09375 3.460938 0.0078125 3.296875 -0.15625 C 3.140625 -0.332031 3.0625 -0.550781 3.0625 -0.8125 Z M 3.0625 -0.8125 "/></g></g></g><g fill="#17191a" fill-opacity="1"><g transform="translate(232.87333, 56.535077)"><g/></g></g><g fill="#17191a" fill-opacity="1"><g transform="translate(237.328274, 56.535077)"><g/></g></g><g fill="#17191a" fill-opacity="1"><g transform="translate(241.783218, 56.535077)"><g/></g></g><g fill="#17191a" fill-opacity="1"><g transform="translate(246.238162, 56.535077)"><g/></g></g><g fill="#17191a" fill-opacity="1"><g transform="translate(250.693106, 56.535077)"><g/></g></g><g fill="#17191a" fill-opacity="1"><g transform="translate(255.14805, 56.535077)"><g/></g></g><g fill="#17191a" fill-opacity="1"><g transform="translate(259.602994, 56.535077)"><g/></g></g><g fill="#17191a" fill-opacity="1"><g transform="translate(264.057938, 56.535077)"><g/></g></g><g fill="#17191a" fill-opacity="1"><g transform="translate(268.512882, 56.535077)"><g/></g></g><g fill="#17191a" fill-opacity="1"><g transform="translate(272.967826, 56.535077)"><g/></g></g><g fill="#17191a" fill-opacity="1"><g transform="translate(277.42277, 56.535077)"><g/></g></g><g fill="#17191a" fill-opacity="1"><g transform="translate(281.877714, 56.535077)"><g/></g></g><g fill="#17191a" fill-opacity="1"><g transform="translate(286.332658, 56.535077)"><g/></g></g><g fill="#17191a" fill-opacity="1"><g transform="translate(290.787602, 56.535077)"><g/></g></g><g fill="#17191a" fill-opacity="1"><g transform="translate(295.242546, 56.535077)"><g/></g></g><g fill="#17191a" fill-opacity="1"><g transform="translate(299.69749, 56.535077)"><g/></g></g><g fill="#17191a" fill-opacity="1"><g transform="translate(304.152434, 56.535077)"><g/></g></g><g fill="#17191a" fill-opacity="1"><g transform="translate(308.607378, 56.535077)"><g/></g></g><g fill="#17191a" fill-opacity="1"><g transform="translate(313.062322, 56.535077)"><g/></g></g><g fill="#17191a" fill-opacity="1"><g transform="translate(317.517266, 56.535077)"><g/></g></g><g fill="#17191a" fill-opacity="1"><g transform="translate(321.972211, 56.535077)"><g/></g></g><g fill="#17191a" fill-opacity="1"><g transform="translate(326.427155, 56.535077)"><g/></g></g><g fill="#17191a" fill-opacity="1"><g transform="translate(330.882099, 56.535077)"><g/></g></g><g fill="#17191a" fill-opacity="1"><g transform="translate(335.337043, 56.535077)"><g/></g></g><g fill="#17191a" fill-opacity="1"><g transform="translate(339.791987, 56.535077)"><g/></g></g><g fill="#17191a" fill-opacity="1"><g transform="translate(344.246931, 56.535077)"><g/></g></g><g fill="#17191a" fill-opacity="1"><g transform="translate(348.701875, 56.535077)"><g/></g></g><g fill="#17191a" fill-opacity="1"><g transform="translate(353.156819, 56.535077)"><g/></g></g><g fill="#17191a" fill-opacity="1"><g transform="translate(357.611763, 56.535077)"><g/></g></g><g fill="#17191a" fill-opacity="1"><g transform="translate(362.066707, 56.535077)"><g/></g></g><g fill="#17191a" fill-opacity="1"><g transform="translate(366.521651, 56.535077)"><g/></g></g><g fill="#17191a" fill-opacity="1"><g transform="translate(370.976595, 56.535077)"><g/></g></g><path fill="#17191a" d="M 45.429688 42.699219 C 45.429688 42.289062 45.429688 42.183594 45.128906 42.183594 C 44.957031 42.183594 44.890625 42.183594 44.71875 42.441406 L 38.25 52.496094 L 38.25 53.117188 L 43.902344 53.117188 L 43.902344 55.078125 C 43.902344 55.875 43.859375 56.089844 42.289062 56.089844 L 41.859375 56.089844 L 41.859375 56.714844 C 42.355469 56.671875 44.054688 56.671875 44.65625 56.671875 C 45.257812 56.671875 46.976562 56.671875 47.472656 56.714844 L 47.472656 56.089844 L 47.042969 56.089844 C 45.496094 56.089844 45.429688 55.875 45.429688 55.078125 L 45.429688 53.117188 L 47.601562 53.117188 L 47.601562 52.496094 L 45.429688 52.496094 Z M 44.011719 44.378906 L 44.011719 52.496094 L 38.785156 52.496094 Z M 44.011719 44.378906 " fill-opacity="1" fill-rule="nonzero"/><g clip-path="url(#d00fbf99d9)"><path fill="#17191a" d="M 55.179688 61.945312 C 55.179688 61.878906 55.179688 61.835938 54.816406 61.472656 C 52.667969 59.296875 51.460938 55.746094 51.460938 51.351562 C 51.460938 47.175781 52.472656 43.582031 54.964844 41.042969 C 55.179688 40.847656 55.179688 40.804688 55.179688 40.738281 C 55.179688 40.609375 55.074219 40.566406 54.988281 40.566406 C 54.707031 40.566406 52.945312 42.117188 51.890625 44.226562 C 50.796875 46.402344 50.300781 48.707031 50.300781 51.351562 C 50.300781 53.269531 50.601562 55.832031 51.71875 58.136719 C 52.988281 60.71875 54.75 62.117188 54.988281 62.117188 C 55.074219 62.117188 55.179688 62.074219 55.179688 61.945312 Z M 55.179688 61.945312 " fill-opacity="1" fill-rule="nonzero"/></g><path fill="#17191a" d="M 60.339844 48.984375 C 59.972656 49.007812 59.886719 49.027344 59.886719 49.222656 C 59.886719 49.4375 59.992188 49.4375 60.382812 49.4375 L 61.371094 49.4375 C 63.199219 49.4375 64.015625 50.945312 64.015625 53.011719 C 64.015625 55.832031 62.550781 56.585938 61.5 56.585938 C 60.46875 56.585938 58.703125 56.089844 58.082031 54.667969 C 58.769531 54.777344 59.390625 54.390625 59.390625 53.613281 C 59.390625 52.988281 58.941406 52.558594 58.339844 52.558594 C 57.824219 52.558594 57.261719 52.859375 57.261719 53.679688 C 57.261719 55.59375 59.175781 57.167969 61.5625 57.167969 C 64.121094 57.167969 66.015625 55.207031 66.015625 53.03125 C 66.015625 51.050781 64.421875 49.5 62.359375 49.136719 C 64.230469 48.597656 65.433594 47.027344 65.433594 45.347656 C 65.433594 43.644531 63.671875 42.398438 61.585938 42.398438 C 59.433594 42.398438 57.84375 43.710938 57.84375 45.28125 C 57.84375 46.144531 58.511719 46.316406 58.832031 46.316406 C 59.285156 46.316406 59.800781 45.992188 59.800781 45.347656 C 59.800781 44.65625 59.285156 44.355469 58.8125 44.355469 C 58.683594 44.355469 58.640625 44.355469 58.574219 44.378906 C 59.390625 42.914062 61.414062 42.914062 61.519531 42.914062 C 62.230469 42.914062 63.628906 43.238281 63.628906 45.347656 C 63.628906 45.753906 63.5625 46.960938 62.941406 47.886719 C 62.292969 48.835938 61.5625 48.898438 60.984375 48.921875 Z M 60.339844 48.984375 " fill-opacity="1" fill-rule="nonzero"/><path fill="#17191a" d="M 77.097656 47.929688 C 76.410156 48.058594 76.152344 48.574219 76.152344 48.984375 C 76.152344 49.5 76.5625 49.675781 76.863281 49.675781 C 77.507812 49.675781 77.960938 49.113281 77.960938 48.53125 C 77.960938 47.628906 76.925781 47.21875 76.023438 47.21875 C 74.710938 47.21875 73.980469 48.511719 73.789062 48.921875 C 73.292969 47.304688 71.960938 47.21875 71.574219 47.21875 C 69.378906 47.21875 68.21875 50.039062 68.21875 50.515625 C 68.21875 50.601562 68.304688 50.707031 68.457031 50.707031 C 68.628906 50.707031 68.671875 50.578125 68.714844 50.492188 C 69.445312 48.101562 70.886719 47.648438 71.507812 47.648438 C 72.476562 47.648438 72.671875 48.554688 72.671875 49.070312 C 72.671875 49.542969 72.542969 50.039062 72.28125 51.074219 L 71.550781 54.023438 C 71.230469 55.316406 70.605469 56.5 69.464844 56.5 C 69.359375 56.5 68.820312 56.5 68.371094 56.21875 C 69.144531 56.066406 69.316406 55.421875 69.316406 55.164062 C 69.316406 54.734375 68.992188 54.476562 68.585938 54.476562 C 68.070312 54.476562 67.511719 54.925781 67.511719 55.617188 C 67.511719 56.519531 68.519531 56.929688 69.445312 56.929688 C 70.476562 56.929688 71.207031 56.109375 71.660156 55.226562 C 72.003906 56.5 73.078125 56.929688 73.875 56.929688 C 76.066406 56.929688 77.226562 54.109375 77.226562 53.636719 C 77.226562 53.527344 77.140625 53.441406 77.011719 53.441406 C 76.820312 53.441406 76.796875 53.550781 76.734375 53.722656 C 76.152344 55.617188 74.90625 56.5 73.9375 56.5 C 73.1875 56.5 72.777344 55.9375 72.777344 55.054688 C 72.777344 54.582031 72.863281 54.238281 73.207031 52.816406 L 73.960938 49.890625 C 74.28125 48.597656 75.011719 47.648438 76.003906 47.648438 C 76.046875 47.648438 76.648438 47.648438 77.097656 47.929688 Z M 77.097656 47.929688 " fill-opacity="1" fill-rule="nonzero"/><path fill="#17191a" d="M 97.816406 51.761719 C 98.179688 51.761719 98.566406 51.761719 98.566406 51.332031 C 98.566406 50.902344 98.179688 50.902344 97.816406 50.902344 L 86.183594 50.902344 C 85.820312 50.902344 85.433594 50.902344 85.433594 51.332031 C 85.433594 51.761719 85.820312 51.761719 86.183594 51.761719 Z M 97.816406 51.761719 " fill-opacity="1" fill-rule="nonzero"/><path fill="#17191a" d="M 114.605469 53.097656 L 114.132812 53.097656 C 114.070312 53.464844 113.898438 54.648438 113.683594 54.992188 C 113.53125 55.183594 112.304688 55.183594 111.660156 55.183594 L 107.683594 55.183594 C 108.265625 54.691406 109.574219 53.3125 110.136719 52.796875 C 113.402344 49.78125 114.605469 48.664062 114.605469 46.53125 C 114.605469 44.054688 112.652344 42.398438 110.15625 42.398438 C 107.664062 42.398438 106.199219 44.527344 106.199219 46.378906 C 106.199219 47.476562 107.148438 47.476562 107.210938 47.476562 C 107.664062 47.476562 108.222656 47.15625 108.222656 46.464844 C 108.222656 45.863281 107.8125 45.453125 107.210938 45.453125 C 107.015625 45.453125 106.972656 45.453125 106.910156 45.476562 C 107.320312 44.011719 108.480469 43.023438 109.878906 43.023438 C 111.703125 43.023438 112.824219 44.550781 112.824219 46.53125 C 112.824219 48.359375 111.769531 49.953125 110.542969 51.332031 L 106.199219 56.195312 L 106.199219 56.714844 L 114.046875 56.714844 Z M 114.605469 53.097656 " fill-opacity="1" fill-rule="nonzero"/><g clip-path="url(#b5835c1e1c)"><path fill="#17191a" d="M 121.734375 51.351562 C 121.734375 49.71875 121.519531 47.046875 120.316406 44.550781 C 119.046875 41.964844 117.285156 40.566406 117.050781 40.566406 C 116.964844 40.566406 116.855469 40.609375 116.855469 40.738281 C 116.855469 40.804688 116.855469 40.847656 117.222656 41.214844 C 119.371094 43.386719 120.574219 46.941406 120.574219 51.332031 C 120.574219 55.507812 119.5625 59.105469 117.070312 61.644531 C 116.855469 61.835938 116.855469 61.878906 116.855469 61.945312 C 116.855469 62.074219 116.964844 62.117188 117.050781 62.117188 C 117.328125 62.117188 119.089844 60.566406 120.144531 58.457031 C 121.242188 56.261719 121.734375 53.9375 121.734375 51.351562 Z M 121.734375 51.351562 " fill-opacity="1" fill-rule="nonzero"/></g><path fill="#17191a" d="M 137.214844 51.742188 L 143.148438 51.742188 C 143.449219 51.742188 143.839844 51.742188 143.839844 51.351562 C 143.839844 50.945312 143.472656 50.945312 143.148438 50.945312 L 137.214844 50.945312 L 137.214844 45.003906 C 137.214844 44.699219 137.214844 44.3125 136.828125 44.3125 C 136.421875 44.3125 136.421875 44.679688 136.421875 45.003906 L 136.421875 50.945312 L 130.488281 50.945312 C 130.183594 50.945312 129.796875 50.945312 129.796875 51.332031 C 129.796875 51.742188 130.164062 51.742188 130.488281 51.742188 L 136.421875 51.742188 L 136.421875 57.683594 C 136.421875 57.984375 136.421875 58.371094 136.808594 58.371094 C 137.214844 58.371094 137.214844 58.003906 137.214844 57.683594 Z M 137.214844 51.742188 " fill-opacity="1" fill-rule="nonzero"/><g clip-path="url(#c707405906)"><path fill="#17191a" d="M 156.777344 61.945312 C 156.777344 61.878906 156.777344 61.835938 156.410156 61.472656 C 154.261719 59.296875 153.058594 55.746094 153.058594 51.351562 C 153.058594 47.175781 154.070312 43.582031 156.5625 41.042969 C 156.777344 40.847656 156.777344 40.804688 156.777344 40.738281 C 156.777344 40.609375 156.671875 40.566406 156.585938 40.566406 C 156.304688 40.566406 154.542969 42.117188 153.488281 44.226562 C 152.390625 46.402344 151.898438 48.707031 151.898438 51.351562 C 151.898438 53.269531 152.199219 55.832031 153.316406 58.136719 C 154.585938 60.71875 156.347656 62.117188 156.585938 62.117188 C 156.671875 62.117188 156.777344 62.074219 156.777344 61.945312 Z M 156.777344 61.945312 " fill-opacity="1" fill-rule="nonzero"/></g><path fill="#17191a" d="M 168.167969 47.929688 C 167.480469 48.058594 167.222656 48.574219 167.222656 48.984375 C 167.222656 49.5 167.628906 49.675781 167.929688 49.675781 C 168.574219 49.675781 169.027344 49.113281 169.027344 48.53125 C 169.027344 47.628906 167.996094 47.21875 167.09375 47.21875 C 165.78125 47.21875 165.050781 48.511719 164.855469 48.921875 C 164.363281 47.304688 163.027344 47.21875 162.640625 47.21875 C 160.449219 47.21875 159.289062 50.039062 159.289062 50.515625 C 159.289062 50.601562 159.375 50.707031 159.523438 50.707031 C 159.695312 50.707031 159.738281 50.578125 159.78125 50.492188 C 160.511719 48.101562 161.953125 47.648438 162.578125 47.648438 C 163.542969 47.648438 163.738281 48.554688 163.738281 49.070312 C 163.738281 49.542969 163.609375 50.039062 163.351562 51.074219 L 162.621094 54.023438 C 162.296875 55.316406 161.675781 56.5 160.535156 56.5 C 160.425781 56.5 159.890625 56.5 159.4375 56.21875 C 160.210938 56.066406 160.382812 55.421875 160.382812 55.164062 C 160.382812 54.734375 160.0625 54.476562 159.652344 54.476562 C 159.136719 54.476562 158.578125 54.925781 158.578125 55.617188 C 158.578125 56.519531 159.589844 56.929688 160.511719 56.929688 C 161.546875 56.929688 162.277344 56.109375 162.726562 55.226562 C 163.070312 56.5 164.148438 56.929688 164.941406 56.929688 C 167.136719 56.929688 168.296875 54.109375 168.296875 53.636719 C 168.296875 53.527344 168.210938 53.441406 168.082031 53.441406 C 167.886719 53.441406 167.867188 53.550781 167.800781 53.722656 C 167.222656 55.617188 165.972656 56.5 165.007812 56.5 C 164.253906 56.5 163.847656 55.9375 163.847656 55.054688 C 163.847656 54.582031 163.933594 54.238281 164.277344 52.816406 L 165.027344 49.890625 C 165.351562 48.597656 166.082031 47.648438 167.070312 47.648438 C 167.113281 47.648438 167.714844 47.648438 168.167969 47.929688 Z M 168.167969 47.929688 " fill-opacity="1" fill-rule="nonzero"/><path fill="#17191a" d="M 183.296875 51.742188 L 189.230469 51.742188 C 189.53125 51.742188 189.917969 51.742188 189.917969 51.351562 C 189.917969 50.945312 189.550781 50.945312 189.230469 50.945312 L 183.296875 50.945312 L 183.296875 45.003906 C 183.296875 44.699219 183.296875 44.3125 182.910156 44.3125 C 182.5 44.3125 182.5 44.679688 182.5 45.003906 L 182.5 50.945312 L 176.566406 50.945312 C 176.265625 50.945312 175.878906 50.945312 175.878906 51.332031 C 175.878906 51.742188 176.242188 51.742188 176.566406 51.742188 L 182.5 51.742188 L 182.5 57.683594 C 182.5 57.984375 182.5 58.371094 182.886719 58.371094 C 183.296875 58.371094 183.296875 58.003906 183.296875 57.683594 Z M 183.296875 51.742188 " fill-opacity="1" fill-rule="nonzero"/><path fill="#17191a" d="M 198.511719 49.222656 C 198.511719 43.773438 201.15625 42.914062 202.316406 42.914062 C 203.09375 42.914062 203.867188 43.152344 204.273438 43.796875 C 204.015625 43.796875 203.199219 43.796875 203.199219 44.679688 C 203.199219 45.152344 203.523438 45.5625 204.082031 45.5625 C 204.617188 45.5625 204.984375 45.238281 204.984375 44.613281 C 204.984375 43.496094 204.167969 42.398438 202.296875 42.398438 C 199.585938 42.398438 196.75 45.175781 196.75 49.910156 C 196.75 55.832031 199.328125 57.167969 201.15625 57.167969 C 203.5 57.167969 205.5 55.121094 205.5 52.320312 C 205.5 49.457031 203.5 47.542969 201.351562 47.542969 C 199.4375 47.542969 198.726562 49.199219 198.511719 49.804688 Z M 201.15625 56.585938 C 199.800781 56.585938 199.15625 55.378906 198.964844 54.925781 C 198.769531 54.367188 198.554688 53.3125 198.554688 51.804688 C 198.554688 50.105469 199.328125 47.972656 201.265625 47.972656 C 202.445312 47.972656 203.070312 48.769531 203.394531 49.5 C 203.738281 50.296875 203.738281 51.375 203.738281 52.300781 C 203.738281 53.398438 203.738281 54.367188 203.328125 55.183594 C 202.792969 56.21875 202.015625 56.585938 201.15625 56.585938 Z M 201.15625 56.585938 " fill-opacity="1" fill-rule="nonzero"/><g clip-path="url(#ca3960c76a)"><path fill="#17191a" d="M 212.457031 51.351562 C 212.457031 49.71875 212.242188 47.046875 211.039062 44.550781 C 209.769531 41.964844 208.007812 40.566406 207.769531 40.566406 C 207.683594 40.566406 207.578125 40.609375 207.578125 40.738281 C 207.578125 40.804688 207.578125 40.847656 207.941406 41.214844 C 210.09375 43.386719 211.296875 46.941406 211.296875 51.332031 C 211.296875 55.507812 210.285156 59.105469 207.792969 61.644531 C 207.578125 61.835938 207.578125 61.878906 207.578125 61.945312 C 207.578125 62.074219 207.683594 62.117188 207.769531 62.117188 C 208.050781 62.117188 209.8125 60.566406 210.867188 58.457031 C 211.960938 56.261719 212.457031 53.9375 212.457031 51.351562 Z M 212.457031 51.351562 " fill-opacity="1" fill-rule="nonzero"/></g><g clip-path="url(#9d76076ee0)"><path fill="#17191a" d="M 218.621094 44.898438 C 218.851562 44.683594 219.453125 44.207031 219.683594 44.007812 C 220.570312 43.1875 221.417969 42.398438 221.417969 41.09375 C 221.417969 39.386719 219.984375 38.28125 218.191406 38.28125 C 216.472656 38.28125 215.339844 39.585938 215.339844 40.863281 C 215.339844 41.566406 215.898438 41.667969 216.101562 41.667969 C 216.402344 41.667969 216.84375 41.453125 216.84375 40.90625 C 216.84375 40.160156 216.128906 40.160156 215.957031 40.160156 C 216.371094 39.113281 217.332031 38.753906 218.035156 38.753906 C 219.367188 38.753906 220.054688 39.886719 220.054688 41.09375 C 220.054688 42.585938 219.007812 43.675781 217.316406 45.414062 L 215.511719 47.28125 C 215.339844 47.4375 215.339844 47.464844 215.339844 47.824219 L 221 47.824219 L 221.417969 45.257812 L 220.972656 45.257812 C 220.929688 45.542969 220.816406 46.261719 220.644531 46.535156 C 220.558594 46.648438 219.46875 46.648438 219.238281 46.648438 L 216.6875 46.648438 Z M 218.621094 44.898438 " fill-opacity="1" fill-rule="nonzero"/></g></svg>