<svg xmlns="http://www.w3.org/2000/svg" xmlns:xlink="http://www.w3.org/1999/xlink" width="500" zoomAndPan="magnify" viewBox="0 0 375 74.999997" height="100" preserveAspectRatio="xMidYMid meet" version="1.0"><defs><clipPath id="2581e3d70b"><path d="M 138 32 L 158 32 L 158 51.449219 L 138 51.449219 Z M 138 32 " clip-rule="nonzero"/></clipPath><clipPath id="bdef330956"><path d="M 217 32 L 237 32 L 237 51.449219 L 217 51.449219 Z M 217 32 " clip-rule="nonzero"/></clipPath><clipPath id="6e7c5299de"><path d="M 259 29 L 271.625 29 L 271.625 50 L 259 50 Z M 259 29 " clip-rule="nonzero"/></clipPath></defs><path fill="#a8180f" d="M 117.265625 37.039062 C 116.34375 37.210938 116 37.90625 116 38.453125 C 116 39.148438 116.546875 39.378906 116.949219 39.378906 C 117.8125 39.378906 118.417969 38.628906 118.417969 37.847656 C 118.417969 36.632812 117.035156 36.085938 115.828125 36.085938 C 114.070312 36.085938 113.09375 37.820312 112.832031 38.367188 C 112.171875 36.203125 110.386719 36.085938 109.871094 36.085938 C 106.933594 36.085938 105.378906 39.871094 105.378906 40.507812 C 105.378906 40.621094 105.496094 40.765625 105.695312 40.765625 C 105.925781 40.765625 105.984375 40.59375 106.042969 40.476562 C 107.019531 37.269531 108.949219 36.664062 109.78125 36.664062 C 111.078125 36.664062 111.335938 37.878906 111.335938 38.570312 C 111.335938 39.207031 111.164062 39.871094 110.820312 41.257812 L 109.839844 45.214844 C 109.410156 46.949219 108.574219 48.539062 107.050781 48.539062 C 106.90625 48.539062 106.183594 48.539062 105.582031 48.164062 C 106.617188 47.960938 106.847656 47.09375 106.847656 46.746094 C 106.847656 46.167969 106.414062 45.824219 105.867188 45.824219 C 105.179688 45.824219 104.429688 46.429688 104.429688 47.355469 C 104.429688 48.566406 105.78125 49.117188 107.019531 49.117188 C 108.402344 49.117188 109.378906 48.019531 109.984375 46.835938 C 110.445312 48.539062 111.882812 49.117188 112.949219 49.117188 C 115.882812 49.117188 117.4375 45.332031 117.4375 44.695312 C 117.4375 44.550781 117.324219 44.4375 117.152344 44.4375 C 116.890625 44.4375 116.863281 44.582031 116.777344 44.8125 C 116 47.355469 114.332031 48.539062 113.035156 48.539062 C 112.027344 48.539062 111.480469 47.789062 111.480469 46.601562 C 111.480469 45.96875 111.597656 45.503906 112.054688 43.597656 L 113.0625 39.667969 C 113.496094 37.933594 114.472656 36.664062 115.796875 36.664062 C 115.855469 36.664062 116.660156 36.664062 117.265625 37.039062 Z M 117.265625 37.039062 " fill-opacity="1" fill-rule="nonzero"/><path fill="#a8180f" d="M 125.046875 32.96875 C 125.355469 32.679688 126.160156 32.042969 126.46875 31.773438 C 127.65625 30.675781 128.789062 29.617188 128.789062 27.863281 C 128.789062 25.570312 126.871094 24.089844 124.472656 24.089844 C 122.171875 24.089844 120.65625 25.839844 120.65625 27.554688 C 120.65625 28.5 121.402344 28.632812 121.671875 28.632812 C 122.074219 28.632812 122.667969 28.347656 122.667969 27.613281 C 122.667969 26.613281 121.710938 26.613281 121.480469 26.613281 C 122.035156 25.207031 123.320312 24.722656 124.261719 24.722656 C 126.046875 24.722656 126.964844 26.246094 126.964844 27.863281 C 126.964844 29.867188 125.566406 31.332031 123.300781 33.664062 L 120.882812 36.167969 C 120.65625 36.378906 120.65625 36.417969 120.65625 36.898438 L 128.234375 36.898438 L 128.789062 33.449219 L 128.195312 33.449219 C 128.136719 33.835938 127.984375 34.796875 127.753906 35.164062 C 127.636719 35.320312 126.179688 35.320312 125.875 35.320312 L 122.457031 35.320312 Z M 125.046875 32.96875 " fill-opacity="1" fill-rule="nonzero"/><g clip-path="url(#2581e3d70b)"><path fill="#a8180f" d="M 148.90625 42.152344 L 156.851562 42.152344 C 157.253906 42.152344 157.773438 42.152344 157.773438 41.632812 C 157.773438 41.085938 157.28125 41.085938 156.851562 41.085938 L 148.90625 41.085938 L 148.90625 33.109375 C 148.90625 32.707031 148.90625 32.183594 148.390625 32.183594 C 147.84375 32.183594 147.84375 32.675781 147.84375 33.109375 L 147.84375 41.085938 L 139.898438 41.085938 C 139.496094 41.085938 138.980469 41.085938 138.980469 41.605469 C 138.980469 42.152344 139.46875 42.152344 139.898438 42.152344 L 147.84375 42.152344 L 147.84375 50.128906 C 147.84375 50.53125 147.84375 51.054688 148.363281 51.054688 C 148.90625 51.054688 148.90625 50.5625 148.90625 50.128906 Z M 148.90625 42.152344 " fill-opacity="1" fill-rule="nonzero"/></g><path fill="#a8180f" d="M 178.402344 43.972656 L 177.769531 43.972656 C 177.683594 44.464844 177.453125 46.054688 177.164062 46.515625 C 176.964844 46.777344 175.324219 46.777344 174.460938 46.777344 L 169.136719 46.777344 C 169.914062 46.113281 171.667969 44.261719 172.417969 43.570312 C 176.792969 39.523438 178.402344 38.023438 178.402344 35.160156 C 178.402344 31.839844 175.785156 29.613281 172.445312 29.613281 C 169.105469 29.613281 167.148438 32.472656 167.148438 34.957031 C 167.148438 36.433594 168.417969 36.433594 168.503906 36.433594 C 169.105469 36.433594 169.855469 36 169.855469 35.074219 C 169.855469 34.265625 169.308594 33.714844 168.503906 33.714844 C 168.242188 33.714844 168.1875 33.714844 168.101562 33.746094 C 168.648438 31.78125 170.199219 30.453125 172.070312 30.453125 C 174.515625 30.453125 176.015625 32.503906 176.015625 35.160156 C 176.015625 37.617188 174.605469 39.753906 172.964844 41.605469 L 167.148438 48.132812 L 167.148438 48.828125 L 177.65625 48.828125 Z M 178.402344 43.972656 " fill-opacity="1" fill-rule="nonzero"/><path fill="#a8180f" d="M 190.21875 30.019531 C 190.21875 29.46875 190.21875 29.324219 189.816406 29.324219 C 189.585938 29.324219 189.5 29.324219 189.269531 29.671875 L 180.605469 43.164062 L 180.605469 44.003906 L 188.175781 44.003906 L 188.175781 46.632812 C 188.175781 47.703125 188.117188 47.988281 186.015625 47.988281 L 185.441406 47.988281 L 185.441406 48.828125 C 186.105469 48.769531 188.378906 48.769531 189.183594 48.769531 C 189.988281 48.769531 192.292969 48.769531 192.953125 48.828125 L 192.953125 47.988281 L 192.378906 47.988281 C 190.304688 47.988281 190.21875 47.703125 190.21875 46.632812 L 190.21875 44.003906 L 193.125 44.003906 L 193.125 43.164062 L 190.21875 43.164062 Z M 188.320312 32.273438 L 188.320312 43.164062 L 181.328125 43.164062 Z M 188.320312 32.273438 " fill-opacity="1" fill-rule="nonzero"/><path fill="#a8180f" d="M 207.5625 37.039062 C 206.640625 37.210938 206.292969 37.90625 206.292969 38.453125 C 206.292969 39.148438 206.839844 39.378906 207.246094 39.378906 C 208.109375 39.378906 208.710938 38.628906 208.710938 37.847656 C 208.710938 36.632812 207.332031 36.085938 206.121094 36.085938 C 204.367188 36.085938 203.386719 37.820312 203.128906 38.367188 C 202.46875 36.203125 200.683594 36.085938 200.164062 36.085938 C 197.230469 36.085938 195.675781 39.871094 195.675781 40.507812 C 195.675781 40.621094 195.789062 40.765625 195.992188 40.765625 C 196.222656 40.765625 196.28125 40.59375 196.335938 40.476562 C 197.316406 37.269531 199.242188 36.664062 200.078125 36.664062 C 201.375 36.664062 201.632812 37.878906 201.632812 38.570312 C 201.632812 39.207031 201.460938 39.871094 201.113281 41.257812 L 200.136719 45.214844 C 199.703125 46.949219 198.871094 48.539062 197.34375 48.539062 C 197.199219 48.539062 196.480469 48.539062 195.875 48.164062 C 196.914062 47.960938 197.144531 47.09375 197.144531 46.746094 C 197.144531 46.167969 196.710938 45.824219 196.164062 45.824219 C 195.472656 45.824219 194.726562 46.429688 194.726562 47.355469 C 194.726562 48.566406 196.078125 49.117188 197.316406 49.117188 C 198.695312 49.117188 199.675781 48.019531 200.28125 46.835938 C 200.742188 48.539062 202.179688 49.117188 203.246094 49.117188 C 206.179688 49.117188 207.734375 45.332031 207.734375 44.695312 C 207.734375 44.550781 207.617188 44.4375 207.445312 44.4375 C 207.1875 44.4375 207.160156 44.582031 207.070312 44.8125 C 206.292969 47.355469 204.625 48.539062 203.332031 48.539062 C 202.324219 48.539062 201.777344 47.789062 201.777344 46.601562 C 201.777344 45.96875 201.890625 45.503906 202.351562 43.597656 L 203.359375 39.667969 C 203.792969 37.933594 204.769531 36.664062 206.09375 36.664062 C 206.152344 36.664062 206.957031 36.664062 207.5625 37.039062 Z M 207.5625 37.039062 " fill-opacity="1" fill-rule="nonzero"/><g clip-path="url(#bdef330956)"><path fill="#a8180f" d="M 227.808594 42.152344 L 235.753906 42.152344 C 236.15625 42.152344 236.675781 42.152344 236.675781 41.632812 C 236.675781 41.085938 236.183594 41.085938 235.753906 41.085938 L 227.808594 41.085938 L 227.808594 33.109375 C 227.808594 32.707031 227.808594 32.183594 227.292969 32.183594 C 226.746094 32.183594 226.746094 32.675781 226.746094 33.109375 L 226.746094 41.085938 L 218.800781 41.085938 C 218.398438 41.085938 217.882812 41.085938 217.882812 41.605469 C 217.882812 42.152344 218.371094 42.152344 218.800781 42.152344 L 226.746094 42.152344 L 226.746094 50.128906 C 226.746094 50.53125 226.746094 51.054688 227.261719 51.054688 C 227.808594 51.054688 227.808594 50.5625 227.808594 50.128906 Z M 227.808594 42.152344 " fill-opacity="1" fill-rule="nonzero"/></g><path fill="#a8180f" d="M 257.304688 43.972656 L 256.671875 43.972656 C 256.585938 44.464844 256.355469 46.054688 256.066406 46.515625 C 255.867188 46.777344 254.226562 46.777344 253.363281 46.777344 L 248.039062 46.777344 C 248.816406 46.113281 250.570312 44.261719 251.320312 43.570312 C 255.691406 39.523438 257.304688 38.023438 257.304688 35.160156 C 257.304688 31.839844 254.6875 29.613281 251.347656 29.613281 C 248.007812 29.613281 246.050781 32.472656 246.050781 34.957031 C 246.050781 36.433594 247.316406 36.433594 247.40625 36.433594 C 248.007812 36.433594 248.757812 36 248.757812 35.074219 C 248.757812 34.265625 248.210938 33.714844 247.40625 33.714844 C 247.144531 33.714844 247.085938 33.714844 247 33.746094 C 247.546875 31.78125 249.101562 30.453125 250.972656 30.453125 C 253.417969 30.453125 254.914062 32.503906 254.914062 35.160156 C 254.914062 37.617188 253.503906 39.753906 251.863281 41.605469 L 246.050781 48.132812 L 246.050781 48.828125 L 256.554688 48.828125 Z M 257.304688 43.972656 " fill-opacity="1" fill-rule="nonzero"/><g clip-path="url(#6e7c5299de)"><path fill="#a8180f" d="M 267.308594 38.398438 C 268.746094 37.617188 270.847656 36.289062 270.847656 33.859375 C 270.847656 31.347656 268.429688 29.613281 265.78125 29.613281 C 262.933594 29.613281 260.6875 31.722656 260.6875 34.351562 C 260.6875 35.335938 260.976562 36.316406 261.78125 37.300781 C 262.097656 37.675781 262.128906 37.703125 264.140625 39.121094 C 261.351562 40.417969 259.910156 42.355469 259.910156 44.464844 C 259.910156 47.527344 262.816406 49.433594 265.753906 49.433594 C 268.949219 49.433594 271.625 47.066406 271.625 44.03125 C 271.625 41.085938 269.550781 39.785156 267.308594 38.398438 Z M 263.394531 35.796875 C 263.019531 35.535156 261.867188 34.785156 261.867188 33.371094 C 261.867188 31.492188 263.824219 30.308594 265.753906 30.308594 C 267.824219 30.308594 269.667969 31.808594 269.667969 33.890625 C 269.667969 35.652344 268.402344 37.066406 266.730469 37.992188 Z M 264.746094 39.523438 L 268.230469 41.808594 C 268.976562 42.296875 270.300781 43.195312 270.300781 44.957031 C 270.300781 47.152344 268.085938 48.65625 265.78125 48.65625 C 263.335938 48.65625 261.234375 46.863281 261.234375 44.464844 C 261.234375 42.210938 262.875 40.390625 264.746094 39.523438 Z M 264.746094 39.523438 " fill-opacity="1" fill-rule="nonzero"/></g></svg>