<svg xmlns="http://www.w3.org/2000/svg" xmlns:xlink="http://www.w3.org/1999/xlink" width="500" zoomAndPan="magnify" viewBox="0 0 375 74.999997" height="100" preserveAspectRatio="xMidYMid meet" version="1.0"><defs><g/><clipPath id="f20d0ba879"><path d="M 307 35.347656 L 313 35.347656 L 313 43 L 307 43 Z M 307 35.347656 " clip-rule="nonzero"/></clipPath><clipPath id="3e07072692"><path d="M 178.054688 55 L 314 55 L 314 57 L 178.054688 57 Z M 178.054688 55 " clip-rule="nonzero"/></clipPath><clipPath id="7852595c84"><path d="M 224 63 L 233 63 L 233 71.347656 L 224 71.347656 Z M 224 63 " clip-rule="nonzero"/></clipPath><clipPath id="5753a75639"><path d="M 261 60 L 267 60 L 267 71.347656 L 261 71.347656 Z M 261 60 " clip-rule="nonzero"/></clipPath></defs><g fill="#17191a" fill-opacity="1"><g transform="translate(15.000006, 31.534081)"><g><path d="M 3.421875 -7.1875 L 4.65625 -7.1875 C 5.414062 -7.195312 6.015625 -7.398438 6.453125 -7.796875 C 6.898438 -8.191406 7.125 -8.722656 7.125 -9.390625 C 7.125 -10.890625 6.375 -11.640625 4.875 -11.640625 C 4.175781 -11.640625 3.613281 -11.4375 3.1875 -11.03125 C 2.769531 -10.632812 2.5625 -10.101562 2.5625 -9.4375 L 0.9375 -9.4375 C 0.9375 -10.445312 1.304688 -11.285156 2.046875 -11.953125 C 2.796875 -12.628906 3.738281 -12.96875 4.875 -12.96875 C 6.082031 -12.96875 7.03125 -12.648438 7.71875 -12.015625 C 8.40625 -11.378906 8.75 -10.492188 8.75 -9.359375 C 8.75 -8.796875 8.566406 -8.253906 8.203125 -7.734375 C 7.847656 -7.210938 7.359375 -6.820312 6.734375 -6.5625 C 7.429688 -6.34375 7.972656 -5.972656 8.359375 -5.453125 C 8.742188 -4.941406 8.9375 -4.3125 8.9375 -3.5625 C 8.9375 -2.414062 8.5625 -1.503906 7.8125 -0.828125 C 7.0625 -0.160156 6.082031 0.171875 4.875 0.171875 C 3.675781 0.171875 2.703125 -0.148438 1.953125 -0.796875 C 1.203125 -1.453125 0.828125 -2.3125 0.828125 -3.375 L 2.46875 -3.375 C 2.46875 -2.695312 2.6875 -2.15625 3.125 -1.75 C 3.5625 -1.351562 4.148438 -1.15625 4.890625 -1.15625 C 5.671875 -1.15625 6.269531 -1.359375 6.6875 -1.765625 C 7.101562 -2.171875 7.3125 -2.757812 7.3125 -3.53125 C 7.3125 -4.28125 7.082031 -4.851562 6.625 -5.25 C 6.164062 -5.644531 5.507812 -5.847656 4.65625 -5.859375 L 3.421875 -5.859375 Z M 3.421875 -7.1875 "/></g></g></g><g fill="#17191a" fill-opacity="1"><g transform="translate(25.104909, 31.534081)"><g><path d="M 4.984375 -5.109375 C 4.984375 -3.796875 4.8125 -2.539062 4.46875 -1.34375 C 4.125 -0.144531 3.597656 0.957031 2.890625 1.96875 C 2.191406 2.976562 1.453125 3.695312 0.671875 4.125 L 0.328125 3.140625 C 1.234375 2.441406 1.957031 1.367188 2.5 -0.078125 C 3.050781 -1.535156 3.332031 -3.15625 3.34375 -4.9375 L 3.34375 -5.21875 C 3.34375 -6.445312 3.210938 -7.585938 2.953125 -8.640625 C 2.703125 -9.703125 2.347656 -10.648438 1.890625 -11.484375 C 1.429688 -12.328125 0.910156 -12.984375 0.328125 -13.453125 L 0.671875 -14.4375 C 1.453125 -14.007812 2.191406 -13.296875 2.890625 -12.296875 C 3.585938 -11.296875 4.109375 -10.191406 4.453125 -8.984375 C 4.804688 -7.773438 4.984375 -6.484375 4.984375 -5.109375 Z M 4.984375 -5.109375 "/></g></g></g><g fill="#17191a" fill-opacity="1"><g transform="translate(31.361161, 31.534081)"><g/></g></g><g fill="#17191a" fill-opacity="1"><g transform="translate(35.816106, 31.534081)"><g><path d="M 10.90625 -4.0625 C 10.738281 -2.707031 10.234375 -1.660156 9.390625 -0.921875 C 8.554688 -0.191406 7.441406 0.171875 6.046875 0.171875 C 4.535156 0.171875 3.320312 -0.367188 2.40625 -1.453125 C 1.5 -2.535156 1.046875 -3.984375 1.046875 -5.796875 L 1.046875 -7.03125 C 1.046875 -8.21875 1.257812 -9.257812 1.6875 -10.15625 C 2.113281 -11.0625 2.710938 -11.753906 3.484375 -12.234375 C 4.265625 -12.722656 5.171875 -12.96875 6.203125 -12.96875 C 7.554688 -12.96875 8.644531 -12.585938 9.46875 -11.828125 C 10.289062 -11.078125 10.769531 -10.03125 10.90625 -8.6875 L 9.203125 -8.6875 C 9.054688 -9.707031 8.738281 -10.441406 8.25 -10.890625 C 7.757812 -11.347656 7.078125 -11.578125 6.203125 -11.578125 C 5.117188 -11.578125 4.269531 -11.175781 3.65625 -10.375 C 3.050781 -9.582031 2.75 -8.453125 2.75 -6.984375 L 2.75 -5.75 C 2.75 -4.363281 3.035156 -3.257812 3.609375 -2.4375 C 4.191406 -1.613281 5.003906 -1.203125 6.046875 -1.203125 C 6.984375 -1.203125 7.703125 -1.414062 8.203125 -1.84375 C 8.703125 -2.269531 9.035156 -3.007812 9.203125 -4.0625 Z M 5.96875 -15.03125 L 7.28125 -16.515625 L 8.6875 -16.515625 L 8.6875 -16.4375 L 6.453125 -14.03125 L 5.46875 -14.03125 L 3.25 -16.4375 L 3.25 -16.515625 L 4.640625 -16.515625 Z M 5.96875 -15.03125 "/></g></g></g><g fill="#17191a" fill-opacity="1"><g transform="translate(47.529006, 31.534081)"><g><path d="M 5.171875 0.171875 C 3.890625 0.171875 2.84375 -0.25 2.03125 -1.09375 C 1.21875 -1.9375 0.8125 -3.066406 0.8125 -4.484375 L 0.8125 -4.796875 C 0.8125 -5.734375 0.992188 -6.570312 1.359375 -7.3125 C 1.722656 -8.050781 2.226562 -8.628906 2.875 -9.046875 C 3.519531 -9.472656 4.21875 -9.6875 4.96875 -9.6875 C 6.207031 -9.6875 7.171875 -9.28125 7.859375 -8.46875 C 8.546875 -7.65625 8.890625 -6.488281 8.890625 -4.96875 L 8.890625 -4.296875 L 2.4375 -4.296875 C 2.46875 -3.359375 2.742188 -2.597656 3.265625 -2.015625 C 3.785156 -1.441406 4.453125 -1.15625 5.265625 -1.15625 C 5.835938 -1.15625 6.320312 -1.269531 6.71875 -1.5 C 7.125 -1.738281 7.472656 -2.050781 7.765625 -2.4375 L 8.765625 -1.65625 C 7.960938 -0.4375 6.765625 0.171875 5.171875 0.171875 Z M 4.96875 -8.34375 C 4.3125 -8.34375 3.757812 -8.101562 3.3125 -7.625 C 2.875 -7.15625 2.601562 -6.488281 2.5 -5.625 L 7.265625 -5.625 L 7.265625 -5.75 C 7.210938 -6.570312 6.988281 -7.207031 6.59375 -7.65625 C 6.195312 -8.113281 5.65625 -8.34375 4.96875 -8.34375 Z M 4.96875 -8.34375 "/></g></g></g><g fill="#17191a" fill-opacity="1"><g transform="translate(57.062762, 31.534081)"><g><path d="M 2.765625 -9.515625 L 2.796875 -8.453125 C 3.492188 -9.273438 4.4375 -9.6875 5.625 -9.6875 C 6.957031 -9.6875 7.863281 -9.175781 8.34375 -8.15625 C 8.65625 -8.613281 9.066406 -8.984375 9.578125 -9.265625 C 10.085938 -9.546875 10.6875 -9.6875 11.375 -9.6875 C 13.457031 -9.6875 14.519531 -8.582031 14.5625 -6.375 L 14.5625 0 L 12.921875 0 L 12.921875 -6.28125 C 12.921875 -6.957031 12.765625 -7.460938 12.453125 -7.796875 C 12.148438 -8.140625 11.632812 -8.3125 10.90625 -8.3125 C 10.300781 -8.3125 9.796875 -8.128906 9.390625 -7.765625 C 8.992188 -7.398438 8.765625 -6.914062 8.703125 -6.3125 L 8.703125 0 L 7.0625 0 L 7.0625 -6.234375 C 7.0625 -7.617188 6.382812 -8.3125 5.03125 -8.3125 C 3.96875 -8.3125 3.238281 -7.851562 2.84375 -6.9375 L 2.84375 0 L 1.21875 0 L 1.21875 -9.515625 Z M 2.765625 -9.515625 "/></g></g></g><g fill="#17191a" fill-opacity="1"><g transform="translate(72.835196, 31.534081)"><g><path d="M 7.109375 -0.9375 C 6.472656 -0.195312 5.539062 0.171875 4.3125 0.171875 C 3.300781 0.171875 2.53125 -0.117188 2 -0.703125 C 1.46875 -1.296875 1.203125 -2.171875 1.203125 -3.328125 L 1.203125 -9.515625 L 2.828125 -9.515625 L 2.828125 -3.359375 C 2.828125 -1.921875 3.410156 -1.203125 4.578125 -1.203125 C 5.816406 -1.203125 6.644531 -1.664062 7.0625 -2.59375 L 7.0625 -9.515625 L 8.6875 -9.515625 L 8.6875 0 L 7.140625 0 Z M 7.109375 -0.9375 "/></g></g></g><g fill="#17191a" fill-opacity="1"><g transform="translate(82.755575, 31.534081)"><g/></g></g><g fill="#17191a" fill-opacity="1"><g transform="translate(87.210519, 31.534081)"><g><path d="M 2.90625 -9.515625 L 2.90625 1.09375 C 2.90625 2.925781 2.078125 3.84375 0.421875 3.84375 C 0.0664062 3.84375 -0.265625 3.789062 -0.578125 3.6875 L -0.578125 2.375 C -0.390625 2.425781 -0.140625 2.453125 0.171875 2.453125 C 0.535156 2.453125 0.8125 2.351562 1 2.15625 C 1.1875 1.957031 1.28125 1.617188 1.28125 1.140625 L 1.28125 -9.515625 Z M 1.109375 -12.03125 C 1.109375 -12.289062 1.1875 -12.507812 1.34375 -12.6875 C 1.507812 -12.875 1.75 -12.96875 2.0625 -12.96875 C 2.382812 -12.96875 2.625 -12.875 2.78125 -12.6875 C 2.945312 -12.507812 3.03125 -12.289062 3.03125 -12.03125 C 3.03125 -11.769531 2.945312 -11.550781 2.78125 -11.375 C 2.625 -11.195312 2.382812 -11.109375 2.0625 -11.109375 C 1.75 -11.109375 1.507812 -11.195312 1.34375 -11.375 C 1.1875 -11.550781 1.109375 -11.769531 1.109375 -12.03125 Z M 1.109375 -12.03125 "/></g></g></g><g fill="#17191a" fill-opacity="1"><g transform="translate(91.507299, 31.534081)"><g><path d="M 5.171875 0.171875 C 3.890625 0.171875 2.84375 -0.25 2.03125 -1.09375 C 1.21875 -1.9375 0.8125 -3.066406 0.8125 -4.484375 L 0.8125 -4.796875 C 0.8125 -5.734375 0.992188 -6.570312 1.359375 -7.3125 C 1.722656 -8.050781 2.226562 -8.628906 2.875 -9.046875 C 3.519531 -9.472656 4.21875 -9.6875 4.96875 -9.6875 C 6.207031 -9.6875 7.171875 -9.28125 7.859375 -8.46875 C 8.546875 -7.65625 8.890625 -6.488281 8.890625 -4.96875 L 8.890625 -4.296875 L 2.4375 -4.296875 C 2.46875 -3.359375 2.742188 -2.597656 3.265625 -2.015625 C 3.785156 -1.441406 4.453125 -1.15625 5.265625 -1.15625 C 5.835938 -1.15625 6.320312 -1.269531 6.71875 -1.5 C 7.125 -1.738281 7.472656 -2.050781 7.765625 -2.4375 L 8.765625 -1.65625 C 7.960938 -0.4375 6.765625 0.171875 5.171875 0.171875 Z M 4.96875 -8.34375 C 4.3125 -8.34375 3.757812 -8.101562 3.3125 -7.625 C 2.875 -7.15625 2.601562 -6.488281 2.5 -5.625 L 7.265625 -5.625 L 7.265625 -5.75 C 7.210938 -6.570312 6.988281 -7.207031 6.59375 -7.65625 C 6.195312 -8.113281 5.65625 -8.34375 4.96875 -8.34375 Z M 4.96875 -8.34375 "/></g></g></g><g fill="#17191a" fill-opacity="1"><g transform="translate(101.041055, 31.534081)"><g/></g></g><g fill="#17191a" fill-opacity="1"><g transform="translate(105.495999, 31.534081)"><g><path d="M 2.90625 -9.515625 L 2.90625 1.09375 C 2.90625 2.925781 2.078125 3.84375 0.421875 3.84375 C 0.0664062 3.84375 -0.265625 3.789062 -0.578125 3.6875 L -0.578125 2.375 C -0.390625 2.425781 -0.140625 2.453125 0.171875 2.453125 C 0.535156 2.453125 0.8125 2.351562 1 2.15625 C 1.1875 1.957031 1.28125 1.617188 1.28125 1.140625 L 1.28125 -9.515625 Z M 1.109375 -12.03125 C 1.109375 -12.289062 1.1875 -12.507812 1.34375 -12.6875 C 1.507812 -12.875 1.75 -12.96875 2.0625 -12.96875 C 2.382812 -12.96875 2.625 -12.875 2.78125 -12.6875 C 2.945312 -12.507812 3.03125 -12.289062 3.03125 -12.03125 C 3.03125 -11.769531 2.945312 -11.550781 2.78125 -11.375 C 2.625 -11.195312 2.382812 -11.109375 2.0625 -11.109375 C 1.75 -11.109375 1.507812 -11.195312 1.34375 -11.375 C 1.1875 -11.550781 1.109375 -11.769531 1.109375 -12.03125 Z M 1.109375 -12.03125 "/></g></g></g><g fill="#17191a" fill-opacity="1"><g transform="translate(109.792779, 31.534081)"><g><path d="M 5.171875 0.171875 C 3.890625 0.171875 2.84375 -0.25 2.03125 -1.09375 C 1.21875 -1.9375 0.8125 -3.066406 0.8125 -4.484375 L 0.8125 -4.796875 C 0.8125 -5.734375 0.992188 -6.570312 1.359375 -7.3125 C 1.722656 -8.050781 2.226562 -8.628906 2.875 -9.046875 C 3.519531 -9.472656 4.21875 -9.6875 4.96875 -9.6875 C 6.207031 -9.6875 7.171875 -9.28125 7.859375 -8.46875 C 8.546875 -7.65625 8.890625 -6.488281 8.890625 -4.96875 L 8.890625 -4.296875 L 2.4375 -4.296875 C 2.46875 -3.359375 2.742188 -2.597656 3.265625 -2.015625 C 3.785156 -1.441406 4.453125 -1.15625 5.265625 -1.15625 C 5.835938 -1.15625 6.320312 -1.269531 6.71875 -1.5 C 7.125 -1.738281 7.472656 -2.050781 7.765625 -2.4375 L 8.765625 -1.65625 C 7.960938 -0.4375 6.765625 0.171875 5.171875 0.171875 Z M 4.96875 -8.34375 C 4.3125 -8.34375 3.757812 -8.101562 3.3125 -7.625 C 2.875 -7.15625 2.601562 -6.488281 2.5 -5.625 L 7.265625 -5.625 L 7.265625 -5.75 C 7.210938 -6.570312 6.988281 -7.207031 6.59375 -7.65625 C 6.195312 -8.113281 5.65625 -8.34375 4.96875 -8.34375 Z M 4.96875 -8.34375 "/></g></g></g><g fill="#17191a" fill-opacity="1"><g transform="translate(119.326535, 31.534081)"><g><path d="M 0.828125 -4.828125 C 0.828125 -6.285156 1.171875 -7.457031 1.859375 -8.34375 C 2.554688 -9.238281 3.46875 -9.6875 4.59375 -9.6875 C 5.707031 -9.6875 6.585938 -9.304688 7.234375 -8.546875 L 7.234375 -13.5 L 8.859375 -13.5 L 8.859375 0 L 7.359375 0 L 7.28125 -1.015625 C 6.632812 -0.222656 5.734375 0.171875 4.578125 0.171875 C 3.472656 0.171875 2.570312 -0.273438 1.875 -1.171875 C 1.175781 -2.078125 0.828125 -3.257812 0.828125 -4.71875 Z M 2.46875 -4.65625 C 2.46875 -3.570312 2.6875 -2.722656 3.125 -2.109375 C 3.570312 -1.503906 4.1875 -1.203125 4.96875 -1.203125 C 6 -1.203125 6.753906 -1.664062 7.234375 -2.59375 L 7.234375 -6.96875 C 6.742188 -7.863281 6 -8.3125 5 -8.3125 C 4.195312 -8.3125 3.570312 -8 3.125 -7.375 C 2.6875 -6.757812 2.46875 -5.851562 2.46875 -4.65625 Z M 2.46875 -4.65625 "/></g></g></g><g fill="#17191a" fill-opacity="1"><g transform="translate(129.475372, 31.534081)"><g><path d="M 2.765625 -9.515625 L 2.828125 -8.3125 C 3.546875 -9.226562 4.492188 -9.6875 5.671875 -9.6875 C 7.679688 -9.6875 8.691406 -8.550781 8.703125 -6.28125 L 8.703125 0 L 7.078125 0 L 7.078125 -6.296875 C 7.078125 -6.984375 6.921875 -7.488281 6.609375 -7.8125 C 6.304688 -8.144531 5.828125 -8.3125 5.171875 -8.3125 C 4.648438 -8.3125 4.1875 -8.171875 3.78125 -7.890625 C 3.382812 -7.609375 3.078125 -7.238281 2.859375 -6.78125 L 2.859375 0 L 1.234375 0 L 1.234375 -9.515625 Z M 2.765625 -9.515625 "/></g></g></g><g fill="#17191a" fill-opacity="1"><g transform="translate(139.404538, 31.534081)"><g><path d="M 7.109375 0 C 7.015625 -0.1875 6.9375 -0.519531 6.875 -1 C 6.113281 -0.21875 5.210938 0.171875 4.171875 0.171875 C 3.234375 0.171875 2.460938 -0.09375 1.859375 -0.625 C 1.253906 -1.15625 0.953125 -1.828125 0.953125 -2.640625 C 0.953125 -3.628906 1.328125 -4.394531 2.078125 -4.9375 C 2.835938 -5.488281 3.898438 -5.765625 5.265625 -5.765625 L 6.84375 -5.765625 L 6.84375 -6.515625 C 6.84375 -7.078125 6.671875 -7.523438 6.328125 -7.859375 C 5.992188 -8.203125 5.492188 -8.375 4.828125 -8.375 C 4.253906 -8.375 3.769531 -8.226562 3.375 -7.9375 C 2.976562 -7.644531 2.78125 -7.289062 2.78125 -6.875 L 1.15625 -6.875 C 1.15625 -7.34375 1.320312 -7.796875 1.65625 -8.234375 C 1.988281 -8.679688 2.441406 -9.035156 3.015625 -9.296875 C 3.597656 -9.554688 4.238281 -9.6875 4.9375 -9.6875 C 6.03125 -9.6875 6.882812 -9.410156 7.5 -8.859375 C 8.125 -8.316406 8.445312 -7.5625 8.46875 -6.59375 L 8.46875 -2.21875 C 8.46875 -1.351562 8.582031 -0.660156 8.8125 -0.140625 L 8.8125 0 Z M 4.40625 -1.234375 C 4.914062 -1.234375 5.398438 -1.363281 5.859375 -1.625 C 6.316406 -1.894531 6.644531 -2.238281 6.84375 -2.65625 L 6.84375 -4.609375 L 5.578125 -4.609375 C 3.578125 -4.609375 2.578125 -4.023438 2.578125 -2.859375 C 2.578125 -2.347656 2.75 -1.945312 3.09375 -1.65625 C 3.4375 -1.375 3.875 -1.234375 4.40625 -1.234375 Z M 4.40625 -1.234375 "/></g></g></g><g fill="#17191a" fill-opacity="1"><g transform="translate(149.193113, 31.534081)"><g><path d="M 3.890625 -4.40625 L 2.859375 -3.34375 L 2.859375 0 L 1.234375 0 L 1.234375 -13.5 L 2.859375 -13.5 L 2.859375 -5.328125 L 3.734375 -6.375 L 6.703125 -9.515625 L 8.671875 -9.515625 L 4.96875 -5.53125 L 9.109375 0 L 7.203125 0 Z M 3.890625 -4.40625 "/></g></g></g><g fill="#17191a" fill-opacity="1"><g transform="translate(158.313886, 31.534081)"><g/></g></g><g fill="#17191a" fill-opacity="1"><g transform="translate(162.76883, 31.534081)"><g><path d="M 9.28125 -4.65625 C 9.28125 -3.195312 8.945312 -2.023438 8.28125 -1.140625 C 7.613281 -0.265625 6.71875 0.171875 5.59375 0.171875 C 4.382812 0.171875 3.453125 -0.25 2.796875 -1.09375 L 2.71875 0 L 1.234375 0 L 1.234375 -13.5 L 2.859375 -13.5 L 2.859375 -8.46875 C 3.515625 -9.28125 4.414062 -9.6875 5.5625 -9.6875 C 6.71875 -9.6875 7.625 -9.25 8.28125 -8.375 C 8.945312 -7.5 9.28125 -6.304688 9.28125 -4.796875 Z M 7.65625 -4.828125 C 7.65625 -5.941406 7.441406 -6.800781 7.015625 -7.40625 C 6.585938 -8.007812 5.972656 -8.3125 5.171875 -8.3125 C 4.097656 -8.3125 3.328125 -7.8125 2.859375 -6.8125 L 2.859375 -2.703125 C 3.359375 -1.703125 4.132812 -1.203125 5.1875 -1.203125 C 5.96875 -1.203125 6.570312 -1.503906 7 -2.109375 C 7.4375 -2.710938 7.65625 -3.617188 7.65625 -4.828125 Z M 7.65625 -4.828125 "/></g></g></g><g fill="#17191a" fill-opacity="1"><g transform="translate(172.864946, 31.534081)"><g><path d="M 5.828125 -8.046875 C 5.578125 -8.085938 5.3125 -8.109375 5.03125 -8.109375 C 3.957031 -8.109375 3.234375 -7.65625 2.859375 -6.75 L 2.859375 0 L 1.234375 0 L 1.234375 -9.515625 L 2.8125 -9.515625 L 2.84375 -8.40625 C 3.375 -9.257812 4.128906 -9.6875 5.109375 -9.6875 C 5.421875 -9.6875 5.660156 -9.644531 5.828125 -9.5625 Z M 5.828125 -8.046875 "/></g></g></g><g fill="#17191a" fill-opacity="1"><g transform="translate(178.954248, 31.534081)"><g><path d="M 0.796875 -4.84375 C 0.796875 -5.769531 0.976562 -6.601562 1.34375 -7.34375 C 1.71875 -8.09375 2.226562 -8.671875 2.875 -9.078125 C 3.53125 -9.484375 4.273438 -9.6875 5.109375 -9.6875 C 6.410156 -9.6875 7.457031 -9.238281 8.25 -8.34375 C 9.050781 -7.445312 9.453125 -6.253906 9.453125 -4.765625 L 9.453125 -4.65625 C 9.453125 -3.726562 9.273438 -2.894531 8.921875 -2.15625 C 8.566406 -1.425781 8.0625 -0.851562 7.40625 -0.4375 C 6.75 -0.03125 5.992188 0.171875 5.140625 0.171875 C 3.847656 0.171875 2.800781 -0.273438 2 -1.171875 C 1.195312 -2.066406 0.796875 -3.253906 0.796875 -4.734375 Z M 2.4375 -4.65625 C 2.4375 -3.59375 2.679688 -2.742188 3.171875 -2.109375 C 3.660156 -1.472656 4.316406 -1.15625 5.140625 -1.15625 C 5.960938 -1.15625 6.613281 -1.476562 7.09375 -2.125 C 7.582031 -2.769531 7.828125 -3.675781 7.828125 -4.84375 C 7.828125 -5.882812 7.578125 -6.726562 7.078125 -7.375 C 6.585938 -8.019531 5.929688 -8.34375 5.109375 -8.34375 C 4.304688 -8.34375 3.660156 -8.023438 3.171875 -7.390625 C 2.679688 -6.753906 2.4375 -5.84375 2.4375 -4.65625 Z M 2.4375 -4.65625 "/></g></g></g><g fill="#17191a" fill-opacity="1"><g transform="translate(189.217314, 31.534081)"><g><path d="M 2.90625 -9.515625 L 2.90625 1.09375 C 2.90625 2.925781 2.078125 3.84375 0.421875 3.84375 C 0.0664062 3.84375 -0.265625 3.789062 -0.578125 3.6875 L -0.578125 2.375 C -0.390625 2.425781 -0.140625 2.453125 0.171875 2.453125 C 0.535156 2.453125 0.8125 2.351562 1 2.15625 C 1.1875 1.957031 1.28125 1.617188 1.28125 1.140625 L 1.28125 -9.515625 Z M 1.109375 -12.03125 C 1.109375 -12.289062 1.1875 -12.507812 1.34375 -12.6875 C 1.507812 -12.875 1.75 -12.96875 2.0625 -12.96875 C 2.382812 -12.96875 2.625 -12.875 2.78125 -12.6875 C 2.945312 -12.507812 3.03125 -12.289062 3.03125 -12.03125 C 3.03125 -11.769531 2.945312 -11.550781 2.78125 -11.375 C 2.625 -11.195312 2.382812 -11.109375 2.0625 -11.109375 C 1.75 -11.109375 1.507812 -11.195312 1.34375 -11.375 C 1.1875 -11.550781 1.109375 -11.769531 1.109375 -12.03125 Z M 1.109375 -12.03125 "/></g></g></g><g fill="#17191a" fill-opacity="1"><g transform="translate(193.514094, 31.534081)"><g><path d="M 2.765625 -9.515625 L 2.828125 -8.3125 C 3.546875 -9.226562 4.492188 -9.6875 5.671875 -9.6875 C 7.679688 -9.6875 8.691406 -8.550781 8.703125 -6.28125 L 8.703125 0 L 7.078125 0 L 7.078125 -6.296875 C 7.078125 -6.984375 6.921875 -7.488281 6.609375 -7.8125 C 6.304688 -8.144531 5.828125 -8.3125 5.171875 -8.3125 C 4.648438 -8.3125 4.1875 -8.171875 3.78125 -7.890625 C 3.382812 -7.609375 3.078125 -7.238281 2.859375 -6.78125 L 2.859375 0 L 1.234375 0 L 1.234375 -9.515625 Z M 2.765625 -9.515625 "/></g></g></g><g fill="#17191a" fill-opacity="1"><g transform="translate(203.44326, 31.534081)"><g><path d="M 3 0 L 1.375 0 L 1.375 -9.515625 L 3 -9.515625 Z M 1.234375 -12.03125 C 1.234375 -12.289062 1.3125 -12.507812 1.46875 -12.6875 C 1.632812 -12.875 1.875 -12.96875 2.1875 -12.96875 C 2.507812 -12.96875 2.753906 -12.875 2.921875 -12.6875 C 3.085938 -12.507812 3.171875 -12.289062 3.171875 -12.03125 C 3.171875 -11.769531 3.085938 -11.550781 2.921875 -11.375 C 2.753906 -11.195312 2.507812 -11.109375 2.1875 -11.109375 C 1.875 -11.109375 1.632812 -11.195312 1.46875 -11.375 C 1.3125 -11.550781 1.234375 -11.769531 1.234375 -12.03125 Z M 1.234375 -12.03125 "/></g></g></g><g fill="#17191a" fill-opacity="1"><g transform="translate(207.810335, 31.534081)"><g><path d="M 3.890625 -4.40625 L 2.859375 -3.34375 L 2.859375 0 L 1.234375 0 L 1.234375 -13.5 L 2.859375 -13.5 L 2.859375 -5.328125 L 3.734375 -6.375 L 6.703125 -9.515625 L 8.671875 -9.515625 L 4.96875 -5.53125 L 9.109375 0 L 7.203125 0 Z M 3.890625 -4.40625 "/></g></g></g><g fill="#17191a" fill-opacity="1"><g transform="translate(216.931108, 31.534081)"><g/></g></g><g fill="#17191a" fill-opacity="1"><g transform="translate(221.386052, 31.534081)"><g><path d="M 0.828125 -4.828125 C 0.828125 -6.285156 1.171875 -7.457031 1.859375 -8.34375 C 2.554688 -9.238281 3.46875 -9.6875 4.59375 -9.6875 C 5.707031 -9.6875 6.585938 -9.304688 7.234375 -8.546875 L 7.234375 -13.5 L 8.859375 -13.5 L 8.859375 0 L 7.359375 0 L 7.28125 -1.015625 C 6.632812 -0.222656 5.734375 0.171875 4.578125 0.171875 C 3.472656 0.171875 2.570312 -0.273438 1.875 -1.171875 C 1.175781 -2.078125 0.828125 -3.257812 0.828125 -4.71875 Z M 2.46875 -4.65625 C 2.46875 -3.570312 2.6875 -2.722656 3.125 -2.109375 C 3.570312 -1.503906 4.1875 -1.203125 4.96875 -1.203125 C 6 -1.203125 6.753906 -1.664062 7.234375 -2.59375 L 7.234375 -6.96875 C 6.742188 -7.863281 6 -8.3125 5 -8.3125 C 4.195312 -8.3125 3.570312 -8 3.125 -7.375 C 2.6875 -6.757812 2.46875 -5.851562 2.46875 -4.65625 Z M 2.46875 -4.65625 "/></g></g></g><g fill="#17191a" fill-opacity="1"><g transform="translate(231.534876, 31.534081)"><g><path d="M 0.796875 -4.84375 C 0.796875 -5.769531 0.976562 -6.601562 1.34375 -7.34375 C 1.71875 -8.09375 2.226562 -8.671875 2.875 -9.078125 C 3.53125 -9.484375 4.273438 -9.6875 5.109375 -9.6875 C 6.410156 -9.6875 7.457031 -9.238281 8.25 -8.34375 C 9.050781 -7.445312 9.453125 -6.253906 9.453125 -4.765625 L 9.453125 -4.65625 C 9.453125 -3.726562 9.273438 -2.894531 8.921875 -2.15625 C 8.566406 -1.425781 8.0625 -0.851562 7.40625 -0.4375 C 6.75 -0.03125 5.992188 0.171875 5.140625 0.171875 C 3.847656 0.171875 2.800781 -0.273438 2 -1.171875 C 1.195312 -2.066406 0.796875 -3.253906 0.796875 -4.734375 Z M 2.4375 -4.65625 C 2.4375 -3.59375 2.679688 -2.742188 3.171875 -2.109375 C 3.660156 -1.472656 4.316406 -1.15625 5.140625 -1.15625 C 5.960938 -1.15625 6.613281 -1.476562 7.09375 -2.125 C 7.582031 -2.769531 7.828125 -3.675781 7.828125 -4.84375 C 7.828125 -5.882812 7.578125 -6.726562 7.078125 -7.375 C 6.585938 -8.019531 5.929688 -8.34375 5.109375 -8.34375 C 4.304688 -8.34375 3.660156 -8.023438 3.171875 -7.390625 C 2.679688 -6.753906 2.4375 -5.84375 2.4375 -4.65625 Z M 2.4375 -4.65625 "/></g></g></g><g fill="#17191a" fill-opacity="1"><g transform="translate(241.797943, 31.534081)"><g/></g></g><g fill="#17191a" fill-opacity="1"><g transform="translate(246.252874, 31.534081)"><g><path d="M 3.890625 -4.40625 L 2.859375 -3.34375 L 2.859375 0 L 1.234375 0 L 1.234375 -13.5 L 2.859375 -13.5 L 2.859375 -5.328125 L 3.734375 -6.375 L 6.703125 -9.515625 L 8.671875 -9.515625 L 4.96875 -5.53125 L 9.109375 0 L 7.203125 0 Z M 3.890625 -4.40625 "/></g></g></g><g fill="#17191a" fill-opacity="1"><g transform="translate(255.373647, 31.534081)"><g><path d="M 5.828125 -8.046875 C 5.578125 -8.085938 5.3125 -8.109375 5.03125 -8.109375 C 3.957031 -8.109375 3.234375 -7.65625 2.859375 -6.75 L 2.859375 0 L 1.234375 0 L 1.234375 -9.515625 L 2.8125 -9.515625 L 2.84375 -8.40625 C 3.375 -9.257812 4.128906 -9.6875 5.109375 -9.6875 C 5.421875 -9.6875 5.660156 -9.644531 5.828125 -9.5625 Z M 5.828125 -8.046875 "/></g></g></g><g fill="#17191a" fill-opacity="1"><g transform="translate(261.462936, 31.534081)"><g><path d="M 7.109375 0 C 7.015625 -0.1875 6.9375 -0.519531 6.875 -1 C 6.113281 -0.21875 5.210938 0.171875 4.171875 0.171875 C 3.234375 0.171875 2.460938 -0.09375 1.859375 -0.625 C 1.253906 -1.15625 0.953125 -1.828125 0.953125 -2.640625 C 0.953125 -3.628906 1.328125 -4.394531 2.078125 -4.9375 C 2.835938 -5.488281 3.898438 -5.765625 5.265625 -5.765625 L 6.84375 -5.765625 L 6.84375 -6.515625 C 6.84375 -7.078125 6.671875 -7.523438 6.328125 -7.859375 C 5.992188 -8.203125 5.492188 -8.375 4.828125 -8.375 C 4.253906 -8.375 3.769531 -8.226562 3.375 -7.9375 C 2.976562 -7.644531 2.78125 -7.289062 2.78125 -6.875 L 1.15625 -6.875 C 1.15625 -7.34375 1.320312 -7.796875 1.65625 -8.234375 C 1.988281 -8.679688 2.441406 -9.035156 3.015625 -9.296875 C 3.597656 -9.554688 4.238281 -9.6875 4.9375 -9.6875 C 6.03125 -9.6875 6.882812 -9.410156 7.5 -8.859375 C 8.125 -8.316406 8.445312 -7.5625 8.46875 -6.59375 L 8.46875 -2.21875 C 8.46875 -1.351562 8.582031 -0.660156 8.8125 -0.140625 L 8.8125 0 Z M 4.40625 -1.234375 C 4.914062 -1.234375 5.398438 -1.363281 5.859375 -1.625 C 6.316406 -1.894531 6.644531 -2.238281 6.84375 -2.65625 L 6.84375 -4.609375 L 5.578125 -4.609375 C 3.578125 -4.609375 2.578125 -4.023438 2.578125 -2.859375 C 2.578125 -2.347656 2.75 -1.945312 3.09375 -1.65625 C 3.4375 -1.375 3.875 -1.234375 4.40625 -1.234375 Z M 4.40625 -1.234375 "/></g></g></g><g fill="#17191a" fill-opacity="1"><g transform="translate(271.251512, 31.534081)"><g><path d="M 2.90625 -9.515625 L 2.90625 1.09375 C 2.90625 2.925781 2.078125 3.84375 0.421875 3.84375 C 0.0664062 3.84375 -0.265625 3.789062 -0.578125 3.6875 L -0.578125 2.375 C -0.390625 2.425781 -0.140625 2.453125 0.171875 2.453125 C 0.535156 2.453125 0.8125 2.351562 1 2.15625 C 1.1875 1.957031 1.28125 1.617188 1.28125 1.140625 L 1.28125 -9.515625 Z M 1.109375 -12.03125 C 1.109375 -12.289062 1.1875 -12.507812 1.34375 -12.6875 C 1.507812 -12.875 1.75 -12.96875 2.0625 -12.96875 C 2.382812 -12.96875 2.625 -12.875 2.78125 -12.6875 C 2.945312 -12.507812 3.03125 -12.289062 3.03125 -12.03125 C 3.03125 -11.769531 2.945312 -11.550781 2.78125 -11.375 C 2.625 -11.195312 2.382812 -11.109375 2.0625 -11.109375 C 1.75 -11.109375 1.507812 -11.195312 1.34375 -11.375 C 1.1875 -11.550781 1.109375 -11.769531 1.109375 -12.03125 Z M 1.109375 -12.03125 "/></g></g></g><g fill="#17191a" fill-opacity="1"><g transform="translate(275.548279, 31.534081)"><g><path d="M 7.109375 0 C 7.015625 -0.1875 6.9375 -0.519531 6.875 -1 C 6.113281 -0.21875 5.210938 0.171875 4.171875 0.171875 C 3.234375 0.171875 2.460938 -0.09375 1.859375 -0.625 C 1.253906 -1.15625 0.953125 -1.828125 0.953125 -2.640625 C 0.953125 -3.628906 1.328125 -4.394531 2.078125 -4.9375 C 2.835938 -5.488281 3.898438 -5.765625 5.265625 -5.765625 L 6.84375 -5.765625 L 6.84375 -6.515625 C 6.84375 -7.078125 6.671875 -7.523438 6.328125 -7.859375 C 5.992188 -8.203125 5.492188 -8.375 4.828125 -8.375 C 4.253906 -8.375 3.769531 -8.226562 3.375 -7.9375 C 2.976562 -7.644531 2.78125 -7.289062 2.78125 -6.875 L 1.15625 -6.875 C 1.15625 -7.34375 1.320312 -7.796875 1.65625 -8.234375 C 1.988281 -8.679688 2.441406 -9.035156 3.015625 -9.296875 C 3.597656 -9.554688 4.238281 -9.6875 4.9375 -9.6875 C 6.03125 -9.6875 6.882812 -9.410156 7.5 -8.859375 C 8.125 -8.316406 8.445312 -7.5625 8.46875 -6.59375 L 8.46875 -2.21875 C 8.46875 -1.351562 8.582031 -0.660156 8.8125 -0.140625 L 8.8125 0 Z M 4.40625 -1.234375 C 4.914062 -1.234375 5.398438 -1.363281 5.859375 -1.625 C 6.316406 -1.894531 6.644531 -2.238281 6.84375 -2.65625 L 6.84375 -4.609375 L 5.578125 -4.609375 C 3.578125 -4.609375 2.578125 -4.023438 2.578125 -2.859375 C 2.578125 -2.347656 2.75 -1.945312 3.09375 -1.65625 C 3.4375 -1.375 3.875 -1.234375 4.40625 -1.234375 Z M 4.40625 -1.234375 "/></g></g></g><g fill="#17191a" fill-opacity="1"><g transform="translate(15.000006, 56.535084)"><g><path d="M 6.765625 -2.515625 C 6.765625 -2.960938 6.597656 -3.304688 6.265625 -3.546875 C 5.941406 -3.785156 5.367188 -3.992188 4.546875 -4.171875 C 3.722656 -4.347656 3.066406 -4.554688 2.578125 -4.796875 C 2.097656 -5.046875 1.738281 -5.34375 1.5 -5.6875 C 1.269531 -6.03125 1.15625 -6.4375 1.15625 -6.90625 C 1.15625 -7.675781 1.484375 -8.332031 2.140625 -8.875 C 2.804688 -9.414062 3.648438 -9.6875 4.671875 -9.6875 C 5.753906 -9.6875 6.628906 -9.40625 7.296875 -8.84375 C 7.972656 -8.289062 8.3125 -7.582031 8.3125 -6.71875 L 6.671875 -6.71875 C 6.671875 -7.164062 6.476562 -7.546875 6.09375 -7.859375 C 5.71875 -8.179688 5.242188 -8.34375 4.671875 -8.34375 C 4.078125 -8.34375 3.613281 -8.210938 3.28125 -7.953125 C 2.945312 -7.703125 2.78125 -7.367188 2.78125 -6.953125 C 2.78125 -6.554688 2.9375 -6.257812 3.25 -6.0625 C 3.5625 -5.863281 4.125 -5.671875 4.9375 -5.484375 C 5.75 -5.304688 6.40625 -5.09375 6.90625 -4.84375 C 7.414062 -4.59375 7.789062 -4.289062 8.03125 -3.9375 C 8.269531 -3.582031 8.390625 -3.148438 8.390625 -2.640625 C 8.390625 -1.785156 8.050781 -1.101562 7.375 -0.59375 C 6.695312 -0.0820312 5.816406 0.171875 4.734375 0.171875 C 3.972656 0.171875 3.296875 0.0351562 2.703125 -0.234375 C 2.117188 -0.503906 1.660156 -0.878906 1.328125 -1.359375 C 0.992188 -1.835938 0.828125 -2.359375 0.828125 -2.921875 L 2.46875 -2.921875 C 2.488281 -2.378906 2.703125 -1.945312 3.109375 -1.625 C 3.523438 -1.3125 4.066406 -1.15625 4.734375 -1.15625 C 5.347656 -1.15625 5.835938 -1.28125 6.203125 -1.53125 C 6.578125 -1.78125 6.765625 -2.109375 6.765625 -2.515625 Z M 6.765625 -2.515625 "/></g></g></g><g fill="#17191a" fill-opacity="1"><g transform="translate(24.278943, 56.535084)"><g><path d="M 3.890625 -4.40625 L 2.859375 -3.34375 L 2.859375 0 L 1.234375 0 L 1.234375 -13.5 L 2.859375 -13.5 L 2.859375 -5.328125 L 3.734375 -6.375 L 6.703125 -9.515625 L 8.671875 -9.515625 L 4.96875 -5.53125 L 9.109375 0 L 7.203125 0 Z M 3.890625 -4.40625 "/></g></g></g><g fill="#17191a" fill-opacity="1"><g transform="translate(33.399716, 56.535084)"><g><path d="M 5.828125 -8.046875 C 5.578125 -8.085938 5.3125 -8.109375 5.03125 -8.109375 C 3.957031 -8.109375 3.234375 -7.65625 2.859375 -6.75 L 2.859375 0 L 1.234375 0 L 1.234375 -9.515625 L 2.8125 -9.515625 L 2.84375 -8.40625 C 3.375 -9.257812 4.128906 -9.6875 5.109375 -9.6875 C 5.421875 -9.6875 5.660156 -9.644531 5.828125 -9.5625 Z M 5.828125 -8.046875 "/></g></g></g><g fill="#17191a" fill-opacity="1"><g transform="translate(39.489018, 56.535084)"><g><path d="M 7.109375 0 C 7.015625 -0.1875 6.9375 -0.519531 6.875 -1 C 6.113281 -0.21875 5.210938 0.171875 4.171875 0.171875 C 3.234375 0.171875 2.460938 -0.09375 1.859375 -0.625 C 1.253906 -1.15625 0.953125 -1.828125 0.953125 -2.640625 C 0.953125 -3.628906 1.328125 -4.394531 2.078125 -4.9375 C 2.835938 -5.488281 3.898438 -5.765625 5.265625 -5.765625 L 6.84375 -5.765625 L 6.84375 -6.515625 C 6.84375 -7.078125 6.671875 -7.523438 6.328125 -7.859375 C 5.992188 -8.203125 5.492188 -8.375 4.828125 -8.375 C 4.253906 -8.375 3.769531 -8.226562 3.375 -7.9375 C 2.976562 -7.644531 2.78125 -7.289062 2.78125 -6.875 L 1.15625 -6.875 C 1.15625 -7.34375 1.320312 -7.796875 1.65625 -8.234375 C 1.988281 -8.679688 2.441406 -9.035156 3.015625 -9.296875 C 3.597656 -9.554688 4.238281 -9.6875 4.9375 -9.6875 C 6.03125 -9.6875 6.882812 -9.410156 7.5 -8.859375 C 8.125 -8.316406 8.445312 -7.5625 8.46875 -6.59375 L 8.46875 -2.21875 C 8.46875 -1.351562 8.582031 -0.660156 8.8125 -0.140625 L 8.8125 0 Z M 4.40625 -1.234375 C 4.914062 -1.234375 5.398438 -1.363281 5.859375 -1.625 C 6.316406 -1.894531 6.644531 -2.238281 6.84375 -2.65625 L 6.84375 -4.609375 L 5.578125 -4.609375 C 3.578125 -4.609375 2.578125 -4.023438 2.578125 -2.859375 C 2.578125 -2.347656 2.75 -1.945312 3.09375 -1.65625 C 3.4375 -1.375 3.875 -1.234375 4.40625 -1.234375 Z M 4.40625 -1.234375 "/></g></g></g><g fill="#17191a" fill-opacity="1"><g transform="translate(49.277593, 56.535084)"><g><path d="M 5.046875 -1.15625 C 5.628906 -1.15625 6.132812 -1.328125 6.5625 -1.671875 C 7 -2.023438 7.238281 -2.46875 7.28125 -3 L 8.828125 -3 C 8.796875 -2.457031 8.609375 -1.9375 8.265625 -1.4375 C 7.921875 -0.945312 7.457031 -0.554688 6.875 -0.265625 C 6.300781 0.0234375 5.691406 0.171875 5.046875 0.171875 C 3.753906 0.171875 2.722656 -0.257812 1.953125 -1.125 C 1.191406 -1.988281 0.8125 -3.171875 0.8125 -4.671875 L 0.8125 -4.9375 C 0.8125 -5.863281 0.976562 -6.6875 1.3125 -7.40625 C 1.65625 -8.125 2.144531 -8.679688 2.78125 -9.078125 C 3.414062 -9.484375 4.164062 -9.6875 5.03125 -9.6875 C 6.101562 -9.6875 6.988281 -9.363281 7.6875 -8.71875 C 8.394531 -8.082031 8.773438 -7.253906 8.828125 -6.234375 L 7.28125 -6.234375 C 7.238281 -6.847656 7.003906 -7.351562 6.578125 -7.75 C 6.160156 -8.144531 5.644531 -8.34375 5.03125 -8.34375 C 4.207031 -8.34375 3.566406 -8.046875 3.109375 -7.453125 C 2.660156 -6.859375 2.4375 -6 2.4375 -4.875 L 2.4375 -4.578125 C 2.4375 -3.472656 2.660156 -2.625 3.109375 -2.03125 C 3.554688 -1.445312 4.203125 -1.15625 5.046875 -1.15625 Z M 5.484375 -13.5 L 7.453125 -13.5 L 5.09375 -10.921875 L 3.78125 -10.921875 Z M 5.484375 -13.5 "/></g></g></g><g fill="#17191a" fill-opacity="1"><g transform="translate(58.69712, 56.535084)"><g><path d="M 5.171875 0.171875 C 3.890625 0.171875 2.84375 -0.25 2.03125 -1.09375 C 1.21875 -1.9375 0.8125 -3.066406 0.8125 -4.484375 L 0.8125 -4.796875 C 0.8125 -5.734375 0.992188 -6.570312 1.359375 -7.3125 C 1.722656 -8.050781 2.226562 -8.628906 2.875 -9.046875 C 3.519531 -9.472656 4.21875 -9.6875 4.96875 -9.6875 C 6.207031 -9.6875 7.171875 -9.28125 7.859375 -8.46875 C 8.546875 -7.65625 8.890625 -6.488281 8.890625 -4.96875 L 8.890625 -4.296875 L 2.4375 -4.296875 C 2.46875 -3.359375 2.742188 -2.597656 3.265625 -2.015625 C 3.785156 -1.441406 4.453125 -1.15625 5.265625 -1.15625 C 5.835938 -1.15625 6.320312 -1.269531 6.71875 -1.5 C 7.125 -1.738281 7.472656 -2.050781 7.765625 -2.4375 L 8.765625 -1.65625 C 7.960938 -0.4375 6.765625 0.171875 5.171875 0.171875 Z M 4.96875 -8.34375 C 4.3125 -8.34375 3.757812 -8.101562 3.3125 -7.625 C 2.875 -7.15625 2.601562 -6.488281 2.5 -5.625 L 7.265625 -5.625 L 7.265625 -5.75 C 7.210938 -6.570312 6.988281 -7.207031 6.59375 -7.65625 C 6.195312 -8.113281 5.65625 -8.34375 4.96875 -8.34375 Z M 4.96875 -8.34375 "/></g></g></g><g fill="#17191a" fill-opacity="1"><g transform="translate(68.230876, 56.535084)"><g><path d="M 2.765625 -9.515625 L 2.828125 -8.3125 C 3.546875 -9.226562 4.492188 -9.6875 5.671875 -9.6875 C 7.679688 -9.6875 8.691406 -8.550781 8.703125 -6.28125 L 8.703125 0 L 7.078125 0 L 7.078125 -6.296875 C 7.078125 -6.984375 6.921875 -7.488281 6.609375 -7.8125 C 6.304688 -8.144531 5.828125 -8.3125 5.171875 -8.3125 C 4.648438 -8.3125 4.1875 -8.171875 3.78125 -7.890625 C 3.382812 -7.609375 3.078125 -7.238281 2.859375 -6.78125 L 2.859375 0 L 1.234375 0 L 1.234375 -9.515625 Z M 2.765625 -9.515625 "/></g></g></g><g fill="#17191a" fill-opacity="1"><g transform="translate(78.160041, 56.535084)"><g><path d="M 0.796875 -4.84375 C 0.796875 -5.769531 0.976562 -6.601562 1.34375 -7.34375 C 1.71875 -8.09375 2.226562 -8.671875 2.875 -9.078125 C 3.53125 -9.484375 4.273438 -9.6875 5.109375 -9.6875 C 6.410156 -9.6875 7.457031 -9.238281 8.25 -8.34375 C 9.050781 -7.445312 9.453125 -6.253906 9.453125 -4.765625 L 9.453125 -4.65625 C 9.453125 -3.726562 9.273438 -2.894531 8.921875 -2.15625 C 8.566406 -1.425781 8.0625 -0.851562 7.40625 -0.4375 C 6.75 -0.03125 5.992188 0.171875 5.140625 0.171875 C 3.847656 0.171875 2.800781 -0.273438 2 -1.171875 C 1.195312 -2.066406 0.796875 -3.253906 0.796875 -4.734375 Z M 2.4375 -4.65625 C 2.4375 -3.59375 2.679688 -2.742188 3.171875 -2.109375 C 3.660156 -1.472656 4.316406 -1.15625 5.140625 -1.15625 C 5.960938 -1.15625 6.613281 -1.476562 7.09375 -2.125 C 7.582031 -2.769531 7.828125 -3.675781 7.828125 -4.84375 C 7.828125 -5.882812 7.578125 -6.726562 7.078125 -7.375 C 6.585938 -8.019531 5.929688 -8.34375 5.109375 -8.34375 C 4.304688 -8.34375 3.660156 -8.023438 3.171875 -7.390625 C 2.679688 -6.753906 2.4375 -5.84375 2.4375 -4.65625 Z M 2.4375 -4.65625 "/></g></g></g><g fill="#17191a" fill-opacity="1"><g transform="translate(88.423107, 56.535084)"><g><path d="M 0.84375 -4.828125 C 0.84375 -6.316406 1.1875 -7.5 1.875 -8.375 C 2.5625 -9.25 3.46875 -9.6875 4.59375 -9.6875 C 5.757812 -9.6875 6.664062 -9.273438 7.3125 -8.453125 L 7.390625 -9.515625 L 8.875 -9.515625 L 8.875 -0.234375 C 8.875 1.003906 8.507812 1.976562 7.78125 2.6875 C 7.050781 3.394531 6.070312 3.75 4.84375 3.75 C 4.15625 3.75 3.484375 3.597656 2.828125 3.296875 C 2.171875 3.003906 1.671875 2.601562 1.328125 2.09375 L 2.171875 1.125 C 2.867188 1.988281 3.722656 2.421875 4.734375 2.421875 C 5.523438 2.421875 6.140625 2.195312 6.578125 1.75 C 7.023438 1.300781 7.25 0.675781 7.25 -0.125 L 7.25 -0.953125 C 6.59375 -0.203125 5.703125 0.171875 4.578125 0.171875 C 3.460938 0.171875 2.5625 -0.273438 1.875 -1.171875 C 1.1875 -2.066406 0.84375 -3.285156 0.84375 -4.828125 Z M 2.484375 -4.65625 C 2.484375 -3.582031 2.703125 -2.738281 3.140625 -2.125 C 3.578125 -1.507812 4.191406 -1.203125 4.984375 -1.203125 C 6.003906 -1.203125 6.757812 -1.671875 7.25 -2.609375 L 7.25 -6.9375 C 6.75 -7.851562 6 -8.3125 5 -8.3125 C 4.207031 -8.3125 3.585938 -8 3.140625 -7.375 C 2.703125 -6.757812 2.484375 -5.851562 2.484375 -4.65625 Z M 2.484375 -4.65625 "/></g></g></g><g fill="#17191a" fill-opacity="1"><g transform="translate(98.519223, 56.535084)"><g/></g></g><g fill="#17191a" fill-opacity="1"><g transform="translate(102.974167, 56.535084)"><g><path d="M 5.828125 -8.046875 C 5.578125 -8.085938 5.3125 -8.109375 5.03125 -8.109375 C 3.957031 -8.109375 3.234375 -7.65625 2.859375 -6.75 L 2.859375 0 L 1.234375 0 L 1.234375 -9.515625 L 2.8125 -9.515625 L 2.84375 -8.40625 C 3.375 -9.257812 4.128906 -9.6875 5.109375 -9.6875 C 5.421875 -9.6875 5.660156 -9.644531 5.828125 -9.5625 Z M 5.828125 -8.046875 "/></g></g></g><g fill="#17191a" fill-opacity="1"><g transform="translate(109.06347, 56.535084)"><g><path d="M 7.109375 0 C 7.015625 -0.1875 6.9375 -0.519531 6.875 -1 C 6.113281 -0.21875 5.210938 0.171875 4.171875 0.171875 C 3.234375 0.171875 2.460938 -0.09375 1.859375 -0.625 C 1.253906 -1.15625 0.953125 -1.828125 0.953125 -2.640625 C 0.953125 -3.628906 1.328125 -4.394531 2.078125 -4.9375 C 2.835938 -5.488281 3.898438 -5.765625 5.265625 -5.765625 L 6.84375 -5.765625 L 6.84375 -6.515625 C 6.84375 -7.078125 6.671875 -7.523438 6.328125 -7.859375 C 5.992188 -8.203125 5.492188 -8.375 4.828125 -8.375 C 4.253906 -8.375 3.769531 -8.226562 3.375 -7.9375 C 2.976562 -7.644531 2.78125 -7.289062 2.78125 -6.875 L 1.15625 -6.875 C 1.15625 -7.34375 1.320312 -7.796875 1.65625 -8.234375 C 1.988281 -8.679688 2.441406 -9.035156 3.015625 -9.296875 C 3.597656 -9.554688 4.238281 -9.6875 4.9375 -9.6875 C 6.03125 -9.6875 6.882812 -9.410156 7.5 -8.859375 C 8.125 -8.316406 8.445312 -7.5625 8.46875 -6.59375 L 8.46875 -2.21875 C 8.46875 -1.351562 8.582031 -0.660156 8.8125 -0.140625 L 8.8125 0 Z M 4.40625 -1.234375 C 4.914062 -1.234375 5.398438 -1.363281 5.859375 -1.625 C 6.316406 -1.894531 6.644531 -2.238281 6.84375 -2.65625 L 6.84375 -4.609375 L 5.578125 -4.609375 C 3.578125 -4.609375 2.578125 -4.023438 2.578125 -2.859375 C 2.578125 -2.347656 2.75 -1.945312 3.09375 -1.65625 C 3.4375 -1.375 3.875 -1.234375 4.40625 -1.234375 Z M 4.40625 -1.234375 "/></g></g></g><g fill="#17191a" fill-opacity="1"><g transform="translate(118.852045, 56.535084)"><g><path d="M 2.765625 -1.328125 L 8.328125 -1.328125 L 8.328125 0 L 0.78125 0 L 0.78125 -1.203125 L 6.015625 -8.171875 L 0.859375 -8.171875 L 0.859375 -9.515625 L 8.0625 -9.515625 L 8.0625 -8.359375 Z M 2.765625 -1.328125 "/></g></g></g><g fill="#17191a" fill-opacity="1"><g transform="translate(127.77072, 56.535084)"><g><path d="M 3 0 L 1.375 0 L 1.375 -13.5 L 3 -13.5 Z M 3 0 "/></g></g></g><g fill="#17191a" fill-opacity="1"><g transform="translate(132.137795, 56.535084)"><g><path d="M 0.796875 -4.84375 C 0.796875 -5.769531 0.976562 -6.601562 1.34375 -7.34375 C 1.71875 -8.09375 2.226562 -8.671875 2.875 -9.078125 C 3.53125 -9.484375 4.273438 -9.6875 5.109375 -9.6875 C 6.410156 -9.6875 7.457031 -9.238281 8.25 -8.34375 C 9.050781 -7.445312 9.453125 -6.253906 9.453125 -4.765625 L 9.453125 -4.65625 C 9.453125 -3.726562 9.273438 -2.894531 8.921875 -2.15625 C 8.566406 -1.425781 8.0625 -0.851562 7.40625 -0.4375 C 6.75 -0.03125 5.992188 0.171875 5.140625 0.171875 C 3.847656 0.171875 2.800781 -0.273438 2 -1.171875 C 1.195312 -2.066406 0.796875 -3.253906 0.796875 -4.734375 Z M 2.4375 -4.65625 C 2.4375 -3.59375 2.679688 -2.742188 3.171875 -2.109375 C 3.660156 -1.472656 4.316406 -1.15625 5.140625 -1.15625 C 5.960938 -1.15625 6.613281 -1.476562 7.09375 -2.125 C 7.582031 -2.769531 7.828125 -3.675781 7.828125 -4.84375 C 7.828125 -5.882812 7.578125 -6.726562 7.078125 -7.375 C 6.585938 -8.019531 5.929688 -8.34375 5.109375 -8.34375 C 4.304688 -8.34375 3.660156 -8.023438 3.171875 -7.390625 C 2.679688 -6.753906 2.4375 -5.84375 2.4375 -4.65625 Z M 2.4375 -4.65625 "/></g></g></g><g fill="#17191a" fill-opacity="1"><g transform="translate(142.400861, 56.535084)"><g><path d="M 2.765625 -9.515625 L 2.796875 -8.453125 C 3.492188 -9.273438 4.4375 -9.6875 5.625 -9.6875 C 6.957031 -9.6875 7.863281 -9.175781 8.34375 -8.15625 C 8.65625 -8.613281 9.066406 -8.984375 9.578125 -9.265625 C 10.085938 -9.546875 10.6875 -9.6875 11.375 -9.6875 C 13.457031 -9.6875 14.519531 -8.582031 14.5625 -6.375 L 14.5625 0 L 12.921875 0 L 12.921875 -6.28125 C 12.921875 -6.957031 12.765625 -7.460938 12.453125 -7.796875 C 12.148438 -8.140625 11.632812 -8.3125 10.90625 -8.3125 C 10.300781 -8.3125 9.796875 -8.128906 9.390625 -7.765625 C 8.992188 -7.398438 8.765625 -6.914062 8.703125 -6.3125 L 8.703125 0 L 7.0625 0 L 7.0625 -6.234375 C 7.0625 -7.617188 6.382812 -8.3125 5.03125 -8.3125 C 3.96875 -8.3125 3.238281 -7.851562 2.84375 -6.9375 L 2.84375 0 L 1.21875 0 L 1.21875 -9.515625 Z M 2.765625 -9.515625 "/></g></g></g><g fill="#17191a" fill-opacity="1"><g transform="translate(158.173296, 56.535084)"><g><path d="M 3.890625 -4.40625 L 2.859375 -3.34375 L 2.859375 0 L 1.234375 0 L 1.234375 -13.5 L 2.859375 -13.5 L 2.859375 -5.328125 L 3.734375 -6.375 L 6.703125 -9.515625 L 8.671875 -9.515625 L 4.96875 -5.53125 L 9.109375 0 L 7.203125 0 Z M 3.890625 -4.40625 "/></g></g></g><g fill="#17191a" fill-opacity="1"><g transform="translate(167.294069, 56.535084)"><g><path d="M 7.109375 0 C 7.015625 -0.1875 6.9375 -0.519531 6.875 -1 C 6.113281 -0.21875 5.210938 0.171875 4.171875 0.171875 C 3.234375 0.171875 2.460938 -0.09375 1.859375 -0.625 C 1.253906 -1.15625 0.953125 -1.828125 0.953125 -2.640625 C 0.953125 -3.628906 1.328125 -4.394531 2.078125 -4.9375 C 2.835938 -5.488281 3.898438 -5.765625 5.265625 -5.765625 L 6.84375 -5.765625 L 6.84375 -6.515625 C 6.84375 -7.078125 6.671875 -7.523438 6.328125 -7.859375 C 5.992188 -8.203125 5.492188 -8.375 4.828125 -8.375 C 4.253906 -8.375 3.769531 -8.226562 3.375 -7.9375 C 2.976562 -7.644531 2.78125 -7.289062 2.78125 -6.875 L 1.15625 -6.875 C 1.15625 -7.34375 1.320312 -7.796875 1.65625 -8.234375 C 1.988281 -8.679688 2.441406 -9.035156 3.015625 -9.296875 C 3.597656 -9.554688 4.238281 -9.6875 4.9375 -9.6875 C 6.03125 -9.6875 6.882812 -9.410156 7.5 -8.859375 C 8.125 -8.316406 8.445312 -7.5625 8.46875 -6.59375 L 8.46875 -2.21875 C 8.46875 -1.351562 8.582031 -0.660156 8.8125 -0.140625 L 8.8125 0 Z M 4.40625 -1.234375 C 4.914062 -1.234375 5.398438 -1.363281 5.859375 -1.625 C 6.316406 -1.894531 6.644531 -2.238281 6.84375 -2.65625 L 6.84375 -4.609375 L 5.578125 -4.609375 C 3.578125 -4.609375 2.578125 -4.023438 2.578125 -2.859375 C 2.578125 -2.347656 2.75 -1.945312 3.09375 -1.65625 C 3.4375 -1.375 3.875 -1.234375 4.40625 -1.234375 Z M 4.40625 -1.234375 "/></g></g></g><g fill="#17191a" fill-opacity="1"><g transform="translate(177.076821, 56.535084)"><g/></g></g><g fill="#17191a" fill-opacity="1"><g transform="translate(181.531765, 56.535084)"><g/></g></g><g fill="#17191a" fill-opacity="1"><g transform="translate(185.986709, 56.535084)"><g/></g></g><g fill="#17191a" fill-opacity="1"><g transform="translate(190.441653, 56.535084)"><g/></g></g><g fill="#17191a" fill-opacity="1"><g transform="translate(194.896597, 56.535084)"><g/></g></g><g fill="#17191a" fill-opacity="1"><g transform="translate(199.351541, 56.535084)"><g/></g></g><g fill="#17191a" fill-opacity="1"><g transform="translate(203.806485, 56.535084)"><g/></g></g><g fill="#17191a" fill-opacity="1"><g transform="translate(208.261429, 56.535084)"><g/></g></g><g fill="#17191a" fill-opacity="1"><g transform="translate(212.716373, 56.535084)"><g/></g></g><g fill="#17191a" fill-opacity="1"><g transform="translate(217.171317, 56.535084)"><g/></g></g><g fill="#17191a" fill-opacity="1"><g transform="translate(221.626261, 56.535084)"><g/></g></g><g fill="#17191a" fill-opacity="1"><g transform="translate(226.081205, 56.535084)"><g/></g></g><g fill="#17191a" fill-opacity="1"><g transform="translate(230.536149, 56.535084)"><g/></g></g><g fill="#17191a" fill-opacity="1"><g transform="translate(234.991093, 56.535084)"><g/></g></g><g fill="#17191a" fill-opacity="1"><g transform="translate(239.446037, 56.535084)"><g/></g></g><g fill="#17191a" fill-opacity="1"><g transform="translate(243.900981, 56.535084)"><g/></g></g><g fill="#17191a" fill-opacity="1"><g transform="translate(248.355925, 56.535084)"><g/></g></g><g fill="#17191a" fill-opacity="1"><g transform="translate(252.810869, 56.535084)"><g/></g></g><g fill="#17191a" fill-opacity="1"><g transform="translate(257.265813, 56.535084)"><g/></g></g><g fill="#17191a" fill-opacity="1"><g transform="translate(261.720757, 56.535084)"><g/></g></g><g fill="#17191a" fill-opacity="1"><g transform="translate(266.175701, 56.535084)"><g/></g></g><g fill="#17191a" fill-opacity="1"><g transform="translate(270.630645, 56.535084)"><g/></g></g><g fill="#17191a" fill-opacity="1"><g transform="translate(275.085589, 56.535084)"><g/></g></g><g fill="#17191a" fill-opacity="1"><g transform="translate(279.540534, 56.535084)"><g/></g></g><g fill="#17191a" fill-opacity="1"><g transform="translate(283.995478, 56.535084)"><g/></g></g><g fill="#17191a" fill-opacity="1"><g transform="translate(288.450422, 56.535084)"><g/></g></g><g fill="#17191a" fill-opacity="1"><g transform="translate(292.905366, 56.535084)"><g/></g></g><g fill="#17191a" fill-opacity="1"><g transform="translate(297.36031, 56.535084)"><g/></g></g><g fill="#17191a" fill-opacity="1"><g transform="translate(301.815254, 56.535084)"><g/></g></g><g fill="#17191a" fill-opacity="1"><g transform="translate(306.270198, 56.535084)"><g/></g></g><g fill="#17191a" fill-opacity="1"><g transform="translate(310.725142, 56.535084)"><g/></g></g><g fill="#17191a" fill-opacity="1"><g transform="translate(315.17481, 56.535084)"><g><path d="M 3.140625 -3.609375 C 3.148438 -4.304688 3.226562 -4.851562 3.375 -5.25 C 3.519531 -5.65625 3.816406 -6.101562 4.265625 -6.59375 L 5.421875 -7.78125 C 5.910156 -8.34375 6.15625 -8.941406 6.15625 -9.578125 C 6.15625 -10.191406 5.992188 -10.671875 5.671875 -11.015625 C 5.347656 -11.367188 4.878906 -11.546875 4.265625 -11.546875 C 3.671875 -11.546875 3.191406 -11.382812 2.828125 -11.0625 C 2.460938 -10.75 2.28125 -10.328125 2.28125 -9.796875 L 0.65625 -9.796875 C 0.664062 -10.742188 1.003906 -11.507812 1.671875 -12.09375 C 2.335938 -12.675781 3.203125 -12.96875 4.265625 -12.96875 C 5.378906 -12.96875 6.242188 -12.671875 6.859375 -12.078125 C 7.472656 -11.484375 7.78125 -10.671875 7.78125 -9.640625 C 7.78125 -8.609375 7.304688 -7.59375 6.359375 -6.59375 L 5.40625 -5.65625 C 4.976562 -5.175781 4.765625 -4.492188 4.765625 -3.609375 Z M 3.0625 -0.8125 C 3.0625 -1.082031 3.140625 -1.304688 3.296875 -1.484375 C 3.460938 -1.660156 3.703125 -1.75 4.015625 -1.75 C 4.335938 -1.75 4.582031 -1.660156 4.75 -1.484375 C 4.914062 -1.304688 5 -1.082031 5 -0.8125 C 5 -0.550781 4.914062 -0.332031 4.75 -0.15625 C 4.582031 0.0078125 4.335938 0.09375 4.015625 0.09375 C 3.703125 0.09375 3.460938 0.0078125 3.296875 -0.15625 C 3.140625 -0.332031 3.0625 -0.550781 3.0625 -0.8125 Z M 3.0625 -0.8125 "/></g></g></g><g fill="#17191a" fill-opacity="1"><g transform="translate(323.671243, 56.535084)"><g/></g></g><g fill="#17191a" fill-opacity="1"><g transform="translate(328.126187, 56.535084)"><g/></g></g><g fill="#17191a" fill-opacity="1"><g transform="translate(332.581131, 56.535084)"><g/></g></g><g fill="#17191a" fill-opacity="1"><g transform="translate(337.036075, 56.535084)"><g/></g></g><g fill="#17191a" fill-opacity="1"><g transform="translate(341.491019, 56.535084)"><g/></g></g><g fill="#17191a" fill-opacity="1"><g transform="translate(345.945963, 56.535084)"><g/></g></g><g fill="#17191a" fill-opacity="1"><g transform="translate(350.400907, 56.535084)"><g/></g></g><g fill="#17191a" fill-opacity="1"><g transform="translate(354.855851, 56.535084)"><g/></g></g><g fill="#17191a" fill-opacity="1"><g transform="translate(359.310795, 56.535084)"><g/></g></g><g fill="#17191a" fill-opacity="1"><g transform="translate(363.765739, 56.535084)"><g/></g></g><g fill="#17191a" fill-opacity="1"><g transform="translate(368.220683, 56.535084)"><g/></g></g><g fill="#17191a" fill-opacity="1"><g transform="translate(372.675627, 56.535084)"><g/></g></g><path fill="#17191a" d="M 189.878906 44.867188 C 190.15625 44.867188 190.457031 44.867188 190.457031 44.539062 C 190.457031 44.207031 190.15625 44.207031 189.878906 44.207031 L 180.941406 44.207031 C 180.660156 44.207031 180.363281 44.207031 180.363281 44.539062 C 180.363281 44.867188 180.660156 44.867188 180.941406 44.867188 Z M 189.878906 44.867188 " fill-opacity="1" fill-rule="nonzero"/><path fill="#17191a" d="M 199.105469 45.890625 L 198.742188 45.890625 C 198.691406 46.171875 198.558594 47.082031 198.394531 47.347656 C 198.28125 47.496094 197.339844 47.496094 196.84375 47.496094 L 193.789062 47.496094 C 194.234375 47.113281 195.242188 46.058594 195.671875 45.660156 C 198.179688 43.347656 199.105469 42.488281 199.105469 40.851562 C 199.105469 38.953125 197.601562 37.679688 195.6875 37.679688 C 193.769531 37.679688 192.648438 39.316406 192.648438 40.738281 C 192.648438 41.578125 193.375 41.578125 193.425781 41.578125 C 193.769531 41.578125 194.199219 41.332031 194.199219 40.804688 C 194.199219 40.339844 193.886719 40.027344 193.425781 40.027344 C 193.273438 40.027344 193.242188 40.027344 193.191406 40.042969 C 193.507812 38.917969 194.398438 38.160156 195.472656 38.160156 C 196.875 38.160156 197.734375 39.332031 197.734375 40.851562 C 197.734375 42.257812 196.925781 43.480469 195.984375 44.539062 L 192.648438 48.273438 L 192.648438 48.667969 L 198.675781 48.667969 Z M 199.105469 45.890625 " fill-opacity="1" fill-rule="nonzero"/><path fill="#17191a" d="M 207.753906 41.925781 C 207.222656 42.027344 207.027344 42.421875 207.027344 42.738281 C 207.027344 43.132812 207.339844 43.265625 207.570312 43.265625 C 208.066406 43.265625 208.414062 42.835938 208.414062 42.390625 C 208.414062 41.695312 207.621094 41.382812 206.925781 41.382812 C 205.917969 41.382812 205.359375 42.371094 205.210938 42.6875 C 204.828125 41.449219 203.804688 41.382812 203.507812 41.382812 C 201.824219 41.382812 200.933594 43.546875 200.933594 43.910156 C 200.933594 43.976562 200.996094 44.058594 201.113281 44.058594 C 201.246094 44.058594 201.277344 43.960938 201.3125 43.894531 C 201.875 42.058594 202.980469 41.710938 203.457031 41.710938 C 204.203125 41.710938 204.351562 42.40625 204.351562 42.800781 C 204.351562 43.167969 204.25 43.546875 204.054688 44.339844 L 203.492188 46.601562 C 203.242188 47.59375 202.765625 48.503906 201.890625 48.503906 C 201.808594 48.503906 201.394531 48.503906 201.046875 48.289062 C 201.640625 48.171875 201.773438 47.675781 201.773438 47.480469 C 201.773438 47.148438 201.527344 46.949219 201.210938 46.949219 C 200.816406 46.949219 200.386719 47.296875 200.386719 47.824219 C 200.386719 48.519531 201.164062 48.832031 201.875 48.832031 C 202.664062 48.832031 203.226562 48.207031 203.574219 47.527344 C 203.839844 48.503906 204.664062 48.832031 205.273438 48.832031 C 206.960938 48.832031 207.851562 46.667969 207.851562 46.304688 C 207.851562 46.222656 207.785156 46.15625 207.6875 46.15625 C 207.539062 46.15625 207.523438 46.238281 207.472656 46.371094 C 207.027344 47.824219 206.066406 48.503906 205.324219 48.503906 C 204.746094 48.503906 204.433594 48.074219 204.433594 47.394531 C 204.433594 47.03125 204.5 46.769531 204.761719 45.675781 L 205.339844 43.429688 C 205.589844 42.4375 206.152344 41.710938 206.910156 41.710938 C 206.945312 41.710938 207.40625 41.710938 207.753906 41.925781 Z M 207.753906 41.925781 " fill-opacity="1" fill-rule="nonzero"/><path fill="#17191a" d="M 223.667969 44.867188 C 223.949219 44.867188 224.246094 44.867188 224.246094 44.539062 C 224.246094 44.207031 223.949219 44.207031 223.667969 44.207031 L 214.734375 44.207031 C 214.453125 44.207031 214.15625 44.207031 214.15625 44.539062 C 214.15625 44.867188 214.453125 44.867188 214.734375 44.867188 Z M 223.667969 44.867188 " fill-opacity="1" fill-rule="nonzero"/><path fill="#17191a" d="M 236.566406 45.890625 L 236.203125 45.890625 C 236.152344 46.171875 236.023438 47.082031 235.855469 47.347656 C 235.742188 47.496094 234.800781 47.496094 234.304688 47.496094 L 231.25 47.496094 C 231.695312 47.113281 232.703125 46.058594 233.132812 45.660156 C 235.640625 43.347656 236.566406 42.488281 236.566406 40.851562 C 236.566406 38.953125 235.0625 37.679688 233.148438 37.679688 C 231.234375 37.679688 230.109375 39.316406 230.109375 40.738281 C 230.109375 41.578125 230.835938 41.578125 230.886719 41.578125 C 231.234375 41.578125 231.660156 41.332031 231.660156 40.804688 C 231.660156 40.339844 231.347656 40.027344 230.886719 40.027344 C 230.738281 40.027344 230.703125 40.027344 230.65625 40.042969 C 230.96875 38.917969 231.859375 38.160156 232.933594 38.160156 C 234.335938 38.160156 235.195312 39.332031 235.195312 40.851562 C 235.195312 42.257812 234.386719 43.480469 233.445312 44.539062 L 230.109375 48.273438 L 230.109375 48.667969 L 236.136719 48.667969 Z M 236.566406 45.890625 " fill-opacity="1" fill-rule="nonzero"/><path fill="#17191a" d="M 247.644531 44.851562 L 252.203125 44.851562 C 252.4375 44.851562 252.734375 44.851562 252.734375 44.554688 C 252.734375 44.238281 252.453125 44.238281 252.203125 44.238281 L 247.644531 44.238281 L 247.644531 39.679688 C 247.644531 39.449219 247.644531 39.152344 247.347656 39.152344 C 247.035156 39.152344 247.035156 39.433594 247.035156 39.679688 L 247.035156 44.238281 L 242.476562 44.238281 C 242.246094 44.238281 241.949219 44.238281 241.949219 44.539062 C 241.949219 44.851562 242.230469 44.851562 242.476562 44.851562 L 247.035156 44.851562 L 247.035156 49.410156 C 247.035156 49.644531 247.035156 49.941406 247.332031 49.941406 C 247.644531 49.941406 247.644531 49.660156 247.644531 49.410156 Z M 247.644531 44.851562 " fill-opacity="1" fill-rule="nonzero"/><path fill="#17191a" d="M 262.671875 52.683594 C 262.671875 52.632812 262.671875 52.601562 262.390625 52.320312 C 260.738281 50.652344 259.816406 47.925781 259.816406 44.554688 C 259.816406 41.347656 260.589844 38.589844 262.507812 36.640625 C 262.671875 36.492188 262.671875 36.457031 262.671875 36.40625 C 262.671875 36.308594 262.589844 36.277344 262.523438 36.277344 C 262.308594 36.277344 260.953125 37.464844 260.144531 39.085938 C 259.300781 40.753906 258.921875 42.523438 258.921875 44.554688 C 258.921875 46.023438 259.152344 47.992188 260.011719 49.757812 C 260.988281 51.742188 262.339844 52.816406 262.523438 52.816406 C 262.589844 52.816406 262.671875 52.78125 262.671875 52.683594 Z M 262.671875 52.683594 " fill-opacity="1" fill-rule="nonzero"/><path fill="#17191a" d="M 271.421875 41.925781 C 270.894531 42.027344 270.695312 42.421875 270.695312 42.738281 C 270.695312 43.132812 271.007812 43.265625 271.238281 43.265625 C 271.734375 43.265625 272.082031 42.835938 272.082031 42.390625 C 272.082031 41.695312 271.289062 41.382812 270.59375 41.382812 C 269.589844 41.382812 269.027344 42.371094 268.878906 42.6875 C 268.496094 41.449219 267.472656 41.382812 267.175781 41.382812 C 265.492188 41.382812 264.601562 43.546875 264.601562 43.910156 C 264.601562 43.976562 264.667969 44.058594 264.78125 44.058594 C 264.914062 44.058594 264.945312 43.960938 264.980469 43.894531 C 265.542969 42.058594 266.648438 41.710938 267.128906 41.710938 C 267.871094 41.710938 268.019531 42.40625 268.019531 42.800781 C 268.019531 43.167969 267.921875 43.546875 267.722656 44.339844 L 267.160156 46.601562 C 266.914062 47.59375 266.433594 48.503906 265.558594 48.503906 C 265.476562 48.503906 265.0625 48.503906 264.714844 48.289062 C 265.308594 48.171875 265.441406 47.675781 265.441406 47.480469 C 265.441406 47.148438 265.195312 46.949219 264.882812 46.949219 C 264.484375 46.949219 264.054688 47.296875 264.054688 47.824219 C 264.054688 48.519531 264.832031 48.832031 265.542969 48.832031 C 266.335938 48.832031 266.894531 48.207031 267.242188 47.527344 C 267.507812 48.503906 268.332031 48.832031 268.945312 48.832031 C 270.628906 48.832031 271.519531 46.667969 271.519531 46.304688 C 271.519531 46.222656 271.453125 46.15625 271.355469 46.15625 C 271.207031 46.15625 271.191406 46.238281 271.140625 46.371094 C 270.695312 47.824219 269.738281 48.503906 268.992188 48.503906 C 268.414062 48.503906 268.101562 48.074219 268.101562 47.394531 C 268.101562 47.03125 268.167969 46.769531 268.433594 45.675781 L 269.011719 43.429688 C 269.257812 42.4375 269.820312 41.710938 270.578125 41.710938 C 270.613281 41.710938 271.074219 41.710938 271.421875 41.925781 Z M 271.421875 41.925781 " fill-opacity="1" fill-rule="nonzero"/><path fill="#17191a" d="M 283.042969 44.851562 L 287.601562 44.851562 C 287.832031 44.851562 288.128906 44.851562 288.128906 44.554688 C 288.128906 44.238281 287.847656 44.238281 287.601562 44.238281 L 283.042969 44.238281 L 283.042969 39.679688 C 283.042969 39.449219 283.042969 39.152344 282.746094 39.152344 C 282.433594 39.152344 282.433594 39.433594 282.433594 39.679688 L 282.433594 44.238281 L 277.875 44.238281 C 277.640625 44.238281 277.34375 44.238281 277.34375 44.539062 C 277.34375 44.851562 277.625 44.851562 277.875 44.851562 L 282.433594 44.851562 L 282.433594 49.410156 C 282.433594 49.644531 282.433594 49.941406 282.730469 49.941406 C 283.042969 49.941406 283.042969 49.660156 283.042969 49.410156 Z M 283.042969 44.851562 " fill-opacity="1" fill-rule="nonzero"/><path fill="#17191a" d="M 297.457031 38.078125 C 297.457031 37.695312 297.457031 37.679688 297.128906 37.679688 C 296.730469 38.125 295.90625 38.738281 294.207031 38.738281 L 294.207031 39.21875 C 294.585938 39.21875 295.410156 39.21875 296.320312 38.789062 L 296.320312 47.394531 C 296.320312 47.992188 296.269531 48.1875 294.816406 48.1875 L 294.304688 48.1875 L 294.304688 48.667969 C 294.75 48.636719 296.351562 48.636719 296.898438 48.636719 C 297.441406 48.636719 299.027344 48.636719 299.472656 48.667969 L 299.472656 48.1875 L 298.960938 48.1875 C 297.507812 48.1875 297.457031 47.992188 297.457031 47.394531 Z M 297.457031 38.078125 " fill-opacity="1" fill-rule="nonzero"/><path fill="#17191a" d="M 305.445312 44.554688 C 305.445312 43.296875 305.28125 41.25 304.355469 39.332031 C 303.382812 37.351562 302.027344 36.277344 301.84375 36.277344 C 301.777344 36.277344 301.695312 36.308594 301.695312 36.40625 C 301.695312 36.457031 301.695312 36.492188 301.976562 36.773438 C 303.628906 38.441406 304.554688 41.167969 304.554688 44.539062 C 304.554688 47.742188 303.777344 50.503906 301.863281 52.453125 C 301.695312 52.601562 301.695312 52.632812 301.695312 52.683594 C 301.695312 52.78125 301.777344 52.816406 301.84375 52.816406 C 302.058594 52.816406 303.414062 51.625 304.222656 50.007812 C 305.066406 48.320312 305.445312 46.535156 305.445312 44.554688 Z M 305.445312 44.554688 " fill-opacity="1" fill-rule="nonzero"/><g clip-path="url(#f20d0ba879)"><path fill="#17191a" d="M 310.179688 40.425781 C 310.359375 40.261719 310.820312 39.898438 310.996094 39.742188 C 311.679688 39.113281 312.328125 38.507812 312.328125 37.507812 C 312.328125 36.195312 311.226562 35.347656 309.851562 35.347656 C 308.53125 35.347656 307.660156 36.351562 307.660156 37.332031 C 307.660156 37.871094 308.089844 37.945312 308.242188 37.945312 C 308.476562 37.945312 308.816406 37.78125 308.816406 37.363281 C 308.816406 36.789062 308.265625 36.789062 308.132812 36.789062 C 308.453125 35.984375 309.191406 35.710938 309.730469 35.710938 C 310.753906 35.710938 311.28125 36.582031 311.28125 37.507812 C 311.28125 38.652344 310.480469 39.488281 309.179688 40.820312 L 307.792969 42.253906 C 307.660156 42.375 307.660156 42.398438 307.660156 42.671875 L 312.007812 42.671875 L 312.328125 40.699219 L 311.988281 40.699219 C 311.953125 40.921875 311.867188 41.472656 311.734375 41.679688 C 311.667969 41.769531 310.832031 41.769531 310.65625 41.769531 L 308.695312 41.769531 Z M 310.179688 40.425781 " fill-opacity="1" fill-rule="nonzero"/></g><g clip-path="url(#3e07072692)"><path fill="#17191a" d="M 178.992188 55.386719 L 313.613281 55.386719 L 313.613281 56.046875 L 178.992188 56.046875 Z M 178.992188 55.386719 " fill-opacity="1" fill-rule="nonzero"/></g><g clip-path="url(#7852595c84)"><path fill="#17191a" d="M 232.132812 64.4375 C 231.601562 64.539062 231.40625 64.933594 231.40625 65.25 C 231.40625 65.644531 231.71875 65.777344 231.949219 65.777344 C 232.445312 65.777344 232.792969 65.347656 232.792969 64.902344 C 232.792969 64.207031 232 63.894531 231.304688 63.894531 C 230.296875 63.894531 229.738281 64.886719 229.589844 65.199219 C 229.207031 63.960938 228.183594 63.894531 227.886719 63.894531 C 226.203125 63.894531 225.3125 66.058594 225.3125 66.421875 C 225.3125 66.488281 225.375 66.570312 225.492188 66.570312 C 225.625 66.570312 225.65625 66.472656 225.691406 66.40625 C 226.253906 64.570312 227.359375 64.222656 227.835938 64.222656 C 228.582031 64.222656 228.730469 64.917969 228.730469 65.316406 C 228.730469 65.679688 228.628906 66.058594 228.433594 66.851562 L 227.871094 69.113281 C 227.621094 70.105469 227.144531 71.015625 226.269531 71.015625 C 226.1875 71.015625 225.773438 71.015625 225.425781 70.800781 C 226.019531 70.683594 226.152344 70.1875 226.152344 69.992188 C 226.152344 69.660156 225.90625 69.460938 225.589844 69.460938 C 225.195312 69.460938 224.765625 69.808594 224.765625 70.335938 C 224.765625 71.03125 225.542969 71.34375 226.253906 71.34375 C 227.046875 71.34375 227.605469 70.71875 227.953125 70.039062 C 228.21875 71.015625 229.042969 71.34375 229.65625 71.34375 C 231.339844 71.34375 232.230469 69.179688 232.230469 68.816406 C 232.230469 68.734375 232.164062 68.667969 232.066406 68.667969 C 231.917969 68.667969 231.902344 68.75 231.851562 68.882812 C 231.40625 70.335938 230.445312 71.015625 229.703125 71.015625 C 229.125 71.015625 228.8125 70.585938 228.8125 69.90625 C 228.8125 69.542969 228.878906 69.28125 229.140625 68.191406 L 229.71875 65.941406 C 229.96875 64.949219 230.53125 64.222656 231.289062 64.222656 C 231.324219 64.222656 231.785156 64.222656 232.132812 64.4375 Z M 232.132812 64.4375 " fill-opacity="1" fill-rule="nonzero"/></g><path fill="#17191a" d="M 237.832031 59.28125 C 237.832031 59.058594 237.832031 58.972656 237.601562 58.972656 C 237.457031 58.972656 237.445312 58.984375 237.335938 59.136719 L 233.824219 64.238281 L 233.824219 64.601562 L 236.929688 64.601562 L 236.929688 65.515625 C 236.929688 65.921875 236.894531 66.042969 236.046875 66.042969 L 235.792969 66.042969 L 235.792969 66.40625 C 236.730469 66.375 236.753906 66.375 237.378906 66.375 C 238.007812 66.375 238.03125 66.375 238.964844 66.40625 L 238.964844 66.042969 L 238.710938 66.042969 C 237.863281 66.042969 237.832031 65.921875 237.832031 65.515625 L 237.832031 64.601562 L 239 64.601562 L 239 64.238281 L 237.832031 64.238281 Z M 237.003906 60.171875 L 237.003906 64.238281 L 234.207031 64.238281 Z M 237.003906 60.171875 " fill-opacity="1" fill-rule="nonzero"/><path fill="#17191a" d="M 254.585938 67.378906 C 254.867188 67.378906 255.164062 67.378906 255.164062 67.050781 C 255.164062 66.71875 254.867188 66.71875 254.585938 66.71875 L 245.648438 66.71875 C 245.367188 66.71875 245.070312 66.71875 245.070312 67.050781 C 245.070312 67.378906 245.367188 67.378906 245.648438 67.378906 Z M 254.585938 67.378906 " fill-opacity="1" fill-rule="nonzero"/><g clip-path="url(#5753a75639)"><path fill="#17191a" d="M 264.972656 60.589844 C 264.972656 60.207031 264.972656 60.191406 264.644531 60.191406 C 264.246094 60.636719 263.421875 61.25 261.722656 61.25 L 261.722656 61.730469 C 262.101562 61.730469 262.925781 61.730469 263.835938 61.300781 L 263.835938 69.90625 C 263.835938 70.503906 263.785156 70.703125 262.332031 70.703125 L 261.820312 70.703125 L 261.820312 71.179688 C 262.265625 71.148438 263.867188 71.148438 264.414062 71.148438 C 264.957031 71.148438 266.542969 71.148438 266.988281 71.179688 L 266.988281 70.703125 L 266.476562 70.703125 C 265.023438 70.703125 264.972656 70.503906 264.972656 69.90625 Z M 264.972656 60.589844 " fill-opacity="1" fill-rule="nonzero"/></g></svg>