<svg xmlns="http://www.w3.org/2000/svg" xmlns:xlink="http://www.w3.org/1999/xlink" width="500" zoomAndPan="magnify" viewBox="0 0 375 74.999997" height="100" preserveAspectRatio="xMidYMid meet" version="1.0"><defs><g/><clipPath id="81d3aa27d7"><path d="M 117 6.351562 L 124 6.351562 L 124 20 L 117 20 Z M 117 6.351562 " clip-rule="nonzero"/></clipPath><clipPath id="68f2b38028"><path d="M 116 32 L 125 32 L 125 45.351562 L 116 45.351562 Z M 116 32 " clip-rule="nonzero"/></clipPath></defs><path fill="#17191a" d="M 113.050781 36.832031 C 113.050781 36.773438 113.050781 36.734375 112.726562 36.410156 C 110.820312 34.464844 109.753906 31.292969 109.753906 27.367188 C 109.753906 23.636719 110.648438 20.421875 112.863281 18.152344 C 113.050781 17.980469 113.050781 17.941406 113.050781 17.882812 C 113.050781 17.769531 112.957031 17.730469 112.878906 17.730469 C 112.632812 17.730469 111.070312 19.117188 110.136719 21 C 109.164062 22.945312 108.726562 25 108.726562 27.367188 C 108.726562 29.078125 108.992188 31.367188 109.984375 33.425781 C 111.109375 35.734375 112.671875 36.984375 112.878906 36.984375 C 112.957031 36.984375 113.050781 36.945312 113.050781 36.832031 Z M 113.050781 36.832031 " fill-opacity="1" fill-rule="nonzero"/><g clip-path="url(#81d3aa27d7)"><path fill="#17191a" d="M 121.511719 6.816406 C 121.511719 6.375 121.511719 6.355469 121.132812 6.355469 C 120.671875 6.875 119.71875 7.585938 117.757812 7.585938 L 117.757812 8.144531 C 118.195312 8.144531 119.148438 8.144531 120.195312 7.644531 L 120.195312 17.664062 C 120.195312 18.355469 120.140625 18.585938 118.460938 18.585938 L 117.871094 18.585938 L 117.871094 19.144531 C 118.386719 19.105469 120.234375 19.105469 120.863281 19.105469 C 121.492188 19.105469 123.324219 19.105469 123.839844 19.144531 L 123.839844 18.585938 L 123.246094 18.585938 C 121.570312 18.585938 121.511719 18.355469 121.511719 17.664062 Z M 121.511719 6.816406 " fill-opacity="1" fill-rule="nonzero"/></g><path fill="#17191a" d="M 116.023438 26.964844 L 125.355469 26.964844 L 125.355469 27.734375 L 116.023438 27.734375 Z M 116.023438 26.964844 " fill-opacity="1" fill-rule="nonzero"/><g clip-path="url(#68f2b38028)"><path fill="#17191a" d="M 124.410156 42.121094 L 123.992188 42.121094 C 123.933594 42.449219 123.78125 43.507812 123.589844 43.8125 C 123.457031 43.988281 122.371094 43.988281 121.796875 43.988281 L 118.273438 43.988281 C 118.785156 43.542969 119.949219 42.3125 120.445312 41.851562 C 123.34375 39.160156 124.410156 38.160156 124.410156 36.253906 C 124.410156 34.042969 122.675781 32.5625 120.464844 32.5625 C 118.253906 32.5625 116.957031 34.464844 116.957031 36.121094 C 116.957031 37.101562 117.796875 37.101562 117.851562 37.101562 C 118.253906 37.101562 118.75 36.8125 118.75 36.195312 C 118.75 35.65625 118.386719 35.292969 117.851562 35.292969 C 117.679688 35.292969 117.640625 35.292969 117.585938 35.3125 C 117.949219 34.003906 118.976562 33.117188 120.214844 33.117188 C 121.835938 33.117188 122.828125 34.484375 122.828125 36.253906 C 122.828125 37.890625 121.894531 39.3125 120.808594 40.542969 L 116.957031 44.890625 L 116.957031 45.351562 L 123.914062 45.351562 Z M 124.410156 42.121094 " fill-opacity="1" fill-rule="nonzero"/></g><path fill="#17191a" d="M 136.296875 24.308594 C 135.6875 24.425781 135.460938 24.886719 135.460938 25.25 C 135.460938 25.714844 135.820312 25.867188 136.089844 25.867188 C 136.660156 25.867188 137.058594 25.367188 137.058594 24.847656 C 137.058594 24.039062 136.144531 23.675781 135.34375 23.675781 C 134.183594 23.675781 133.535156 24.828125 133.363281 25.195312 C 132.921875 23.75 131.742188 23.675781 131.398438 23.675781 C 129.453125 23.675781 128.425781 26.195312 128.425781 26.617188 C 128.425781 26.695312 128.5 26.789062 128.632812 26.789062 C 128.789062 26.789062 128.824219 26.675781 128.863281 26.597656 C 129.511719 24.464844 130.789062 24.058594 131.339844 24.058594 C 132.199219 24.058594 132.371094 24.867188 132.371094 25.328125 C 132.371094 25.753906 132.257812 26.195312 132.027344 27.117188 L 131.378906 29.753906 C 131.09375 30.90625 130.539062 31.964844 129.53125 31.964844 C 129.433594 31.964844 128.957031 31.964844 128.558594 31.714844 C 129.246094 31.582031 129.398438 31.003906 129.398438 30.773438 C 129.398438 30.386719 129.109375 30.15625 128.75 30.15625 C 128.292969 30.15625 127.796875 30.5625 127.796875 31.175781 C 127.796875 31.984375 128.691406 32.351562 129.511719 32.351562 C 130.425781 32.351562 131.074219 31.617188 131.476562 30.832031 C 131.78125 31.964844 132.734375 32.351562 133.4375 32.351562 C 135.382812 32.351562 136.414062 29.828125 136.414062 29.40625 C 136.414062 29.3125 136.335938 29.234375 136.222656 29.234375 C 136.050781 29.234375 136.03125 29.328125 135.972656 29.484375 C 135.460938 31.175781 134.355469 31.964844 133.496094 31.964844 C 132.828125 31.964844 132.464844 31.464844 132.464844 30.675781 C 132.464844 30.253906 132.542969 29.945312 132.847656 28.675781 L 133.515625 26.058594 C 133.800781 24.90625 134.449219 24.058594 135.324219 24.058594 C 135.363281 24.058594 135.898438 24.058594 136.296875 24.308594 Z M 136.296875 24.308594 " fill-opacity="1" fill-rule="nonzero"/><path fill="#17191a" d="M 154.667969 27.734375 C 154.992188 27.734375 155.332031 27.734375 155.332031 27.347656 C 155.332031 26.964844 154.992188 26.964844 154.667969 26.964844 L 144.355469 26.964844 C 144.03125 26.964844 143.6875 26.964844 143.6875 27.347656 C 143.6875 27.734375 144.03125 27.734375 144.355469 27.734375 Z M 154.667969 27.734375 " fill-opacity="1" fill-rule="nonzero"/><path fill="#17191a" d="M 168.582031 31.753906 L 165.230469 24.269531 C 165.09375 23.960938 165 23.960938 164.941406 23.960938 C 164.925781 23.960938 164.828125 23.960938 164.617188 24.117188 L 162.808594 25.5 C 162.558594 25.695312 162.558594 25.75 162.558594 25.808594 C 162.558594 25.90625 162.617188 26.019531 162.75 26.019531 C 162.863281 26.019531 163.1875 25.75 163.398438 25.597656 C 163.511719 25.5 163.800781 25.289062 164.007812 25.136719 L 167.765625 33.464844 C 167.898438 33.773438 167.992188 33.773438 168.164062 33.773438 C 168.449219 33.773438 168.507812 33.65625 168.640625 33.386719 L 177.296875 15.308594 C 177.429688 15.039062 177.429688 14.960938 177.429688 14.921875 C 177.429688 14.730469 177.277344 14.539062 177.046875 14.539062 C 176.894531 14.539062 176.761719 14.632812 176.609375 14.941406 Z M 168.582031 31.753906 " fill-opacity="1" fill-rule="nonzero"/><path fill="#17191a" d="M 177.054688 14.539062 L 186.386719 14.539062 L 186.386719 15.308594 L 177.054688 15.308594 Z M 177.054688 14.539062 " fill-opacity="1" fill-rule="nonzero"/><path fill="#17191a" d="M 180.5625 25.25 C 180.238281 25.269531 180.160156 25.289062 180.160156 25.464844 C 180.160156 25.65625 180.257812 25.65625 180.597656 25.65625 L 181.476562 25.65625 C 183.097656 25.65625 183.820312 27.003906 183.820312 28.847656 C 183.820312 31.367188 182.523438 32.042969 181.589844 32.042969 C 180.675781 32.042969 179.113281 31.601562 178.558594 30.332031 C 179.167969 30.425781 179.722656 30.078125 179.722656 29.386719 C 179.722656 28.828125 179.320312 28.445312 178.789062 28.445312 C 178.332031 28.445312 177.835938 28.714844 177.835938 29.445312 C 177.835938 31.15625 179.53125 32.5625 181.648438 32.5625 C 183.914062 32.5625 185.59375 30.8125 185.59375 28.867188 C 185.59375 27.097656 184.183594 25.714844 182.351562 25.386719 C 184.011719 24.90625 185.078125 23.5 185.078125 22 C 185.078125 20.480469 183.515625 19.367188 181.667969 19.367188 C 179.761719 19.367188 178.347656 20.539062 178.347656 21.945312 C 178.347656 22.710938 178.941406 22.867188 179.226562 22.867188 C 179.625 22.867188 180.085938 22.578125 180.085938 22 C 180.085938 21.386719 179.625 21.117188 179.207031 21.117188 C 179.09375 21.117188 179.054688 21.117188 178.996094 21.136719 C 179.722656 19.828125 181.515625 19.828125 181.609375 19.828125 C 182.238281 19.828125 183.476562 20.117188 183.476562 22 C 183.476562 22.367188 183.421875 23.445312 182.867188 24.269531 C 182.296875 25.117188 181.648438 25.175781 181.132812 25.195312 Z M 180.5625 25.25 " fill-opacity="1" fill-rule="nonzero"/><path fill="#17191a" d="M 191.761719 27.367188 C 191.761719 25.90625 191.570312 23.519531 190.503906 21.289062 C 189.378906 18.980469 187.816406 17.730469 187.605469 17.730469 C 187.53125 17.730469 187.433594 17.769531 187.433594 17.882812 C 187.433594 17.941406 187.433594 17.980469 187.757812 18.308594 C 189.664062 20.25 190.734375 23.425781 190.734375 27.347656 C 190.734375 31.082031 189.835938 34.292969 187.625 36.5625 C 187.433594 36.734375 187.433594 36.773438 187.433594 36.832031 C 187.433594 36.945312 187.53125 36.984375 187.605469 36.984375 C 187.855469 36.984375 189.417969 35.601562 190.351562 33.714844 C 191.324219 31.753906 191.761719 29.675781 191.761719 27.367188 Z M 191.761719 27.367188 " fill-opacity="1" fill-rule="nonzero"/><path fill="#17191a" d="M 197.230469 21.597656 C 197.433594 21.40625 197.96875 20.984375 198.171875 20.804688 C 198.957031 20.074219 199.707031 19.367188 199.707031 18.203125 C 199.707031 16.675781 198.4375 15.6875 196.847656 15.6875 C 195.324219 15.6875 194.320312 16.855469 194.320312 17.996094 C 194.320312 18.625 194.816406 18.714844 194.992188 18.714844 C 195.261719 18.714844 195.652344 18.523438 195.652344 18.035156 C 195.652344 17.367188 195.019531 17.367188 194.867188 17.367188 C 195.234375 16.429688 196.085938 16.109375 196.707031 16.109375 C 197.890625 16.109375 198.5 17.125 198.5 18.203125 C 198.5 19.535156 197.574219 20.507812 196.074219 22.0625 L 194.472656 23.726562 C 194.320312 23.871094 194.320312 23.894531 194.320312 24.214844 L 199.339844 24.214844 L 199.707031 21.921875 L 199.3125 21.921875 C 199.277344 22.175781 199.175781 22.816406 199.023438 23.0625 C 198.945312 23.164062 197.980469 23.164062 197.777344 23.164062 L 195.515625 23.164062 Z M 197.230469 21.597656 " fill-opacity="1" fill-rule="nonzero"/><g fill="#17191a" fill-opacity="1"><g transform="translate(15.000006, 31.534067)"><g><path d="M 7.921875 -4.296875 L 9.703125 -4.296875 L 9.703125 -2.96875 L 7.921875 -2.96875 L 7.921875 0 L 6.296875 0 L 6.296875 -2.96875 L 0.46875 -2.96875 L 0.46875 -3.921875 L 6.203125 -12.796875 L 7.921875 -12.796875 Z M 2.3125 -4.296875 L 6.296875 -4.296875 L 6.296875 -10.578125 L 6.09375 -10.21875 Z M 2.3125 -4.296875 "/></g></g></g><g fill="#17191a" fill-opacity="1"><g transform="translate(25.104909, 31.534067)"><g><path d="M 4.984375 -5.109375 C 4.984375 -3.796875 4.8125 -2.539062 4.46875 -1.34375 C 4.125 -0.144531 3.597656 0.957031 2.890625 1.96875 C 2.191406 2.976562 1.453125 3.695312 0.671875 4.125 L 0.328125 3.140625 C 1.234375 2.441406 1.957031 1.367188 2.5 -0.078125 C 3.050781 -1.535156 3.332031 -3.15625 3.34375 -4.9375 L 3.34375 -5.21875 C 3.34375 -6.445312 3.210938 -7.585938 2.953125 -8.640625 C 2.703125 -9.703125 2.347656 -10.648438 1.890625 -11.484375 C 1.429688 -12.328125 0.910156 -12.984375 0.328125 -13.453125 L 0.671875 -14.4375 C 1.453125 -14.007812 2.191406 -13.296875 2.890625 -12.296875 C 3.585938 -11.296875 4.109375 -10.191406 4.453125 -8.984375 C 4.804688 -7.773438 4.984375 -6.484375 4.984375 -5.109375 Z M 4.984375 -5.109375 "/></g></g></g><g fill="#17191a" fill-opacity="1"><g transform="translate(31.361161, 31.534067)"><g/></g></g><g fill="#17191a" fill-opacity="1"><g transform="translate(35.816106, 31.534067)"><g><path d="M 4.734375 -5.953125 L 3.171875 -4.328125 L 3.171875 0 L 1.484375 0 L 1.484375 -12.796875 L 3.171875 -12.796875 L 3.171875 -6.46875 L 8.859375 -12.796875 L 10.90625 -12.796875 L 5.859375 -7.140625 L 11.296875 0 L 9.265625 0 Z M 4.734375 -5.953125 "/></g></g></g><g fill="#17191a" fill-opacity="1"><g transform="translate(47.098449, 31.534067)"><g><path d="M 0.796875 -4.84375 C 0.796875 -5.769531 0.976562 -6.601562 1.34375 -7.34375 C 1.71875 -8.09375 2.226562 -8.671875 2.875 -9.078125 C 3.53125 -9.484375 4.273438 -9.6875 5.109375 -9.6875 C 6.410156 -9.6875 7.457031 -9.238281 8.25 -8.34375 C 9.050781 -7.445312 9.453125 -6.253906 9.453125 -4.765625 L 9.453125 -4.65625 C 9.453125 -3.726562 9.273438 -2.894531 8.921875 -2.15625 C 8.566406 -1.425781 8.0625 -0.851562 7.40625 -0.4375 C 6.75 -0.03125 5.992188 0.171875 5.140625 0.171875 C 3.847656 0.171875 2.800781 -0.273438 2 -1.171875 C 1.195312 -2.066406 0.796875 -3.253906 0.796875 -4.734375 Z M 2.4375 -4.65625 C 2.4375 -3.59375 2.679688 -2.742188 3.171875 -2.109375 C 3.660156 -1.472656 4.316406 -1.15625 5.140625 -1.15625 C 5.960938 -1.15625 6.613281 -1.476562 7.09375 -2.125 C 7.582031 -2.769531 7.828125 -3.675781 7.828125 -4.84375 C 7.828125 -5.882812 7.578125 -6.726562 7.078125 -7.375 C 6.585938 -8.019531 5.929688 -8.34375 5.109375 -8.34375 C 4.304688 -8.34375 3.660156 -8.023438 3.171875 -7.390625 C 2.679688 -6.753906 2.4375 -5.84375 2.4375 -4.65625 Z M 2.4375 -4.65625 "/></g></g></g><g fill="#17191a" fill-opacity="1"><g transform="translate(57.361515, 31.534067)"><g><path d="M 3 0 L 1.375 0 L 1.375 -13.5 L 3 -13.5 Z M 3 0 "/></g></g></g><g fill="#17191a" fill-opacity="1"><g transform="translate(61.728591, 31.534067)"><g><path d="M 3 0 L 1.375 0 L 1.375 -9.515625 L 3 -9.515625 Z M 1.234375 -12.03125 C 1.234375 -12.289062 1.3125 -12.507812 1.46875 -12.6875 C 1.632812 -12.875 1.875 -12.96875 2.1875 -12.96875 C 2.507812 -12.96875 2.753906 -12.875 2.921875 -12.6875 C 3.085938 -12.507812 3.171875 -12.289062 3.171875 -12.03125 C 3.171875 -11.769531 3.085938 -11.550781 2.921875 -11.375 C 2.753906 -11.195312 2.507812 -11.109375 2.1875 -11.109375 C 1.875 -11.109375 1.632812 -11.195312 1.46875 -11.375 C 1.3125 -11.550781 1.234375 -11.769531 1.234375 -12.03125 Z M 1.234375 -12.03125 "/></g></g></g><g fill="#17191a" fill-opacity="1"><g transform="translate(66.095666, 31.534067)"><g><path d="M 3.890625 -4.40625 L 2.859375 -3.34375 L 2.859375 0 L 1.234375 0 L 1.234375 -13.5 L 2.859375 -13.5 L 2.859375 -5.328125 L 3.734375 -6.375 L 6.703125 -9.515625 L 8.671875 -9.515625 L 4.96875 -5.53125 L 9.109375 0 L 7.203125 0 Z M 3.890625 -4.40625 "/></g></g></g><g fill="#17191a" fill-opacity="1"><g transform="translate(75.216439, 31.534067)"><g><path d="M 0.796875 -4.84375 C 0.796875 -5.769531 0.976562 -6.601562 1.34375 -7.34375 C 1.71875 -8.09375 2.226562 -8.671875 2.875 -9.078125 C 3.53125 -9.484375 4.273438 -9.6875 5.109375 -9.6875 C 6.410156 -9.6875 7.457031 -9.238281 8.25 -8.34375 C 9.050781 -7.445312 9.453125 -6.253906 9.453125 -4.765625 L 9.453125 -4.65625 C 9.453125 -3.726562 9.273438 -2.894531 8.921875 -2.15625 C 8.566406 -1.425781 8.0625 -0.851562 7.40625 -0.4375 C 6.75 -0.03125 5.992188 0.171875 5.140625 0.171875 C 3.847656 0.171875 2.800781 -0.273438 2 -1.171875 C 1.195312 -2.066406 0.796875 -3.253906 0.796875 -4.734375 Z M 2.4375 -4.65625 C 2.4375 -3.59375 2.679688 -2.742188 3.171875 -2.109375 C 3.660156 -1.472656 4.316406 -1.15625 5.140625 -1.15625 C 5.960938 -1.15625 6.613281 -1.476562 7.09375 -2.125 C 7.582031 -2.769531 7.828125 -3.675781 7.828125 -4.84375 C 7.828125 -5.882812 7.578125 -6.726562 7.078125 -7.375 C 6.585938 -8.019531 5.929688 -8.34375 5.109375 -8.34375 C 4.304688 -8.34375 3.660156 -8.023438 3.171875 -7.390625 C 2.679688 -6.753906 2.4375 -5.84375 2.4375 -4.65625 Z M 2.4375 -4.65625 "/></g></g></g><g fill="#17191a" fill-opacity="1"><g transform="translate(85.479505, 31.534067)"><g/></g></g><g fill="#17191a" fill-opacity="1"><g transform="translate(89.934449, 31.534067)"><g><path d="M 2.90625 -9.515625 L 2.90625 1.09375 C 2.90625 2.925781 2.078125 3.84375 0.421875 3.84375 C 0.0664062 3.84375 -0.265625 3.789062 -0.578125 3.6875 L -0.578125 2.375 C -0.390625 2.425781 -0.140625 2.453125 0.171875 2.453125 C 0.535156 2.453125 0.8125 2.351562 1 2.15625 C 1.1875 1.957031 1.28125 1.617188 1.28125 1.140625 L 1.28125 -9.515625 Z M 1.109375 -12.03125 C 1.109375 -12.289062 1.1875 -12.507812 1.34375 -12.6875 C 1.507812 -12.875 1.75 -12.96875 2.0625 -12.96875 C 2.382812 -12.96875 2.625 -12.875 2.78125 -12.6875 C 2.945312 -12.507812 3.03125 -12.289062 3.03125 -12.03125 C 3.03125 -11.769531 2.945312 -11.550781 2.78125 -11.375 C 2.625 -11.195312 2.382812 -11.109375 2.0625 -11.109375 C 1.75 -11.109375 1.507812 -11.195312 1.34375 -11.375 C 1.1875 -11.550781 1.109375 -11.769531 1.109375 -12.03125 Z M 1.109375 -12.03125 "/></g></g></g><g fill="#17191a" fill-opacity="1"><g transform="translate(94.231229, 31.534067)"><g><path d="M 5.171875 0.171875 C 3.890625 0.171875 2.84375 -0.25 2.03125 -1.09375 C 1.21875 -1.9375 0.8125 -3.066406 0.8125 -4.484375 L 0.8125 -4.796875 C 0.8125 -5.734375 0.992188 -6.570312 1.359375 -7.3125 C 1.722656 -8.050781 2.226562 -8.628906 2.875 -9.046875 C 3.519531 -9.472656 4.21875 -9.6875 4.96875 -9.6875 C 6.207031 -9.6875 7.171875 -9.28125 7.859375 -8.46875 C 8.546875 -7.65625 8.890625 -6.488281 8.890625 -4.96875 L 8.890625 -4.296875 L 2.4375 -4.296875 C 2.46875 -3.359375 2.742188 -2.597656 3.265625 -2.015625 C 3.785156 -1.441406 4.453125 -1.15625 5.265625 -1.15625 C 5.835938 -1.15625 6.320312 -1.269531 6.71875 -1.5 C 7.125 -1.738281 7.472656 -2.050781 7.765625 -2.4375 L 8.765625 -1.65625 C 7.960938 -0.4375 6.765625 0.171875 5.171875 0.171875 Z M 4.96875 -8.34375 C 4.3125 -8.34375 3.757812 -8.101562 3.3125 -7.625 C 2.875 -7.15625 2.601562 -6.488281 2.5 -5.625 L 7.265625 -5.625 L 7.265625 -5.75 C 7.210938 -6.570312 6.988281 -7.207031 6.59375 -7.65625 C 6.195312 -8.113281 5.65625 -8.34375 4.96875 -8.34375 Z M 4.96875 -8.34375 "/></g></g></g><g fill="#17191a" fill-opacity="1"><g transform="translate(103.760079, 31.534067)"><g/></g></g><g fill="#17191a" fill-opacity="1"><g transform="translate(108.215023, 31.534067)"><g/></g></g><g fill="#17191a" fill-opacity="1"><g transform="translate(112.669967, 31.534067)"><g/></g></g><g fill="#17191a" fill-opacity="1"><g transform="translate(117.124912, 31.534067)"><g/></g></g><g fill="#17191a" fill-opacity="1"><g transform="translate(121.579856, 31.534067)"><g/></g></g><g fill="#17191a" fill-opacity="1"><g transform="translate(126.0348, 31.534067)"><g/></g></g><g fill="#17191a" fill-opacity="1"><g transform="translate(130.489744, 31.534067)"><g/></g></g><g fill="#17191a" fill-opacity="1"><g transform="translate(134.944688, 31.534067)"><g/></g></g><g fill="#17191a" fill-opacity="1"><g transform="translate(139.399632, 31.534067)"><g/></g></g><g fill="#17191a" fill-opacity="1"><g transform="translate(143.854576, 31.534067)"><g/></g></g><g fill="#17191a" fill-opacity="1"><g transform="translate(148.30952, 31.534067)"><g/></g></g><g fill="#17191a" fill-opacity="1"><g transform="translate(152.764464, 31.534067)"><g/></g></g><g fill="#17191a" fill-opacity="1"><g transform="translate(157.219408, 31.534067)"><g/></g></g><g fill="#17191a" fill-opacity="1"><g transform="translate(161.674352, 31.534067)"><g/></g></g><g fill="#17191a" fill-opacity="1"><g transform="translate(166.129296, 31.534067)"><g/></g></g><g fill="#17191a" fill-opacity="1"><g transform="translate(170.58424, 31.534067)"><g/></g></g><g fill="#17191a" fill-opacity="1"><g transform="translate(175.039184, 31.534067)"><g/></g></g><g fill="#17191a" fill-opacity="1"><g transform="translate(179.494128, 31.534067)"><g/></g></g><g fill="#17191a" fill-opacity="1"><g transform="translate(183.949072, 31.534067)"><g/></g></g><g fill="#17191a" fill-opacity="1"><g transform="translate(188.404016, 31.534067)"><g/></g></g><g fill="#17191a" fill-opacity="1"><g transform="translate(192.85896, 31.534067)"><g/></g></g><g fill="#17191a" fill-opacity="1"><g transform="translate(197.313904, 31.534067)"><g/></g></g><g fill="#17191a" fill-opacity="1"><g transform="translate(201.765311, 31.534067)"><g><path d="M 3.140625 -3.609375 C 3.148438 -4.304688 3.226562 -4.851562 3.375 -5.25 C 3.519531 -5.65625 3.816406 -6.101562 4.265625 -6.59375 L 5.421875 -7.78125 C 5.910156 -8.34375 6.15625 -8.941406 6.15625 -9.578125 C 6.15625 -10.191406 5.992188 -10.671875 5.671875 -11.015625 C 5.347656 -11.367188 4.878906 -11.546875 4.265625 -11.546875 C 3.671875 -11.546875 3.191406 -11.382812 2.828125 -11.0625 C 2.460938 -10.75 2.28125 -10.328125 2.28125 -9.796875 L 0.65625 -9.796875 C 0.664062 -10.742188 1.003906 -11.507812 1.671875 -12.09375 C 2.335938 -12.675781 3.203125 -12.96875 4.265625 -12.96875 C 5.378906 -12.96875 6.242188 -12.671875 6.859375 -12.078125 C 7.472656 -11.484375 7.78125 -10.671875 7.78125 -9.640625 C 7.78125 -8.609375 7.304688 -7.59375 6.359375 -6.59375 L 5.40625 -5.65625 C 4.976562 -5.175781 4.765625 -4.492188 4.765625 -3.609375 Z M 3.0625 -0.8125 C 3.0625 -1.082031 3.140625 -1.304688 3.296875 -1.484375 C 3.460938 -1.660156 3.703125 -1.75 4.015625 -1.75 C 4.335938 -1.75 4.582031 -1.660156 4.75 -1.484375 C 4.914062 -1.304688 5 -1.082031 5 -0.8125 C 5 -0.550781 4.914062 -0.332031 4.75 -0.15625 C 4.582031 0.0078125 4.335938 0.09375 4.015625 0.09375 C 3.703125 0.09375 3.460938 0.0078125 3.296875 -0.15625 C 3.140625 -0.332031 3.0625 -0.550781 3.0625 -0.8125 Z M 3.0625 -0.8125 "/></g></g></g></svg>