<svg xmlns="http://www.w3.org/2000/svg" xmlns:xlink="http://www.w3.org/1999/xlink" width="500" zoomAndPan="magnify" viewBox="0 0 375 74.999997" height="100" preserveAspectRatio="xMidYMid meet" version="1.0"><defs><clipPath id="2d7d26c806"><path d="M 106 8.667969 L 116 8.667969 L 116 28 L 106 28 Z M 106 8.667969 " clip-rule="nonzero"/></clipPath><clipPath id="d34e5fd67c"><path d="M 104 47 L 117 47 L 117 66.417969 L 104 66.417969 Z M 104 47 " clip-rule="nonzero"/></clipPath></defs><g clip-path="url(#2d7d26c806)"><path fill="#a8180f" d="M 111.78125 9.355469 C 111.78125 8.699219 111.78125 8.671875 111.214844 8.671875 C 110.53125 9.441406 109.105469 10.492188 106.175781 10.492188 L 106.175781 11.320312 C 106.828125 11.320312 108.253906 11.320312 109.816406 10.578125 L 109.816406 25.417969 C 109.816406 26.445312 109.734375 26.785156 107.226562 26.785156 L 106.34375 26.785156 L 106.34375 27.613281 C 107.113281 27.554688 109.875 27.554688 110.816406 27.554688 C 111.753906 27.554688 114.488281 27.554688 115.253906 27.613281 L 115.253906 26.785156 L 114.371094 26.785156 C 111.867188 26.785156 111.78125 26.445312 111.78125 25.417969 Z M 111.78125 9.355469 " fill-opacity="1" fill-rule="nonzero"/></g><path fill="#a8180f" d="M 103.585938 39.191406 L 117.519531 39.191406 L 117.519531 40.332031 L 103.585938 40.332031 Z M 103.585938 39.191406 " fill-opacity="1" fill-rule="nonzero"/><g clip-path="url(#d34e5fd67c)"><path fill="#a8180f" d="M 113.859375 47.875 C 113.859375 47.335938 113.859375 47.191406 113.460938 47.191406 C 113.234375 47.191406 113.148438 47.191406 112.921875 47.535156 L 104.351562 60.835938 L 104.351562 61.664062 L 111.839844 61.664062 L 111.839844 64.253906 C 111.839844 65.308594 111.78125 65.59375 109.703125 65.59375 L 109.136719 65.59375 L 109.136719 66.417969 C 109.789062 66.363281 112.039062 66.363281 112.835938 66.363281 C 113.632812 66.363281 115.910156 66.363281 116.5625 66.417969 L 116.5625 65.59375 L 115.996094 65.59375 C 113.945312 65.59375 113.859375 65.308594 113.859375 64.253906 L 113.859375 61.664062 L 116.734375 61.664062 L 116.734375 60.835938 L 113.859375 60.835938 Z M 111.980469 50.097656 L 111.980469 60.835938 L 105.066406 60.835938 Z M 111.980469 50.097656 " fill-opacity="1" fill-rule="nonzero"/></g><path fill="#a8180f" d="M 133.859375 35.257812 C 132.945312 35.429688 132.605469 36.113281 132.605469 36.65625 C 132.605469 37.339844 133.144531 37.566406 133.542969 37.566406 C 134.398438 37.566406 134.996094 36.824219 134.996094 36.054688 C 134.996094 34.859375 133.628906 34.320312 132.433594 34.320312 C 130.699219 34.320312 129.730469 36.027344 129.472656 36.570312 C 128.820312 34.433594 127.054688 34.320312 126.542969 34.320312 C 123.640625 34.320312 122.101562 38.050781 122.101562 38.675781 C 122.101562 38.789062 122.214844 38.933594 122.414062 38.933594 C 122.640625 38.933594 122.699219 38.761719 122.757812 38.648438 C 123.722656 35.488281 125.632812 34.886719 126.457031 34.886719 C 127.738281 34.886719 127.992188 36.085938 127.992188 36.769531 C 127.992188 37.394531 127.824219 38.050781 127.480469 39.417969 L 126.515625 43.320312 C 126.085938 45.027344 125.261719 46.59375 123.753906 46.59375 C 123.609375 46.59375 122.898438 46.59375 122.300781 46.226562 C 123.324219 46.027344 123.554688 45.171875 123.554688 44.828125 C 123.554688 44.257812 123.125 43.917969 122.585938 43.917969 C 121.902344 43.917969 121.164062 44.515625 121.164062 45.425781 C 121.164062 46.625 122.5 47.164062 123.722656 47.164062 C 125.089844 47.164062 126.058594 46.082031 126.65625 44.914062 C 127.113281 46.59375 128.535156 47.164062 129.585938 47.164062 C 132.492188 47.164062 134.027344 43.433594 134.027344 42.808594 C 134.027344 42.664062 133.914062 42.550781 133.742188 42.550781 C 133.488281 42.550781 133.460938 42.691406 133.375 42.921875 C 132.605469 45.425781 130.953125 46.59375 129.671875 46.59375 C 128.675781 46.59375 128.136719 45.855469 128.136719 44.6875 C 128.136719 44.058594 128.25 43.605469 128.707031 41.726562 L 129.703125 37.851562 C 130.128906 36.140625 131.097656 34.886719 132.40625 34.886719 C 132.460938 34.886719 133.261719 34.886719 133.859375 35.257812 Z M 133.859375 35.257812 " fill-opacity="1" fill-rule="nonzero"/><path fill="#a8180f" d="M 161.289062 40.328125 C 161.773438 40.328125 162.285156 40.328125 162.285156 39.757812 C 162.285156 39.191406 161.773438 39.191406 161.289062 39.191406 L 145.886719 39.191406 C 145.40625 39.191406 144.890625 39.191406 144.890625 39.757812 C 144.890625 40.328125 145.40625 40.328125 145.886719 40.328125 Z M 161.289062 40.328125 " fill-opacity="1" fill-rule="nonzero"/><path fill="#a8180f" d="M 184.484375 35.257812 C 183.574219 35.429688 183.234375 36.113281 183.234375 36.65625 C 183.234375 37.339844 183.773438 37.566406 184.171875 37.566406 C 185.027344 37.566406 185.625 36.824219 185.625 36.054688 C 185.625 34.859375 184.257812 34.320312 183.0625 34.320312 C 181.328125 34.320312 180.359375 36.027344 180.101562 36.570312 C 179.449219 34.433594 177.683594 34.320312 177.171875 34.320312 C 174.265625 34.320312 172.730469 38.050781 172.730469 38.675781 C 172.730469 38.789062 172.84375 38.933594 173.042969 38.933594 C 173.269531 38.933594 173.328125 38.761719 173.386719 38.648438 C 174.351562 35.488281 176.257812 34.886719 177.085938 34.886719 C 178.367188 34.886719 178.621094 36.085938 178.621094 36.769531 C 178.621094 37.394531 178.453125 38.050781 178.109375 39.417969 L 177.140625 43.320312 C 176.714844 45.027344 175.890625 46.59375 174.382812 46.59375 C 174.238281 46.59375 173.527344 46.59375 172.929688 46.226562 C 173.953125 46.027344 174.183594 45.171875 174.183594 44.828125 C 174.183594 44.257812 173.753906 43.917969 173.214844 43.917969 C 172.53125 43.917969 171.789062 44.515625 171.789062 45.425781 C 171.789062 46.625 173.128906 47.164062 174.351562 47.164062 C 175.71875 47.164062 176.6875 46.082031 177.285156 44.914062 C 177.738281 46.59375 179.164062 47.164062 180.214844 47.164062 C 183.121094 47.164062 184.65625 43.433594 184.65625 42.808594 C 184.65625 42.664062 184.542969 42.550781 184.371094 42.550781 C 184.117188 42.550781 184.085938 42.691406 184.003906 42.921875 C 183.234375 45.425781 181.582031 46.59375 180.300781 46.59375 C 179.304688 46.59375 178.765625 45.855469 178.765625 44.6875 C 178.765625 44.058594 178.878906 43.605469 179.332031 41.726562 L 180.332031 37.851562 C 180.757812 36.140625 181.726562 34.886719 183.035156 34.886719 C 183.089844 34.886719 183.886719 34.886719 184.484375 35.257812 Z M 184.484375 35.257812 " fill-opacity="1" fill-rule="nonzero"/><path fill="#a8180f" d="M 197.90625 46.28125 L 192.894531 35.203125 C 192.695312 34.746094 192.554688 34.746094 192.46875 34.746094 C 192.4375 34.746094 192.296875 34.746094 191.984375 34.972656 L 189.28125 37.023438 C 188.910156 37.308594 188.910156 37.394531 188.910156 37.480469 C 188.910156 37.621094 188.996094 37.792969 189.195312 37.792969 C 189.363281 37.792969 189.847656 37.394531 190.164062 37.167969 C 190.332031 37.023438 190.761719 36.710938 191.074219 36.484375 L 196.679688 48.816406 C 196.878906 49.273438 197.023438 49.273438 197.277344 49.273438 C 197.707031 49.273438 197.789062 49.101562 197.988281 48.703125 L 210.914062 21.929688 C 211.113281 21.527344 211.113281 21.414062 211.113281 21.359375 C 211.113281 21.074219 210.882812 20.789062 210.542969 20.789062 C 210.316406 20.789062 210.117188 20.929688 209.886719 21.386719 Z M 197.90625 46.28125 " fill-opacity="1" fill-rule="nonzero"/><path fill="#a8180f" d="M 210.554688 20.789062 L 224.488281 20.789062 L 224.488281 21.929688 L 210.554688 21.929688 Z M 210.554688 20.789062 " fill-opacity="1" fill-rule="nonzero"/><path fill="#a8180f" d="M 215.789062 36.65625 C 215.308594 36.683594 215.191406 36.710938 215.191406 36.96875 C 215.191406 37.253906 215.335938 37.253906 215.847656 37.253906 L 217.15625 37.253906 C 219.578125 37.253906 220.65625 39.246094 220.65625 41.980469 C 220.65625 45.710938 218.722656 46.710938 217.328125 46.710938 C 215.960938 46.710938 213.628906 46.054688 212.800781 44.175781 C 213.710938 44.316406 214.539062 43.804688 214.539062 42.777344 C 214.539062 41.953125 213.941406 41.382812 213.144531 41.382812 C 212.460938 41.382812 211.71875 41.78125 211.71875 42.863281 C 211.71875 45.398438 214.253906 47.476562 217.414062 47.476562 C 220.800781 47.476562 223.304688 44.886719 223.304688 42.007812 C 223.304688 39.390625 221.199219 37.339844 218.464844 36.855469 C 220.941406 36.140625 222.535156 34.0625 222.535156 31.839844 C 222.535156 29.589844 220.203125 27.9375 217.441406 27.9375 C 214.59375 27.9375 212.488281 29.675781 212.488281 31.753906 C 212.488281 32.894531 213.371094 33.121094 213.796875 33.121094 C 214.394531 33.121094 215.078125 32.695312 215.078125 31.839844 C 215.078125 30.929688 214.394531 30.53125 213.769531 30.53125 C 213.597656 30.53125 213.542969 30.53125 213.457031 30.558594 C 214.539062 28.621094 217.214844 28.621094 217.355469 28.621094 C 218.296875 28.621094 220.144531 29.050781 220.144531 31.839844 C 220.144531 32.382812 220.058594 33.976562 219.234375 35.203125 C 218.382812 36.457031 217.414062 36.539062 216.644531 36.570312 Z M 215.789062 36.65625 " fill-opacity="1" fill-rule="nonzero"/><path fill="#a8180f" d="M 242.171875 40.300781 L 250.027344 40.300781 C 250.425781 40.300781 250.941406 40.300781 250.941406 39.789062 C 250.941406 39.246094 250.457031 39.246094 250.027344 39.246094 L 242.171875 39.246094 L 242.171875 31.386719 C 242.171875 30.984375 242.171875 30.472656 241.660156 30.472656 C 241.121094 30.472656 241.121094 30.957031 241.121094 31.386719 L 241.121094 39.246094 L 233.261719 39.246094 C 232.863281 39.246094 232.351562 39.246094 232.351562 39.757812 C 232.351562 40.300781 232.835938 40.300781 233.261719 40.300781 L 241.121094 40.300781 L 241.121094 48.160156 C 241.121094 48.5625 241.121094 49.074219 241.632812 49.074219 C 242.171875 49.074219 242.171875 48.589844 242.171875 48.160156 Z M 242.171875 40.300781 " fill-opacity="1" fill-rule="nonzero"/><path fill="#a8180f" d="M 264.054688 36.65625 C 263.570312 36.683594 263.457031 36.710938 263.457031 36.96875 C 263.457031 37.253906 263.597656 37.253906 264.113281 37.253906 L 265.421875 37.253906 C 267.839844 37.253906 268.921875 39.246094 268.921875 41.980469 C 268.921875 45.710938 266.988281 46.710938 265.59375 46.710938 C 264.226562 46.710938 261.890625 46.054688 261.066406 44.175781 C 261.976562 44.316406 262.800781 43.804688 262.800781 42.777344 C 262.800781 41.953125 262.203125 41.382812 261.40625 41.382812 C 260.722656 41.382812 259.984375 41.78125 259.984375 42.863281 C 259.984375 45.398438 262.519531 47.476562 265.675781 47.476562 C 269.066406 47.476562 271.570312 44.886719 271.570312 42.007812 C 271.570312 39.390625 269.464844 37.339844 266.730469 36.855469 C 269.207031 36.140625 270.800781 34.0625 270.800781 31.839844 C 270.800781 29.589844 268.46875 27.9375 265.707031 27.9375 C 262.859375 27.9375 260.753906 29.675781 260.753906 31.753906 C 260.753906 32.894531 261.636719 33.121094 262.0625 33.121094 C 262.660156 33.121094 263.34375 32.695312 263.34375 31.839844 C 263.34375 30.929688 262.660156 30.53125 262.035156 30.53125 C 261.863281 30.53125 261.804688 30.53125 261.722656 30.558594 C 262.800781 28.621094 265.476562 28.621094 265.621094 28.621094 C 266.558594 28.621094 268.410156 29.050781 268.410156 31.839844 C 268.410156 32.382812 268.324219 33.976562 267.5 35.203125 C 266.644531 36.457031 265.675781 36.539062 264.910156 36.570312 Z M 264.054688 36.65625 " fill-opacity="1" fill-rule="nonzero"/></svg>