<svg xmlns="http://www.w3.org/2000/svg" xmlns:xlink="http://www.w3.org/1999/xlink" width="500" zoomAndPan="magnify" viewBox="0 0 375 74.999997" height="100" preserveAspectRatio="xMidYMid meet" version="1.0"><defs><g/><clipPath id="edb67b782d"><path d="M 235 20.390625 L 245 20.390625 L 245 36 L 235 36 Z M 235 20.390625 " clip-rule="nonzero"/></clipPath><clipPath id="e851663d20"><path d="M 287 20.390625 L 297 20.390625 L 297 36 L 287 36 Z M 287 20.390625 " clip-rule="nonzero"/></clipPath><clipPath id="735ffbada2"><path d="M 339 20.390625 L 349 20.390625 L 349 36 L 339 36 Z M 339 20.390625 " clip-rule="nonzero"/></clipPath><clipPath id="bf61817bbd"><path d="M 286 52 L 297 52 L 297 67.640625 L 286 67.640625 Z M 286 52 " clip-rule="nonzero"/></clipPath></defs><g clip-path="url(#edb67b782d)"><path fill="#000000" d="M 244.679688 31.695312 L 244.179688 31.695312 C 244.109375 32.082031 243.929688 33.332031 243.703125 33.695312 C 243.542969 33.902344 242.253906 33.902344 241.574219 33.902344 L 237.378906 33.902344 C 237.992188 33.378906 239.375 31.921875 239.964844 31.375 C 243.410156 28.191406 244.679688 27.007812 244.679688 24.757812 C 244.679688 22.140625 242.617188 20.390625 239.984375 20.390625 C 237.355469 20.390625 235.816406 22.640625 235.816406 24.597656 C 235.816406 25.757812 236.8125 25.757812 236.882812 25.757812 C 237.355469 25.757812 237.945312 25.417969 237.945312 24.6875 C 237.945312 24.050781 237.515625 23.621094 236.882812 23.621094 C 236.675781 23.621094 236.632812 23.621094 236.5625 23.640625 C 236.996094 22.09375 238.21875 21.050781 239.691406 21.050781 C 241.617188 21.050781 242.796875 22.664062 242.796875 24.757812 C 242.796875 26.691406 241.6875 28.375 240.394531 29.828125 L 235.816406 34.96875 L 235.816406 35.515625 L 244.089844 35.515625 Z M 244.679688 31.695312 " fill-opacity="1" fill-rule="nonzero"/></g><path fill="#000000" d="M 256.542969 26.234375 C 255.820312 26.371094 255.546875 26.917969 255.546875 27.351562 C 255.546875 27.894531 255.976562 28.078125 256.296875 28.078125 C 256.976562 28.078125 257.449219 27.484375 257.449219 26.871094 C 257.449219 25.917969 256.363281 25.484375 255.410156 25.484375 C 254.027344 25.484375 253.257812 26.847656 253.054688 27.28125 C 252.53125 25.574219 251.128906 25.484375 250.71875 25.484375 C 248.40625 25.484375 247.183594 28.464844 247.183594 28.964844 C 247.183594 29.054688 247.273438 29.167969 247.433594 29.167969 C 247.613281 29.167969 247.660156 29.03125 247.707031 28.941406 C 248.476562 26.417969 249.996094 25.941406 250.652344 25.941406 C 251.671875 25.941406 251.875 26.894531 251.875 27.441406 C 251.875 27.941406 251.738281 28.464844 251.46875 29.554688 L 250.695312 32.671875 C 250.355469 34.039062 249.699219 35.289062 248.5 35.289062 C 248.386719 35.289062 247.820312 35.289062 247.34375 34.992188 C 248.160156 34.832031 248.339844 34.152344 248.339844 33.878906 C 248.339844 33.421875 248 33.148438 247.570312 33.148438 C 247.023438 33.148438 246.4375 33.628906 246.4375 34.355469 C 246.4375 35.3125 247.5 35.742188 248.476562 35.742188 C 249.5625 35.742188 250.335938 34.878906 250.808594 33.945312 C 251.171875 35.289062 252.304688 35.742188 253.144531 35.742188 C 255.457031 35.742188 256.679688 32.761719 256.679688 32.261719 C 256.679688 32.148438 256.589844 32.058594 256.453125 32.058594 C 256.25 32.058594 256.226562 32.171875 256.160156 32.355469 C 255.546875 34.355469 254.234375 35.289062 253.210938 35.289062 C 252.417969 35.289062 251.988281 34.695312 251.988281 33.765625 C 251.988281 33.265625 252.078125 32.898438 252.441406 31.398438 L 253.234375 28.304688 C 253.574219 26.941406 254.347656 25.941406 255.386719 25.941406 C 255.433594 25.941406 256.070312 25.941406 256.542969 26.234375 Z M 256.542969 26.234375 " fill-opacity="1" fill-rule="nonzero"/><path fill="#000000" d="M 278.386719 30.285156 C 278.769531 30.285156 279.179688 30.285156 279.179688 29.828125 C 279.179688 29.375 278.769531 29.375 278.386719 29.375 L 266.125 29.375 C 265.738281 29.375 265.332031 29.375 265.332031 29.828125 C 265.332031 30.285156 265.738281 30.285156 266.125 30.285156 Z M 278.386719 30.285156 " fill-opacity="1" fill-rule="nonzero"/><g clip-path="url(#e851663d20)"><path fill="#000000" d="M 290.285156 27.351562 C 289.898438 27.371094 289.808594 27.394531 289.808594 27.601562 C 289.808594 27.828125 289.921875 27.828125 290.328125 27.828125 L 291.371094 27.828125 C 293.296875 27.828125 294.160156 29.417969 294.160156 31.601562 C 294.160156 34.582031 292.617188 35.378906 291.507812 35.378906 C 290.417969 35.378906 288.5625 34.855469 287.902344 33.355469 C 288.628906 33.46875 289.285156 33.058594 289.285156 32.238281 C 289.285156 31.582031 288.8125 31.125 288.175781 31.125 C 287.632812 31.125 287.042969 31.445312 287.042969 32.308594 C 287.042969 34.332031 289.058594 35.992188 291.574219 35.992188 C 294.273438 35.992188 296.265625 33.921875 296.265625 31.625 C 296.265625 29.535156 294.589844 27.894531 292.414062 27.507812 C 294.386719 26.941406 295.65625 25.28125 295.65625 23.503906 C 295.65625 21.707031 293.796875 20.390625 291.597656 20.390625 C 289.332031 20.390625 287.65625 21.777344 287.65625 23.4375 C 287.65625 24.347656 288.355469 24.53125 288.699219 24.53125 C 289.171875 24.53125 289.71875 24.1875 289.71875 23.503906 C 289.71875 22.777344 289.171875 22.460938 288.675781 22.460938 C 288.539062 22.460938 288.492188 22.460938 288.425781 22.480469 C 289.285156 20.933594 291.417969 20.933594 291.53125 20.933594 C 292.277344 20.933594 293.75 21.277344 293.75 23.503906 C 293.75 23.9375 293.683594 25.210938 293.027344 26.191406 C 292.347656 27.191406 291.574219 27.257812 290.964844 27.28125 Z M 290.285156 27.351562 " fill-opacity="1" fill-rule="nonzero"/></g><path fill="#000000" d="M 303.171875 38.0625 C 302.558594 38.925781 301.675781 39.699219 300.5625 39.699219 C 300.292969 39.699219 299.203125 39.65625 298.863281 38.609375 C 298.933594 38.632812 299.046875 38.632812 299.089844 38.632812 C 299.769531 38.632812 300.222656 38.039062 300.222656 37.515625 C 300.222656 36.992188 299.792969 36.8125 299.453125 36.8125 C 299.089844 36.8125 298.296875 37.085938 298.296875 38.199219 C 298.296875 39.359375 299.273438 40.15625 300.5625 40.15625 C 302.832031 40.15625 305.121094 38.0625 305.753906 35.539062 L 307.976562 26.667969 C 307.996094 26.554688 308.042969 26.417969 308.042969 26.28125 C 308.042969 25.941406 307.769531 25.710938 307.429688 25.710938 C 307.226562 25.710938 306.75 25.804688 306.570312 26.484375 L 304.894531 33.171875 C 304.78125 33.582031 304.78125 33.628906 304.597656 33.878906 C 304.144531 34.515625 303.398438 35.289062 302.308594 35.289062 C 301.039062 35.289062 300.925781 34.039062 300.925781 33.421875 C 300.925781 32.125 301.539062 30.375 302.152344 28.738281 C 302.398438 28.078125 302.535156 27.757812 302.535156 27.304688 C 302.535156 26.347656 301.855469 25.484375 300.746094 25.484375 C 298.660156 25.484375 297.820312 28.78125 297.820312 28.964844 C 297.820312 29.054688 297.914062 29.167969 298.070312 29.167969 C 298.273438 29.167969 298.296875 29.078125 298.386719 28.761719 C 298.933594 26.847656 299.792969 25.941406 300.675781 25.941406 C 300.882812 25.941406 301.265625 25.941406 301.265625 26.691406 C 301.265625 27.28125 301.015625 27.941406 300.675781 28.804688 C 299.566406 31.785156 299.566406 32.535156 299.566406 33.082031 C 299.566406 35.242188 301.109375 35.742188 302.242188 35.742188 C 302.898438 35.742188 303.714844 35.539062 304.507812 34.695312 L 304.53125 34.71875 C 304.191406 36.0625 303.964844 36.949219 303.171875 38.0625 Z M 303.171875 38.0625 " fill-opacity="1" fill-rule="nonzero"/><path fill="#000000" d="M 330.4375 28.144531 C 330.757812 28.144531 331.164062 28.144531 331.164062 27.738281 C 331.164062 27.304688 330.777344 27.304688 330.4375 27.304688 L 317.089844 27.304688 C 316.773438 27.304688 316.363281 27.304688 316.363281 27.714844 C 316.363281 28.144531 316.75 28.144531 317.089844 28.144531 Z M 330.4375 32.375 C 330.757812 32.375 331.164062 32.375 331.164062 31.96875 C 331.164062 31.535156 330.777344 31.535156 330.4375 31.535156 L 317.089844 31.535156 C 316.773438 31.535156 316.363281 31.535156 316.363281 31.945312 C 316.363281 32.375 316.75 32.375 317.089844 32.375 Z M 330.4375 32.375 " fill-opacity="1" fill-rule="nonzero"/><g clip-path="url(#735ffbada2)"><path fill="#000000" d="M 341.597656 22.480469 C 342.570312 22.800781 343.363281 22.824219 343.613281 22.824219 C 346.175781 22.824219 347.804688 20.933594 347.804688 20.617188 C 347.804688 20.527344 347.761719 20.414062 347.625 20.414062 C 347.578125 20.414062 347.535156 20.414062 347.332031 20.503906 C 346.0625 21.050781 344.972656 21.117188 344.382812 21.117188 C 342.886719 21.117188 341.824219 20.664062 341.390625 20.480469 C 341.234375 20.414062 341.1875 20.414062 341.164062 20.414062 C 340.984375 20.414062 340.984375 20.550781 340.984375 20.914062 L 340.984375 27.667969 C 340.984375 28.078125 340.984375 28.214844 341.257812 28.214844 C 341.371094 28.214844 341.390625 28.191406 341.617188 27.917969 C 342.253906 26.984375 343.320312 26.441406 344.453125 26.441406 C 345.652344 26.441406 346.242188 27.554688 346.425781 27.941406 C 346.808594 28.828125 346.832031 29.941406 346.832031 30.808594 C 346.832031 31.671875 346.832031 32.96875 346.195312 33.992188 C 345.699219 34.808594 344.816406 35.378906 343.816406 35.378906 C 342.320312 35.378906 340.847656 34.355469 340.441406 32.695312 C 340.554688 32.742188 340.691406 32.761719 340.804688 32.761719 C 341.1875 32.761719 341.800781 32.535156 341.800781 31.761719 C 341.800781 31.125 341.371094 30.761719 340.804688 30.761719 C 340.394531 30.761719 339.804688 30.964844 339.804688 31.851562 C 339.804688 33.785156 341.347656 35.992188 343.863281 35.992188 C 346.425781 35.992188 348.667969 33.832031 348.667969 30.945312 C 348.667969 28.238281 346.855469 25.984375 344.476562 25.984375 C 343.183594 25.984375 342.1875 26.554688 341.597656 27.191406 Z M 341.597656 22.480469 " fill-opacity="1" fill-rule="nonzero"/></g><path fill="#000000" d="M 211.570312 55.722656 C 211.570312 53.832031 211.457031 51.992188 210.640625 50.261719 C 209.710938 48.375 208.082031 47.875 206.96875 47.875 C 205.65625 47.875 204.046875 48.535156 203.207031 50.421875 C 202.574219 51.855469 202.347656 53.265625 202.347656 55.722656 C 202.347656 57.929688 202.503906 59.589844 203.320312 61.203125 C 204.203125 62.933594 205.769531 63.476562 206.949219 63.476562 C 208.917969 63.476562 210.050781 62.296875 210.710938 60.976562 C 211.527344 59.269531 211.570312 57.042969 211.570312 55.722656 Z M 206.949219 63.023438 C 206.222656 63.023438 204.75 62.613281 204.316406 60.132812 C 204.070312 58.769531 204.070312 57.042969 204.070312 55.449219 C 204.070312 53.582031 204.070312 51.902344 204.429688 50.558594 C 204.816406 49.035156 205.972656 48.328125 206.949219 48.328125 C 207.808594 48.328125 209.125 48.851562 209.554688 50.808594 C 209.847656 52.105469 209.847656 53.902344 209.847656 55.449219 C 209.847656 56.972656 209.847656 58.703125 209.597656 60.089844 C 209.167969 62.589844 207.742188 63.023438 206.949219 63.023438 Z M 206.949219 63.023438 " fill-opacity="1" fill-rule="nonzero"/><path fill="#000000" d="M 216.683594 61.910156 C 216.683594 61.25 216.140625 60.792969 215.59375 60.792969 C 214.9375 60.792969 214.484375 61.339844 214.484375 61.886719 C 214.484375 62.546875 215.027344 63 215.574219 63 C 216.230469 63 216.683594 62.453125 216.683594 61.910156 Z M 216.683594 61.910156 " fill-opacity="1" fill-rule="nonzero"/><path fill="#000000" d="M 225.207031 48.421875 C 225.207031 47.898438 225.207031 47.875 224.753906 47.875 C 224.207031 48.488281 223.074219 49.332031 220.742188 49.332031 L 220.742188 49.988281 C 221.261719 49.988281 222.394531 49.988281 223.640625 49.398438 L 223.640625 61.25 C 223.640625 62.066406 223.574219 62.339844 221.578125 62.339844 L 220.875 62.339844 L 220.875 63 C 221.488281 62.953125 223.6875 62.953125 224.433594 62.953125 C 225.183594 62.953125 227.359375 62.953125 227.972656 63 L 227.972656 62.339844 L 227.269531 62.339844 C 225.273438 62.339844 225.207031 62.066406 225.207031 61.25 Z M 225.207031 48.421875 " fill-opacity="1" fill-rule="nonzero"/><path fill="#000000" d="M 243.855469 57.746094 L 250.109375 57.746094 C 250.425781 57.746094 250.835938 57.746094 250.835938 57.335938 C 250.835938 56.90625 250.449219 56.90625 250.109375 56.90625 L 243.855469 56.90625 L 243.855469 50.625 C 243.855469 50.308594 243.855469 49.898438 243.445312 49.898438 C 243.015625 49.898438 243.015625 50.285156 243.015625 50.625 L 243.015625 56.90625 L 236.761719 56.90625 C 236.445312 56.90625 236.035156 56.90625 236.035156 57.3125 C 236.035156 57.746094 236.421875 57.746094 236.761719 57.746094 L 243.015625 57.746094 L 243.015625 64.023438 C 243.015625 64.34375 243.015625 64.75 243.425781 64.75 C 243.855469 64.75 243.855469 64.363281 243.855469 64.023438 Z M 243.855469 57.746094 " fill-opacity="1" fill-rule="nonzero"/><path fill="#000000" d="M 267.261719 55.722656 C 267.261719 53.832031 267.148438 51.992188 266.332031 50.261719 C 265.402344 48.375 263.769531 47.875 262.660156 47.875 C 261.347656 47.875 259.738281 48.535156 258.898438 50.421875 C 258.265625 51.855469 258.039062 53.265625 258.039062 55.722656 C 258.039062 57.929688 258.195312 59.589844 259.011719 61.203125 C 259.894531 62.933594 261.460938 63.476562 262.636719 63.476562 C 264.609375 63.476562 265.742188 62.296875 266.402344 60.976562 C 267.214844 59.269531 267.261719 57.042969 267.261719 55.722656 Z M 262.636719 63.023438 C 261.914062 63.023438 260.441406 62.613281 260.007812 60.132812 C 259.757812 58.769531 259.757812 57.042969 259.757812 55.449219 C 259.757812 53.582031 259.757812 51.902344 260.121094 50.558594 C 260.507812 49.035156 261.664062 48.328125 262.636719 48.328125 C 263.5 48.328125 264.8125 48.851562 265.246094 50.808594 C 265.539062 52.105469 265.539062 53.902344 265.539062 55.449219 C 265.539062 56.972656 265.539062 58.703125 265.289062 60.089844 C 264.859375 62.589844 263.429688 63.023438 262.636719 63.023438 Z M 262.636719 63.023438 " fill-opacity="1" fill-rule="nonzero"/><path fill="#000000" d="M 272.375 61.910156 C 272.375 61.25 271.832031 60.792969 271.285156 60.792969 C 270.628906 60.792969 270.175781 61.339844 270.175781 61.886719 C 270.175781 62.546875 270.71875 63 271.265625 63 C 271.921875 63 272.375 62.453125 272.375 61.910156 Z M 272.375 61.910156 " fill-opacity="1" fill-rule="nonzero"/><path fill="#000000" d="M 277.269531 49.96875 C 278.246094 50.285156 279.039062 50.308594 279.289062 50.308594 C 281.847656 50.308594 283.480469 48.421875 283.480469 48.101562 C 283.480469 48.011719 283.433594 47.898438 283.300781 47.898438 C 283.253906 47.898438 283.207031 47.898438 283.003906 47.988281 C 281.734375 48.535156 280.648438 48.601562 280.058594 48.601562 C 278.5625 48.601562 277.496094 48.148438 277.066406 47.964844 C 276.90625 47.898438 276.863281 47.898438 276.839844 47.898438 C 276.660156 47.898438 276.660156 48.035156 276.660156 48.398438 L 276.660156 55.152344 C 276.660156 55.5625 276.660156 55.699219 276.929688 55.699219 C 277.042969 55.699219 277.066406 55.675781 277.292969 55.402344 C 277.925781 54.472656 278.992188 53.925781 280.125 53.925781 C 281.328125 53.925781 281.917969 55.039062 282.097656 55.425781 C 282.484375 56.3125 282.503906 57.425781 282.503906 58.292969 C 282.503906 59.15625 282.503906 60.453125 281.871094 61.476562 C 281.371094 62.296875 280.488281 62.863281 279.492188 62.863281 C 277.996094 62.863281 276.523438 61.839844 276.113281 60.179688 C 276.226562 60.226562 276.363281 60.25 276.476562 60.25 C 276.863281 60.25 277.472656 60.019531 277.472656 59.246094 C 277.472656 58.609375 277.042969 58.246094 276.476562 58.246094 C 276.070312 58.246094 275.480469 58.453125 275.480469 59.339844 C 275.480469 61.273438 277.019531 63.476562 279.535156 63.476562 C 282.097656 63.476562 284.339844 61.316406 284.339844 58.429688 C 284.339844 55.722656 282.527344 53.46875 280.148438 53.46875 C 278.855469 53.46875 277.859375 54.039062 277.269531 54.675781 Z M 277.269531 49.96875 " fill-opacity="1" fill-rule="nonzero"/><g clip-path="url(#bf61817bbd)"><path fill="#000000" d="M 291.425781 65.546875 C 290.8125 66.414062 289.929688 67.1875 288.820312 67.1875 C 288.546875 67.1875 287.460938 67.140625 287.121094 66.09375 C 287.1875 66.117188 287.300781 66.117188 287.347656 66.117188 C 288.027344 66.117188 288.480469 65.523438 288.480469 65.003906 C 288.480469 64.480469 288.050781 64.296875 287.710938 64.296875 C 287.347656 64.296875 286.554688 64.570312 286.554688 65.683594 C 286.554688 66.84375 287.527344 67.640625 288.820312 67.640625 C 291.085938 67.640625 293.375 65.546875 294.007812 63.023438 L 296.230469 54.152344 C 296.253906 54.039062 296.300781 53.902344 296.300781 53.765625 C 296.300781 53.425781 296.027344 53.195312 295.6875 53.195312 C 295.484375 53.195312 295.007812 53.289062 294.824219 53.96875 L 293.148438 60.65625 C 293.035156 61.066406 293.035156 61.113281 292.855469 61.363281 C 292.402344 62 291.652344 62.773438 290.566406 62.773438 C 289.296875 62.773438 289.183594 61.523438 289.183594 60.90625 C 289.183594 59.613281 289.792969 57.859375 290.40625 56.222656 C 290.65625 55.5625 290.792969 55.242188 290.792969 54.789062 C 290.792969 53.832031 290.113281 52.96875 289 52.96875 C 286.914062 52.96875 286.078125 56.269531 286.078125 56.449219 C 286.078125 56.539062 286.167969 56.65625 286.328125 56.65625 C 286.53125 56.65625 286.554688 56.5625 286.644531 56.246094 C 287.1875 54.335938 288.050781 53.425781 288.933594 53.425781 C 289.136719 53.425781 289.523438 53.425781 289.523438 54.175781 C 289.523438 54.765625 289.273438 55.425781 288.933594 56.289062 C 287.824219 59.269531 287.824219 60.019531 287.824219 60.566406 C 287.824219 62.726562 289.363281 63.226562 290.496094 63.226562 C 291.152344 63.226562 291.96875 63.023438 292.761719 62.179688 L 292.785156 62.203125 C 292.445312 63.546875 292.21875 64.433594 291.425781 65.546875 Z M 291.425781 65.546875 " fill-opacity="1" fill-rule="nonzero"/></g><path fill="#000000" d="M 318.691406 55.628906 C 319.007812 55.628906 319.417969 55.628906 319.417969 55.222656 C 319.417969 54.789062 319.03125 54.789062 318.691406 54.789062 L 305.34375 54.789062 C 305.027344 54.789062 304.617188 54.789062 304.617188 55.199219 C 304.617188 55.628906 305.003906 55.628906 305.34375 55.628906 Z M 318.691406 59.863281 C 319.007812 59.863281 319.417969 59.863281 319.417969 59.453125 C 319.417969 59.019531 319.03125 59.019531 318.691406 59.019531 L 305.34375 59.019531 C 305.027344 59.019531 304.617188 59.019531 304.617188 59.429688 C 304.617188 59.863281 305.003906 59.863281 305.34375 59.863281 Z M 318.691406 59.863281 " fill-opacity="1" fill-rule="nonzero"/><path fill="#000000" d="M 337.105469 55.722656 C 337.105469 53.832031 336.992188 51.992188 336.175781 50.261719 C 335.246094 48.375 333.613281 47.875 332.503906 47.875 C 331.1875 47.875 329.578125 48.535156 328.742188 50.421875 C 328.105469 51.855469 327.878906 53.265625 327.878906 55.722656 C 327.878906 57.929688 328.039062 59.589844 328.855469 61.203125 C 329.738281 62.933594 331.300781 63.476562 332.480469 63.476562 C 334.453125 63.476562 335.585938 62.296875 336.242188 60.976562 C 337.058594 59.269531 337.105469 57.042969 337.105469 55.722656 Z M 332.480469 63.023438 C 331.753906 63.023438 330.28125 62.613281 329.851562 60.132812 C 329.601562 58.769531 329.601562 57.042969 329.601562 55.449219 C 329.601562 53.582031 329.601562 51.902344 329.964844 50.558594 C 330.351562 49.035156 331.507812 48.328125 332.480469 48.328125 C 333.34375 48.328125 334.65625 48.851562 335.085938 50.808594 C 335.382812 52.105469 335.382812 53.902344 335.382812 55.449219 C 335.382812 56.972656 335.382812 58.703125 335.132812 60.089844 C 334.703125 62.589844 333.273438 63.023438 332.480469 63.023438 Z M 332.480469 63.023438 " fill-opacity="1" fill-rule="nonzero"/><path fill="#000000" d="M 342.21875 61.910156 C 342.21875 61.25 341.671875 60.792969 341.128906 60.792969 C 340.472656 60.792969 340.019531 61.339844 340.019531 61.886719 C 340.019531 62.546875 340.5625 63 341.105469 63 C 341.765625 63 342.21875 62.453125 342.21875 61.910156 Z M 342.21875 61.910156 " fill-opacity="1" fill-rule="nonzero"/><path fill="#000000" d="M 348.378906 54.835938 C 347.996094 54.859375 347.90625 54.878906 347.90625 55.085938 C 347.90625 55.3125 348.019531 55.3125 348.425781 55.3125 L 349.46875 55.3125 C 351.394531 55.3125 352.257812 56.90625 352.257812 59.089844 C 352.257812 62.066406 350.714844 62.863281 349.605469 62.863281 C 348.515625 62.863281 346.65625 62.339844 346 60.839844 C 346.726562 60.953125 347.382812 60.542969 347.382812 59.726562 C 347.382812 59.066406 346.90625 58.609375 346.273438 58.609375 C 345.730469 58.609375 345.140625 58.929688 345.140625 59.792969 C 345.140625 61.816406 347.15625 63.476562 349.671875 63.476562 C 352.371094 63.476562 354.363281 61.410156 354.363281 59.109375 C 354.363281 57.019531 352.6875 55.378906 350.511719 54.992188 C 352.484375 54.425781 353.75 52.765625 353.75 50.992188 C 353.75 49.195312 351.894531 47.875 349.695312 47.875 C 347.429688 47.875 345.75 49.261719 345.75 50.921875 C 345.75 51.832031 346.453125 52.015625 346.792969 52.015625 C 347.269531 52.015625 347.8125 51.671875 347.8125 50.992188 C 347.8125 50.261719 347.269531 49.945312 346.769531 49.945312 C 346.636719 49.945312 346.589844 49.945312 346.523438 49.96875 C 347.382812 48.421875 349.511719 48.421875 349.628906 48.421875 C 350.375 48.421875 351.847656 48.761719 351.847656 50.992188 C 351.847656 51.421875 351.78125 52.695312 351.121094 53.675781 C 350.441406 54.675781 349.671875 54.742188 349.058594 54.765625 Z M 348.378906 54.835938 " fill-opacity="1" fill-rule="nonzero"/><path fill="#000000" d="M 366.050781 53.71875 C 365.324219 53.855469 365.050781 54.402344 365.050781 54.835938 C 365.050781 55.378906 365.484375 55.5625 365.800781 55.5625 C 366.480469 55.5625 366.957031 54.972656 366.957031 54.355469 C 366.957031 53.402344 365.867188 52.96875 364.914062 52.96875 C 363.535156 52.96875 362.761719 54.335938 362.558594 54.765625 C 362.039062 53.058594 360.632812 52.96875 360.222656 52.96875 C 357.914062 52.96875 356.6875 55.949219 356.6875 56.449219 C 356.6875 56.539062 356.78125 56.65625 356.9375 56.65625 C 357.121094 56.65625 357.164062 56.519531 357.210938 56.425781 C 357.980469 53.902344 359.5 53.425781 360.15625 53.425781 C 361.175781 53.425781 361.378906 54.378906 361.378906 54.925781 C 361.378906 55.425781 361.246094 55.949219 360.972656 57.042969 L 360.203125 60.15625 C 359.863281 61.523438 359.203125 62.773438 358.003906 62.773438 C 357.890625 62.773438 357.324219 62.773438 356.847656 62.476562 C 357.664062 62.316406 357.84375 61.636719 357.84375 61.363281 C 357.84375 60.90625 357.503906 60.636719 357.074219 60.636719 C 356.53125 60.636719 355.941406 61.113281 355.941406 61.839844 C 355.941406 62.796875 357.007812 63.226562 357.980469 63.226562 C 359.070312 63.226562 359.839844 62.363281 360.316406 61.429688 C 360.675781 62.773438 361.8125 63.226562 362.648438 63.226562 C 364.960938 63.226562 366.183594 60.25 366.183594 59.746094 C 366.183594 59.632812 366.09375 59.542969 365.957031 59.542969 C 365.753906 59.542969 365.730469 59.65625 365.664062 59.839844 C 365.050781 61.839844 363.738281 62.773438 362.71875 62.773438 C 361.925781 62.773438 361.492188 62.179688 361.492188 61.25 C 361.492188 60.75 361.585938 60.382812 361.945312 58.882812 L 362.738281 55.789062 C 363.082031 54.425781 363.851562 53.425781 364.894531 53.425781 C 364.9375 53.425781 365.574219 53.425781 366.050781 53.71875 Z M 366.050781 53.71875 " fill-opacity="1" fill-rule="nonzero"/><g fill="#17191a" fill-opacity="1"><g transform="translate(0.0000075, 16.200005)"><g><path d="M 6.40625 0 L 4.765625 0 L 4.765625 -10.84375 L 1.5 -9.640625 L 1.5 -11.109375 L 6.15625 -12.859375 L 6.40625 -12.859375 Z M 6.40625 0 "/></g></g></g><g fill="#17191a" fill-opacity="1"><g transform="translate(10.100848, 16.200005)"><g><path d="M 4.984375 -5.109375 C 4.984375 -3.796875 4.8125 -2.539062 4.46875 -1.34375 C 4.125 -0.144531 3.597656 0.957031 2.890625 1.96875 C 2.191406 2.976562 1.453125 3.695312 0.671875 4.125 L 0.328125 3.140625 C 1.234375 2.441406 1.957031 1.367188 2.5 -0.078125 C 3.050781 -1.535156 3.332031 -3.15625 3.34375 -4.9375 L 3.34375 -5.21875 C 3.34375 -6.445312 3.210938 -7.585938 2.953125 -8.640625 C 2.703125 -9.703125 2.347656 -10.648438 1.890625 -11.484375 C 1.429688 -12.328125 0.910156 -12.984375 0.328125 -13.453125 L 0.671875 -14.4375 C 1.453125 -14.007812 2.191406 -13.296875 2.890625 -12.296875 C 3.585938 -11.296875 4.109375 -10.191406 4.453125 -8.984375 C 4.804688 -7.773438 4.984375 -6.484375 4.984375 -5.109375 Z M 4.984375 -5.109375 "/></g></g></g><g fill="#17191a" fill-opacity="1"><g transform="translate(16.354586, 16.200005)"><g/></g></g><g fill="#17191a" fill-opacity="1"><g transform="translate(20.807745, 16.200005)"><g><path d="M 4.734375 -5.953125 L 3.171875 -4.328125 L 3.171875 0 L 1.484375 0 L 1.484375 -12.796875 L 3.171875 -12.796875 L 3.171875 -6.46875 L 8.859375 -12.796875 L 10.90625 -12.796875 L 5.859375 -7.140625 L 11.296875 0 L 9.265625 0 Z M 4.734375 -5.953125 "/></g></g></g><g fill="#17191a" fill-opacity="1"><g transform="translate(32.085553, 16.200005)"><g><path d="M 0.796875 -4.84375 C 0.796875 -5.769531 0.976562 -6.601562 1.34375 -7.34375 C 1.71875 -8.09375 2.226562 -8.671875 2.875 -9.078125 C 3.53125 -9.484375 4.273438 -9.6875 5.109375 -9.6875 C 6.410156 -9.6875 7.457031 -9.238281 8.25 -8.34375 C 9.050781 -7.445312 9.453125 -6.253906 9.453125 -4.765625 L 9.453125 -4.65625 C 9.453125 -3.726562 9.273438 -2.894531 8.921875 -2.15625 C 8.566406 -1.425781 8.0625 -0.851562 7.40625 -0.4375 C 6.75 -0.03125 5.992188 0.171875 5.140625 0.171875 C 3.847656 0.171875 2.800781 -0.273438 2 -1.171875 C 1.195312 -2.066406 0.796875 -3.253906 0.796875 -4.734375 Z M 2.4375 -4.65625 C 2.4375 -3.59375 2.679688 -2.742188 3.171875 -2.109375 C 3.660156 -1.472656 4.316406 -1.15625 5.140625 -1.15625 C 5.960938 -1.15625 6.613281 -1.476562 7.09375 -2.125 C 7.582031 -2.769531 7.828125 -3.675781 7.828125 -4.84375 C 7.828125 -5.882812 7.578125 -6.726562 7.078125 -7.375 C 6.585938 -8.019531 5.929688 -8.34375 5.109375 -8.34375 C 4.304688 -8.34375 3.660156 -8.023438 3.171875 -7.390625 C 2.679688 -6.753906 2.4375 -5.84375 2.4375 -4.65625 Z M 2.4375 -4.65625 "/></g></g></g><g fill="#17191a" fill-opacity="1"><g transform="translate(42.344494, 16.200005)"><g><path d="M 3 0 L 1.375 0 L 1.375 -13.5 L 3 -13.5 Z M 3 0 "/></g></g></g><g fill="#17191a" fill-opacity="1"><g transform="translate(46.70982, 16.200005)"><g><path d="M 3 0 L 1.375 0 L 1.375 -9.515625 L 3 -9.515625 Z M 1.234375 -12.03125 C 1.234375 -12.289062 1.3125 -12.507812 1.46875 -12.6875 C 1.632812 -12.875 1.875 -12.96875 2.1875 -12.96875 C 2.507812 -12.96875 2.753906 -12.875 2.921875 -12.6875 C 3.085938 -12.507812 3.171875 -12.289062 3.171875 -12.03125 C 3.171875 -11.769531 3.085938 -11.550781 2.921875 -11.375 C 2.753906 -11.195312 2.507812 -11.109375 2.1875 -11.109375 C 1.875 -11.109375 1.632812 -11.195312 1.46875 -11.375 C 1.3125 -11.550781 1.234375 -11.769531 1.234375 -12.03125 Z M 1.234375 -12.03125 "/></g></g></g><g fill="#17191a" fill-opacity="1"><g transform="translate(51.075145, 16.200005)"><g><path d="M 3.890625 -4.40625 L 2.859375 -3.34375 L 2.859375 0 L 1.234375 0 L 1.234375 -13.5 L 2.859375 -13.5 L 2.859375 -5.328125 L 3.734375 -6.375 L 6.703125 -9.515625 L 8.671875 -9.515625 L 4.96875 -5.53125 L 9.109375 0 L 7.203125 0 Z M 3.890625 -4.40625 "/></g></g></g><g fill="#17191a" fill-opacity="1"><g transform="translate(60.192252, 16.200005)"><g><path d="M 0.796875 -4.84375 C 0.796875 -5.769531 0.976562 -6.601562 1.34375 -7.34375 C 1.71875 -8.09375 2.226562 -8.671875 2.875 -9.078125 C 3.53125 -9.484375 4.273438 -9.6875 5.109375 -9.6875 C 6.410156 -9.6875 7.457031 -9.238281 8.25 -8.34375 C 9.050781 -7.445312 9.453125 -6.253906 9.453125 -4.765625 L 9.453125 -4.65625 C 9.453125 -3.726562 9.273438 -2.894531 8.921875 -2.15625 C 8.566406 -1.425781 8.0625 -0.851562 7.40625 -0.4375 C 6.75 -0.03125 5.992188 0.171875 5.140625 0.171875 C 3.847656 0.171875 2.800781 -0.273438 2 -1.171875 C 1.195312 -2.066406 0.796875 -3.253906 0.796875 -4.734375 Z M 2.4375 -4.65625 C 2.4375 -3.59375 2.679688 -2.742188 3.171875 -2.109375 C 3.660156 -1.472656 4.316406 -1.15625 5.140625 -1.15625 C 5.960938 -1.15625 6.613281 -1.476562 7.09375 -2.125 C 7.582031 -2.769531 7.828125 -3.675781 7.828125 -4.84375 C 7.828125 -5.882812 7.578125 -6.726562 7.078125 -7.375 C 6.585938 -8.019531 5.929688 -8.34375 5.109375 -8.34375 C 4.304688 -8.34375 3.660156 -8.023438 3.171875 -7.390625 C 2.679688 -6.753906 2.4375 -5.84375 2.4375 -4.65625 Z M 2.4375 -4.65625 "/></g></g></g><g fill="#17191a" fill-opacity="1"><g transform="translate(70.451193, 16.200005)"><g/></g></g><g fill="#17191a" fill-opacity="1"><g transform="translate(74.904352, 16.200005)"><g><path d="M 3 0 L 1.375 0 L 1.375 -9.515625 L 3 -9.515625 Z M 1.234375 -12.03125 C 1.234375 -12.289062 1.3125 -12.507812 1.46875 -12.6875 C 1.632812 -12.875 1.875 -12.96875 2.1875 -12.96875 C 2.507812 -12.96875 2.753906 -12.875 2.921875 -12.6875 C 3.085938 -12.507812 3.171875 -12.289062 3.171875 -12.03125 C 3.171875 -11.769531 3.085938 -11.550781 2.921875 -11.375 C 2.753906 -11.195312 2.507812 -11.109375 2.1875 -11.109375 C 1.875 -11.109375 1.632812 -11.195312 1.46875 -11.375 C 1.3125 -11.550781 1.234375 -11.769531 1.234375 -12.03125 Z M 1.234375 -12.03125 "/></g></g></g><g fill="#17191a" fill-opacity="1"><g transform="translate(79.269677, 16.200005)"><g><path d="M 2.765625 -1.328125 L 8.328125 -1.328125 L 8.328125 0 L 0.78125 0 L 0.78125 -1.203125 L 6.015625 -8.171875 L 0.859375 -8.171875 L 0.859375 -9.515625 L 8.0625 -9.515625 L 8.0625 -8.359375 Z M 2.765625 -1.328125 "/></g></g></g><g fill="#17191a" fill-opacity="1"><g transform="translate(88.184773, 16.200005)"><g><path d="M 2.765625 -9.515625 L 2.828125 -8.3125 C 3.546875 -9.226562 4.492188 -9.6875 5.671875 -9.6875 C 7.679688 -9.6875 8.691406 -8.550781 8.703125 -6.28125 L 8.703125 0 L 7.078125 0 L 7.078125 -6.296875 C 7.078125 -6.984375 6.921875 -7.488281 6.609375 -7.8125 C 6.304688 -8.144531 5.828125 -8.3125 5.171875 -8.3125 C 4.648438 -8.3125 4.1875 -8.171875 3.78125 -7.890625 C 3.382812 -7.609375 3.078125 -7.238281 2.859375 -6.78125 L 2.859375 0 L 1.234375 0 L 1.234375 -9.515625 Z M 2.765625 -9.515625 "/></g></g></g><g fill="#17191a" fill-opacity="1"><g transform="translate(98.109947, 16.200005)"><g><path d="M 0.796875 -4.84375 C 0.796875 -5.769531 0.976562 -6.601562 1.34375 -7.34375 C 1.71875 -8.09375 2.226562 -8.671875 2.875 -9.078125 C 3.53125 -9.484375 4.273438 -9.6875 5.109375 -9.6875 C 6.410156 -9.6875 7.457031 -9.238281 8.25 -8.34375 C 9.050781 -7.445312 9.453125 -6.253906 9.453125 -4.765625 L 9.453125 -4.65625 C 9.453125 -3.726562 9.273438 -2.894531 8.921875 -2.15625 C 8.566406 -1.425781 8.0625 -0.851562 7.40625 -0.4375 C 6.75 -0.03125 5.992188 0.171875 5.140625 0.171875 C 3.847656 0.171875 2.800781 -0.273438 2 -1.171875 C 1.195312 -2.066406 0.796875 -3.253906 0.796875 -4.734375 Z M 2.4375 -4.65625 C 2.4375 -3.59375 2.679688 -2.742188 3.171875 -2.109375 C 3.660156 -1.472656 4.316406 -1.15625 5.140625 -1.15625 C 5.960938 -1.15625 6.613281 -1.476562 7.09375 -2.125 C 7.582031 -2.769531 7.828125 -3.675781 7.828125 -4.84375 C 7.828125 -5.882812 7.578125 -6.726562 7.078125 -7.375 C 6.585938 -8.019531 5.929688 -8.34375 5.109375 -8.34375 C 4.304688 -8.34375 3.660156 -8.023438 3.171875 -7.390625 C 2.679688 -6.753906 2.4375 -5.84375 2.4375 -4.65625 Z M 2.4375 -4.65625 "/></g></g></g><g fill="#17191a" fill-opacity="1"><g transform="translate(108.368888, 16.200005)"><g><path d="M 6.765625 -2.515625 C 6.765625 -2.960938 6.597656 -3.304688 6.265625 -3.546875 C 5.941406 -3.785156 5.367188 -3.992188 4.546875 -4.171875 C 3.722656 -4.347656 3.066406 -4.554688 2.578125 -4.796875 C 2.097656 -5.046875 1.738281 -5.34375 1.5 -5.6875 C 1.269531 -6.03125 1.15625 -6.4375 1.15625 -6.90625 C 1.15625 -7.675781 1.484375 -8.332031 2.140625 -8.875 C 2.804688 -9.414062 3.648438 -9.6875 4.671875 -9.6875 C 5.753906 -9.6875 6.628906 -9.40625 7.296875 -8.84375 C 7.972656 -8.289062 8.3125 -7.582031 8.3125 -6.71875 L 6.671875 -6.71875 C 6.671875 -7.164062 6.476562 -7.546875 6.09375 -7.859375 C 5.71875 -8.179688 5.242188 -8.34375 4.671875 -8.34375 C 4.078125 -8.34375 3.613281 -8.210938 3.28125 -7.953125 C 2.945312 -7.703125 2.78125 -7.367188 2.78125 -6.953125 C 2.78125 -6.554688 2.9375 -6.257812 3.25 -6.0625 C 3.5625 -5.863281 4.125 -5.671875 4.9375 -5.484375 C 5.75 -5.304688 6.40625 -5.09375 6.90625 -4.84375 C 7.414062 -4.59375 7.789062 -4.289062 8.03125 -3.9375 C 8.269531 -3.582031 8.390625 -3.148438 8.390625 -2.640625 C 8.390625 -1.785156 8.050781 -1.101562 7.375 -0.59375 C 6.695312 -0.0820312 5.816406 0.171875 4.734375 0.171875 C 3.972656 0.171875 3.296875 0.0351562 2.703125 -0.234375 C 2.117188 -0.503906 1.660156 -0.878906 1.328125 -1.359375 C 0.992188 -1.835938 0.828125 -2.359375 0.828125 -2.921875 L 2.46875 -2.921875 C 2.488281 -2.378906 2.703125 -1.945312 3.109375 -1.625 C 3.523438 -1.3125 4.066406 -1.15625 4.734375 -1.15625 C 5.347656 -1.15625 5.835938 -1.28125 6.203125 -1.53125 C 6.578125 -1.78125 6.765625 -2.109375 6.765625 -2.515625 Z M 6.765625 -2.515625 "/></g></g></g><g fill="#17191a" fill-opacity="1"><g transform="translate(117.644095, 16.200005)"><g><path d="M 3 0 L 1.375 0 L 1.375 -9.515625 L 3 -9.515625 Z M 1.234375 -12.03125 C 1.234375 -12.289062 1.3125 -12.507812 1.46875 -12.6875 C 1.632812 -12.875 1.875 -12.96875 2.1875 -12.96875 C 2.507812 -12.96875 2.753906 -12.875 2.921875 -12.6875 C 3.085938 -12.507812 3.171875 -12.289062 3.171875 -12.03125 C 3.171875 -11.769531 3.085938 -11.550781 2.921875 -11.375 C 2.753906 -11.195312 2.507812 -11.109375 2.1875 -11.109375 C 1.875 -11.109375 1.632812 -11.195312 1.46875 -11.375 C 1.3125 -11.550781 1.234375 -11.769531 1.234375 -12.03125 Z M 1.234375 -12.03125 "/></g></g></g><g fill="#17191a" fill-opacity="1"><g transform="translate(122.003904, 16.200005)"><g/></g></g><g fill="#17191a" fill-opacity="1"><g transform="translate(0.0000075, 40.950003)"><g><path d="M 2.765625 -1.328125 L 8.328125 -1.328125 L 8.328125 0 L 0.78125 0 L 0.78125 -1.203125 L 6.015625 -8.171875 L 0.859375 -8.171875 L 0.859375 -9.515625 L 8.0625 -9.515625 L 8.0625 -8.359375 Z M 2.765625 -1.328125 "/></g></g></g><g fill="#17191a" fill-opacity="1"><g transform="translate(8.915103, 40.950003)"><g><path d="M 9.28125 -4.65625 C 9.28125 -3.195312 8.945312 -2.023438 8.28125 -1.140625 C 7.613281 -0.265625 6.71875 0.171875 5.59375 0.171875 C 4.382812 0.171875 3.453125 -0.25 2.796875 -1.09375 L 2.71875 0 L 1.234375 0 L 1.234375 -13.5 L 2.859375 -13.5 L 2.859375 -8.46875 C 3.515625 -9.28125 4.414062 -9.6875 5.5625 -9.6875 C 6.71875 -9.6875 7.625 -9.25 8.28125 -8.375 C 8.945312 -7.5 9.28125 -6.304688 9.28125 -4.796875 Z M 7.65625 -4.828125 C 7.65625 -5.941406 7.441406 -6.800781 7.015625 -7.40625 C 6.585938 -8.007812 5.972656 -8.3125 5.171875 -8.3125 C 4.097656 -8.3125 3.328125 -7.8125 2.859375 -6.8125 L 2.859375 -2.703125 C 3.359375 -1.703125 4.132812 -1.203125 5.1875 -1.203125 C 5.96875 -1.203125 6.570312 -1.503906 7 -2.109375 C 7.4375 -2.710938 7.65625 -3.617188 7.65625 -4.828125 Z M 7.65625 -4.828125 "/></g></g></g><g fill="#17191a" fill-opacity="1"><g transform="translate(19.007166, 40.950003)"><g><path d="M 5.828125 -8.046875 C 5.578125 -8.085938 5.3125 -8.109375 5.03125 -8.109375 C 3.957031 -8.109375 3.234375 -7.65625 2.859375 -6.75 L 2.859375 0 L 1.234375 0 L 1.234375 -9.515625 L 2.8125 -9.515625 L 2.84375 -8.40625 C 3.375 -9.257812 4.128906 -9.6875 5.109375 -9.6875 C 5.421875 -9.6875 5.660156 -9.644531 5.828125 -9.5625 Z M 5.828125 -8.046875 "/></g></g></g><g fill="#17191a" fill-opacity="1"><g transform="translate(25.094026, 40.950003)"><g><path d="M 0.796875 -4.84375 C 0.796875 -5.769531 0.976562 -6.601562 1.34375 -7.34375 C 1.71875 -8.09375 2.226562 -8.671875 2.875 -9.078125 C 3.53125 -9.484375 4.273438 -9.6875 5.109375 -9.6875 C 6.410156 -9.6875 7.457031 -9.238281 8.25 -8.34375 C 9.050781 -7.445312 9.453125 -6.253906 9.453125 -4.765625 L 9.453125 -4.65625 C 9.453125 -3.726562 9.273438 -2.894531 8.921875 -2.15625 C 8.566406 -1.425781 8.0625 -0.851562 7.40625 -0.4375 C 6.75 -0.03125 5.992188 0.171875 5.140625 0.171875 C 3.847656 0.171875 2.800781 -0.273438 2 -1.171875 C 1.195312 -2.066406 0.796875 -3.253906 0.796875 -4.734375 Z M 2.4375 -4.65625 C 2.4375 -3.59375 2.679688 -2.742188 3.171875 -2.109375 C 3.660156 -1.472656 4.316406 -1.15625 5.140625 -1.15625 C 5.960938 -1.15625 6.613281 -1.476562 7.09375 -2.125 C 7.582031 -2.769531 7.828125 -3.675781 7.828125 -4.84375 C 7.828125 -5.882812 7.578125 -6.726562 7.078125 -7.375 C 6.585938 -8.019531 5.929688 -8.34375 5.109375 -8.34375 C 4.304688 -8.34375 3.660156 -8.023438 3.171875 -7.390625 C 2.679688 -6.753906 2.4375 -5.84375 2.4375 -4.65625 Z M 2.4375 -4.65625 "/></g></g></g><g fill="#17191a" fill-opacity="1"><g transform="translate(35.352967, 40.950003)"><g><path d="M 2.90625 -9.515625 L 2.90625 1.09375 C 2.90625 2.925781 2.078125 3.84375 0.421875 3.84375 C 0.0664062 3.84375 -0.265625 3.789062 -0.578125 3.6875 L -0.578125 2.375 C -0.390625 2.425781 -0.140625 2.453125 0.171875 2.453125 C 0.535156 2.453125 0.8125 2.351562 1 2.15625 C 1.1875 1.957031 1.28125 1.617188 1.28125 1.140625 L 1.28125 -9.515625 Z M 1.109375 -12.03125 C 1.109375 -12.289062 1.1875 -12.507812 1.34375 -12.6875 C 1.507812 -12.875 1.75 -12.96875 2.0625 -12.96875 C 2.382812 -12.96875 2.625 -12.875 2.78125 -12.6875 C 2.945312 -12.507812 3.03125 -12.289062 3.03125 -12.03125 C 3.03125 -11.769531 2.945312 -11.550781 2.78125 -11.375 C 2.625 -11.195312 2.382812 -11.109375 2.0625 -11.109375 C 1.75 -11.109375 1.507812 -11.195312 1.34375 -11.375 C 1.1875 -11.550781 1.109375 -11.769531 1.109375 -12.03125 Z M 1.109375 -12.03125 "/></g></g></g><g fill="#17191a" fill-opacity="1"><g transform="translate(39.648026, 40.950003)"><g/></g></g><g fill="#17191a" fill-opacity="1"><g transform="translate(44.101185, 40.950003)"><g><path d="M 5.828125 -8.046875 C 5.578125 -8.085938 5.3125 -8.109375 5.03125 -8.109375 C 3.957031 -8.109375 3.234375 -7.65625 2.859375 -6.75 L 2.859375 0 L 1.234375 0 L 1.234375 -9.515625 L 2.8125 -9.515625 L 2.84375 -8.40625 C 3.375 -9.257812 4.128906 -9.6875 5.109375 -9.6875 C 5.421875 -9.6875 5.660156 -9.644531 5.828125 -9.5625 Z M 5.828125 -8.046875 "/></g></g></g><g fill="#17191a" fill-opacity="1"><g transform="translate(50.188045, 40.950003)"><g><path d="M 2.90625 -9.515625 L 2.90625 1.09375 C 2.90625 2.925781 2.078125 3.84375 0.421875 3.84375 C 0.0664062 3.84375 -0.265625 3.789062 -0.578125 3.6875 L -0.578125 2.375 C -0.390625 2.425781 -0.140625 2.453125 0.171875 2.453125 C 0.535156 2.453125 0.8125 2.351562 1 2.15625 C 1.1875 1.957031 1.28125 1.617188 1.28125 1.140625 L 1.28125 -9.515625 Z M 1.109375 -12.03125 C 1.109375 -12.289062 1.1875 -12.507812 1.34375 -12.6875 C 1.507812 -12.875 1.75 -12.96875 2.0625 -12.96875 C 2.382812 -12.96875 2.625 -12.875 2.78125 -12.6875 C 2.945312 -12.507812 3.03125 -12.289062 3.03125 -12.03125 C 3.03125 -11.769531 2.945312 -11.550781 2.78125 -11.375 C 2.625 -11.195312 2.382812 -11.109375 2.0625 -11.109375 C 1.75 -11.109375 1.507812 -11.195312 1.34375 -11.375 C 1.1875 -11.550781 1.109375 -11.769531 1.109375 -12.03125 Z M 1.109375 -12.03125 "/></g></g></g><g fill="#17191a" fill-opacity="1"><g transform="translate(54.483104, 40.950003)"><g><path d="M 5.171875 0.171875 C 3.890625 0.171875 2.84375 -0.25 2.03125 -1.09375 C 1.21875 -1.9375 0.8125 -3.066406 0.8125 -4.484375 L 0.8125 -4.796875 C 0.8125 -5.734375 0.992188 -6.570312 1.359375 -7.3125 C 1.722656 -8.050781 2.226562 -8.628906 2.875 -9.046875 C 3.519531 -9.472656 4.21875 -9.6875 4.96875 -9.6875 C 6.207031 -9.6875 7.171875 -9.28125 7.859375 -8.46875 C 8.546875 -7.65625 8.890625 -6.488281 8.890625 -4.96875 L 8.890625 -4.296875 L 2.4375 -4.296875 C 2.46875 -3.359375 2.742188 -2.597656 3.265625 -2.015625 C 3.785156 -1.441406 4.453125 -1.15625 5.265625 -1.15625 C 5.835938 -1.15625 6.320312 -1.269531 6.71875 -1.5 C 7.125 -1.738281 7.472656 -2.050781 7.765625 -2.4375 L 8.765625 -1.65625 C 7.960938 -0.4375 6.765625 0.171875 5.171875 0.171875 Z M 4.96875 -8.34375 C 4.3125 -8.34375 3.757812 -8.101562 3.3125 -7.625 C 2.875 -7.15625 2.601562 -6.488281 2.5 -5.625 L 7.265625 -5.625 L 7.265625 -5.75 C 7.210938 -6.570312 6.988281 -7.207031 6.59375 -7.65625 C 6.195312 -8.113281 5.65625 -8.34375 4.96875 -8.34375 Z M 4.96875 -8.34375 "/></g></g></g><g fill="#17191a" fill-opacity="1"><g transform="translate(64.013033, 40.950003)"><g><path d="M 6.765625 -2.515625 C 6.765625 -2.960938 6.597656 -3.304688 6.265625 -3.546875 C 5.941406 -3.785156 5.367188 -3.992188 4.546875 -4.171875 C 3.722656 -4.347656 3.066406 -4.554688 2.578125 -4.796875 C 2.097656 -5.046875 1.738281 -5.34375 1.5 -5.6875 C 1.269531 -6.03125 1.15625 -6.4375 1.15625 -6.90625 C 1.15625 -7.675781 1.484375 -8.332031 2.140625 -8.875 C 2.804688 -9.414062 3.648438 -9.6875 4.671875 -9.6875 C 5.753906 -9.6875 6.628906 -9.40625 7.296875 -8.84375 C 7.972656 -8.289062 8.3125 -7.582031 8.3125 -6.71875 L 6.671875 -6.71875 C 6.671875 -7.164062 6.476562 -7.546875 6.09375 -7.859375 C 5.71875 -8.179688 5.242188 -8.34375 4.671875 -8.34375 C 4.078125 -8.34375 3.613281 -8.210938 3.28125 -7.953125 C 2.945312 -7.703125 2.78125 -7.367188 2.78125 -6.953125 C 2.78125 -6.554688 2.9375 -6.257812 3.25 -6.0625 C 3.5625 -5.863281 4.125 -5.671875 4.9375 -5.484375 C 5.75 -5.304688 6.40625 -5.09375 6.90625 -4.84375 C 7.414062 -4.59375 7.789062 -4.289062 8.03125 -3.9375 C 8.269531 -3.582031 8.390625 -3.148438 8.390625 -2.640625 C 8.390625 -1.785156 8.050781 -1.101562 7.375 -0.59375 C 6.695312 -0.0820312 5.816406 0.171875 4.734375 0.171875 C 3.972656 0.171875 3.296875 0.0351562 2.703125 -0.234375 C 2.117188 -0.503906 1.660156 -0.878906 1.328125 -1.359375 C 0.992188 -1.835938 0.828125 -2.359375 0.828125 -2.921875 L 2.46875 -2.921875 C 2.488281 -2.378906 2.703125 -1.945312 3.109375 -1.625 C 3.523438 -1.3125 4.066406 -1.15625 4.734375 -1.15625 C 5.347656 -1.15625 5.835938 -1.28125 6.203125 -1.53125 C 6.578125 -1.78125 6.765625 -2.109375 6.765625 -2.515625 Z M 4.9375 -12.015625 L 6.25 -13.5 L 7.65625 -13.5 L 7.65625 -13.421875 L 5.421875 -11.015625 L 4.4375 -11.015625 L 2.21875 -13.421875 L 2.21875 -13.5 L 3.609375 -13.5 Z M 4.9375 -12.015625 "/></g></g></g><g fill="#17191a" fill-opacity="1"><g transform="translate(73.28824, 40.950003)"><g><path d="M 5.171875 0.171875 C 3.890625 0.171875 2.84375 -0.25 2.03125 -1.09375 C 1.21875 -1.9375 0.8125 -3.066406 0.8125 -4.484375 L 0.8125 -4.796875 C 0.8125 -5.734375 0.992188 -6.570312 1.359375 -7.3125 C 1.722656 -8.050781 2.226562 -8.628906 2.875 -9.046875 C 3.519531 -9.472656 4.21875 -9.6875 4.96875 -9.6875 C 6.207031 -9.6875 7.171875 -9.28125 7.859375 -8.46875 C 8.546875 -7.65625 8.890625 -6.488281 8.890625 -4.96875 L 8.890625 -4.296875 L 2.4375 -4.296875 C 2.46875 -3.359375 2.742188 -2.597656 3.265625 -2.015625 C 3.785156 -1.441406 4.453125 -1.15625 5.265625 -1.15625 C 5.835938 -1.15625 6.320312 -1.269531 6.71875 -1.5 C 7.125 -1.738281 7.472656 -2.050781 7.765625 -2.4375 L 8.765625 -1.65625 C 7.960938 -0.4375 6.765625 0.171875 5.171875 0.171875 Z M 4.96875 -8.34375 C 4.3125 -8.34375 3.757812 -8.101562 3.3125 -7.625 C 2.875 -7.15625 2.601562 -6.488281 2.5 -5.625 L 7.265625 -5.625 L 7.265625 -5.75 C 7.210938 -6.570312 6.988281 -7.207031 6.59375 -7.65625 C 6.195312 -8.113281 5.65625 -8.34375 4.96875 -8.34375 Z M 4.96875 -8.34375 "/></g></g></g><g fill="#17191a" fill-opacity="1"><g transform="translate(82.818169, 40.950003)"><g><path d="M 2.765625 -9.515625 L 2.828125 -8.3125 C 3.546875 -9.226562 4.492188 -9.6875 5.671875 -9.6875 C 7.679688 -9.6875 8.691406 -8.550781 8.703125 -6.28125 L 8.703125 0 L 7.078125 0 L 7.078125 -6.296875 C 7.078125 -6.984375 6.921875 -7.488281 6.609375 -7.8125 C 6.304688 -8.144531 5.828125 -8.3125 5.171875 -8.3125 C 4.648438 -8.3125 4.1875 -8.171875 3.78125 -7.890625 C 3.382812 -7.609375 3.078125 -7.238281 2.859375 -6.78125 L 2.859375 0 L 1.234375 0 L 1.234375 -9.515625 Z M 2.765625 -9.515625 "/></g></g></g><g fill="#17191a" fill-opacity="1"><g transform="translate(92.743343, 40.950003)"><g><path d="M 2.90625 -9.515625 L 2.90625 1.09375 C 2.90625 2.925781 2.078125 3.84375 0.421875 3.84375 C 0.0664062 3.84375 -0.265625 3.789062 -0.578125 3.6875 L -0.578125 2.375 C -0.390625 2.425781 -0.140625 2.453125 0.171875 2.453125 C 0.535156 2.453125 0.8125 2.351562 1 2.15625 C 1.1875 1.957031 1.28125 1.617188 1.28125 1.140625 L 1.28125 -9.515625 Z M 1.109375 -12.03125 C 1.109375 -12.289062 1.1875 -12.507812 1.34375 -12.6875 C 1.507812 -12.875 1.75 -12.96875 2.0625 -12.96875 C 2.382812 -12.96875 2.625 -12.875 2.78125 -12.6875 C 2.945312 -12.507812 3.03125 -12.289062 3.03125 -12.03125 C 3.03125 -11.769531 2.945312 -11.550781 2.78125 -11.375 C 2.625 -11.195312 2.382812 -11.109375 2.0625 -11.109375 C 1.75 -11.109375 1.507812 -11.195312 1.34375 -11.375 C 1.1875 -11.550781 1.109375 -11.769531 1.109375 -12.03125 Z M 1.109375 -12.03125 "/></g></g></g><g fill="#17191a" fill-opacity="1"><g transform="translate(97.038402, 40.950003)"><g><path d="M 7.109375 0 C 7.015625 -0.1875 6.9375 -0.519531 6.875 -1 C 6.113281 -0.21875 5.210938 0.171875 4.171875 0.171875 C 3.234375 0.171875 2.460938 -0.09375 1.859375 -0.625 C 1.253906 -1.15625 0.953125 -1.828125 0.953125 -2.640625 C 0.953125 -3.628906 1.328125 -4.394531 2.078125 -4.9375 C 2.835938 -5.488281 3.898438 -5.765625 5.265625 -5.765625 L 6.84375 -5.765625 L 6.84375 -6.515625 C 6.84375 -7.078125 6.671875 -7.523438 6.328125 -7.859375 C 5.992188 -8.203125 5.492188 -8.375 4.828125 -8.375 C 4.253906 -8.375 3.769531 -8.226562 3.375 -7.9375 C 2.976562 -7.644531 2.78125 -7.289062 2.78125 -6.875 L 1.15625 -6.875 C 1.15625 -7.34375 1.320312 -7.796875 1.65625 -8.234375 C 1.988281 -8.679688 2.441406 -9.035156 3.015625 -9.296875 C 3.597656 -9.554688 4.238281 -9.6875 4.9375 -9.6875 C 6.03125 -9.6875 6.882812 -9.410156 7.5 -8.859375 C 8.125 -8.316406 8.445312 -7.5625 8.46875 -6.59375 L 8.46875 -2.21875 C 8.46875 -1.351562 8.582031 -0.660156 8.8125 -0.140625 L 8.8125 0 Z M 4.40625 -1.234375 C 4.914062 -1.234375 5.398438 -1.363281 5.859375 -1.625 C 6.316406 -1.894531 6.644531 -2.238281 6.84375 -2.65625 L 6.84375 -4.609375 L 5.578125 -4.609375 C 3.578125 -4.609375 2.578125 -4.023438 2.578125 -2.859375 C 2.578125 -2.347656 2.75 -1.945312 3.09375 -1.65625 C 3.4375 -1.375 3.875 -1.234375 4.40625 -1.234375 Z M 4.40625 -1.234375 "/></g></g></g><g fill="#17191a" fill-opacity="1"><g transform="translate(106.823043, 40.950003)"><g/></g></g><g fill="#17191a" fill-opacity="1"><g transform="translate(111.276202, 40.950003)"><g><path d="M 6.765625 -2.515625 C 6.765625 -2.960938 6.597656 -3.304688 6.265625 -3.546875 C 5.941406 -3.785156 5.367188 -3.992188 4.546875 -4.171875 C 3.722656 -4.347656 3.066406 -4.554688 2.578125 -4.796875 C 2.097656 -5.046875 1.738281 -5.34375 1.5 -5.6875 C 1.269531 -6.03125 1.15625 -6.4375 1.15625 -6.90625 C 1.15625 -7.675781 1.484375 -8.332031 2.140625 -8.875 C 2.804688 -9.414062 3.648438 -9.6875 4.671875 -9.6875 C 5.753906 -9.6875 6.628906 -9.40625 7.296875 -8.84375 C 7.972656 -8.289062 8.3125 -7.582031 8.3125 -6.71875 L 6.671875 -6.71875 C 6.671875 -7.164062 6.476562 -7.546875 6.09375 -7.859375 C 5.71875 -8.179688 5.242188 -8.34375 4.671875 -8.34375 C 4.078125 -8.34375 3.613281 -8.210938 3.28125 -7.953125 C 2.945312 -7.703125 2.78125 -7.367188 2.78125 -6.953125 C 2.78125 -6.554688 2.9375 -6.257812 3.25 -6.0625 C 3.5625 -5.863281 4.125 -5.671875 4.9375 -5.484375 C 5.75 -5.304688 6.40625 -5.09375 6.90625 -4.84375 C 7.414062 -4.59375 7.789062 -4.289062 8.03125 -3.9375 C 8.269531 -3.582031 8.390625 -3.148438 8.390625 -2.640625 C 8.390625 -1.785156 8.050781 -1.101562 7.375 -0.59375 C 6.695312 -0.0820312 5.816406 0.171875 4.734375 0.171875 C 3.972656 0.171875 3.296875 0.0351562 2.703125 -0.234375 C 2.117188 -0.503906 1.660156 -0.878906 1.328125 -1.359375 C 0.992188 -1.835938 0.828125 -2.359375 0.828125 -2.921875 L 2.46875 -2.921875 C 2.488281 -2.378906 2.703125 -1.945312 3.109375 -1.625 C 3.523438 -1.3125 4.066406 -1.15625 4.734375 -1.15625 C 5.347656 -1.15625 5.835938 -1.28125 6.203125 -1.53125 C 6.578125 -1.78125 6.765625 -2.109375 6.765625 -2.515625 Z M 6.765625 -2.515625 "/></g></g></g><g fill="#17191a" fill-opacity="1"><g transform="translate(120.551408, 40.950003)"><g><path d="M 7.109375 -0.9375 C 6.472656 -0.195312 5.539062 0.171875 4.3125 0.171875 C 3.300781 0.171875 2.53125 -0.117188 2 -0.703125 C 1.46875 -1.296875 1.203125 -2.171875 1.203125 -3.328125 L 1.203125 -9.515625 L 2.828125 -9.515625 L 2.828125 -3.359375 C 2.828125 -1.921875 3.410156 -1.203125 4.578125 -1.203125 C 5.816406 -1.203125 6.644531 -1.664062 7.0625 -2.59375 L 7.0625 -9.515625 L 8.6875 -9.515625 L 8.6875 0 L 7.140625 0 Z M 7.109375 -0.9375 "/></g></g></g><g fill="#17191a" fill-opacity="1"><g transform="translate(130.467805, 40.950003)"><g><path d="M 6.765625 -2.515625 C 6.765625 -2.960938 6.597656 -3.304688 6.265625 -3.546875 C 5.941406 -3.785156 5.367188 -3.992188 4.546875 -4.171875 C 3.722656 -4.347656 3.066406 -4.554688 2.578125 -4.796875 C 2.097656 -5.046875 1.738281 -5.34375 1.5 -5.6875 C 1.269531 -6.03125 1.15625 -6.4375 1.15625 -6.90625 C 1.15625 -7.675781 1.484375 -8.332031 2.140625 -8.875 C 2.804688 -9.414062 3.648438 -9.6875 4.671875 -9.6875 C 5.753906 -9.6875 6.628906 -9.40625 7.296875 -8.84375 C 7.972656 -8.289062 8.3125 -7.582031 8.3125 -6.71875 L 6.671875 -6.71875 C 6.671875 -7.164062 6.476562 -7.546875 6.09375 -7.859375 C 5.71875 -8.179688 5.242188 -8.34375 4.671875 -8.34375 C 4.078125 -8.34375 3.613281 -8.210938 3.28125 -7.953125 C 2.945312 -7.703125 2.78125 -7.367188 2.78125 -6.953125 C 2.78125 -6.554688 2.9375 -6.257812 3.25 -6.0625 C 3.5625 -5.863281 4.125 -5.671875 4.9375 -5.484375 C 5.75 -5.304688 6.40625 -5.09375 6.90625 -4.84375 C 7.414062 -4.59375 7.789062 -4.289062 8.03125 -3.9375 C 8.269531 -3.582031 8.390625 -3.148438 8.390625 -2.640625 C 8.390625 -1.785156 8.050781 -1.101562 7.375 -0.59375 C 6.695312 -0.0820312 5.816406 0.171875 4.734375 0.171875 C 3.972656 0.171875 3.296875 0.0351562 2.703125 -0.234375 C 2.117188 -0.503906 1.660156 -0.878906 1.328125 -1.359375 C 0.992188 -1.835938 0.828125 -2.359375 0.828125 -2.921875 L 2.46875 -2.921875 C 2.488281 -2.378906 2.703125 -1.945312 3.109375 -1.625 C 3.523438 -1.3125 4.066406 -1.15625 4.734375 -1.15625 C 5.347656 -1.15625 5.835938 -1.28125 6.203125 -1.53125 C 6.578125 -1.78125 6.765625 -2.109375 6.765625 -2.515625 Z M 6.765625 -2.515625 "/></g></g></g><g fill="#17191a" fill-opacity="1"><g transform="translate(139.743012, 40.950003)"><g><path d="M 3.4375 -11.8125 L 3.4375 -9.515625 L 5.21875 -9.515625 L 5.21875 -8.25 L 3.4375 -8.25 L 3.4375 -2.359375 C 3.4375 -1.972656 3.515625 -1.6875 3.671875 -1.5 C 3.828125 -1.3125 4.097656 -1.21875 4.484375 -1.21875 C 4.671875 -1.21875 4.925781 -1.25 5.25 -1.3125 L 5.25 0 C 4.820312 0.113281 4.410156 0.171875 4.015625 0.171875 C 3.285156 0.171875 2.734375 -0.046875 2.359375 -0.484375 C 1.992188 -0.921875 1.8125 -1.546875 1.8125 -2.359375 L 1.8125 -8.25 L 0.078125 -8.25 L 0.078125 -9.515625 L 1.8125 -9.515625 L 1.8125 -11.8125 Z M 3.4375 -11.8125 "/></g></g></g><g fill="#17191a" fill-opacity="1"><g transform="translate(145.619072, 40.950003)"><g><path d="M 7.109375 0 C 7.015625 -0.1875 6.9375 -0.519531 6.875 -1 C 6.113281 -0.21875 5.210938 0.171875 4.171875 0.171875 C 3.234375 0.171875 2.460938 -0.09375 1.859375 -0.625 C 1.253906 -1.15625 0.953125 -1.828125 0.953125 -2.640625 C 0.953125 -3.628906 1.328125 -4.394531 2.078125 -4.9375 C 2.835938 -5.488281 3.898438 -5.765625 5.265625 -5.765625 L 6.84375 -5.765625 L 6.84375 -6.515625 C 6.84375 -7.078125 6.671875 -7.523438 6.328125 -7.859375 C 5.992188 -8.203125 5.492188 -8.375 4.828125 -8.375 C 4.253906 -8.375 3.769531 -8.226562 3.375 -7.9375 C 2.976562 -7.644531 2.78125 -7.289062 2.78125 -6.875 L 1.15625 -6.875 C 1.15625 -7.34375 1.320312 -7.796875 1.65625 -8.234375 C 1.988281 -8.679688 2.441406 -9.035156 3.015625 -9.296875 C 3.597656 -9.554688 4.238281 -9.6875 4.9375 -9.6875 C 6.03125 -9.6875 6.882812 -9.410156 7.5 -8.859375 C 8.125 -8.316406 8.445312 -7.5625 8.46875 -6.59375 L 8.46875 -2.21875 C 8.46875 -1.351562 8.582031 -0.660156 8.8125 -0.140625 L 8.8125 0 Z M 4.40625 -1.234375 C 4.914062 -1.234375 5.398438 -1.363281 5.859375 -1.625 C 6.316406 -1.894531 6.644531 -2.238281 6.84375 -2.65625 L 6.84375 -4.609375 L 5.578125 -4.609375 C 3.578125 -4.609375 2.578125 -4.023438 2.578125 -2.859375 C 2.578125 -2.347656 2.75 -1.945312 3.09375 -1.65625 C 3.4375 -1.375 3.875 -1.234375 4.40625 -1.234375 Z M 4.40625 -1.234375 "/></g></g></g><g fill="#17191a" fill-opacity="1"><g transform="translate(155.403712, 40.950003)"><g><path d="M 4.375 -2.203125 L 6.71875 -9.515625 L 8.390625 -9.515625 L 4.96875 0 L 3.734375 0 L 0.296875 -9.515625 L 1.953125 -9.515625 Z M 4.375 -2.203125 "/></g></g></g><g fill="#17191a" fill-opacity="1"><g transform="translate(164.116785, 40.950003)"><g><path d="M 7.109375 0 C 7.015625 -0.1875 6.9375 -0.519531 6.875 -1 C 6.113281 -0.21875 5.210938 0.171875 4.171875 0.171875 C 3.234375 0.171875 2.460938 -0.09375 1.859375 -0.625 C 1.253906 -1.15625 0.953125 -1.828125 0.953125 -2.640625 C 0.953125 -3.628906 1.328125 -4.394531 2.078125 -4.9375 C 2.835938 -5.488281 3.898438 -5.765625 5.265625 -5.765625 L 6.84375 -5.765625 L 6.84375 -6.515625 C 6.84375 -7.078125 6.671875 -7.523438 6.328125 -7.859375 C 5.992188 -8.203125 5.492188 -8.375 4.828125 -8.375 C 4.253906 -8.375 3.769531 -8.226562 3.375 -7.9375 C 2.976562 -7.644531 2.78125 -7.289062 2.78125 -6.875 L 1.15625 -6.875 C 1.15625 -7.34375 1.320312 -7.796875 1.65625 -8.234375 C 1.988281 -8.679688 2.441406 -9.035156 3.015625 -9.296875 C 3.597656 -9.554688 4.238281 -9.6875 4.9375 -9.6875 C 6.03125 -9.6875 6.882812 -9.410156 7.5 -8.859375 C 8.125 -8.316406 8.445312 -7.5625 8.46875 -6.59375 L 8.46875 -2.21875 C 8.46875 -1.351562 8.582031 -0.660156 8.8125 -0.140625 L 8.8125 0 Z M 4.40625 -1.234375 C 4.914062 -1.234375 5.398438 -1.363281 5.859375 -1.625 C 6.316406 -1.894531 6.644531 -2.238281 6.84375 -2.65625 L 6.84375 -4.609375 L 5.578125 -4.609375 C 3.578125 -4.609375 2.578125 -4.023438 2.578125 -2.859375 C 2.578125 -2.347656 2.75 -1.945312 3.09375 -1.65625 C 3.4375 -1.375 3.875 -1.234375 4.40625 -1.234375 Z M 4.40625 -1.234375 "/></g></g></g><g fill="#17191a" fill-opacity="1"><g transform="translate(173.901426, 40.950003)"><g><path d="M 3.140625 -3.609375 C 3.148438 -4.304688 3.226562 -4.851562 3.375 -5.25 C 3.519531 -5.65625 3.816406 -6.101562 4.265625 -6.59375 L 5.421875 -7.78125 C 5.910156 -8.34375 6.15625 -8.941406 6.15625 -9.578125 C 6.15625 -10.191406 5.992188 -10.671875 5.671875 -11.015625 C 5.347656 -11.367188 4.878906 -11.546875 4.265625 -11.546875 C 3.671875 -11.546875 3.191406 -11.382812 2.828125 -11.0625 C 2.460938 -10.75 2.28125 -10.328125 2.28125 -9.796875 L 0.65625 -9.796875 C 0.664062 -10.742188 1.003906 -11.507812 1.671875 -12.09375 C 2.335938 -12.675781 3.203125 -12.96875 4.265625 -12.96875 C 5.378906 -12.96875 6.242188 -12.671875 6.859375 -12.078125 C 7.472656 -11.484375 7.78125 -10.671875 7.78125 -9.640625 C 7.78125 -8.609375 7.304688 -7.59375 6.359375 -6.59375 L 5.40625 -5.65625 C 4.976562 -5.175781 4.765625 -4.492188 4.765625 -3.609375 Z M 3.0625 -0.8125 C 3.0625 -1.082031 3.140625 -1.304688 3.296875 -1.484375 C 3.460938 -1.660156 3.703125 -1.75 4.015625 -1.75 C 4.335938 -1.75 4.582031 -1.660156 4.75 -1.484375 C 4.914062 -1.304688 5 -1.082031 5 -0.8125 C 5 -0.550781 4.914062 -0.332031 4.75 -0.15625 C 4.582031 0.0078125 4.335938 0.09375 4.015625 0.09375 C 3.703125 0.09375 3.460938 0.0078125 3.296875 -0.15625 C 3.140625 -0.332031 3.0625 -0.550781 3.0625 -0.8125 Z M 3.0625 -0.8125 "/></g></g></g></svg>