<svg xmlns="http://www.w3.org/2000/svg" xmlns:xlink="http://www.w3.org/1999/xlink" width="500" zoomAndPan="magnify" viewBox="0 0 375 74.999997" height="100" preserveAspectRatio="xMidYMid meet" version="1.0"><defs><g/><clipPath id="318320b49b"><path d="M 324 17.53125 L 333.773438 17.53125 L 333.773438 35 L 324 35 Z M 324 17.53125 " clip-rule="nonzero"/></clipPath><clipPath id="f2c9243e5b"><path d="M 246 52 L 258 52 L 258 67.78125 L 246 67.78125 Z M 246 52 " clip-rule="nonzero"/></clipPath></defs><path fill="#000000" d="M 229.066406 23.726562 C 228.296875 23.871094 228.007812 24.453125 228.007812 24.914062 C 228.007812 25.492188 228.464844 25.6875 228.800781 25.6875 C 229.523438 25.6875 230.027344 25.058594 230.027344 24.402344 C 230.027344 23.386719 228.875 22.929688 227.863281 22.929688 C 226.398438 22.929688 225.582031 24.378906 225.367188 24.839844 C 224.8125 23.023438 223.324219 22.929688 222.890625 22.929688 C 220.4375 22.929688 219.140625 26.097656 219.140625 26.628906 C 219.140625 26.726562 219.238281 26.847656 219.40625 26.847656 C 219.597656 26.847656 219.644531 26.703125 219.695312 26.605469 C 220.511719 23.921875 222.121094 23.410156 222.820312 23.410156 C 223.898438 23.410156 224.117188 24.429688 224.117188 25.007812 C 224.117188 25.542969 223.972656 26.097656 223.683594 27.261719 L 222.867188 30.574219 C 222.507812 32.027344 221.808594 33.359375 220.535156 33.359375 C 220.414062 33.359375 219.816406 33.359375 219.308594 33.042969 C 220.175781 32.875 220.367188 32.148438 220.367188 31.859375 C 220.367188 31.375 220.007812 31.082031 219.550781 31.082031 C 218.972656 31.082031 218.347656 31.59375 218.347656 32.367188 C 218.347656 33.382812 219.476562 33.84375 220.511719 33.84375 C 221.664062 33.84375 222.480469 32.921875 222.988281 31.929688 C 223.371094 33.359375 224.574219 33.84375 225.460938 33.84375 C 227.914062 33.84375 229.210938 30.671875 229.210938 30.140625 C 229.210938 30.019531 229.113281 29.921875 228.96875 29.921875 C 228.753906 29.921875 228.730469 30.042969 228.65625 30.238281 C 228.007812 32.367188 226.613281 33.359375 225.535156 33.359375 C 224.691406 33.359375 224.234375 32.730469 224.234375 31.738281 C 224.234375 31.203125 224.332031 30.816406 224.714844 29.21875 L 225.558594 25.929688 C 225.917969 24.476562 226.734375 23.410156 227.839844 23.410156 C 227.890625 23.410156 228.5625 23.410156 229.066406 23.726562 Z M 229.066406 23.726562 " fill-opacity="1" fill-rule="nonzero"/><path fill="#000000" d="M 252.222656 28.035156 C 252.632812 28.035156 253.0625 28.035156 253.0625 27.550781 C 253.0625 27.066406 252.632812 27.066406 252.222656 27.066406 L 239.222656 27.066406 C 238.8125 27.066406 238.382812 27.066406 238.382812 27.550781 C 238.382812 28.035156 238.8125 28.035156 239.222656 28.035156 Z M 252.222656 28.035156 " fill-opacity="1" fill-rule="nonzero"/><path fill="#000000" d="M 266.738281 36.3125 C 266.089844 37.230469 265.152344 38.054688 263.972656 38.054688 C 263.6875 38.054688 262.53125 38.003906 262.171875 36.890625 C 262.242188 36.917969 262.363281 36.917969 262.410156 36.917969 C 263.132812 36.917969 263.613281 36.285156 263.613281 35.730469 C 263.613281 35.171875 263.15625 34.980469 262.796875 34.980469 C 262.410156 34.980469 261.570312 35.269531 261.570312 36.457031 C 261.570312 37.691406 262.605469 38.539062 263.972656 38.539062 C 266.378906 38.539062 268.804688 36.3125 269.476562 33.625 L 271.832031 24.1875 C 271.855469 24.066406 271.902344 23.921875 271.902344 23.773438 C 271.902344 23.410156 271.617188 23.167969 271.253906 23.167969 C 271.039062 23.167969 270.535156 23.265625 270.34375 23.992188 L 268.5625 31.109375 C 268.445312 31.542969 268.445312 31.59375 268.25 31.859375 C 267.769531 32.535156 266.976562 33.359375 265.824219 33.359375 C 264.480469 33.359375 264.359375 32.027344 264.359375 31.375 C 264.359375 29.996094 265.007812 28.132812 265.65625 26.386719 C 265.921875 25.6875 266.066406 25.347656 266.066406 24.863281 C 266.066406 23.847656 265.34375 22.929688 264.167969 22.929688 C 261.957031 22.929688 261.066406 26.4375 261.066406 26.628906 C 261.066406 26.726562 261.164062 26.847656 261.332031 26.847656 C 261.546875 26.847656 261.570312 26.75 261.667969 26.414062 C 262.242188 24.378906 263.15625 23.410156 264.09375 23.410156 C 264.308594 23.410156 264.71875 23.410156 264.71875 24.210938 C 264.71875 24.839844 264.453125 25.542969 264.09375 26.460938 C 262.917969 29.632812 262.917969 30.429688 262.917969 31.011719 C 262.917969 33.308594 264.550781 33.84375 265.753906 33.84375 C 266.449219 33.84375 267.3125 33.625 268.15625 32.730469 L 268.179688 32.753906 C 267.820312 34.179688 267.578125 35.125 266.738281 36.3125 Z M 266.738281 36.3125 " fill-opacity="1" fill-rule="nonzero"/><path fill="#000000" d="M 295.648438 25.757812 C 295.984375 25.757812 296.417969 25.757812 296.417969 25.324219 C 296.417969 24.863281 296.007812 24.863281 295.648438 24.863281 L 281.496094 24.863281 C 281.160156 24.863281 280.726562 24.863281 280.726562 25.300781 C 280.726562 25.757812 281.132812 25.757812 281.496094 25.757812 Z M 295.648438 30.261719 C 295.984375 30.261719 296.417969 30.261719 296.417969 29.824219 C 296.417969 29.367188 296.007812 29.367188 295.648438 29.367188 L 281.496094 29.367188 C 281.160156 29.367188 280.726562 29.367188 280.726562 29.800781 C 280.726562 30.261719 281.132812 30.261719 281.496094 30.261719 Z M 295.648438 30.261719 " fill-opacity="1" fill-rule="nonzero"/><path fill="#000000" d="M 320.238281 28.035156 C 320.648438 28.035156 321.082031 28.035156 321.082031 27.550781 C 321.082031 27.066406 320.648438 27.066406 320.238281 27.066406 L 307.238281 27.066406 C 306.832031 27.066406 306.398438 27.066406 306.398438 27.550781 C 306.398438 28.035156 306.832031 28.035156 307.238281 28.035156 Z M 320.238281 28.035156 " fill-opacity="1" fill-rule="nonzero"/><g clip-path="url(#318320b49b)"><path fill="#000000" d="M 326.171875 19.734375 C 327.203125 20.070312 328.042969 20.097656 328.308594 20.097656 C 331.023438 20.097656 332.753906 18.085938 332.753906 17.75 C 332.753906 17.652344 332.707031 17.53125 332.5625 17.53125 C 332.515625 17.53125 332.464844 17.53125 332.25 17.628906 C 330.90625 18.207031 329.75 18.28125 329.125 18.28125 C 327.539062 18.28125 326.410156 17.796875 325.953125 17.605469 C 325.785156 17.53125 325.738281 17.53125 325.714844 17.53125 C 325.523438 17.53125 325.523438 17.675781 325.523438 18.0625 L 325.523438 25.25 C 325.523438 25.6875 325.523438 25.832031 325.808594 25.832031 C 325.929688 25.832031 325.953125 25.808594 326.195312 25.515625 C 326.867188 24.523438 327.996094 23.945312 329.199219 23.945312 C 330.472656 23.945312 331.097656 25.128906 331.289062 25.542969 C 331.699219 26.484375 331.722656 27.671875 331.722656 28.589844 C 331.722656 29.511719 331.722656 30.890625 331.046875 31.980469 C 330.519531 32.851562 329.582031 33.457031 328.527344 33.457031 C 326.9375 33.457031 325.378906 32.367188 324.945312 30.601562 C 325.066406 30.648438 325.210938 30.671875 325.328125 30.671875 C 325.738281 30.671875 326.386719 30.429688 326.386719 29.605469 C 326.386719 28.929688 325.929688 28.542969 325.328125 28.542969 C 324.898438 28.542969 324.273438 28.761719 324.273438 29.703125 C 324.273438 31.761719 325.90625 34.109375 328.574219 34.109375 C 331.289062 34.109375 333.667969 31.808594 333.667969 28.734375 C 333.667969 25.855469 331.746094 23.460938 329.222656 23.460938 C 327.851562 23.460938 326.796875 24.066406 326.171875 24.742188 Z M 326.171875 19.734375 " fill-opacity="1" fill-rule="nonzero"/></g><path fill="#000000" d="M 193.773438 52.96875 C 193.003906 53.113281 192.714844 53.695312 192.714844 54.15625 C 192.714844 54.738281 193.171875 54.929688 193.507812 54.929688 C 194.230469 54.929688 194.734375 54.300781 194.734375 53.648438 C 194.734375 52.632812 193.578125 52.171875 192.570312 52.171875 C 191.105469 52.171875 190.289062 53.625 190.070312 54.082031 C 189.519531 52.269531 188.027344 52.171875 187.597656 52.171875 C 185.144531 52.171875 183.847656 55.339844 183.847656 55.875 C 183.847656 55.972656 183.945312 56.09375 184.113281 56.09375 C 184.304688 56.09375 184.351562 55.945312 184.398438 55.851562 C 185.21875 53.164062 186.828125 52.65625 187.523438 52.65625 C 188.605469 52.65625 188.820312 53.671875 188.820312 54.253906 C 188.820312 54.785156 188.675781 55.339844 188.390625 56.503906 L 187.570312 59.820312 C 187.210938 61.269531 186.515625 62.601562 185.242188 62.601562 C 185.121094 62.601562 184.519531 62.601562 184.015625 62.289062 C 184.878906 62.117188 185.074219 61.390625 185.074219 61.101562 C 185.074219 60.617188 184.710938 60.328125 184.257812 60.328125 C 183.679688 60.328125 183.054688 60.835938 183.054688 61.609375 C 183.054688 62.625 184.183594 63.085938 185.21875 63.085938 C 186.371094 63.085938 187.1875 62.167969 187.691406 61.175781 C 188.078125 62.601562 189.277344 63.085938 190.167969 63.085938 C 192.617188 63.085938 193.917969 59.914062 193.917969 59.382812 C 193.917969 59.261719 193.820312 59.164062 193.675781 59.164062 C 193.460938 59.164062 193.4375 59.285156 193.363281 59.480469 C 192.714844 61.609375 191.320312 62.601562 190.238281 62.601562 C 189.398438 62.601562 188.941406 61.972656 188.941406 60.980469 C 188.941406 60.449219 189.039062 60.0625 189.421875 58.464844 L 190.261719 55.171875 C 190.625 53.71875 191.441406 52.65625 192.546875 52.65625 C 192.59375 52.65625 193.265625 52.65625 193.773438 52.96875 Z M 193.773438 52.96875 " fill-opacity="1" fill-rule="nonzero"/><path fill="#000000" d="M 200.269531 49.5625 C 200.527344 49.320312 201.199219 48.785156 201.457031 48.558594 C 202.449219 47.640625 203.394531 46.753906 203.394531 45.285156 C 203.394531 43.363281 201.792969 42.121094 199.789062 42.121094 C 197.867188 42.121094 196.601562 43.589844 196.601562 45.027344 C 196.601562 45.816406 197.226562 45.929688 197.449219 45.929688 C 197.785156 45.929688 198.285156 45.6875 198.285156 45.074219 C 198.285156 44.238281 197.484375 44.238281 197.289062 44.238281 C 197.753906 43.058594 198.828125 42.65625 199.613281 42.65625 C 201.101562 42.65625 201.871094 43.929688 201.871094 45.285156 C 201.871094 46.964844 200.703125 48.1875 198.8125 50.140625 L 196.792969 52.238281 C 196.601562 52.417969 196.601562 52.449219 196.601562 52.851562 L 202.929688 52.851562 L 203.394531 49.964844 L 202.898438 49.964844 C 202.847656 50.285156 202.722656 51.09375 202.527344 51.398438 C 202.433594 51.527344 201.214844 51.527344 200.957031 51.527344 L 198.105469 51.527344 Z M 200.269531 49.5625 " fill-opacity="1" fill-rule="nonzero"/><path fill="#000000" d="M 220.191406 57.253906 L 226.824219 57.253906 C 227.160156 57.253906 227.59375 57.253906 227.59375 56.816406 C 227.59375 56.359375 227.183594 56.359375 226.824219 56.359375 L 220.191406 56.359375 L 220.191406 49.679688 C 220.191406 49.339844 220.191406 48.902344 219.761719 48.902344 C 219.304688 48.902344 219.304688 49.316406 219.304688 49.679688 L 219.304688 56.359375 L 212.671875 56.359375 C 212.335938 56.359375 211.902344 56.359375 211.902344 56.792969 C 211.902344 57.253906 212.3125 57.253906 212.671875 57.253906 L 219.304688 57.253906 L 219.304688 63.933594 C 219.304688 64.273438 219.304688 64.707031 219.734375 64.707031 C 220.191406 64.707031 220.191406 64.296875 220.191406 63.933594 Z M 220.191406 57.253906 " fill-opacity="1" fill-rule="nonzero"/><path fill="#000000" d="M 244.820312 58.777344 L 244.292969 58.777344 C 244.21875 59.191406 244.027344 60.519531 243.785156 60.90625 C 243.617188 61.125 242.25 61.125 241.527344 61.125 L 237.082031 61.125 C 237.730469 60.570312 239.195312 59.019531 239.820312 58.4375 C 243.472656 55.050781 244.820312 53.792969 244.820312 51.398438 C 244.820312 48.613281 242.632812 46.75 239.847656 46.75 C 237.058594 46.75 235.425781 49.144531 235.425781 51.226562 C 235.425781 52.460938 236.480469 52.460938 236.554688 52.460938 C 237.058594 52.460938 237.683594 52.097656 237.683594 51.324219 C 237.683594 50.648438 237.226562 50.1875 236.554688 50.1875 C 236.335938 50.1875 236.289062 50.1875 236.21875 50.210938 C 236.671875 48.566406 237.972656 47.453125 239.535156 47.453125 C 241.574219 47.453125 242.824219 49.171875 242.824219 51.398438 C 242.824219 53.453125 241.648438 55.246094 240.277344 56.792969 L 235.425781 62.261719 L 235.425781 62.84375 L 244.195312 62.84375 Z M 244.820312 58.777344 " fill-opacity="1" fill-rule="nonzero"/><g clip-path="url(#f2c9243e5b)"><path fill="#000000" d="M 252.332031 65.554688 C 251.683594 66.472656 250.746094 67.296875 249.566406 67.296875 C 249.28125 67.296875 248.125 67.25 247.765625 66.136719 C 247.835938 66.160156 247.957031 66.160156 248.007812 66.160156 C 248.726562 66.160156 249.207031 65.53125 249.207031 64.972656 C 249.207031 64.417969 248.75 64.222656 248.390625 64.222656 C 248.007812 64.222656 247.164062 64.515625 247.164062 65.699219 C 247.164062 66.933594 248.199219 67.78125 249.566406 67.78125 C 251.972656 67.78125 254.398438 65.554688 255.070312 62.867188 L 257.425781 53.429688 C 257.449219 53.308594 257.496094 53.164062 257.496094 53.019531 C 257.496094 52.65625 257.210938 52.414062 256.847656 52.414062 C 256.632812 52.414062 256.128906 52.511719 255.9375 53.234375 L 254.15625 60.351562 C 254.039062 60.785156 254.039062 60.835938 253.84375 61.101562 C 253.363281 61.777344 252.570312 62.601562 251.417969 62.601562 C 250.074219 62.601562 249.953125 61.269531 249.953125 60.617188 C 249.953125 59.238281 250.601562 57.375 251.25 55.632812 C 251.515625 54.929688 251.660156 54.589844 251.660156 54.109375 C 251.660156 53.089844 250.9375 52.171875 249.761719 52.171875 C 247.550781 52.171875 246.660156 55.679688 246.660156 55.875 C 246.660156 55.972656 246.757812 56.09375 246.925781 56.09375 C 247.140625 56.09375 247.164062 55.996094 247.261719 55.65625 C 247.835938 53.625 248.75 52.65625 249.6875 52.65625 C 249.90625 52.65625 250.3125 52.65625 250.3125 53.453125 C 250.3125 54.082031 250.046875 54.785156 249.6875 55.703125 C 248.511719 58.875 248.511719 59.671875 248.511719 60.253906 C 248.511719 62.554688 250.144531 63.085938 251.347656 63.085938 C 252.042969 63.085938 252.90625 62.867188 253.75 61.972656 L 253.773438 61.996094 C 253.414062 63.425781 253.171875 64.367188 252.332031 65.554688 Z M 252.332031 65.554688 " fill-opacity="1" fill-rule="nonzero"/></g><path fill="#000000" d="M 281.242188 55.003906 C 281.578125 55.003906 282.011719 55.003906 282.011719 54.566406 C 282.011719 54.109375 281.601562 54.109375 281.242188 54.109375 L 267.085938 54.109375 C 266.75 54.109375 266.316406 54.109375 266.316406 54.542969 C 266.316406 55.003906 266.726562 55.003906 267.085938 55.003906 Z M 281.242188 59.503906 C 281.578125 59.503906 282.011719 59.503906 282.011719 59.070312 C 282.011719 58.609375 281.601562 58.609375 281.242188 58.609375 L 267.085938 58.609375 C 266.75 58.609375 266.316406 58.609375 266.316406 59.042969 C 266.316406 59.503906 266.726562 59.503906 267.085938 59.503906 Z M 281.242188 59.503906 " fill-opacity="1" fill-rule="nonzero"/><path fill="#000000" d="M 296.917969 47.332031 C 296.917969 46.773438 296.917969 46.75 296.4375 46.75 C 295.859375 47.402344 294.660156 48.300781 292.183594 48.300781 L 292.183594 49 C 292.738281 49 293.9375 49 295.261719 48.371094 L 295.261719 60.980469 C 295.261719 61.851562 295.1875 62.140625 293.074219 62.140625 L 292.328125 62.140625 L 292.328125 62.84375 C 292.976562 62.796875 295.308594 62.796875 296.101562 62.796875 C 296.894531 62.796875 299.199219 62.796875 299.851562 62.84375 L 299.851562 62.140625 L 299.105469 62.140625 C 296.988281 62.140625 296.917969 61.851562 296.917969 60.980469 Z M 296.917969 47.332031 " fill-opacity="1" fill-rule="nonzero"/><path fill="#000000" d="M 312.527344 55.101562 C 312.527344 53.089844 312.40625 51.128906 311.542969 49.292969 C 310.558594 47.28125 308.828125 46.75 307.648438 46.75 C 306.253906 46.75 304.550781 47.453125 303.660156 49.460938 C 302.988281 50.984375 302.746094 52.484375 302.746094 55.101562 C 302.746094 57.445312 302.914062 59.214844 303.78125 60.933594 C 304.71875 62.769531 306.375 63.351562 307.625 63.351562 C 309.714844 63.351562 310.917969 62.09375 311.613281 60.691406 C 312.480469 58.875 312.527344 56.503906 312.527344 55.101562 Z M 307.625 62.867188 C 306.855469 62.867188 305.292969 62.433594 304.835938 59.792969 C 304.574219 58.34375 304.574219 56.503906 304.574219 54.808594 C 304.574219 52.824219 304.574219 51.035156 304.957031 49.605469 C 305.367188 47.984375 306.59375 47.234375 307.625 47.234375 C 308.539062 47.234375 309.933594 47.789062 310.390625 49.871094 C 310.703125 51.25 310.703125 53.164062 310.703125 54.808594 C 310.703125 56.429688 310.703125 58.269531 310.4375 59.746094 C 309.980469 62.410156 308.464844 62.867188 307.625 62.867188 Z M 307.625 62.867188 " fill-opacity="1" fill-rule="nonzero"/><g fill="#17191a" fill-opacity="1"><g transform="translate(15.000006, 31.200004)"><g><path d="M 9.453125 0 L 1.0625 0 L 1.0625 -1.171875 L 5.5 -6.09375 C 6.15625 -6.832031 6.601562 -7.4375 6.84375 -7.90625 C 7.09375 -8.375 7.21875 -8.859375 7.21875 -9.359375 C 7.21875 -10.023438 7.015625 -10.570312 6.609375 -11 C 6.210938 -11.425781 5.675781 -11.640625 5 -11.640625 C 4.1875 -11.640625 3.554688 -11.40625 3.109375 -10.9375 C 2.660156 -10.476562 2.4375 -9.84375 2.4375 -9.03125 L 0.8125 -9.03125 C 0.8125 -10.207031 1.191406 -11.15625 1.953125 -11.875 C 2.710938 -12.601562 3.726562 -12.96875 5 -12.96875 C 6.1875 -12.96875 7.125 -12.65625 7.8125 -12.03125 C 8.507812 -11.40625 8.859375 -10.578125 8.859375 -9.546875 C 8.859375 -8.285156 8.054688 -6.785156 6.453125 -5.046875 L 3.03125 -1.328125 L 9.453125 -1.328125 Z M 9.453125 0 "/></g></g></g><g fill="#17191a" fill-opacity="1"><g transform="translate(25.100847, 31.200004)"><g><path d="M 4.984375 -5.109375 C 4.984375 -3.796875 4.8125 -2.539062 4.46875 -1.34375 C 4.125 -0.144531 3.597656 0.957031 2.890625 1.96875 C 2.191406 2.976562 1.453125 3.695312 0.671875 4.125 L 0.328125 3.140625 C 1.234375 2.441406 1.957031 1.367188 2.5 -0.078125 C 3.050781 -1.535156 3.332031 -3.15625 3.34375 -4.9375 L 3.34375 -5.21875 C 3.34375 -6.445312 3.210938 -7.585938 2.953125 -8.640625 C 2.703125 -9.703125 2.347656 -10.648438 1.890625 -11.484375 C 1.429688 -12.328125 0.910156 -12.984375 0.328125 -13.453125 L 0.671875 -14.4375 C 1.453125 -14.007812 2.191406 -13.296875 2.890625 -12.296875 C 3.585938 -11.296875 4.109375 -10.191406 4.453125 -8.984375 C 4.804688 -7.773438 4.984375 -6.484375 4.984375 -5.109375 Z M 4.984375 -5.109375 "/></g></g></g><g fill="#17191a" fill-opacity="1"><g transform="translate(31.354585, 31.200004)"><g/></g></g><g fill="#17191a" fill-opacity="1"><g transform="translate(35.807744, 31.200004)"><g><path d="M 6.171875 -5.171875 L 3.171875 -5.171875 L 3.171875 0 L 1.484375 0 L 1.484375 -12.796875 L 5.71875 -12.796875 C 7.15625 -12.796875 8.257812 -12.46875 9.03125 -11.8125 C 9.8125 -11.15625 10.203125 -10.203125 10.203125 -8.953125 C 10.203125 -8.148438 9.984375 -7.453125 9.546875 -6.859375 C 9.117188 -6.273438 8.523438 -5.832031 7.765625 -5.53125 L 10.765625 -0.109375 L 10.765625 0 L 8.953125 0 Z M 3.171875 -6.5625 L 5.765625 -6.5625 C 6.597656 -6.5625 7.265625 -6.773438 7.765625 -7.203125 C 8.265625 -7.640625 8.515625 -8.222656 8.515625 -8.953125 C 8.515625 -9.742188 8.273438 -10.347656 7.796875 -10.765625 C 7.328125 -11.191406 6.644531 -11.40625 5.75 -11.40625 L 3.171875 -11.40625 Z M 3.171875 -6.5625 "/></g></g></g><g fill="#17191a" fill-opacity="1"><g transform="translate(46.883541, 31.200004)"><g><path d="M 3 0 L 1.375 0 L 1.375 -9.515625 L 3 -9.515625 Z M 1.234375 -12.03125 C 1.234375 -12.289062 1.3125 -12.507812 1.46875 -12.6875 C 1.632812 -12.875 1.875 -12.96875 2.1875 -12.96875 C 2.507812 -12.96875 2.753906 -12.875 2.921875 -12.6875 C 3.085938 -12.507812 3.171875 -12.289062 3.171875 -12.03125 C 3.171875 -11.769531 3.085938 -11.550781 2.921875 -11.375 C 2.753906 -11.195312 2.507812 -11.109375 2.1875 -11.109375 C 1.875 -11.109375 1.632812 -11.195312 1.46875 -11.375 C 1.3125 -11.550781 1.234375 -11.769531 1.234375 -12.03125 Z M 1.234375 -12.03125 "/></g></g></g><g fill="#17191a" fill-opacity="1"><g transform="translate(51.248867, 31.200004)"><g><path d="M 2.90625 -9.515625 L 2.90625 1.09375 C 2.90625 2.925781 2.078125 3.84375 0.421875 3.84375 C 0.0664062 3.84375 -0.265625 3.789062 -0.578125 3.6875 L -0.578125 2.375 C -0.390625 2.425781 -0.140625 2.453125 0.171875 2.453125 C 0.535156 2.453125 0.8125 2.351562 1 2.15625 C 1.1875 1.957031 1.28125 1.617188 1.28125 1.140625 L 1.28125 -9.515625 Z M 1.109375 -12.03125 C 1.109375 -12.289062 1.1875 -12.507812 1.34375 -12.6875 C 1.507812 -12.875 1.75 -12.96875 2.0625 -12.96875 C 2.382812 -12.96875 2.625 -12.875 2.78125 -12.6875 C 2.945312 -12.507812 3.03125 -12.289062 3.03125 -12.03125 C 3.03125 -11.769531 2.945312 -11.550781 2.78125 -11.375 C 2.625 -11.195312 2.382812 -11.109375 2.0625 -11.109375 C 1.75 -11.109375 1.507812 -11.195312 1.34375 -11.375 C 1.1875 -11.550781 1.109375 -11.769531 1.109375 -12.03125 Z M 1.109375 -12.03125 "/></g></g></g><g fill="#17191a" fill-opacity="1"><g transform="translate(55.543925, 31.200004)"><g><path d="M 5.171875 0.171875 C 3.890625 0.171875 2.84375 -0.25 2.03125 -1.09375 C 1.21875 -1.9375 0.8125 -3.066406 0.8125 -4.484375 L 0.8125 -4.796875 C 0.8125 -5.734375 0.992188 -6.570312 1.359375 -7.3125 C 1.722656 -8.050781 2.226562 -8.628906 2.875 -9.046875 C 3.519531 -9.472656 4.21875 -9.6875 4.96875 -9.6875 C 6.207031 -9.6875 7.171875 -9.28125 7.859375 -8.46875 C 8.546875 -7.65625 8.890625 -6.488281 8.890625 -4.96875 L 8.890625 -4.296875 L 2.4375 -4.296875 C 2.46875 -3.359375 2.742188 -2.597656 3.265625 -2.015625 C 3.785156 -1.441406 4.453125 -1.15625 5.265625 -1.15625 C 5.835938 -1.15625 6.320312 -1.269531 6.71875 -1.5 C 7.125 -1.738281 7.472656 -2.050781 7.765625 -2.4375 L 8.765625 -1.65625 C 7.960938 -0.4375 6.765625 0.171875 5.171875 0.171875 Z M 4.96875 -8.34375 C 4.3125 -8.34375 3.757812 -8.101562 3.3125 -7.625 C 2.875 -7.15625 2.601562 -6.488281 2.5 -5.625 L 7.265625 -5.625 L 7.265625 -5.75 C 7.210938 -6.570312 6.988281 -7.207031 6.59375 -7.65625 C 6.195312 -8.113281 5.65625 -8.34375 4.96875 -8.34375 Z M 4.96875 -8.34375 "/></g></g></g><g fill="#17191a" fill-opacity="1"><g transform="translate(65.073855, 31.200004)"><g><path d="M 6.765625 -2.515625 C 6.765625 -2.960938 6.597656 -3.304688 6.265625 -3.546875 C 5.941406 -3.785156 5.367188 -3.992188 4.546875 -4.171875 C 3.722656 -4.347656 3.066406 -4.554688 2.578125 -4.796875 C 2.097656 -5.046875 1.738281 -5.34375 1.5 -5.6875 C 1.269531 -6.03125 1.15625 -6.4375 1.15625 -6.90625 C 1.15625 -7.675781 1.484375 -8.332031 2.140625 -8.875 C 2.804688 -9.414062 3.648438 -9.6875 4.671875 -9.6875 C 5.753906 -9.6875 6.628906 -9.40625 7.296875 -8.84375 C 7.972656 -8.289062 8.3125 -7.582031 8.3125 -6.71875 L 6.671875 -6.71875 C 6.671875 -7.164062 6.476562 -7.546875 6.09375 -7.859375 C 5.71875 -8.179688 5.242188 -8.34375 4.671875 -8.34375 C 4.078125 -8.34375 3.613281 -8.210938 3.28125 -7.953125 C 2.945312 -7.703125 2.78125 -7.367188 2.78125 -6.953125 C 2.78125 -6.554688 2.9375 -6.257812 3.25 -6.0625 C 3.5625 -5.863281 4.125 -5.671875 4.9375 -5.484375 C 5.75 -5.304688 6.40625 -5.09375 6.90625 -4.84375 C 7.414062 -4.59375 7.789062 -4.289062 8.03125 -3.9375 C 8.269531 -3.582031 8.390625 -3.148438 8.390625 -2.640625 C 8.390625 -1.785156 8.050781 -1.101562 7.375 -0.59375 C 6.695312 -0.0820312 5.816406 0.171875 4.734375 0.171875 C 3.972656 0.171875 3.296875 0.0351562 2.703125 -0.234375 C 2.117188 -0.503906 1.660156 -0.878906 1.328125 -1.359375 C 0.992188 -1.835938 0.828125 -2.359375 0.828125 -2.921875 L 2.46875 -2.921875 C 2.488281 -2.378906 2.703125 -1.945312 3.109375 -1.625 C 3.523438 -1.3125 4.066406 -1.15625 4.734375 -1.15625 C 5.347656 -1.15625 5.835938 -1.28125 6.203125 -1.53125 C 6.578125 -1.78125 6.765625 -2.109375 6.765625 -2.515625 Z M 4.9375 -12.015625 L 6.25 -13.5 L 7.65625 -13.5 L 7.65625 -13.421875 L 5.421875 -11.015625 L 4.4375 -11.015625 L 2.21875 -13.421875 L 2.21875 -13.5 L 3.609375 -13.5 Z M 4.9375 -12.015625 "/></g></g></g><g fill="#17191a" fill-opacity="1"><g transform="translate(74.349062, 31.200004)"><g><path d="M 3 0 L 1.375 0 L 1.375 -9.515625 L 3 -9.515625 Z M 1.234375 -12.03125 C 1.234375 -12.289062 1.3125 -12.507812 1.46875 -12.6875 C 1.632812 -12.875 1.875 -12.96875 2.1875 -12.96875 C 2.507812 -12.96875 2.753906 -12.875 2.921875 -12.6875 C 3.085938 -12.507812 3.171875 -12.289062 3.171875 -12.03125 C 3.171875 -11.769531 3.085938 -11.550781 2.921875 -11.375 C 2.753906 -11.195312 2.507812 -11.109375 2.1875 -11.109375 C 1.875 -11.109375 1.632812 -11.195312 1.46875 -11.375 C 1.3125 -11.550781 1.234375 -11.769531 1.234375 -12.03125 Z M 1.234375 -12.03125 "/></g></g></g><g fill="#17191a" fill-opacity="1"><g transform="translate(78.714387, 31.200004)"><g/></g></g><g fill="#17191a" fill-opacity="1"><g transform="translate(83.167546, 31.200004)"><g><path d="M 6.765625 -2.515625 C 6.765625 -2.960938 6.597656 -3.304688 6.265625 -3.546875 C 5.941406 -3.785156 5.367188 -3.992188 4.546875 -4.171875 C 3.722656 -4.347656 3.066406 -4.554688 2.578125 -4.796875 C 2.097656 -5.046875 1.738281 -5.34375 1.5 -5.6875 C 1.269531 -6.03125 1.15625 -6.4375 1.15625 -6.90625 C 1.15625 -7.675781 1.484375 -8.332031 2.140625 -8.875 C 2.804688 -9.414062 3.648438 -9.6875 4.671875 -9.6875 C 5.753906 -9.6875 6.628906 -9.40625 7.296875 -8.84375 C 7.972656 -8.289062 8.3125 -7.582031 8.3125 -6.71875 L 6.671875 -6.71875 C 6.671875 -7.164062 6.476562 -7.546875 6.09375 -7.859375 C 5.71875 -8.179688 5.242188 -8.34375 4.671875 -8.34375 C 4.078125 -8.34375 3.613281 -8.210938 3.28125 -7.953125 C 2.945312 -7.703125 2.78125 -7.367188 2.78125 -6.953125 C 2.78125 -6.554688 2.9375 -6.257812 3.25 -6.0625 C 3.5625 -5.863281 4.125 -5.671875 4.9375 -5.484375 C 5.75 -5.304688 6.40625 -5.09375 6.90625 -4.84375 C 7.414062 -4.59375 7.789062 -4.289062 8.03125 -3.9375 C 8.269531 -3.582031 8.390625 -3.148438 8.390625 -2.640625 C 8.390625 -1.785156 8.050781 -1.101562 7.375 -0.59375 C 6.695312 -0.0820312 5.816406 0.171875 4.734375 0.171875 C 3.972656 0.171875 3.296875 0.0351562 2.703125 -0.234375 C 2.117188 -0.503906 1.660156 -0.878906 1.328125 -1.359375 C 0.992188 -1.835938 0.828125 -2.359375 0.828125 -2.921875 L 2.46875 -2.921875 C 2.488281 -2.378906 2.703125 -1.945312 3.109375 -1.625 C 3.523438 -1.3125 4.066406 -1.15625 4.734375 -1.15625 C 5.347656 -1.15625 5.835938 -1.28125 6.203125 -1.53125 C 6.578125 -1.78125 6.765625 -2.109375 6.765625 -2.515625 Z M 6.765625 -2.515625 "/></g></g></g><g fill="#17191a" fill-opacity="1"><g transform="translate(92.442753, 31.200004)"><g><path d="M 7.109375 -0.9375 C 6.472656 -0.195312 5.539062 0.171875 4.3125 0.171875 C 3.300781 0.171875 2.53125 -0.117188 2 -0.703125 C 1.46875 -1.296875 1.203125 -2.171875 1.203125 -3.328125 L 1.203125 -9.515625 L 2.828125 -9.515625 L 2.828125 -3.359375 C 2.828125 -1.921875 3.410156 -1.203125 4.578125 -1.203125 C 5.816406 -1.203125 6.644531 -1.664062 7.0625 -2.59375 L 7.0625 -9.515625 L 8.6875 -9.515625 L 8.6875 0 L 7.140625 0 Z M 7.109375 -0.9375 "/></g></g></g><g fill="#17191a" fill-opacity="1"><g transform="translate(102.359149, 31.200004)"><g><path d="M 6.765625 -2.515625 C 6.765625 -2.960938 6.597656 -3.304688 6.265625 -3.546875 C 5.941406 -3.785156 5.367188 -3.992188 4.546875 -4.171875 C 3.722656 -4.347656 3.066406 -4.554688 2.578125 -4.796875 C 2.097656 -5.046875 1.738281 -5.34375 1.5 -5.6875 C 1.269531 -6.03125 1.15625 -6.4375 1.15625 -6.90625 C 1.15625 -7.675781 1.484375 -8.332031 2.140625 -8.875 C 2.804688 -9.414062 3.648438 -9.6875 4.671875 -9.6875 C 5.753906 -9.6875 6.628906 -9.40625 7.296875 -8.84375 C 7.972656 -8.289062 8.3125 -7.582031 8.3125 -6.71875 L 6.671875 -6.71875 C 6.671875 -7.164062 6.476562 -7.546875 6.09375 -7.859375 C 5.71875 -8.179688 5.242188 -8.34375 4.671875 -8.34375 C 4.078125 -8.34375 3.613281 -8.210938 3.28125 -7.953125 C 2.945312 -7.703125 2.78125 -7.367188 2.78125 -6.953125 C 2.78125 -6.554688 2.9375 -6.257812 3.25 -6.0625 C 3.5625 -5.863281 4.125 -5.671875 4.9375 -5.484375 C 5.75 -5.304688 6.40625 -5.09375 6.90625 -4.84375 C 7.414062 -4.59375 7.789062 -4.289062 8.03125 -3.9375 C 8.269531 -3.582031 8.390625 -3.148438 8.390625 -2.640625 C 8.390625 -1.785156 8.050781 -1.101562 7.375 -0.59375 C 6.695312 -0.0820312 5.816406 0.171875 4.734375 0.171875 C 3.972656 0.171875 3.296875 0.0351562 2.703125 -0.234375 C 2.117188 -0.503906 1.660156 -0.878906 1.328125 -1.359375 C 0.992188 -1.835938 0.828125 -2.359375 0.828125 -2.921875 L 2.46875 -2.921875 C 2.488281 -2.378906 2.703125 -1.945312 3.109375 -1.625 C 3.523438 -1.3125 4.066406 -1.15625 4.734375 -1.15625 C 5.347656 -1.15625 5.835938 -1.28125 6.203125 -1.53125 C 6.578125 -1.78125 6.765625 -2.109375 6.765625 -2.515625 Z M 6.765625 -2.515625 "/></g></g></g><g fill="#17191a" fill-opacity="1"><g transform="translate(111.634356, 31.200004)"><g><path d="M 3.4375 -11.8125 L 3.4375 -9.515625 L 5.21875 -9.515625 L 5.21875 -8.25 L 3.4375 -8.25 L 3.4375 -2.359375 C 3.4375 -1.972656 3.515625 -1.6875 3.671875 -1.5 C 3.828125 -1.3125 4.097656 -1.21875 4.484375 -1.21875 C 4.671875 -1.21875 4.925781 -1.25 5.25 -1.3125 L 5.25 0 C 4.820312 0.113281 4.410156 0.171875 4.015625 0.171875 C 3.285156 0.171875 2.734375 -0.046875 2.359375 -0.484375 C 1.992188 -0.921875 1.8125 -1.546875 1.8125 -2.359375 L 1.8125 -8.25 L 0.078125 -8.25 L 0.078125 -9.515625 L 1.8125 -9.515625 L 1.8125 -11.8125 Z M 3.4375 -11.8125 "/></g></g></g><g fill="#17191a" fill-opacity="1"><g transform="translate(117.510416, 31.200004)"><g><path d="M 7.109375 0 C 7.015625 -0.1875 6.9375 -0.519531 6.875 -1 C 6.113281 -0.21875 5.210938 0.171875 4.171875 0.171875 C 3.234375 0.171875 2.460938 -0.09375 1.859375 -0.625 C 1.253906 -1.15625 0.953125 -1.828125 0.953125 -2.640625 C 0.953125 -3.628906 1.328125 -4.394531 2.078125 -4.9375 C 2.835938 -5.488281 3.898438 -5.765625 5.265625 -5.765625 L 6.84375 -5.765625 L 6.84375 -6.515625 C 6.84375 -7.078125 6.671875 -7.523438 6.328125 -7.859375 C 5.992188 -8.203125 5.492188 -8.375 4.828125 -8.375 C 4.253906 -8.375 3.769531 -8.226562 3.375 -7.9375 C 2.976562 -7.644531 2.78125 -7.289062 2.78125 -6.875 L 1.15625 -6.875 C 1.15625 -7.34375 1.320312 -7.796875 1.65625 -8.234375 C 1.988281 -8.679688 2.441406 -9.035156 3.015625 -9.296875 C 3.597656 -9.554688 4.238281 -9.6875 4.9375 -9.6875 C 6.03125 -9.6875 6.882812 -9.410156 7.5 -8.859375 C 8.125 -8.316406 8.445312 -7.5625 8.46875 -6.59375 L 8.46875 -2.21875 C 8.46875 -1.351562 8.582031 -0.660156 8.8125 -0.140625 L 8.8125 0 Z M 4.40625 -1.234375 C 4.914062 -1.234375 5.398438 -1.363281 5.859375 -1.625 C 6.316406 -1.894531 6.644531 -2.238281 6.84375 -2.65625 L 6.84375 -4.609375 L 5.578125 -4.609375 C 3.578125 -4.609375 2.578125 -4.023438 2.578125 -2.859375 C 2.578125 -2.347656 2.75 -1.945312 3.09375 -1.65625 C 3.4375 -1.375 3.875 -1.234375 4.40625 -1.234375 Z M 4.40625 -1.234375 "/></g></g></g><g fill="#17191a" fill-opacity="1"><g transform="translate(127.295057, 31.200004)"><g><path d="M 4.375 -2.203125 L 6.71875 -9.515625 L 8.390625 -9.515625 L 4.96875 0 L 3.734375 0 L 0.296875 -9.515625 L 1.953125 -9.515625 Z M 4.375 -2.203125 "/></g></g></g><g fill="#17191a" fill-opacity="1"><g transform="translate(136.00813, 31.200004)"><g><path d="M 1.171875 -0.859375 C 1.171875 -1.140625 1.253906 -1.375 1.421875 -1.5625 C 1.585938 -1.75 1.835938 -1.84375 2.171875 -1.84375 C 2.503906 -1.84375 2.753906 -1.75 2.921875 -1.5625 C 3.097656 -1.375 3.1875 -1.140625 3.1875 -0.859375 C 3.1875 -0.585938 3.097656 -0.359375 2.921875 -0.171875 C 2.753906 0.00390625 2.503906 0.09375 2.171875 0.09375 C 1.835938 0.09375 1.585938 0.00390625 1.421875 -0.171875 C 1.253906 -0.359375 1.171875 -0.585938 1.171875 -0.859375 Z M 1.1875 -8.625 C 1.1875 -8.90625 1.269531 -9.140625 1.4375 -9.328125 C 1.601562 -9.515625 1.851562 -9.609375 2.1875 -9.609375 C 2.519531 -9.609375 2.769531 -9.515625 2.9375 -9.328125 C 3.113281 -9.140625 3.203125 -8.90625 3.203125 -8.625 C 3.203125 -8.351562 3.113281 -8.125 2.9375 -7.9375 C 2.769531 -7.757812 2.519531 -7.671875 2.1875 -7.671875 C 1.851562 -7.671875 1.601562 -7.757812 1.4375 -7.9375 C 1.269531 -8.125 1.1875 -8.351562 1.1875 -8.625 Z M 1.1875 -8.625 "/></g></g></g></svg>