<svg xmlns="http://www.w3.org/2000/svg" xmlns:xlink="http://www.w3.org/1999/xlink" width="500" zoomAndPan="magnify" viewBox="0 0 375 74.999997" height="100" preserveAspectRatio="xMidYMid meet" version="1.0"><defs><clipPath id="8c9a714fae"><path d="M 170 7.5 L 182 7.5 L 182 26 L 170 26 Z M 170 7.5 " clip-rule="nonzero"/></clipPath><clipPath id="228615bf86"><path d="M 252 7.5 L 262.5 7.5 L 262.5 26 L 252 26 Z M 252 7.5 " clip-rule="nonzero"/></clipPath><clipPath id="0f80e94f47"><path d="M 102.1875 50 L 116 50 L 116 63 L 102.1875 63 Z M 102.1875 50 " clip-rule="nonzero"/></clipPath><clipPath id="488e8aeb32"><path d="M 206 50 L 219 50 L 219 67.5 L 206 67.5 Z M 206 50 " clip-rule="nonzero"/></clipPath><clipPath id="fc3e1ef059"><path d="M 262 45 L 273.1875 45 L 273.1875 63 L 262 63 Z M 262 45 " clip-rule="nonzero"/></clipPath></defs><path fill="#a8180f" d="M 124.460938 14.269531 C 123.652344 14.421875 123.347656 15.027344 123.347656 15.503906 C 123.347656 16.113281 123.828125 16.3125 124.183594 16.3125 C 124.9375 16.3125 125.46875 15.65625 125.46875 14.976562 C 125.46875 13.917969 124.257812 13.4375 123.199219 13.4375 C 121.660156 13.4375 120.800781 14.949219 120.574219 15.429688 C 119.992188 13.539062 118.429688 13.4375 117.976562 13.4375 C 115.402344 13.4375 114.039062 16.742188 114.039062 17.296875 C 114.039062 17.398438 114.140625 17.523438 114.316406 17.523438 C 114.519531 17.523438 114.570312 17.371094 114.617188 17.273438 C 115.476562 14.472656 117.167969 13.941406 117.898438 13.941406 C 119.035156 13.941406 119.261719 15 119.261719 15.605469 C 119.261719 16.160156 119.109375 16.742188 118.808594 17.953125 L 117.949219 21.410156 C 117.570312 22.925781 116.839844 24.3125 115.503906 24.3125 C 115.375 24.3125 114.746094 24.3125 114.214844 23.984375 C 115.125 23.808594 115.324219 23.050781 115.324219 22.746094 C 115.324219 22.242188 114.945312 21.941406 114.46875 21.941406 C 113.863281 21.941406 113.207031 22.46875 113.207031 23.277344 C 113.207031 24.335938 114.390625 24.816406 115.476562 24.816406 C 116.6875 24.816406 117.546875 23.859375 118.074219 22.824219 C 118.480469 24.3125 119.742188 24.816406 120.675781 24.816406 C 123.25 24.816406 124.609375 21.511719 124.609375 20.957031 C 124.609375 20.828125 124.511719 20.730469 124.359375 20.730469 C 124.132812 20.730469 124.105469 20.855469 124.03125 21.058594 C 123.347656 23.277344 121.886719 24.3125 120.75 24.3125 C 119.867188 24.3125 119.386719 23.65625 119.386719 22.621094 C 119.386719 22.066406 119.488281 21.664062 119.890625 19.996094 L 120.777344 16.566406 C 121.152344 15.050781 122.011719 13.941406 123.171875 13.941406 C 123.222656 13.941406 123.929688 13.941406 124.460938 14.269531 Z M 124.460938 14.269531 " fill-opacity="1" fill-rule="nonzero"/><path fill="#a8180f" d="M 131.820312 17.636719 C 131.820312 17.179688 131.785156 17.164062 131.332031 17.164062 C 130.644531 17.835938 129.75 18.242188 128.152344 18.242188 L 128.152344 18.796875 C 128.609375 18.796875 129.515625 18.796875 130.492188 18.339844 L 130.492188 26.972656 C 130.492188 27.59375 130.441406 27.796875 128.84375 27.796875 L 128.253906 27.796875 L 128.253906 28.351562 C 128.945312 28.300781 130.390625 28.300781 131.148438 28.300781 C 131.90625 28.300781 133.367188 28.300781 134.058594 28.351562 L 134.058594 27.796875 L 133.46875 27.796875 C 131.871094 27.796875 131.820312 27.59375 131.820312 26.972656 Z M 131.820312 17.636719 " fill-opacity="1" fill-rule="nonzero"/><path fill="#a8180f" d="M 160.566406 16.390625 C 160.917969 16.390625 161.375 16.390625 161.375 15.933594 C 161.375 15.457031 160.945312 15.457031 160.566406 15.457031 L 145.703125 15.457031 C 145.351562 15.457031 144.898438 15.457031 144.898438 15.910156 C 144.898438 16.390625 145.328125 16.390625 145.703125 16.390625 Z M 160.566406 21.082031 C 160.917969 21.082031 161.375 21.082031 161.375 20.628906 C 161.375 20.148438 160.945312 20.148438 160.566406 20.148438 L 145.703125 20.148438 C 145.351562 20.148438 144.898438 20.148438 144.898438 20.601562 C 144.898438 21.082031 145.328125 21.082031 145.703125 21.082031 Z M 160.566406 21.082031 " fill-opacity="1" fill-rule="nonzero"/><g clip-path="url(#8c9a714fae)"><path fill="#a8180f" d="M 181.066406 16.488281 C 181.066406 14.394531 180.9375 12.351562 180.03125 10.433594 C 178.996094 8.339844 177.179688 7.785156 175.941406 7.785156 C 174.480469 7.785156 172.6875 8.515625 171.753906 10.609375 C 171.046875 12.199219 170.796875 13.765625 170.796875 16.488281 C 170.796875 18.9375 170.972656 20.777344 171.878906 22.570312 C 172.863281 24.488281 174.605469 25.09375 175.917969 25.09375 C 178.113281 25.09375 179.375 23.78125 180.105469 22.320312 C 181.015625 20.425781 181.066406 17.953125 181.066406 16.488281 Z M 175.917969 24.589844 C 175.109375 24.589844 173.46875 24.136719 172.992188 21.386719 C 172.710938 19.871094 172.710938 17.953125 172.710938 16.1875 C 172.710938 14.117188 172.710938 12.25 173.117188 10.761719 C 173.546875 9.070312 174.832031 8.289062 175.917969 8.289062 C 176.875 8.289062 178.339844 8.871094 178.820312 11.039062 C 179.148438 12.476562 179.148438 14.472656 179.148438 16.1875 C 179.148438 17.878906 179.148438 19.796875 178.871094 21.335938 C 178.390625 24.109375 176.800781 24.589844 175.917969 24.589844 Z M 175.917969 24.589844 " fill-opacity="1" fill-rule="nonzero"/></g><path fill="#a8180f" d="M 202.769531 27.390625 C 202.085938 28.347656 201.101562 29.207031 199.867188 29.207031 C 199.5625 29.207031 198.351562 29.15625 197.972656 27.996094 C 198.050781 28.019531 198.175781 28.019531 198.226562 28.019531 C 198.984375 28.019531 199.488281 27.363281 199.488281 26.785156 C 199.488281 26.203125 199.007812 26.003906 198.628906 26.003906 C 198.226562 26.003906 197.34375 26.304688 197.34375 27.542969 C 197.34375 28.828125 198.429688 29.710938 199.867188 29.710938 C 202.390625 29.710938 204.9375 27.390625 205.644531 24.589844 L 208.117188 14.75 C 208.140625 14.621094 208.191406 14.472656 208.191406 14.320312 C 208.191406 13.941406 207.890625 13.6875 207.511719 13.6875 C 207.285156 13.6875 206.753906 13.789062 206.550781 14.546875 L 204.683594 21.964844 C 204.558594 22.417969 204.558594 22.46875 204.359375 22.746094 C 203.851562 23.453125 203.019531 24.3125 201.808594 24.3125 C 200.394531 24.3125 200.269531 22.925781 200.269531 22.242188 C 200.269531 20.804688 200.953125 18.863281 201.632812 17.046875 C 201.910156 16.3125 202.0625 15.960938 202.0625 15.457031 C 202.0625 14.394531 201.304688 13.4375 200.066406 13.4375 C 197.746094 13.4375 196.8125 17.09375 196.8125 17.296875 C 196.8125 17.398438 196.914062 17.523438 197.089844 17.523438 C 197.316406 17.523438 197.34375 17.421875 197.445312 17.070312 C 198.050781 14.949219 199.007812 13.941406 199.992188 13.941406 C 200.21875 13.941406 200.648438 13.941406 200.648438 14.773438 C 200.648438 15.429688 200.371094 16.160156 199.992188 17.121094 C 198.757812 20.425781 198.757812 21.257812 198.757812 21.863281 C 198.757812 24.261719 200.472656 24.816406 201.734375 24.816406 C 202.464844 24.816406 203.375 24.589844 204.257812 23.65625 L 204.28125 23.679688 C 203.902344 25.167969 203.652344 26.152344 202.769531 27.390625 Z M 202.769531 27.390625 " fill-opacity="1" fill-rule="nonzero"/><path fill="#a8180f" d="M 213.457031 17.636719 C 213.457031 17.179688 213.425781 17.164062 212.972656 17.164062 C 212.28125 17.835938 211.390625 18.242188 209.792969 18.242188 L 209.792969 18.796875 C 210.246094 18.796875 211.152344 18.796875 212.128906 18.339844 L 212.128906 26.972656 C 212.128906 27.59375 212.078125 27.796875 210.480469 27.796875 L 209.890625 27.796875 L 209.890625 28.351562 C 210.582031 28.300781 212.027344 28.300781 212.785156 28.300781 C 213.542969 28.300781 215.007812 28.300781 215.695312 28.351562 L 215.695312 27.796875 L 215.105469 27.796875 C 213.507812 27.796875 213.457031 27.59375 213.457031 26.972656 Z M 213.457031 17.636719 " fill-opacity="1" fill-rule="nonzero"/><path fill="#a8180f" d="M 242.203125 16.390625 C 242.558594 16.390625 243.011719 16.390625 243.011719 15.933594 C 243.011719 15.457031 242.582031 15.457031 242.203125 15.457031 L 227.34375 15.457031 C 226.988281 15.457031 226.535156 15.457031 226.535156 15.910156 C 226.535156 16.390625 226.964844 16.390625 227.34375 16.390625 Z M 242.203125 21.082031 C 242.558594 21.082031 243.011719 21.082031 243.011719 20.628906 C 243.011719 20.148438 242.582031 20.148438 242.203125 20.148438 L 227.34375 20.148438 C 226.988281 20.148438 226.535156 20.148438 226.535156 20.601562 C 226.535156 21.082031 226.964844 21.082031 227.34375 21.082031 Z M 242.203125 21.082031 " fill-opacity="1" fill-rule="nonzero"/><g clip-path="url(#228615bf86)"><path fill="#a8180f" d="M 254.628906 10.105469 C 255.714844 10.460938 256.597656 10.484375 256.875 10.484375 C 259.726562 10.484375 261.542969 8.390625 261.542969 8.039062 C 261.542969 7.9375 261.492188 7.808594 261.339844 7.808594 C 261.289062 7.808594 261.238281 7.808594 261.011719 7.910156 C 259.597656 8.515625 258.386719 8.59375 257.730469 8.59375 C 256.066406 8.59375 254.878906 8.085938 254.402344 7.886719 C 254.222656 7.808594 254.175781 7.808594 254.148438 7.808594 C 253.945312 7.808594 253.945312 7.960938 253.945312 8.363281 L 253.945312 15.859375 C 253.945312 16.3125 253.945312 16.464844 254.25 16.464844 C 254.375 16.464844 254.402344 16.4375 254.652344 16.136719 C 255.359375 15.101562 256.546875 14.496094 257.808594 14.496094 C 259.144531 14.496094 259.800781 15.734375 260.003906 16.160156 C 260.429688 17.144531 260.457031 18.382812 260.457031 19.339844 C 260.457031 20.300781 260.457031 21.738281 259.75 22.875 C 259.195312 23.78125 258.210938 24.414062 257.101562 24.414062 C 255.4375 24.414062 253.796875 23.277344 253.339844 21.433594 C 253.46875 21.484375 253.617188 21.511719 253.746094 21.511719 C 254.175781 21.511719 254.855469 21.257812 254.855469 20.402344 C 254.855469 19.695312 254.375 19.289062 253.746094 19.289062 C 253.289062 19.289062 252.636719 19.519531 252.636719 20.5 C 252.636719 22.644531 254.351562 25.09375 257.152344 25.09375 C 260.003906 25.09375 262.5 22.695312 262.5 19.492188 C 262.5 16.488281 260.480469 13.992188 257.832031 13.992188 C 256.394531 13.992188 255.285156 14.621094 254.628906 15.328125 Z M 254.628906 10.105469 " fill-opacity="1" fill-rule="nonzero"/></g><g clip-path="url(#0f80e94f47)"><path fill="#a8180f" d="M 114.230469 51.75 C 113.417969 51.902344 113.113281 52.507812 113.113281 52.992188 C 113.113281 53.597656 113.59375 53.800781 113.949219 53.800781 C 114.710938 53.800781 115.246094 53.144531 115.246094 52.457031 C 115.246094 51.394531 114.027344 50.910156 112.960938 50.910156 C 111.410156 50.910156 110.546875 52.433594 110.316406 52.914062 C 109.734375 51.011719 108.15625 50.910156 107.699219 50.910156 C 105.109375 50.910156 103.738281 54.234375 103.738281 54.789062 C 103.738281 54.890625 103.839844 55.019531 104.015625 55.019531 C 104.21875 55.019531 104.269531 54.867188 104.320312 54.765625 C 105.183594 51.953125 106.886719 51.417969 107.625 51.417969 C 108.765625 51.417969 108.996094 52.484375 108.996094 53.09375 C 108.996094 53.648438 108.84375 54.234375 108.539062 55.449219 L 107.675781 58.921875 C 107.292969 60.445312 106.558594 61.835938 105.210938 61.835938 C 105.082031 61.835938 104.449219 61.835938 103.914062 61.507812 C 104.828125 61.332031 105.03125 60.570312 105.03125 60.265625 C 105.03125 59.757812 104.652344 59.453125 104.167969 59.453125 C 103.558594 59.453125 102.898438 59.988281 102.898438 60.796875 C 102.898438 61.863281 104.09375 62.34375 105.183594 62.34375 C 106.40625 62.34375 107.269531 61.382812 107.800781 60.34375 C 108.207031 61.835938 109.476562 62.34375 110.417969 62.34375 C 113.011719 62.34375 114.382812 59.023438 114.382812 58.464844 C 114.382812 58.339844 114.28125 58.238281 114.128906 58.238281 C 113.898438 58.238281 113.875 58.363281 113.796875 58.566406 C 113.113281 60.796875 111.636719 61.835938 110.496094 61.835938 C 109.605469 61.835938 109.121094 61.179688 109.121094 60.140625 C 109.121094 59.582031 109.222656 59.175781 109.632812 57.503906 L 110.519531 54.054688 C 110.902344 52.535156 111.765625 51.417969 112.933594 51.417969 C 112.984375 51.417969 113.695312 51.417969 114.230469 51.75 Z M 114.230469 51.75 " fill-opacity="1" fill-rule="nonzero"/></g><path fill="#a8180f" d="M 121.097656 62.449219 C 121.371094 62.195312 122.082031 61.636719 122.351562 61.398438 C 123.402344 60.4375 124.402344 59.507812 124.402344 57.96875 C 124.402344 55.957031 122.707031 54.65625 120.589844 54.65625 C 118.558594 54.65625 117.222656 56.195312 117.222656 57.699219 C 117.222656 58.527344 117.882812 58.644531 118.117188 58.644531 C 118.472656 58.644531 119 58.390625 119 57.75 C 119 56.871094 118.152344 56.871094 117.949219 56.871094 C 118.441406 55.636719 119.574219 55.214844 120.40625 55.214844 C 121.980469 55.214844 122.792969 56.550781 122.792969 57.96875 C 122.792969 59.726562 121.558594 61.011719 119.558594 63.054688 L 117.425781 65.253906 C 117.222656 65.4375 117.222656 65.472656 117.222656 65.894531 L 123.910156 65.894531 L 124.402344 62.871094 L 123.878906 62.871094 C 123.828125 63.207031 123.691406 64.054688 123.488281 64.375 C 123.386719 64.507812 122.097656 64.507812 121.828125 64.507812 L 118.8125 64.507812 Z M 121.097656 62.449219 " fill-opacity="1" fill-rule="nonzero"/><path fill="#a8180f" d="M 150.585938 53.878906 C 150.941406 53.878906 151.398438 53.878906 151.398438 53.421875 C 151.398438 52.941406 150.96875 52.941406 150.585938 52.941406 L 135.621094 52.941406 C 135.265625 52.941406 134.808594 52.941406 134.808594 53.394531 C 134.808594 53.878906 135.242188 53.878906 135.621094 53.878906 Z M 150.585938 58.59375 C 150.941406 58.59375 151.398438 58.59375 151.398438 58.136719 C 151.398438 57.65625 150.96875 57.65625 150.585938 57.65625 L 135.621094 57.65625 C 135.265625 57.65625 134.808594 57.65625 134.808594 58.113281 C 134.808594 58.59375 135.242188 58.59375 135.621094 58.59375 Z M 150.585938 58.59375 " fill-opacity="1" fill-rule="nonzero"/><path fill="#a8180f" d="M 176.585938 56.261719 C 177.019531 56.261719 177.476562 56.261719 177.476562 55.753906 C 177.476562 55.246094 177.019531 55.246094 176.585938 55.246094 L 162.839844 55.246094 C 162.410156 55.246094 161.953125 55.246094 161.953125 55.753906 C 161.953125 56.261719 162.410156 56.261719 162.839844 56.261719 Z M 176.585938 56.261719 " fill-opacity="1" fill-rule="nonzero"/><path fill="#a8180f" d="M 190.78125 57.832031 L 190.222656 57.832031 C 190.144531 58.261719 189.941406 59.65625 189.6875 60.0625 C 189.511719 60.292969 188.0625 60.292969 187.300781 60.292969 L 182.601562 60.292969 C 183.285156 59.707031 184.835938 58.085938 185.496094 57.476562 C 189.359375 53.929688 190.78125 52.609375 190.78125 50.101562 C 190.78125 47.183594 188.46875 45.234375 185.523438 45.234375 C 182.574219 45.234375 180.847656 47.742188 180.847656 49.921875 C 180.847656 51.214844 181.964844 51.214844 182.042969 51.214844 C 182.574219 51.214844 183.234375 50.835938 183.234375 50.023438 C 183.234375 49.316406 182.753906 48.832031 182.042969 48.832031 C 181.8125 48.832031 181.761719 48.832031 181.6875 48.859375 C 182.167969 47.132812 183.539062 45.96875 185.191406 45.96875 C 187.351562 45.96875 188.671875 47.769531 188.671875 50.101562 C 188.671875 52.253906 187.425781 54.132812 185.980469 55.753906 L 180.847656 61.484375 L 180.847656 62.089844 L 190.121094 62.089844 Z M 190.78125 57.832031 " fill-opacity="1" fill-rule="nonzero"/><g clip-path="url(#488e8aeb32)"><path fill="#a8180f" d="M 212.835938 64.929688 C 212.152344 65.894531 211.160156 66.753906 209.914062 66.753906 C 209.609375 66.753906 208.390625 66.707031 208.011719 65.539062 C 208.085938 65.5625 208.214844 65.5625 208.265625 65.5625 C 209.027344 65.5625 209.535156 64.90625 209.535156 64.320312 C 209.535156 63.738281 209.050781 63.535156 208.671875 63.535156 C 208.265625 63.535156 207.375 63.839844 207.375 65.082031 C 207.375 66.375 208.46875 67.261719 209.914062 67.261719 C 212.457031 67.261719 215.023438 64.929688 215.734375 62.117188 L 218.222656 52.230469 C 218.25 52.101562 218.300781 51.953125 218.300781 51.800781 C 218.300781 51.417969 217.996094 51.164062 217.613281 51.164062 C 217.386719 51.164062 216.851562 51.265625 216.648438 52.027344 L 214.769531 59.480469 C 214.640625 59.9375 214.640625 59.988281 214.4375 60.265625 C 213.929688 60.976562 213.089844 61.835938 211.871094 61.835938 C 210.449219 61.835938 210.324219 60.445312 210.324219 59.757812 C 210.324219 58.3125 211.007812 56.363281 211.695312 54.535156 C 211.972656 53.800781 212.125 53.445312 212.125 52.941406 C 212.125 51.875 211.363281 50.910156 210.121094 50.910156 C 207.78125 50.910156 206.84375 54.585938 206.84375 54.789062 C 206.84375 54.890625 206.945312 55.019531 207.121094 55.019531 C 207.351562 55.019531 207.375 54.917969 207.476562 54.5625 C 208.085938 52.433594 209.050781 51.417969 210.042969 51.417969 C 210.273438 51.417969 210.703125 51.417969 210.703125 52.253906 C 210.703125 52.914062 210.425781 53.648438 210.042969 54.613281 C 208.796875 57.933594 208.796875 58.769531 208.796875 59.378906 C 208.796875 61.789062 210.527344 62.34375 211.796875 62.34375 C 212.53125 62.34375 213.449219 62.117188 214.335938 61.179688 L 214.363281 61.203125 C 213.980469 62.699219 213.726562 63.6875 212.835938 64.929688 Z M 212.835938 64.929688 " fill-opacity="1" fill-rule="nonzero"/></g><path fill="#a8180f" d="M 223.0625 62.449219 C 223.332031 62.195312 224.042969 61.636719 224.316406 61.398438 C 225.367188 60.4375 226.363281 59.507812 226.363281 57.96875 C 226.363281 55.957031 224.671875 54.65625 222.554688 54.65625 C 220.523438 54.65625 219.183594 56.195312 219.183594 57.699219 C 219.183594 58.527344 219.84375 58.644531 220.082031 58.644531 C 220.4375 58.644531 220.960938 58.390625 220.960938 57.75 C 220.960938 56.871094 220.113281 56.871094 219.910156 56.871094 C 220.402344 55.636719 221.539062 55.214844 222.367188 55.214844 C 223.941406 55.214844 224.757812 56.550781 224.757812 57.96875 C 224.757812 59.726562 223.519531 61.011719 221.519531 63.054688 L 219.386719 65.253906 C 219.183594 65.4375 219.183594 65.472656 219.183594 65.894531 L 225.875 65.894531 L 226.363281 62.871094 L 225.839844 62.871094 C 225.789062 63.207031 225.652344 64.054688 225.449219 64.375 C 225.347656 64.507812 224.0625 64.507812 223.789062 64.507812 L 220.777344 64.507812 Z M 223.0625 62.449219 " fill-opacity="1" fill-rule="nonzero"/><path fill="#a8180f" d="M 252.546875 53.878906 C 252.902344 53.878906 253.363281 53.878906 253.363281 53.421875 C 253.363281 52.941406 252.929688 52.941406 252.546875 52.941406 L 237.585938 52.941406 C 237.230469 52.941406 236.769531 52.941406 236.769531 53.394531 C 236.769531 53.878906 237.203125 53.878906 237.585938 53.878906 Z M 252.546875 58.59375 C 252.902344 58.59375 253.363281 58.59375 253.363281 58.136719 C 253.363281 57.65625 252.929688 57.65625 252.546875 57.65625 L 237.585938 57.65625 C 237.230469 57.65625 236.769531 57.65625 236.769531 58.113281 C 236.769531 58.59375 237.203125 58.59375 237.585938 58.59375 Z M 252.546875 58.59375 " fill-opacity="1" fill-rule="nonzero"/><g clip-path="url(#fc3e1ef059)"><path fill="#a8180f" d="M 266.480469 52.992188 C 266.046875 53.015625 265.945312 53.042969 265.945312 53.269531 C 265.945312 53.523438 266.070312 53.523438 266.53125 53.523438 L 267.699219 53.523438 C 269.859375 53.523438 270.824219 55.296875 270.824219 57.730469 C 270.824219 61.050781 269.09375 61.9375 267.851562 61.9375 C 266.632812 61.9375 264.546875 61.355469 263.8125 59.683594 C 264.625 59.808594 265.359375 59.351562 265.359375 58.441406 C 265.359375 57.707031 264.828125 57.199219 264.117188 57.199219 C 263.507812 57.199219 262.84375 57.554688 262.84375 58.515625 C 262.84375 60.773438 265.105469 62.625 267.925781 62.625 C 270.949219 62.625 273.1875 60.316406 273.1875 57.757812 C 273.1875 55.425781 271.304688 53.597656 268.867188 53.167969 C 271.078125 52.535156 272.5 50.683594 272.5 48.707031 C 272.5 46.703125 270.417969 45.234375 267.953125 45.234375 C 265.410156 45.234375 263.53125 46.78125 263.53125 48.628906 C 263.53125 49.644531 264.320312 49.847656 264.699219 49.847656 C 265.234375 49.847656 265.84375 49.46875 265.84375 48.707031 C 265.84375 47.894531 265.234375 47.539062 264.675781 47.539062 C 264.523438 47.539062 264.472656 47.539062 264.394531 47.566406 C 265.359375 45.839844 267.75 45.839844 267.875 45.839844 C 268.714844 45.839844 270.367188 46.222656 270.367188 48.707031 C 270.367188 49.1875 270.289062 50.609375 269.554688 51.699219 C 268.789062 52.8125 267.925781 52.890625 267.242188 52.914062 Z M 266.480469 52.992188 " fill-opacity="1" fill-rule="nonzero"/></g></svg>