<svg xmlns="http://www.w3.org/2000/svg" xmlns:xlink="http://www.w3.org/1999/xlink" width="500" zoomAndPan="magnify" viewBox="0 0 375 74.999997" height="100" preserveAspectRatio="xMidYMid meet" version="1.0"><defs><clipPath id="7963da3b8e"><path d="M 111 41 L 118 41 L 118 48.738281 L 111 48.738281 Z M 111 41 " clip-rule="nonzero"/></clipPath><clipPath id="666a79626c"><path d="M 118 38 L 123 38 L 123 48.738281 L 118 48.738281 Z M 118 38 " clip-rule="nonzero"/></clipPath><clipPath id="ba4c563b80"><path d="M 123 41 L 131 41 L 131 48.738281 L 123 48.738281 Z M 123 41 " clip-rule="nonzero"/></clipPath><clipPath id="e258997f20"><path d="M 131 38 L 137 38 L 137 48.738281 L 131 48.738281 Z M 131 38 " clip-rule="nonzero"/></clipPath><clipPath id="4b64d0b1da"><path d="M 137 41 L 145 41 L 145 48.738281 L 137 48.738281 Z M 137 41 " clip-rule="nonzero"/></clipPath><clipPath id="721788ae30"><path d="M 145 38 L 153 38 L 153 48.738281 L 145 48.738281 Z M 145 38 " clip-rule="nonzero"/></clipPath><clipPath id="971af63399"><path d="M 152 41 L 162 41 L 162 48.738281 L 152 48.738281 Z M 152 41 " clip-rule="nonzero"/></clipPath><clipPath id="559c2a1ba7"><path d="M 162 41 L 169 41 L 169 48.738281 L 162 48.738281 Z M 162 41 " clip-rule="nonzero"/></clipPath><clipPath id="eb3212d0a1"><path d="M 271 26.238281 L 277.394531 26.238281 L 277.394531 37 L 271 37 Z M 271 26.238281 " clip-rule="nonzero"/></clipPath></defs><path fill="#a8180f" d="M 103.824219 38.175781 L 107.472656 38.175781 C 110.46875 38.175781 113.464844 35.960938 113.464844 33.484375 C 113.464844 31.789062 112.03125 30.25 109.296875 30.25 L 102.585938 30.25 C 102.171875 30.25 101.976562 30.25 101.976562 30.660156 C 101.976562 30.878906 102.171875 30.878906 102.5 30.878906 C 103.824219 30.878906 103.824219 31.050781 103.824219 31.289062 C 103.824219 31.335938 103.824219 31.464844 103.734375 31.789062 L 100.804688 43.476562 C 100.609375 44.234375 100.566406 44.453125 99.046875 44.453125 C 98.632812 44.453125 98.414062 44.453125 98.414062 44.84375 C 98.414062 45.082031 98.609375 45.082031 98.742188 45.082031 C 99.152344 45.082031 99.589844 45.039062 100 45.039062 L 102.542969 45.039062 C 102.953125 45.039062 103.410156 45.082031 103.824219 45.082031 C 103.996094 45.082031 104.234375 45.082031 104.234375 44.667969 C 104.234375 44.453125 104.039062 44.453125 103.714844 44.453125 C 102.410156 44.453125 102.390625 44.300781 102.390625 44.082031 C 102.390625 43.976562 102.410156 43.824219 102.433594 43.714844 Z M 105.386719 31.726562 C 105.582031 30.921875 105.667969 30.878906 106.515625 30.878906 L 108.667969 30.878906 C 110.292969 30.878906 111.640625 31.398438 111.640625 33.027344 C 111.640625 33.59375 111.359375 35.4375 110.359375 36.4375 C 109.992188 36.828125 108.949219 37.65625 106.972656 37.65625 L 103.910156 37.65625 Z M 105.386719 31.726562 " fill-opacity="1" fill-rule="nonzero"/><g clip-path="url(#7963da3b8e)"><path fill="#a8180f" d="M 116.9375 42.898438 C 116.605469 42.957031 116.300781 43.214844 116.300781 43.578125 C 116.300781 43.839844 116.472656 44.027344 116.792969 44.027344 C 117.011719 44.027344 117.457031 43.867188 117.457031 43.214844 C 117.457031 42.316406 116.515625 41.957031 115.621094 41.957031 C 113.679688 41.957031 113.070312 43.332031 113.070312 44.070312 C 113.070312 44.214844 113.070312 44.734375 113.605469 45.140625 C 113.941406 45.402344 114.1875 45.445312 114.9375 45.589844 C 115.445312 45.691406 116.269531 45.835938 116.269531 46.589844 C 116.269531 46.964844 115.996094 47.445312 115.589844 47.71875 C 115.054688 48.066406 114.347656 48.082031 114.113281 48.082031 C 113.765625 48.082031 112.78125 48.023438 112.421875 47.445312 C 113.160156 47.414062 113.261719 46.820312 113.261719 46.648438 C 113.261719 46.214844 112.867188 46.113281 112.695312 46.113281 C 112.464844 46.113281 111.871094 46.285156 111.871094 47.082031 C 111.871094 47.9375 112.769531 48.484375 114.113281 48.484375 C 116.632812 48.484375 117.167969 46.707031 117.167969 46.097656 C 117.167969 44.792969 115.75 44.519531 115.214844 44.417969 C 114.519531 44.289062 113.953125 44.1875 113.953125 43.578125 C 113.953125 43.316406 114.199219 42.363281 115.605469 42.363281 C 116.15625 42.363281 116.71875 42.519531 116.9375 42.898438 Z M 116.9375 42.898438 " fill-opacity="1" fill-rule="nonzero"/></g><g clip-path="url(#666a79626c)"><path fill="#a8180f" d="M 122.007812 38.726562 C 122.023438 38.699219 122.066406 38.511719 122.066406 38.496094 C 122.066406 38.421875 122.007812 38.292969 121.835938 38.292969 L 120.371094 38.410156 C 119.835938 38.453125 119.71875 38.464844 119.71875 38.726562 C 119.71875 38.929688 119.921875 38.929688 120.097656 38.929688 C 120.792969 38.929688 120.792969 39.015625 120.792969 39.148438 C 120.792969 39.191406 120.792969 39.21875 120.71875 39.480469 L 118.925781 46.660156 C 118.867188 46.894531 118.867188 47.109375 118.867188 47.125 C 118.867188 48.023438 119.605469 48.484375 120.328125 48.484375 C 120.949219 48.484375 121.285156 47.992188 121.441406 47.675781 C 121.703125 47.199219 121.921875 46.34375 121.921875 46.269531 C 121.921875 46.183594 121.878906 46.082031 121.6875 46.082031 C 121.558594 46.082031 121.515625 46.15625 121.515625 46.167969 C 121.488281 46.214844 121.414062 46.472656 121.371094 46.632812 C 121.152344 47.472656 120.878906 48.082031 120.355469 48.082031 C 120.011719 48.082031 119.910156 47.746094 119.910156 47.398438 C 119.910156 47.125 119.953125 46.964844 119.996094 46.777344 Z M 122.007812 38.726562 " fill-opacity="1" fill-rule="nonzero"/></g><g clip-path="url(#ba4c563b80)"><path fill="#a8180f" d="M 130.191406 44.460938 C 130.191406 43.042969 129.175781 41.957031 127.671875 41.957031 C 125.613281 41.957031 123.617188 43.953125 123.617188 45.980469 C 123.617188 47.457031 124.660156 48.484375 126.136719 48.484375 C 128.207031 48.484375 130.191406 46.460938 130.191406 44.460938 Z M 126.148438 48.082031 C 125.644531 48.082031 124.789062 47.820312 124.789062 46.488281 C 124.789062 45.894531 125.0625 44.332031 125.757812 43.433594 C 126.46875 42.519531 127.265625 42.363281 127.65625 42.363281 C 128.25 42.363281 129.015625 42.722656 129.015625 43.941406 C 129.015625 44.519531 128.757812 45.894531 128.207031 46.761719 C 127.671875 47.589844 126.875 48.082031 126.148438 48.082031 Z M 126.148438 48.082031 " fill-opacity="1" fill-rule="nonzero"/></g><g clip-path="url(#e258997f20)"><path fill="#a8180f" d="M 133.949219 38.726562 C 133.960938 38.699219 134.003906 38.511719 134.003906 38.496094 C 134.003906 38.421875 133.949219 38.292969 133.773438 38.292969 C 133.714844 38.292969 133.265625 38.335938 132.933594 38.363281 L 132.125 38.421875 C 131.804688 38.453125 131.660156 38.464844 131.660156 38.726562 C 131.660156 38.929688 131.863281 38.929688 132.035156 38.929688 C 132.730469 38.929688 132.730469 39.015625 132.730469 39.148438 C 132.730469 39.234375 132.585938 39.8125 132.5 40.144531 L 131.238281 45.183594 C 131.125 45.675781 131.125 45.894531 131.125 46.140625 C 131.125 47.632812 132.035156 48.484375 133.152344 48.484375 C 134.933594 48.484375 136.785156 46.429688 136.785156 44.332031 C 136.785156 42.898438 135.859375 41.957031 134.699219 41.957031 C 133.890625 41.957031 133.265625 42.476562 132.949219 42.753906 Z M 133.152344 48.082031 C 132.628906 48.082031 132.109375 47.675781 132.109375 46.617188 C 132.109375 46.226562 132.167969 45.867188 132.339844 45.171875 C 132.441406 44.75 132.542969 44.34375 132.660156 43.925781 C 132.730469 43.664062 132.730469 43.636719 132.90625 43.417969 C 133.398438 42.808594 134.050781 42.363281 134.65625 42.363281 C 135.378906 42.363281 135.65625 43.070312 135.65625 43.722656 C 135.65625 44.257812 135.335938 45.808594 134.902344 46.660156 C 134.527344 47.445312 133.832031 48.082031 133.152344 48.082031 Z M 133.152344 48.082031 " fill-opacity="1" fill-rule="nonzero"/></g><g clip-path="url(#4b64d0b1da)"><path fill="#a8180f" d="M 144.203125 44.460938 C 144.203125 43.042969 143.191406 41.957031 141.683594 41.957031 C 139.628906 41.957031 137.632812 43.953125 137.632812 45.980469 C 137.632812 47.457031 138.675781 48.484375 140.152344 48.484375 C 142.222656 48.484375 144.203125 46.460938 144.203125 44.460938 Z M 140.164062 48.082031 C 139.660156 48.082031 138.804688 47.820312 138.804688 46.488281 C 138.804688 45.894531 139.078125 44.332031 139.773438 43.433594 C 140.484375 42.519531 141.28125 42.363281 141.671875 42.363281 C 142.265625 42.363281 143.03125 42.722656 143.03125 43.941406 C 143.03125 44.519531 142.769531 45.894531 142.222656 46.761719 C 141.683594 47.589844 140.890625 48.082031 140.164062 48.082031 Z M 140.164062 48.082031 " fill-opacity="1" fill-rule="nonzero"/></g><g clip-path="url(#721788ae30)"><path fill="#a8180f" d="M 152.21875 38.726562 C 152.234375 38.699219 152.277344 38.511719 152.277344 38.496094 C 152.277344 38.421875 152.21875 38.292969 152.046875 38.292969 C 151.988281 38.292969 151.539062 38.335938 151.207031 38.363281 L 150.394531 38.421875 C 150.078125 38.453125 149.929688 38.464844 149.929688 38.726562 C 149.929688 38.929688 150.132812 38.929688 150.308594 38.929688 C 151.003906 38.929688 151.003906 39.015625 151.003906 39.148438 C 151.003906 39.234375 150.886719 39.710938 150.816406 40 L 150.105469 42.824219 C 149.976562 42.578125 149.554688 41.957031 148.671875 41.957031 C 146.949219 41.957031 145.050781 43.96875 145.050781 46.113281 C 145.050781 47.617188 146.023438 48.484375 147.136719 48.484375 C 148.0625 48.484375 148.859375 47.746094 149.121094 47.457031 C 149.382812 48.457031 150.367188 48.484375 150.539062 48.484375 C 151.207031 48.484375 151.539062 47.9375 151.65625 47.691406 C 151.945312 47.167969 152.148438 46.328125 152.148438 46.269531 C 152.148438 46.183594 152.089844 46.082031 151.914062 46.082031 C 151.742188 46.082031 151.710938 46.167969 151.625 46.53125 C 151.421875 47.328125 151.148438 48.082031 150.582031 48.082031 C 150.25 48.082031 150.121094 47.804688 150.121094 47.398438 C 150.121094 47.125 150.164062 46.964844 150.207031 46.777344 Z M 149.121094 46.777344 C 148.398438 47.777344 147.644531 48.082031 147.179688 48.082031 C 146.515625 48.082031 146.179688 47.472656 146.179688 46.71875 C 146.179688 46.039062 146.574219 44.488281 146.890625 43.851562 C 147.3125 42.96875 148.019531 42.363281 148.6875 42.363281 C 149.628906 42.363281 149.902344 43.417969 149.902344 43.59375 C 149.902344 43.648438 149.539062 45.070312 149.453125 45.445312 C 149.265625 46.125 149.265625 46.15625 149.121094 46.777344 Z M 149.121094 46.777344 " fill-opacity="1" fill-rule="nonzero"/></g><g clip-path="url(#971af63399)"><path fill="#a8180f" d="M 155.242188 45.96875 C 155.285156 45.75 155.429688 45.199219 155.472656 44.980469 C 155.675781 44.199219 155.675781 44.1875 156.007812 43.707031 C 156.488281 43 157.167969 42.363281 158.136719 42.363281 C 158.660156 42.363281 158.964844 42.664062 158.964844 43.347656 C 158.964844 44.140625 158.355469 45.792969 158.078125 46.503906 C 157.890625 46.980469 157.890625 47.066406 157.890625 47.253906 C 157.890625 48.082031 158.570312 48.484375 159.195312 48.484375 C 160.613281 48.484375 161.207031 46.460938 161.207031 46.269531 C 161.207031 46.125 161.089844 46.082031 160.988281 46.082031 C 160.816406 46.082031 160.789062 46.183594 160.742188 46.328125 C 160.394531 47.515625 159.789062 48.082031 159.238281 48.082031 C 159.007812 48.082031 158.890625 47.9375 158.890625 47.601562 C 158.890625 47.269531 159.007812 46.953125 159.152344 46.589844 C 159.367188 46.039062 160.003906 44.375 160.003906 43.5625 C 160.003906 42.476562 159.253906 41.957031 158.210938 41.957031 C 157.039062 41.957031 156.285156 42.664062 155.863281 43.214844 C 155.761719 42.417969 155.125 41.957031 154.386719 41.957031 C 153.867188 41.957031 153.503906 42.289062 153.273438 42.738281 C 152.925781 43.417969 152.78125 44.140625 152.78125 44.171875 C 152.78125 44.300781 152.882812 44.359375 152.996094 44.359375 C 153.1875 44.359375 153.199219 44.300781 153.300781 43.925781 C 153.476562 43.214844 153.738281 42.363281 154.34375 42.363281 C 154.722656 42.363281 154.808594 42.722656 154.808594 43.042969 C 154.808594 43.300781 154.734375 43.578125 154.621094 44.054688 C 154.589844 44.171875 154.375 45.027344 154.316406 45.226562 L 153.78125 47.398438 C 153.722656 47.617188 153.636719 47.980469 153.636719 48.039062 C 153.636719 48.371094 153.910156 48.484375 154.097656 48.484375 C 154.359375 48.484375 154.574219 48.3125 154.675781 48.140625 C 154.722656 48.050781 154.835938 47.558594 154.910156 47.253906 Z M 155.242188 45.96875 " fill-opacity="1" fill-rule="nonzero"/></g><g clip-path="url(#559c2a1ba7)"><path fill="#a8180f" d="M 168.890625 44.460938 C 168.890625 43.042969 167.875 41.957031 166.371094 41.957031 C 164.316406 41.957031 162.316406 43.953125 162.316406 45.980469 C 162.316406 47.457031 163.359375 48.484375 164.835938 48.484375 C 166.90625 48.484375 168.890625 46.460938 168.890625 44.460938 Z M 164.851562 48.082031 C 164.34375 48.082031 163.488281 47.820312 163.488281 46.488281 C 163.488281 45.894531 163.765625 44.332031 164.460938 43.433594 C 165.167969 42.519531 165.964844 42.363281 166.355469 42.363281 C 166.949219 42.363281 167.71875 42.722656 167.71875 43.941406 C 167.71875 44.519531 167.457031 45.894531 166.90625 46.761719 C 166.371094 47.589844 165.574219 48.082031 164.851562 48.082031 Z M 164.851562 48.082031 " fill-opacity="1" fill-rule="nonzero"/></g><path fill="#a8180f" d="M 190.710938 38.046875 C 191.015625 38.046875 191.40625 38.046875 191.40625 37.65625 C 191.40625 37.242188 191.039062 37.242188 190.710938 37.242188 L 177.921875 37.242188 C 177.617188 37.242188 177.226562 37.242188 177.226562 37.632812 C 177.226562 38.046875 177.59375 38.046875 177.921875 38.046875 Z M 190.710938 42.085938 C 191.015625 42.085938 191.40625 42.085938 191.40625 41.695312 C 191.40625 41.28125 191.039062 41.28125 190.710938 41.28125 L 177.921875 41.28125 C 177.617188 41.28125 177.226562 41.28125 177.226562 41.671875 C 177.226562 42.085938 177.59375 42.085938 177.921875 42.085938 Z M 190.710938 42.085938 " fill-opacity="1" fill-rule="nonzero"/><path fill="#a8180f" d="M 202.621094 37.285156 C 202.25 37.308594 202.164062 37.328125 202.164062 37.523438 C 202.164062 37.742188 202.273438 37.742188 202.664062 37.742188 L 203.664062 37.742188 C 205.507812 37.742188 206.332031 39.261719 206.332031 41.347656 C 206.332031 44.191406 204.855469 44.953125 203.792969 44.953125 C 202.75 44.953125 200.96875 44.453125 200.339844 43.019531 C 201.035156 43.128906 201.664062 42.738281 201.664062 41.953125 C 201.664062 41.324219 201.207031 40.890625 200.601562 40.890625 C 200.078125 40.890625 199.515625 41.195312 199.515625 42.019531 C 199.515625 43.953125 201.449219 45.539062 203.859375 45.539062 C 206.441406 45.539062 208.355469 43.5625 208.355469 41.367188 C 208.355469 39.371094 206.746094 37.804688 204.660156 37.4375 C 206.550781 36.894531 207.765625 35.308594 207.765625 33.613281 C 207.765625 31.898438 205.988281 30.640625 203.878906 30.640625 C 201.707031 30.640625 200.101562 31.964844 200.101562 33.550781 C 200.101562 34.417969 200.773438 34.59375 201.101562 34.59375 C 201.554688 34.59375 202.078125 34.265625 202.078125 33.613281 C 202.078125 32.917969 201.554688 32.617188 201.078125 32.617188 C 200.949219 32.617188 200.90625 32.617188 200.839844 32.636719 C 201.664062 31.160156 203.707031 31.160156 203.816406 31.160156 C 204.53125 31.160156 205.941406 31.484375 205.941406 33.613281 C 205.941406 34.027344 205.878906 35.242188 205.246094 36.175781 C 204.597656 37.132812 203.859375 37.199219 203.273438 37.21875 Z M 202.621094 37.285156 " fill-opacity="1" fill-rule="nonzero"/><path fill="#a8180f" d="M 218.8125 41.433594 L 218.335938 41.433594 C 218.269531 41.800781 218.09375 42.996094 217.878906 43.34375 C 217.726562 43.539062 216.488281 43.539062 215.835938 43.539062 L 211.820312 43.539062 C 212.40625 43.039062 213.730469 41.652344 214.296875 41.128906 C 217.597656 38.089844 218.8125 36.960938 218.8125 34.808594 C 218.8125 32.3125 216.835938 30.640625 214.316406 30.640625 C 211.796875 30.640625 210.320312 32.789062 210.320312 34.65625 C 210.320312 35.765625 211.277344 35.765625 211.339844 35.765625 C 211.796875 35.765625 212.363281 35.4375 212.363281 34.742188 C 212.363281 34.136719 211.949219 33.722656 211.339844 33.722656 C 211.144531 33.722656 211.101562 33.722656 211.039062 33.746094 C 211.449219 32.269531 212.621094 31.269531 214.035156 31.269531 C 215.878906 31.269531 217.007812 32.8125 217.007812 34.808594 C 217.007812 36.65625 215.945312 38.261719 214.707031 39.652344 L 210.320312 44.5625 L 210.320312 45.082031 L 218.246094 45.082031 Z M 218.8125 41.433594 " fill-opacity="1" fill-rule="nonzero"/><path fill="#a8180f" d="M 223.886719 44.039062 C 223.886719 43.410156 223.363281 42.976562 222.84375 42.976562 C 222.210938 42.976562 221.777344 43.496094 221.777344 44.019531 C 221.777344 44.648438 222.300781 45.082031 222.820312 45.082031 C 223.449219 45.082031 223.886719 44.5625 223.886719 44.039062 Z M 223.886719 44.039062 " fill-opacity="1" fill-rule="nonzero"/><path fill="#a8180f" d="M 232.269531 37.242188 C 233.355469 36.65625 234.941406 35.65625 234.941406 33.832031 C 234.941406 31.941406 233.117188 30.640625 231.117188 30.640625 C 228.96875 30.640625 227.273438 32.226562 227.273438 34.199219 C 227.273438 34.941406 227.492188 35.679688 228.097656 36.417969 C 228.335938 36.699219 228.359375 36.71875 229.878906 37.785156 C 227.773438 38.761719 226.6875 40.21875 226.6875 41.800781 C 226.6875 44.105469 228.878906 45.539062 231.097656 45.539062 C 233.507812 45.539062 235.527344 43.757812 235.527344 41.476562 C 235.527344 39.261719 233.960938 38.285156 232.269531 37.242188 Z M 229.316406 35.285156 C 229.03125 35.089844 228.164062 34.527344 228.164062 33.460938 C 228.164062 32.050781 229.640625 31.160156 231.097656 31.160156 C 232.660156 31.160156 234.050781 32.289062 234.050781 33.855469 C 234.050781 35.179688 233.09375 36.242188 231.835938 36.9375 Z M 230.335938 38.089844 L 232.964844 39.804688 C 233.527344 40.171875 234.527344 40.847656 234.527344 42.171875 C 234.527344 43.824219 232.855469 44.953125 231.117188 44.953125 C 229.269531 44.953125 227.6875 43.605469 227.6875 41.800781 C 227.6875 40.109375 228.925781 38.742188 230.335938 38.089844 Z M 230.335938 38.089844 " fill-opacity="1" fill-rule="nonzero"/><path fill="#a8180f" d="M 239.101562 37.523438 C 239.101562 32.027344 241.773438 31.160156 242.945312 31.160156 C 243.726562 31.160156 244.507812 31.398438 244.921875 32.050781 C 244.660156 32.050781 243.835938 32.050781 243.835938 32.941406 C 243.835938 33.417969 244.160156 33.832031 244.726562 33.832031 C 245.269531 33.832031 245.636719 33.507812 245.636719 32.875 C 245.636719 31.746094 244.8125 30.640625 242.921875 30.640625 C 240.1875 30.640625 237.320312 33.441406 237.320312 38.21875 C 237.320312 44.191406 239.925781 45.539062 241.773438 45.539062 C 244.140625 45.539062 246.160156 43.476562 246.160156 40.652344 C 246.160156 37.761719 244.140625 35.828125 241.96875 35.828125 C 240.035156 35.828125 239.316406 37.503906 239.101562 38.109375 Z M 241.773438 44.953125 C 240.402344 44.953125 239.75 43.734375 239.554688 43.28125 C 239.359375 42.714844 239.144531 41.652344 239.144531 40.128906 C 239.144531 38.414062 239.925781 36.265625 241.878906 36.265625 C 243.074219 36.265625 243.703125 37.066406 244.03125 37.804688 C 244.378906 38.609375 244.378906 39.695312 244.378906 40.628906 C 244.378906 41.738281 244.378906 42.714844 243.964844 43.539062 C 243.421875 44.582031 242.640625 44.953125 241.773438 44.953125 Z M 241.773438 44.953125 " fill-opacity="1" fill-rule="nonzero"/><path fill="#a8180f" d="M 256.363281 38.71875 C 256.40625 38.589844 256.949219 37.503906 257.753906 36.808594 C 258.316406 36.285156 259.054688 35.9375 259.902344 35.9375 C 260.769531 35.9375 261.074219 36.589844 261.074219 37.457031 C 261.074219 37.589844 261.074219 38.023438 260.8125 39.042969 L 260.269531 41.28125 C 260.097656 41.933594 259.683594 43.539062 259.640625 43.777344 C 259.554688 44.105469 259.425781 44.667969 259.425781 44.757812 C 259.425781 45.0625 259.664062 45.300781 259.988281 45.300781 C 260.640625 45.300781 260.75 44.800781 260.945312 44.019531 L 262.246094 38.828125 C 262.292969 38.652344 263.421875 35.9375 265.808594 35.9375 C 266.679688 35.9375 266.980469 36.589844 266.980469 37.457031 C 266.980469 38.675781 266.136719 41.042969 265.65625 42.34375 C 265.460938 42.867188 265.351562 43.148438 265.351562 43.539062 C 265.351562 44.519531 266.027344 45.300781 267.070312 45.300781 C 269.089844 45.300781 269.847656 42.105469 269.847656 41.976562 C 269.847656 41.867188 269.761719 41.78125 269.632812 41.78125 C 269.4375 41.78125 269.414062 41.847656 269.304688 42.214844 C 268.804688 43.953125 268.003906 44.863281 267.132812 44.863281 C 266.917969 44.863281 266.570312 44.84375 266.570312 44.148438 C 266.570312 43.582031 266.828125 42.890625 266.917969 42.648438 C 267.308594 41.605469 268.285156 39.042969 268.285156 37.785156 C 268.285156 36.480469 267.523438 35.503906 265.875 35.503906 C 264.417969 35.503906 263.246094 36.328125 262.378906 37.609375 C 262.3125 36.4375 261.597656 35.503906 259.96875 35.503906 C 258.035156 35.503906 257.011719 36.871094 256.621094 37.414062 C 256.558594 36.175781 255.667969 35.503906 254.710938 35.503906 C 254.082031 35.503906 253.582031 35.808594 253.167969 36.632812 C 252.777344 37.414062 252.476562 38.742188 252.476562 38.828125 C 252.476562 38.914062 252.5625 39.023438 252.714844 39.023438 C 252.886719 39.023438 252.910156 39 253.039062 38.5 C 253.363281 37.21875 253.777344 35.9375 254.644531 35.9375 C 255.144531 35.9375 255.320312 36.285156 255.320312 36.9375 C 255.320312 37.414062 255.101562 38.261719 254.949219 38.9375 L 254.34375 41.28125 C 254.253906 41.695312 254.015625 42.671875 253.90625 43.0625 C 253.757812 43.628906 253.515625 44.648438 253.515625 44.757812 C 253.515625 45.0625 253.757812 45.300781 254.082031 45.300781 C 254.34375 45.300781 254.644531 45.167969 254.820312 44.84375 C 254.863281 44.734375 255.058594 43.976562 255.167969 43.539062 L 255.644531 41.585938 Z M 256.363281 38.71875 " fill-opacity="1" fill-rule="nonzero"/><g clip-path="url(#eb3212d0a1)"><path fill="#a8180f" d="M 274.570312 33.160156 C 274.804688 32.945312 275.410156 32.464844 275.644531 32.261719 C 276.539062 31.4375 277.394531 30.640625 277.394531 29.324219 C 277.394531 27.601562 275.945312 26.484375 274.136719 26.484375 C 272.398438 26.484375 271.253906 27.804688 271.253906 29.09375 C 271.253906 29.800781 271.820312 29.902344 272.023438 29.902344 C 272.328125 29.902344 272.777344 29.6875 272.777344 29.136719 C 272.777344 28.382812 272.050781 28.382812 271.878906 28.382812 C 272.296875 27.324219 273.269531 26.964844 273.976562 26.964844 C 275.324219 26.964844 276.019531 28.109375 276.019531 29.324219 C 276.019531 30.828125 274.960938 31.929688 273.253906 33.683594 L 271.429688 35.566406 C 271.253906 35.722656 271.253906 35.753906 271.253906 36.113281 L 276.976562 36.113281 L 277.394531 33.523438 L 276.945312 33.523438 C 276.902344 33.8125 276.785156 34.535156 276.613281 34.8125 C 276.527344 34.925781 275.425781 34.925781 275.195312 34.925781 L 272.617188 34.925781 Z M 274.570312 33.160156 " fill-opacity="1" fill-rule="nonzero"/></g></svg>