<svg xmlns="http://www.w3.org/2000/svg" xmlns:xlink="http://www.w3.org/1999/xlink" width="500" zoomAndPan="magnify" viewBox="0 0 375 74.999997" height="100" preserveAspectRatio="xMidYMid meet" version="1.0"><defs><g/><clipPath id="45f40c9dfd"><path d="M 38.808594 17.683594 L 52.542969 17.683594 L 52.542969 21.84375 L 38.808594 21.84375 Z M 38.808594 17.683594 " clip-rule="nonzero"/></clipPath><clipPath id="9a96487324"><path d="M 39.226562 19.949219 C 50.550781 20.175781 51.226562 17.925781 51.824219 17.773438 C 52.050781 17.699219 52.425781 18 52.425781 18.074219 C 52.425781 18.226562 51.898438 18.523438 51.824219 18.449219 C 51.75 18.375 51.75 17.851562 51.824219 17.773438 C 51.898438 17.699219 52.351562 17.925781 52.425781 18.148438 C 52.5 18.601562 51.601562 19.875 51 20.398438 C 50.476562 20.925781 50.023438 21.226562 49.199219 21.449219 C 47.625 21.824219 43.800781 21.523438 41.925781 21.300781 C 40.726562 21.148438 39.226562 21.074219 39 20.699219 C 38.851562 20.476562 39.226562 19.949219 39.226562 19.949219 " clip-rule="nonzero"/></clipPath><clipPath id="46e4f9711b"><path d="M 37.5 0 L 112.5 0 L 112.5 75 L 37.5 75 Z M 37.5 0 " clip-rule="nonzero"/></clipPath><clipPath id="91fd3c14ec"><path d="M 38.949219 61.308594 L 50.949219 61.308594 L 50.949219 73.308594 L 38.949219 73.308594 Z M 38.949219 61.308594 " clip-rule="nonzero"/></clipPath></defs><g clip-path="url(#45f40c9dfd)"><g clip-path="url(#9a96487324)"><path fill="#a8180f" d="M 36 14.773438 L 55.425781 14.773438 L 55.425781 24.449219 L 36 24.449219 Z M 36 14.773438 " fill-opacity="1" fill-rule="nonzero"/></g></g><g clip-path="url(#46e4f9711b)"><path fill="#17191a" d="M 112.464844 75 L 37.535156 75 L 37.535156 0 Z M 40.066406 72.460938 L 106.367188 72.460938 L 40.066406 6.113281 Z M 40.066406 72.460938 " fill-opacity="1" fill-rule="nonzero"/></g><g clip-path="url(#91fd3c14ec)"><path fill="#17191a" d="M 39.273438 61.308594 L 50.628906 61.308594 C 50.804688 61.308594 50.949219 61.453125 50.949219 61.632812 L 50.949219 72.988281 C 50.949219 73.164062 50.804688 73.308594 50.628906 73.308594 C 50.449219 73.308594 50.304688 73.164062 50.304688 72.988281 L 50.304688 61.953125 L 39.273438 61.953125 C 39.09375 61.953125 38.949219 61.808594 38.949219 61.632812 C 38.949219 61.453125 39.09375 61.308594 39.273438 61.308594 Z M 39.273438 61.308594 " fill-opacity="1" fill-rule="nonzero"/></g><g fill="#17191a" fill-opacity="1"><g transform="translate(0.0000075, 16.200005)"><g><path d="M 9.453125 0 L 1.0625 0 L 1.0625 -1.171875 L 5.5 -6.09375 C 6.15625 -6.832031 6.601562 -7.4375 6.84375 -7.90625 C 7.09375 -8.375 7.21875 -8.859375 7.21875 -9.359375 C 7.21875 -10.023438 7.015625 -10.570312 6.609375 -11 C 6.210938 -11.425781 5.675781 -11.640625 5 -11.640625 C 4.1875 -11.640625 3.554688 -11.40625 3.109375 -10.9375 C 2.660156 -10.476562 2.4375 -9.84375 2.4375 -9.03125 L 0.8125 -9.03125 C 0.8125 -10.207031 1.191406 -11.15625 1.953125 -11.875 C 2.710938 -12.601562 3.726562 -12.96875 5 -12.96875 C 6.1875 -12.96875 7.125 -12.65625 7.8125 -12.03125 C 8.507812 -11.40625 8.859375 -10.578125 8.859375 -9.546875 C 8.859375 -8.285156 8.054688 -6.785156 6.453125 -5.046875 L 3.03125 -1.328125 L 9.453125 -1.328125 Z M 9.453125 0 "/></g></g></g><g fill="#17191a" fill-opacity="1"><g transform="translate(10.100848, 16.200005)"><g><path d="M 4.984375 -5.109375 C 4.984375 -3.796875 4.8125 -2.539062 4.46875 -1.34375 C 4.125 -0.144531 3.597656 0.957031 2.890625 1.96875 C 2.191406 2.976562 1.453125 3.695312 0.671875 4.125 L 0.328125 3.140625 C 1.234375 2.441406 1.957031 1.367188 2.5 -0.078125 C 3.050781 -1.535156 3.332031 -3.15625 3.34375 -4.9375 L 3.34375 -5.21875 C 3.34375 -6.445312 3.210938 -7.585938 2.953125 -8.640625 C 2.703125 -9.703125 2.347656 -10.648438 1.890625 -11.484375 C 1.429688 -12.328125 0.910156 -12.984375 0.328125 -13.453125 L 0.671875 -14.4375 C 1.453125 -14.007812 2.191406 -13.296875 2.890625 -12.296875 C 3.585938 -11.296875 4.109375 -10.191406 4.453125 -8.984375 C 4.804688 -7.773438 4.984375 -6.484375 4.984375 -5.109375 Z M 4.984375 -5.109375 "/></g></g></g><g fill="#a8180f" fill-opacity="1"><g transform="translate(40.682788, 17.427416)"><g><path d="M 2.578125 -6.0625 C 3.171875 -6.0625 3.640625 -5.921875 3.984375 -5.640625 C 4.328125 -5.359375 4.5 -4.960938 4.5 -4.453125 C 4.5 -4.171875 4.429688 -3.921875 4.296875 -3.703125 C 4.160156 -3.484375 3.96875 -3.304688 3.71875 -3.171875 C 4.050781 -3.054688 4.304688 -2.867188 4.484375 -2.609375 C 4.671875 -2.359375 4.765625 -2.054688 4.765625 -1.703125 C 4.765625 -1.140625 4.597656 -0.703125 4.265625 -0.390625 C 3.941406 -0.078125 3.492188 0.078125 2.921875 0.078125 C 2.492188 0.078125 2.109375 -0.0234375 1.765625 -0.234375 L 1.765625 1.671875 L 0.578125 1.671875 L 0.578125 -4.25 C 0.578125 -4.59375 0.664062 -4.898438 0.84375 -5.171875 C 1.019531 -5.453125 1.257812 -5.671875 1.5625 -5.828125 C 1.863281 -5.984375 2.203125 -6.0625 2.578125 -6.0625 Z M 3.3125 -4.359375 C 3.3125 -4.585938 3.242188 -4.769531 3.109375 -4.90625 C 2.972656 -5.039062 2.796875 -5.109375 2.578125 -5.109375 C 2.335938 -5.109375 2.140625 -5.03125 1.984375 -4.875 C 1.835938 -4.71875 1.765625 -4.503906 1.765625 -4.234375 L 1.765625 -1.109375 C 1.992188 -0.953125 2.289062 -0.875 2.65625 -0.875 C 2.9375 -0.875 3.160156 -0.953125 3.328125 -1.109375 C 3.492188 -1.265625 3.578125 -1.46875 3.578125 -1.71875 C 3.578125 -2.007812 3.5 -2.238281 3.34375 -2.40625 C 3.195312 -2.570312 2.976562 -2.65625 2.6875 -2.65625 L 2.296875 -2.65625 L 2.296875 -3.53125 L 2.609375 -3.53125 C 3.078125 -3.539062 3.3125 -3.816406 3.3125 -4.359375 Z M 3.3125 -4.359375 "/></g></g></g><g fill="#a9a9a9" fill-opacity="1"><g transform="translate(20.950238, 40.308098)"><g><path d="M 1.609375 -3.515625 L 2.25 -3.515625 C 2.550781 -3.515625 2.773438 -3.585938 2.921875 -3.734375 C 3.066406 -3.890625 3.140625 -4.09375 3.140625 -4.34375 C 3.140625 -4.582031 3.066406 -4.769531 2.921875 -4.90625 C 2.773438 -5.039062 2.578125 -5.109375 2.328125 -5.109375 C 2.097656 -5.109375 1.90625 -5.046875 1.75 -4.921875 C 1.601562 -4.796875 1.53125 -4.632812 1.53125 -4.4375 L 0.34375 -4.4375 C 0.34375 -4.75 0.425781 -5.03125 0.59375 -5.28125 C 0.757812 -5.53125 0.992188 -5.722656 1.296875 -5.859375 C 1.597656 -5.992188 1.929688 -6.0625 2.296875 -6.0625 C 2.929688 -6.0625 3.425781 -5.910156 3.78125 -5.609375 C 4.144531 -5.304688 4.328125 -4.890625 4.328125 -4.359375 C 4.328125 -4.085938 4.242188 -3.835938 4.078125 -3.609375 C 3.910156 -3.378906 3.691406 -3.203125 3.421875 -3.078125 C 3.753906 -2.953125 4.003906 -2.769531 4.171875 -2.53125 C 4.335938 -2.289062 4.421875 -2.003906 4.421875 -1.671875 C 4.421875 -1.140625 4.222656 -0.710938 3.828125 -0.390625 C 3.441406 -0.078125 2.929688 0.078125 2.296875 0.078125 C 1.703125 0.078125 1.210938 -0.078125 0.828125 -0.390625 C 0.453125 -0.703125 0.265625 -1.117188 0.265625 -1.640625 L 1.453125 -1.640625 C 1.453125 -1.410156 1.535156 -1.222656 1.703125 -1.078125 C 1.867188 -0.941406 2.078125 -0.875 2.328125 -0.875 C 2.609375 -0.875 2.828125 -0.945312 2.984375 -1.09375 C 3.148438 -1.25 3.234375 -1.445312 3.234375 -1.6875 C 3.234375 -2.289062 2.90625 -2.59375 2.25 -2.59375 L 1.609375 -2.59375 Z M 1.609375 -3.515625 "/></g></g><g transform="translate(25.783531, 40.308098)"><g/></g><g transform="translate(27.881386, 40.308098)"><g><path d="M 1.578125 -4.453125 L 1.609375 -3.953125 C 1.921875 -4.335938 2.347656 -4.53125 2.890625 -4.53125 C 3.460938 -4.53125 3.851562 -4.304688 4.0625 -3.859375 C 4.375 -4.304688 4.820312 -4.53125 5.40625 -4.53125 C 5.882812 -4.53125 6.238281 -4.390625 6.46875 -4.109375 C 6.707031 -3.828125 6.828125 -3.40625 6.828125 -2.84375 L 6.828125 0 L 5.640625 0 L 5.640625 -2.84375 C 5.640625 -3.09375 5.585938 -3.273438 5.484375 -3.390625 C 5.390625 -3.503906 5.21875 -3.5625 4.96875 -3.5625 C 4.613281 -3.5625 4.367188 -3.394531 4.234375 -3.0625 L 4.234375 0 L 3.046875 0 L 3.046875 -2.828125 C 3.046875 -3.085938 2.992188 -3.273438 2.890625 -3.390625 C 2.796875 -3.503906 2.625 -3.5625 2.375 -3.5625 C 2.039062 -3.5625 1.796875 -3.421875 1.640625 -3.140625 L 1.640625 0 L 0.453125 0 L 0.453125 -4.453125 Z M 1.578125 -4.453125 "/></g></g></g><g fill="#a9a9a9" fill-opacity="1"><g transform="translate(77.88674, 38.943779)"><g><path d="M 0.578125 -2.9375 L 0.921875 -5.984375 L 4.28125 -5.984375 L 4.28125 -5 L 1.90625 -5 L 1.75 -3.703125 C 2.03125 -3.859375 2.332031 -3.9375 2.65625 -3.9375 C 3.226562 -3.9375 3.675781 -3.757812 4 -3.40625 C 4.320312 -3.050781 4.484375 -2.554688 4.484375 -1.921875 C 4.484375 -1.535156 4.398438 -1.1875 4.234375 -0.875 C 4.078125 -0.570312 3.84375 -0.335938 3.53125 -0.171875 C 3.226562 -0.00390625 2.867188 0.078125 2.453125 0.078125 C 2.097656 0.078125 1.765625 0.00390625 1.453125 -0.140625 C 1.140625 -0.285156 0.894531 -0.488281 0.71875 -0.75 C 0.539062 -1.019531 0.445312 -1.328125 0.4375 -1.671875 L 1.609375 -1.671875 C 1.628906 -1.421875 1.710938 -1.222656 1.859375 -1.078125 C 2.015625 -0.941406 2.210938 -0.875 2.453125 -0.875 C 2.722656 -0.875 2.929688 -0.96875 3.078125 -1.15625 C 3.222656 -1.351562 3.296875 -1.628906 3.296875 -1.984375 C 3.296875 -2.328125 3.210938 -2.585938 3.046875 -2.765625 C 2.878906 -2.941406 2.640625 -3.03125 2.328125 -3.03125 C 2.046875 -3.03125 1.816406 -2.957031 1.640625 -2.8125 L 1.53125 -2.703125 Z M 0.578125 -2.9375 "/></g></g><g transform="translate(82.720034, 38.943779)"><g><path d="M 0.515625 -0.578125 C 0.515625 -0.773438 0.578125 -0.929688 0.703125 -1.046875 C 0.835938 -1.160156 1 -1.21875 1.1875 -1.21875 C 1.382812 -1.21875 1.546875 -1.160156 1.671875 -1.046875 C 1.796875 -0.929688 1.859375 -0.773438 1.859375 -0.578125 C 1.859375 -0.390625 1.796875 -0.238281 1.671875 -0.125 C 1.546875 -0.0078125 1.382812 0.046875 1.1875 0.046875 C 0.988281 0.046875 0.828125 -0.0078125 0.703125 -0.125 C 0.578125 -0.238281 0.515625 -0.390625 0.515625 -0.578125 Z M 0.515625 -0.578125 "/></g></g><g transform="translate(85.167531, 38.943779)"><g><path d="M 0.578125 -2.9375 L 0.921875 -5.984375 L 4.28125 -5.984375 L 4.28125 -5 L 1.90625 -5 L 1.75 -3.703125 C 2.03125 -3.859375 2.332031 -3.9375 2.65625 -3.9375 C 3.226562 -3.9375 3.675781 -3.757812 4 -3.40625 C 4.320312 -3.050781 4.484375 -2.554688 4.484375 -1.921875 C 4.484375 -1.535156 4.398438 -1.1875 4.234375 -0.875 C 4.078125 -0.570312 3.84375 -0.335938 3.53125 -0.171875 C 3.226562 -0.00390625 2.867188 0.078125 2.453125 0.078125 C 2.097656 0.078125 1.765625 0.00390625 1.453125 -0.140625 C 1.140625 -0.285156 0.894531 -0.488281 0.71875 -0.75 C 0.539062 -1.019531 0.445312 -1.328125 0.4375 -1.671875 L 1.609375 -1.671875 C 1.628906 -1.421875 1.710938 -1.222656 1.859375 -1.078125 C 2.015625 -0.941406 2.210938 -0.875 2.453125 -0.875 C 2.722656 -0.875 2.929688 -0.96875 3.078125 -1.15625 C 3.222656 -1.351562 3.296875 -1.628906 3.296875 -1.984375 C 3.296875 -2.328125 3.210938 -2.585938 3.046875 -2.765625 C 2.878906 -2.941406 2.640625 -3.03125 2.328125 -3.03125 C 2.046875 -3.03125 1.816406 -2.957031 1.640625 -2.8125 L 1.53125 -2.703125 Z M 0.578125 -2.9375 "/></g></g><g transform="translate(90.000824, 38.943779)"><g/></g><g transform="translate(92.098679, 38.943779)"><g><path d="M 1.578125 -4.453125 L 1.609375 -3.953125 C 1.921875 -4.335938 2.347656 -4.53125 2.890625 -4.53125 C 3.460938 -4.53125 3.851562 -4.304688 4.0625 -3.859375 C 4.375 -4.304688 4.820312 -4.53125 5.40625 -4.53125 C 5.882812 -4.53125 6.238281 -4.390625 6.46875 -4.109375 C 6.707031 -3.828125 6.828125 -3.40625 6.828125 -2.84375 L 6.828125 0 L 5.640625 0 L 5.640625 -2.84375 C 5.640625 -3.09375 5.585938 -3.273438 5.484375 -3.390625 C 5.390625 -3.503906 5.21875 -3.5625 4.96875 -3.5625 C 4.613281 -3.5625 4.367188 -3.394531 4.234375 -3.0625 L 4.234375 0 L 3.046875 0 L 3.046875 -2.828125 C 3.046875 -3.085938 2.992188 -3.273438 2.890625 -3.390625 C 2.796875 -3.503906 2.625 -3.5625 2.375 -3.5625 C 2.039062 -3.5625 1.796875 -3.421875 1.640625 -3.140625 L 1.640625 0 L 0.453125 0 L 0.453125 -4.453125 Z M 1.578125 -4.453125 "/></g></g></g><g fill="#a8180f" fill-opacity="1"><g transform="translate(167.970697, 43.124995)"><g><path d="M 5.5 -12.96875 C 6.769531 -12.96875 7.773438 -12.660156 8.515625 -12.046875 C 9.253906 -11.441406 9.625 -10.597656 9.625 -9.515625 C 9.625 -8.921875 9.476562 -8.382812 9.1875 -7.90625 C 8.894531 -7.4375 8.484375 -7.0625 7.953125 -6.78125 C 8.671875 -6.53125 9.21875 -6.132812 9.59375 -5.59375 C 9.976562 -5.0625 10.171875 -4.410156 10.171875 -3.640625 C 10.171875 -2.441406 9.820312 -1.503906 9.125 -0.828125 C 8.4375 -0.160156 7.484375 0.171875 6.265625 0.171875 C 5.335938 0.171875 4.507812 -0.0507812 3.78125 -0.5 L 3.78125 3.5625 L 1.25 3.5625 L 1.25 -9.09375 C 1.25 -9.820312 1.429688 -10.484375 1.796875 -11.078125 C 2.171875 -11.671875 2.6875 -12.132812 3.34375 -12.46875 C 4 -12.800781 4.71875 -12.96875 5.5 -12.96875 Z M 7.078125 -9.3125 C 7.078125 -9.789062 6.929688 -10.175781 6.640625 -10.46875 C 6.359375 -10.769531 5.976562 -10.921875 5.5 -10.921875 C 5 -10.921875 4.585938 -10.753906 4.265625 -10.421875 C 3.941406 -10.085938 3.78125 -9.628906 3.78125 -9.046875 L 3.78125 -2.375 C 4.269531 -2.039062 4.90625 -1.875 5.6875 -1.875 C 6.28125 -1.875 6.753906 -2.039062 7.109375 -2.375 C 7.460938 -2.71875 7.640625 -3.148438 7.640625 -3.671875 C 7.640625 -4.304688 7.476562 -4.800781 7.15625 -5.15625 C 6.84375 -5.507812 6.375 -5.6875 5.75 -5.6875 L 4.890625 -5.6875 L 4.890625 -7.546875 L 5.578125 -7.546875 C 6.578125 -7.578125 7.078125 -8.164062 7.078125 -9.3125 Z M 7.078125 -9.3125 "/></g></g><g transform="translate(178.798821, 43.124995)"><g/></g><g transform="translate(183.281243, 43.124995)"><g><path d="M 9.046875 -6.5625 L 1.203125 -6.5625 L 1.203125 -8.625 L 9.046875 -8.625 Z M 9.046875 -2.75 L 1.203125 -2.75 L 1.203125 -4.828125 L 9.046875 -4.828125 Z M 9.046875 -2.75 "/></g></g><g transform="translate(193.582023, 43.124995)"><g/></g><g transform="translate(198.064445, 43.124995)"><g><path d="M 3.046875 -3.921875 C 3.046875 -4.742188 3.144531 -5.398438 3.34375 -5.890625 C 3.539062 -6.378906 3.90625 -6.859375 4.4375 -7.328125 C 4.96875 -7.796875 5.320312 -8.175781 5.5 -8.46875 C 5.675781 -8.769531 5.765625 -9.082031 5.765625 -9.40625 C 5.765625 -10.40625 5.304688 -10.90625 4.390625 -10.90625 C 3.960938 -10.90625 3.617188 -10.769531 3.359375 -10.5 C 3.097656 -10.226562 2.957031 -9.859375 2.9375 -9.390625 L 0.390625 -9.390625 C 0.398438 -10.515625 0.757812 -11.390625 1.46875 -12.015625 C 2.1875 -12.648438 3.160156 -12.96875 4.390625 -12.96875 C 5.640625 -12.96875 6.601562 -12.664062 7.28125 -12.0625 C 7.96875 -11.46875 8.3125 -10.625 8.3125 -9.53125 C 8.3125 -9.03125 8.195312 -8.554688 7.96875 -8.109375 C 7.75 -7.671875 7.363281 -7.179688 6.8125 -6.640625 L 6.09375 -5.96875 C 5.65625 -5.539062 5.398438 -5.039062 5.328125 -4.46875 L 5.296875 -3.921875 Z M 2.796875 -1.234375 C 2.796875 -1.617188 2.925781 -1.9375 3.1875 -2.1875 C 3.457031 -2.445312 3.800781 -2.578125 4.21875 -2.578125 C 4.632812 -2.578125 4.972656 -2.445312 5.234375 -2.1875 C 5.503906 -1.9375 5.640625 -1.617188 5.640625 -1.234375 C 5.640625 -0.847656 5.507812 -0.523438 5.25 -0.265625 C 4.988281 -0.015625 4.644531 0.109375 4.21875 0.109375 C 3.789062 0.109375 3.445312 -0.015625 3.1875 -0.265625 C 2.925781 -0.523438 2.796875 -0.847656 2.796875 -1.234375 Z M 2.796875 -1.234375 "/></g></g></g></svg>