<svg xmlns="http://www.w3.org/2000/svg" xmlns:xlink="http://www.w3.org/1999/xlink" width="500" zoomAndPan="magnify" viewBox="0 0 375 74.999997" height="100" preserveAspectRatio="xMidYMid meet" version="1.0"><defs><clipPath id="619e6dae4e"><path d="M 114 27 L 128 27 L 128 49.875 L 114 49.875 Z M 114 27 " clip-rule="nonzero"/></clipPath><clipPath id="b0412de244"><path d="M 222 25.125 L 227 25.125 L 227 34 L 222 34 Z M 222 25.125 " clip-rule="nonzero"/></clipPath><clipPath id="dee45614f4"><path d="M 252 25.125 L 258 25.125 L 258 34 L 252 34 Z M 252 25.125 " clip-rule="nonzero"/></clipPath><clipPath id="c67be104db"><path d="M 257 25.125 L 262 25.125 L 262 34 L 257 34 Z M 257 25.125 " clip-rule="nonzero"/></clipPath></defs><g clip-path="url(#619e6dae4e)"><path fill="#a8180f" d="M 127.710938 30.265625 C 127.710938 28.75 126.417969 27.160156 124.113281 27.160156 C 120.847656 27.160156 118.769531 31.152344 118.113281 33.78125 L 114.109375 49.621094 C 114.058594 49.824219 114.210938 49.875 114.339844 49.875 C 114.515625 49.875 114.644531 49.847656 114.667969 49.722656 L 116.441406 42.648438 C 116.695312 44.0625 118.085938 45.226562 119.582031 45.226562 C 123.203125 45.226562 126.621094 42.394531 126.621094 38.628906 C 126.621094 37.671875 126.394531 36.710938 125.863281 35.902344 C 125.558594 35.421875 125.179688 35.066406 124.773438 34.765625 C 126.597656 33.804688 127.710938 32.261719 127.710938 30.265625 Z M 123.304688 34.738281 C 122.898438 34.890625 122.492188 34.941406 122.011719 34.941406 C 121.65625 34.941406 121.328125 34.96875 120.871094 34.816406 C 121.125 34.636719 121.507812 34.589844 122.039062 34.589844 C 122.492188 34.589844 122.949219 34.636719 123.304688 34.738281 Z M 126.394531 30.039062 C 126.394531 31.429688 125.710938 33.449219 124.0625 34.386719 C 123.582031 34.210938 122.925781 34.082031 122.367188 34.082031 C 121.835938 34.082031 120.316406 34.03125 120.316406 34.839844 C 120.316406 35.523438 121.707031 35.445312 122.140625 35.445312 C 122.796875 35.445312 123.378906 35.296875 123.988281 35.117188 C 124.796875 35.777344 125.152344 36.632812 125.152344 37.898438 C 125.152344 39.363281 124.746094 40.550781 124.265625 41.636719 C 123.429688 43.507812 121.457031 44.71875 119.707031 44.71875 C 117.859375 44.71875 116.898438 43.253906 116.898438 41.535156 C 116.898438 41.308594 116.898438 40.980469 116.996094 40.601562 L 118.644531 33.957031 C 119.480469 30.644531 121.605469 27.664062 124.0625 27.664062 C 125.886719 27.664062 126.394531 28.929688 126.394531 30.039062 Z M 126.394531 30.039062 " fill-opacity="1" fill-rule="nonzero"/></g><path fill="#a8180f" d="M 152.910156 36.785156 C 153.265625 36.785156 153.71875 36.785156 153.71875 36.332031 C 153.71875 35.851562 153.289062 35.851562 152.910156 35.851562 L 137.992188 35.851562 C 137.636719 35.851562 137.183594 35.851562 137.183594 36.304688 C 137.183594 36.785156 137.613281 36.785156 137.992188 36.785156 Z M 152.910156 41.484375 C 153.265625 41.484375 153.71875 41.484375 153.71875 41.03125 C 153.71875 40.550781 153.289062 40.550781 152.910156 40.550781 L 137.992188 40.550781 C 137.636719 40.550781 137.183594 40.550781 137.183594 41.003906 C 137.183594 41.484375 137.613281 41.484375 137.992188 41.484375 Z M 152.910156 41.484375 " fill-opacity="1" fill-rule="nonzero"/><path fill="#a8180f" d="M 165.378906 30.496094 C 166.46875 30.847656 167.355469 30.875 167.632812 30.875 C 170.496094 30.875 172.320312 28.777344 172.320312 28.421875 C 172.320312 28.320312 172.269531 28.195312 172.117188 28.195312 C 172.066406 28.195312 172.015625 28.195312 171.785156 28.296875 C 170.367188 28.902344 169.152344 28.980469 168.496094 28.980469 C 166.824219 28.980469 165.632812 28.472656 165.152344 28.269531 C 164.972656 28.195312 164.921875 28.195312 164.898438 28.195312 C 164.695312 28.195312 164.695312 28.347656 164.695312 28.75 L 164.695312 36.253906 C 164.695312 36.710938 164.695312 36.863281 165 36.863281 C 165.125 36.863281 165.152344 36.835938 165.40625 36.535156 C 166.113281 35.496094 167.304688 34.890625 168.570312 34.890625 C 169.914062 34.890625 170.570312 36.128906 170.773438 36.558594 C 171.203125 37.542969 171.230469 38.78125 171.230469 39.742188 C 171.230469 40.703125 171.230469 42.144531 170.519531 43.28125 C 169.964844 44.1875 168.976562 44.820312 167.863281 44.820312 C 166.191406 44.820312 164.542969 43.683594 164.089844 41.839844 C 164.214844 41.890625 164.367188 41.914062 164.492188 41.914062 C 164.921875 41.914062 165.609375 41.664062 165.609375 40.804688 C 165.609375 40.097656 165.125 39.691406 164.492188 39.691406 C 164.039062 39.691406 163.378906 39.917969 163.378906 40.90625 C 163.378906 43.050781 165.101562 45.503906 167.914062 45.503906 C 170.773438 45.503906 173.28125 43.101562 173.28125 39.894531 C 173.28125 36.886719 171.253906 34.386719 168.597656 34.386719 C 167.152344 34.386719 166.039062 35.015625 165.378906 35.726562 Z M 165.378906 30.496094 " fill-opacity="1" fill-rule="nonzero"/><path fill="#a8180f" d="M 177.652344 36.179688 C 177.652344 29.789062 180.765625 28.777344 182.132812 28.777344 C 183.046875 28.777344 183.957031 29.054688 184.4375 29.8125 C 184.136719 29.8125 183.171875 29.8125 183.171875 30.847656 C 183.171875 31.40625 183.554688 31.882812 184.210938 31.882812 C 184.84375 31.882812 185.273438 31.503906 185.273438 30.773438 C 185.273438 29.457031 184.3125 28.171875 182.109375 28.171875 C 178.917969 28.171875 175.574219 31.429688 175.574219 36.988281 C 175.574219 43.9375 178.613281 45.503906 180.765625 45.503906 C 183.527344 45.503906 185.882812 43.101562 185.882812 39.816406 C 185.882812 36.457031 183.527344 34.210938 180.996094 34.210938 C 178.742188 34.210938 177.90625 36.15625 177.652344 36.863281 Z M 180.765625 44.820312 C 179.171875 44.820312 178.410156 43.40625 178.183594 42.875 C 177.957031 42.21875 177.703125 40.980469 177.703125 39.210938 C 177.703125 37.214844 178.613281 34.714844 180.894531 34.714844 C 182.285156 34.714844 183.019531 35.648438 183.402344 36.507812 C 183.804688 37.441406 183.804688 38.707031 183.804688 39.792969 C 183.804688 41.082031 183.804688 42.21875 183.324219 43.179688 C 182.691406 44.390625 181.78125 44.820312 180.765625 44.820312 Z M 180.765625 44.820312 " fill-opacity="1" fill-rule="nonzero"/><path fill="#a8180f" d="M 194.886719 30.328125 C 194.886719 28.390625 193.335938 26.84375 191.410156 26.84375 C 189.484375 26.84375 187.933594 28.390625 187.933594 30.328125 C 187.933594 32.265625 189.484375 33.816406 191.410156 33.816406 C 193.335938 33.816406 194.886719 32.265625 194.886719 30.328125 Z M 191.410156 33.042969 C 189.90625 33.042969 188.707031 31.84375 188.707031 30.328125 C 188.707031 28.8125 189.90625 27.617188 191.410156 27.617188 C 192.914062 27.617188 194.113281 28.8125 194.113281 30.328125 C 194.113281 31.84375 192.914062 33.042969 191.410156 33.042969 Z M 191.410156 33.042969 " fill-opacity="1" fill-rule="nonzero"/><path fill="#a8180f" d="M 200.203125 30.496094 C 201.289062 30.847656 202.175781 30.875 202.457031 30.875 C 205.316406 30.875 207.140625 28.777344 207.140625 28.421875 C 207.140625 28.320312 207.089844 28.195312 206.9375 28.195312 C 206.886719 28.195312 206.835938 28.195312 206.609375 28.296875 C 205.191406 28.902344 203.976562 28.980469 203.316406 28.980469 C 201.644531 28.980469 200.457031 28.472656 199.972656 28.269531 C 199.796875 28.195312 199.746094 28.195312 199.722656 28.195312 C 199.519531 28.195312 199.519531 28.347656 199.519531 28.75 L 199.519531 36.253906 C 199.519531 36.710938 199.519531 36.863281 199.820312 36.863281 C 199.949219 36.863281 199.972656 36.835938 200.226562 36.535156 C 200.9375 35.496094 202.125 34.890625 203.394531 34.890625 C 204.734375 34.890625 205.394531 36.128906 205.597656 36.558594 C 206.027344 37.542969 206.050781 38.78125 206.050781 39.742188 C 206.050781 40.703125 206.050781 42.144531 205.34375 43.28125 C 204.785156 44.1875 203.796875 44.820312 202.683594 44.820312 C 201.011719 44.820312 199.367188 43.683594 198.910156 41.839844 C 199.035156 41.890625 199.1875 41.914062 199.316406 41.914062 C 199.746094 41.914062 200.429688 41.664062 200.429688 40.804688 C 200.429688 40.097656 199.949219 39.691406 199.316406 39.691406 C 198.859375 39.691406 198.203125 39.917969 198.203125 40.90625 C 198.203125 43.050781 199.921875 45.503906 202.734375 45.503906 C 205.597656 45.503906 208.105469 43.101562 208.105469 39.894531 C 208.105469 36.886719 206.078125 34.386719 203.417969 34.386719 C 201.976562 34.386719 200.859375 35.015625 200.203125 35.726562 Z M 200.203125 30.496094 " fill-opacity="1" fill-rule="nonzero"/><path fill="#a8180f" d="M 212.472656 36.179688 C 212.472656 29.789062 215.589844 28.777344 216.957031 28.777344 C 217.867188 28.777344 218.78125 29.054688 219.261719 29.8125 C 218.957031 29.8125 217.996094 29.8125 217.996094 30.847656 C 217.996094 31.40625 218.375 31.882812 219.035156 31.882812 C 219.667969 31.882812 220.097656 31.503906 220.097656 30.773438 C 220.097656 29.457031 219.136719 28.171875 216.933594 28.171875 C 213.742188 28.171875 210.398438 31.429688 210.398438 36.988281 C 210.398438 43.9375 213.4375 45.503906 215.589844 45.503906 C 218.351562 45.503906 220.707031 43.101562 220.707031 39.816406 C 220.707031 36.457031 218.351562 34.210938 215.816406 34.210938 C 213.5625 34.210938 212.726562 36.15625 212.472656 36.863281 Z M 215.589844 44.820312 C 213.992188 44.820312 213.234375 43.40625 213.007812 42.875 C 212.777344 42.21875 212.523438 40.980469 212.523438 39.210938 C 212.523438 37.214844 213.4375 34.714844 215.714844 34.714844 C 217.109375 34.714844 217.84375 35.648438 218.222656 36.507812 C 218.628906 37.441406 218.628906 38.707031 218.628906 39.792969 C 218.628906 41.082031 218.628906 42.21875 218.148438 43.179688 C 217.515625 44.390625 216.601562 44.820312 215.589844 44.820312 Z M 215.589844 44.820312 " fill-opacity="1" fill-rule="nonzero"/><g clip-path="url(#b0412de244)"><path fill="#a8180f" d="M 226.234375 26.554688 C 226.316406 26.335938 226.382812 26.21875 226.382812 26.050781 C 226.382812 25.496094 225.878906 25.125 225.40625 25.125 C 224.730469 25.125 224.542969 25.714844 224.476562 25.949219 L 222.332031 33.210938 C 222.265625 33.410156 222.265625 33.460938 222.265625 33.480469 C 222.265625 33.632812 222.367188 33.664062 222.535156 33.714844 C 222.839844 33.851562 222.871094 33.851562 222.90625 33.851562 C 222.957031 33.851562 223.058594 33.851562 223.175781 33.5625 Z M 226.234375 26.554688 " fill-opacity="1" fill-rule="nonzero"/></g><path fill="#a8180f" d="M 232.339844 35.902344 C 231.910156 35.925781 231.808594 35.953125 231.808594 36.179688 C 231.808594 36.433594 231.933594 36.433594 232.390625 36.433594 L 233.554688 36.433594 C 235.707031 36.433594 236.671875 38.199219 236.671875 40.625 C 236.671875 43.9375 234.949219 44.820312 233.707031 44.820312 C 232.492188 44.820312 230.414062 44.238281 229.679688 42.574219 C 230.492188 42.699219 231.226562 42.242188 231.226562 41.335938 C 231.226562 40.601562 230.691406 40.097656 229.984375 40.097656 C 229.375 40.097656 228.71875 40.449219 228.71875 41.410156 C 228.71875 43.660156 230.972656 45.503906 233.78125 45.503906 C 236.796875 45.503906 239.023438 43.203125 239.023438 40.652344 C 239.023438 38.328125 237.152344 36.507812 234.71875 36.078125 C 236.921875 35.445312 238.339844 33.601562 238.339844 31.632812 C 238.339844 29.636719 236.265625 28.171875 233.808594 28.171875 C 231.277344 28.171875 229.402344 29.710938 229.402344 31.554688 C 229.402344 32.566406 230.1875 32.769531 230.566406 32.769531 C 231.097656 32.769531 231.707031 32.390625 231.707031 31.632812 C 231.707031 30.824219 231.097656 30.46875 230.542969 30.46875 C 230.390625 30.46875 230.339844 30.46875 230.261719 30.496094 C 231.226562 28.777344 233.605469 28.777344 233.730469 28.777344 C 234.566406 28.777344 236.214844 29.15625 236.214844 31.632812 C 236.214844 32.113281 236.136719 33.527344 235.402344 34.613281 C 234.644531 35.726562 233.78125 35.800781 233.097656 35.824219 Z M 232.339844 35.902344 " fill-opacity="1" fill-rule="nonzero"/><path fill="#a8180f" d="M 249.347656 37.621094 C 249.347656 43.582031 246.6875 44.820312 245.167969 44.820312 C 244.5625 44.820312 243.21875 44.746094 242.585938 43.859375 L 242.738281 43.859375 C 242.914062 43.910156 243.828125 43.761719 243.828125 42.824219 C 243.828125 42.269531 243.445312 41.789062 242.789062 41.789062 C 242.128906 41.789062 241.722656 42.21875 241.722656 42.875 C 241.722656 44.441406 242.992188 45.503906 245.195312 45.503906 C 248.359375 45.503906 251.425781 42.144531 251.425781 36.660156 C 251.425781 29.863281 248.585938 28.171875 246.359375 28.171875 C 243.574219 28.171875 241.117188 30.496094 241.117188 33.828125 C 241.117188 37.164062 243.472656 39.4375 246.003906 39.4375 C 247.878906 39.4375 248.839844 38.074219 249.347656 36.785156 Z M 246.105469 38.933594 C 244.511719 38.933594 243.828125 37.644531 243.597656 37.164062 C 243.195312 36.203125 243.195312 34.992188 243.195312 33.855469 C 243.195312 32.441406 243.195312 31.226562 243.851562 30.191406 C 244.308594 29.507812 244.992188 28.777344 246.359375 28.777344 C 247.800781 28.777344 248.539062 30.039062 248.789062 30.621094 C 249.296875 31.859375 249.296875 34.007812 249.296875 34.386719 C 249.296875 36.507812 248.335938 38.933594 246.105469 38.933594 Z M 246.105469 38.933594 " fill-opacity="1" fill-rule="nonzero"/><g clip-path="url(#dee45614f4)"><path fill="#a8180f" d="M 256.953125 26.554688 C 257.035156 26.335938 257.105469 26.21875 257.105469 26.050781 C 257.105469 25.496094 256.597656 25.125 256.125 25.125 C 255.449219 25.125 255.261719 25.714844 255.195312 25.949219 L 253.050781 33.210938 C 252.984375 33.410156 252.984375 33.460938 252.984375 33.480469 C 252.984375 33.632812 253.085938 33.664062 253.253906 33.714844 C 253.558594 33.851562 253.589844 33.851562 253.625 33.851562 C 253.675781 33.851562 253.777344 33.851562 253.894531 33.5625 Z M 256.953125 26.554688 " fill-opacity="1" fill-rule="nonzero"/></g><g clip-path="url(#c67be104db)"><path fill="#a8180f" d="M 261.816406 26.554688 C 261.902344 26.335938 261.96875 26.21875 261.96875 26.050781 C 261.96875 25.496094 261.464844 25.125 260.992188 25.125 C 260.316406 25.125 260.128906 25.714844 260.0625 25.949219 L 257.917969 33.210938 C 257.851562 33.410156 257.851562 33.460938 257.851562 33.480469 C 257.851562 33.632812 257.949219 33.664062 258.121094 33.714844 C 258.425781 33.851562 258.457031 33.851562 258.492188 33.851562 C 258.542969 33.851562 258.644531 33.851562 258.761719 33.5625 Z M 261.816406 26.554688 " fill-opacity="1" fill-rule="nonzero"/></g></svg>