<svg xmlns="http://www.w3.org/2000/svg" xmlns:xlink="http://www.w3.org/1999/xlink" width="500" zoomAndPan="magnify" viewBox="0 0 375 74.999997" height="100" preserveAspectRatio="xMidYMid meet" version="1.0"><defs><g/><clipPath id="999f2182e0"><path d="M 43 37.632812 L 53.195312 37.632812 L 53.195312 60.992188 L 43 60.992188 Z M 43 37.632812 " clip-rule="nonzero"/></clipPath><clipPath id="f06a9c16f2"><path d="M 47.101562 39.226562 C 45.675781 48.675781 46.726562 50.398438 47.773438 52.273438 C 49.050781 54.523438 52.875 57.375 53.023438 58.949219 C 53.101562 59.699219 52.5 60.75 52.125 60.824219 C 51.75 60.898438 50.699219 59.773438 50.699219 59.324219 C 50.699219 59.023438 51.148438 58.574219 51.449219 58.425781 C 51.75 58.273438 52.351562 58.351562 52.648438 58.574219 C 52.949219 58.800781 53.175781 59.25 53.175781 59.625 C 53.175781 60 52.726562 60.75 52.273438 60.824219 C 51.523438 60.898438 50.023438 59.175781 48.976562 58.125 C 47.851562 57 46.875 55.648438 45.976562 54.074219 C 44.925781 52.199219 43.5 49.800781 43.273438 47.398438 C 42.976562 44.625 43.875 39.601562 44.925781 38.398438 C 45.375 37.875 46.199219 37.648438 46.574219 37.800781 C 46.875 37.949219 47.101562 39.226562 47.101562 39.226562 " clip-rule="nonzero"/></clipPath><clipPath id="973b075ff1"><path d="M 125.402344 13.789062 L 164 13.789062 L 164 32.714844 L 125.402344 32.714844 Z M 125.402344 13.789062 " clip-rule="nonzero"/></clipPath><clipPath id="2c2a3aee98"><path d="M 128.25 18.375 C 130.050781 25.125 132.148438 27.226562 134.699219 28.425781 C 138.148438 30 145.425781 30.300781 148.5 30.074219 C 150.074219 30 150.824219 29.773438 152.023438 29.175781 C 153.523438 28.425781 155.25 26.925781 156.675781 25.574219 C 158.101562 24.226562 159.601562 22.875 160.425781 21.074219 C 161.324219 19.199219 160.800781 15.226562 161.699219 14.398438 C 162.148438 13.949219 163.125 13.949219 163.5 14.175781 C 163.800781 14.398438 164.023438 15.375 163.800781 15.675781 C 163.574219 16.050781 162.523438 16.425781 162.148438 16.199219 C 161.773438 15.976562 161.476562 14.851562 161.625 14.476562 C 161.773438 14.101562 162.675781 13.800781 163.050781 13.949219 C 163.425781 14.101562 163.800781 14.550781 163.949219 15.148438 C 164.25 16.648438 163.125 21.148438 161.699219 23.550781 C 160.273438 25.949219 157.574219 28.199219 155.398438 29.699219 C 153.523438 30.898438 151.800781 31.726562 149.699219 32.175781 C 147.300781 32.625 144.449219 32.324219 141.75 32.023438 C 138.976562 31.726562 135.523438 31.351562 133.351562 30.375 C 131.699219 29.625 130.574219 28.5 129.375 27.300781 C 128.175781 26.101562 126.824219 24.675781 126.226562 23.101562 C 125.625 21.523438 125.476562 18.675781 126 17.773438 C 126.300781 17.324219 126.976562 17.023438 127.351562 17.101562 C 127.726562 17.175781 128.25 18.375 128.25 18.375 " clip-rule="nonzero"/></clipPath><clipPath id="19c642cb6f"><path d="M 242.765625 23.085938 L 271.734375 23.085938 L 271.734375 46.363281 L 242.765625 46.363281 Z M 242.765625 23.085938 " clip-rule="nonzero"/></clipPath><clipPath id="e0f0a70df4"><path d="M 243.375 31.574219 C 258.074219 24.523438 262.351562 23.101562 265.125 23.625 C 267.148438 24 268.949219 25.574219 269.925781 26.625 C 270.601562 27.300781 270.824219 27.824219 271.125 28.726562 C 271.5 29.925781 271.648438 32.023438 271.574219 33.375 C 271.5 34.425781 271.5 35.101562 270.976562 36.148438 C 270.074219 38.023438 267.074219 41.550781 265.574219 43.125 C 264.75 44.023438 264.226562 44.476562 263.324219 45 C 262.273438 45.601562 260.925781 46.273438 259.425781 46.273438 C 257.550781 46.273438 255 45.375 252.976562 44.175781 C 250.648438 42.824219 246.976562 39.601562 246.449219 38.175781 C 246.226562 37.574219 246.375 36.898438 246.675781 36.675781 C 246.898438 36.449219 247.648438 36.449219 247.949219 36.675781 C 248.25 36.898438 248.324219 37.648438 248.25 37.949219 C 248.175781 38.25 247.800781 38.550781 247.5 38.550781 C 247.125 38.550781 246.226562 37.726562 246.226562 37.351562 C 246.226562 37.050781 246.976562 36.449219 247.5 36.523438 C 248.699219 36.675781 250.949219 40.273438 252.675781 41.550781 C 254.101562 42.523438 255.675781 43.273438 256.875 43.726562 C 257.699219 44.023438 258.300781 44.25 259.125 44.175781 C 260.023438 44.101562 261.148438 43.800781 262.125 43.273438 C 263.175781 42.675781 264.148438 41.773438 265.199219 40.648438 C 266.625 39.074219 268.800781 36.601562 269.398438 34.574219 C 269.851562 32.925781 269.699219 31.050781 269.25 29.699219 C 268.875 28.5 267.976562 27.375 267.148438 26.625 C 266.476562 26.023438 265.800781 25.648438 264.976562 25.425781 C 264.074219 25.199219 263.25 25.273438 262.050781 25.5 C 259.800781 25.875 255.898438 27.074219 252.898438 28.351562 C 249.824219 29.699219 245.476562 33.523438 243.976562 33.375 C 243.449219 33.300781 243 32.851562 242.925781 32.550781 C 242.851562 32.25 243.375 31.574219 243.375 31.574219 " clip-rule="nonzero"/></clipPath></defs><g clip-path="url(#999f2182e0)"><g clip-path="url(#f06a9c16f2)"><path fill="#a5e7f0" d="M 40.273438 34.800781 L 56.175781 34.800781 L 56.175781 63.824219 L 40.273438 63.824219 Z M 40.273438 34.800781 " fill-opacity="1" fill-rule="nonzero"/></g></g><g clip-path="url(#973b075ff1)"><g clip-path="url(#2c2a3aee98)"><path fill="#a5e7f0" d="M 123 10.949219 L 166.949219 10.949219 L 166.949219 35.175781 L 123 35.175781 Z M 123 10.949219 " fill-opacity="1" fill-rule="nonzero"/></g></g><path stroke-linecap="round" transform="matrix(-0.644289, 0.385384, -0.384998, -0.643643, 142.969069, 8.787537)" fill="none" stroke-linejoin="miter" d="M 1.999372 2.001934 L 153.845051 2.000877 " stroke="#17191a" stroke-width="4" stroke-opacity="1" stroke-miterlimit="4"/><g clip-path="url(#19c642cb6f)"><g clip-path="url(#e0f0a70df4)"><path fill="#a8180f" d="M 239.925781 20.625 L 274.574219 20.625 L 274.574219 49.273438 L 239.925781 49.273438 Z M 239.925781 20.625 " fill-opacity="1" fill-rule="nonzero"/></g></g><path stroke-linecap="round" transform="matrix(0.728197, 0.183054, -0.182846, 0.72737, 140.357809, 6.045511)" fill="none" stroke-linejoin="miter" d="M 2.001183 2.00084 L 162.816569 2.000215 " stroke="#17191a" stroke-width="4" stroke-opacity="1" stroke-miterlimit="4"/><path stroke-linecap="round" transform="matrix(0.749062, -0.000000000000000119, 0.000000000000000119, 0.75, 25.200004, 35.999996)" fill="none" stroke-linejoin="miter" d="M 2.001457 2.000005 L 310.397537 2.000005 " stroke="#17191a" stroke-width="4" stroke-opacity="1" stroke-miterlimit="4"/><g fill="#a9a9a9" fill-opacity="1"><g transform="translate(58.869081, 47.090576)"><g><path d="M 3.90625 0 L 2.5 0 L 2.5 -5.4375 L 0.8125 -4.921875 L 0.8125 -6.0625 L 3.765625 -7.125 L 3.90625 -7.125 Z M 3.90625 0 "/></g></g></g><g fill="#a9a9a9" fill-opacity="1"><g transform="translate(64.60415, 47.090576)"><g><path d="M 0.6875 -3.5 L 1.109375 -7.109375 L 5.09375 -7.109375 L 5.09375 -5.9375 L 2.265625 -5.9375 L 2.078125 -4.40625 C 2.421875 -4.582031 2.78125 -4.671875 3.15625 -4.671875 C 3.832031 -4.671875 4.363281 -4.457031 4.75 -4.03125 C 5.132812 -3.613281 5.328125 -3.03125 5.328125 -2.28125 C 5.328125 -1.820312 5.226562 -1.410156 5.03125 -1.046875 C 4.832031 -0.679688 4.550781 -0.398438 4.1875 -0.203125 C 3.832031 -0.00390625 3.410156 0.09375 2.921875 0.09375 C 2.492188 0.09375 2.09375 0.0078125 1.71875 -0.15625 C 1.351562 -0.332031 1.0625 -0.578125 0.84375 -0.890625 C 0.632812 -1.210938 0.523438 -1.578125 0.515625 -1.984375 L 1.90625 -1.984375 C 1.9375 -1.679688 2.039062 -1.445312 2.21875 -1.28125 C 2.394531 -1.125 2.628906 -1.046875 2.921875 -1.046875 C 3.234375 -1.046875 3.472656 -1.160156 3.640625 -1.390625 C 3.816406 -1.617188 3.90625 -1.941406 3.90625 -2.359375 C 3.90625 -2.765625 3.804688 -3.070312 3.609375 -3.28125 C 3.410156 -3.5 3.128906 -3.609375 2.765625 -3.609375 C 2.429688 -3.609375 2.160156 -3.519531 1.953125 -3.34375 L 1.8125 -3.21875 Z M 0.6875 -3.5 "/></g></g></g><g fill="#a9a9a9" fill-opacity="1"><g transform="translate(70.339219, 47.090576)"><g><path d="M 0.609375 -5.859375 C 0.609375 -6.234375 0.738281 -6.550781 1 -6.8125 C 1.269531 -7.070312 1.582031 -7.203125 1.9375 -7.203125 C 2.289062 -7.203125 2.597656 -7.070312 2.859375 -6.8125 C 3.117188 -6.550781 3.25 -6.234375 3.25 -5.859375 C 3.25 -5.484375 3.117188 -5.164062 2.859375 -4.90625 C 2.597656 -4.65625 2.289062 -4.53125 1.9375 -4.53125 C 1.59375 -4.53125 1.285156 -4.65625 1.015625 -4.90625 C 0.742188 -5.164062 0.609375 -5.484375 0.609375 -5.859375 Z M 1.9375 -5.25 C 2.113281 -5.25 2.257812 -5.304688 2.375 -5.421875 C 2.488281 -5.535156 2.546875 -5.679688 2.546875 -5.859375 C 2.546875 -6.023438 2.488281 -6.171875 2.375 -6.296875 C 2.257812 -6.421875 2.113281 -6.484375 1.9375 -6.484375 C 1.769531 -6.484375 1.625 -6.421875 1.5 -6.296875 C 1.382812 -6.171875 1.328125 -6.023438 1.328125 -5.859375 C 1.328125 -5.691406 1.382812 -5.546875 1.5 -5.421875 C 1.625 -5.304688 1.769531 -5.25 1.9375 -5.25 Z M 1.9375 -5.25 "/></g></g></g><g fill="#a9a9a9" fill-opacity="1"><g transform="translate(134.193541, 19.067927)"><g><path d="M 3.90625 0 L 2.5 0 L 2.5 -5.4375 L 0.8125 -4.921875 L 0.8125 -6.0625 L 3.765625 -7.125 L 3.90625 -7.125 Z M 3.90625 0 "/></g></g></g><g fill="#a9a9a9" fill-opacity="1"><g transform="translate(139.92861, 19.067927)"><g><path d="M 5.265625 -2.9375 C 5.265625 -1.957031 5.0625 -1.207031 4.65625 -0.6875 C 4.25 -0.164062 3.65625 0.09375 2.875 0.09375 C 2.09375 0.09375 1.5 -0.160156 1.09375 -0.671875 C 0.6875 -1.179688 0.476562 -1.910156 0.46875 -2.859375 L 0.46875 -4.171875 C 0.46875 -5.171875 0.671875 -5.925781 1.078125 -6.4375 C 1.492188 -6.945312 2.085938 -7.203125 2.859375 -7.203125 C 3.640625 -7.203125 4.234375 -6.945312 4.640625 -6.4375 C 5.046875 -5.925781 5.253906 -5.195312 5.265625 -4.25 Z M 3.859375 -4.375 C 3.859375 -4.96875 3.773438 -5.394531 3.609375 -5.65625 C 3.453125 -5.925781 3.203125 -6.0625 2.859375 -6.0625 C 2.523438 -6.0625 2.28125 -5.929688 2.125 -5.671875 C 1.96875 -5.421875 1.882812 -5.023438 1.875 -4.484375 L 1.875 -2.75 C 1.875 -2.175781 1.953125 -1.75 2.109375 -1.46875 C 2.265625 -1.1875 2.519531 -1.046875 2.875 -1.046875 C 3.21875 -1.046875 3.460938 -1.175781 3.609375 -1.4375 C 3.765625 -1.707031 3.847656 -2.125 3.859375 -2.6875 Z M 3.859375 -4.375 "/></g></g></g><g fill="#a9a9a9" fill-opacity="1"><g transform="translate(145.663679, 19.067927)"><g><path d="M 5.265625 -2.9375 C 5.265625 -1.957031 5.0625 -1.207031 4.65625 -0.6875 C 4.25 -0.164062 3.65625 0.09375 2.875 0.09375 C 2.09375 0.09375 1.5 -0.160156 1.09375 -0.671875 C 0.6875 -1.179688 0.476562 -1.910156 0.46875 -2.859375 L 0.46875 -4.171875 C 0.46875 -5.171875 0.671875 -5.925781 1.078125 -6.4375 C 1.492188 -6.945312 2.085938 -7.203125 2.859375 -7.203125 C 3.640625 -7.203125 4.234375 -6.945312 4.640625 -6.4375 C 5.046875 -5.925781 5.253906 -5.195312 5.265625 -4.25 Z M 3.859375 -4.375 C 3.859375 -4.96875 3.773438 -5.394531 3.609375 -5.65625 C 3.453125 -5.925781 3.203125 -6.0625 2.859375 -6.0625 C 2.523438 -6.0625 2.28125 -5.929688 2.125 -5.671875 C 1.96875 -5.421875 1.882812 -5.023438 1.875 -4.484375 L 1.875 -2.75 C 1.875 -2.175781 1.953125 -1.75 2.109375 -1.46875 C 2.265625 -1.1875 2.519531 -1.046875 2.875 -1.046875 C 3.21875 -1.046875 3.460938 -1.175781 3.609375 -1.4375 C 3.765625 -1.707031 3.847656 -2.125 3.859375 -2.6875 Z M 3.859375 -4.375 "/></g></g></g><g fill="#a9a9a9" fill-opacity="1"><g transform="translate(151.398748, 19.067927)"><g><path d="M 0.609375 -5.859375 C 0.609375 -6.234375 0.738281 -6.550781 1 -6.8125 C 1.269531 -7.070312 1.582031 -7.203125 1.9375 -7.203125 C 2.289062 -7.203125 2.597656 -7.070312 2.859375 -6.8125 C 3.117188 -6.550781 3.25 -6.234375 3.25 -5.859375 C 3.25 -5.484375 3.117188 -5.164062 2.859375 -4.90625 C 2.597656 -4.65625 2.289062 -4.53125 1.9375 -4.53125 C 1.59375 -4.53125 1.285156 -4.65625 1.015625 -4.90625 C 0.742188 -5.164062 0.609375 -5.484375 0.609375 -5.859375 Z M 1.9375 -5.25 C 2.113281 -5.25 2.257812 -5.304688 2.375 -5.421875 C 2.488281 -5.535156 2.546875 -5.679688 2.546875 -5.859375 C 2.546875 -6.023438 2.488281 -6.171875 2.375 -6.296875 C 2.257812 -6.421875 2.113281 -6.484375 1.9375 -6.484375 C 1.769531 -6.484375 1.625 -6.421875 1.5 -6.296875 C 1.382812 -6.171875 1.328125 -6.023438 1.328125 -5.859375 C 1.328125 -5.691406 1.382812 -5.546875 1.5 -5.421875 C 1.625 -5.304688 1.769531 -5.25 1.9375 -5.25 Z M 1.9375 -5.25 "/></g></g></g><g fill="#a8180f" fill-opacity="1"><g transform="translate(259.499986, 32.499987)"><g><path d="M 2.984375 0.0625 C 2.109375 -0.0507812 1.4375 -0.363281 0.96875 -0.875 C 0.5 -1.382812 0.265625 -2.0625 0.265625 -2.90625 C 0.265625 -3.40625 0.359375 -3.867188 0.546875 -4.296875 C 0.742188 -4.722656 1.015625 -5.078125 1.359375 -5.359375 L 2.328125 -4.59375 C 2.117188 -4.375 1.957031 -4.113281 1.84375 -3.8125 C 1.738281 -3.519531 1.679688 -3.21875 1.671875 -2.90625 C 1.671875 -1.90625 2.109375 -1.304688 2.984375 -1.109375 L 2.984375 -3.90625 C 2.984375 -4.320312 3.125 -4.664062 3.40625 -4.9375 C 3.6875 -5.21875 4.039062 -5.359375 4.46875 -5.359375 C 4.96875 -5.359375 5.414062 -5.25 5.8125 -5.03125 C 6.21875 -4.820312 6.535156 -4.507812 6.765625 -4.09375 C 7.003906 -3.675781 7.125 -3.222656 7.125 -2.734375 C 7.125 -1.929688 6.882812 -1.285156 6.40625 -0.796875 C 5.9375 -0.316406 5.265625 -0.03125 4.390625 0.0625 L 4.390625 2.328125 L 2.984375 2.328125 Z M 4.390625 -1.09375 C 4.816406 -1.175781 5.144531 -1.351562 5.375 -1.625 C 5.601562 -1.894531 5.71875 -2.265625 5.71875 -2.734375 C 5.707031 -3.179688 5.601562 -3.539062 5.40625 -3.8125 C 5.21875 -4.082031 4.960938 -4.21875 4.640625 -4.21875 C 4.472656 -4.21875 4.390625 -4.132812 4.390625 -3.96875 Z M 4.390625 -1.09375 "/></g></g></g><g fill="#a8180f" fill-opacity="1"><g transform="translate(162.784667, 62.549965)"><g><path d="M 5.359375 0.109375 C 3.785156 -0.0859375 2.578125 -0.644531 1.734375 -1.5625 C 0.890625 -2.488281 0.46875 -3.710938 0.46875 -5.234375 C 0.46875 -6.128906 0.644531 -6.960938 1 -7.734375 C 1.351562 -8.503906 1.835938 -9.140625 2.453125 -9.640625 L 4.1875 -8.28125 C 3.820312 -7.875 3.535156 -7.40625 3.328125 -6.875 C 3.128906 -6.34375 3.023438 -5.796875 3.015625 -5.234375 C 3.015625 -3.421875 3.796875 -2.34375 5.359375 -2 L 5.359375 -7.015625 C 5.359375 -7.773438 5.613281 -8.398438 6.125 -8.890625 C 6.644531 -9.390625 7.285156 -9.640625 8.046875 -9.640625 C 8.953125 -9.640625 9.757812 -9.445312 10.46875 -9.0625 C 11.1875 -8.675781 11.757812 -8.109375 12.1875 -7.359375 C 12.613281 -6.617188 12.828125 -5.800781 12.828125 -4.90625 C 12.828125 -3.476562 12.394531 -2.320312 11.53125 -1.4375 C 10.675781 -0.5625 9.46875 -0.0390625 7.90625 0.125 L 7.90625 4.203125 L 5.359375 4.203125 Z M 7.90625 -1.96875 C 8.664062 -2.113281 9.253906 -2.429688 9.671875 -2.921875 C 10.085938 -3.421875 10.296875 -4.082031 10.296875 -4.90625 C 10.285156 -5.726562 10.101562 -6.378906 9.75 -6.859375 C 9.40625 -7.347656 8.9375 -7.59375 8.34375 -7.59375 C 8.050781 -7.59375 7.90625 -7.441406 7.90625 -7.140625 Z M 7.90625 -1.96875 "/></g></g></g><g fill="#a8180f" fill-opacity="1"><g transform="translate(176.196832, 62.549965)"><g/></g></g><g fill="#a8180f" fill-opacity="1"><g transform="translate(180.676335, 62.549965)"><g><path d="M 9.046875 -6.5625 L 1.203125 -6.5625 L 1.203125 -8.625 L 9.046875 -8.625 Z M 9.046875 -2.75 L 1.203125 -2.75 L 1.203125 -4.828125 L 9.046875 -4.828125 Z M 9.046875 -2.75 "/></g></g></g><g fill="#a8180f" fill-opacity="1"><g transform="translate(190.97041, 62.549965)"><g/></g></g><g fill="#a8180f" fill-opacity="1"><g transform="translate(195.449913, 62.549965)"><g><path d="M 3.046875 -3.921875 C 3.046875 -4.742188 3.144531 -5.398438 3.34375 -5.890625 C 3.539062 -6.378906 3.90625 -6.859375 4.4375 -7.328125 C 4.96875 -7.796875 5.320312 -8.175781 5.5 -8.46875 C 5.675781 -8.769531 5.765625 -9.082031 5.765625 -9.40625 C 5.765625 -10.40625 5.304688 -10.90625 4.390625 -10.90625 C 3.960938 -10.90625 3.617188 -10.769531 3.359375 -10.5 C 3.097656 -10.226562 2.957031 -9.859375 2.9375 -9.390625 L 0.390625 -9.390625 C 0.398438 -10.515625 0.757812 -11.390625 1.46875 -12.015625 C 2.1875 -12.648438 3.160156 -12.96875 4.390625 -12.96875 C 5.640625 -12.96875 6.601562 -12.664062 7.28125 -12.0625 C 7.96875 -11.46875 8.3125 -10.625 8.3125 -9.53125 C 8.3125 -9.03125 8.195312 -8.554688 7.96875 -8.109375 C 7.75 -7.671875 7.363281 -7.179688 6.8125 -6.640625 L 6.09375 -5.96875 C 5.65625 -5.539062 5.398438 -5.039062 5.328125 -4.46875 L 5.296875 -3.921875 Z M 2.796875 -1.234375 C 2.796875 -1.617188 2.925781 -1.9375 3.1875 -2.1875 C 3.457031 -2.445312 3.800781 -2.578125 4.21875 -2.578125 C 4.632812 -2.578125 4.972656 -2.445312 5.234375 -2.1875 C 5.503906 -1.9375 5.640625 -1.617188 5.640625 -1.234375 C 5.640625 -0.847656 5.507812 -0.523438 5.25 -0.265625 C 4.988281 -0.015625 4.644531 0.109375 4.21875 0.109375 C 3.789062 0.109375 3.445312 -0.015625 3.1875 -0.265625 C 2.925781 -0.523438 2.796875 -0.847656 2.796875 -1.234375 Z M 2.796875 -1.234375 "/></g></g></g><g fill="#17191a" fill-opacity="1"><g transform="translate(0.0000075, 16.199998)"><g><path d="M 3.421875 -7.1875 L 4.65625 -7.1875 C 5.414062 -7.195312 6.015625 -7.398438 6.453125 -7.796875 C 6.898438 -8.191406 7.125 -8.722656 7.125 -9.390625 C 7.125 -10.890625 6.375 -11.640625 4.875 -11.640625 C 4.175781 -11.640625 3.613281 -11.4375 3.1875 -11.03125 C 2.769531 -10.632812 2.5625 -10.101562 2.5625 -9.4375 L 0.9375 -9.4375 C 0.9375 -10.445312 1.304688 -11.285156 2.046875 -11.953125 C 2.796875 -12.628906 3.738281 -12.96875 4.875 -12.96875 C 6.082031 -12.96875 7.03125 -12.648438 7.71875 -12.015625 C 8.40625 -11.378906 8.75 -10.492188 8.75 -9.359375 C 8.75 -8.796875 8.566406 -8.253906 8.203125 -7.734375 C 7.847656 -7.210938 7.359375 -6.820312 6.734375 -6.5625 C 7.429688 -6.34375 7.972656 -5.972656 8.359375 -5.453125 C 8.742188 -4.941406 8.9375 -4.3125 8.9375 -3.5625 C 8.9375 -2.414062 8.5625 -1.503906 7.8125 -0.828125 C 7.0625 -0.160156 6.082031 0.171875 4.875 0.171875 C 3.675781 0.171875 2.703125 -0.148438 1.953125 -0.796875 C 1.203125 -1.453125 0.828125 -2.3125 0.828125 -3.375 L 2.46875 -3.375 C 2.46875 -2.695312 2.6875 -2.15625 3.125 -1.75 C 3.5625 -1.351562 4.148438 -1.15625 4.890625 -1.15625 C 5.671875 -1.15625 6.269531 -1.359375 6.6875 -1.765625 C 7.101562 -2.171875 7.3125 -2.757812 7.3125 -3.53125 C 7.3125 -4.28125 7.082031 -4.851562 6.625 -5.25 C 6.164062 -5.644531 5.507812 -5.847656 4.65625 -5.859375 L 3.421875 -5.859375 Z M 3.421875 -7.1875 "/></g></g></g><g fill="#17191a" fill-opacity="1"><g transform="translate(10.100848, 16.199998)"><g><path d="M 4.984375 -5.109375 C 4.984375 -3.796875 4.8125 -2.539062 4.46875 -1.34375 C 4.125 -0.144531 3.597656 0.957031 2.890625 1.96875 C 2.191406 2.976562 1.453125 3.695312 0.671875 4.125 L 0.328125 3.140625 C 1.234375 2.441406 1.957031 1.367188 2.5 -0.078125 C 3.050781 -1.535156 3.332031 -3.15625 3.34375 -4.9375 L 3.34375 -5.21875 C 3.34375 -6.445312 3.210938 -7.585938 2.953125 -8.640625 C 2.703125 -9.703125 2.347656 -10.648438 1.890625 -11.484375 C 1.429688 -12.328125 0.910156 -12.984375 0.328125 -13.453125 L 0.671875 -14.4375 C 1.453125 -14.007812 2.191406 -13.296875 2.890625 -12.296875 C 3.585938 -11.296875 4.109375 -10.191406 4.453125 -8.984375 C 4.804688 -7.773438 4.984375 -6.484375 4.984375 -5.109375 Z M 4.984375 -5.109375 "/></g></g></g></svg>