<svg xmlns="http://www.w3.org/2000/svg" xmlns:xlink="http://www.w3.org/1999/xlink" width="500" zoomAndPan="magnify" viewBox="0 0 375 74.999997" height="100" preserveAspectRatio="xMidYMid meet" version="1.0"><defs><clipPath id="93cf0139d9"><path d="M 140 32 L 155 32 L 155 49.875 L 140 49.875 Z M 140 32 " clip-rule="nonzero"/></clipPath><clipPath id="087c6107eb"><path d="M 228 25.125 L 235.703125 25.125 L 235.703125 33 L 228 33 Z M 228 25.125 " clip-rule="nonzero"/></clipPath></defs><g clip-path="url(#93cf0139d9)"><path fill="#a8180f" d="M 146.734375 42.863281 C 146.296875 42.863281 145.90625 42.863281 145.90625 42.734375 C 145.90625 42.683594 146.347656 40.242188 146.503906 39.671875 C 147.328125 36.351562 149.296875 33.964844 151.546875 33.964844 C 153.226562 33.964844 154.003906 35.234375 154.003906 36.660156 C 154.003906 39.621094 150.691406 42.863281 146.734375 42.863281 Z M 145.625 44.214844 C 145.777344 44.238281 146.035156 44.265625 146.503906 44.265625 C 150.742188 44.265625 154.648438 40.164062 154.648438 36.066406 C 154.648438 34.480469 153.949219 32.5625 151.777344 32.5625 C 148.054688 32.5625 146.476562 37.828125 145.027344 42.707031 C 142.054688 42.136719 140.8125 40.554688 140.8125 38.816406 C 140.8125 38.113281 141.355469 35.339844 142.855469 33.46875 C 143.140625 33.132812 143.140625 33.082031 143.140625 33.027344 C 143.140625 32.820312 142.933594 32.820312 142.882812 32.820312 C 142.183594 32.820312 140.21875 36.609375 140.21875 39.074219 C 140.21875 41.980469 142.496094 43.566406 144.589844 44.03125 L 143.242188 48.417969 C 143.113281 48.808594 143.113281 48.859375 143.113281 48.960938 C 143.113281 49.585938 143.734375 49.613281 143.789062 49.613281 C 144.046875 49.613281 144.511719 49.507812 144.71875 48.988281 C 144.796875 48.753906 145.519531 44.734375 145.625 44.214844 Z M 145.625 44.214844 " fill-opacity="1" fill-rule="nonzero"/></g><path fill="#a8180f" d="M 180.175781 35.597656 C 180.539062 35.597656 181.003906 35.597656 181.003906 35.128906 C 181.003906 34.636719 180.566406 34.636719 180.175781 34.636719 L 164.945312 34.636719 C 164.582031 34.636719 164.117188 34.636719 164.117188 35.105469 C 164.117188 35.597656 164.558594 35.597656 164.945312 35.597656 Z M 180.175781 40.425781 C 180.539062 40.425781 181.003906 40.425781 181.003906 39.957031 C 181.003906 39.464844 180.566406 39.464844 180.175781 39.464844 L 164.945312 39.464844 C 164.582031 39.464844 164.117188 39.464844 164.117188 39.933594 C 164.117188 40.425781 164.558594 40.425781 164.945312 40.425781 Z M 180.175781 40.425781 " fill-opacity="1" fill-rule="nonzero"/><path fill="#a8180f" d="M 200.980469 39.644531 L 200.410156 39.644531 C 200.332031 40.085938 200.125 41.515625 199.867188 41.929688 C 199.6875 42.164062 198.210938 42.164062 197.4375 42.164062 L 192.652344 42.164062 C 193.351562 41.566406 194.925781 39.90625 195.601562 39.28125 C 199.53125 35.648438 200.980469 34.300781 200.980469 31.730469 C 200.980469 28.746094 198.625 26.75 195.625 26.75 C 192.625 26.75 190.867188 29.316406 190.867188 31.550781 C 190.867188 32.875 192.003906 32.875 192.082031 32.875 C 192.625 32.875 193.296875 32.484375 193.296875 31.652344 C 193.296875 30.925781 192.808594 30.433594 192.082031 30.433594 C 191.851562 30.433594 191.796875 30.433594 191.722656 30.460938 C 192.210938 28.695312 193.609375 27.5 195.289062 27.5 C 197.488281 27.5 198.832031 29.34375 198.832031 31.730469 C 198.832031 33.9375 197.566406 35.859375 196.089844 37.519531 L 190.867188 43.382812 L 190.867188 44.007812 L 200.304688 44.007812 Z M 200.980469 39.644531 " fill-opacity="1" fill-rule="nonzero"/><path fill="#a8180f" d="M 211.726562 36.453125 C 211.726562 42.578125 209.011719 43.851562 207.457031 43.851562 C 206.839844 43.851562 205.46875 43.773438 204.820312 42.863281 L 204.976562 42.863281 C 205.15625 42.917969 206.089844 42.761719 206.089844 41.800781 C 206.089844 41.230469 205.699219 40.734375 205.027344 40.734375 C 204.355469 40.734375 203.941406 41.175781 203.941406 41.851562 C 203.941406 43.460938 205.234375 44.550781 207.484375 44.550781 C 210.71875 44.550781 213.847656 41.097656 213.847656 35.46875 C 213.847656 28.488281 210.949219 26.75 208.675781 26.75 C 205.828125 26.75 203.320312 29.136719 203.320312 32.5625 C 203.320312 35.988281 205.726562 38.324219 208.3125 38.324219 C 210.226562 38.324219 211.207031 36.921875 211.726562 35.597656 Z M 208.414062 37.804688 C 206.785156 37.804688 206.089844 36.480469 205.855469 35.988281 C 205.441406 35 205.441406 33.753906 205.441406 32.585938 C 205.441406 31.132812 205.441406 29.890625 206.113281 28.824219 C 206.578125 28.125 207.277344 27.371094 208.675781 27.371094 C 210.148438 27.371094 210.898438 28.667969 211.15625 29.265625 C 211.675781 30.539062 211.675781 32.742188 211.675781 33.132812 C 211.675781 35.3125 210.691406 37.804688 208.414062 37.804688 Z M 208.414062 37.804688 " fill-opacity="1" fill-rule="nonzero"/><path fill="#a8180f" d="M 218.230469 29.136719 C 219.34375 29.5 220.25 29.527344 220.535156 29.527344 C 223.457031 29.527344 225.316406 27.371094 225.316406 27.007812 C 225.316406 26.90625 225.265625 26.773438 225.109375 26.773438 C 225.058594 26.773438 225.007812 26.773438 224.773438 26.878906 C 223.328125 27.5 222.085938 27.578125 221.414062 27.578125 C 219.707031 27.578125 218.492188 27.058594 218 26.851562 C 217.816406 26.773438 217.765625 26.773438 217.742188 26.773438 C 217.535156 26.773438 217.535156 26.929688 217.535156 27.34375 L 217.535156 35.054688 C 217.535156 35.519531 217.535156 35.675781 217.84375 35.675781 C 217.972656 35.675781 218 35.648438 218.257812 35.339844 C 218.980469 34.273438 220.195312 33.652344 221.488281 33.652344 C 222.859375 33.652344 223.53125 34.921875 223.738281 35.363281 C 224.179688 36.375 224.207031 37.648438 224.207031 38.632812 C 224.207031 39.621094 224.207031 41.097656 223.480469 42.265625 C 222.914062 43.203125 221.902344 43.851562 220.765625 43.851562 C 219.058594 43.851562 217.378906 42.683594 216.914062 40.789062 C 217.042969 40.839844 217.199219 40.867188 217.328125 40.867188 C 217.765625 40.867188 218.464844 40.605469 218.464844 39.722656 C 218.464844 38.996094 217.972656 38.582031 217.328125 38.582031 C 216.859375 38.582031 216.1875 38.816406 216.1875 39.828125 C 216.1875 42.035156 217.945312 44.550781 220.816406 44.550781 C 223.738281 44.550781 226.300781 42.085938 226.300781 38.789062 C 226.300781 35.703125 224.230469 33.132812 221.515625 33.132812 C 220.042969 33.132812 218.902344 33.78125 218.230469 34.507812 Z M 218.230469 29.136719 " fill-opacity="1" fill-rule="nonzero"/><g clip-path="url(#087c6107eb)"><path fill="#a8180f" d="M 235.703125 28.964844 C 235.703125 26.976562 234.117188 25.386719 232.152344 25.386719 C 230.183594 25.386719 228.597656 26.976562 228.597656 28.964844 C 228.597656 30.957031 230.183594 32.546875 232.152344 32.546875 C 234.117188 32.546875 235.703125 30.957031 235.703125 28.964844 Z M 232.152344 31.75 C 230.617188 31.75 229.390625 30.523438 229.390625 28.964844 C 229.390625 27.410156 230.617188 26.179688 232.152344 26.179688 C 233.683594 26.179688 234.910156 27.410156 234.910156 28.964844 C 234.910156 30.523438 233.683594 31.75 232.152344 31.75 Z M 232.152344 31.75 " fill-opacity="1" fill-rule="nonzero"/></g></svg>