<svg xmlns="http://www.w3.org/2000/svg" xmlns:xlink="http://www.w3.org/1999/xlink" width="500" zoomAndPan="magnify" viewBox="0 0 375 74.999997" height="100" preserveAspectRatio="xMidYMid meet" version="1.0"><defs><g/><clipPath id="4a2b9c18b7"><path d="M 121.023438 17.546875 L 129 17.546875 L 129 36.980469 L 121.023438 36.980469 Z M 121.023438 17.546875 " clip-rule="nonzero"/></clipPath><clipPath id="9ea6834acd"><path d="M 123.148438 18.148438 C 126.226562 23.476562 127.648438 27.148438 128.175781 29.773438 C 128.625 32.023438 129.226562 35.023438 128.625 36.074219 C 128.324219 36.601562 127.425781 36.976562 127.050781 36.824219 C 126.675781 36.75 126.300781 35.925781 126.300781 35.550781 C 126.300781 35.175781 126.898438 34.5 127.273438 34.425781 C 127.574219 34.351562 128.25 34.5 128.398438 34.800781 C 128.625 35.175781 128.324219 36.601562 127.949219 36.824219 C 127.574219 36.976562 126.675781 36.601562 126.300781 36.074219 C 125.550781 35.023438 126.226562 31.875 125.773438 29.773438 C 125.324219 27.523438 124.351562 24.898438 123.449219 23.023438 C 122.773438 21.523438 121.199219 20.101562 121.125 19.125 C 121.050781 18.523438 121.351562 17.851562 121.726562 17.699219 C 122.023438 17.550781 123.148438 18.148438 123.148438 18.148438 " clip-rule="nonzero"/></clipPath></defs><g clip-path="url(#4a2b9c18b7)"><g clip-path="url(#9ea6834acd)"><path fill="#a8180f" d="M 118.125 14.699219 L 131.625 14.699219 L 131.625 39.824219 L 118.125 39.824219 Z M 118.125 14.699219 " fill-opacity="1" fill-rule="nonzero"/></g></g><path stroke-linecap="round" transform="matrix(-0.6572, 0.360137, -0.360422, -0.657721, 142.912685, 8.817537)" fill="none" stroke-linejoin="miter" d="M 1.99847 1.998726 L 77.072729 2.00151 " stroke="#17191a" stroke-width="4" stroke-opacity="1" stroke-miterlimit="4"/><path stroke-linecap="round" transform="matrix(0.728197, 0.183054, -0.182846, 0.72737, 140.357809, 6.045497)" fill="none" stroke-linejoin="miter" d="M 2.001188 2.000859 L 162.816574 2.000234 " stroke="#17191a" stroke-width="4" stroke-opacity="1" stroke-miterlimit="4"/><path stroke-linecap="round" transform="matrix(0.750953, 0.00662491, -0.00661624, 0.749971, 89.483746, 34.500084)" fill="none" stroke-linejoin="miter" d="M 2.000298 1.997922 L 224.71736 1.999366 " stroke="#17191a" stroke-width="4" stroke-opacity="1" stroke-miterlimit="4"/><g fill="#a8180f" fill-opacity="1"><g transform="translate(114.401585, 29.749977)"><g><path d="M 2.984375 0.0625 C 2.109375 -0.0507812 1.4375 -0.363281 0.96875 -0.875 C 0.5 -1.382812 0.265625 -2.0625 0.265625 -2.90625 C 0.265625 -3.40625 0.359375 -3.867188 0.546875 -4.296875 C 0.742188 -4.722656 1.015625 -5.078125 1.359375 -5.359375 L 2.328125 -4.59375 C 2.117188 -4.375 1.957031 -4.113281 1.84375 -3.8125 C 1.738281 -3.519531 1.679688 -3.21875 1.671875 -2.90625 C 1.671875 -1.90625 2.109375 -1.304688 2.984375 -1.109375 L 2.984375 -3.90625 C 2.984375 -4.320312 3.125 -4.664062 3.40625 -4.9375 C 3.6875 -5.21875 4.039062 -5.359375 4.46875 -5.359375 C 4.96875 -5.359375 5.414062 -5.25 5.8125 -5.03125 C 6.21875 -4.820312 6.535156 -4.507812 6.765625 -4.09375 C 7.003906 -3.675781 7.125 -3.222656 7.125 -2.734375 C 7.125 -1.929688 6.882812 -1.285156 6.40625 -0.796875 C 5.9375 -0.316406 5.265625 -0.03125 4.390625 0.0625 L 4.390625 2.328125 L 2.984375 2.328125 Z M 4.390625 -1.09375 C 4.816406 -1.175781 5.144531 -1.351562 5.375 -1.625 C 5.601562 -1.894531 5.71875 -2.265625 5.71875 -2.734375 C 5.707031 -3.179688 5.601562 -3.539062 5.40625 -3.8125 C 5.21875 -4.082031 4.960938 -4.21875 4.640625 -4.21875 C 4.472656 -4.21875 4.390625 -4.132812 4.390625 -3.96875 Z M 4.390625 -1.09375 "/></g></g></g><g fill="#a8180f" fill-opacity="1"><g transform="translate(162.784667, 62.549965)"><g><path d="M 5.359375 0.109375 C 3.785156 -0.0859375 2.578125 -0.644531 1.734375 -1.5625 C 0.890625 -2.488281 0.46875 -3.710938 0.46875 -5.234375 C 0.46875 -6.128906 0.644531 -6.960938 1 -7.734375 C 1.351562 -8.503906 1.835938 -9.140625 2.453125 -9.640625 L 4.1875 -8.28125 C 3.820312 -7.875 3.535156 -7.40625 3.328125 -6.875 C 3.128906 -6.34375 3.023438 -5.796875 3.015625 -5.234375 C 3.015625 -3.421875 3.796875 -2.34375 5.359375 -2 L 5.359375 -7.015625 C 5.359375 -7.773438 5.613281 -8.398438 6.125 -8.890625 C 6.644531 -9.390625 7.285156 -9.640625 8.046875 -9.640625 C 8.953125 -9.640625 9.757812 -9.445312 10.46875 -9.0625 C 11.1875 -8.675781 11.757812 -8.109375 12.1875 -7.359375 C 12.613281 -6.617188 12.828125 -5.800781 12.828125 -4.90625 C 12.828125 -3.476562 12.394531 -2.320312 11.53125 -1.4375 C 10.675781 -0.5625 9.46875 -0.0390625 7.90625 0.125 L 7.90625 4.203125 L 5.359375 4.203125 Z M 7.90625 -1.96875 C 8.664062 -2.113281 9.253906 -2.429688 9.671875 -2.921875 C 10.085938 -3.421875 10.296875 -4.082031 10.296875 -4.90625 C 10.285156 -5.726562 10.101562 -6.378906 9.75 -6.859375 C 9.40625 -7.347656 8.9375 -7.59375 8.34375 -7.59375 C 8.050781 -7.59375 7.90625 -7.441406 7.90625 -7.140625 Z M 7.90625 -1.96875 "/></g></g></g><g fill="#a8180f" fill-opacity="1"><g transform="translate(176.196832, 62.549965)"><g/></g></g><g fill="#a8180f" fill-opacity="1"><g transform="translate(180.676335, 62.549965)"><g><path d="M 9.046875 -6.5625 L 1.203125 -6.5625 L 1.203125 -8.625 L 9.046875 -8.625 Z M 9.046875 -2.75 L 1.203125 -2.75 L 1.203125 -4.828125 L 9.046875 -4.828125 Z M 9.046875 -2.75 "/></g></g></g><g fill="#a8180f" fill-opacity="1"><g transform="translate(190.97041, 62.549965)"><g/></g></g><g fill="#a8180f" fill-opacity="1"><g transform="translate(195.449913, 62.549965)"><g><path d="M 3.046875 -3.921875 C 3.046875 -4.742188 3.144531 -5.398438 3.34375 -5.890625 C 3.539062 -6.378906 3.90625 -6.859375 4.4375 -7.328125 C 4.96875 -7.796875 5.320312 -8.175781 5.5 -8.46875 C 5.675781 -8.769531 5.765625 -9.082031 5.765625 -9.40625 C 5.765625 -10.40625 5.304688 -10.90625 4.390625 -10.90625 C 3.960938 -10.90625 3.617188 -10.769531 3.359375 -10.5 C 3.097656 -10.226562 2.957031 -9.859375 2.9375 -9.390625 L 0.390625 -9.390625 C 0.398438 -10.515625 0.757812 -11.390625 1.46875 -12.015625 C 2.1875 -12.648438 3.160156 -12.96875 4.390625 -12.96875 C 5.640625 -12.96875 6.601562 -12.664062 7.28125 -12.0625 C 7.96875 -11.46875 8.3125 -10.625 8.3125 -9.53125 C 8.3125 -9.03125 8.195312 -8.554688 7.96875 -8.109375 C 7.75 -7.671875 7.363281 -7.179688 6.8125 -6.640625 L 6.09375 -5.96875 C 5.65625 -5.539062 5.398438 -5.039062 5.328125 -4.46875 L 5.296875 -3.921875 Z M 2.796875 -1.234375 C 2.796875 -1.617188 2.925781 -1.9375 3.1875 -2.1875 C 3.457031 -2.445312 3.800781 -2.578125 4.21875 -2.578125 C 4.632812 -2.578125 4.972656 -2.445312 5.234375 -2.1875 C 5.503906 -1.9375 5.640625 -1.617188 5.640625 -1.234375 C 5.640625 -0.847656 5.507812 -0.523438 5.25 -0.265625 C 4.988281 -0.015625 4.644531 0.109375 4.21875 0.109375 C 3.789062 0.109375 3.445312 -0.015625 3.1875 -0.265625 C 2.925781 -0.523438 2.796875 -0.847656 2.796875 -1.234375 Z M 2.796875 -1.234375 "/></g></g></g><g fill="#a9a9a9" fill-opacity="1"><g transform="translate(93.711576, 17.508115)"><g><path d="M 3.921875 -2.25 L 4.609375 -2.25 L 4.609375 -1.296875 L 3.921875 -1.296875 L 3.921875 0 L 2.734375 0 L 2.734375 -1.296875 L 0.28125 -1.296875 L 0.21875 -2.046875 L 2.71875 -5.984375 L 3.921875 -5.984375 Z M 1.40625 -2.25 L 2.734375 -2.25 L 2.734375 -4.375 L 2.65625 -4.234375 Z M 1.40625 -2.25 "/></g></g><g transform="translate(98.544869, 17.508115)"><g/></g><g transform="translate(100.642724, 17.508115)"><g><path d="M 1.578125 -4.453125 L 1.609375 -3.953125 C 1.921875 -4.335938 2.347656 -4.53125 2.890625 -4.53125 C 3.460938 -4.53125 3.851562 -4.304688 4.0625 -3.859375 C 4.375 -4.304688 4.820312 -4.53125 5.40625 -4.53125 C 5.882812 -4.53125 6.238281 -4.390625 6.46875 -4.109375 C 6.707031 -3.828125 6.828125 -3.40625 6.828125 -2.84375 L 6.828125 0 L 5.640625 0 L 5.640625 -2.84375 C 5.640625 -3.09375 5.585938 -3.273438 5.484375 -3.390625 C 5.390625 -3.503906 5.21875 -3.5625 4.96875 -3.5625 C 4.613281 -3.5625 4.367188 -3.394531 4.234375 -3.0625 L 4.234375 0 L 3.046875 0 L 3.046875 -2.828125 C 3.046875 -3.085938 2.992188 -3.273438 2.890625 -3.390625 C 2.796875 -3.503906 2.625 -3.5625 2.375 -3.5625 C 2.039062 -3.5625 1.796875 -3.421875 1.640625 -3.140625 L 1.640625 0 L 0.453125 0 L 0.453125 -4.453125 Z M 1.578125 -4.453125 "/></g></g></g><g fill="#a9a9a9" fill-opacity="1"><g transform="translate(137.207749, 47.406891)"><g><path d="M 3.296875 0 L 2.109375 0 L 2.109375 -4.578125 L 0.6875 -4.140625 L 0.6875 -5.109375 L 3.171875 -6 L 3.296875 -6 Z M 3.296875 0 "/></g></g><g transform="translate(142.041042, 47.406891)"><g><path d="M 4.515625 0 L 0.40625 0 L 0.40625 -0.8125 L 2.34375 -2.875 C 2.613281 -3.164062 2.8125 -3.421875 2.9375 -3.640625 C 3.0625 -3.859375 3.125 -4.0625 3.125 -4.25 C 3.125 -4.519531 3.054688 -4.726562 2.921875 -4.875 C 2.785156 -5.03125 2.59375 -5.109375 2.34375 -5.109375 C 2.070312 -5.109375 1.859375 -5.015625 1.703125 -4.828125 C 1.554688 -4.648438 1.484375 -4.410156 1.484375 -4.109375 L 0.28125 -4.109375 C 0.28125 -4.472656 0.367188 -4.804688 0.546875 -5.109375 C 0.722656 -5.410156 0.96875 -5.644531 1.28125 -5.8125 C 1.601562 -5.976562 1.96875 -6.0625 2.375 -6.0625 C 2.988281 -6.0625 3.460938 -5.914062 3.796875 -5.625 C 4.140625 -5.332031 4.3125 -4.914062 4.3125 -4.375 C 4.3125 -4.070312 4.234375 -3.765625 4.078125 -3.453125 C 3.929688 -3.148438 3.671875 -2.796875 3.296875 -2.390625 L 1.9375 -0.953125 L 4.515625 -0.953125 Z M 4.515625 0 "/></g></g><g transform="translate(146.874336, 47.406891)"><g/></g><g transform="translate(148.972191, 47.406891)"><g><path d="M 1.578125 -4.453125 L 1.609375 -3.953125 C 1.921875 -4.335938 2.347656 -4.53125 2.890625 -4.53125 C 3.460938 -4.53125 3.851562 -4.304688 4.0625 -3.859375 C 4.375 -4.304688 4.820312 -4.53125 5.40625 -4.53125 C 5.882812 -4.53125 6.238281 -4.390625 6.46875 -4.109375 C 6.707031 -3.828125 6.828125 -3.40625 6.828125 -2.84375 L 6.828125 0 L 5.640625 0 L 5.640625 -2.84375 C 5.640625 -3.09375 5.585938 -3.273438 5.484375 -3.390625 C 5.390625 -3.503906 5.21875 -3.5625 4.96875 -3.5625 C 4.613281 -3.5625 4.367188 -3.394531 4.234375 -3.0625 L 4.234375 0 L 3.046875 0 L 3.046875 -2.828125 C 3.046875 -3.085938 2.992188 -3.273438 2.890625 -3.390625 C 2.796875 -3.503906 2.625 -3.5625 2.375 -3.5625 C 2.039062 -3.5625 1.796875 -3.421875 1.640625 -3.140625 L 1.640625 0 L 0.453125 0 L 0.453125 -4.453125 Z M 1.578125 -4.453125 "/></g></g></g><g fill="#a9a9a9" fill-opacity="1"><g transform="translate(183.591307, 13.627158)"><g><path d="M 3.296875 0 L 2.109375 0 L 2.109375 -4.578125 L 0.6875 -4.140625 L 0.6875 -5.109375 L 3.171875 -6 L 3.296875 -6 Z M 3.296875 0 "/></g></g><g transform="translate(188.4246, 13.627158)"><g><path d="M 4.4375 -2.46875 C 4.4375 -1.644531 4.265625 -1.015625 3.921875 -0.578125 C 3.578125 -0.140625 3.078125 0.078125 2.421875 0.078125 C 1.765625 0.078125 1.265625 -0.132812 0.921875 -0.5625 C 0.578125 -0.988281 0.398438 -1.601562 0.390625 -2.40625 L 0.390625 -3.515625 C 0.390625 -4.347656 0.5625 -4.976562 0.90625 -5.40625 C 1.257812 -5.84375 1.757812 -6.0625 2.40625 -6.0625 C 3.0625 -6.0625 3.5625 -5.847656 3.90625 -5.421875 C 4.25 -4.992188 4.425781 -4.378906 4.4375 -3.578125 Z M 3.25 -3.6875 C 3.25 -4.175781 3.179688 -4.535156 3.046875 -4.765625 C 2.910156 -4.992188 2.695312 -5.109375 2.40625 -5.109375 C 2.125 -5.109375 1.914062 -5 1.78125 -4.78125 C 1.65625 -4.570312 1.585938 -4.238281 1.578125 -3.78125 L 1.578125 -2.3125 C 1.578125 -1.832031 1.644531 -1.472656 1.78125 -1.234375 C 1.914062 -0.992188 2.128906 -0.875 2.421875 -0.875 C 2.710938 -0.875 2.921875 -0.988281 3.046875 -1.21875 C 3.171875 -1.445312 3.238281 -1.796875 3.25 -2.265625 Z M 3.25 -3.6875 "/></g></g><g transform="translate(193.257893, 13.627158)"><g/></g><g transform="translate(195.355748, 13.627158)"><g><path d="M 1.578125 -4.453125 L 1.609375 -3.953125 C 1.921875 -4.335938 2.347656 -4.53125 2.890625 -4.53125 C 3.460938 -4.53125 3.851562 -4.304688 4.0625 -3.859375 C 4.375 -4.304688 4.820312 -4.53125 5.40625 -4.53125 C 5.882812 -4.53125 6.238281 -4.390625 6.46875 -4.109375 C 6.707031 -3.828125 6.828125 -3.40625 6.828125 -2.84375 L 6.828125 0 L 5.640625 0 L 5.640625 -2.84375 C 5.640625 -3.09375 5.585938 -3.273438 5.484375 -3.390625 C 5.390625 -3.503906 5.21875 -3.5625 4.96875 -3.5625 C 4.613281 -3.5625 4.367188 -3.394531 4.234375 -3.0625 L 4.234375 0 L 3.046875 0 L 3.046875 -2.828125 C 3.046875 -3.085938 2.992188 -3.273438 2.890625 -3.390625 C 2.796875 -3.503906 2.625 -3.5625 2.375 -3.5625 C 2.039062 -3.5625 1.796875 -3.421875 1.640625 -3.140625 L 1.640625 0 L 0.453125 0 L 0.453125 -4.453125 Z M 1.578125 -4.453125 "/></g></g></g><g fill="#17191a" fill-opacity="1"><g transform="translate(0.0000075, 16.199998)"><g><path d="M 7.921875 -4.296875 L 9.703125 -4.296875 L 9.703125 -2.96875 L 7.921875 -2.96875 L 7.921875 0 L 6.296875 0 L 6.296875 -2.96875 L 0.46875 -2.96875 L 0.46875 -3.921875 L 6.203125 -12.796875 L 7.921875 -12.796875 Z M 2.3125 -4.296875 L 6.296875 -4.296875 L 6.296875 -10.578125 L 6.09375 -10.21875 Z M 2.3125 -4.296875 "/></g></g></g><g fill="#17191a" fill-opacity="1"><g transform="translate(10.100848, 16.199998)"><g><path d="M 4.984375 -5.109375 C 4.984375 -3.796875 4.8125 -2.539062 4.46875 -1.34375 C 4.125 -0.144531 3.597656 0.957031 2.890625 1.96875 C 2.191406 2.976562 1.453125 3.695312 0.671875 4.125 L 0.328125 3.140625 C 1.234375 2.441406 1.957031 1.367188 2.5 -0.078125 C 3.050781 -1.535156 3.332031 -3.15625 3.34375 -4.9375 L 3.34375 -5.21875 C 3.34375 -6.445312 3.210938 -7.585938 2.953125 -8.640625 C 2.703125 -9.703125 2.347656 -10.648438 1.890625 -11.484375 C 1.429688 -12.328125 0.910156 -12.984375 0.328125 -13.453125 L 0.671875 -14.4375 C 1.453125 -14.007812 2.191406 -13.296875 2.890625 -12.296875 C 3.585938 -11.296875 4.109375 -10.191406 4.453125 -8.984375 C 4.804688 -7.773438 4.984375 -6.484375 4.984375 -5.109375 Z M 4.984375 -5.109375 "/></g></g></g></svg>