<svg xmlns="http://www.w3.org/2000/svg" xmlns:xlink="http://www.w3.org/1999/xlink" width="500" zoomAndPan="magnify" viewBox="0 0 375 74.999997" height="100" preserveAspectRatio="xMidYMid meet" version="1.0"><defs><clipPath id="940e208600"><path d="M 124 33 L 138 33 L 138 49.875 L 124 49.875 Z M 124 33 " clip-rule="nonzero"/></clipPath><clipPath id="c188a196b8"><path d="M 226 25.125 L 231 25.125 L 231 34 L 226 34 Z M 226 25.125 " clip-rule="nonzero"/></clipPath><clipPath id="8f83b5fdd3"><path d="M 243 25.125 L 248 25.125 L 248 34 L 243 34 Z M 243 25.125 " clip-rule="nonzero"/></clipPath><clipPath id="5b3cde7ee5"><path d="M 248 25.125 L 251.972656 25.125 L 251.972656 34 L 248 34 Z M 248 25.125 " clip-rule="nonzero"/></clipPath></defs><g clip-path="url(#940e208600)"><path fill="#a8180f" d="M 130.148438 43.242188 C 129.742188 43.242188 129.386719 43.242188 129.386719 43.121094 C 129.386719 43.074219 129.792969 40.832031 129.933594 40.308594 C 130.695312 37.253906 132.507812 35.0625 134.582031 35.0625 C 136.132812 35.0625 136.847656 36.230469 136.847656 37.542969 C 136.847656 40.261719 133.796875 43.242188 130.148438 43.242188 Z M 129.125 44.480469 C 129.265625 44.507812 129.503906 44.53125 129.933594 44.53125 C 133.84375 44.53125 137.445312 40.761719 137.445312 36.992188 C 137.445312 35.539062 136.800781 33.773438 134.796875 33.773438 C 131.363281 33.773438 129.910156 38.613281 128.574219 43.097656 C 125.832031 42.574219 124.6875 41.121094 124.6875 39.519531 C 124.6875 38.878906 125.191406 36.324219 126.574219 34.609375 C 126.835938 34.296875 126.835938 34.25 126.835938 34.203125 C 126.835938 34.011719 126.644531 34.011719 126.597656 34.011719 C 125.953125 34.011719 124.140625 37.496094 124.140625 39.761719 C 124.140625 42.429688 126.238281 43.886719 128.171875 44.316406 L 126.929688 48.347656 C 126.8125 48.703125 126.8125 48.75 126.8125 48.847656 C 126.8125 49.417969 127.382812 49.441406 127.429688 49.441406 C 127.667969 49.441406 128.097656 49.347656 128.289062 48.871094 C 128.359375 48.65625 129.027344 44.960938 129.125 44.480469 Z M 129.125 44.480469 " fill-opacity="1" fill-rule="nonzero"/></g><path fill="#a8180f" d="M 160.980469 36.5625 C 161.3125 36.5625 161.742188 36.5625 161.742188 36.136719 C 161.742188 35.679688 161.335938 35.679688 160.980469 35.679688 L 146.9375 35.679688 C 146.601562 35.679688 146.175781 35.679688 146.175781 36.109375 C 146.175781 36.5625 146.578125 36.5625 146.9375 36.5625 Z M 160.980469 41 C 161.3125 41 161.742188 41 161.742188 40.570312 C 161.742188 40.117188 161.335938 40.117188 160.980469 40.117188 L 146.9375 40.117188 C 146.601562 40.117188 146.175781 40.117188 146.175781 40.546875 C 146.175781 41 146.578125 41 146.9375 41 Z M 160.980469 41 " fill-opacity="1" fill-rule="nonzero"/><path fill="#a8180f" d="M 172.71875 30.625 C 173.742188 30.960938 174.578125 30.984375 174.839844 30.984375 C 177.535156 30.984375 179.25 29.003906 179.25 28.667969 C 179.25 28.574219 179.203125 28.457031 179.058594 28.457031 C 179.011719 28.457031 178.964844 28.457031 178.75 28.550781 C 177.414062 29.121094 176.269531 29.195312 175.652344 29.195312 C 174.078125 29.195312 172.957031 28.71875 172.503906 28.527344 C 172.335938 28.457031 172.289062 28.457031 172.265625 28.457031 C 172.074219 28.457031 172.074219 28.597656 172.074219 28.980469 L 172.074219 36.0625 C 172.074219 36.492188 172.074219 36.636719 172.359375 36.636719 C 172.480469 36.636719 172.503906 36.613281 172.742188 36.324219 C 173.410156 35.347656 174.53125 34.773438 175.722656 34.773438 C 176.984375 34.773438 177.605469 35.945312 177.796875 36.347656 C 178.203125 37.28125 178.226562 38.449219 178.226562 39.355469 C 178.226562 40.261719 178.226562 41.621094 177.558594 42.695312 C 177.035156 43.550781 176.105469 44.148438 175.054688 44.148438 C 173.480469 44.148438 171.933594 43.074219 171.503906 41.335938 C 171.621094 41.382812 171.765625 41.40625 171.882812 41.40625 C 172.289062 41.40625 172.933594 41.167969 172.933594 40.355469 C 172.933594 39.6875 172.480469 39.308594 171.882812 39.308594 C 171.453125 39.308594 170.835938 39.519531 170.835938 40.453125 C 170.835938 42.480469 172.457031 44.792969 175.101562 44.792969 C 177.796875 44.792969 180.15625 42.527344 180.15625 39.496094 C 180.15625 36.660156 178.25 34.296875 175.746094 34.296875 C 174.386719 34.296875 173.339844 34.894531 172.71875 35.5625 Z M 172.71875 30.625 " fill-opacity="1" fill-rule="nonzero"/><path fill="#a8180f" d="M 188.207031 29.003906 C 188.207031 28.457031 188.207031 28.429688 187.726562 28.429688 C 187.15625 29.074219 185.964844 29.957031 183.507812 29.957031 L 183.507812 30.648438 C 184.058594 30.648438 185.25 30.648438 186.558594 30.027344 L 186.558594 42.453125 C 186.558594 43.3125 186.488281 43.601562 184.390625 43.601562 L 183.652344 43.601562 L 183.652344 44.292969 C 184.296875 44.242188 186.609375 44.242188 187.394531 44.242188 C 188.179688 44.242188 190.46875 44.242188 191.113281 44.292969 L 191.113281 43.601562 L 190.375 43.601562 C 188.277344 43.601562 188.207031 43.3125 188.207031 42.453125 Z M 188.207031 29.003906 " fill-opacity="1" fill-rule="nonzero"/><path fill="#a8180f" d="M 200.496094 30.46875 C 200.496094 28.640625 199.035156 27.179688 197.222656 27.179688 C 195.410156 27.179688 193.949219 28.640625 193.949219 30.46875 C 193.949219 32.296875 195.410156 33.761719 197.222656 33.761719 C 199.035156 33.761719 200.496094 32.296875 200.496094 30.46875 Z M 197.222656 33.03125 C 195.808594 33.03125 194.679688 31.902344 194.679688 30.46875 C 194.679688 29.039062 195.808594 27.910156 197.222656 27.910156 C 198.636719 27.910156 199.765625 29.039062 199.765625 30.46875 C 199.765625 31.902344 198.636719 33.03125 197.222656 33.03125 Z M 197.222656 33.03125 " fill-opacity="1" fill-rule="nonzero"/><path fill="#a8180f" d="M 209.3125 29.003906 C 209.3125 28.457031 209.3125 28.429688 208.835938 28.429688 C 208.265625 29.074219 207.074219 29.957031 204.617188 29.957031 L 204.617188 30.648438 C 205.164062 30.648438 206.355469 30.648438 207.667969 30.027344 L 207.667969 42.453125 C 207.667969 43.3125 207.597656 43.601562 205.5 43.601562 L 204.761719 43.601562 L 204.761719 44.292969 C 205.402344 44.242188 207.714844 44.242188 208.503906 44.242188 C 209.289062 44.242188 211.578125 44.242188 212.222656 44.292969 L 212.222656 43.601562 L 211.484375 43.601562 C 209.386719 43.601562 209.3125 43.3125 209.3125 42.453125 Z M 209.3125 29.003906 " fill-opacity="1" fill-rule="nonzero"/><path fill="#a8180f" d="M 222.84375 37.351562 C 222.84375 42.980469 220.34375 44.148438 218.910156 44.148438 C 218.339844 44.148438 217.074219 44.078125 216.480469 43.242188 L 216.621094 43.242188 C 216.789062 43.289062 217.648438 43.148438 217.648438 42.265625 C 217.648438 41.738281 217.289062 41.285156 216.671875 41.285156 C 216.050781 41.285156 215.667969 41.691406 215.667969 42.3125 C 215.667969 43.789062 216.859375 44.792969 218.933594 44.792969 C 221.914062 44.792969 224.800781 41.621094 224.800781 36.445312 C 224.800781 30.027344 222.128906 28.429688 220.03125 28.429688 C 217.410156 28.429688 215.097656 30.625 215.097656 33.773438 C 215.097656 36.921875 217.3125 39.066406 219.699219 39.066406 C 221.460938 39.066406 222.367188 37.78125 222.84375 36.5625 Z M 219.792969 38.589844 C 218.292969 38.589844 217.648438 37.375 217.433594 36.921875 C 217.050781 36.015625 217.050781 34.871094 217.050781 33.796875 C 217.050781 32.460938 217.050781 31.316406 217.671875 30.339844 C 218.101562 29.695312 218.746094 29.003906 220.03125 29.003906 C 221.390625 29.003906 222.082031 30.195312 222.320312 30.746094 C 222.796875 31.914062 222.796875 33.941406 222.796875 34.296875 C 222.796875 36.300781 221.890625 38.589844 219.792969 38.589844 Z M 219.792969 38.589844 " fill-opacity="1" fill-rule="nonzero"/><g clip-path="url(#c188a196b8)"><path fill="#a8180f" d="M 230.003906 26.90625 C 230.082031 26.703125 230.148438 26.589844 230.148438 26.429688 C 230.148438 25.90625 229.667969 25.554688 229.226562 25.554688 C 228.589844 25.554688 228.414062 26.113281 228.351562 26.335938 L 226.332031 33.1875 C 226.269531 33.378906 226.269531 33.425781 226.269531 33.441406 C 226.269531 33.585938 226.363281 33.617188 226.523438 33.664062 C 226.808594 33.792969 226.839844 33.792969 226.871094 33.792969 C 226.921875 33.792969 227.015625 33.792969 227.125 33.523438 Z M 230.003906 26.90625 " fill-opacity="1" fill-rule="nonzero"/></g><path fill="#a8180f" d="M 239.972656 28.765625 C 239.972656 28.3125 239.972656 28.191406 239.636719 28.191406 C 239.449219 28.191406 239.375 28.191406 239.183594 28.480469 L 232.007812 39.617188 L 232.007812 40.308594 L 238.277344 40.308594 L 238.277344 42.480469 C 238.277344 43.359375 238.230469 43.601562 236.492188 43.601562 L 236.015625 43.601562 L 236.015625 44.292969 C 236.5625 44.242188 238.445312 44.242188 239.113281 44.242188 C 239.78125 44.242188 241.6875 44.242188 242.238281 44.292969 L 242.238281 43.601562 L 241.761719 43.601562 C 240.042969 43.601562 239.972656 43.359375 239.972656 42.480469 L 239.972656 40.308594 L 242.378906 40.308594 L 242.378906 39.617188 L 239.972656 39.617188 Z M 238.398438 30.625 L 238.398438 39.617188 L 232.605469 39.617188 Z M 238.398438 30.625 " fill-opacity="1" fill-rule="nonzero"/><g clip-path="url(#8f83b5fdd3)"><path fill="#a8180f" d="M 247.25 26.90625 C 247.328125 26.703125 247.390625 26.589844 247.390625 26.429688 C 247.390625 25.90625 246.914062 25.554688 246.46875 25.554688 C 245.835938 25.554688 245.660156 26.113281 245.597656 26.335938 L 243.578125 33.1875 C 243.515625 33.378906 243.515625 33.425781 243.515625 33.441406 C 243.515625 33.585938 243.609375 33.617188 243.769531 33.664062 C 244.054688 33.792969 244.085938 33.792969 244.117188 33.792969 C 244.164062 33.792969 244.261719 33.792969 244.371094 33.523438 Z M 247.25 26.90625 " fill-opacity="1" fill-rule="nonzero"/></g><g clip-path="url(#5b3cde7ee5)"><path fill="#a8180f" d="M 251.828125 26.90625 C 251.910156 26.703125 251.972656 26.589844 251.972656 26.429688 C 251.972656 25.90625 251.496094 25.554688 251.050781 25.554688 C 250.414062 25.554688 250.242188 26.113281 250.175781 26.335938 L 248.160156 33.1875 C 248.09375 33.378906 248.09375 33.425781 248.09375 33.441406 C 248.09375 33.585938 248.191406 33.617188 248.347656 33.664062 C 248.636719 33.792969 248.667969 33.792969 248.699219 33.792969 C 248.746094 33.792969 248.84375 33.792969 248.953125 33.523438 Z M 251.828125 26.90625 " fill-opacity="1" fill-rule="nonzero"/></g></svg>