<svg xmlns="http://www.w3.org/2000/svg" xmlns:xlink="http://www.w3.org/1999/xlink" width="500" zoomAndPan="magnify" viewBox="0 0 375 74.999997" height="100" preserveAspectRatio="xMidYMid meet" version="1.0"><defs><g/><clipPath id="0665edc79d"><path d="M 49 37.5 L 68 37.5 L 68 49 L 49 49 Z M 49 37.5 " clip-rule="nonzero"/></clipPath><clipPath id="926110d580"><path d="M 106 46 L 112 46 L 112 67.5 L 106 67.5 Z M 106 46 " clip-rule="nonzero"/></clipPath><clipPath id="5f27113571"><path d="M 142 46 L 147 46 L 147 67.5 L 142 67.5 Z M 142 46 " clip-rule="nonzero"/></clipPath><clipPath id="3362c59f3a"><path d="M 175 46 L 181 46 L 181 67.5 L 175 67.5 Z M 175 46 " clip-rule="nonzero"/></clipPath><clipPath id="ff4359a489"><path d="M 211 46 L 216.167969 46 L 216.167969 67.5 L 211 67.5 Z M 211 46 " clip-rule="nonzero"/></clipPath></defs><path fill="#17191a" d="M 51.074219 43.515625 C 51.421875 43.515625 51.789062 43.515625 51.789062 43.105469 C 51.789062 42.699219 51.421875 42.699219 51.074219 42.699219 L 40.070312 42.699219 C 39.722656 42.699219 39.355469 42.699219 39.355469 43.105469 C 39.355469 43.515625 39.722656 43.515625 40.070312 43.515625 Z M 51.074219 43.515625 " fill-opacity="1" fill-rule="nonzero"/><g clip-path="url(#0665edc79d)"><path fill="#17191a" d="M 65.386719 43.515625 C 64.269531 44.367188 63.71875 45.203125 63.554688 45.46875 C 62.640625 46.871094 62.476562 48.152344 62.476562 48.171875 C 62.476562 48.417969 62.722656 48.417969 62.882812 48.417969 C 63.230469 48.417969 63.25 48.375 63.332031 48.011719 C 63.800781 46.015625 65 44.308594 67.300781 43.371094 C 67.542969 43.289062 67.605469 43.25 67.605469 43.105469 C 67.605469 42.964844 67.484375 42.902344 67.441406 42.882812 C 66.546875 42.539062 64.085938 41.519531 63.3125 38.101562 C 63.25 37.859375 63.230469 37.796875 62.882812 37.796875 C 62.722656 37.796875 62.476562 37.796875 62.476562 38.039062 C 62.476562 38.082031 62.660156 39.363281 63.515625 40.726562 C 63.921875 41.335938 64.511719 42.046875 65.386719 42.699219 L 50.269531 42.699219 C 49.902344 42.699219 49.539062 42.699219 49.539062 43.105469 C 49.539062 43.515625 49.902344 43.515625 50.269531 43.515625 Z M 65.386719 43.515625 " fill-opacity="1" fill-rule="nonzero"/></g><path fill="#17191a" d="M 41.128906 59.839844 C 40.414062 61.039062 39.722656 61.445312 38.746094 61.507812 C 38.523438 61.527344 38.359375 61.527344 38.359375 61.894531 C 38.359375 62.015625 38.460938 62.097656 38.605469 62.097656 C 38.96875 62.097656 39.886719 62.058594 40.253906 62.058594 C 40.84375 62.058594 41.492188 62.097656 42.0625 62.097656 C 42.183594 62.097656 42.429688 62.097656 42.429688 61.710938 C 42.429688 61.527344 42.265625 61.507812 42.144531 61.507812 C 41.675781 61.464844 41.289062 61.304688 41.289062 60.816406 C 41.289062 60.53125 41.410156 60.308594 41.675781 59.859375 L 43.222656 57.296875 L 48.410156 57.296875 C 48.429688 57.480469 48.429688 57.640625 48.453125 57.824219 C 48.511719 58.355469 48.757812 60.46875 48.757812 60.855469 C 48.757812 61.464844 47.71875 61.507812 47.394531 61.507812 C 47.167969 61.507812 46.945312 61.507812 46.945312 61.875 C 46.945312 62.097656 47.128906 62.097656 47.25 62.097656 C 47.597656 62.097656 48.003906 62.058594 48.351562 62.058594 L 49.507812 62.058594 C 50.75 62.058594 51.644531 62.097656 51.667969 62.097656 C 51.808594 62.097656 52.03125 62.097656 52.03125 61.710938 C 52.03125 61.507812 51.847656 61.507812 51.542969 61.507812 C 50.425781 61.507812 50.40625 61.324219 50.34375 60.714844 L 49.101562 48.019531 C 49.0625 47.609375 48.980469 47.570312 48.757812 47.570312 C 48.554688 47.570312 48.429688 47.609375 48.25 47.917969 Z M 43.570312 56.707031 L 47.65625 49.871094 L 48.351562 56.707031 Z M 43.570312 56.707031 " fill-opacity="1" fill-rule="nonzero"/><path fill="#17191a" d="M 60.050781 49.585938 C 60.234375 48.832031 60.316406 48.792969 61.109375 48.792969 L 63.753906 48.792969 C 66.050781 48.792969 66.050781 50.746094 66.050781 50.925781 C 66.050781 52.574219 64.402344 54.671875 61.71875 54.671875 L 58.789062 54.671875 Z M 63.488281 54.832031 C 65.707031 54.425781 67.71875 52.878906 67.71875 51.007812 C 67.71875 49.421875 66.316406 48.199219 64.019531 48.199219 L 57.488281 48.199219 C 57.101562 48.199219 56.917969 48.199219 56.917969 48.585938 C 56.917969 48.792969 57.101562 48.792969 57.40625 48.792969 C 58.644531 48.792969 58.644531 48.953125 58.644531 49.179688 C 58.644531 49.21875 58.644531 49.339844 58.566406 49.644531 L 55.816406 60.59375 C 55.636719 61.304688 55.59375 61.507812 54.171875 61.507812 C 53.785156 61.507812 53.582031 61.507812 53.582031 61.875 C 53.582031 62.097656 53.703125 62.097656 54.109375 62.097656 L 61.085938 62.097656 C 64.199219 62.097656 66.601562 59.738281 66.601562 57.683594 C 66.601562 56.015625 65.136719 54.996094 63.488281 54.832031 Z M 60.597656 61.507812 L 57.851562 61.507812 C 57.566406 61.507812 57.527344 61.507812 57.40625 61.488281 C 57.179688 61.464844 57.160156 61.425781 57.160156 61.261719 C 57.160156 61.121094 57.203125 61 57.242188 60.816406 L 58.667969 55.078125 L 62.492188 55.078125 C 64.890625 55.078125 64.890625 57.316406 64.890625 57.480469 C 64.890625 59.433594 63.121094 61.507812 60.597656 61.507812 Z M 60.597656 61.507812 " fill-opacity="1" fill-rule="nonzero"/><path fill="#17191a" d="M 73.402344 57.171875 C 73.402344 55.972656 73.890625 54.183594 75.945312 52.65625 C 76.515625 52.230469 77.046875 51.597656 77.046875 50.539062 C 77.046875 49.300781 76.191406 47.773438 73.261719 47.773438 C 71.0625 47.773438 69.863281 49.199219 69.863281 50.5 C 69.863281 51.234375 70.414062 51.394531 70.71875 51.394531 C 71.0625 51.394531 71.550781 51.152344 71.550781 50.539062 C 71.550781 50.074219 71.207031 49.707031 70.695312 49.707031 C 70.574219 49.707031 70.535156 49.707031 70.492188 49.726562 C 70.941406 48.667969 72.121094 48.179688 73.199219 48.179688 C 75.5 48.179688 75.5 49.667969 75.5 50.4375 C 75.5 51.640625 75.132812 52.027344 74.785156 52.390625 C 73.402344 53.878906 72.957031 55.769531 72.957031 57.011719 L 72.957031 57.988281 C 72.957031 58.355469 72.957031 58.433594 73.179688 58.433594 C 73.402344 58.433594 73.402344 58.292969 73.402344 57.925781 Z M 74.15625 61.101562 C 74.15625 60.570312 73.707031 60.125 73.179688 60.125 C 72.570312 60.125 72.183594 60.613281 72.183594 61.101562 C 72.183594 61.710938 72.671875 62.097656 73.160156 62.097656 C 73.730469 62.097656 74.15625 61.648438 74.15625 61.101562 Z M 74.15625 61.101562 " fill-opacity="1" fill-rule="nonzero"/><path fill="#17191a" d="M 92.933594 59.839844 C 92.222656 61.039062 91.527344 61.445312 90.550781 61.507812 C 90.328125 61.527344 90.164062 61.527344 90.164062 61.894531 C 90.164062 62.015625 90.269531 62.097656 90.410156 62.097656 C 90.777344 62.097656 91.691406 62.058594 92.058594 62.058594 C 92.648438 62.058594 93.300781 62.097656 93.867188 62.097656 C 93.992188 62.097656 94.234375 62.097656 94.234375 61.710938 C 94.234375 61.527344 94.074219 61.507812 93.949219 61.507812 C 93.480469 61.464844 93.097656 61.304688 93.097656 60.816406 C 93.097656 60.53125 93.21875 60.308594 93.480469 59.859375 L 95.027344 57.296875 L 100.21875 57.296875 C 100.238281 57.480469 100.238281 57.640625 100.257812 57.824219 C 100.320312 58.355469 100.5625 60.46875 100.5625 60.855469 C 100.5625 61.464844 99.523438 61.507812 99.199219 61.507812 C 98.976562 61.507812 98.75 61.507812 98.75 61.875 C 98.75 62.097656 98.933594 62.097656 99.058594 62.097656 C 99.402344 62.097656 99.808594 62.058594 100.15625 62.058594 L 101.316406 62.058594 C 102.554688 62.058594 103.453125 62.097656 103.472656 62.097656 C 103.613281 62.097656 103.839844 62.097656 103.839844 61.710938 C 103.839844 61.507812 103.65625 61.507812 103.351562 61.507812 C 102.230469 61.507812 102.210938 61.324219 102.148438 60.714844 L 100.910156 48.019531 C 100.867188 47.609375 100.785156 47.570312 100.5625 47.570312 C 100.359375 47.570312 100.238281 47.609375 100.054688 47.917969 Z M 95.375 56.707031 L 99.464844 49.871094 L 100.15625 56.707031 Z M 95.375 56.707031 " fill-opacity="1" fill-rule="nonzero"/><g clip-path="url(#926110d580)"><path fill="#17191a" d="M 111.023438 67.042969 C 111.023438 66.980469 111.023438 66.941406 110.675781 66.59375 C 108.640625 64.539062 107.503906 61.183594 107.503906 57.03125 C 107.503906 53.085938 108.457031 49.6875 110.820312 47.285156 C 111.023438 47.101562 111.023438 47.0625 111.023438 47 C 111.023438 46.878906 110.921875 46.839844 110.839844 46.839844 C 110.574219 46.839844 108.90625 48.304688 107.910156 50.296875 C 106.871094 52.351562 106.402344 54.527344 106.402344 57.03125 C 106.402344 58.84375 106.6875 61.261719 107.746094 63.441406 C 108.945312 65.882812 110.613281 67.203125 110.839844 67.203125 C 110.921875 67.203125 111.023438 67.164062 111.023438 67.042969 Z M 111.023438 67.042969 " fill-opacity="1" fill-rule="nonzero"/></g><path fill="#17191a" d="M 118.015625 49.054688 C 118.015625 48.585938 118.015625 48.566406 117.609375 48.566406 C 117.121094 49.117188 116.105469 49.871094 114.007812 49.871094 L 114.007812 50.460938 C 114.476562 50.460938 115.492188 50.460938 116.613281 49.929688 L 116.613281 60.53125 C 116.613281 61.261719 116.550781 61.507812 114.761719 61.507812 L 114.128906 61.507812 L 114.128906 62.097656 C 114.679688 62.058594 116.652344 62.058594 117.324219 62.058594 C 117.996094 62.058594 119.949219 62.058594 120.5 62.097656 L 120.5 61.507812 L 119.867188 61.507812 C 118.078125 61.507812 118.015625 61.261719 118.015625 60.53125 Z M 118.015625 49.054688 " fill-opacity="1" fill-rule="nonzero"/><path fill="#17191a" d="M 126.085938 62.179688 C 126.085938 61 125.699219 60.125 124.863281 60.125 C 124.214844 60.125 123.886719 60.652344 123.886719 61.101562 C 123.886719 61.546875 124.191406 62.097656 124.882812 62.097656 C 125.148438 62.097656 125.371094 62.015625 125.554688 61.832031 C 125.597656 61.792969 125.617188 61.792969 125.636719 61.792969 C 125.679688 61.792969 125.679688 62.078125 125.679688 62.179688 C 125.679688 62.851562 125.554688 64.171875 124.375 65.496094 C 124.152344 65.738281 124.152344 65.78125 124.152344 65.820312 C 124.152344 65.921875 124.253906 66.023438 124.355469 66.023438 C 124.519531 66.023438 126.085938 64.519531 126.085938 62.179688 Z M 126.085938 62.179688 " fill-opacity="1" fill-rule="nonzero"/><path fill="#17191a" d="M 133.644531 50.4375 C 134.519531 50.722656 135.234375 50.746094 135.457031 50.746094 C 137.757812 50.746094 139.222656 49.054688 139.222656 48.769531 C 139.222656 48.6875 139.179688 48.585938 139.058594 48.585938 C 139.015625 48.585938 138.976562 48.585938 138.792969 48.667969 C 137.65625 49.15625 136.675781 49.21875 136.148438 49.21875 C 134.804688 49.21875 133.851562 48.8125 133.464844 48.648438 C 133.320312 48.585938 133.28125 48.585938 133.257812 48.585938 C 133.097656 48.585938 133.097656 48.710938 133.097656 49.035156 L 133.097656 55.078125 C 133.097656 55.445312 133.097656 55.566406 133.339844 55.566406 C 133.441406 55.566406 133.464844 55.546875 133.667969 55.300781 C 134.234375 54.46875 135.191406 53.980469 136.210938 53.980469 C 137.289062 53.980469 137.816406 54.976562 137.980469 55.320312 C 138.324219 56.117188 138.347656 57.113281 138.347656 57.886719 C 138.347656 58.660156 138.347656 59.820312 137.777344 60.734375 C 137.328125 61.464844 136.535156 61.976562 135.640625 61.976562 C 134.296875 61.976562 132.976562 61.058594 132.609375 59.574219 C 132.710938 59.613281 132.832031 59.636719 132.933594 59.636719 C 133.28125 59.636719 133.828125 59.433594 133.828125 58.742188 C 133.828125 58.171875 133.441406 57.84375 132.933594 57.84375 C 132.566406 57.84375 132.039062 58.027344 132.039062 58.820312 C 132.039062 60.550781 133.421875 62.523438 135.679688 62.523438 C 137.980469 62.523438 139.992188 60.59375 139.992188 58.007812 C 139.992188 55.585938 138.367188 53.574219 136.230469 53.574219 C 135.070312 53.574219 134.175781 54.082031 133.644531 54.652344 Z M 133.644531 50.4375 " fill-opacity="1" fill-rule="nonzero"/><g clip-path="url(#5f27113571)"><path fill="#17191a" d="M 146.742188 57.03125 C 146.742188 55.484375 146.535156 52.960938 145.398438 50.601562 C 144.195312 48.160156 142.527344 46.839844 142.304688 46.839844 C 142.222656 46.839844 142.121094 46.878906 142.121094 47 C 142.121094 47.0625 142.121094 47.101562 142.46875 47.449219 C 144.503906 49.503906 145.640625 52.859375 145.640625 57.011719 C 145.640625 60.957031 144.683594 64.355469 142.324219 66.757812 C 142.121094 66.941406 142.121094 66.980469 142.121094 67.042969 C 142.121094 67.164062 142.222656 67.203125 142.304688 67.203125 C 142.570312 67.203125 144.238281 65.738281 145.234375 63.746094 C 146.273438 61.671875 146.742188 59.472656 146.742188 57.03125 Z M 146.742188 57.03125 " fill-opacity="1" fill-rule="nonzero"/></g><path fill="#17191a" d="M 152.71875 62.179688 C 152.71875 61 152.332031 60.125 151.496094 60.125 C 150.84375 60.125 150.519531 60.652344 150.519531 61.101562 C 150.519531 61.546875 150.824219 62.097656 151.515625 62.097656 C 151.78125 62.097656 152.003906 62.015625 152.1875 61.832031 C 152.230469 61.792969 152.25 61.792969 152.269531 61.792969 C 152.308594 61.792969 152.308594 62.078125 152.308594 62.179688 C 152.308594 62.851562 152.1875 64.171875 151.007812 65.496094 C 150.785156 65.738281 150.785156 65.78125 150.785156 65.820312 C 150.785156 65.921875 150.886719 66.023438 150.988281 66.023438 C 151.152344 66.023438 152.71875 64.519531 152.71875 62.179688 Z M 152.71875 62.179688 " fill-opacity="1" fill-rule="nonzero"/><path fill="#17191a" d="M 165.121094 49.585938 C 165.304688 48.832031 165.386719 48.792969 166.179688 48.792969 L 168.824219 48.792969 C 171.125 48.792969 171.125 50.746094 171.125 50.925781 C 171.125 52.574219 169.476562 54.671875 166.789062 54.671875 L 163.859375 54.671875 Z M 168.5625 54.832031 C 170.777344 54.425781 172.792969 52.878906 172.792969 51.007812 C 172.792969 49.421875 171.390625 48.199219 169.089844 48.199219 L 162.558594 48.199219 C 162.171875 48.199219 161.988281 48.199219 161.988281 48.585938 C 161.988281 48.792969 162.171875 48.792969 162.476562 48.792969 C 163.71875 48.792969 163.71875 48.953125 163.71875 49.179688 C 163.71875 49.21875 163.71875 49.339844 163.636719 49.644531 L 160.890625 60.59375 C 160.707031 61.304688 160.667969 61.507812 159.242188 61.507812 C 158.855469 61.507812 158.652344 61.507812 158.652344 61.875 C 158.652344 62.097656 158.773438 62.097656 159.179688 62.097656 L 166.160156 62.097656 C 169.273438 62.097656 171.675781 59.738281 171.675781 57.683594 C 171.675781 56.015625 170.207031 54.996094 168.5625 54.832031 Z M 165.671875 61.507812 L 162.925781 61.507812 C 162.640625 61.507812 162.597656 61.507812 162.476562 61.488281 C 162.253906 61.464844 162.234375 61.425781 162.234375 61.261719 C 162.234375 61.121094 162.273438 61 162.316406 60.816406 L 163.738281 55.078125 L 167.5625 55.078125 C 169.964844 55.078125 169.964844 57.316406 169.964844 57.480469 C 169.964844 59.433594 168.195312 61.507812 165.671875 61.507812 Z M 165.671875 61.507812 " fill-opacity="1" fill-rule="nonzero"/><g clip-path="url(#3362c59f3a)"><path fill="#17191a" d="M 180.449219 67.042969 C 180.449219 66.980469 180.449219 66.941406 180.101562 66.59375 C 178.070312 64.539062 176.929688 61.183594 176.929688 57.03125 C 176.929688 53.085938 177.886719 49.6875 180.246094 47.285156 C 180.449219 47.101562 180.449219 47.0625 180.449219 47 C 180.449219 46.878906 180.347656 46.839844 180.265625 46.839844 C 180 46.839844 178.332031 48.304688 177.335938 50.296875 C 176.296875 52.351562 175.832031 54.527344 175.832031 57.03125 C 175.832031 58.84375 176.117188 61.261719 177.171875 63.441406 C 178.375 65.882812 180.042969 67.203125 180.265625 67.203125 C 180.347656 67.203125 180.449219 67.164062 180.449219 67.042969 Z M 180.449219 67.042969 " fill-opacity="1" fill-rule="nonzero"/></g><path fill="#17191a" d="M 190.699219 55.585938 C 190.699219 53.898438 190.597656 52.25 189.863281 50.703125 C 189.03125 49.015625 187.566406 48.566406 186.566406 48.566406 C 185.386719 48.566406 183.945312 49.15625 183.191406 50.847656 C 182.621094 52.128906 182.417969 53.390625 182.417969 55.585938 C 182.417969 57.558594 182.558594 59.046875 183.292969 60.488281 C 184.085938 62.035156 185.488281 62.523438 186.546875 62.523438 C 188.316406 62.523438 189.335938 61.464844 189.925781 60.285156 C 190.65625 58.761719 190.699219 56.765625 190.699219 55.585938 Z M 186.546875 62.117188 C 185.898438 62.117188 184.574219 61.75 184.1875 59.535156 C 183.964844 58.3125 183.964844 56.765625 183.964844 55.34375 C 183.964844 53.675781 183.964844 52.167969 184.289062 50.96875 C 184.636719 49.605469 185.671875 48.972656 186.546875 48.972656 C 187.320312 48.972656 188.5 49.441406 188.886719 51.191406 C 189.152344 52.351562 189.152344 53.960938 189.152344 55.34375 C 189.152344 56.707031 189.152344 58.253906 188.929688 59.492188 C 188.542969 61.730469 187.261719 62.117188 186.546875 62.117188 Z M 186.546875 62.117188 " fill-opacity="1" fill-rule="nonzero"/><path fill="#17191a" d="M 195.511719 62.179688 C 195.511719 61 195.125 60.125 194.292969 60.125 C 193.640625 60.125 193.316406 60.652344 193.316406 61.101562 C 193.316406 61.546875 193.621094 62.097656 194.3125 62.097656 C 194.574219 62.097656 194.800781 62.015625 194.984375 61.832031 C 195.023438 61.792969 195.042969 61.792969 195.0625 61.792969 C 195.105469 61.792969 195.105469 62.078125 195.105469 62.179688 C 195.105469 62.851562 194.984375 64.171875 193.804688 65.496094 C 193.578125 65.738281 193.578125 65.78125 193.578125 65.820312 C 193.578125 65.921875 193.679688 66.023438 193.78125 66.023438 C 193.945312 66.023438 195.511719 64.519531 195.511719 62.179688 Z M 195.511719 62.179688 " fill-opacity="1" fill-rule="nonzero"/><path fill="#17191a" d="M 204.210938 54.792969 C 203.867188 54.8125 203.785156 54.832031 203.785156 55.015625 C 203.785156 55.21875 203.886719 55.21875 204.253906 55.21875 L 205.1875 55.21875 C 206.917969 55.21875 207.691406 56.644531 207.691406 58.597656 C 207.691406 61.261719 206.308594 61.976562 205.3125 61.976562 C 204.335938 61.976562 202.667969 61.507812 202.078125 60.164062 C 202.726562 60.265625 203.316406 59.898438 203.316406 59.167969 C 203.316406 58.578125 202.890625 58.171875 202.320312 58.171875 C 201.832031 58.171875 201.304688 58.457031 201.304688 59.230469 C 201.304688 61.039062 203.113281 62.523438 205.371094 62.523438 C 207.792969 62.523438 209.582031 60.671875 209.582031 58.617188 C 209.582031 56.746094 208.078125 55.28125 206.125 54.9375 C 207.894531 54.425781 209.035156 52.941406 209.035156 51.355469 C 209.035156 49.746094 207.367188 48.566406 205.394531 48.566406 C 203.359375 48.566406 201.851562 49.808594 201.851562 51.292969 C 201.851562 52.109375 202.484375 52.269531 202.789062 52.269531 C 203.214844 52.269531 203.703125 51.964844 203.703125 51.355469 C 203.703125 50.703125 203.214844 50.417969 202.769531 50.417969 C 202.644531 50.417969 202.605469 50.417969 202.542969 50.4375 C 203.316406 49.054688 205.230469 49.054688 205.332031 49.054688 C 206.003906 49.054688 207.324219 49.359375 207.324219 51.355469 C 207.324219 51.742188 207.265625 52.878906 206.675781 53.753906 C 206.0625 54.652344 205.371094 54.710938 204.824219 54.730469 Z M 204.210938 54.792969 " fill-opacity="1" fill-rule="nonzero"/><g clip-path="url(#ff4359a489)"><path fill="#17191a" d="M 216.167969 57.03125 C 216.167969 55.484375 215.964844 52.960938 214.824219 50.601562 C 213.625 48.160156 211.957031 46.839844 211.730469 46.839844 C 211.652344 46.839844 211.550781 46.878906 211.550781 47 C 211.550781 47.0625 211.550781 47.101562 211.894531 47.449219 C 213.929688 49.503906 215.070312 52.859375 215.070312 57.011719 C 215.070312 60.957031 214.113281 64.355469 211.753906 66.757812 C 211.550781 66.941406 211.550781 66.980469 211.550781 67.042969 C 211.550781 67.164062 211.652344 67.203125 211.730469 67.203125 C 211.996094 67.203125 213.664062 65.738281 214.660156 63.746094 C 215.699219 61.671875 216.167969 59.472656 216.167969 57.03125 Z M 216.167969 57.03125 " fill-opacity="1" fill-rule="nonzero"/></g><g fill="#17191a" fill-opacity="1"><g transform="translate(0.0000075, 31.35356)"><g><path d="M 6.40625 0 L 4.765625 0 L 4.765625 -10.84375 L 1.5 -9.640625 L 1.5 -11.109375 L 6.15625 -12.859375 L 6.40625 -12.859375 Z M 6.40625 0 "/></g></g></g><g fill="#17191a" fill-opacity="1"><g transform="translate(10.100848, 31.35356)"><g><path d="M 4.984375 -5.109375 C 4.984375 -3.796875 4.8125 -2.539062 4.46875 -1.34375 C 4.125 -0.144531 3.597656 0.957031 2.890625 1.96875 C 2.191406 2.976562 1.453125 3.695312 0.671875 4.125 L 0.328125 3.140625 C 1.234375 2.441406 1.957031 1.367188 2.5 -0.078125 C 3.050781 -1.535156 3.332031 -3.15625 3.34375 -4.9375 L 3.34375 -5.21875 C 3.34375 -6.445312 3.210938 -7.585938 2.953125 -8.640625 C 2.703125 -9.703125 2.347656 -10.648438 1.890625 -11.484375 C 1.429688 -12.328125 0.910156 -12.984375 0.328125 -13.453125 L 0.671875 -14.4375 C 1.453125 -14.007812 2.191406 -13.296875 2.890625 -12.296875 C 3.585938 -11.296875 4.109375 -10.191406 4.453125 -8.984375 C 4.804688 -7.773438 4.984375 -6.484375 4.984375 -5.109375 Z M 4.984375 -5.109375 "/></g></g></g><g fill="#17191a" fill-opacity="1"><g transform="translate(16.354586, 31.35356)"><g/></g></g><g fill="#17191a" fill-opacity="1"><g transform="translate(20.807745, 31.35356)"><g><path d="M 4.734375 -5.953125 L 3.171875 -4.328125 L 3.171875 0 L 1.484375 0 L 1.484375 -12.796875 L 3.171875 -12.796875 L 3.171875 -6.46875 L 8.859375 -12.796875 L 10.90625 -12.796875 L 5.859375 -7.140625 L 11.296875 0 L 9.265625 0 Z M 4.734375 -5.953125 "/></g></g></g><g fill="#17191a" fill-opacity="1"><g transform="translate(32.085553, 31.35356)"><g><path d="M 0.796875 -4.84375 C 0.796875 -5.769531 0.976562 -6.601562 1.34375 -7.34375 C 1.71875 -8.09375 2.226562 -8.671875 2.875 -9.078125 C 3.53125 -9.484375 4.273438 -9.6875 5.109375 -9.6875 C 6.410156 -9.6875 7.457031 -9.238281 8.25 -8.34375 C 9.050781 -7.445312 9.453125 -6.253906 9.453125 -4.765625 L 9.453125 -4.65625 C 9.453125 -3.726562 9.273438 -2.894531 8.921875 -2.15625 C 8.566406 -1.425781 8.0625 -0.851562 7.40625 -0.4375 C 6.75 -0.03125 5.992188 0.171875 5.140625 0.171875 C 3.847656 0.171875 2.800781 -0.273438 2 -1.171875 C 1.195312 -2.066406 0.796875 -3.253906 0.796875 -4.734375 Z M 2.4375 -4.65625 C 2.4375 -3.59375 2.679688 -2.742188 3.171875 -2.109375 C 3.660156 -1.472656 4.316406 -1.15625 5.140625 -1.15625 C 5.960938 -1.15625 6.613281 -1.476562 7.09375 -2.125 C 7.582031 -2.769531 7.828125 -3.675781 7.828125 -4.84375 C 7.828125 -5.882812 7.578125 -6.726562 7.078125 -7.375 C 6.585938 -8.019531 5.929688 -8.34375 5.109375 -8.34375 C 4.304688 -8.34375 3.660156 -8.023438 3.171875 -7.390625 C 2.679688 -6.753906 2.4375 -5.84375 2.4375 -4.65625 Z M 2.4375 -4.65625 "/></g></g></g><g fill="#17191a" fill-opacity="1"><g transform="translate(42.344494, 31.35356)"><g><path d="M 3 0 L 1.375 0 L 1.375 -13.5 L 3 -13.5 Z M 3 0 "/></g></g></g><g fill="#17191a" fill-opacity="1"><g transform="translate(46.70982, 31.35356)"><g><path d="M 3 0 L 1.375 0 L 1.375 -9.515625 L 3 -9.515625 Z M 1.234375 -12.03125 C 1.234375 -12.289062 1.3125 -12.507812 1.46875 -12.6875 C 1.632812 -12.875 1.875 -12.96875 2.1875 -12.96875 C 2.507812 -12.96875 2.753906 -12.875 2.921875 -12.6875 C 3.085938 -12.507812 3.171875 -12.289062 3.171875 -12.03125 C 3.171875 -11.769531 3.085938 -11.550781 2.921875 -11.375 C 2.753906 -11.195312 2.507812 -11.109375 2.1875 -11.109375 C 1.875 -11.109375 1.632812 -11.195312 1.46875 -11.375 C 1.3125 -11.550781 1.234375 -11.769531 1.234375 -12.03125 Z M 1.234375 -12.03125 "/></g></g></g><g fill="#17191a" fill-opacity="1"><g transform="translate(51.075145, 31.35356)"><g><path d="M 3.890625 -4.40625 L 2.859375 -3.34375 L 2.859375 0 L 1.234375 0 L 1.234375 -13.5 L 2.859375 -13.5 L 2.859375 -5.328125 L 3.734375 -6.375 L 6.703125 -9.515625 L 8.671875 -9.515625 L 4.96875 -5.53125 L 9.109375 0 L 7.203125 0 Z M 3.890625 -4.40625 "/></g></g></g><g fill="#17191a" fill-opacity="1"><g transform="translate(60.192252, 31.35356)"><g><path d="M 0.796875 -4.84375 C 0.796875 -5.769531 0.976562 -6.601562 1.34375 -7.34375 C 1.71875 -8.09375 2.226562 -8.671875 2.875 -9.078125 C 3.53125 -9.484375 4.273438 -9.6875 5.109375 -9.6875 C 6.410156 -9.6875 7.457031 -9.238281 8.25 -8.34375 C 9.050781 -7.445312 9.453125 -6.253906 9.453125 -4.765625 L 9.453125 -4.65625 C 9.453125 -3.726562 9.273438 -2.894531 8.921875 -2.15625 C 8.566406 -1.425781 8.0625 -0.851562 7.40625 -0.4375 C 6.75 -0.03125 5.992188 0.171875 5.140625 0.171875 C 3.847656 0.171875 2.800781 -0.273438 2 -1.171875 C 1.195312 -2.066406 0.796875 -3.253906 0.796875 -4.734375 Z M 2.4375 -4.65625 C 2.4375 -3.59375 2.679688 -2.742188 3.171875 -2.109375 C 3.660156 -1.472656 4.316406 -1.15625 5.140625 -1.15625 C 5.960938 -1.15625 6.613281 -1.476562 7.09375 -2.125 C 7.582031 -2.769531 7.828125 -3.675781 7.828125 -4.84375 C 7.828125 -5.882812 7.578125 -6.726562 7.078125 -7.375 C 6.585938 -8.019531 5.929688 -8.34375 5.109375 -8.34375 C 4.304688 -8.34375 3.660156 -8.023438 3.171875 -7.390625 C 2.679688 -6.753906 2.4375 -5.84375 2.4375 -4.65625 Z M 2.4375 -4.65625 "/></g></g></g><g fill="#17191a" fill-opacity="1"><g transform="translate(70.451193, 31.35356)"><g/></g></g><g fill="#17191a" fill-opacity="1"><g transform="translate(74.904352, 31.35356)"><g><path d="M 2.90625 -9.515625 L 2.90625 1.09375 C 2.90625 2.925781 2.078125 3.84375 0.421875 3.84375 C 0.0664062 3.84375 -0.265625 3.789062 -0.578125 3.6875 L -0.578125 2.375 C -0.390625 2.425781 -0.140625 2.453125 0.171875 2.453125 C 0.535156 2.453125 0.8125 2.351562 1 2.15625 C 1.1875 1.957031 1.28125 1.617188 1.28125 1.140625 L 1.28125 -9.515625 Z M 1.109375 -12.03125 C 1.109375 -12.289062 1.1875 -12.507812 1.34375 -12.6875 C 1.507812 -12.875 1.75 -12.96875 2.0625 -12.96875 C 2.382812 -12.96875 2.625 -12.875 2.78125 -12.6875 C 2.945312 -12.507812 3.03125 -12.289062 3.03125 -12.03125 C 3.03125 -11.769531 2.945312 -11.550781 2.78125 -11.375 C 2.625 -11.195312 2.382812 -11.109375 2.0625 -11.109375 C 1.75 -11.109375 1.507812 -11.195312 1.34375 -11.375 C 1.1875 -11.550781 1.109375 -11.769531 1.109375 -12.03125 Z M 1.109375 -12.03125 "/></g></g></g><g fill="#17191a" fill-opacity="1"><g transform="translate(79.199411, 31.35356)"><g><path d="M 5.171875 0.171875 C 3.890625 0.171875 2.84375 -0.25 2.03125 -1.09375 C 1.21875 -1.9375 0.8125 -3.066406 0.8125 -4.484375 L 0.8125 -4.796875 C 0.8125 -5.734375 0.992188 -6.570312 1.359375 -7.3125 C 1.722656 -8.050781 2.226562 -8.628906 2.875 -9.046875 C 3.519531 -9.472656 4.21875 -9.6875 4.96875 -9.6875 C 6.207031 -9.6875 7.171875 -9.28125 7.859375 -8.46875 C 8.546875 -7.65625 8.890625 -6.488281 8.890625 -4.96875 L 8.890625 -4.296875 L 2.4375 -4.296875 C 2.46875 -3.359375 2.742188 -2.597656 3.265625 -2.015625 C 3.785156 -1.441406 4.453125 -1.15625 5.265625 -1.15625 C 5.835938 -1.15625 6.320312 -1.269531 6.71875 -1.5 C 7.125 -1.738281 7.472656 -2.050781 7.765625 -2.4375 L 8.765625 -1.65625 C 7.960938 -0.4375 6.765625 0.171875 5.171875 0.171875 Z M 4.96875 -8.34375 C 4.3125 -8.34375 3.757812 -8.101562 3.3125 -7.625 C 2.875 -7.15625 2.601562 -6.488281 2.5 -5.625 L 7.265625 -5.625 L 7.265625 -5.75 C 7.210938 -6.570312 6.988281 -7.207031 6.59375 -7.65625 C 6.195312 -8.113281 5.65625 -8.34375 4.96875 -8.34375 Z M 4.96875 -8.34375 "/></g></g></g><g fill="#17191a" fill-opacity="1"><g transform="translate(88.72934, 31.35356)"><g/></g></g><g fill="#17191a" fill-opacity="1"><g transform="translate(93.182499, 31.35356)"><g><path d="M 0.828125 -4.828125 C 0.828125 -6.285156 1.171875 -7.457031 1.859375 -8.34375 C 2.554688 -9.238281 3.46875 -9.6875 4.59375 -9.6875 C 5.707031 -9.6875 6.585938 -9.304688 7.234375 -8.546875 L 7.234375 -13.5 L 8.859375 -13.5 L 8.859375 0 L 7.359375 0 L 7.28125 -1.015625 C 6.632812 -0.222656 5.734375 0.171875 4.578125 0.171875 C 3.472656 0.171875 2.570312 -0.273438 1.875 -1.171875 C 1.175781 -2.078125 0.828125 -3.257812 0.828125 -4.71875 Z M 2.46875 -4.65625 C 2.46875 -3.570312 2.6875 -2.722656 3.125 -2.109375 C 3.570312 -1.503906 4.1875 -1.203125 4.96875 -1.203125 C 6 -1.203125 6.753906 -1.664062 7.234375 -2.59375 L 7.234375 -6.96875 C 6.742188 -7.863281 6 -8.3125 5 -8.3125 C 4.195312 -8.3125 3.570312 -8 3.125 -7.375 C 2.6875 -6.757812 2.46875 -5.851562 2.46875 -4.65625 Z M 2.46875 -4.65625 "/></g></g></g><g fill="#17191a" fill-opacity="1"><g transform="translate(103.327262, 31.35356)"><g><path d="M 7.109375 -0.9375 C 6.472656 -0.195312 5.539062 0.171875 4.3125 0.171875 C 3.300781 0.171875 2.53125 -0.117188 2 -0.703125 C 1.46875 -1.296875 1.203125 -2.171875 1.203125 -3.328125 L 1.203125 -9.515625 L 2.828125 -9.515625 L 2.828125 -3.359375 C 2.828125 -1.921875 3.410156 -1.203125 4.578125 -1.203125 C 5.816406 -1.203125 6.644531 -1.664062 7.0625 -2.59375 L 7.0625 -9.515625 L 8.6875 -9.515625 L 8.6875 0 L 7.140625 0 Z M 7.109375 -0.9375 "/></g></g></g><g fill="#17191a" fill-opacity="1"><g transform="translate(113.243658, 31.35356)"><g><path d="M 0.84375 -4.828125 C 0.84375 -6.316406 1.1875 -7.5 1.875 -8.375 C 2.5625 -9.25 3.46875 -9.6875 4.59375 -9.6875 C 5.757812 -9.6875 6.664062 -9.273438 7.3125 -8.453125 L 7.390625 -9.515625 L 8.875 -9.515625 L 8.875 -0.234375 C 8.875 1.003906 8.507812 1.976562 7.78125 2.6875 C 7.050781 3.394531 6.070312 3.75 4.84375 3.75 C 4.15625 3.75 3.484375 3.597656 2.828125 3.296875 C 2.171875 3.003906 1.671875 2.601562 1.328125 2.09375 L 2.171875 1.125 C 2.867188 1.988281 3.722656 2.421875 4.734375 2.421875 C 5.523438 2.421875 6.140625 2.195312 6.578125 1.75 C 7.023438 1.300781 7.25 0.675781 7.25 -0.125 L 7.25 -0.953125 C 6.59375 -0.203125 5.703125 0.171875 4.578125 0.171875 C 3.460938 0.171875 2.5625 -0.273438 1.875 -1.171875 C 1.1875 -2.066406 0.84375 -3.285156 0.84375 -4.828125 Z M 2.484375 -4.65625 C 2.484375 -3.582031 2.703125 -2.738281 3.140625 -2.125 C 3.578125 -1.507812 4.191406 -1.203125 4.984375 -1.203125 C 6.003906 -1.203125 6.757812 -1.671875 7.25 -2.609375 L 7.25 -6.9375 C 6.75 -7.851562 6 -8.3125 5 -8.3125 C 4.207031 -8.3125 3.585938 -8 3.140625 -7.375 C 2.703125 -6.757812 2.484375 -5.851562 2.484375 -4.65625 Z M 2.484375 -4.65625 "/></g></g></g><g fill="#17191a" fill-opacity="1"><g transform="translate(123.335722, 31.35356)"><g><path d="M 7.109375 0 C 7.015625 -0.1875 6.9375 -0.519531 6.875 -1 C 6.113281 -0.21875 5.210938 0.171875 4.171875 0.171875 C 3.234375 0.171875 2.460938 -0.09375 1.859375 -0.625 C 1.253906 -1.15625 0.953125 -1.828125 0.953125 -2.640625 C 0.953125 -3.628906 1.328125 -4.394531 2.078125 -4.9375 C 2.835938 -5.488281 3.898438 -5.765625 5.265625 -5.765625 L 6.84375 -5.765625 L 6.84375 -6.515625 C 6.84375 -7.078125 6.671875 -7.523438 6.328125 -7.859375 C 5.992188 -8.203125 5.492188 -8.375 4.828125 -8.375 C 4.253906 -8.375 3.769531 -8.226562 3.375 -7.9375 C 2.976562 -7.644531 2.78125 -7.289062 2.78125 -6.875 L 1.15625 -6.875 C 1.15625 -7.34375 1.320312 -7.796875 1.65625 -8.234375 C 1.988281 -8.679688 2.441406 -9.035156 3.015625 -9.296875 C 3.597656 -9.554688 4.238281 -9.6875 4.9375 -9.6875 C 6.03125 -9.6875 6.882812 -9.410156 7.5 -8.859375 C 8.125 -8.316406 8.445312 -7.5625 8.46875 -6.59375 L 8.46875 -2.21875 C 8.46875 -1.351562 8.582031 -0.660156 8.8125 -0.140625 L 8.8125 0 Z M 4.40625 -1.234375 C 4.914062 -1.234375 5.398438 -1.363281 5.859375 -1.625 C 6.316406 -1.894531 6.644531 -2.238281 6.84375 -2.65625 L 6.84375 -4.609375 L 5.578125 -4.609375 C 3.578125 -4.609375 2.578125 -4.023438 2.578125 -2.859375 C 2.578125 -2.347656 2.75 -1.945312 3.09375 -1.65625 C 3.4375 -1.375 3.875 -1.234375 4.40625 -1.234375 Z M 4.40625 -1.234375 "/></g></g></g><g fill="#17191a" fill-opacity="1"><g transform="translate(133.120362, 31.35356)"><g><path d="M 5.046875 -1.15625 C 5.628906 -1.15625 6.132812 -1.328125 6.5625 -1.671875 C 7 -2.023438 7.238281 -2.46875 7.28125 -3 L 8.828125 -3 C 8.796875 -2.457031 8.609375 -1.9375 8.265625 -1.4375 C 7.921875 -0.945312 7.457031 -0.554688 6.875 -0.265625 C 6.300781 0.0234375 5.691406 0.171875 5.046875 0.171875 C 3.753906 0.171875 2.722656 -0.257812 1.953125 -1.125 C 1.191406 -1.988281 0.8125 -3.171875 0.8125 -4.671875 L 0.8125 -4.9375 C 0.8125 -5.863281 0.976562 -6.6875 1.3125 -7.40625 C 1.65625 -8.125 2.144531 -8.679688 2.78125 -9.078125 C 3.414062 -9.484375 4.164062 -9.6875 5.03125 -9.6875 C 6.101562 -9.6875 6.988281 -9.363281 7.6875 -8.71875 C 8.394531 -8.082031 8.773438 -7.253906 8.828125 -6.234375 L 7.28125 -6.234375 C 7.238281 -6.847656 7.003906 -7.351562 6.578125 -7.75 C 6.160156 -8.144531 5.644531 -8.34375 5.03125 -8.34375 C 4.207031 -8.34375 3.566406 -8.046875 3.109375 -7.453125 C 2.660156 -6.859375 2.4375 -6 2.4375 -4.875 L 2.4375 -4.578125 C 2.4375 -3.472656 2.660156 -2.625 3.109375 -2.03125 C 3.554688 -1.445312 4.203125 -1.15625 5.046875 -1.15625 Z M 4.671875 -12.015625 L 5.984375 -13.5 L 7.390625 -13.5 L 7.390625 -13.421875 L 5.15625 -11.015625 L 4.171875 -11.015625 L 1.953125 -13.421875 L 1.953125 -13.5 L 3.34375 -13.5 Z M 4.671875 -12.015625 "/></g></g></g><g fill="#17191a" fill-opacity="1"><g transform="translate(142.536102, 31.35356)"><g><path d="M 7.109375 0 C 7.015625 -0.1875 6.9375 -0.519531 6.875 -1 C 6.113281 -0.21875 5.210938 0.171875 4.171875 0.171875 C 3.234375 0.171875 2.460938 -0.09375 1.859375 -0.625 C 1.253906 -1.15625 0.953125 -1.828125 0.953125 -2.640625 C 0.953125 -3.628906 1.328125 -4.394531 2.078125 -4.9375 C 2.835938 -5.488281 3.898438 -5.765625 5.265625 -5.765625 L 6.84375 -5.765625 L 6.84375 -6.515625 C 6.84375 -7.078125 6.671875 -7.523438 6.328125 -7.859375 C 5.992188 -8.203125 5.492188 -8.375 4.828125 -8.375 C 4.253906 -8.375 3.769531 -8.226562 3.375 -7.9375 C 2.976562 -7.644531 2.78125 -7.289062 2.78125 -6.875 L 1.15625 -6.875 C 1.15625 -7.34375 1.320312 -7.796875 1.65625 -8.234375 C 1.988281 -8.679688 2.441406 -9.035156 3.015625 -9.296875 C 3.597656 -9.554688 4.238281 -9.6875 4.9375 -9.6875 C 6.03125 -9.6875 6.882812 -9.410156 7.5 -8.859375 C 8.125 -8.316406 8.445312 -7.5625 8.46875 -6.59375 L 8.46875 -2.21875 C 8.46875 -1.351562 8.582031 -0.660156 8.8125 -0.140625 L 8.8125 0 Z M 4.40625 -1.234375 C 4.914062 -1.234375 5.398438 -1.363281 5.859375 -1.625 C 6.316406 -1.894531 6.644531 -2.238281 6.84375 -2.65625 L 6.84375 -4.609375 L 5.578125 -4.609375 C 3.578125 -4.609375 2.578125 -4.023438 2.578125 -2.859375 C 2.578125 -2.347656 2.75 -1.945312 3.09375 -1.65625 C 3.4375 -1.375 3.875 -1.234375 4.40625 -1.234375 Z M 4.40625 -1.234375 "/></g></g></g><g fill="#17191a" fill-opacity="1"><g transform="translate(152.320743, 31.35356)"><g><path d="M 3.890625 -4.40625 L 2.859375 -3.34375 L 2.859375 0 L 1.234375 0 L 1.234375 -13.5 L 2.859375 -13.5 L 2.859375 -5.328125 L 3.734375 -6.375 L 6.703125 -9.515625 L 8.671875 -9.515625 L 4.96875 -5.53125 L 9.109375 0 L 7.203125 0 Z M 3.890625 -4.40625 "/></g></g></g><g fill="#17191a" fill-opacity="1"><g transform="translate(161.437849, 31.35356)"><g/></g></g><g fill="#17191a" fill-opacity="1"><g transform="translate(165.891008, 31.35356)"><g><path d="M 4.375 -2.203125 L 6.71875 -9.515625 L 8.390625 -9.515625 L 4.96875 0 L 3.734375 0 L 0.296875 -9.515625 L 1.953125 -9.515625 Z M 4.375 -2.203125 "/></g></g></g><g fill="#17191a" fill-opacity="1"><g transform="translate(174.604081, 31.35356)"><g><path d="M 5.171875 0.171875 C 3.890625 0.171875 2.84375 -0.25 2.03125 -1.09375 C 1.21875 -1.9375 0.8125 -3.066406 0.8125 -4.484375 L 0.8125 -4.796875 C 0.8125 -5.734375 0.992188 -6.570312 1.359375 -7.3125 C 1.722656 -8.050781 2.226562 -8.628906 2.875 -9.046875 C 3.519531 -9.472656 4.21875 -9.6875 4.96875 -9.6875 C 6.207031 -9.6875 7.171875 -9.28125 7.859375 -8.46875 C 8.546875 -7.65625 8.890625 -6.488281 8.890625 -4.96875 L 8.890625 -4.296875 L 2.4375 -4.296875 C 2.46875 -3.359375 2.742188 -2.597656 3.265625 -2.015625 C 3.785156 -1.441406 4.453125 -1.15625 5.265625 -1.15625 C 5.835938 -1.15625 6.320312 -1.269531 6.71875 -1.5 C 7.125 -1.738281 7.472656 -2.050781 7.765625 -2.4375 L 8.765625 -1.65625 C 7.960938 -0.4375 6.765625 0.171875 5.171875 0.171875 Z M 4.96875 -8.34375 C 4.3125 -8.34375 3.757812 -8.101562 3.3125 -7.625 C 2.875 -7.15625 2.601562 -6.488281 2.5 -5.625 L 7.265625 -5.625 L 7.265625 -5.75 C 7.210938 -6.570312 6.988281 -7.207031 6.59375 -7.65625 C 6.195312 -8.113281 5.65625 -8.34375 4.96875 -8.34375 Z M 4.96875 -8.34375 "/></g></g></g><g fill="#17191a" fill-opacity="1"><g transform="translate(184.134011, 31.35356)"><g><path d="M 3.890625 -4.40625 L 2.859375 -3.34375 L 2.859375 0 L 1.234375 0 L 1.234375 -13.5 L 2.859375 -13.5 L 2.859375 -5.328125 L 3.734375 -6.375 L 6.703125 -9.515625 L 8.671875 -9.515625 L 4.96875 -5.53125 L 9.109375 0 L 7.203125 0 Z M 3.890625 -4.40625 "/></g></g></g><g fill="#17191a" fill-opacity="1"><g transform="translate(193.251106, 31.35356)"><g><path d="M 3.4375 -11.8125 L 3.4375 -9.515625 L 5.21875 -9.515625 L 5.21875 -8.25 L 3.4375 -8.25 L 3.4375 -2.359375 C 3.4375 -1.972656 3.515625 -1.6875 3.671875 -1.5 C 3.828125 -1.3125 4.097656 -1.21875 4.484375 -1.21875 C 4.671875 -1.21875 4.925781 -1.25 5.25 -1.3125 L 5.25 0 C 4.820312 0.113281 4.410156 0.171875 4.015625 0.171875 C 3.285156 0.171875 2.734375 -0.046875 2.359375 -0.484375 C 1.992188 -0.921875 1.8125 -1.546875 1.8125 -2.359375 L 1.8125 -8.25 L 0.078125 -8.25 L 0.078125 -9.515625 L 1.8125 -9.515625 L 1.8125 -11.8125 Z M 3.4375 -11.8125 "/></g></g></g><g fill="#17191a" fill-opacity="1"><g transform="translate(199.127166, 31.35356)"><g><path d="M 0.796875 -4.84375 C 0.796875 -5.769531 0.976562 -6.601562 1.34375 -7.34375 C 1.71875 -8.09375 2.226562 -8.671875 2.875 -9.078125 C 3.53125 -9.484375 4.273438 -9.6875 5.109375 -9.6875 C 6.410156 -9.6875 7.457031 -9.238281 8.25 -8.34375 C 9.050781 -7.445312 9.453125 -6.253906 9.453125 -4.765625 L 9.453125 -4.65625 C 9.453125 -3.726562 9.273438 -2.894531 8.921875 -2.15625 C 8.566406 -1.425781 8.0625 -0.851562 7.40625 -0.4375 C 6.75 -0.03125 5.992188 0.171875 5.140625 0.171875 C 3.847656 0.171875 2.800781 -0.273438 2 -1.171875 C 1.195312 -2.066406 0.796875 -3.253906 0.796875 -4.734375 Z M 2.4375 -4.65625 C 2.4375 -3.59375 2.679688 -2.742188 3.171875 -2.109375 C 3.660156 -1.472656 4.316406 -1.15625 5.140625 -1.15625 C 5.960938 -1.15625 6.613281 -1.476562 7.09375 -2.125 C 7.582031 -2.769531 7.828125 -3.675781 7.828125 -4.84375 C 7.828125 -5.882812 7.578125 -6.726562 7.078125 -7.375 C 6.585938 -8.019531 5.929688 -8.34375 5.109375 -8.34375 C 4.304688 -8.34375 3.660156 -8.023438 3.171875 -7.390625 C 2.679688 -6.753906 2.4375 -5.84375 2.4375 -4.65625 Z M 2.4375 -4.65625 "/></g></g></g><g fill="#17191a" fill-opacity="1"><g transform="translate(209.386107, 31.35356)"><g><path d="M 5.828125 -8.046875 C 5.578125 -8.085938 5.3125 -8.109375 5.03125 -8.109375 C 3.957031 -8.109375 3.234375 -7.65625 2.859375 -6.75 L 2.859375 0 L 1.234375 0 L 1.234375 -9.515625 L 2.8125 -9.515625 L 2.84375 -8.40625 C 3.375 -9.257812 4.128906 -9.6875 5.109375 -9.6875 C 5.421875 -9.6875 5.660156 -9.644531 5.828125 -9.5625 Z M 5.828125 -8.046875 "/></g></g></g></svg>