<svg xmlns="http://www.w3.org/2000/svg" xmlns:xlink="http://www.w3.org/1999/xlink" width="500" zoomAndPan="magnify" viewBox="0 0 375 74.999997" height="100" preserveAspectRatio="xMidYMid meet" version="1.0"><defs><clipPath id="93ab32745d"><path d="M 138 31 L 139 31 L 139 52.5 L 138 52.5 Z M 138 31 " clip-rule="nonzero"/></clipPath><clipPath id="0181680f25"><path d="M 153 22.5 L 172 22.5 L 172 34 L 153 34 Z M 153 22.5 " clip-rule="nonzero"/></clipPath><clipPath id="ec9a358e7a"><path d="M 174 31 L 176 31 L 176 52.5 L 174 52.5 Z M 174 31 " clip-rule="nonzero"/></clipPath><clipPath id="eb50d8b76b"><path d="M 230 33 L 239.25 33 L 239.25 48 L 230 48 Z M 230 33 " clip-rule="nonzero"/></clipPath></defs><g clip-path="url(#93ab32745d)"><path fill="#a8180f" d="M 138.96875 32.605469 C 138.96875 32.242188 138.96875 31.878906 138.5625 31.878906 C 138.15625 31.878906 138.15625 32.242188 138.15625 32.605469 L 138.15625 51.386719 C 138.15625 51.75 138.15625 52.117188 138.5625 52.117188 C 138.96875 52.117188 138.96875 51.75 138.96875 51.386719 Z M 138.96875 32.605469 " fill-opacity="1" fill-rule="nonzero"/></g><path fill="#a8180f" d="M 154.707031 28.570312 C 155.050781 28.570312 155.417969 28.570312 155.417969 28.167969 C 155.417969 27.761719 155.050781 27.761719 154.707031 27.761719 L 143.757812 27.761719 C 143.414062 27.761719 143.050781 27.761719 143.050781 28.167969 C 143.050781 28.570312 143.414062 28.570312 143.757812 28.570312 Z M 154.707031 28.570312 " fill-opacity="1" fill-rule="nonzero"/><g clip-path="url(#0181680f25)"><path fill="#a8180f" d="M 168.941406 28.570312 C 167.832031 29.421875 167.285156 30.25 167.121094 30.515625 C 166.210938 31.910156 166.050781 33.183594 166.050781 33.207031 C 166.050781 33.449219 166.292969 33.449219 166.453125 33.449219 C 166.796875 33.449219 166.816406 33.40625 166.898438 33.042969 C 167.363281 31.058594 168.558594 29.359375 170.84375 28.429688 C 171.089844 28.347656 171.148438 28.308594 171.148438 28.167969 C 171.148438 28.023438 171.027344 27.964844 170.988281 27.945312 C 170.097656 27.601562 167.648438 26.585938 166.878906 23.1875 C 166.816406 22.945312 166.796875 22.882812 166.453125 22.882812 C 166.292969 22.882812 166.050781 22.882812 166.050781 23.128906 C 166.050781 23.167969 166.230469 24.441406 167.082031 25.796875 C 167.484375 26.40625 168.074219 27.113281 168.941406 27.761719 L 153.90625 27.761719 C 153.542969 27.761719 153.179688 27.761719 153.179688 28.167969 C 153.179688 28.570312 153.542969 28.570312 153.90625 28.570312 Z M 168.941406 28.570312 " fill-opacity="1" fill-rule="nonzero"/></g><path fill="#a8180f" d="M 144.8125 44.808594 C 144.101562 46.003906 143.414062 46.410156 142.445312 46.46875 C 142.222656 46.488281 142.058594 46.488281 142.058594 46.855469 C 142.058594 46.976562 142.160156 47.054688 142.300781 47.054688 C 142.667969 47.054688 143.578125 47.015625 143.941406 47.015625 C 144.527344 47.015625 145.175781 47.054688 145.742188 47.054688 C 145.863281 47.054688 146.105469 47.054688 146.105469 46.671875 C 146.105469 46.488281 145.945312 46.46875 145.824219 46.46875 C 145.359375 46.429688 144.972656 46.265625 144.972656 45.78125 C 144.972656 45.496094 145.09375 45.273438 145.359375 44.828125 L 146.894531 42.28125 L 152.058594 42.28125 C 152.078125 42.460938 152.078125 42.625 152.097656 42.804688 C 152.15625 43.332031 152.402344 45.4375 152.402344 45.820312 C 152.402344 46.429688 151.367188 46.46875 151.046875 46.46875 C 150.824219 46.46875 150.601562 46.46875 150.601562 46.832031 C 150.601562 47.054688 150.78125 47.054688 150.902344 47.054688 C 151.246094 47.054688 151.652344 47.015625 151.996094 47.015625 L 153.148438 47.015625 C 154.382812 47.015625 155.273438 47.054688 155.296875 47.054688 C 155.4375 47.054688 155.660156 47.054688 155.660156 46.671875 C 155.660156 46.46875 155.476562 46.46875 155.171875 46.46875 C 154.058594 46.46875 154.039062 46.289062 153.980469 45.679688 L 152.746094 33.050781 C 152.703125 32.648438 152.625 32.605469 152.402344 32.605469 C 152.199219 32.605469 152.078125 32.648438 151.894531 32.949219 Z M 147.242188 41.691406 L 151.308594 34.894531 L 151.996094 41.691406 Z M 147.242188 41.691406 " fill-opacity="1" fill-rule="nonzero"/><path fill="#a8180f" d="M 163.632812 34.609375 C 163.816406 33.859375 163.898438 33.820312 164.6875 33.820312 L 167.316406 33.820312 C 169.605469 33.820312 169.605469 35.761719 169.605469 35.945312 C 169.605469 37.585938 167.964844 39.667969 165.292969 39.667969 L 162.378906 39.667969 Z M 167.054688 39.832031 C 169.261719 39.425781 171.265625 37.886719 171.265625 36.027344 C 171.265625 34.449219 169.867188 33.234375 167.582031 33.234375 L 161.085938 33.234375 C 160.699219 33.234375 160.519531 33.234375 160.519531 33.617188 C 160.519531 33.820312 160.699219 33.820312 161.003906 33.820312 C 162.238281 33.820312 162.238281 33.984375 162.238281 34.207031 C 162.238281 34.246094 162.238281 34.367188 162.15625 34.671875 L 159.425781 45.558594 C 159.242188 46.265625 159.203125 46.46875 157.785156 46.46875 C 157.402344 46.46875 157.199219 46.46875 157.199219 46.832031 C 157.199219 47.054688 157.320312 47.054688 157.726562 47.054688 L 164.667969 47.054688 C 167.761719 47.054688 170.152344 44.707031 170.152344 42.664062 C 170.152344 41.003906 168.695312 39.992188 167.054688 39.832031 Z M 164.179688 46.46875 L 161.449219 46.46875 C 161.164062 46.46875 161.125 46.46875 161.003906 46.449219 C 160.78125 46.429688 160.761719 46.386719 160.761719 46.226562 C 160.761719 46.085938 160.800781 45.964844 160.839844 45.78125 L 162.257812 40.074219 L 166.0625 40.074219 C 168.453125 40.074219 168.453125 42.300781 168.453125 42.460938 C 168.453125 44.40625 166.691406 46.46875 164.179688 46.46875 Z M 164.179688 46.46875 " fill-opacity="1" fill-rule="nonzero"/><g clip-path="url(#ec9a358e7a)"><path fill="#a8180f" d="M 175.519531 32.605469 C 175.519531 32.242188 175.519531 31.878906 175.117188 31.878906 C 174.710938 31.878906 174.710938 32.242188 174.710938 32.605469 L 174.710938 51.386719 C 174.710938 51.75 174.710938 52.117188 175.117188 52.117188 C 175.519531 52.117188 175.519531 51.75 175.519531 51.386719 Z M 175.519531 32.605469 " fill-opacity="1" fill-rule="nonzero"/></g><path fill="#a8180f" d="M 197.207031 40.5 C 197.488281 40.5 197.851562 40.5 197.851562 40.136719 C 197.851562 39.75 197.507812 39.75 197.207031 39.75 L 185.285156 39.75 C 185 39.75 184.636719 39.75 184.636719 40.113281 C 184.636719 40.5 184.980469 40.5 185.285156 40.5 Z M 197.207031 44.261719 C 197.488281 44.261719 197.851562 44.261719 197.851562 43.898438 C 197.851562 43.515625 197.507812 43.515625 197.207031 43.515625 L 185.285156 43.515625 C 185 43.515625 184.636719 43.515625 184.636719 43.878906 C 184.636719 44.261719 184.980469 44.261719 185.285156 44.261719 Z M 197.207031 44.261719 " fill-opacity="1" fill-rule="nonzero"/><path fill="#a8180f" d="M 213.484375 43.65625 L 213.039062 43.65625 C 212.976562 44 212.816406 45.113281 212.613281 45.4375 C 212.472656 45.621094 211.320312 45.621094 210.710938 45.621094 L 206.96875 45.621094 C 207.515625 45.152344 208.75 43.859375 209.273438 43.371094 C 212.351562 40.539062 213.484375 39.488281 213.484375 37.484375 C 213.484375 35.15625 211.640625 33.597656 209.292969 33.597656 C 206.949219 33.597656 205.570312 35.601562 205.570312 37.34375 C 205.570312 38.375 206.460938 38.375 206.523438 38.375 C 206.949219 38.375 207.472656 38.070312 207.472656 37.421875 C 207.472656 36.855469 207.089844 36.472656 206.523438 36.472656 C 206.339844 36.472656 206.300781 36.472656 206.238281 36.492188 C 206.625 35.117188 207.714844 34.183594 209.03125 34.183594 C 210.753906 34.183594 211.804688 35.621094 211.804688 37.484375 C 211.804688 39.203125 210.8125 40.703125 209.660156 41.996094 L 205.570312 46.570312 L 205.570312 47.054688 L 212.957031 47.054688 Z M 213.484375 43.65625 " fill-opacity="1" fill-rule="nonzero"/><path fill="#a8180f" d="M 218.210938 46.085938 C 218.210938 45.496094 217.726562 45.09375 217.238281 45.09375 C 216.652344 45.09375 216.25 45.578125 216.25 46.066406 C 216.25 46.652344 216.734375 47.054688 217.21875 47.054688 C 217.804688 47.054688 218.210938 46.570312 218.210938 46.085938 Z M 218.210938 46.085938 " fill-opacity="1" fill-rule="nonzero"/><path fill="#a8180f" d="M 228.898438 43.65625 L 228.453125 43.65625 C 228.390625 44 228.230469 45.113281 228.027344 45.4375 C 227.886719 45.621094 226.730469 45.621094 226.125 45.621094 L 222.378906 45.621094 C 222.925781 45.152344 224.160156 43.859375 224.6875 43.371094 C 227.765625 40.539062 228.898438 39.488281 228.898438 37.484375 C 228.898438 35.15625 227.054688 33.597656 224.707031 33.597656 C 222.359375 33.597656 220.984375 35.601562 220.984375 37.34375 C 220.984375 38.375 221.875 38.375 221.933594 38.375 C 222.359375 38.375 222.886719 38.070312 222.886719 37.421875 C 222.886719 36.855469 222.503906 36.472656 221.933594 36.472656 C 221.753906 36.472656 221.710938 36.472656 221.652344 36.492188 C 222.035156 35.117188 223.128906 34.183594 224.445312 34.183594 C 226.164062 34.183594 227.21875 35.621094 227.21875 37.484375 C 227.21875 39.203125 226.226562 40.703125 225.070312 41.996094 L 220.984375 46.570312 L 220.984375 47.054688 L 228.371094 47.054688 Z M 228.898438 43.65625 " fill-opacity="1" fill-rule="nonzero"/><g clip-path="url(#eb50d8b76b)"><path fill="#a8180f" d="M 237.207031 33.882812 C 237.207031 33.496094 237.207031 33.394531 236.921875 33.394531 C 236.761719 33.394531 236.699219 33.394531 236.539062 33.636719 L 230.445312 43.089844 L 230.445312 43.675781 L 235.769531 43.675781 L 235.769531 45.519531 C 235.769531 46.265625 235.730469 46.46875 234.25 46.46875 L 233.847656 46.46875 L 233.847656 47.054688 C 234.3125 47.015625 235.910156 47.015625 236.476562 47.015625 C 237.042969 47.015625 238.664062 47.015625 239.128906 47.054688 L 239.128906 46.46875 L 238.722656 46.46875 C 237.265625 46.46875 237.207031 46.265625 237.207031 45.519531 L 237.207031 43.675781 L 239.25 43.675781 L 239.25 43.089844 L 237.207031 43.089844 Z M 235.871094 35.460938 L 235.871094 43.089844 L 230.953125 43.089844 Z M 235.871094 35.460938 " fill-opacity="1" fill-rule="nonzero"/></g></svg>