<svg xmlns="http://www.w3.org/2000/svg" xmlns:xlink="http://www.w3.org/1999/xlink" width="500" zoomAndPan="magnify" viewBox="0 0 375 74.999997" height="100" preserveAspectRatio="xMidYMid meet" version="1.0"><defs><g/><clipPath id="7b80bb3ba7"><path d="M 103 37.5 L 121 37.5 L 121 48 L 103 48 Z M 103 37.5 " clip-rule="nonzero"/></clipPath><clipPath id="24748ff53b"><path d="M 324 46 L 329.417969 46 L 329.417969 66 L 324 66 Z M 324 46 " clip-rule="nonzero"/></clipPath></defs><path fill="#17191a" d="M 50.539062 43.238281 C 50.871094 43.238281 51.222656 43.238281 51.222656 42.851562 C 51.222656 42.464844 50.871094 42.464844 50.539062 42.464844 L 39.972656 42.464844 C 39.640625 42.464844 39.289062 42.464844 39.289062 42.851562 C 39.289062 43.238281 39.640625 43.238281 39.972656 43.238281 Z M 50.539062 43.238281 " fill-opacity="1" fill-rule="nonzero"/><path fill="#17191a" d="M 61.078125 43.238281 C 61.410156 43.238281 61.761719 43.238281 61.761719 42.851562 C 61.761719 42.464844 61.410156 42.464844 61.078125 42.464844 L 50.511719 42.464844 C 50.179688 42.464844 49.828125 42.464844 49.828125 42.851562 C 49.828125 43.238281 50.179688 43.238281 50.511719 43.238281 Z M 61.078125 43.238281 " fill-opacity="1" fill-rule="nonzero"/><path fill="#17191a" d="M 71.929688 43.238281 C 72.261719 43.238281 72.613281 43.238281 72.613281 42.851562 C 72.613281 42.464844 72.261719 42.464844 71.929688 42.464844 L 61.363281 42.464844 C 61.03125 42.464844 60.679688 42.464844 60.679688 42.851562 C 60.679688 43.238281 61.03125 43.238281 61.363281 43.238281 Z M 71.929688 43.238281 " fill-opacity="1" fill-rule="nonzero"/><path fill="#17191a" d="M 82.78125 43.238281 C 83.113281 43.238281 83.464844 43.238281 83.464844 42.851562 C 83.464844 42.464844 83.113281 42.464844 82.78125 42.464844 L 72.210938 42.464844 C 71.878906 42.464844 71.527344 42.464844 71.527344 42.851562 C 71.527344 43.238281 71.878906 43.238281 72.210938 43.238281 Z M 82.78125 43.238281 " fill-opacity="1" fill-rule="nonzero"/><path fill="#17191a" d="M 93.632812 43.238281 C 93.964844 43.238281 94.316406 43.238281 94.316406 42.851562 C 94.316406 42.464844 93.964844 42.464844 93.632812 42.464844 L 83.0625 42.464844 C 82.730469 42.464844 82.378906 42.464844 82.378906 42.851562 C 82.378906 43.238281 82.730469 43.238281 83.0625 43.238281 Z M 93.632812 43.238281 " fill-opacity="1" fill-rule="nonzero"/><path fill="#17191a" d="M 104.484375 43.238281 C 104.816406 43.238281 105.167969 43.238281 105.167969 42.851562 C 105.167969 42.464844 104.816406 42.464844 104.484375 42.464844 L 93.917969 42.464844 C 93.585938 42.464844 93.234375 42.464844 93.234375 42.851562 C 93.234375 43.238281 93.585938 43.238281 93.917969 43.238281 Z M 104.484375 43.238281 " fill-opacity="1" fill-rule="nonzero"/><g clip-path="url(#7b80bb3ba7)"><path fill="#17191a" d="M 118.4375 43.238281 C 117.363281 44.046875 116.835938 44.835938 116.679688 45.085938 C 115.800781 46.417969 115.644531 47.632812 115.644531 47.652344 C 115.644531 47.882812 115.878906 47.882812 116.035156 47.882812 C 116.367188 47.882812 116.386719 47.84375 116.464844 47.496094 C 116.914062 45.609375 118.066406 43.988281 120.273438 43.101562 C 120.507812 43.023438 120.566406 42.988281 120.566406 42.851562 C 120.566406 42.714844 120.449219 42.660156 120.410156 42.640625 C 119.550781 42.3125 117.1875 41.347656 116.445312 38.109375 C 116.386719 37.878906 116.367188 37.820312 116.035156 37.820312 C 115.878906 37.820312 115.644531 37.820312 115.644531 38.050781 C 115.644531 38.089844 115.820312 39.304688 116.640625 40.597656 C 117.03125 41.175781 117.597656 41.847656 118.4375 42.464844 L 103.925781 42.464844 C 103.574219 42.464844 103.222656 42.464844 103.222656 42.851562 C 103.222656 43.238281 103.574219 43.238281 103.925781 43.238281 Z M 118.4375 43.238281 " fill-opacity="1" fill-rule="nonzero"/></g><path fill="#17191a" d="M 40.988281 58.703125 C 40.304688 59.839844 39.640625 60.226562 38.703125 60.28125 C 38.488281 60.300781 38.332031 60.300781 38.332031 60.648438 C 38.332031 60.765625 38.429688 60.839844 38.566406 60.839844 C 38.917969 60.839844 39.796875 60.804688 40.148438 60.804688 C 40.714844 60.804688 41.339844 60.839844 41.886719 60.839844 C 42.003906 60.839844 42.238281 60.839844 42.238281 60.476562 C 42.238281 60.300781 42.082031 60.28125 41.964844 60.28125 C 41.515625 60.246094 41.144531 60.089844 41.144531 59.628906 C 41.144531 59.359375 41.261719 59.144531 41.515625 58.722656 L 43 56.292969 L 47.980469 56.292969 C 48 56.464844 48 56.621094 48.019531 56.792969 C 48.078125 57.296875 48.3125 59.300781 48.3125 59.667969 C 48.3125 60.246094 47.316406 60.28125 47.003906 60.28125 C 46.789062 60.28125 46.574219 60.28125 46.574219 60.628906 C 46.574219 60.839844 46.75 60.839844 46.867188 60.839844 C 47.199219 60.839844 47.589844 60.804688 47.921875 60.804688 L 49.035156 60.804688 C 50.226562 60.804688 51.085938 60.839844 51.105469 60.839844 C 51.242188 60.839844 51.457031 60.839844 51.457031 60.476562 C 51.457031 60.28125 51.28125 60.28125 50.988281 60.28125 C 49.914062 60.28125 49.894531 60.109375 49.835938 59.53125 L 48.644531 47.503906 C 48.605469 47.117188 48.527344 47.082031 48.3125 47.082031 C 48.117188 47.082031 48 47.117188 47.824219 47.40625 Z M 43.332031 55.734375 L 47.257812 49.257812 L 47.921875 55.734375 Z M 43.332031 55.734375 " fill-opacity="1" fill-rule="nonzero"/><path fill="#17191a" d="M 59.15625 48.988281 C 59.332031 48.273438 59.410156 48.238281 60.171875 48.238281 L 62.710938 48.238281 C 64.917969 48.238281 64.917969 50.085938 64.917969 50.261719 C 64.917969 51.820312 63.335938 53.808594 60.757812 53.808594 L 57.945312 53.808594 Z M 62.457031 53.960938 C 64.585938 53.574219 66.519531 52.109375 66.519531 50.335938 C 66.519531 48.835938 65.171875 47.675781 62.964844 47.675781 L 56.695312 47.675781 C 56.324219 47.675781 56.148438 47.675781 56.148438 48.042969 C 56.148438 48.238281 56.324219 48.238281 56.617188 48.238281 C 57.808594 48.238281 57.808594 48.390625 57.808594 48.601562 C 57.808594 48.640625 57.808594 48.757812 57.730469 49.046875 L 55.09375 59.414062 C 54.917969 60.089844 54.878906 60.28125 53.511719 60.28125 C 53.140625 60.28125 52.945312 60.28125 52.945312 60.628906 C 52.945312 60.839844 53.0625 60.839844 53.453125 60.839844 L 60.152344 60.839844 C 63.140625 60.839844 65.445312 58.605469 65.445312 56.660156 C 65.445312 55.078125 64.039062 54.113281 62.457031 53.960938 Z M 59.683594 60.28125 L 57.046875 60.28125 C 56.773438 60.28125 56.734375 60.28125 56.617188 60.261719 C 56.402344 60.246094 56.382812 60.207031 56.382812 60.050781 C 56.382812 59.917969 56.421875 59.800781 56.460938 59.628906 L 57.828125 54.191406 L 61.5 54.191406 C 63.804688 54.191406 63.804688 56.3125 63.804688 56.464844 C 63.804688 58.316406 62.105469 60.28125 59.683594 60.28125 Z M 59.683594 60.28125 " fill-opacity="1" fill-rule="nonzero"/><path fill="#17191a" d="M 79.65625 56.390625 L 85.046875 56.390625 C 85.320312 56.390625 85.671875 56.390625 85.671875 56.042969 C 85.671875 55.675781 85.339844 55.675781 85.046875 55.675781 L 79.65625 55.675781 L 79.65625 50.355469 C 79.65625 50.085938 79.65625 49.738281 79.304688 49.738281 C 78.933594 49.738281 78.933594 50.066406 78.933594 50.355469 L 78.933594 55.675781 L 73.542969 55.675781 C 73.269531 55.675781 72.917969 55.675781 72.917969 56.023438 C 72.917969 56.390625 73.25 56.390625 73.542969 56.390625 L 78.933594 56.390625 L 78.933594 61.710938 C 78.933594 61.980469 78.933594 62.324219 79.285156 62.324219 C 79.65625 62.324219 79.65625 62 79.65625 61.710938 Z M 79.65625 56.390625 " fill-opacity="1" fill-rule="nonzero"/><path fill="#17191a" d="M 98.226562 48.988281 C 98.402344 48.273438 98.480469 48.238281 99.242188 48.238281 L 101.78125 48.238281 C 103.988281 48.238281 103.988281 50.085938 103.988281 50.261719 C 103.988281 51.820312 102.40625 53.808594 99.828125 53.808594 L 97.015625 53.808594 Z M 101.527344 53.960938 C 103.65625 53.574219 105.59375 52.109375 105.59375 50.335938 C 105.59375 48.835938 104.246094 47.675781 102.035156 47.675781 L 95.765625 47.675781 C 95.394531 47.675781 95.21875 47.675781 95.21875 48.042969 C 95.21875 48.238281 95.394531 48.238281 95.6875 48.238281 C 96.878906 48.238281 96.878906 48.390625 96.878906 48.601562 C 96.878906 48.640625 96.878906 48.757812 96.800781 49.046875 L 94.164062 59.414062 C 93.988281 60.089844 93.949219 60.28125 92.582031 60.28125 C 92.210938 60.28125 92.015625 60.28125 92.015625 60.628906 C 92.015625 60.839844 92.132812 60.839844 92.523438 60.839844 L 99.222656 60.839844 C 102.210938 60.839844 104.519531 58.605469 104.519531 56.660156 C 104.519531 55.078125 103.109375 54.113281 101.527344 53.960938 Z M 98.753906 60.28125 L 96.117188 60.28125 C 95.84375 60.28125 95.804688 60.28125 95.6875 60.261719 C 95.472656 60.246094 95.453125 60.207031 95.453125 60.050781 C 95.453125 59.917969 95.492188 59.800781 95.53125 59.628906 L 96.898438 54.191406 L 100.570312 54.191406 C 102.875 54.191406 102.875 56.3125 102.875 56.464844 C 102.875 58.316406 101.175781 60.28125 98.753906 60.28125 Z M 98.753906 60.28125 " fill-opacity="1" fill-rule="nonzero"/><path fill="#17191a" d="M 121.183594 47.445312 C 121.183594 47.273438 121.046875 47.273438 121.007812 47.273438 C 120.96875 47.273438 120.890625 47.273438 120.734375 47.464844 L 119.386719 49.085938 C 118.703125 47.929688 117.628906 47.273438 116.164062 47.273438 C 111.945312 47.273438 107.570312 51.492188 107.570312 56.023438 C 107.570312 59.242188 109.855469 61.246094 112.707031 61.246094 C 114.269531 61.246094 115.636719 60.589844 116.769531 59.648438 C 118.46875 58.238281 118.976562 56.371094 118.976562 56.214844 C 118.976562 56.042969 118.820312 56.042969 118.761719 56.042969 C 118.585938 56.042969 118.566406 56.15625 118.527344 56.234375 C 117.628906 59.242188 114.992188 60.6875 113.039062 60.6875 C 110.96875 60.6875 109.171875 59.378906 109.171875 56.640625 C 109.171875 56.023438 109.367188 52.667969 111.574219 50.144531 C 112.648438 48.910156 114.484375 47.832031 116.339844 47.832031 C 118.488281 47.832031 119.445312 49.585938 119.445312 51.550781 C 119.445312 52.054688 119.386719 52.476562 119.386719 52.554688 C 119.386719 52.726562 119.582031 52.726562 119.640625 52.726562 C 119.855469 52.726562 119.875 52.707031 119.953125 52.359375 Z M 121.183594 47.445312 " fill-opacity="1" fill-rule="nonzero"/><path fill="#17191a" d="M 126.132812 56.175781 C 126.132812 55.039062 126.601562 53.34375 128.574219 51.898438 C 129.125 51.492188 129.632812 50.894531 129.632812 49.894531 C 129.632812 48.71875 128.808594 47.273438 125.996094 47.273438 C 123.886719 47.273438 122.734375 48.621094 122.734375 49.855469 C 122.734375 50.550781 123.261719 50.703125 123.554688 50.703125 C 123.886719 50.703125 124.355469 50.472656 124.355469 49.894531 C 124.355469 49.449219 124.023438 49.105469 123.535156 49.105469 C 123.417969 49.105469 123.378906 49.105469 123.339844 49.125 C 123.769531 48.121094 124.902344 47.660156 125.9375 47.660156 C 128.144531 47.660156 128.144531 49.066406 128.144531 49.796875 C 128.144531 50.933594 127.792969 51.300781 127.460938 51.648438 C 126.132812 53.054688 125.703125 54.847656 125.703125 56.023438 L 125.703125 56.949219 C 125.703125 57.296875 125.703125 57.371094 125.917969 57.371094 C 126.132812 57.371094 126.132812 57.238281 126.132812 56.890625 Z M 126.855469 59.898438 C 126.855469 59.394531 126.425781 58.972656 125.917969 58.972656 C 125.332031 58.972656 124.960938 59.433594 124.960938 59.898438 C 124.960938 60.476562 125.429688 60.839844 125.898438 60.839844 C 126.445312 60.839844 126.855469 60.417969 126.855469 59.898438 Z M 126.855469 59.898438 " fill-opacity="1" fill-rule="nonzero"/><path fill="#17191a" d="M 144.882812 58.703125 C 144.199219 59.839844 143.535156 60.226562 142.597656 60.28125 C 142.382812 60.300781 142.226562 60.300781 142.226562 60.648438 C 142.226562 60.765625 142.324219 60.839844 142.460938 60.839844 C 142.8125 60.839844 143.691406 60.804688 144.042969 60.804688 C 144.609375 60.804688 145.234375 60.839844 145.78125 60.839844 C 145.898438 60.839844 146.132812 60.839844 146.132812 60.476562 C 146.132812 60.300781 145.976562 60.28125 145.859375 60.28125 C 145.410156 60.246094 145.039062 60.089844 145.039062 59.628906 C 145.039062 59.359375 145.15625 59.144531 145.410156 58.722656 L 146.894531 56.292969 L 151.875 56.292969 C 151.894531 56.464844 151.894531 56.621094 151.914062 56.792969 C 151.972656 57.296875 152.207031 59.300781 152.207031 59.667969 C 152.207031 60.246094 151.210938 60.28125 150.898438 60.28125 C 150.683594 60.28125 150.46875 60.28125 150.46875 60.628906 C 150.46875 60.839844 150.644531 60.839844 150.761719 60.839844 C 151.09375 60.839844 151.484375 60.804688 151.816406 60.804688 L 152.929688 60.804688 C 154.125 60.804688 154.984375 60.839844 155.003906 60.839844 C 155.140625 60.839844 155.355469 60.839844 155.355469 60.476562 C 155.355469 60.28125 155.179688 60.28125 154.886719 60.28125 C 153.8125 60.28125 153.792969 60.109375 153.734375 59.53125 L 152.539062 47.503906 C 152.5 47.117188 152.421875 47.082031 152.207031 47.082031 C 152.011719 47.082031 151.894531 47.117188 151.71875 47.40625 Z M 147.226562 55.734375 L 151.152344 49.257812 L 151.816406 55.734375 Z M 147.226562 55.734375 " fill-opacity="1" fill-rule="nonzero"/><path fill="#17191a" d="M 162.25 65.527344 C 162.25 65.46875 162.25 65.429688 161.917969 65.101562 C 159.964844 63.15625 158.871094 59.972656 158.871094 56.042969 C 158.871094 52.304688 159.789062 49.085938 162.054688 46.808594 C 162.25 46.636719 162.25 46.597656 162.25 46.539062 C 162.25 46.425781 162.152344 46.386719 162.074219 46.386719 C 161.820312 46.386719 160.21875 47.773438 159.261719 49.664062 C 158.265625 51.609375 157.816406 53.671875 157.816406 56.042969 C 157.816406 57.757812 158.089844 60.050781 159.105469 62.113281 C 160.257812 64.425781 161.859375 65.679688 162.074219 65.679688 C 162.152344 65.679688 162.25 65.640625 162.25 65.527344 Z M 162.25 65.527344 " fill-opacity="1" fill-rule="nonzero"/><path fill="#17191a" d="M 171.933594 57.605469 L 171.503906 57.605469 C 171.445312 57.929688 171.289062 58.992188 171.09375 59.300781 C 170.957031 59.472656 169.84375 59.472656 169.257812 59.472656 L 165.644531 59.472656 C 166.171875 59.03125 167.363281 57.796875 167.871094 57.332031 C 170.839844 54.636719 171.933594 53.632812 171.933594 51.726562 C 171.933594 49.507812 170.15625 48.023438 167.890625 48.023438 C 165.625 48.023438 164.296875 49.933594 164.296875 51.589844 C 164.296875 52.574219 165.15625 52.574219 165.214844 52.574219 C 165.625 52.574219 166.132812 52.285156 166.132812 51.667969 C 166.132812 51.128906 165.761719 50.761719 165.214844 50.761719 C 165.039062 50.761719 165 50.761719 164.941406 50.78125 C 165.3125 49.46875 166.367188 48.582031 167.636719 48.582031 C 169.296875 48.582031 170.3125 49.953125 170.3125 51.726562 C 170.3125 53.363281 169.355469 54.789062 168.242188 56.023438 L 164.296875 60.378906 L 164.296875 60.839844 L 171.425781 60.839844 Z M 171.933594 57.605469 " fill-opacity="1" fill-rule="nonzero"/><path fill="#17191a" d="M 176.710938 60.917969 C 176.710938 59.800781 176.339844 58.972656 175.539062 58.972656 C 174.914062 58.972656 174.601562 59.472656 174.601562 59.898438 C 174.601562 60.320312 174.894531 60.839844 175.558594 60.839844 C 175.8125 60.839844 176.027344 60.765625 176.203125 60.589844 C 176.242188 60.550781 176.261719 60.550781 176.28125 60.550781 C 176.320312 60.550781 176.320312 60.824219 176.320312 60.917969 C 176.320312 61.554688 176.203125 62.808594 175.070312 64.0625 C 174.855469 64.292969 174.855469 64.332031 174.855469 64.367188 C 174.855469 64.464844 174.953125 64.5625 175.050781 64.5625 C 175.207031 64.5625 176.710938 63.136719 176.710938 60.917969 Z M 176.710938 60.917969 " fill-opacity="1" fill-rule="nonzero"/><path fill="#17191a" d="M 190.222656 54.675781 C 190.222656 53.074219 190.125 51.511719 189.421875 50.046875 C 188.621094 48.449219 187.214844 48.023438 186.253906 48.023438 C 185.121094 48.023438 183.734375 48.582031 183.011719 50.183594 C 182.464844 51.398438 182.269531 52.59375 182.269531 54.675781 C 182.269531 56.542969 182.40625 57.949219 183.109375 59.320312 C 183.871094 60.785156 185.21875 61.246094 186.234375 61.246094 C 187.9375 61.246094 188.914062 60.246094 189.480469 59.125 C 190.183594 57.679688 190.222656 55.792969 190.222656 54.675781 Z M 186.234375 60.859375 C 185.609375 60.859375 184.339844 60.515625 183.96875 58.414062 C 183.753906 57.257812 183.753906 55.792969 183.753906 54.441406 C 183.753906 52.863281 183.753906 51.4375 184.066406 50.300781 C 184.398438 49.007812 185.394531 48.410156 186.234375 48.410156 C 186.980469 48.410156 188.113281 48.851562 188.484375 50.511719 C 188.738281 51.609375 188.738281 53.132812 188.738281 54.441406 C 188.738281 55.734375 188.738281 57.199219 188.523438 58.375 C 188.152344 60.496094 186.921875 60.859375 186.234375 60.859375 Z M 186.234375 60.859375 " fill-opacity="1" fill-rule="nonzero"/><path fill="#17191a" d="M 196.542969 56.042969 C 196.542969 54.578125 196.347656 52.1875 195.253906 49.953125 C 194.101562 47.640625 192.5 46.386719 192.285156 46.386719 C 192.207031 46.386719 192.109375 46.425781 192.109375 46.539062 C 192.109375 46.597656 192.109375 46.636719 192.441406 46.964844 C 194.394531 48.910156 195.488281 52.089844 195.488281 56.023438 C 195.488281 59.761719 194.570312 62.980469 192.304688 65.253906 C 192.109375 65.429688 192.109375 65.46875 192.109375 65.527344 C 192.109375 65.640625 192.207031 65.679688 192.285156 65.679688 C 192.539062 65.679688 194.140625 64.292969 195.097656 62.402344 C 196.09375 60.4375 196.542969 58.355469 196.542969 56.042969 Z M 196.542969 56.042969 " fill-opacity="1" fill-rule="nonzero"/><path fill="#17191a" d="M 202.28125 60.917969 C 202.28125 59.800781 201.910156 58.972656 201.109375 58.972656 C 200.480469 58.972656 200.167969 59.472656 200.167969 59.898438 C 200.167969 60.320312 200.460938 60.839844 201.128906 60.839844 C 201.382812 60.839844 201.597656 60.765625 201.773438 60.589844 C 201.8125 60.550781 201.832031 60.550781 201.851562 60.550781 C 201.890625 60.550781 201.890625 60.824219 201.890625 60.917969 C 201.890625 61.554688 201.773438 62.808594 200.636719 64.0625 C 200.421875 64.292969 200.421875 64.332031 200.421875 64.367188 C 200.421875 64.464844 200.519531 64.5625 200.617188 64.5625 C 200.777344 64.5625 202.28125 63.136719 202.28125 60.917969 Z M 202.28125 60.917969 " fill-opacity="1" fill-rule="nonzero"/><path fill="#17191a" d="M 214.1875 48.988281 C 214.363281 48.273438 214.441406 48.238281 215.203125 48.238281 L 217.742188 48.238281 C 219.949219 48.238281 219.949219 50.085938 219.949219 50.261719 C 219.949219 51.820312 218.367188 53.808594 215.789062 53.808594 L 212.976562 53.808594 Z M 217.488281 53.960938 C 219.617188 53.574219 221.550781 52.109375 221.550781 50.335938 C 221.550781 48.835938 220.203125 47.675781 217.996094 47.675781 L 211.726562 47.675781 C 211.355469 47.675781 211.179688 47.675781 211.179688 48.042969 C 211.179688 48.238281 211.355469 48.238281 211.648438 48.238281 C 212.839844 48.238281 212.839844 48.390625 212.839844 48.601562 C 212.839844 48.640625 212.839844 48.757812 212.761719 49.046875 L 210.125 59.414062 C 209.949219 60.089844 209.910156 60.28125 208.542969 60.28125 C 208.171875 60.28125 207.976562 60.28125 207.976562 60.628906 C 207.976562 60.839844 208.09375 60.839844 208.484375 60.839844 L 215.183594 60.839844 C 218.171875 60.839844 220.476562 58.605469 220.476562 56.660156 C 220.476562 55.078125 219.070312 54.113281 217.488281 53.960938 Z M 214.714844 60.28125 L 212.078125 60.28125 C 211.804688 60.28125 211.765625 60.28125 211.648438 60.261719 C 211.433594 60.246094 211.414062 60.207031 211.414062 60.050781 C 211.414062 59.917969 211.453125 59.800781 211.492188 59.628906 L 212.859375 54.191406 L 216.53125 54.191406 C 218.835938 54.191406 218.835938 56.3125 218.835938 56.464844 C 218.835938 58.316406 217.136719 60.28125 214.714844 60.28125 Z M 214.714844 60.28125 " fill-opacity="1" fill-rule="nonzero"/><path fill="#17191a" d="M 228.902344 65.527344 C 228.902344 65.46875 228.902344 65.429688 228.570312 65.101562 C 226.617188 63.15625 225.523438 59.972656 225.523438 56.042969 C 225.523438 52.304688 226.441406 49.085938 228.707031 46.808594 C 228.902344 46.636719 228.902344 46.597656 228.902344 46.539062 C 228.902344 46.425781 228.804688 46.386719 228.726562 46.386719 C 228.472656 46.386719 226.871094 47.773438 225.914062 49.664062 C 224.917969 51.609375 224.46875 53.671875 224.46875 56.042969 C 224.46875 57.757812 224.742188 60.050781 225.757812 62.113281 C 226.910156 64.425781 228.511719 65.679688 228.726562 65.679688 C 228.804688 65.679688 228.902344 65.640625 228.902344 65.527344 Z M 228.902344 65.527344 " fill-opacity="1" fill-rule="nonzero"/><path fill="#17191a" d="M 233.585938 53.921875 C 233.253906 53.941406 233.175781 53.960938 233.175781 54.132812 C 233.175781 54.328125 233.273438 54.328125 233.625 54.328125 L 234.523438 54.328125 C 236.183594 54.328125 236.925781 55.675781 236.925781 57.527344 C 236.925781 60.050781 235.597656 60.726562 234.640625 60.726562 C 233.703125 60.726562 232.101562 60.28125 231.535156 59.011719 C 232.160156 59.105469 232.726562 58.761719 232.726562 58.066406 C 232.726562 57.507812 232.316406 57.121094 231.769531 57.121094 C 231.300781 57.121094 230.792969 57.390625 230.792969 58.125 C 230.792969 59.839844 232.53125 61.246094 234.699219 61.246094 C 237.023438 61.246094 238.742188 59.492188 238.742188 57.546875 C 238.742188 55.773438 237.296875 54.386719 235.421875 54.058594 C 237.121094 53.574219 238.214844 52.167969 238.214844 50.664062 C 238.214844 49.140625 236.613281 48.023438 234.71875 48.023438 C 232.765625 48.023438 231.320312 49.199219 231.320312 50.605469 C 231.320312 51.378906 231.925781 51.53125 232.21875 51.53125 C 232.628906 51.53125 233.097656 51.242188 233.097656 50.664062 C 233.097656 50.046875 232.628906 49.777344 232.199219 49.777344 C 232.082031 49.777344 232.042969 49.777344 231.984375 49.796875 C 232.726562 48.488281 234.5625 48.488281 234.660156 48.488281 C 235.304688 48.488281 236.574219 48.777344 236.574219 50.664062 C 236.574219 51.03125 236.515625 52.109375 235.949219 52.9375 C 235.363281 53.789062 234.699219 53.84375 234.171875 53.863281 Z M 233.585938 53.921875 " fill-opacity="1" fill-rule="nonzero"/><path fill="#17191a" d="M 243.363281 60.917969 C 243.363281 59.800781 242.992188 58.972656 242.191406 58.972656 C 241.566406 58.972656 241.253906 59.472656 241.253906 59.898438 C 241.253906 60.320312 241.546875 60.839844 242.210938 60.839844 C 242.464844 60.839844 242.679688 60.765625 242.855469 60.589844 C 242.894531 60.550781 242.914062 60.550781 242.933594 60.550781 C 242.972656 60.550781 242.972656 60.824219 242.972656 60.917969 C 242.972656 61.554688 242.855469 62.808594 241.722656 64.0625 C 241.507812 64.292969 241.507812 64.332031 241.507812 64.367188 C 241.507812 64.464844 241.605469 64.5625 241.703125 64.5625 C 241.859375 64.5625 243.363281 63.136719 243.363281 60.917969 Z M 243.363281 60.917969 " fill-opacity="1" fill-rule="nonzero"/><path fill="#17191a" d="M 251.71875 53.921875 C 251.386719 53.941406 251.308594 53.960938 251.308594 54.132812 C 251.308594 54.328125 251.40625 54.328125 251.757812 54.328125 L 252.65625 54.328125 C 254.316406 54.328125 255.058594 55.675781 255.058594 57.527344 C 255.058594 60.050781 253.730469 60.726562 252.773438 60.726562 C 251.835938 60.726562 250.234375 60.28125 249.667969 59.011719 C 250.292969 59.105469 250.859375 58.761719 250.859375 58.066406 C 250.859375 57.507812 250.449219 57.121094 249.902344 57.121094 C 249.433594 57.121094 248.925781 57.390625 248.925781 58.125 C 248.925781 59.839844 250.664062 61.246094 252.832031 61.246094 C 255.15625 61.246094 256.875 59.492188 256.875 57.546875 C 256.875 55.773438 255.429688 54.386719 253.554688 54.058594 C 255.253906 53.574219 256.347656 52.167969 256.347656 50.664062 C 256.347656 49.140625 254.746094 48.023438 252.851562 48.023438 C 250.898438 48.023438 249.453125 49.199219 249.453125 50.605469 C 249.453125 51.378906 250.058594 51.53125 250.351562 51.53125 C 250.761719 51.53125 251.230469 51.242188 251.230469 50.664062 C 251.230469 50.046875 250.761719 49.777344 250.332031 49.777344 C 250.214844 49.777344 250.175781 49.777344 250.117188 49.796875 C 250.859375 48.488281 252.695312 48.488281 252.792969 48.488281 C 253.4375 48.488281 254.707031 48.777344 254.707031 50.664062 C 254.707031 51.03125 254.648438 52.109375 254.082031 52.9375 C 253.496094 53.789062 252.832031 53.84375 252.304688 53.863281 Z M 251.71875 53.921875 " fill-opacity="1" fill-rule="nonzero"/><path fill="#17191a" d="M 263.195312 56.042969 C 263.195312 54.578125 263 52.1875 261.90625 49.953125 C 260.753906 47.640625 259.152344 46.386719 258.9375 46.386719 C 258.859375 46.386719 258.761719 46.425781 258.761719 46.539062 C 258.761719 46.597656 258.761719 46.636719 259.09375 46.964844 C 261.046875 48.910156 262.140625 52.089844 262.140625 56.023438 C 262.140625 59.761719 261.222656 62.980469 258.957031 65.253906 C 258.761719 65.429688 258.761719 65.46875 258.761719 65.527344 C 258.761719 65.640625 258.859375 65.679688 258.9375 65.679688 C 259.191406 65.679688 260.792969 64.292969 261.75 62.402344 C 262.746094 60.4375 263.195312 58.355469 263.195312 56.042969 Z M 263.195312 56.042969 " fill-opacity="1" fill-rule="nonzero"/><path fill="#17191a" d="M 268.933594 60.917969 C 268.933594 59.800781 268.5625 58.972656 267.761719 58.972656 C 267.136719 58.972656 266.824219 59.472656 266.824219 59.898438 C 266.824219 60.320312 267.117188 60.839844 267.78125 60.839844 C 268.035156 60.839844 268.25 60.765625 268.425781 60.589844 C 268.464844 60.550781 268.484375 60.550781 268.503906 60.550781 C 268.542969 60.550781 268.542969 60.824219 268.542969 60.917969 C 268.542969 61.554688 268.425781 62.808594 267.292969 64.0625 C 267.078125 64.292969 267.078125 64.332031 267.078125 64.367188 C 267.078125 64.464844 267.175781 64.5625 267.273438 64.5625 C 267.429688 64.5625 268.933594 63.136719 268.933594 60.917969 Z M 268.933594 60.917969 " fill-opacity="1" fill-rule="nonzero"/><path fill="#17191a" d="M 288.285156 47.445312 C 288.285156 47.273438 288.148438 47.273438 288.109375 47.273438 C 288.070312 47.273438 287.992188 47.273438 287.835938 47.464844 L 286.488281 49.085938 C 285.804688 47.929688 284.730469 47.273438 283.265625 47.273438 C 279.046875 47.273438 274.667969 51.492188 274.667969 56.023438 C 274.667969 59.242188 276.957031 61.246094 279.808594 61.246094 C 281.371094 61.246094 282.738281 60.589844 283.871094 59.648438 C 285.570312 58.238281 286.078125 56.371094 286.078125 56.214844 C 286.078125 56.042969 285.921875 56.042969 285.863281 56.042969 C 285.6875 56.042969 285.667969 56.15625 285.628906 56.234375 C 284.730469 59.242188 282.09375 60.6875 280.140625 60.6875 C 278.070312 60.6875 276.273438 59.378906 276.273438 56.640625 C 276.273438 56.023438 276.46875 52.667969 278.675781 50.144531 C 279.75 48.910156 281.585938 47.832031 283.441406 47.832031 C 285.589844 47.832031 286.546875 49.585938 286.546875 51.550781 C 286.546875 52.054688 286.488281 52.476562 286.488281 52.554688 C 286.488281 52.726562 286.683594 52.726562 286.742188 52.726562 C 286.957031 52.726562 286.976562 52.707031 287.054688 52.359375 Z M 288.285156 47.445312 " fill-opacity="1" fill-rule="nonzero"/><path fill="#17191a" d="M 295.125 65.527344 C 295.125 65.46875 295.125 65.429688 294.792969 65.101562 C 292.839844 63.15625 291.746094 59.972656 291.746094 56.042969 C 291.746094 52.304688 292.664062 49.085938 294.929688 46.808594 C 295.125 46.636719 295.125 46.597656 295.125 46.539062 C 295.125 46.425781 295.027344 46.386719 294.949219 46.386719 C 294.695312 46.386719 293.09375 47.773438 292.136719 49.664062 C 291.140625 51.609375 290.691406 53.671875 290.691406 56.042969 C 290.691406 57.757812 290.964844 60.050781 291.980469 62.113281 C 293.132812 64.425781 294.734375 65.679688 294.949219 65.679688 C 295.027344 65.679688 295.125 65.640625 295.125 65.527344 Z M 295.125 65.527344 " fill-opacity="1" fill-rule="nonzero"/><path fill="#17191a" d="M 301.84375 48.488281 C 301.84375 48.042969 301.84375 48.023438 301.453125 48.023438 C 300.984375 48.546875 300.007812 49.257812 297.996094 49.257812 L 297.996094 49.816406 C 298.445312 49.816406 299.421875 49.816406 300.496094 49.316406 L 300.496094 59.359375 C 300.496094 60.050781 300.4375 60.28125 298.71875 60.28125 L 298.113281 60.28125 L 298.113281 60.839844 C 298.640625 60.804688 300.535156 60.804688 301.179688 60.804688 C 301.824219 60.804688 303.699219 60.804688 304.226562 60.839844 L 304.226562 60.28125 L 303.621094 60.28125 C 301.902344 60.28125 301.84375 60.050781 301.84375 59.359375 Z M 301.84375 48.488281 " fill-opacity="1" fill-rule="nonzero"/><path fill="#17191a" d="M 309.589844 60.917969 C 309.589844 59.800781 309.21875 58.972656 308.417969 58.972656 C 307.792969 58.972656 307.480469 59.472656 307.480469 59.898438 C 307.480469 60.320312 307.773438 60.839844 308.4375 60.839844 C 308.691406 60.839844 308.90625 60.765625 309.082031 60.589844 C 309.121094 60.550781 309.140625 60.550781 309.160156 60.550781 C 309.199219 60.550781 309.199219 60.824219 309.199219 60.917969 C 309.199219 61.554688 309.082031 62.808594 307.949219 64.0625 C 307.734375 64.292969 307.734375 64.332031 307.734375 64.367188 C 307.734375 64.464844 307.832031 64.5625 307.929688 64.5625 C 308.085938 64.5625 309.589844 63.136719 309.589844 60.917969 Z M 309.589844 60.917969 " fill-opacity="1" fill-rule="nonzero"/><path fill="#17191a" d="M 320.167969 53.882812 C 321.144531 53.363281 322.570312 52.476562 322.570312 50.859375 C 322.570312 49.179688 320.929688 48.023438 319.132812 48.023438 C 317.199219 48.023438 315.675781 49.429688 315.675781 51.183594 C 315.675781 51.839844 315.871094 52.496094 316.417969 53.152344 C 316.632812 53.402344 316.652344 53.421875 318.019531 54.367188 C 316.125 55.234375 315.148438 56.523438 315.148438 57.929688 C 315.148438 59.972656 317.121094 61.246094 319.113281 61.246094 C 321.28125 61.246094 323.097656 59.667969 323.097656 57.640625 C 323.097656 55.675781 321.691406 54.808594 320.167969 53.882812 Z M 317.511719 52.148438 C 317.257812 51.976562 316.476562 51.472656 316.476562 50.53125 C 316.476562 49.277344 317.804688 48.488281 319.113281 48.488281 C 320.519531 48.488281 321.769531 49.488281 321.769531 50.878906 C 321.769531 52.054688 320.910156 52.996094 319.777344 53.613281 Z M 318.429688 54.636719 L 320.792969 56.15625 C 321.300781 56.484375 322.199219 57.082031 322.199219 58.257812 C 322.199219 59.722656 320.695312 60.726562 319.132812 60.726562 C 317.472656 60.726562 316.046875 59.53125 316.046875 57.929688 C 316.046875 56.429688 317.160156 55.214844 318.429688 54.636719 Z M 318.429688 54.636719 " fill-opacity="1" fill-rule="nonzero"/><g clip-path="url(#24748ff53b)"><path fill="#17191a" d="M 329.417969 56.042969 C 329.417969 54.578125 329.222656 52.1875 328.128906 49.953125 C 326.976562 47.640625 325.375 46.386719 325.160156 46.386719 C 325.082031 46.386719 324.984375 46.425781 324.984375 46.539062 C 324.984375 46.597656 324.984375 46.636719 325.316406 46.964844 C 327.269531 48.910156 328.363281 52.089844 328.363281 56.023438 C 328.363281 59.761719 327.445312 62.980469 325.179688 65.253906 C 324.984375 65.429688 324.984375 65.46875 324.984375 65.527344 C 324.984375 65.640625 325.082031 65.679688 325.160156 65.679688 C 325.414062 65.679688 327.015625 64.292969 327.972656 62.402344 C 328.96875 60.4375 329.417969 58.355469 329.417969 56.042969 Z M 329.417969 56.042969 " fill-opacity="1" fill-rule="nonzero"/></g><g fill="#17191a" fill-opacity="1"><g transform="translate(0.0000075, 31.353556)"><g><path d="M 9.453125 0 L 1.0625 0 L 1.0625 -1.171875 L 5.5 -6.09375 C 6.15625 -6.832031 6.601562 -7.4375 6.84375 -7.90625 C 7.09375 -8.375 7.21875 -8.859375 7.21875 -9.359375 C 7.21875 -10.023438 7.015625 -10.570312 6.609375 -11 C 6.210938 -11.425781 5.675781 -11.640625 5 -11.640625 C 4.1875 -11.640625 3.554688 -11.40625 3.109375 -10.9375 C 2.660156 -10.476562 2.4375 -9.84375 2.4375 -9.03125 L 0.8125 -9.03125 C 0.8125 -10.207031 1.191406 -11.15625 1.953125 -11.875 C 2.710938 -12.601562 3.726562 -12.96875 5 -12.96875 C 6.1875 -12.96875 7.125 -12.65625 7.8125 -12.03125 C 8.507812 -11.40625 8.859375 -10.578125 8.859375 -9.546875 C 8.859375 -8.285156 8.054688 -6.785156 6.453125 -5.046875 L 3.03125 -1.328125 L 9.453125 -1.328125 Z M 9.453125 0 "/></g></g></g><g fill="#17191a" fill-opacity="1"><g transform="translate(10.100848, 31.353556)"><g><path d="M 4.984375 -5.109375 C 4.984375 -3.796875 4.8125 -2.539062 4.46875 -1.34375 C 4.125 -0.144531 3.597656 0.957031 2.890625 1.96875 C 2.191406 2.976562 1.453125 3.695312 0.671875 4.125 L 0.328125 3.140625 C 1.234375 2.441406 1.957031 1.367188 2.5 -0.078125 C 3.050781 -1.535156 3.332031 -3.15625 3.34375 -4.9375 L 3.34375 -5.21875 C 3.34375 -6.445312 3.210938 -7.585938 2.953125 -8.640625 C 2.703125 -9.703125 2.347656 -10.648438 1.890625 -11.484375 C 1.429688 -12.328125 0.910156 -12.984375 0.328125 -13.453125 L 0.671875 -14.4375 C 1.453125 -14.007812 2.191406 -13.296875 2.890625 -12.296875 C 3.585938 -11.296875 4.109375 -10.191406 4.453125 -8.984375 C 4.804688 -7.773438 4.984375 -6.484375 4.984375 -5.109375 Z M 4.984375 -5.109375 "/></g></g></g><g fill="#17191a" fill-opacity="1"><g transform="translate(16.354586, 31.353556)"><g/></g></g><g fill="#17191a" fill-opacity="1"><g transform="translate(20.807745, 31.353556)"><g><path d="M 4.734375 -5.953125 L 3.171875 -4.328125 L 3.171875 0 L 1.484375 0 L 1.484375 -12.796875 L 3.171875 -12.796875 L 3.171875 -6.46875 L 8.859375 -12.796875 L 10.90625 -12.796875 L 5.859375 -7.140625 L 11.296875 0 L 9.265625 0 Z M 4.734375 -5.953125 "/></g></g></g><g fill="#17191a" fill-opacity="1"><g transform="translate(32.085553, 31.353556)"><g><path d="M 0.796875 -4.84375 C 0.796875 -5.769531 0.976562 -6.601562 1.34375 -7.34375 C 1.71875 -8.09375 2.226562 -8.671875 2.875 -9.078125 C 3.53125 -9.484375 4.273438 -9.6875 5.109375 -9.6875 C 6.410156 -9.6875 7.457031 -9.238281 8.25 -8.34375 C 9.050781 -7.445312 9.453125 -6.253906 9.453125 -4.765625 L 9.453125 -4.65625 C 9.453125 -3.726562 9.273438 -2.894531 8.921875 -2.15625 C 8.566406 -1.425781 8.0625 -0.851562 7.40625 -0.4375 C 6.75 -0.03125 5.992188 0.171875 5.140625 0.171875 C 3.847656 0.171875 2.800781 -0.273438 2 -1.171875 C 1.195312 -2.066406 0.796875 -3.253906 0.796875 -4.734375 Z M 2.4375 -4.65625 C 2.4375 -3.59375 2.679688 -2.742188 3.171875 -2.109375 C 3.660156 -1.472656 4.316406 -1.15625 5.140625 -1.15625 C 5.960938 -1.15625 6.613281 -1.476562 7.09375 -2.125 C 7.582031 -2.769531 7.828125 -3.675781 7.828125 -4.84375 C 7.828125 -5.882812 7.578125 -6.726562 7.078125 -7.375 C 6.585938 -8.019531 5.929688 -8.34375 5.109375 -8.34375 C 4.304688 -8.34375 3.660156 -8.023438 3.171875 -7.390625 C 2.679688 -6.753906 2.4375 -5.84375 2.4375 -4.65625 Z M 2.4375 -4.65625 "/></g></g></g><g fill="#17191a" fill-opacity="1"><g transform="translate(42.344494, 31.353556)"><g><path d="M 3 0 L 1.375 0 L 1.375 -13.5 L 3 -13.5 Z M 3 0 "/></g></g></g><g fill="#17191a" fill-opacity="1"><g transform="translate(46.70982, 31.353556)"><g><path d="M 3 0 L 1.375 0 L 1.375 -9.515625 L 3 -9.515625 Z M 1.234375 -12.03125 C 1.234375 -12.289062 1.3125 -12.507812 1.46875 -12.6875 C 1.632812 -12.875 1.875 -12.96875 2.1875 -12.96875 C 2.507812 -12.96875 2.753906 -12.875 2.921875 -12.6875 C 3.085938 -12.507812 3.171875 -12.289062 3.171875 -12.03125 C 3.171875 -11.769531 3.085938 -11.550781 2.921875 -11.375 C 2.753906 -11.195312 2.507812 -11.109375 2.1875 -11.109375 C 1.875 -11.109375 1.632812 -11.195312 1.46875 -11.375 C 1.3125 -11.550781 1.234375 -11.769531 1.234375 -12.03125 Z M 1.234375 -12.03125 "/></g></g></g><g fill="#17191a" fill-opacity="1"><g transform="translate(51.075145, 31.353556)"><g><path d="M 3.890625 -4.40625 L 2.859375 -3.34375 L 2.859375 0 L 1.234375 0 L 1.234375 -13.5 L 2.859375 -13.5 L 2.859375 -5.328125 L 3.734375 -6.375 L 6.703125 -9.515625 L 8.671875 -9.515625 L 4.96875 -5.53125 L 9.109375 0 L 7.203125 0 Z M 3.890625 -4.40625 "/></g></g></g><g fill="#17191a" fill-opacity="1"><g transform="translate(60.192252, 31.353556)"><g><path d="M 0.796875 -4.84375 C 0.796875 -5.769531 0.976562 -6.601562 1.34375 -7.34375 C 1.71875 -8.09375 2.226562 -8.671875 2.875 -9.078125 C 3.53125 -9.484375 4.273438 -9.6875 5.109375 -9.6875 C 6.410156 -9.6875 7.457031 -9.238281 8.25 -8.34375 C 9.050781 -7.445312 9.453125 -6.253906 9.453125 -4.765625 L 9.453125 -4.65625 C 9.453125 -3.726562 9.273438 -2.894531 8.921875 -2.15625 C 8.566406 -1.425781 8.0625 -0.851562 7.40625 -0.4375 C 6.75 -0.03125 5.992188 0.171875 5.140625 0.171875 C 3.847656 0.171875 2.800781 -0.273438 2 -1.171875 C 1.195312 -2.066406 0.796875 -3.253906 0.796875 -4.734375 Z M 2.4375 -4.65625 C 2.4375 -3.59375 2.679688 -2.742188 3.171875 -2.109375 C 3.660156 -1.472656 4.316406 -1.15625 5.140625 -1.15625 C 5.960938 -1.15625 6.613281 -1.476562 7.09375 -2.125 C 7.582031 -2.769531 7.828125 -3.675781 7.828125 -4.84375 C 7.828125 -5.882812 7.578125 -6.726562 7.078125 -7.375 C 6.585938 -8.019531 5.929688 -8.34375 5.109375 -8.34375 C 4.304688 -8.34375 3.660156 -8.023438 3.171875 -7.390625 C 2.679688 -6.753906 2.4375 -5.84375 2.4375 -4.65625 Z M 2.4375 -4.65625 "/></g></g></g><g fill="#17191a" fill-opacity="1"><g transform="translate(70.451193, 31.353556)"><g/></g></g><g fill="#17191a" fill-opacity="1"><g transform="translate(74.904352, 31.353556)"><g><path d="M 2.90625 -9.515625 L 2.90625 1.09375 C 2.90625 2.925781 2.078125 3.84375 0.421875 3.84375 C 0.0664062 3.84375 -0.265625 3.789062 -0.578125 3.6875 L -0.578125 2.375 C -0.390625 2.425781 -0.140625 2.453125 0.171875 2.453125 C 0.535156 2.453125 0.8125 2.351562 1 2.15625 C 1.1875 1.957031 1.28125 1.617188 1.28125 1.140625 L 1.28125 -9.515625 Z M 1.109375 -12.03125 C 1.109375 -12.289062 1.1875 -12.507812 1.34375 -12.6875 C 1.507812 -12.875 1.75 -12.96875 2.0625 -12.96875 C 2.382812 -12.96875 2.625 -12.875 2.78125 -12.6875 C 2.945312 -12.507812 3.03125 -12.289062 3.03125 -12.03125 C 3.03125 -11.769531 2.945312 -11.550781 2.78125 -11.375 C 2.625 -11.195312 2.382812 -11.109375 2.0625 -11.109375 C 1.75 -11.109375 1.507812 -11.195312 1.34375 -11.375 C 1.1875 -11.550781 1.109375 -11.769531 1.109375 -12.03125 Z M 1.109375 -12.03125 "/></g></g></g><g fill="#17191a" fill-opacity="1"><g transform="translate(79.199411, 31.353556)"><g><path d="M 5.171875 0.171875 C 3.890625 0.171875 2.84375 -0.25 2.03125 -1.09375 C 1.21875 -1.9375 0.8125 -3.066406 0.8125 -4.484375 L 0.8125 -4.796875 C 0.8125 -5.734375 0.992188 -6.570312 1.359375 -7.3125 C 1.722656 -8.050781 2.226562 -8.628906 2.875 -9.046875 C 3.519531 -9.472656 4.21875 -9.6875 4.96875 -9.6875 C 6.207031 -9.6875 7.171875 -9.28125 7.859375 -8.46875 C 8.546875 -7.65625 8.890625 -6.488281 8.890625 -4.96875 L 8.890625 -4.296875 L 2.4375 -4.296875 C 2.46875 -3.359375 2.742188 -2.597656 3.265625 -2.015625 C 3.785156 -1.441406 4.453125 -1.15625 5.265625 -1.15625 C 5.835938 -1.15625 6.320312 -1.269531 6.71875 -1.5 C 7.125 -1.738281 7.472656 -2.050781 7.765625 -2.4375 L 8.765625 -1.65625 C 7.960938 -0.4375 6.765625 0.171875 5.171875 0.171875 Z M 4.96875 -8.34375 C 4.3125 -8.34375 3.757812 -8.101562 3.3125 -7.625 C 2.875 -7.15625 2.601562 -6.488281 2.5 -5.625 L 7.265625 -5.625 L 7.265625 -5.75 C 7.210938 -6.570312 6.988281 -7.207031 6.59375 -7.65625 C 6.195312 -8.113281 5.65625 -8.34375 4.96875 -8.34375 Z M 4.96875 -8.34375 "/></g></g></g><g fill="#17191a" fill-opacity="1"><g transform="translate(88.72934, 31.353556)"><g/></g></g><g fill="#17191a" fill-opacity="1"><g transform="translate(93.182499, 31.353556)"><g><path d="M 0.828125 -4.828125 C 0.828125 -6.285156 1.171875 -7.457031 1.859375 -8.34375 C 2.554688 -9.238281 3.46875 -9.6875 4.59375 -9.6875 C 5.707031 -9.6875 6.585938 -9.304688 7.234375 -8.546875 L 7.234375 -13.5 L 8.859375 -13.5 L 8.859375 0 L 7.359375 0 L 7.28125 -1.015625 C 6.632812 -0.222656 5.734375 0.171875 4.578125 0.171875 C 3.472656 0.171875 2.570312 -0.273438 1.875 -1.171875 C 1.175781 -2.078125 0.828125 -3.257812 0.828125 -4.71875 Z M 2.46875 -4.65625 C 2.46875 -3.570312 2.6875 -2.722656 3.125 -2.109375 C 3.570312 -1.503906 4.1875 -1.203125 4.96875 -1.203125 C 6 -1.203125 6.753906 -1.664062 7.234375 -2.59375 L 7.234375 -6.96875 C 6.742188 -7.863281 6 -8.3125 5 -8.3125 C 4.195312 -8.3125 3.570312 -8 3.125 -7.375 C 2.6875 -6.757812 2.46875 -5.851562 2.46875 -4.65625 Z M 2.46875 -4.65625 "/></g></g></g><g fill="#17191a" fill-opacity="1"><g transform="translate(103.327262, 31.353556)"><g><path d="M 7.109375 -0.9375 C 6.472656 -0.195312 5.539062 0.171875 4.3125 0.171875 C 3.300781 0.171875 2.53125 -0.117188 2 -0.703125 C 1.46875 -1.296875 1.203125 -2.171875 1.203125 -3.328125 L 1.203125 -9.515625 L 2.828125 -9.515625 L 2.828125 -3.359375 C 2.828125 -1.921875 3.410156 -1.203125 4.578125 -1.203125 C 5.816406 -1.203125 6.644531 -1.664062 7.0625 -2.59375 L 7.0625 -9.515625 L 8.6875 -9.515625 L 8.6875 0 L 7.140625 0 Z M 7.109375 -0.9375 "/></g></g></g><g fill="#17191a" fill-opacity="1"><g transform="translate(113.243658, 31.353556)"><g><path d="M 0.84375 -4.828125 C 0.84375 -6.316406 1.1875 -7.5 1.875 -8.375 C 2.5625 -9.25 3.46875 -9.6875 4.59375 -9.6875 C 5.757812 -9.6875 6.664062 -9.273438 7.3125 -8.453125 L 7.390625 -9.515625 L 8.875 -9.515625 L 8.875 -0.234375 C 8.875 1.003906 8.507812 1.976562 7.78125 2.6875 C 7.050781 3.394531 6.070312 3.75 4.84375 3.75 C 4.15625 3.75 3.484375 3.597656 2.828125 3.296875 C 2.171875 3.003906 1.671875 2.601562 1.328125 2.09375 L 2.171875 1.125 C 2.867188 1.988281 3.722656 2.421875 4.734375 2.421875 C 5.523438 2.421875 6.140625 2.195312 6.578125 1.75 C 7.023438 1.300781 7.25 0.675781 7.25 -0.125 L 7.25 -0.953125 C 6.59375 -0.203125 5.703125 0.171875 4.578125 0.171875 C 3.460938 0.171875 2.5625 -0.273438 1.875 -1.171875 C 1.1875 -2.066406 0.84375 -3.285156 0.84375 -4.828125 Z M 2.484375 -4.65625 C 2.484375 -3.582031 2.703125 -2.738281 3.140625 -2.125 C 3.578125 -1.507812 4.191406 -1.203125 4.984375 -1.203125 C 6.003906 -1.203125 6.757812 -1.671875 7.25 -2.609375 L 7.25 -6.9375 C 6.75 -7.851562 6 -8.3125 5 -8.3125 C 4.207031 -8.3125 3.585938 -8 3.140625 -7.375 C 2.703125 -6.757812 2.484375 -5.851562 2.484375 -4.65625 Z M 2.484375 -4.65625 "/></g></g></g><g fill="#17191a" fill-opacity="1"><g transform="translate(123.335722, 31.353556)"><g><path d="M 7.109375 0 C 7.015625 -0.1875 6.9375 -0.519531 6.875 -1 C 6.113281 -0.21875 5.210938 0.171875 4.171875 0.171875 C 3.234375 0.171875 2.460938 -0.09375 1.859375 -0.625 C 1.253906 -1.15625 0.953125 -1.828125 0.953125 -2.640625 C 0.953125 -3.628906 1.328125 -4.394531 2.078125 -4.9375 C 2.835938 -5.488281 3.898438 -5.765625 5.265625 -5.765625 L 6.84375 -5.765625 L 6.84375 -6.515625 C 6.84375 -7.078125 6.671875 -7.523438 6.328125 -7.859375 C 5.992188 -8.203125 5.492188 -8.375 4.828125 -8.375 C 4.253906 -8.375 3.769531 -8.226562 3.375 -7.9375 C 2.976562 -7.644531 2.78125 -7.289062 2.78125 -6.875 L 1.15625 -6.875 C 1.15625 -7.34375 1.320312 -7.796875 1.65625 -8.234375 C 1.988281 -8.679688 2.441406 -9.035156 3.015625 -9.296875 C 3.597656 -9.554688 4.238281 -9.6875 4.9375 -9.6875 C 6.03125 -9.6875 6.882812 -9.410156 7.5 -8.859375 C 8.125 -8.316406 8.445312 -7.5625 8.46875 -6.59375 L 8.46875 -2.21875 C 8.46875 -1.351562 8.582031 -0.660156 8.8125 -0.140625 L 8.8125 0 Z M 4.40625 -1.234375 C 4.914062 -1.234375 5.398438 -1.363281 5.859375 -1.625 C 6.316406 -1.894531 6.644531 -2.238281 6.84375 -2.65625 L 6.84375 -4.609375 L 5.578125 -4.609375 C 3.578125 -4.609375 2.578125 -4.023438 2.578125 -2.859375 C 2.578125 -2.347656 2.75 -1.945312 3.09375 -1.65625 C 3.4375 -1.375 3.875 -1.234375 4.40625 -1.234375 Z M 4.40625 -1.234375 "/></g></g></g><g fill="#17191a" fill-opacity="1"><g transform="translate(133.120362, 31.353556)"><g><path d="M 5.046875 -1.15625 C 5.628906 -1.15625 6.132812 -1.328125 6.5625 -1.671875 C 7 -2.023438 7.238281 -2.46875 7.28125 -3 L 8.828125 -3 C 8.796875 -2.457031 8.609375 -1.9375 8.265625 -1.4375 C 7.921875 -0.945312 7.457031 -0.554688 6.875 -0.265625 C 6.300781 0.0234375 5.691406 0.171875 5.046875 0.171875 C 3.753906 0.171875 2.722656 -0.257812 1.953125 -1.125 C 1.191406 -1.988281 0.8125 -3.171875 0.8125 -4.671875 L 0.8125 -4.9375 C 0.8125 -5.863281 0.976562 -6.6875 1.3125 -7.40625 C 1.65625 -8.125 2.144531 -8.679688 2.78125 -9.078125 C 3.414062 -9.484375 4.164062 -9.6875 5.03125 -9.6875 C 6.101562 -9.6875 6.988281 -9.363281 7.6875 -8.71875 C 8.394531 -8.082031 8.773438 -7.253906 8.828125 -6.234375 L 7.28125 -6.234375 C 7.238281 -6.847656 7.003906 -7.351562 6.578125 -7.75 C 6.160156 -8.144531 5.644531 -8.34375 5.03125 -8.34375 C 4.207031 -8.34375 3.566406 -8.046875 3.109375 -7.453125 C 2.660156 -6.859375 2.4375 -6 2.4375 -4.875 L 2.4375 -4.578125 C 2.4375 -3.472656 2.660156 -2.625 3.109375 -2.03125 C 3.554688 -1.445312 4.203125 -1.15625 5.046875 -1.15625 Z M 4.671875 -12.015625 L 5.984375 -13.5 L 7.390625 -13.5 L 7.390625 -13.421875 L 5.15625 -11.015625 L 4.171875 -11.015625 L 1.953125 -13.421875 L 1.953125 -13.5 L 3.34375 -13.5 Z M 4.671875 -12.015625 "/></g></g></g><g fill="#17191a" fill-opacity="1"><g transform="translate(142.536102, 31.353556)"><g><path d="M 7.109375 0 C 7.015625 -0.1875 6.9375 -0.519531 6.875 -1 C 6.113281 -0.21875 5.210938 0.171875 4.171875 0.171875 C 3.234375 0.171875 2.460938 -0.09375 1.859375 -0.625 C 1.253906 -1.15625 0.953125 -1.828125 0.953125 -2.640625 C 0.953125 -3.628906 1.328125 -4.394531 2.078125 -4.9375 C 2.835938 -5.488281 3.898438 -5.765625 5.265625 -5.765625 L 6.84375 -5.765625 L 6.84375 -6.515625 C 6.84375 -7.078125 6.671875 -7.523438 6.328125 -7.859375 C 5.992188 -8.203125 5.492188 -8.375 4.828125 -8.375 C 4.253906 -8.375 3.769531 -8.226562 3.375 -7.9375 C 2.976562 -7.644531 2.78125 -7.289062 2.78125 -6.875 L 1.15625 -6.875 C 1.15625 -7.34375 1.320312 -7.796875 1.65625 -8.234375 C 1.988281 -8.679688 2.441406 -9.035156 3.015625 -9.296875 C 3.597656 -9.554688 4.238281 -9.6875 4.9375 -9.6875 C 6.03125 -9.6875 6.882812 -9.410156 7.5 -8.859375 C 8.125 -8.316406 8.445312 -7.5625 8.46875 -6.59375 L 8.46875 -2.21875 C 8.46875 -1.351562 8.582031 -0.660156 8.8125 -0.140625 L 8.8125 0 Z M 4.40625 -1.234375 C 4.914062 -1.234375 5.398438 -1.363281 5.859375 -1.625 C 6.316406 -1.894531 6.644531 -2.238281 6.84375 -2.65625 L 6.84375 -4.609375 L 5.578125 -4.609375 C 3.578125 -4.609375 2.578125 -4.023438 2.578125 -2.859375 C 2.578125 -2.347656 2.75 -1.945312 3.09375 -1.65625 C 3.4375 -1.375 3.875 -1.234375 4.40625 -1.234375 Z M 4.40625 -1.234375 "/></g></g></g><g fill="#17191a" fill-opacity="1"><g transform="translate(152.320743, 31.353556)"><g><path d="M 3.890625 -4.40625 L 2.859375 -3.34375 L 2.859375 0 L 1.234375 0 L 1.234375 -13.5 L 2.859375 -13.5 L 2.859375 -5.328125 L 3.734375 -6.375 L 6.703125 -9.515625 L 8.671875 -9.515625 L 4.96875 -5.53125 L 9.109375 0 L 7.203125 0 Z M 3.890625 -4.40625 "/></g></g></g><g fill="#17191a" fill-opacity="1"><g transform="translate(161.437849, 31.353556)"><g/></g></g><g fill="#17191a" fill-opacity="1"><g transform="translate(165.891008, 31.353556)"><g><path d="M 4.375 -2.203125 L 6.71875 -9.515625 L 8.390625 -9.515625 L 4.96875 0 L 3.734375 0 L 0.296875 -9.515625 L 1.953125 -9.515625 Z M 4.375 -2.203125 "/></g></g></g><g fill="#17191a" fill-opacity="1"><g transform="translate(174.604081, 31.353556)"><g><path d="M 5.171875 0.171875 C 3.890625 0.171875 2.84375 -0.25 2.03125 -1.09375 C 1.21875 -1.9375 0.8125 -3.066406 0.8125 -4.484375 L 0.8125 -4.796875 C 0.8125 -5.734375 0.992188 -6.570312 1.359375 -7.3125 C 1.722656 -8.050781 2.226562 -8.628906 2.875 -9.046875 C 3.519531 -9.472656 4.21875 -9.6875 4.96875 -9.6875 C 6.207031 -9.6875 7.171875 -9.28125 7.859375 -8.46875 C 8.546875 -7.65625 8.890625 -6.488281 8.890625 -4.96875 L 8.890625 -4.296875 L 2.4375 -4.296875 C 2.46875 -3.359375 2.742188 -2.597656 3.265625 -2.015625 C 3.785156 -1.441406 4.453125 -1.15625 5.265625 -1.15625 C 5.835938 -1.15625 6.320312 -1.269531 6.71875 -1.5 C 7.125 -1.738281 7.472656 -2.050781 7.765625 -2.4375 L 8.765625 -1.65625 C 7.960938 -0.4375 6.765625 0.171875 5.171875 0.171875 Z M 4.96875 -8.34375 C 4.3125 -8.34375 3.757812 -8.101562 3.3125 -7.625 C 2.875 -7.15625 2.601562 -6.488281 2.5 -5.625 L 7.265625 -5.625 L 7.265625 -5.75 C 7.210938 -6.570312 6.988281 -7.207031 6.59375 -7.65625 C 6.195312 -8.113281 5.65625 -8.34375 4.96875 -8.34375 Z M 4.96875 -8.34375 "/></g></g></g><g fill="#17191a" fill-opacity="1"><g transform="translate(184.134011, 31.353556)"><g><path d="M 3.890625 -4.40625 L 2.859375 -3.34375 L 2.859375 0 L 1.234375 0 L 1.234375 -13.5 L 2.859375 -13.5 L 2.859375 -5.328125 L 3.734375 -6.375 L 6.703125 -9.515625 L 8.671875 -9.515625 L 4.96875 -5.53125 L 9.109375 0 L 7.203125 0 Z M 3.890625 -4.40625 "/></g></g></g><g fill="#17191a" fill-opacity="1"><g transform="translate(193.251106, 31.353556)"><g><path d="M 3.4375 -11.8125 L 3.4375 -9.515625 L 5.21875 -9.515625 L 5.21875 -8.25 L 3.4375 -8.25 L 3.4375 -2.359375 C 3.4375 -1.972656 3.515625 -1.6875 3.671875 -1.5 C 3.828125 -1.3125 4.097656 -1.21875 4.484375 -1.21875 C 4.671875 -1.21875 4.925781 -1.25 5.25 -1.3125 L 5.25 0 C 4.820312 0.113281 4.410156 0.171875 4.015625 0.171875 C 3.285156 0.171875 2.734375 -0.046875 2.359375 -0.484375 C 1.992188 -0.921875 1.8125 -1.546875 1.8125 -2.359375 L 1.8125 -8.25 L 0.078125 -8.25 L 0.078125 -9.515625 L 1.8125 -9.515625 L 1.8125 -11.8125 Z M 3.4375 -11.8125 "/></g></g></g><g fill="#17191a" fill-opacity="1"><g transform="translate(199.127166, 31.353556)"><g><path d="M 0.796875 -4.84375 C 0.796875 -5.769531 0.976562 -6.601562 1.34375 -7.34375 C 1.71875 -8.09375 2.226562 -8.671875 2.875 -9.078125 C 3.53125 -9.484375 4.273438 -9.6875 5.109375 -9.6875 C 6.410156 -9.6875 7.457031 -9.238281 8.25 -8.34375 C 9.050781 -7.445312 9.453125 -6.253906 9.453125 -4.765625 L 9.453125 -4.65625 C 9.453125 -3.726562 9.273438 -2.894531 8.921875 -2.15625 C 8.566406 -1.425781 8.0625 -0.851562 7.40625 -0.4375 C 6.75 -0.03125 5.992188 0.171875 5.140625 0.171875 C 3.847656 0.171875 2.800781 -0.273438 2 -1.171875 C 1.195312 -2.066406 0.796875 -3.253906 0.796875 -4.734375 Z M 2.4375 -4.65625 C 2.4375 -3.59375 2.679688 -2.742188 3.171875 -2.109375 C 3.660156 -1.472656 4.316406 -1.15625 5.140625 -1.15625 C 5.960938 -1.15625 6.613281 -1.476562 7.09375 -2.125 C 7.582031 -2.769531 7.828125 -3.675781 7.828125 -4.84375 C 7.828125 -5.882812 7.578125 -6.726562 7.078125 -7.375 C 6.585938 -8.019531 5.929688 -8.34375 5.109375 -8.34375 C 4.304688 -8.34375 3.660156 -8.023438 3.171875 -7.390625 C 2.679688 -6.753906 2.4375 -5.84375 2.4375 -4.65625 Z M 2.4375 -4.65625 "/></g></g></g><g fill="#17191a" fill-opacity="1"><g transform="translate(209.386107, 31.353556)"><g><path d="M 5.828125 -8.046875 C 5.578125 -8.085938 5.3125 -8.109375 5.03125 -8.109375 C 3.957031 -8.109375 3.234375 -7.65625 2.859375 -6.75 L 2.859375 0 L 1.234375 0 L 1.234375 -9.515625 L 2.8125 -9.515625 L 2.84375 -8.40625 C 3.375 -9.257812 4.128906 -9.6875 5.109375 -9.6875 C 5.421875 -9.6875 5.660156 -9.644531 5.828125 -9.5625 Z M 5.828125 -8.046875 "/></g></g></g></svg>