<svg xmlns="http://www.w3.org/2000/svg" xmlns:xlink="http://www.w3.org/1999/xlink" width="500" zoomAndPan="magnify" viewBox="0 0 375 74.999997" height="100" preserveAspectRatio="xMidYMid meet" version="1.0"><defs><clipPath id="a99dc17b18"><path d="M 110 31 L 112 31 L 112 52.5 L 110 52.5 Z M 110 31 " clip-rule="nonzero"/></clipPath><clipPath id="534b8f4b21"><path d="M 181 22.5 L 200 22.5 L 200 34 L 181 34 Z M 181 22.5 " clip-rule="nonzero"/></clipPath><clipPath id="960d9e3c97"><path d="M 202 31 L 204 31 L 204 52.5 L 202 52.5 Z M 202 31 " clip-rule="nonzero"/></clipPath></defs><g clip-path="url(#a99dc17b18)"><path fill="#a8180f" d="M 111.210938 32.617188 C 111.210938 32.253906 111.210938 31.890625 110.808594 31.890625 C 110.402344 31.890625 110.402344 32.253906 110.402344 32.617188 L 110.402344 51.359375 C 110.402344 51.722656 110.402344 52.085938 110.808594 52.085938 C 111.210938 52.085938 111.210938 51.722656 111.210938 51.359375 Z M 111.210938 32.617188 " fill-opacity="1" fill-rule="nonzero"/></g><path fill="#a8180f" d="M 126.917969 28.589844 C 127.261719 28.589844 127.625 28.589844 127.625 28.1875 C 127.625 27.78125 127.261719 27.78125 126.917969 27.78125 L 115.992188 27.78125 C 115.648438 27.78125 115.285156 27.78125 115.285156 28.1875 C 115.285156 28.589844 115.648438 28.589844 115.992188 28.589844 Z M 126.917969 28.589844 " fill-opacity="1" fill-rule="nonzero"/><path fill="#a8180f" d="M 137.8125 28.589844 C 138.15625 28.589844 138.519531 28.589844 138.519531 28.1875 C 138.519531 27.78125 138.15625 27.78125 137.8125 27.78125 L 126.886719 27.78125 C 126.542969 27.78125 126.179688 27.78125 126.179688 28.1875 C 126.179688 28.589844 126.542969 28.589844 126.886719 28.589844 Z M 137.8125 28.589844 " fill-opacity="1" fill-rule="nonzero"/><path fill="#a8180f" d="M 149.035156 28.589844 C 149.378906 28.589844 149.742188 28.589844 149.742188 28.1875 C 149.742188 27.78125 149.378906 27.78125 149.035156 27.78125 L 138.109375 27.78125 C 137.765625 27.78125 137.402344 27.78125 137.402344 28.1875 C 137.402344 28.589844 137.765625 28.589844 138.109375 28.589844 Z M 149.035156 28.589844 " fill-opacity="1" fill-rule="nonzero"/><path fill="#a8180f" d="M 160.253906 28.589844 C 160.597656 28.589844 160.960938 28.589844 160.960938 28.1875 C 160.960938 27.78125 160.597656 27.78125 160.253906 27.78125 L 149.328125 27.78125 C 148.984375 27.78125 148.621094 27.78125 148.621094 28.1875 C 148.621094 28.589844 148.984375 28.589844 149.328125 28.589844 Z M 160.253906 28.589844 " fill-opacity="1" fill-rule="nonzero"/><path fill="#a8180f" d="M 171.472656 28.589844 C 171.816406 28.589844 172.179688 28.589844 172.179688 28.1875 C 172.179688 27.78125 171.816406 27.78125 171.472656 27.78125 L 160.546875 27.78125 C 160.203125 27.78125 159.839844 27.78125 159.839844 28.1875 C 159.839844 28.589844 160.203125 28.589844 160.546875 28.589844 Z M 171.472656 28.589844 " fill-opacity="1" fill-rule="nonzero"/><path fill="#a8180f" d="M 182.691406 28.589844 C 183.035156 28.589844 183.398438 28.589844 183.398438 28.1875 C 183.398438 27.78125 183.035156 27.78125 182.691406 27.78125 L 171.765625 27.78125 C 171.421875 27.78125 171.058594 27.78125 171.058594 28.1875 C 171.058594 28.589844 171.421875 28.589844 171.765625 28.589844 Z M 182.691406 28.589844 " fill-opacity="1" fill-rule="nonzero"/><g clip-path="url(#534b8f4b21)"><path fill="#a8180f" d="M 197.121094 28.589844 C 196.007812 29.4375 195.464844 30.265625 195.300781 30.527344 C 194.394531 31.921875 194.230469 33.195312 194.230469 33.214844 C 194.230469 33.457031 194.472656 33.457031 194.636719 33.457031 C 194.980469 33.457031 195 33.417969 195.082031 33.054688 C 195.542969 31.074219 196.738281 29.378906 199.019531 28.449219 C 199.261719 28.367188 199.320312 28.328125 199.320312 28.1875 C 199.320312 28.042969 199.199219 27.984375 199.160156 27.964844 C 198.269531 27.621094 195.828125 26.609375 195.058594 23.21875 C 195 22.976562 194.980469 22.914062 194.636719 22.914062 C 194.472656 22.914062 194.230469 22.914062 194.230469 23.15625 C 194.230469 23.199219 194.414062 24.46875 195.261719 25.824219 C 195.667969 26.429688 196.25 27.136719 197.121094 27.78125 L 182.113281 27.78125 C 181.75 27.78125 181.386719 27.78125 181.386719 28.1875 C 181.386719 28.589844 181.75 28.589844 182.113281 28.589844 Z M 197.121094 28.589844 " fill-opacity="1" fill-rule="nonzero"/></g><path fill="#a8180f" d="M 117.042969 44.792969 C 116.335938 45.984375 115.648438 46.390625 114.679688 46.449219 C 114.457031 46.472656 114.296875 46.472656 114.296875 46.835938 C 114.296875 46.957031 114.398438 47.035156 114.539062 47.035156 C 114.902344 47.035156 115.8125 46.996094 116.175781 46.996094 C 116.761719 46.996094 117.40625 47.035156 117.972656 47.035156 C 118.09375 47.035156 118.335938 47.035156 118.335938 46.652344 C 118.335938 46.472656 118.175781 46.449219 118.054688 46.449219 C 117.589844 46.410156 117.203125 46.25 117.203125 45.765625 C 117.203125 45.480469 117.324219 45.257812 117.589844 44.816406 L 119.125 42.269531 L 124.273438 42.269531 C 124.292969 42.453125 124.292969 42.613281 124.3125 42.796875 C 124.375 43.320312 124.617188 45.421875 124.617188 45.804688 C 124.617188 46.410156 123.585938 46.449219 123.261719 46.449219 C 123.042969 46.449219 122.820312 46.449219 122.820312 46.8125 C 122.820312 47.035156 123 47.035156 123.121094 47.035156 C 123.464844 47.035156 123.871094 46.996094 124.210938 46.996094 L 125.363281 46.996094 C 126.597656 46.996094 127.484375 47.035156 127.503906 47.035156 C 127.644531 47.035156 127.867188 47.035156 127.867188 46.652344 C 127.867188 46.449219 127.6875 46.449219 127.382812 46.449219 C 126.273438 46.449219 126.253906 46.269531 126.191406 45.664062 L 124.960938 33.0625 C 124.917969 32.65625 124.839844 32.617188 124.617188 32.617188 C 124.414062 32.617188 124.292969 32.65625 124.113281 32.960938 Z M 119.464844 41.683594 L 123.527344 34.898438 L 124.210938 41.683594 Z M 119.464844 41.683594 " fill-opacity="1" fill-rule="nonzero"/><path fill="#a8180f" d="M 135.828125 34.617188 C 136.007812 33.867188 136.089844 33.828125 136.878906 33.828125 L 139.503906 33.828125 C 141.785156 33.828125 141.785156 35.765625 141.785156 35.949219 C 141.785156 37.585938 140.148438 39.664062 137.484375 39.664062 L 134.574219 39.664062 Z M 139.238281 39.828125 C 141.441406 39.421875 143.441406 37.886719 143.441406 36.03125 C 143.441406 34.453125 142.046875 33.242188 139.765625 33.242188 L 133.28125 33.242188 C 132.898438 33.242188 132.714844 33.242188 132.714844 33.625 C 132.714844 33.828125 132.898438 33.828125 133.203125 33.828125 C 134.433594 33.828125 134.433594 33.988281 134.433594 34.210938 C 134.433594 34.253906 134.433594 34.375 134.351562 34.675781 L 131.625 45.542969 C 131.445312 46.25 131.402344 46.449219 129.988281 46.449219 C 129.605469 46.449219 129.40625 46.449219 129.40625 46.8125 C 129.40625 47.035156 129.527344 47.035156 129.929688 47.035156 L 136.855469 47.035156 C 139.945312 47.035156 142.328125 44.695312 142.328125 42.652344 C 142.328125 40.996094 140.875 39.988281 139.238281 39.828125 Z M 136.371094 46.449219 L 133.644531 46.449219 C 133.363281 46.449219 133.324219 46.449219 133.203125 46.429688 C 132.980469 46.410156 132.960938 46.371094 132.960938 46.207031 C 132.960938 46.066406 133 45.945312 133.039062 45.765625 L 134.453125 40.070312 L 138.25 40.070312 C 140.632812 40.070312 140.632812 42.289062 140.632812 42.453125 C 140.632812 44.390625 138.875 46.449219 136.371094 46.449219 Z M 136.371094 46.449219 " fill-opacity="1" fill-rule="nonzero"/><path fill="#a8180f" d="M 157.023438 42.371094 L 162.597656 42.371094 C 162.878906 42.371094 163.242188 42.371094 163.242188 42.007812 C 163.242188 41.625 162.898438 41.625 162.597656 41.625 L 157.023438 41.625 L 157.023438 36.050781 C 157.023438 35.765625 157.023438 35.402344 156.660156 35.402344 C 156.273438 35.402344 156.273438 35.746094 156.273438 36.050781 L 156.273438 41.625 L 150.699219 41.625 C 150.417969 41.625 150.054688 41.625 150.054688 41.988281 C 150.054688 42.371094 150.398438 42.371094 150.699219 42.371094 L 156.273438 42.371094 L 156.273438 47.945312 C 156.273438 48.226562 156.273438 48.589844 156.636719 48.589844 C 157.023438 48.589844 157.023438 48.25 157.023438 47.945312 Z M 157.023438 42.371094 " fill-opacity="1" fill-rule="nonzero"/><path fill="#a8180f" d="M 176.226562 34.617188 C 176.40625 33.867188 176.488281 33.828125 177.273438 33.828125 L 179.902344 33.828125 C 182.183594 33.828125 182.183594 35.765625 182.183594 35.949219 C 182.183594 37.585938 180.546875 39.664062 177.882812 39.664062 L 174.972656 39.664062 Z M 179.636719 39.828125 C 181.839844 39.421875 183.839844 37.886719 183.839844 36.03125 C 183.839844 34.453125 182.445312 33.242188 180.164062 33.242188 L 173.679688 33.242188 C 173.296875 33.242188 173.113281 33.242188 173.113281 33.625 C 173.113281 33.828125 173.296875 33.828125 173.597656 33.828125 C 174.832031 33.828125 174.832031 33.988281 174.832031 34.210938 C 174.832031 34.253906 174.832031 34.375 174.75 34.675781 L 172.023438 45.542969 C 171.84375 46.25 171.800781 46.449219 170.386719 46.449219 C 170.003906 46.449219 169.800781 46.449219 169.800781 46.8125 C 169.800781 47.035156 169.925781 47.035156 170.328125 47.035156 L 177.253906 47.035156 C 180.34375 47.035156 182.726562 44.695312 182.726562 42.652344 C 182.726562 40.996094 181.273438 39.988281 179.636719 39.828125 Z M 176.769531 46.449219 L 174.042969 46.449219 C 173.761719 46.449219 173.722656 46.449219 173.597656 46.429688 C 173.378906 46.410156 173.355469 46.371094 173.355469 46.207031 C 173.355469 46.066406 173.398438 45.945312 173.4375 45.765625 L 174.851562 40.070312 L 178.648438 40.070312 C 181.03125 40.070312 181.03125 42.289062 181.03125 42.453125 C 181.03125 44.390625 179.273438 46.449219 176.769531 46.449219 Z M 176.769531 46.449219 " fill-opacity="1" fill-rule="nonzero"/><path fill="#a8180f" d="M 199.960938 33 C 199.960938 32.820312 199.820312 32.820312 199.78125 32.820312 C 199.738281 32.820312 199.660156 32.820312 199.496094 33.019531 L 198.101562 34.71875 C 197.398438 33.503906 196.285156 32.820312 194.769531 32.820312 C 190.410156 32.820312 185.886719 37.242188 185.886719 41.988281 C 185.886719 45.359375 188.246094 47.460938 191.195312 47.460938 C 192.8125 47.460938 194.226562 46.773438 195.398438 45.785156 C 197.152344 44.308594 197.679688 42.351562 197.679688 42.1875 C 197.679688 42.007812 197.519531 42.007812 197.457031 42.007812 C 197.273438 42.007812 197.253906 42.128906 197.214844 42.210938 C 196.285156 45.359375 193.558594 46.875 191.539062 46.875 C 189.398438 46.875 187.539062 45.5 187.539062 42.632812 C 187.539062 41.988281 187.742188 38.472656 190.023438 35.828125 C 191.136719 34.535156 193.035156 33.402344 194.953125 33.402344 C 197.175781 33.402344 198.164062 35.242188 198.164062 37.300781 C 198.164062 37.828125 198.101562 38.269531 198.101562 38.351562 C 198.101562 38.535156 198.304688 38.535156 198.367188 38.535156 C 198.589844 38.535156 198.609375 38.515625 198.6875 38.148438 Z M 199.960938 33 " fill-opacity="1" fill-rule="nonzero"/><g clip-path="url(#960d9e3c97)"><path fill="#a8180f" d="M 203.683594 32.617188 C 203.683594 32.253906 203.683594 31.890625 203.28125 31.890625 C 202.878906 31.890625 202.878906 32.253906 202.878906 32.617188 L 202.878906 51.359375 C 202.878906 51.722656 202.878906 52.085938 203.28125 52.085938 C 203.683594 52.085938 203.683594 51.722656 203.683594 51.359375 Z M 203.683594 32.617188 " fill-opacity="1" fill-rule="nonzero"/></g><path fill="#a8180f" d="M 225.324219 40.492188 C 225.609375 40.492188 225.972656 40.492188 225.972656 40.128906 C 225.972656 39.746094 225.628906 39.746094 225.324219 39.746094 L 213.429688 39.746094 C 213.148438 39.746094 212.785156 39.746094 212.785156 40.109375 C 212.785156 40.492188 213.125 40.492188 213.429688 40.492188 Z M 225.324219 44.25 C 225.609375 44.25 225.972656 44.25 225.972656 43.886719 C 225.972656 43.503906 225.628906 43.503906 225.324219 43.503906 L 213.429688 43.503906 C 213.148438 43.503906 212.785156 43.503906 212.785156 43.867188 C 212.785156 44.25 213.125 44.25 213.429688 44.25 Z M 225.324219 44.25 " fill-opacity="1" fill-rule="nonzero"/><path fill="#a8180f" d="M 238.703125 39.746094 C 239.710938 39.199219 241.1875 38.269531 241.1875 36.574219 C 241.1875 34.816406 239.488281 33.605469 237.632812 33.605469 C 235.632812 33.605469 234.058594 35.082031 234.058594 36.917969 C 234.058594 37.605469 234.257812 38.292969 234.824219 38.976562 C 235.046875 39.242188 235.066406 39.261719 236.480469 40.25 C 234.523438 41.160156 233.511719 42.511719 233.511719 43.988281 C 233.511719 46.128906 235.550781 47.460938 237.613281 47.460938 C 239.855469 47.460938 241.730469 45.804688 241.730469 43.683594 C 241.730469 41.625 240.277344 40.714844 238.703125 39.746094 Z M 235.957031 37.929688 C 235.691406 37.746094 234.886719 37.222656 234.886719 36.230469 C 234.886719 34.917969 236.257812 34.089844 237.613281 34.089844 C 239.066406 34.089844 240.359375 35.140625 240.359375 36.59375 C 240.359375 37.828125 239.46875 38.816406 238.296875 39.464844 Z M 236.90625 40.535156 L 239.347656 42.128906 C 239.875 42.472656 240.804688 43.097656 240.804688 44.332031 C 240.804688 45.863281 239.246094 46.914062 237.632812 46.914062 C 235.914062 46.914062 234.441406 45.664062 234.441406 43.988281 C 234.441406 42.410156 235.59375 41.140625 236.90625 40.535156 Z M 236.90625 40.535156 " fill-opacity="1" fill-rule="nonzero"/><path fill="#a8180f" d="M 246.289062 46.066406 C 246.289062 45.480469 245.804688 45.078125 245.316406 45.078125 C 244.734375 45.078125 244.328125 45.5625 244.328125 46.046875 C 244.328125 46.632812 244.8125 47.035156 245.296875 47.035156 C 245.882812 47.035156 246.289062 46.550781 246.289062 46.066406 Z M 246.289062 46.066406 " fill-opacity="1" fill-rule="nonzero"/><path fill="#a8180f" d="M 257.113281 40.574219 C 257.113281 38.898438 257.011719 37.261719 256.285156 35.726562 C 255.457031 34.050781 254 33.605469 253.011719 33.605469 C 251.839844 33.605469 250.40625 34.191406 249.660156 35.867188 C 249.09375 37.140625 248.890625 38.390625 248.890625 40.574219 C 248.890625 42.53125 249.03125 44.007812 249.761719 45.441406 C 250.546875 46.976562 251.941406 47.460938 252.992188 47.460938 C 254.75 47.460938 255.757812 46.410156 256.34375 45.238281 C 257.070312 43.722656 257.113281 41.746094 257.113281 40.574219 Z M 252.992188 47.054688 C 252.34375 47.054688 251.03125 46.691406 250.648438 44.492188 C 250.425781 43.28125 250.425781 41.746094 250.425781 40.332031 C 250.425781 38.675781 250.425781 37.179688 250.75 35.988281 C 251.09375 34.636719 252.121094 34.011719 252.992188 34.011719 C 253.757812 34.011719 254.929688 34.472656 255.3125 36.210938 C 255.578125 37.363281 255.578125 38.957031 255.578125 40.332031 C 255.578125 41.683594 255.578125 43.21875 255.355469 44.453125 C 254.96875 46.671875 253.699219 47.054688 252.992188 47.054688 Z M 252.992188 47.054688 " fill-opacity="1" fill-rule="nonzero"/><path fill="#a8180f" d="M 260.433594 40.007812 C 260.433594 34.898438 262.917969 34.089844 264.011719 34.089844 C 264.738281 34.089844 265.464844 34.3125 265.847656 34.917969 C 265.605469 34.917969 264.839844 34.917969 264.839844 35.746094 C 264.839844 36.191406 265.140625 36.574219 265.667969 36.574219 C 266.171875 36.574219 266.515625 36.273438 266.515625 35.6875 C 266.515625 34.636719 265.746094 33.605469 263.988281 33.605469 C 261.445312 33.605469 258.777344 36.210938 258.777344 40.65625 C 258.777344 46.207031 261.203125 47.460938 262.917969 47.460938 C 265.121094 47.460938 267 45.542969 267 42.917969 C 267 40.230469 265.121094 38.433594 263.101562 38.433594 C 261.304688 38.433594 260.636719 39.988281 260.433594 40.554688 Z M 262.917969 46.914062 C 261.648438 46.914062 261.042969 45.785156 260.859375 45.359375 C 260.675781 44.835938 260.476562 43.84375 260.476562 42.433594 C 260.476562 40.835938 261.203125 38.835938 263.019531 38.835938 C 264.132812 38.835938 264.71875 39.585938 265.019531 40.269531 C 265.34375 41.019531 265.34375 42.027344 265.34375 42.894531 C 265.34375 43.925781 265.34375 44.835938 264.960938 45.601562 C 264.453125 46.570312 263.726562 46.914062 262.917969 46.914062 Z M 262.917969 46.914062 " fill-opacity="1" fill-rule="nonzero"/></svg>