<svg xmlns="http://www.w3.org/2000/svg" xmlns:xlink="http://www.w3.org/1999/xlink" width="500" zoomAndPan="magnify" viewBox="0 0 375 74.999997" height="100" preserveAspectRatio="xMidYMid meet" version="1.0"><defs><g/><clipPath id="3e64b0d59f"><path d="M 63 38.105469 L 85 38.105469 L 85 51 L 63 51 Z M 63 38.105469 " clip-rule="nonzero"/></clipPath><clipPath id="bd2dcbe193"><path d="M 115 38.105469 L 137 38.105469 L 137 51 L 115 51 Z M 115 38.105469 " clip-rule="nonzero"/></clipPath><clipPath id="bc98ed7937"><path d="M 182 48 L 189 48 L 189 71.855469 L 182 71.855469 Z M 182 48 " clip-rule="nonzero"/></clipPath><clipPath id="d92cb7ded9"><path d="M 202 38.105469 L 224 38.105469 L 224 51 L 202 51 Z M 202 38.105469 " clip-rule="nonzero"/></clipPath><clipPath id="b55b80b9d7"><path d="M 275 38.105469 L 297 38.105469 L 297 51 L 275 51 Z M 275 38.105469 " clip-rule="nonzero"/></clipPath><clipPath id="05ad7ba19c"><path d="M 299 48 L 305 48 L 305 71.855469 L 299 71.855469 Z M 299 48 " clip-rule="nonzero"/></clipPath></defs><g fill="#17191a" fill-opacity="1"><g transform="translate(0.0000075, 31.353556)"><g><path d="M 3.421875 -7.1875 L 4.65625 -7.1875 C 5.414062 -7.195312 6.015625 -7.398438 6.453125 -7.796875 C 6.898438 -8.191406 7.125 -8.722656 7.125 -9.390625 C 7.125 -10.890625 6.375 -11.640625 4.875 -11.640625 C 4.175781 -11.640625 3.613281 -11.4375 3.1875 -11.03125 C 2.769531 -10.632812 2.5625 -10.101562 2.5625 -9.4375 L 0.9375 -9.4375 C 0.9375 -10.445312 1.304688 -11.285156 2.046875 -11.953125 C 2.796875 -12.628906 3.738281 -12.96875 4.875 -12.96875 C 6.082031 -12.96875 7.03125 -12.648438 7.71875 -12.015625 C 8.40625 -11.378906 8.75 -10.492188 8.75 -9.359375 C 8.75 -8.796875 8.566406 -8.253906 8.203125 -7.734375 C 7.847656 -7.210938 7.359375 -6.820312 6.734375 -6.5625 C 7.429688 -6.34375 7.972656 -5.972656 8.359375 -5.453125 C 8.742188 -4.941406 8.9375 -4.3125 8.9375 -3.5625 C 8.9375 -2.414062 8.5625 -1.503906 7.8125 -0.828125 C 7.0625 -0.160156 6.082031 0.171875 4.875 0.171875 C 3.675781 0.171875 2.703125 -0.148438 1.953125 -0.796875 C 1.203125 -1.453125 0.828125 -2.3125 0.828125 -3.375 L 2.46875 -3.375 C 2.46875 -2.695312 2.6875 -2.15625 3.125 -1.75 C 3.5625 -1.351562 4.148438 -1.15625 4.890625 -1.15625 C 5.671875 -1.15625 6.269531 -1.359375 6.6875 -1.765625 C 7.101562 -2.171875 7.3125 -2.757812 7.3125 -3.53125 C 7.3125 -4.28125 7.082031 -4.851562 6.625 -5.25 C 6.164062 -5.644531 5.507812 -5.847656 4.65625 -5.859375 L 3.421875 -5.859375 Z M 3.421875 -7.1875 "/></g></g></g><g fill="#17191a" fill-opacity="1"><g transform="translate(10.100848, 31.353556)"><g><path d="M 4.984375 -5.109375 C 4.984375 -3.796875 4.8125 -2.539062 4.46875 -1.34375 C 4.125 -0.144531 3.597656 0.957031 2.890625 1.96875 C 2.191406 2.976562 1.453125 3.695312 0.671875 4.125 L 0.328125 3.140625 C 1.234375 2.441406 1.957031 1.367188 2.5 -0.078125 C 3.050781 -1.535156 3.332031 -3.15625 3.34375 -4.9375 L 3.34375 -5.21875 C 3.34375 -6.445312 3.210938 -7.585938 2.953125 -8.640625 C 2.703125 -9.703125 2.347656 -10.648438 1.890625 -11.484375 C 1.429688 -12.328125 0.910156 -12.984375 0.328125 -13.453125 L 0.671875 -14.4375 C 1.453125 -14.007812 2.191406 -13.296875 2.890625 -12.296875 C 3.585938 -11.296875 4.109375 -10.191406 4.453125 -8.984375 C 4.804688 -7.773438 4.984375 -6.484375 4.984375 -5.109375 Z M 4.984375 -5.109375 "/></g></g></g><g fill="#17191a" fill-opacity="1"><g transform="translate(16.354586, 31.353556)"><g/></g></g><g fill="#17191a" fill-opacity="1"><g transform="translate(20.807745, 31.353556)"><g><path d="M 11.328125 -5.984375 C 11.328125 -4.734375 11.113281 -3.640625 10.6875 -2.703125 C 10.269531 -1.765625 9.675781 -1.050781 8.90625 -0.5625 C 8.132812 -0.0703125 7.234375 0.171875 6.203125 0.171875 C 5.191406 0.171875 4.296875 -0.0703125 3.515625 -0.5625 C 2.734375 -1.0625 2.128906 -1.769531 1.703125 -2.6875 C 1.273438 -3.601562 1.050781 -4.664062 1.03125 -5.875 L 1.03125 -6.796875 C 1.03125 -8.023438 1.242188 -9.109375 1.671875 -10.046875 C 2.109375 -10.992188 2.71875 -11.71875 3.5 -12.21875 C 4.28125 -12.71875 5.171875 -12.96875 6.171875 -12.96875 C 7.203125 -12.96875 8.109375 -12.71875 8.890625 -12.21875 C 9.671875 -11.726562 10.269531 -11.015625 10.6875 -10.078125 C 11.113281 -9.140625 11.328125 -8.046875 11.328125 -6.796875 Z M 9.65625 -6.8125 C 9.65625 -8.332031 9.347656 -9.492188 8.734375 -10.296875 C 8.128906 -11.109375 7.273438 -11.515625 6.171875 -11.515625 C 5.109375 -11.515625 4.269531 -11.109375 3.65625 -10.296875 C 3.050781 -9.492188 2.738281 -8.367188 2.71875 -6.921875 L 2.71875 -5.984375 C 2.71875 -4.515625 3.023438 -3.359375 3.640625 -2.515625 C 4.265625 -1.671875 5.117188 -1.25 6.203125 -1.25 C 7.285156 -1.25 8.125 -1.644531 8.71875 -2.4375 C 9.320312 -3.238281 9.632812 -4.378906 9.65625 -5.859375 Z M 9.65625 -6.8125 "/></g></g></g><g fill="#17191a" fill-opacity="1"><g transform="translate(33.174687, 31.353556)"><g><path d="M 0.828125 -4.828125 C 0.828125 -6.285156 1.171875 -7.457031 1.859375 -8.34375 C 2.554688 -9.238281 3.46875 -9.6875 4.59375 -9.6875 C 5.707031 -9.6875 6.585938 -9.304688 7.234375 -8.546875 L 7.234375 -13.5 L 8.859375 -13.5 L 8.859375 0 L 7.359375 0 L 7.28125 -1.015625 C 6.632812 -0.222656 5.734375 0.171875 4.578125 0.171875 C 3.472656 0.171875 2.570312 -0.273438 1.875 -1.171875 C 1.175781 -2.078125 0.828125 -3.257812 0.828125 -4.71875 Z M 2.46875 -4.65625 C 2.46875 -3.570312 2.6875 -2.722656 3.125 -2.109375 C 3.570312 -1.503906 4.1875 -1.203125 4.96875 -1.203125 C 6 -1.203125 6.753906 -1.664062 7.234375 -2.59375 L 7.234375 -6.96875 C 6.742188 -7.863281 6 -8.3125 5 -8.3125 C 4.195312 -8.3125 3.570312 -8 3.125 -7.375 C 2.6875 -6.757812 2.46875 -5.851562 2.46875 -4.65625 Z M 2.46875 -4.65625 "/></g></g></g><g fill="#17191a" fill-opacity="1"><g transform="translate(43.319451, 31.353556)"><g><path d="M 5.828125 -8.046875 C 5.578125 -8.085938 5.3125 -8.109375 5.03125 -8.109375 C 3.957031 -8.109375 3.234375 -7.65625 2.859375 -6.75 L 2.859375 0 L 1.234375 0 L 1.234375 -9.515625 L 2.8125 -9.515625 L 2.84375 -8.40625 C 3.375 -9.257812 4.128906 -9.6875 5.109375 -9.6875 C 5.421875 -9.6875 5.660156 -9.644531 5.828125 -9.5625 Z M 5.828125 -8.046875 "/></g></g></g><g fill="#17191a" fill-opacity="1"><g transform="translate(49.406311, 31.353556)"><g><path d="M 5.171875 0.171875 C 3.890625 0.171875 2.84375 -0.25 2.03125 -1.09375 C 1.21875 -1.9375 0.8125 -3.066406 0.8125 -4.484375 L 0.8125 -4.796875 C 0.8125 -5.734375 0.992188 -6.570312 1.359375 -7.3125 C 1.722656 -8.050781 2.226562 -8.628906 2.875 -9.046875 C 3.519531 -9.472656 4.21875 -9.6875 4.96875 -9.6875 C 6.207031 -9.6875 7.171875 -9.28125 7.859375 -8.46875 C 8.546875 -7.65625 8.890625 -6.488281 8.890625 -4.96875 L 8.890625 -4.296875 L 2.4375 -4.296875 C 2.46875 -3.359375 2.742188 -2.597656 3.265625 -2.015625 C 3.785156 -1.441406 4.453125 -1.15625 5.265625 -1.15625 C 5.835938 -1.15625 6.320312 -1.269531 6.71875 -1.5 C 7.125 -1.738281 7.472656 -2.050781 7.765625 -2.4375 L 8.765625 -1.65625 C 7.960938 -0.4375 6.765625 0.171875 5.171875 0.171875 Z M 4.96875 -8.34375 C 4.3125 -8.34375 3.757812 -8.101562 3.3125 -7.625 C 2.875 -7.15625 2.601562 -6.488281 2.5 -5.625 L 7.265625 -5.625 L 7.265625 -5.75 C 7.210938 -6.570312 6.988281 -7.207031 6.59375 -7.65625 C 6.195312 -8.113281 5.65625 -8.34375 4.96875 -8.34375 Z M 4.96875 -8.34375 "/></g></g></g><g fill="#17191a" fill-opacity="1"><g transform="translate(58.93624, 31.353556)"><g><path d="M 0.828125 -4.828125 C 0.828125 -6.285156 1.171875 -7.457031 1.859375 -8.34375 C 2.554688 -9.238281 3.46875 -9.6875 4.59375 -9.6875 C 5.707031 -9.6875 6.585938 -9.304688 7.234375 -8.546875 L 7.234375 -13.5 L 8.859375 -13.5 L 8.859375 0 L 7.359375 0 L 7.28125 -1.015625 C 6.632812 -0.222656 5.734375 0.171875 4.578125 0.171875 C 3.472656 0.171875 2.570312 -0.273438 1.875 -1.171875 C 1.175781 -2.078125 0.828125 -3.257812 0.828125 -4.71875 Z M 2.46875 -4.65625 C 2.46875 -3.570312 2.6875 -2.722656 3.125 -2.109375 C 3.570312 -1.503906 4.1875 -1.203125 4.96875 -1.203125 C 6 -1.203125 6.753906 -1.664062 7.234375 -2.59375 L 7.234375 -6.96875 C 6.742188 -7.863281 6 -8.3125 5 -8.3125 C 4.195312 -8.3125 3.570312 -8 3.125 -7.375 C 2.6875 -6.757812 2.46875 -5.851562 2.46875 -4.65625 Z M 2.46875 -4.65625 "/></g></g></g><g fill="#17191a" fill-opacity="1"><g transform="translate(69.081003, 31.353556)"><g><path d="M 3 0 L 1.375 0 L 1.375 -9.515625 L 3 -9.515625 Z M 1.234375 -12.03125 C 1.234375 -12.289062 1.3125 -12.507812 1.46875 -12.6875 C 1.632812 -12.875 1.875 -12.96875 2.1875 -12.96875 C 2.507812 -12.96875 2.753906 -12.875 2.921875 -12.6875 C 3.085938 -12.507812 3.171875 -12.289062 3.171875 -12.03125 C 3.171875 -11.769531 3.085938 -11.550781 2.921875 -11.375 C 2.753906 -11.195312 2.507812 -11.109375 2.1875 -11.109375 C 1.875 -11.109375 1.632812 -11.195312 1.46875 -11.375 C 1.3125 -11.550781 1.234375 -11.769531 1.234375 -12.03125 Z M 1.234375 -12.03125 "/></g></g></g><g fill="#17191a" fill-opacity="1"><g transform="translate(73.446329, 31.353556)"><g/></g></g><g fill="#17191a" fill-opacity="1"><g transform="translate(77.899488, 31.353556)"><g><path d="M 5.828125 -8.046875 C 5.578125 -8.085938 5.3125 -8.109375 5.03125 -8.109375 C 3.957031 -8.109375 3.234375 -7.65625 2.859375 -6.75 L 2.859375 0 L 1.234375 0 L 1.234375 -9.515625 L 2.8125 -9.515625 L 2.84375 -8.40625 C 3.375 -9.257812 4.128906 -9.6875 5.109375 -9.6875 C 5.421875 -9.6875 5.660156 -9.644531 5.828125 -9.5625 Z M 5.828125 -8.046875 "/></g></g></g><g fill="#17191a" fill-opacity="1"><g transform="translate(83.986348, 31.353556)"><g><path d="M 5.171875 0.171875 C 3.890625 0.171875 2.84375 -0.25 2.03125 -1.09375 C 1.21875 -1.9375 0.8125 -3.066406 0.8125 -4.484375 L 0.8125 -4.796875 C 0.8125 -5.734375 0.992188 -6.570312 1.359375 -7.3125 C 1.722656 -8.050781 2.226562 -8.628906 2.875 -9.046875 C 3.519531 -9.472656 4.21875 -9.6875 4.96875 -9.6875 C 6.207031 -9.6875 7.171875 -9.28125 7.859375 -8.46875 C 8.546875 -7.65625 8.890625 -6.488281 8.890625 -4.96875 L 8.890625 -4.296875 L 2.4375 -4.296875 C 2.46875 -3.359375 2.742188 -2.597656 3.265625 -2.015625 C 3.785156 -1.441406 4.453125 -1.15625 5.265625 -1.15625 C 5.835938 -1.15625 6.320312 -1.269531 6.71875 -1.5 C 7.125 -1.738281 7.472656 -2.050781 7.765625 -2.4375 L 8.765625 -1.65625 C 7.960938 -0.4375 6.765625 0.171875 5.171875 0.171875 Z M 4.96875 -8.34375 C 4.3125 -8.34375 3.757812 -8.101562 3.3125 -7.625 C 2.875 -7.15625 2.601562 -6.488281 2.5 -5.625 L 7.265625 -5.625 L 7.265625 -5.75 C 7.210938 -6.570312 6.988281 -7.207031 6.59375 -7.65625 C 6.195312 -8.113281 5.65625 -8.34375 4.96875 -8.34375 Z M 4.96875 -8.34375 "/></g></g></g><g fill="#17191a" fill-opacity="1"><g transform="translate(93.516277, 31.353556)"><g><path d="M 7.109375 0 C 7.015625 -0.1875 6.9375 -0.519531 6.875 -1 C 6.113281 -0.21875 5.210938 0.171875 4.171875 0.171875 C 3.234375 0.171875 2.460938 -0.09375 1.859375 -0.625 C 1.253906 -1.15625 0.953125 -1.828125 0.953125 -2.640625 C 0.953125 -3.628906 1.328125 -4.394531 2.078125 -4.9375 C 2.835938 -5.488281 3.898438 -5.765625 5.265625 -5.765625 L 6.84375 -5.765625 L 6.84375 -6.515625 C 6.84375 -7.078125 6.671875 -7.523438 6.328125 -7.859375 C 5.992188 -8.203125 5.492188 -8.375 4.828125 -8.375 C 4.253906 -8.375 3.769531 -8.226562 3.375 -7.9375 C 2.976562 -7.644531 2.78125 -7.289062 2.78125 -6.875 L 1.15625 -6.875 C 1.15625 -7.34375 1.320312 -7.796875 1.65625 -8.234375 C 1.988281 -8.679688 2.441406 -9.035156 3.015625 -9.296875 C 3.597656 -9.554688 4.238281 -9.6875 4.9375 -9.6875 C 6.03125 -9.6875 6.882812 -9.410156 7.5 -8.859375 C 8.125 -8.316406 8.445312 -7.5625 8.46875 -6.59375 L 8.46875 -2.21875 C 8.46875 -1.351562 8.582031 -0.660156 8.8125 -0.140625 L 8.8125 0 Z M 4.40625 -1.234375 C 4.914062 -1.234375 5.398438 -1.363281 5.859375 -1.625 C 6.316406 -1.894531 6.644531 -2.238281 6.84375 -2.65625 L 6.84375 -4.609375 L 5.578125 -4.609375 C 3.578125 -4.609375 2.578125 -4.023438 2.578125 -2.859375 C 2.578125 -2.347656 2.75 -1.945312 3.09375 -1.65625 C 3.4375 -1.375 3.875 -1.234375 4.40625 -1.234375 Z M 4.40625 -1.234375 "/></g></g></g><g fill="#17191a" fill-opacity="1"><g transform="translate(103.300918, 31.353556)"><g><path d="M 3 0 L 1.375 0 L 1.375 -13.5 L 3 -13.5 Z M 3 0 "/></g></g></g><g fill="#17191a" fill-opacity="1"><g transform="translate(107.666243, 31.353556)"><g><path d="M 2.765625 -9.515625 L 2.828125 -8.3125 C 3.546875 -9.226562 4.492188 -9.6875 5.671875 -9.6875 C 7.679688 -9.6875 8.691406 -8.550781 8.703125 -6.28125 L 8.703125 0 L 7.078125 0 L 7.078125 -6.296875 C 7.078125 -6.984375 6.921875 -7.488281 6.609375 -7.8125 C 6.304688 -8.144531 5.828125 -8.3125 5.171875 -8.3125 C 4.648438 -8.3125 4.1875 -8.171875 3.78125 -7.890625 C 3.382812 -7.609375 3.078125 -7.238281 2.859375 -6.78125 L 2.859375 0 L 1.234375 0 L 1.234375 -9.515625 Z M 2.765625 -9.515625 "/></g></g></g><g fill="#17191a" fill-opacity="1"><g transform="translate(117.591417, 31.353556)"><g><path d="M 5.171875 0.171875 C 3.890625 0.171875 2.84375 -0.25 2.03125 -1.09375 C 1.21875 -1.9375 0.8125 -3.066406 0.8125 -4.484375 L 0.8125 -4.796875 C 0.8125 -5.734375 0.992188 -6.570312 1.359375 -7.3125 C 1.722656 -8.050781 2.226562 -8.628906 2.875 -9.046875 C 3.519531 -9.472656 4.21875 -9.6875 4.96875 -9.6875 C 6.207031 -9.6875 7.171875 -9.28125 7.859375 -8.46875 C 8.546875 -7.65625 8.890625 -6.488281 8.890625 -4.96875 L 8.890625 -4.296875 L 2.4375 -4.296875 C 2.46875 -3.359375 2.742188 -2.597656 3.265625 -2.015625 C 3.785156 -1.441406 4.453125 -1.15625 5.265625 -1.15625 C 5.835938 -1.15625 6.320312 -1.269531 6.71875 -1.5 C 7.125 -1.738281 7.472656 -2.050781 7.765625 -2.4375 L 8.765625 -1.65625 C 7.960938 -0.4375 6.765625 0.171875 5.171875 0.171875 Z M 4.96875 -8.34375 C 4.3125 -8.34375 3.757812 -8.101562 3.3125 -7.625 C 2.875 -7.15625 2.601562 -6.488281 2.5 -5.625 L 7.265625 -5.625 L 7.265625 -5.75 C 7.210938 -6.570312 6.988281 -7.207031 6.59375 -7.65625 C 6.195312 -8.113281 5.65625 -8.34375 4.96875 -8.34375 Z M 4.96875 -8.34375 "/></g></g></g><g fill="#17191a" fill-opacity="1"><g transform="translate(127.121347, 31.353556)"><g/></g></g><g fill="#17191a" fill-opacity="1"><g transform="translate(131.574506, 31.353556)"><g><path d="M 9.28125 -4.65625 C 9.28125 -3.195312 8.945312 -2.023438 8.28125 -1.140625 C 7.613281 -0.265625 6.71875 0.171875 5.59375 0.171875 C 4.382812 0.171875 3.453125 -0.25 2.796875 -1.09375 L 2.71875 0 L 1.234375 0 L 1.234375 -13.5 L 2.859375 -13.5 L 2.859375 -8.46875 C 3.515625 -9.28125 4.414062 -9.6875 5.5625 -9.6875 C 6.71875 -9.6875 7.625 -9.25 8.28125 -8.375 C 8.945312 -7.5 9.28125 -6.304688 9.28125 -4.796875 Z M 7.65625 -4.828125 C 7.65625 -5.941406 7.441406 -6.800781 7.015625 -7.40625 C 6.585938 -8.007812 5.972656 -8.3125 5.171875 -8.3125 C 4.097656 -8.3125 3.328125 -7.8125 2.859375 -6.8125 L 2.859375 -2.703125 C 3.359375 -1.703125 4.132812 -1.203125 5.1875 -1.203125 C 5.96875 -1.203125 6.570312 -1.503906 7 -2.109375 C 7.4375 -2.710938 7.65625 -3.617188 7.65625 -4.828125 Z M 7.65625 -4.828125 "/></g></g></g><g fill="#17191a" fill-opacity="1"><g transform="translate(141.666569, 31.353556)"><g><path d="M 5.828125 -8.046875 C 5.578125 -8.085938 5.3125 -8.109375 5.03125 -8.109375 C 3.957031 -8.109375 3.234375 -7.65625 2.859375 -6.75 L 2.859375 0 L 1.234375 0 L 1.234375 -9.515625 L 2.8125 -9.515625 L 2.84375 -8.40625 C 3.375 -9.257812 4.128906 -9.6875 5.109375 -9.6875 C 5.421875 -9.6875 5.660156 -9.644531 5.828125 -9.5625 Z M 5.828125 -8.046875 "/></g></g></g><g fill="#17191a" fill-opacity="1"><g transform="translate(147.753429, 31.353556)"><g><path d="M 0.796875 -4.84375 C 0.796875 -5.769531 0.976562 -6.601562 1.34375 -7.34375 C 1.71875 -8.09375 2.226562 -8.671875 2.875 -9.078125 C 3.53125 -9.484375 4.273438 -9.6875 5.109375 -9.6875 C 6.410156 -9.6875 7.457031 -9.238281 8.25 -8.34375 C 9.050781 -7.445312 9.453125 -6.253906 9.453125 -4.765625 L 9.453125 -4.65625 C 9.453125 -3.726562 9.273438 -2.894531 8.921875 -2.15625 C 8.566406 -1.425781 8.0625 -0.851562 7.40625 -0.4375 C 6.75 -0.03125 5.992188 0.171875 5.140625 0.171875 C 3.847656 0.171875 2.800781 -0.273438 2 -1.171875 C 1.195312 -2.066406 0.796875 -3.253906 0.796875 -4.734375 Z M 2.4375 -4.65625 C 2.4375 -3.59375 2.679688 -2.742188 3.171875 -2.109375 C 3.660156 -1.472656 4.316406 -1.15625 5.140625 -1.15625 C 5.960938 -1.15625 6.613281 -1.476562 7.09375 -2.125 C 7.582031 -2.769531 7.828125 -3.675781 7.828125 -4.84375 C 7.828125 -5.882812 7.578125 -6.726562 7.078125 -7.375 C 6.585938 -8.019531 5.929688 -8.34375 5.109375 -8.34375 C 4.304688 -8.34375 3.660156 -8.023438 3.171875 -7.390625 C 2.679688 -6.753906 2.4375 -5.84375 2.4375 -4.65625 Z M 2.4375 -4.65625 "/></g></g></g><g fill="#17191a" fill-opacity="1"><g transform="translate(158.01237, 31.353556)"><g><path d="M 2.90625 -9.515625 L 2.90625 1.09375 C 2.90625 2.925781 2.078125 3.84375 0.421875 3.84375 C 0.0664062 3.84375 -0.265625 3.789062 -0.578125 3.6875 L -0.578125 2.375 C -0.390625 2.425781 -0.140625 2.453125 0.171875 2.453125 C 0.535156 2.453125 0.8125 2.351562 1 2.15625 C 1.1875 1.957031 1.28125 1.617188 1.28125 1.140625 L 1.28125 -9.515625 Z M 1.109375 -12.03125 C 1.109375 -12.289062 1.1875 -12.507812 1.34375 -12.6875 C 1.507812 -12.875 1.75 -12.96875 2.0625 -12.96875 C 2.382812 -12.96875 2.625 -12.875 2.78125 -12.6875 C 2.945312 -12.507812 3.03125 -12.289062 3.03125 -12.03125 C 3.03125 -11.769531 2.945312 -11.550781 2.78125 -11.375 C 2.625 -11.195312 2.382812 -11.109375 2.0625 -11.109375 C 1.75 -11.109375 1.507812 -11.195312 1.34375 -11.375 C 1.1875 -11.550781 1.109375 -11.769531 1.109375 -12.03125 Z M 1.109375 -12.03125 "/></g></g></g><g fill="#17191a" fill-opacity="1"><g transform="translate(162.307428, 31.353556)"><g><path d="M 5.171875 0.171875 C 3.890625 0.171875 2.84375 -0.25 2.03125 -1.09375 C 1.21875 -1.9375 0.8125 -3.066406 0.8125 -4.484375 L 0.8125 -4.796875 C 0.8125 -5.734375 0.992188 -6.570312 1.359375 -7.3125 C 1.722656 -8.050781 2.226562 -8.628906 2.875 -9.046875 C 3.519531 -9.472656 4.21875 -9.6875 4.96875 -9.6875 C 6.207031 -9.6875 7.171875 -9.28125 7.859375 -8.46875 C 8.546875 -7.65625 8.890625 -6.488281 8.890625 -4.96875 L 8.890625 -4.296875 L 2.4375 -4.296875 C 2.46875 -3.359375 2.742188 -2.597656 3.265625 -2.015625 C 3.785156 -1.441406 4.453125 -1.15625 5.265625 -1.15625 C 5.835938 -1.15625 6.320312 -1.269531 6.71875 -1.5 C 7.125 -1.738281 7.472656 -2.050781 7.765625 -2.4375 L 8.765625 -1.65625 C 7.960938 -0.4375 6.765625 0.171875 5.171875 0.171875 Z M 4.96875 -8.34375 C 4.3125 -8.34375 3.757812 -8.101562 3.3125 -7.625 C 2.875 -7.15625 2.601562 -6.488281 2.5 -5.625 L 7.265625 -5.625 L 7.265625 -5.75 C 7.210938 -6.570312 6.988281 -7.207031 6.59375 -7.65625 C 6.195312 -8.113281 5.65625 -8.34375 4.96875 -8.34375 Z M 4.96875 -8.34375 "/></g></g></g><g fill="#17191a" fill-opacity="1"><g transform="translate(171.837358, 31.353556)"><g><path d="M 4.375 -2.203125 L 6.71875 -9.515625 L 8.390625 -9.515625 L 4.96875 0 L 3.734375 0 L 0.296875 -9.515625 L 1.953125 -9.515625 Z M 4.375 -2.203125 "/></g></g></g><g fill="#17191a" fill-opacity="1"><g transform="translate(180.550431, 31.353556)"><g><path d="M 5.171875 0.171875 C 3.890625 0.171875 2.84375 -0.25 2.03125 -1.09375 C 1.21875 -1.9375 0.8125 -3.066406 0.8125 -4.484375 L 0.8125 -4.796875 C 0.8125 -5.734375 0.992188 -6.570312 1.359375 -7.3125 C 1.722656 -8.050781 2.226562 -8.628906 2.875 -9.046875 C 3.519531 -9.472656 4.21875 -9.6875 4.96875 -9.6875 C 6.207031 -9.6875 7.171875 -9.28125 7.859375 -8.46875 C 8.546875 -7.65625 8.890625 -6.488281 8.890625 -4.96875 L 8.890625 -4.296875 L 2.4375 -4.296875 C 2.46875 -3.359375 2.742188 -2.597656 3.265625 -2.015625 C 3.785156 -1.441406 4.453125 -1.15625 5.265625 -1.15625 C 5.835938 -1.15625 6.320312 -1.269531 6.71875 -1.5 C 7.125 -1.738281 7.472656 -2.050781 7.765625 -2.4375 L 8.765625 -1.65625 C 7.960938 -0.4375 6.765625 0.171875 5.171875 0.171875 Z M 4.96875 -8.34375 C 4.3125 -8.34375 3.757812 -8.101562 3.3125 -7.625 C 2.875 -7.15625 2.601562 -6.488281 2.5 -5.625 L 7.265625 -5.625 L 7.265625 -5.75 C 7.210938 -6.570312 6.988281 -7.207031 6.59375 -7.65625 C 6.195312 -8.113281 5.65625 -8.34375 4.96875 -8.34375 Z M 4.96875 -8.34375 "/></g></g></g><g fill="#17191a" fill-opacity="1"><g transform="translate(190.08036, 31.353556)"><g/></g></g><g fill="#17191a" fill-opacity="1"><g transform="translate(194.533531, 31.353556)"><g><path d="M 7.109375 0 C 7.015625 -0.1875 6.9375 -0.519531 6.875 -1 C 6.113281 -0.21875 5.210938 0.171875 4.171875 0.171875 C 3.234375 0.171875 2.460938 -0.09375 1.859375 -0.625 C 1.253906 -1.15625 0.953125 -1.828125 0.953125 -2.640625 C 0.953125 -3.628906 1.328125 -4.394531 2.078125 -4.9375 C 2.835938 -5.488281 3.898438 -5.765625 5.265625 -5.765625 L 6.84375 -5.765625 L 6.84375 -6.515625 C 6.84375 -7.078125 6.671875 -7.523438 6.328125 -7.859375 C 5.992188 -8.203125 5.492188 -8.375 4.828125 -8.375 C 4.253906 -8.375 3.769531 -8.226562 3.375 -7.9375 C 2.976562 -7.644531 2.78125 -7.289062 2.78125 -6.875 L 1.15625 -6.875 C 1.15625 -7.34375 1.320312 -7.796875 1.65625 -8.234375 C 1.988281 -8.679688 2.441406 -9.035156 3.015625 -9.296875 C 3.597656 -9.554688 4.238281 -9.6875 4.9375 -9.6875 C 6.03125 -9.6875 6.882812 -9.410156 7.5 -8.859375 C 8.125 -8.316406 8.445312 -7.5625 8.46875 -6.59375 L 8.46875 -2.21875 C 8.46875 -1.351562 8.582031 -0.660156 8.8125 -0.140625 L 8.8125 0 Z M 4.40625 -1.234375 C 4.914062 -1.234375 5.398438 -1.363281 5.859375 -1.625 C 6.316406 -1.894531 6.644531 -2.238281 6.84375 -2.65625 L 6.84375 -4.609375 L 5.578125 -4.609375 C 3.578125 -4.609375 2.578125 -4.023438 2.578125 -2.859375 C 2.578125 -2.347656 2.75 -1.945312 3.09375 -1.65625 C 3.4375 -1.375 3.875 -1.234375 4.40625 -1.234375 Z M 4.40625 -1.234375 "/></g></g></g><g fill="#17191a" fill-opacity="1"><g transform="translate(204.318182, 31.353556)"><g/></g></g><g fill="#17191a" fill-opacity="1"><g transform="translate(208.771353, 31.353556)"><g><path d="M 3 0 L 1.375 0 L 1.375 -9.515625 L 3 -9.515625 Z M 1.234375 -12.03125 C 1.234375 -12.289062 1.3125 -12.507812 1.46875 -12.6875 C 1.632812 -12.875 1.875 -12.96875 2.1875 -12.96875 C 2.507812 -12.96875 2.753906 -12.875 2.921875 -12.6875 C 3.085938 -12.507812 3.171875 -12.289062 3.171875 -12.03125 C 3.171875 -11.769531 3.085938 -11.550781 2.921875 -11.375 C 2.753906 -11.195312 2.507812 -11.109375 2.1875 -11.109375 C 1.875 -11.109375 1.632812 -11.195312 1.46875 -11.375 C 1.3125 -11.550781 1.234375 -11.769531 1.234375 -12.03125 Z M 1.234375 -12.03125 "/></g></g></g><g fill="#17191a" fill-opacity="1"><g transform="translate(213.136678, 31.353556)"><g/></g></g><g fill="#17191a" fill-opacity="1"><g transform="translate(217.589849, 31.353556)"><g><path d="M 9.28125 -4.65625 C 9.28125 -3.195312 8.945312 -2.023438 8.28125 -1.140625 C 7.613281 -0.265625 6.71875 0.171875 5.59375 0.171875 C 4.382812 0.171875 3.453125 -0.25 2.796875 -1.09375 L 2.71875 0 L 1.234375 0 L 1.234375 -13.5 L 2.859375 -13.5 L 2.859375 -8.46875 C 3.515625 -9.28125 4.414062 -9.6875 5.5625 -9.6875 C 6.71875 -9.6875 7.625 -9.25 8.28125 -8.375 C 8.945312 -7.5 9.28125 -6.304688 9.28125 -4.796875 Z M 7.65625 -4.828125 C 7.65625 -5.941406 7.441406 -6.800781 7.015625 -7.40625 C 6.585938 -8.007812 5.972656 -8.3125 5.171875 -8.3125 C 4.097656 -8.3125 3.328125 -7.8125 2.859375 -6.8125 L 2.859375 -2.703125 C 3.359375 -1.703125 4.132812 -1.203125 5.1875 -1.203125 C 5.96875 -1.203125 6.570312 -1.503906 7 -2.109375 C 7.4375 -2.710938 7.65625 -3.617188 7.65625 -4.828125 Z M 7.65625 -4.828125 "/></g></g></g><g fill="#17191a" fill-opacity="1"><g transform="translate(227.681912, 31.353556)"><g/></g></g><g fill="#17191a" fill-opacity="1"><g transform="translate(232.135059, 31.353556)"><g><path d="M 2.765625 -1.328125 L 8.328125 -1.328125 L 8.328125 0 L 0.78125 0 L 0.78125 -1.203125 L 6.015625 -8.171875 L 0.859375 -8.171875 L 0.859375 -9.515625 L 8.0625 -9.515625 L 8.0625 -8.359375 Z M 2.765625 -1.328125 "/></g></g></g><g fill="#17191a" fill-opacity="1"><g transform="translate(241.050144, 31.353556)"><g><path d="M 7.109375 0 C 7.015625 -0.1875 6.9375 -0.519531 6.875 -1 C 6.113281 -0.21875 5.210938 0.171875 4.171875 0.171875 C 3.234375 0.171875 2.460938 -0.09375 1.859375 -0.625 C 1.253906 -1.15625 0.953125 -1.828125 0.953125 -2.640625 C 0.953125 -3.628906 1.328125 -4.394531 2.078125 -4.9375 C 2.835938 -5.488281 3.898438 -5.765625 5.265625 -5.765625 L 6.84375 -5.765625 L 6.84375 -6.515625 C 6.84375 -7.078125 6.671875 -7.523438 6.328125 -7.859375 C 5.992188 -8.203125 5.492188 -8.375 4.828125 -8.375 C 4.253906 -8.375 3.769531 -8.226562 3.375 -7.9375 C 2.976562 -7.644531 2.78125 -7.289062 2.78125 -6.875 L 1.15625 -6.875 C 1.15625 -7.34375 1.320312 -7.796875 1.65625 -8.234375 C 1.988281 -8.679688 2.441406 -9.035156 3.015625 -9.296875 C 3.597656 -9.554688 4.238281 -9.6875 4.9375 -9.6875 C 6.03125 -9.6875 6.882812 -9.410156 7.5 -8.859375 C 8.125 -8.316406 8.445312 -7.5625 8.46875 -6.59375 L 8.46875 -2.21875 C 8.46875 -1.351562 8.582031 -0.660156 8.8125 -0.140625 L 8.8125 0 Z M 4.40625 -1.234375 C 4.914062 -1.234375 5.398438 -1.363281 5.859375 -1.625 C 6.316406 -1.894531 6.644531 -2.238281 6.84375 -2.65625 L 6.84375 -4.609375 L 5.578125 -4.609375 C 3.578125 -4.609375 2.578125 -4.023438 2.578125 -2.859375 C 2.578125 -2.347656 2.75 -1.945312 3.09375 -1.65625 C 3.4375 -1.375 3.875 -1.234375 4.40625 -1.234375 Z M 4.40625 -1.234375 "/></g></g></g><g fill="#17191a" fill-opacity="1"><g transform="translate(250.834795, 31.353556)"><g/></g></g><g fill="#17191a" fill-opacity="1"><g transform="translate(255.287966, 31.353556)"><g><path d="M 3.890625 -4.40625 L 2.859375 -3.34375 L 2.859375 0 L 1.234375 0 L 1.234375 -13.5 L 2.859375 -13.5 L 2.859375 -5.328125 L 3.734375 -6.375 L 6.703125 -9.515625 L 8.671875 -9.515625 L 4.96875 -5.53125 L 9.109375 0 L 7.203125 0 Z M 3.890625 -4.40625 "/></g></g></g><g fill="#17191a" fill-opacity="1"><g transform="translate(264.405061, 31.353556)"><g><path d="M 0.796875 -4.84375 C 0.796875 -5.769531 0.976562 -6.601562 1.34375 -7.34375 C 1.71875 -8.09375 2.226562 -8.671875 2.875 -9.078125 C 3.53125 -9.484375 4.273438 -9.6875 5.109375 -9.6875 C 6.410156 -9.6875 7.457031 -9.238281 8.25 -8.34375 C 9.050781 -7.445312 9.453125 -6.253906 9.453125 -4.765625 L 9.453125 -4.65625 C 9.453125 -3.726562 9.273438 -2.894531 8.921875 -2.15625 C 8.566406 -1.425781 8.0625 -0.851562 7.40625 -0.4375 C 6.75 -0.03125 5.992188 0.171875 5.140625 0.171875 C 3.847656 0.171875 2.800781 -0.273438 2 -1.171875 C 1.195312 -2.066406 0.796875 -3.253906 0.796875 -4.734375 Z M 2.4375 -4.65625 C 2.4375 -3.59375 2.679688 -2.742188 3.171875 -2.109375 C 3.660156 -1.472656 4.316406 -1.15625 5.140625 -1.15625 C 5.960938 -1.15625 6.613281 -1.476562 7.09375 -2.125 C 7.582031 -2.769531 7.828125 -3.675781 7.828125 -4.84375 C 7.828125 -5.882812 7.578125 -6.726562 7.078125 -7.375 C 6.585938 -8.019531 5.929688 -8.34375 5.109375 -8.34375 C 4.304688 -8.34375 3.660156 -8.023438 3.171875 -7.390625 C 2.679688 -6.753906 2.4375 -5.84375 2.4375 -4.65625 Z M 2.4375 -4.65625 "/></g></g></g><g fill="#17191a" fill-opacity="1"><g transform="translate(274.664002, 31.353556)"><g><path d="M 2.90625 -9.515625 L 2.90625 1.09375 C 2.90625 2.925781 2.078125 3.84375 0.421875 3.84375 C 0.0664062 3.84375 -0.265625 3.789062 -0.578125 3.6875 L -0.578125 2.375 C -0.390625 2.425781 -0.140625 2.453125 0.171875 2.453125 C 0.535156 2.453125 0.8125 2.351562 1 2.15625 C 1.1875 1.957031 1.28125 1.617188 1.28125 1.140625 L 1.28125 -9.515625 Z M 1.109375 -12.03125 C 1.109375 -12.289062 1.1875 -12.507812 1.34375 -12.6875 C 1.507812 -12.875 1.75 -12.96875 2.0625 -12.96875 C 2.382812 -12.96875 2.625 -12.875 2.78125 -12.6875 C 2.945312 -12.507812 3.03125 -12.289062 3.03125 -12.03125 C 3.03125 -11.769531 2.945312 -11.550781 2.78125 -11.375 C 2.625 -11.195312 2.382812 -11.109375 2.0625 -11.109375 C 1.75 -11.109375 1.507812 -11.195312 1.34375 -11.375 C 1.1875 -11.550781 1.109375 -11.769531 1.109375 -12.03125 Z M 1.109375 -12.03125 "/></g></g></g><g fill="#17191a" fill-opacity="1"><g transform="translate(278.959061, 31.353556)"><g><path d="M 5.171875 0.171875 C 3.890625 0.171875 2.84375 -0.25 2.03125 -1.09375 C 1.21875 -1.9375 0.8125 -3.066406 0.8125 -4.484375 L 0.8125 -4.796875 C 0.8125 -5.734375 0.992188 -6.570312 1.359375 -7.3125 C 1.722656 -8.050781 2.226562 -8.628906 2.875 -9.046875 C 3.519531 -9.472656 4.21875 -9.6875 4.96875 -9.6875 C 6.207031 -9.6875 7.171875 -9.28125 7.859375 -8.46875 C 8.546875 -7.65625 8.890625 -6.488281 8.890625 -4.96875 L 8.890625 -4.296875 L 2.4375 -4.296875 C 2.46875 -3.359375 2.742188 -2.597656 3.265625 -2.015625 C 3.785156 -1.441406 4.453125 -1.15625 5.265625 -1.15625 C 5.835938 -1.15625 6.320312 -1.269531 6.71875 -1.5 C 7.125 -1.738281 7.472656 -2.050781 7.765625 -2.4375 L 8.765625 -1.65625 C 7.960938 -0.4375 6.765625 0.171875 5.171875 0.171875 Z M 4.96875 -8.34375 C 4.3125 -8.34375 3.757812 -8.101562 3.3125 -7.625 C 2.875 -7.15625 2.601562 -6.488281 2.5 -5.625 L 7.265625 -5.625 L 7.265625 -5.75 C 7.210938 -6.570312 6.988281 -7.207031 6.59375 -7.65625 C 6.195312 -8.113281 5.65625 -8.34375 4.96875 -8.34375 Z M 4.96875 -8.34375 "/></g></g></g><g fill="#17191a" fill-opacity="1"><g transform="translate(288.48899, 31.353556)"><g/></g></g><g fill="#17191a" fill-opacity="1"><g transform="translate(292.942138, 31.353556)"><g><path d="M 4.375 -2.203125 L 6.71875 -9.515625 L 8.390625 -9.515625 L 4.96875 0 L 3.734375 0 L 0.296875 -9.515625 L 1.953125 -9.515625 Z M 4.375 -2.203125 "/></g></g></g><g fill="#17191a" fill-opacity="1"><g transform="translate(301.655211, 31.353556)"><g><path d="M 5.828125 -8.046875 C 5.578125 -8.085938 5.3125 -8.109375 5.03125 -8.109375 C 3.957031 -8.109375 3.234375 -7.65625 2.859375 -6.75 L 2.859375 0 L 1.234375 0 L 1.234375 -9.515625 L 2.8125 -9.515625 L 2.84375 -8.40625 C 3.375 -9.257812 4.128906 -9.6875 5.109375 -9.6875 C 5.421875 -9.6875 5.660156 -9.644531 5.828125 -9.5625 Z M 5.828125 -8.046875 "/></g></g></g><g fill="#17191a" fill-opacity="1"><g transform="translate(307.742071, 31.353556)"><g><path d="M 3 0 L 1.375 0 L 1.375 -9.515625 L 3 -9.515625 Z M 1.234375 -12.03125 C 1.234375 -12.289062 1.3125 -12.507812 1.46875 -12.6875 C 1.632812 -12.875 1.875 -12.96875 2.1875 -12.96875 C 2.507812 -12.96875 2.753906 -12.875 2.921875 -12.6875 C 3.085938 -12.507812 3.171875 -12.289062 3.171875 -12.03125 C 3.171875 -11.769531 3.085938 -11.550781 2.921875 -11.375 C 2.753906 -11.195312 2.507812 -11.109375 2.1875 -11.109375 C 1.875 -11.109375 1.632812 -11.195312 1.46875 -11.375 C 1.3125 -11.550781 1.234375 -11.769531 1.234375 -12.03125 Z M 1.234375 -12.03125 "/></g></g></g><g fill="#17191a" fill-opacity="1"><g transform="translate(312.107396, 31.353556)"><g><path d="M 2.90625 -9.515625 L 2.90625 1.09375 C 2.90625 2.925781 2.078125 3.84375 0.421875 3.84375 C 0.0664062 3.84375 -0.265625 3.789062 -0.578125 3.6875 L -0.578125 2.375 C -0.390625 2.425781 -0.140625 2.453125 0.171875 2.453125 C 0.535156 2.453125 0.8125 2.351562 1 2.15625 C 1.1875 1.957031 1.28125 1.617188 1.28125 1.140625 L 1.28125 -9.515625 Z M 1.109375 -12.03125 C 1.109375 -12.289062 1.1875 -12.507812 1.34375 -12.6875 C 1.507812 -12.875 1.75 -12.96875 2.0625 -12.96875 C 2.382812 -12.96875 2.625 -12.875 2.78125 -12.6875 C 2.945312 -12.507812 3.03125 -12.289062 3.03125 -12.03125 C 3.03125 -11.769531 2.945312 -11.550781 2.78125 -11.375 C 2.625 -11.195312 2.382812 -11.109375 2.0625 -11.109375 C 1.75 -11.109375 1.507812 -11.195312 1.34375 -11.375 C 1.1875 -11.550781 1.109375 -11.769531 1.109375 -12.03125 Z M 1.109375 -12.03125 "/></g></g></g><g fill="#17191a" fill-opacity="1"><g transform="translate(316.402455, 31.353556)"><g><path d="M 5.171875 0.171875 C 3.890625 0.171875 2.84375 -0.25 2.03125 -1.09375 C 1.21875 -1.9375 0.8125 -3.066406 0.8125 -4.484375 L 0.8125 -4.796875 C 0.8125 -5.734375 0.992188 -6.570312 1.359375 -7.3125 C 1.722656 -8.050781 2.226562 -8.628906 2.875 -9.046875 C 3.519531 -9.472656 4.21875 -9.6875 4.96875 -9.6875 C 6.207031 -9.6875 7.171875 -9.28125 7.859375 -8.46875 C 8.546875 -7.65625 8.890625 -6.488281 8.890625 -4.96875 L 8.890625 -4.296875 L 2.4375 -4.296875 C 2.46875 -3.359375 2.742188 -2.597656 3.265625 -2.015625 C 3.785156 -1.441406 4.453125 -1.15625 5.265625 -1.15625 C 5.835938 -1.15625 6.320312 -1.269531 6.71875 -1.5 C 7.125 -1.738281 7.472656 -2.050781 7.765625 -2.4375 L 8.765625 -1.65625 C 7.960938 -0.4375 6.765625 0.171875 5.171875 0.171875 Z M 4.96875 -8.34375 C 4.3125 -8.34375 3.757812 -8.101562 3.3125 -7.625 C 2.875 -7.15625 2.601562 -6.488281 2.5 -5.625 L 7.265625 -5.625 L 7.265625 -5.75 C 7.210938 -6.570312 6.988281 -7.207031 6.59375 -7.65625 C 6.195312 -8.113281 5.65625 -8.34375 4.96875 -8.34375 Z M 4.96875 -8.34375 "/></g></g></g><g fill="#17191a" fill-opacity="1"><g transform="translate(325.932384, 31.353556)"><g><path d="M 0.828125 -4.828125 C 0.828125 -6.285156 1.171875 -7.457031 1.859375 -8.34375 C 2.554688 -9.238281 3.46875 -9.6875 4.59375 -9.6875 C 5.707031 -9.6875 6.585938 -9.304688 7.234375 -8.546875 L 7.234375 -13.5 L 8.859375 -13.5 L 8.859375 0 L 7.359375 0 L 7.28125 -1.015625 C 6.632812 -0.222656 5.734375 0.171875 4.578125 0.171875 C 3.472656 0.171875 2.570312 -0.273438 1.875 -1.171875 C 1.175781 -2.078125 0.828125 -3.257812 0.828125 -4.71875 Z M 2.46875 -4.65625 C 2.46875 -3.570312 2.6875 -2.722656 3.125 -2.109375 C 3.570312 -1.503906 4.1875 -1.203125 4.96875 -1.203125 C 6 -1.203125 6.753906 -1.664062 7.234375 -2.59375 L 7.234375 -6.96875 C 6.742188 -7.863281 6 -8.3125 5 -8.3125 C 4.195312 -8.3125 3.570312 -8 3.125 -7.375 C 2.6875 -6.757812 2.46875 -5.851562 2.46875 -4.65625 Z M 2.46875 -4.65625 "/></g></g></g><g fill="#17191a" fill-opacity="1"><g transform="translate(336.077159, 31.353556)"><g><path d="M 3 0 L 1.375 0 L 1.375 -9.515625 L 3 -9.515625 Z M 1.234375 -12.03125 C 1.234375 -12.289062 1.3125 -12.507812 1.46875 -12.6875 C 1.632812 -12.875 1.875 -12.96875 2.1875 -12.96875 C 2.507812 -12.96875 2.753906 -12.875 2.921875 -12.6875 C 3.085938 -12.507812 3.171875 -12.289062 3.171875 -12.03125 C 3.171875 -11.769531 3.085938 -11.550781 2.921875 -11.375 C 2.753906 -11.195312 2.507812 -11.109375 2.1875 -11.109375 C 1.875 -11.109375 1.632812 -11.195312 1.46875 -11.375 C 1.3125 -11.550781 1.234375 -11.769531 1.234375 -12.03125 Z M 1.234375 -12.03125 "/></g></g></g><g fill="#17191a" fill-opacity="1"><g transform="translate(340.442485, 31.353556)"><g><path d="M 1.171875 -0.859375 C 1.171875 -1.140625 1.253906 -1.375 1.421875 -1.5625 C 1.585938 -1.75 1.835938 -1.84375 2.171875 -1.84375 C 2.503906 -1.84375 2.753906 -1.75 2.921875 -1.5625 C 3.097656 -1.375 3.1875 -1.140625 3.1875 -0.859375 C 3.1875 -0.585938 3.097656 -0.359375 2.921875 -0.171875 C 2.753906 0.00390625 2.503906 0.09375 2.171875 0.09375 C 1.835938 0.09375 1.585938 0.00390625 1.421875 -0.171875 C 1.253906 -0.359375 1.171875 -0.585938 1.171875 -0.859375 Z M 1.1875 -8.625 C 1.1875 -8.90625 1.269531 -9.140625 1.4375 -9.328125 C 1.601562 -9.515625 1.851562 -9.609375 2.1875 -9.609375 C 2.519531 -9.609375 2.769531 -9.515625 2.9375 -9.328125 C 3.113281 -9.140625 3.203125 -8.90625 3.203125 -8.625 C 3.203125 -8.351562 3.113281 -8.125 2.9375 -7.9375 C 2.769531 -7.757812 2.519531 -7.671875 2.1875 -7.671875 C 1.851562 -7.671875 1.601562 -7.757812 1.4375 -7.9375 C 1.269531 -8.125 1.1875 -8.351562 1.1875 -8.625 Z M 1.1875 -8.625 "/></g></g></g><path fill="#17191a" d="M 49.085938 61.878906 L 48.570312 61.878906 C 48.5 62.28125 48.308594 63.589844 48.074219 63.972656 C 47.910156 64.1875 46.570312 64.1875 45.863281 64.1875 L 41.515625 64.1875 C 42.148438 63.640625 43.582031 62.117188 44.195312 61.542969 C 47.769531 58.210938 49.085938 56.972656 49.085938 54.617188 C 49.085938 51.878906 46.945312 50.046875 44.21875 50.046875 C 41.492188 50.046875 39.890625 52.402344 39.890625 54.449219 C 39.890625 55.664062 40.925781 55.664062 40.996094 55.664062 C 41.492188 55.664062 42.101562 55.308594 42.101562 54.542969 C 42.101562 53.878906 41.65625 53.425781 40.996094 53.425781 C 40.785156 53.425781 40.738281 53.425781 40.667969 53.449219 C 41.113281 51.832031 42.382812 50.734375 43.914062 50.734375 C 45.910156 50.734375 47.132812 52.425781 47.132812 54.617188 C 47.132812 56.640625 45.980469 58.402344 44.640625 59.925781 L 39.890625 65.304688 L 39.890625 65.878906 L 48.472656 65.878906 Z M 49.085938 61.878906 " fill-opacity="1" fill-rule="nonzero"/><path fill="#17191a" d="M 57.328125 63.042969 C 57.210938 63.449219 57.210938 63.496094 56.882812 63.949219 C 56.367188 64.617188 55.332031 65.640625 54.226562 65.640625 C 53.261719 65.640625 52.722656 64.757812 52.722656 63.355469 C 52.722656 62.042969 53.449219 59.378906 53.898438 58.378906 C 54.695312 56.710938 55.800781 55.855469 56.71875 55.855469 C 58.269531 55.855469 58.574219 57.804688 58.574219 57.996094 C 58.574219 58.019531 58.503906 58.332031 58.480469 58.378906 Z M 58.835938 56.949219 C 58.574219 56.332031 57.941406 55.378906 56.71875 55.378906 C 54.0625 55.378906 51.191406 58.855469 51.191406 62.378906 C 51.191406 64.734375 52.554688 66.117188 54.15625 66.117188 C 55.449219 66.117188 56.554688 65.089844 57.210938 64.304688 C 57.445312 65.710938 58.550781 66.117188 59.257812 66.117188 C 59.964844 66.117188 60.527344 65.6875 60.949219 64.828125 C 61.328125 64.019531 61.65625 62.566406 61.65625 62.472656 C 61.65625 62.355469 61.5625 62.257812 61.421875 62.257812 C 61.210938 62.257812 61.1875 62.378906 61.09375 62.734375 C 60.738281 64.140625 60.292969 65.640625 59.328125 65.640625 C 58.644531 65.640625 58.597656 65.019531 58.597656 64.542969 C 58.597656 63.996094 58.671875 63.734375 58.882812 62.804688 C 59.046875 62.210938 59.164062 61.6875 59.351562 60.996094 C 60.222656 57.425781 60.433594 56.570312 60.433594 56.425781 C 60.433594 56.09375 60.175781 55.832031 59.820312 55.832031 C 59.070312 55.832031 58.882812 56.664062 58.835938 56.949219 Z M 58.835938 56.949219 " fill-opacity="1" fill-rule="nonzero"/><path fill="#17191a" d="M 77.835938 44.792969 C 78.234375 44.792969 78.65625 44.792969 78.65625 44.316406 C 78.65625 43.839844 78.234375 43.839844 77.835938 43.839844 L 65.113281 43.839844 C 64.714844 43.839844 64.289062 43.839844 64.289062 44.316406 C 64.289062 44.792969 64.714844 44.792969 65.113281 44.792969 Z M 77.835938 44.792969 " fill-opacity="1" fill-rule="nonzero"/><g clip-path="url(#3e64b0d59f)"><path fill="#17191a" d="M 81.949219 44.792969 C 80.65625 45.792969 80.019531 46.769531 79.832031 47.078125 C 78.773438 48.722656 78.585938 50.222656 78.585938 50.246094 C 78.585938 50.53125 78.867188 50.53125 79.058594 50.53125 C 79.457031 50.53125 79.480469 50.484375 79.574219 50.054688 C 80.113281 47.722656 81.503906 45.722656 84.160156 44.625 C 84.441406 44.53125 84.511719 44.484375 84.511719 44.316406 C 84.511719 44.148438 84.371094 44.078125 84.324219 44.054688 C 83.289062 43.648438 80.445312 42.460938 79.550781 38.460938 C 79.480469 38.175781 79.457031 38.101562 79.058594 38.101562 C 78.867188 38.101562 78.585938 38.101562 78.585938 38.386719 C 78.585938 38.4375 78.796875 39.9375 79.785156 41.53125 C 80.257812 42.246094 80.9375 43.078125 81.949219 43.839844 L 64.476562 43.839844 C 64.054688 43.839844 63.632812 43.839844 63.632812 44.316406 C 63.632812 44.792969 64.054688 44.792969 64.476562 44.792969 Z M 81.949219 44.792969 " fill-opacity="1" fill-rule="nonzero"/></g><path fill="#17191a" d="M 76.824219 62.472656 C 76.824219 62.355469 76.730469 62.257812 76.585938 62.257812 C 76.375 62.257812 76.351562 62.328125 76.234375 62.734375 C 75.625 64.902344 74.660156 65.640625 73.882812 65.640625 C 73.601562 65.640625 73.273438 65.566406 73.273438 64.855469 C 73.273438 64.210938 73.554688 63.496094 73.8125 62.78125 L 75.460938 58.355469 C 75.53125 58.164062 75.695312 57.734375 75.695312 57.28125 C 75.695312 56.28125 74.988281 55.378906 73.835938 55.378906 C 71.671875 55.378906 70.804688 58.832031 70.804688 59.019531 C 70.804688 59.117188 70.898438 59.234375 71.0625 59.234375 C 71.273438 59.234375 71.296875 59.140625 71.390625 58.804688 C 71.957031 56.804688 72.847656 55.855469 73.765625 55.855469 C 73.976562 55.855469 74.378906 55.878906 74.378906 56.640625 C 74.378906 57.257812 74.070312 58.042969 73.882812 58.570312 L 72.238281 62.996094 C 72.097656 63.378906 71.957031 63.757812 71.957031 64.1875 C 71.957031 65.257812 72.683594 66.117188 73.8125 66.117188 C 75.976562 66.117188 76.824219 62.640625 76.824219 62.472656 Z M 76.636719 51.019531 C 76.636719 50.664062 76.351562 50.234375 75.835938 50.234375 C 75.292969 50.234375 74.683594 50.757812 74.683594 51.378906 C 74.683594 51.972656 75.175781 52.164062 75.460938 52.164062 C 76.09375 52.164062 76.636719 51.546875 76.636719 51.019531 Z M 76.636719 51.019531 " fill-opacity="1" fill-rule="nonzero"/><path fill="#17191a" d="M 106.574219 60.402344 C 106.972656 60.402344 107.398438 60.402344 107.398438 59.925781 C 107.398438 59.449219 106.972656 59.449219 106.574219 59.449219 L 93.851562 59.449219 C 93.453125 59.449219 93.03125 59.449219 93.03125 59.925781 C 93.03125 60.402344 93.453125 60.402344 93.851562 60.402344 Z M 106.574219 60.402344 " fill-opacity="1" fill-rule="nonzero"/><path fill="#17191a" d="M 130.089844 44.792969 C 130.488281 44.792969 130.910156 44.792969 130.910156 44.316406 C 130.910156 43.839844 130.488281 43.839844 130.089844 43.839844 L 117.367188 43.839844 C 116.96875 43.839844 116.542969 43.839844 116.542969 44.316406 C 116.542969 44.792969 116.96875 44.792969 117.367188 44.792969 Z M 130.089844 44.792969 " fill-opacity="1" fill-rule="nonzero"/><g clip-path="url(#bd2dcbe193)"><path fill="#17191a" d="M 134.207031 44.792969 C 132.910156 45.792969 132.277344 46.769531 132.089844 47.078125 C 131.03125 48.722656 130.84375 50.222656 130.84375 50.246094 C 130.84375 50.53125 131.125 50.53125 131.3125 50.53125 C 131.710938 50.53125 131.734375 50.484375 131.832031 50.054688 C 132.371094 47.722656 133.757812 45.722656 136.414062 44.625 C 136.699219 44.53125 136.769531 44.484375 136.769531 44.316406 C 136.769531 44.148438 136.628906 44.078125 136.582031 44.054688 C 135.546875 43.648438 132.699219 42.460938 131.808594 38.460938 C 131.734375 38.175781 131.710938 38.101562 131.3125 38.101562 C 131.125 38.101562 130.84375 38.101562 130.84375 38.386719 C 130.84375 38.4375 131.054688 39.9375 132.042969 41.53125 C 132.511719 42.246094 133.195312 43.078125 134.207031 43.839844 L 116.734375 43.839844 C 116.3125 43.839844 115.886719 43.839844 115.886719 44.316406 C 115.886719 44.792969 116.3125 44.792969 116.734375 44.792969 Z M 134.207031 44.792969 " fill-opacity="1" fill-rule="nonzero"/></g><path fill="#17191a" d="M 129.15625 58.332031 C 129.25 57.949219 129.25 57.617188 129.25 57.519531 C 129.25 56.140625 128.238281 55.378906 127.179688 55.378906 C 124.804688 55.378906 123.535156 58.855469 123.535156 59.019531 C 123.535156 59.140625 123.628906 59.234375 123.769531 59.234375 C 123.960938 59.234375 123.984375 59.140625 124.101562 58.902344 C 125.039062 56.59375 126.214844 55.855469 127.109375 55.855469 C 127.605469 55.855469 127.863281 56.117188 127.863281 56.949219 C 127.863281 57.519531 127.792969 57.757812 127.699219 58.1875 L 125.464844 67.164062 C 125.015625 68.925781 123.910156 70.257812 122.617188 70.257812 C 122.523438 70.257812 122.03125 70.257812 121.585938 70.019531 C 122.148438 69.902344 122.59375 69.449219 122.59375 68.878906 C 122.59375 68.496094 122.3125 68.113281 121.796875 68.113281 C 121.183594 68.113281 120.621094 68.640625 120.621094 69.351562 C 120.621094 70.328125 121.65625 70.734375 122.617188 70.734375 C 124.242188 70.734375 126.382812 69.519531 126.96875 67.140625 Z M 130.121094 51.019531 C 130.121094 50.425781 129.625 50.234375 129.34375 50.234375 C 128.707031 50.234375 128.167969 50.855469 128.167969 51.378906 C 128.167969 51.734375 128.449219 52.164062 128.96875 52.164062 C 129.507812 52.164062 130.121094 51.640625 130.121094 51.019531 Z M 130.121094 51.019531 " fill-opacity="1" fill-rule="nonzero"/><path fill="#17191a" d="M 160.511719 58.164062 C 160.839844 58.164062 161.265625 58.164062 161.265625 57.734375 C 161.265625 57.28125 160.867188 57.28125 160.511719 57.28125 L 146.664062 57.28125 C 146.332031 57.28125 145.910156 57.28125 145.910156 57.710938 C 145.910156 58.164062 146.308594 58.164062 146.664062 58.164062 Z M 160.511719 62.59375 C 160.839844 62.59375 161.265625 62.59375 161.265625 62.164062 C 161.265625 61.710938 160.867188 61.710938 160.511719 61.710938 L 146.664062 61.710938 C 146.332031 61.710938 145.910156 61.710938 145.910156 62.140625 C 145.910156 62.59375 146.308594 62.59375 146.664062 62.59375 Z M 160.511719 62.59375 " fill-opacity="1" fill-rule="nonzero"/><path fill="#17191a" d="M 172.089844 52.234375 C 173.101562 52.570312 173.921875 52.59375 174.179688 52.59375 C 176.839844 52.59375 178.53125 50.617188 178.53125 50.285156 C 178.53125 50.1875 178.484375 50.070312 178.34375 50.070312 C 178.296875 50.070312 178.25 50.070312 178.039062 50.164062 C 176.722656 50.734375 175.59375 50.808594 174.980469 50.808594 C 173.429688 50.808594 172.324219 50.332031 171.878906 50.140625 C 171.710938 50.070312 171.664062 50.070312 171.640625 50.070312 C 171.453125 50.070312 171.453125 50.210938 171.453125 50.59375 L 171.453125 57.664062 C 171.453125 58.09375 171.453125 58.234375 171.734375 58.234375 C 171.855469 58.234375 171.878906 58.210938 172.113281 57.925781 C 172.769531 56.949219 173.875 56.378906 175.050781 56.378906 C 176.296875 56.378906 176.910156 57.542969 177.097656 57.949219 C 177.496094 58.878906 177.519531 60.042969 177.519531 60.949219 C 177.519531 61.855469 177.519531 63.210938 176.863281 64.28125 C 176.34375 65.140625 175.429688 65.734375 174.394531 65.734375 C 172.839844 65.734375 171.3125 64.664062 170.890625 62.925781 C 171.007812 62.972656 171.148438 62.996094 171.265625 62.996094 C 171.664062 62.996094 172.300781 62.757812 172.300781 61.949219 C 172.300781 61.28125 171.855469 60.902344 171.265625 60.902344 C 170.84375 60.902344 170.230469 61.117188 170.230469 62.042969 C 170.230469 64.066406 171.828125 66.378906 174.441406 66.378906 C 177.097656 66.378906 179.425781 64.117188 179.425781 61.09375 C 179.425781 58.257812 177.542969 55.902344 175.074219 55.902344 C 173.734375 55.902344 172.699219 56.496094 172.089844 57.164062 Z M 172.089844 52.234375 " fill-opacity="1" fill-rule="nonzero"/><g clip-path="url(#bc98ed7937)"><path fill="#17191a" d="M 188.234375 71.664062 C 188.234375 71.589844 188.234375 71.542969 187.832031 71.140625 C 185.480469 68.734375 184.164062 64.804688 184.164062 59.949219 C 184.164062 55.332031 185.269531 51.355469 188 48.546875 C 188.234375 48.332031 188.234375 48.285156 188.234375 48.210938 C 188.234375 48.070312 188.117188 48.023438 188.023438 48.023438 C 187.714844 48.023438 185.789062 49.734375 184.636719 52.070312 C 183.4375 54.472656 182.894531 57.019531 182.894531 59.949219 C 182.894531 62.066406 183.226562 64.902344 184.449219 67.449219 C 185.835938 70.304688 187.761719 71.851562 188.023438 71.851562 C 188.117188 71.851562 188.234375 71.804688 188.234375 71.664062 Z M 188.234375 71.664062 " fill-opacity="1" fill-rule="nonzero"/></g><path fill="#17191a" d="M 193.871094 57.332031 C 193.472656 57.355469 193.378906 57.378906 193.378906 57.59375 C 193.378906 57.832031 193.496094 57.832031 193.917969 57.832031 L 195 57.832031 C 197 57.832031 197.890625 59.496094 197.890625 61.78125 C 197.890625 64.902344 196.292969 65.734375 195.140625 65.734375 C 194.011719 65.734375 192.082031 65.1875 191.402344 63.617188 C 192.15625 63.734375 192.835938 63.304688 192.835938 62.449219 C 192.835938 61.757812 192.34375 61.28125 191.683594 61.28125 C 191.121094 61.28125 190.507812 61.617188 190.507812 62.519531 C 190.507812 64.640625 192.601562 66.378906 195.210938 66.378906 C 198.007812 66.378906 200.078125 64.210938 200.078125 61.804688 C 200.078125 59.617188 198.339844 57.902344 196.082031 57.496094 C 198.128906 56.902344 199.445312 55.164062 199.445312 53.308594 C 199.445312 51.425781 197.515625 50.046875 195.234375 50.046875 C 192.882812 50.046875 191.144531 51.496094 191.144531 53.234375 C 191.144531 54.1875 191.871094 54.378906 192.226562 54.378906 C 192.71875 54.378906 193.28125 54.019531 193.28125 53.308594 C 193.28125 52.546875 192.71875 52.210938 192.203125 52.210938 C 192.058594 52.210938 192.011719 52.210938 191.941406 52.234375 C 192.835938 50.617188 195.046875 50.617188 195.164062 50.617188 C 195.941406 50.617188 197.46875 50.972656 197.46875 53.308594 C 197.46875 53.757812 197.398438 55.09375 196.714844 56.117188 C 196.011719 57.164062 195.210938 57.234375 194.578125 57.257812 Z M 193.871094 57.332031 " fill-opacity="1" fill-rule="nonzero"/><path fill="#17191a" d="M 216.550781 44.792969 C 216.953125 44.792969 217.375 44.792969 217.375 44.316406 C 217.375 43.839844 216.953125 43.839844 216.550781 43.839844 L 203.832031 43.839844 C 203.429688 43.839844 203.007812 43.839844 203.007812 44.316406 C 203.007812 44.792969 203.429688 44.792969 203.832031 44.792969 Z M 216.550781 44.792969 " fill-opacity="1" fill-rule="nonzero"/><g clip-path="url(#d92cb7ded9)"><path fill="#17191a" d="M 220.667969 44.792969 C 219.375 45.792969 218.742188 46.769531 218.554688 47.078125 C 217.496094 48.722656 217.308594 50.222656 217.308594 50.246094 C 217.308594 50.53125 217.589844 50.53125 217.777344 50.53125 C 218.175781 50.53125 218.199219 50.484375 218.292969 50.054688 C 218.835938 47.722656 220.222656 45.722656 222.878906 44.625 C 223.160156 44.53125 223.230469 44.484375 223.230469 44.316406 C 223.230469 44.148438 223.089844 44.078125 223.042969 44.054688 C 222.007812 43.648438 219.164062 42.460938 218.269531 38.460938 C 218.199219 38.175781 218.175781 38.101562 217.777344 38.101562 C 217.589844 38.101562 217.308594 38.101562 217.308594 38.386719 C 217.308594 38.4375 217.519531 39.9375 218.507812 41.53125 C 218.976562 42.246094 219.660156 43.078125 220.667969 43.839844 L 203.199219 43.839844 C 202.773438 43.839844 202.351562 43.839844 202.351562 44.316406 C 202.351562 44.792969 202.773438 44.792969 203.199219 44.792969 Z M 220.667969 44.792969 " fill-opacity="1" fill-rule="nonzero"/></g><path fill="#17191a" d="M 215.542969 62.472656 C 215.542969 62.355469 215.445312 62.257812 215.304688 62.257812 C 215.09375 62.257812 215.070312 62.328125 214.953125 62.734375 C 214.34375 64.902344 213.378906 65.640625 212.601562 65.640625 C 212.320312 65.640625 211.992188 65.566406 211.992188 64.855469 C 211.992188 64.210938 212.273438 63.496094 212.53125 62.78125 L 214.175781 58.355469 C 214.246094 58.164062 214.414062 57.734375 214.414062 57.28125 C 214.414062 56.28125 213.707031 55.378906 212.554688 55.378906 C 210.390625 55.378906 209.519531 58.832031 209.519531 59.019531 C 209.519531 59.117188 209.617188 59.234375 209.78125 59.234375 C 209.992188 59.234375 210.015625 59.140625 210.109375 58.804688 C 210.671875 56.804688 211.566406 55.855469 212.484375 55.855469 C 212.695312 55.855469 213.09375 55.878906 213.09375 56.640625 C 213.09375 57.257812 212.789062 58.042969 212.601562 58.570312 L 210.957031 62.996094 C 210.816406 63.378906 210.671875 63.757812 210.671875 64.1875 C 210.671875 65.257812 211.402344 66.117188 212.53125 66.117188 C 214.695312 66.117188 215.542969 62.640625 215.542969 62.472656 Z M 215.351562 51.019531 C 215.351562 50.664062 215.070312 50.234375 214.554688 50.234375 C 214.011719 50.234375 213.402344 50.757812 213.402344 51.378906 C 213.402344 51.972656 213.894531 52.164062 214.175781 52.164062 C 214.8125 52.164062 215.351562 51.546875 215.351562 51.019531 Z M 215.351562 51.019531 " fill-opacity="1" fill-rule="nonzero"/><path fill="#17191a" d="M 245.292969 60.402344 C 245.691406 60.402344 246.117188 60.402344 246.117188 59.925781 C 246.117188 59.449219 245.691406 59.449219 245.292969 59.449219 L 232.570312 59.449219 C 232.171875 59.449219 231.75 59.449219 231.75 59.925781 C 231.75 60.402344 232.171875 60.402344 232.570312 60.402344 Z M 245.292969 60.402344 " fill-opacity="1" fill-rule="nonzero"/><path fill="#17191a" d="M 261.800781 50.378906 C 261.800781 49.925781 261.800781 49.808594 261.472656 49.808594 C 261.285156 49.808594 261.214844 49.808594 261.023438 50.09375 L 253.949219 61.210938 L 253.949219 61.902344 L 260.132812 61.902344 L 260.132812 64.066406 C 260.132812 64.949219 260.085938 65.1875 258.367188 65.1875 L 257.898438 65.1875 L 257.898438 65.878906 C 258.4375 65.828125 260.296875 65.828125 260.953125 65.828125 C 261.613281 65.828125 263.496094 65.828125 264.035156 65.878906 L 264.035156 65.1875 L 263.566406 65.1875 C 261.871094 65.1875 261.800781 64.949219 261.800781 64.066406 L 261.800781 61.902344 L 264.175781 61.902344 L 264.175781 61.210938 L 261.800781 61.210938 Z M 260.25 52.234375 L 260.25 61.210938 L 254.535156 61.210938 Z M 260.25 52.234375 " fill-opacity="1" fill-rule="nonzero"/><path fill="#17191a" d="M 270.257812 49.949219 C 270.28125 49.855469 270.328125 49.710938 270.328125 49.59375 C 270.328125 49.355469 270.09375 49.355469 270.042969 49.355469 C 270.019531 49.355469 269.175781 49.425781 268.75 49.472656 C 268.351562 49.496094 268 49.546875 267.574219 49.570312 C 267.011719 49.617188 266.847656 49.640625 266.847656 50.070312 C 266.847656 50.308594 267.082031 50.308594 267.316406 50.308594 C 268.515625 50.308594 268.515625 50.519531 268.515625 50.757812 C 268.515625 50.925781 268.328125 51.617188 268.234375 52.046875 L 267.667969 54.332031 C 267.433594 55.28125 266.09375 60.6875 266 61.117188 C 265.882812 61.710938 265.882812 62.117188 265.882812 62.425781 C 265.882812 64.855469 267.222656 66.117188 268.75 66.117188 C 271.480469 66.117188 274.300781 62.566406 274.300781 59.117188 C 274.300781 56.925781 273.078125 55.378906 271.316406 55.378906 C 270.09375 55.378906 268.988281 56.402344 268.539062 56.878906 Z M 268.773438 65.640625 C 268.023438 65.640625 267.199219 65.066406 267.199219 63.210938 C 267.199219 62.425781 267.269531 61.972656 267.695312 60.304688 C 267.765625 59.996094 268.140625 58.472656 268.234375 58.164062 C 268.28125 57.972656 269.667969 55.855469 271.265625 55.855469 C 272.300781 55.855469 272.773438 56.902344 272.773438 58.140625 C 272.773438 59.28125 272.113281 61.972656 271.527344 63.210938 C 270.9375 64.496094 269.855469 65.640625 268.773438 65.640625 Z M 268.773438 65.640625 " fill-opacity="1" fill-rule="nonzero"/><path fill="#17191a" d="M 290.109375 44.792969 C 290.507812 44.792969 290.933594 44.792969 290.933594 44.316406 C 290.933594 43.839844 290.507812 43.839844 290.109375 43.839844 L 277.386719 43.839844 C 276.988281 43.839844 276.566406 43.839844 276.566406 44.316406 C 276.566406 44.792969 276.988281 44.792969 277.386719 44.792969 Z M 290.109375 44.792969 " fill-opacity="1" fill-rule="nonzero"/><g clip-path="url(#b55b80b9d7)"><path fill="#17191a" d="M 294.226562 44.792969 C 292.929688 45.792969 292.296875 46.769531 292.109375 47.078125 C 291.050781 48.722656 290.863281 50.222656 290.863281 50.246094 C 290.863281 50.53125 291.144531 50.53125 291.332031 50.53125 C 291.730469 50.53125 291.753906 50.484375 291.851562 50.054688 C 292.390625 47.722656 293.777344 45.722656 296.433594 44.625 C 296.71875 44.53125 296.789062 44.484375 296.789062 44.316406 C 296.789062 44.148438 296.648438 44.078125 296.601562 44.054688 C 295.566406 43.648438 292.71875 42.460938 291.828125 38.460938 C 291.753906 38.175781 291.730469 38.101562 291.332031 38.101562 C 291.144531 38.101562 290.863281 38.101562 290.863281 38.386719 C 290.863281 38.4375 291.074219 39.9375 292.0625 41.53125 C 292.53125 42.246094 293.214844 43.078125 294.226562 43.839844 L 276.753906 43.839844 C 276.332031 43.839844 275.90625 43.839844 275.90625 44.316406 C 275.90625 44.792969 276.332031 44.792969 276.753906 44.792969 Z M 294.226562 44.792969 " fill-opacity="1" fill-rule="nonzero"/></g><path fill="#17191a" d="M 289.175781 58.332031 C 289.269531 57.949219 289.269531 57.617188 289.269531 57.519531 C 289.269531 56.140625 288.261719 55.378906 287.203125 55.378906 C 284.828125 55.378906 283.558594 58.855469 283.558594 59.019531 C 283.558594 59.140625 283.652344 59.234375 283.792969 59.234375 C 283.980469 59.234375 284.003906 59.140625 284.121094 58.902344 C 285.0625 56.59375 286.238281 55.855469 287.132812 55.855469 C 287.625 55.855469 287.882812 56.117188 287.882812 56.949219 C 287.882812 57.519531 287.8125 57.757812 287.71875 58.1875 L 285.484375 67.164062 C 285.039062 68.925781 283.933594 70.257812 282.640625 70.257812 C 282.546875 70.257812 282.050781 70.257812 281.605469 70.019531 C 282.167969 69.902344 282.617188 69.449219 282.617188 68.878906 C 282.617188 68.496094 282.335938 68.113281 281.816406 68.113281 C 281.207031 68.113281 280.640625 68.640625 280.640625 69.351562 C 280.640625 70.328125 281.675781 70.734375 282.640625 70.734375 C 284.261719 70.734375 286.402344 69.519531 286.992188 67.140625 Z M 290.140625 51.019531 C 290.140625 50.425781 289.648438 50.234375 289.367188 50.234375 C 288.730469 50.234375 288.191406 50.855469 288.191406 51.378906 C 288.191406 51.734375 288.472656 52.164062 288.988281 52.164062 C 289.53125 52.164062 290.140625 51.640625 290.140625 51.019531 Z M 290.140625 51.019531 " fill-opacity="1" fill-rule="nonzero"/><g clip-path="url(#05ad7ba19c)"><path fill="#17191a" d="M 304.757812 59.949219 C 304.757812 58.140625 304.523438 55.1875 303.207031 52.425781 C 301.820312 49.570312 299.890625 48.023438 299.632812 48.023438 C 299.539062 48.023438 299.421875 48.070312 299.421875 48.210938 C 299.421875 48.285156 299.421875 48.332031 299.820312 48.734375 C 302.171875 51.140625 303.488281 55.070312 303.488281 59.925781 C 303.488281 64.542969 302.382812 68.519531 299.65625 71.328125 C 299.421875 71.542969 299.421875 71.589844 299.421875 71.664062 C 299.421875 71.804688 299.539062 71.851562 299.632812 71.851562 C 299.9375 71.851562 301.867188 70.140625 303.019531 67.804688 C 304.21875 65.378906 304.757812 62.804688 304.757812 59.949219 Z M 304.757812 59.949219 " fill-opacity="1" fill-rule="nonzero"/></g></svg>