<svg xmlns="http://www.w3.org/2000/svg" xmlns:xlink="http://www.w3.org/1999/xlink" width="500" zoomAndPan="magnify" viewBox="0 0 375 74.999997" height="100" preserveAspectRatio="xMidYMid meet" version="1.0"><defs><g/><clipPath id="b35bc873b0"><path d="M 288 24 L 299 24 L 299 33.75 L 288 33.75 Z M 288 24 " clip-rule="nonzero"/></clipPath><clipPath id="7dc8bf1287"><path d="M 310 19 L 316 19 L 316 33.75 L 310 33.75 Z M 310 19 " clip-rule="nonzero"/></clipPath><clipPath id="513fd46136"><path d="M 324 7.5 L 343.59375 7.5 L 343.59375 19 L 324 19 Z M 324 7.5 " clip-rule="nonzero"/></clipPath><clipPath id="bb6d9d60db"><path d="M 330 18 L 338 18 L 338 33.75 L 330 33.75 Z M 330 18 " clip-rule="nonzero"/></clipPath><clipPath id="129145d68b"><path d="M 188 44 L 197 44 L 197 60.75 L 188 60.75 Z M 188 44 " clip-rule="nonzero"/></clipPath><clipPath id="b9e38cda1f"><path d="M 205 54 L 208 54 L 208 60.75 L 205 60.75 Z M 205 54 " clip-rule="nonzero"/></clipPath><clipPath id="e9eb4155ef"><path d="M 223 33.75 L 241 33.75 L 241 44 L 223 44 Z M 223 33.75 " clip-rule="nonzero"/></clipPath><clipPath id="d9ae853324"><path d="M 350 44 L 359 44 L 359 60.75 L 350 60.75 Z M 350 44 " clip-rule="nonzero"/></clipPath></defs><path fill="#17191a" d="M 296.710938 19.269531 C 297.074219 19.269531 297.457031 19.269531 297.457031 18.835938 C 297.457031 18.402344 297.074219 18.402344 296.710938 18.402344 L 285.1875 18.402344 C 284.828125 18.402344 284.441406 18.402344 284.441406 18.835938 C 284.441406 19.269531 284.828125 19.269531 285.1875 19.269531 Z M 296.710938 19.269531 " fill-opacity="1" fill-rule="nonzero"/><path fill="#17191a" d="M 300.441406 19.269531 C 299.269531 20.175781 298.695312 21.058594 298.523438 21.339844 C 297.566406 22.832031 297.394531 24.191406 297.394531 24.214844 C 297.394531 24.472656 297.648438 24.472656 297.820312 24.472656 C 298.183594 24.472656 298.203125 24.429688 298.289062 24.039062 C 298.777344 21.925781 300.035156 20.109375 302.441406 19.117188 C 302.699219 19.03125 302.761719 18.988281 302.761719 18.835938 C 302.761719 18.683594 302.632812 18.621094 302.589844 18.597656 C 301.652344 18.230469 299.078125 17.152344 298.265625 13.523438 C 298.203125 13.265625 298.183594 13.199219 297.820312 13.199219 C 297.648438 13.199219 297.394531 13.199219 297.394531 13.457031 C 297.394531 13.5 297.585938 14.863281 298.480469 16.308594 C 298.90625 16.957031 299.523438 17.710938 300.441406 18.402344 L 284.613281 18.402344 C 284.230469 18.402344 283.847656 18.402344 283.847656 18.835938 C 283.847656 19.269531 284.230469 19.269531 284.613281 19.269531 Z M 300.441406 19.269531 " fill-opacity="1" fill-rule="nonzero"/><g clip-path="url(#b35bc873b0)"><path fill="#17191a" d="M 294.261719 30.960938 C 294.15625 31.328125 294.15625 31.375 293.859375 31.785156 C 293.390625 32.386719 292.453125 33.316406 291.449219 33.316406 C 290.578125 33.316406 290.085938 32.519531 290.085938 31.242188 C 290.085938 30.054688 290.746094 27.636719 291.152344 26.730469 C 291.875 25.21875 292.878906 24.441406 293.707031 24.441406 C 295.113281 24.441406 295.390625 26.210938 295.390625 26.382812 C 295.390625 26.40625 295.328125 26.6875 295.304688 26.730469 Z M 295.625 25.433594 C 295.390625 24.871094 294.816406 24.007812 293.707031 24.007812 C 291.300781 24.007812 288.703125 27.160156 288.703125 30.359375 C 288.703125 32.496094 289.9375 33.75 291.386719 33.75 C 292.558594 33.75 293.558594 32.820312 294.15625 32.109375 C 294.367188 33.382812 295.371094 33.75 296.007812 33.75 C 296.648438 33.75 297.160156 33.359375 297.542969 32.582031 C 297.882812 31.847656 298.183594 30.53125 298.183594 30.445312 C 298.183594 30.335938 298.097656 30.25 297.96875 30.25 C 297.777344 30.25 297.757812 30.359375 297.671875 30.683594 C 297.351562 31.957031 296.945312 33.316406 296.074219 33.316406 C 295.457031 33.316406 295.414062 32.753906 295.414062 32.324219 C 295.414062 31.828125 295.476562 31.589844 295.667969 30.746094 C 295.816406 30.207031 295.925781 29.730469 296.09375 29.105469 C 296.882812 25.867188 297.074219 25.089844 297.074219 24.957031 C 297.074219 24.65625 296.839844 24.417969 296.519531 24.417969 C 295.839844 24.417969 295.667969 25.175781 295.625 25.433594 Z M 295.625 25.433594 " fill-opacity="1" fill-rule="nonzero"/></g><g clip-path="url(#7dc8bf1287)"><path fill="#17191a" d="M 315.921875 30.445312 C 315.921875 30.335938 315.835938 30.25 315.707031 30.25 C 315.515625 30.25 315.496094 30.316406 315.386719 30.683594 C 314.835938 32.648438 313.960938 33.316406 313.257812 33.316406 C 313.003906 33.316406 312.703125 33.253906 312.703125 32.605469 C 312.703125 32.019531 312.960938 31.375 313.195312 30.726562 L 314.6875 26.707031 C 314.75 26.535156 314.898438 26.148438 314.898438 25.738281 C 314.898438 24.828125 314.257812 24.007812 313.214844 24.007812 C 311.257812 24.007812 310.46875 27.140625 310.46875 27.3125 C 310.46875 27.398438 310.554688 27.507812 310.703125 27.507812 C 310.894531 27.507812 310.914062 27.421875 311 27.117188 C 311.511719 25.304688 312.320312 24.441406 313.152344 24.441406 C 313.34375 24.441406 313.707031 24.460938 313.707031 25.152344 C 313.707031 25.714844 313.429688 26.425781 313.257812 26.902344 L 311.765625 30.917969 C 311.640625 31.265625 311.511719 31.609375 311.511719 32 C 311.511719 32.972656 312.171875 33.75 313.195312 33.75 C 315.15625 33.75 315.921875 30.59375 315.921875 30.445312 Z M 315.75 20.054688 C 315.75 19.734375 315.496094 19.34375 315.027344 19.34375 C 314.535156 19.34375 313.984375 19.820312 313.984375 20.378906 C 313.984375 20.921875 314.429688 21.09375 314.6875 21.09375 C 315.261719 21.09375 315.75 20.53125 315.75 20.054688 Z M 315.75 20.054688 " fill-opacity="1" fill-rule="nonzero"/></g><path fill="#17191a" d="M 336.964844 13.566406 C 337.324219 13.566406 337.710938 13.566406 337.710938 13.136719 C 337.710938 12.703125 337.324219 12.703125 336.964844 12.703125 L 325.441406 12.703125 C 325.078125 12.703125 324.695312 12.703125 324.695312 13.136719 C 324.695312 13.566406 325.078125 13.566406 325.441406 13.566406 Z M 336.964844 13.566406 " fill-opacity="1" fill-rule="nonzero"/><g clip-path="url(#513fd46136)"><path fill="#17191a" d="M 340.691406 13.566406 C 339.519531 14.476562 338.945312 15.359375 338.773438 15.640625 C 337.816406 17.132812 337.644531 18.492188 337.644531 18.515625 C 337.644531 18.773438 337.902344 18.773438 338.070312 18.773438 C 338.433594 18.773438 338.453125 18.730469 338.539062 18.339844 C 339.03125 16.222656 340.285156 14.410156 342.695312 13.417969 C 342.949219 13.332031 343.011719 13.289062 343.011719 13.136719 C 343.011719 12.984375 342.886719 12.921875 342.84375 12.898438 C 341.90625 12.53125 339.328125 11.453125 338.519531 7.824219 C 338.453125 7.5625 338.433594 7.5 338.070312 7.5 C 337.902344 7.5 337.644531 7.5 337.644531 7.757812 C 337.644531 7.800781 337.835938 9.164062 338.730469 10.609375 C 339.15625 11.257812 339.777344 12.011719 340.691406 12.703125 L 324.863281 12.703125 C 324.480469 12.703125 324.097656 12.703125 324.097656 13.136719 C 324.097656 13.566406 324.480469 13.566406 324.863281 13.566406 Z M 340.691406 13.566406 " fill-opacity="1" fill-rule="nonzero"/></g><g clip-path="url(#bb6d9d60db)"><path fill="#17191a" d="M 334.0625 19.085938 C 334.085938 19 334.128906 18.867188 334.128906 18.761719 C 334.128906 18.542969 333.914062 18.542969 333.871094 18.542969 C 333.851562 18.542969 333.082031 18.609375 332.699219 18.652344 C 332.339844 18.675781 332.019531 18.71875 331.636719 18.738281 C 331.125 18.78125 330.976562 18.804688 330.976562 19.191406 C 330.976562 19.410156 331.1875 19.410156 331.402344 19.410156 C 332.488281 19.410156 332.488281 19.601562 332.488281 19.820312 C 332.488281 19.96875 332.316406 20.597656 332.230469 20.984375 L 331.71875 23.058594 C 331.507812 23.921875 330.292969 28.824219 330.207031 29.214844 C 330.101562 29.753906 330.101562 30.121094 330.101562 30.402344 C 330.101562 32.605469 331.316406 33.75 332.699219 33.75 C 335.171875 33.75 337.726562 30.53125 337.726562 27.398438 C 337.726562 25.414062 336.621094 24.007812 335.023438 24.007812 C 333.914062 24.007812 332.914062 24.9375 332.507812 25.371094 Z M 332.722656 33.316406 C 332.039062 33.316406 331.292969 32.796875 331.292969 31.113281 C 331.292969 30.402344 331.359375 29.992188 331.742188 28.480469 C 331.804688 28.199219 332.144531 26.816406 332.230469 26.535156 C 332.273438 26.363281 333.53125 24.441406 334.980469 24.441406 C 335.917969 24.441406 336.34375 25.390625 336.34375 26.515625 C 336.34375 27.550781 335.746094 29.992188 335.214844 31.113281 C 334.679688 32.28125 333.703125 33.316406 332.722656 33.316406 Z M 332.722656 33.316406 " fill-opacity="1" fill-rule="nonzero"/></g><g fill="#17191a" fill-opacity="1"><g transform="translate(0.0000075, 31.353571)"><g><path d="M 7.921875 -4.296875 L 9.703125 -4.296875 L 9.703125 -2.96875 L 7.921875 -2.96875 L 7.921875 0 L 6.296875 0 L 6.296875 -2.96875 L 0.46875 -2.96875 L 0.46875 -3.921875 L 6.203125 -12.796875 L 7.921875 -12.796875 Z M 2.3125 -4.296875 L 6.296875 -4.296875 L 6.296875 -10.578125 L 6.09375 -10.21875 Z M 2.3125 -4.296875 "/></g></g></g><g fill="#17191a" fill-opacity="1"><g transform="translate(10.100848, 31.353571)"><g><path d="M 4.984375 -5.109375 C 4.984375 -3.796875 4.8125 -2.539062 4.46875 -1.34375 C 4.125 -0.144531 3.597656 0.957031 2.890625 1.96875 C 2.191406 2.976562 1.453125 3.695312 0.671875 4.125 L 0.328125 3.140625 C 1.234375 2.441406 1.957031 1.367188 2.5 -0.078125 C 3.050781 -1.535156 3.332031 -3.15625 3.34375 -4.9375 L 3.34375 -5.21875 C 3.34375 -6.445312 3.210938 -7.585938 2.953125 -8.640625 C 2.703125 -9.703125 2.347656 -10.648438 1.890625 -11.484375 C 1.429688 -12.328125 0.910156 -12.984375 0.328125 -13.453125 L 0.671875 -14.4375 C 1.453125 -14.007812 2.191406 -13.296875 2.890625 -12.296875 C 3.585938 -11.296875 4.109375 -10.191406 4.453125 -8.984375 C 4.804688 -7.773438 4.984375 -6.484375 4.984375 -5.109375 Z M 4.984375 -5.109375 "/></g></g></g><g fill="#17191a" fill-opacity="1"><g transform="translate(16.354586, 31.353571)"><g/></g></g><g fill="#17191a" fill-opacity="1"><g transform="translate(20.807745, 31.353571)"><g><path d="M 11.328125 -5.984375 C 11.328125 -4.734375 11.113281 -3.640625 10.6875 -2.703125 C 10.269531 -1.765625 9.675781 -1.050781 8.90625 -0.5625 C 8.132812 -0.0703125 7.234375 0.171875 6.203125 0.171875 C 5.191406 0.171875 4.296875 -0.0703125 3.515625 -0.5625 C 2.734375 -1.0625 2.128906 -1.769531 1.703125 -2.6875 C 1.273438 -3.601562 1.050781 -4.664062 1.03125 -5.875 L 1.03125 -6.796875 C 1.03125 -8.023438 1.242188 -9.109375 1.671875 -10.046875 C 2.109375 -10.992188 2.71875 -11.71875 3.5 -12.21875 C 4.28125 -12.71875 5.171875 -12.96875 6.171875 -12.96875 C 7.203125 -12.96875 8.109375 -12.71875 8.890625 -12.21875 C 9.671875 -11.726562 10.269531 -11.015625 10.6875 -10.078125 C 11.113281 -9.140625 11.328125 -8.046875 11.328125 -6.796875 Z M 9.65625 -6.8125 C 9.65625 -8.332031 9.347656 -9.492188 8.734375 -10.296875 C 8.128906 -11.109375 7.273438 -11.515625 6.171875 -11.515625 C 5.109375 -11.515625 4.269531 -11.109375 3.65625 -10.296875 C 3.050781 -9.492188 2.738281 -8.367188 2.71875 -6.921875 L 2.71875 -5.984375 C 2.71875 -4.515625 3.023438 -3.359375 3.640625 -2.515625 C 4.265625 -1.671875 5.117188 -1.25 6.203125 -1.25 C 7.285156 -1.25 8.125 -1.644531 8.71875 -2.4375 C 9.320312 -3.238281 9.632812 -4.378906 9.65625 -5.859375 Z M 9.65625 -6.8125 "/></g></g></g><g fill="#17191a" fill-opacity="1"><g transform="translate(33.174687, 31.353571)"><g><path d="M 0.828125 -4.828125 C 0.828125 -6.285156 1.171875 -7.457031 1.859375 -8.34375 C 2.554688 -9.238281 3.46875 -9.6875 4.59375 -9.6875 C 5.707031 -9.6875 6.585938 -9.304688 7.234375 -8.546875 L 7.234375 -13.5 L 8.859375 -13.5 L 8.859375 0 L 7.359375 0 L 7.28125 -1.015625 C 6.632812 -0.222656 5.734375 0.171875 4.578125 0.171875 C 3.472656 0.171875 2.570312 -0.273438 1.875 -1.171875 C 1.175781 -2.078125 0.828125 -3.257812 0.828125 -4.71875 Z M 2.46875 -4.65625 C 2.46875 -3.570312 2.6875 -2.722656 3.125 -2.109375 C 3.570312 -1.503906 4.1875 -1.203125 4.96875 -1.203125 C 6 -1.203125 6.753906 -1.664062 7.234375 -2.59375 L 7.234375 -6.96875 C 6.742188 -7.863281 6 -8.3125 5 -8.3125 C 4.195312 -8.3125 3.570312 -8 3.125 -7.375 C 2.6875 -6.757812 2.46875 -5.851562 2.46875 -4.65625 Z M 2.46875 -4.65625 "/></g></g></g><g fill="#17191a" fill-opacity="1"><g transform="translate(43.319451, 31.353571)"><g><path d="M 5.828125 -8.046875 C 5.578125 -8.085938 5.3125 -8.109375 5.03125 -8.109375 C 3.957031 -8.109375 3.234375 -7.65625 2.859375 -6.75 L 2.859375 0 L 1.234375 0 L 1.234375 -9.515625 L 2.8125 -9.515625 L 2.84375 -8.40625 C 3.375 -9.257812 4.128906 -9.6875 5.109375 -9.6875 C 5.421875 -9.6875 5.660156 -9.644531 5.828125 -9.5625 Z M 5.828125 -8.046875 "/></g></g></g><g fill="#17191a" fill-opacity="1"><g transform="translate(49.406311, 31.353571)"><g><path d="M 5.171875 0.171875 C 3.890625 0.171875 2.84375 -0.25 2.03125 -1.09375 C 1.21875 -1.9375 0.8125 -3.066406 0.8125 -4.484375 L 0.8125 -4.796875 C 0.8125 -5.734375 0.992188 -6.570312 1.359375 -7.3125 C 1.722656 -8.050781 2.226562 -8.628906 2.875 -9.046875 C 3.519531 -9.472656 4.21875 -9.6875 4.96875 -9.6875 C 6.207031 -9.6875 7.171875 -9.28125 7.859375 -8.46875 C 8.546875 -7.65625 8.890625 -6.488281 8.890625 -4.96875 L 8.890625 -4.296875 L 2.4375 -4.296875 C 2.46875 -3.359375 2.742188 -2.597656 3.265625 -2.015625 C 3.785156 -1.441406 4.453125 -1.15625 5.265625 -1.15625 C 5.835938 -1.15625 6.320312 -1.269531 6.71875 -1.5 C 7.125 -1.738281 7.472656 -2.050781 7.765625 -2.4375 L 8.765625 -1.65625 C 7.960938 -0.4375 6.765625 0.171875 5.171875 0.171875 Z M 4.96875 -8.34375 C 4.3125 -8.34375 3.757812 -8.101562 3.3125 -7.625 C 2.875 -7.15625 2.601562 -6.488281 2.5 -5.625 L 7.265625 -5.625 L 7.265625 -5.75 C 7.210938 -6.570312 6.988281 -7.207031 6.59375 -7.65625 C 6.195312 -8.113281 5.65625 -8.34375 4.96875 -8.34375 Z M 4.96875 -8.34375 "/></g></g></g><g fill="#17191a" fill-opacity="1"><g transform="translate(58.93624, 31.353571)"><g><path d="M 0.828125 -4.828125 C 0.828125 -6.285156 1.171875 -7.457031 1.859375 -8.34375 C 2.554688 -9.238281 3.46875 -9.6875 4.59375 -9.6875 C 5.707031 -9.6875 6.585938 -9.304688 7.234375 -8.546875 L 7.234375 -13.5 L 8.859375 -13.5 L 8.859375 0 L 7.359375 0 L 7.28125 -1.015625 C 6.632812 -0.222656 5.734375 0.171875 4.578125 0.171875 C 3.472656 0.171875 2.570312 -0.273438 1.875 -1.171875 C 1.175781 -2.078125 0.828125 -3.257812 0.828125 -4.71875 Z M 2.46875 -4.65625 C 2.46875 -3.570312 2.6875 -2.722656 3.125 -2.109375 C 3.570312 -1.503906 4.1875 -1.203125 4.96875 -1.203125 C 6 -1.203125 6.753906 -1.664062 7.234375 -2.59375 L 7.234375 -6.96875 C 6.742188 -7.863281 6 -8.3125 5 -8.3125 C 4.195312 -8.3125 3.570312 -8 3.125 -7.375 C 2.6875 -6.757812 2.46875 -5.851562 2.46875 -4.65625 Z M 2.46875 -4.65625 "/></g></g></g><g fill="#17191a" fill-opacity="1"><g transform="translate(69.081003, 31.353571)"><g><path d="M 3 0 L 1.375 0 L 1.375 -9.515625 L 3 -9.515625 Z M 1.234375 -12.03125 C 1.234375 -12.289062 1.3125 -12.507812 1.46875 -12.6875 C 1.632812 -12.875 1.875 -12.96875 2.1875 -12.96875 C 2.507812 -12.96875 2.753906 -12.875 2.921875 -12.6875 C 3.085938 -12.507812 3.171875 -12.289062 3.171875 -12.03125 C 3.171875 -11.769531 3.085938 -11.550781 2.921875 -11.375 C 2.753906 -11.195312 2.507812 -11.109375 2.1875 -11.109375 C 1.875 -11.109375 1.632812 -11.195312 1.46875 -11.375 C 1.3125 -11.550781 1.234375 -11.769531 1.234375 -12.03125 Z M 1.234375 -12.03125 "/></g></g></g><g fill="#17191a" fill-opacity="1"><g transform="translate(73.446329, 31.353571)"><g/></g></g><g fill="#17191a" fill-opacity="1"><g transform="translate(77.899488, 31.353571)"><g><path d="M 5.828125 -8.046875 C 5.578125 -8.085938 5.3125 -8.109375 5.03125 -8.109375 C 3.957031 -8.109375 3.234375 -7.65625 2.859375 -6.75 L 2.859375 0 L 1.234375 0 L 1.234375 -9.515625 L 2.8125 -9.515625 L 2.84375 -8.40625 C 3.375 -9.257812 4.128906 -9.6875 5.109375 -9.6875 C 5.421875 -9.6875 5.660156 -9.644531 5.828125 -9.5625 Z M 5.828125 -8.046875 "/></g></g></g><g fill="#17191a" fill-opacity="1"><g transform="translate(83.986348, 31.353571)"><g><path d="M 5.171875 0.171875 C 3.890625 0.171875 2.84375 -0.25 2.03125 -1.09375 C 1.21875 -1.9375 0.8125 -3.066406 0.8125 -4.484375 L 0.8125 -4.796875 C 0.8125 -5.734375 0.992188 -6.570312 1.359375 -7.3125 C 1.722656 -8.050781 2.226562 -8.628906 2.875 -9.046875 C 3.519531 -9.472656 4.21875 -9.6875 4.96875 -9.6875 C 6.207031 -9.6875 7.171875 -9.28125 7.859375 -8.46875 C 8.546875 -7.65625 8.890625 -6.488281 8.890625 -4.96875 L 8.890625 -4.296875 L 2.4375 -4.296875 C 2.46875 -3.359375 2.742188 -2.597656 3.265625 -2.015625 C 3.785156 -1.441406 4.453125 -1.15625 5.265625 -1.15625 C 5.835938 -1.15625 6.320312 -1.269531 6.71875 -1.5 C 7.125 -1.738281 7.472656 -2.050781 7.765625 -2.4375 L 8.765625 -1.65625 C 7.960938 -0.4375 6.765625 0.171875 5.171875 0.171875 Z M 4.96875 -8.34375 C 4.3125 -8.34375 3.757812 -8.101562 3.3125 -7.625 C 2.875 -7.15625 2.601562 -6.488281 2.5 -5.625 L 7.265625 -5.625 L 7.265625 -5.75 C 7.210938 -6.570312 6.988281 -7.207031 6.59375 -7.65625 C 6.195312 -8.113281 5.65625 -8.34375 4.96875 -8.34375 Z M 4.96875 -8.34375 "/></g></g></g><g fill="#17191a" fill-opacity="1"><g transform="translate(93.516277, 31.353571)"><g><path d="M 7.109375 0 C 7.015625 -0.1875 6.9375 -0.519531 6.875 -1 C 6.113281 -0.21875 5.210938 0.171875 4.171875 0.171875 C 3.234375 0.171875 2.460938 -0.09375 1.859375 -0.625 C 1.253906 -1.15625 0.953125 -1.828125 0.953125 -2.640625 C 0.953125 -3.628906 1.328125 -4.394531 2.078125 -4.9375 C 2.835938 -5.488281 3.898438 -5.765625 5.265625 -5.765625 L 6.84375 -5.765625 L 6.84375 -6.515625 C 6.84375 -7.078125 6.671875 -7.523438 6.328125 -7.859375 C 5.992188 -8.203125 5.492188 -8.375 4.828125 -8.375 C 4.253906 -8.375 3.769531 -8.226562 3.375 -7.9375 C 2.976562 -7.644531 2.78125 -7.289062 2.78125 -6.875 L 1.15625 -6.875 C 1.15625 -7.34375 1.320312 -7.796875 1.65625 -8.234375 C 1.988281 -8.679688 2.441406 -9.035156 3.015625 -9.296875 C 3.597656 -9.554688 4.238281 -9.6875 4.9375 -9.6875 C 6.03125 -9.6875 6.882812 -9.410156 7.5 -8.859375 C 8.125 -8.316406 8.445312 -7.5625 8.46875 -6.59375 L 8.46875 -2.21875 C 8.46875 -1.351562 8.582031 -0.660156 8.8125 -0.140625 L 8.8125 0 Z M 4.40625 -1.234375 C 4.914062 -1.234375 5.398438 -1.363281 5.859375 -1.625 C 6.316406 -1.894531 6.644531 -2.238281 6.84375 -2.65625 L 6.84375 -4.609375 L 5.578125 -4.609375 C 3.578125 -4.609375 2.578125 -4.023438 2.578125 -2.859375 C 2.578125 -2.347656 2.75 -1.945312 3.09375 -1.65625 C 3.4375 -1.375 3.875 -1.234375 4.40625 -1.234375 Z M 4.40625 -1.234375 "/></g></g></g><g fill="#17191a" fill-opacity="1"><g transform="translate(103.300918, 31.353571)"><g><path d="M 3 0 L 1.375 0 L 1.375 -13.5 L 3 -13.5 Z M 3 0 "/></g></g></g><g fill="#17191a" fill-opacity="1"><g transform="translate(107.666243, 31.353571)"><g><path d="M 2.765625 -9.515625 L 2.828125 -8.3125 C 3.546875 -9.226562 4.492188 -9.6875 5.671875 -9.6875 C 7.679688 -9.6875 8.691406 -8.550781 8.703125 -6.28125 L 8.703125 0 L 7.078125 0 L 7.078125 -6.296875 C 7.078125 -6.984375 6.921875 -7.488281 6.609375 -7.8125 C 6.304688 -8.144531 5.828125 -8.3125 5.171875 -8.3125 C 4.648438 -8.3125 4.1875 -8.171875 3.78125 -7.890625 C 3.382812 -7.609375 3.078125 -7.238281 2.859375 -6.78125 L 2.859375 0 L 1.234375 0 L 1.234375 -9.515625 Z M 2.765625 -9.515625 "/></g></g></g><g fill="#17191a" fill-opacity="1"><g transform="translate(117.591417, 31.353571)"><g><path d="M 3 0 L 1.375 0 L 1.375 -9.515625 L 3 -9.515625 Z M 1.234375 -12.03125 C 1.234375 -12.289062 1.3125 -12.507812 1.46875 -12.6875 C 1.632812 -12.875 1.875 -12.96875 2.1875 -12.96875 C 2.507812 -12.96875 2.753906 -12.875 2.921875 -12.6875 C 3.085938 -12.507812 3.171875 -12.289062 3.171875 -12.03125 C 3.171875 -11.769531 3.085938 -11.550781 2.921875 -11.375 C 2.753906 -11.195312 2.507812 -11.109375 2.1875 -11.109375 C 1.875 -11.109375 1.632812 -11.195312 1.46875 -11.375 C 1.3125 -11.550781 1.234375 -11.769531 1.234375 -12.03125 Z M 1.234375 -12.03125 "/></g></g></g><g fill="#17191a" fill-opacity="1"><g transform="translate(121.956743, 31.353571)"><g/></g></g><g fill="#17191a" fill-opacity="1"><g transform="translate(126.409902, 31.353571)"><g><path d="M 9.265625 -4.65625 C 9.265625 -3.207031 8.929688 -2.039062 8.265625 -1.15625 C 7.609375 -0.269531 6.710938 0.171875 5.578125 0.171875 C 4.421875 0.171875 3.515625 -0.191406 2.859375 -0.921875 L 2.859375 3.65625 L 1.234375 3.65625 L 1.234375 -9.515625 L 2.71875 -9.515625 L 2.796875 -8.453125 C 3.453125 -9.273438 4.375 -9.6875 5.5625 -9.6875 C 6.695312 -9.6875 7.597656 -9.253906 8.265625 -8.390625 C 8.929688 -7.535156 9.265625 -6.335938 9.265625 -4.796875 Z M 7.640625 -4.828125 C 7.640625 -5.898438 7.410156 -6.75 6.953125 -7.375 C 6.492188 -8 5.867188 -8.3125 5.078125 -8.3125 C 4.085938 -8.3125 3.347656 -7.875 2.859375 -7 L 2.859375 -2.453125 C 3.347656 -1.585938 4.09375 -1.15625 5.09375 -1.15625 C 5.875 -1.15625 6.492188 -1.460938 6.953125 -2.078125 C 7.410156 -2.691406 7.640625 -3.609375 7.640625 -4.828125 Z M 7.640625 -4.828125 "/></g></g></g><g fill="#17191a" fill-opacity="1"><g transform="translate(136.501965, 31.353571)"><g><path d="M 7.109375 0 C 7.015625 -0.1875 6.9375 -0.519531 6.875 -1 C 6.113281 -0.21875 5.210938 0.171875 4.171875 0.171875 C 3.234375 0.171875 2.460938 -0.09375 1.859375 -0.625 C 1.253906 -1.15625 0.953125 -1.828125 0.953125 -2.640625 C 0.953125 -3.628906 1.328125 -4.394531 2.078125 -4.9375 C 2.835938 -5.488281 3.898438 -5.765625 5.265625 -5.765625 L 6.84375 -5.765625 L 6.84375 -6.515625 C 6.84375 -7.078125 6.671875 -7.523438 6.328125 -7.859375 C 5.992188 -8.203125 5.492188 -8.375 4.828125 -8.375 C 4.253906 -8.375 3.769531 -8.226562 3.375 -7.9375 C 2.976562 -7.644531 2.78125 -7.289062 2.78125 -6.875 L 1.15625 -6.875 C 1.15625 -7.34375 1.320312 -7.796875 1.65625 -8.234375 C 1.988281 -8.679688 2.441406 -9.035156 3.015625 -9.296875 C 3.597656 -9.554688 4.238281 -9.6875 4.9375 -9.6875 C 6.03125 -9.6875 6.882812 -9.410156 7.5 -8.859375 C 8.125 -8.316406 8.445312 -7.5625 8.46875 -6.59375 L 8.46875 -2.21875 C 8.46875 -1.351562 8.582031 -0.660156 8.8125 -0.140625 L 8.8125 0 Z M 4.40625 -1.234375 C 4.914062 -1.234375 5.398438 -1.363281 5.859375 -1.625 C 6.316406 -1.894531 6.644531 -2.238281 6.84375 -2.65625 L 6.84375 -4.609375 L 5.578125 -4.609375 C 3.578125 -4.609375 2.578125 -4.023438 2.578125 -2.859375 C 2.578125 -2.347656 2.75 -1.945312 3.09375 -1.65625 C 3.4375 -1.375 3.875 -1.234375 4.40625 -1.234375 Z M 4.40625 -1.234375 "/></g></g></g><g fill="#17191a" fill-opacity="1"><g transform="translate(146.286605, 31.353571)"><g><path d="M 5.828125 -8.046875 C 5.578125 -8.085938 5.3125 -8.109375 5.03125 -8.109375 C 3.957031 -8.109375 3.234375 -7.65625 2.859375 -6.75 L 2.859375 0 L 1.234375 0 L 1.234375 -9.515625 L 2.8125 -9.515625 L 2.84375 -8.40625 C 3.375 -9.257812 4.128906 -9.6875 5.109375 -9.6875 C 5.421875 -9.6875 5.660156 -9.644531 5.828125 -9.5625 Z M 5.828125 -8.046875 "/></g></g></g><g fill="#17191a" fill-opacity="1"><g transform="translate(152.373466, 31.353571)"><g><path d="M 7.109375 0 C 7.015625 -0.1875 6.9375 -0.519531 6.875 -1 C 6.113281 -0.21875 5.210938 0.171875 4.171875 0.171875 C 3.234375 0.171875 2.460938 -0.09375 1.859375 -0.625 C 1.253906 -1.15625 0.953125 -1.828125 0.953125 -2.640625 C 0.953125 -3.628906 1.328125 -4.394531 2.078125 -4.9375 C 2.835938 -5.488281 3.898438 -5.765625 5.265625 -5.765625 L 6.84375 -5.765625 L 6.84375 -6.515625 C 6.84375 -7.078125 6.671875 -7.523438 6.328125 -7.859375 C 5.992188 -8.203125 5.492188 -8.375 4.828125 -8.375 C 4.253906 -8.375 3.769531 -8.226562 3.375 -7.9375 C 2.976562 -7.644531 2.78125 -7.289062 2.78125 -6.875 L 1.15625 -6.875 C 1.15625 -7.34375 1.320312 -7.796875 1.65625 -8.234375 C 1.988281 -8.679688 2.441406 -9.035156 3.015625 -9.296875 C 3.597656 -9.554688 4.238281 -9.6875 4.9375 -9.6875 C 6.03125 -9.6875 6.882812 -9.410156 7.5 -8.859375 C 8.125 -8.316406 8.445312 -7.5625 8.46875 -6.59375 L 8.46875 -2.21875 C 8.46875 -1.351562 8.582031 -0.660156 8.8125 -0.140625 L 8.8125 0 Z M 4.40625 -1.234375 C 4.914062 -1.234375 5.398438 -1.363281 5.859375 -1.625 C 6.316406 -1.894531 6.644531 -2.238281 6.84375 -2.65625 L 6.84375 -4.609375 L 5.578125 -4.609375 C 3.578125 -4.609375 2.578125 -4.023438 2.578125 -2.859375 C 2.578125 -2.347656 2.75 -1.945312 3.09375 -1.65625 C 3.4375 -1.375 3.875 -1.234375 4.40625 -1.234375 Z M 4.40625 -1.234375 "/></g></g></g><g fill="#17191a" fill-opacity="1"><g transform="translate(162.158106, 31.353571)"><g><path d="M 2.765625 -9.515625 L 2.796875 -8.453125 C 3.492188 -9.273438 4.4375 -9.6875 5.625 -9.6875 C 6.957031 -9.6875 7.863281 -9.175781 8.34375 -8.15625 C 8.65625 -8.613281 9.066406 -8.984375 9.578125 -9.265625 C 10.085938 -9.546875 10.6875 -9.6875 11.375 -9.6875 C 13.457031 -9.6875 14.519531 -8.582031 14.5625 -6.375 L 14.5625 0 L 12.921875 0 L 12.921875 -6.28125 C 12.921875 -6.957031 12.765625 -7.460938 12.453125 -7.796875 C 12.148438 -8.140625 11.632812 -8.3125 10.90625 -8.3125 C 10.300781 -8.3125 9.796875 -8.128906 9.390625 -7.765625 C 8.992188 -7.398438 8.765625 -6.914062 8.703125 -6.3125 L 8.703125 0 L 7.0625 0 L 7.0625 -6.234375 C 7.0625 -7.617188 6.382812 -8.3125 5.03125 -8.3125 C 3.96875 -8.3125 3.238281 -7.851562 2.84375 -6.9375 L 2.84375 0 L 1.21875 0 L 1.21875 -9.515625 Z M 2.765625 -9.515625 "/></g></g></g><g fill="#17191a" fill-opacity="1"><g transform="translate(177.924206, 31.353571)"><g><path d="M 5.171875 0.171875 C 3.890625 0.171875 2.84375 -0.25 2.03125 -1.09375 C 1.21875 -1.9375 0.8125 -3.066406 0.8125 -4.484375 L 0.8125 -4.796875 C 0.8125 -5.734375 0.992188 -6.570312 1.359375 -7.3125 C 1.722656 -8.050781 2.226562 -8.628906 2.875 -9.046875 C 3.519531 -9.472656 4.21875 -9.6875 4.96875 -9.6875 C 6.207031 -9.6875 7.171875 -9.28125 7.859375 -8.46875 C 8.546875 -7.65625 8.890625 -6.488281 8.890625 -4.96875 L 8.890625 -4.296875 L 2.4375 -4.296875 C 2.46875 -3.359375 2.742188 -2.597656 3.265625 -2.015625 C 3.785156 -1.441406 4.453125 -1.15625 5.265625 -1.15625 C 5.835938 -1.15625 6.320312 -1.269531 6.71875 -1.5 C 7.125 -1.738281 7.472656 -2.050781 7.765625 -2.4375 L 8.765625 -1.65625 C 7.960938 -0.4375 6.765625 0.171875 5.171875 0.171875 Z M 4.96875 -8.34375 C 4.3125 -8.34375 3.757812 -8.101562 3.3125 -7.625 C 2.875 -7.15625 2.601562 -6.488281 2.5 -5.625 L 7.265625 -5.625 L 7.265625 -5.75 C 7.210938 -6.570312 6.988281 -7.207031 6.59375 -7.65625 C 6.195312 -8.113281 5.65625 -8.34375 4.96875 -8.34375 Z M 4.96875 -8.34375 "/></g></g></g><g fill="#17191a" fill-opacity="1"><g transform="translate(187.454136, 31.353571)"><g><path d="M 3.4375 -11.8125 L 3.4375 -9.515625 L 5.21875 -9.515625 L 5.21875 -8.25 L 3.4375 -8.25 L 3.4375 -2.359375 C 3.4375 -1.972656 3.515625 -1.6875 3.671875 -1.5 C 3.828125 -1.3125 4.097656 -1.21875 4.484375 -1.21875 C 4.671875 -1.21875 4.925781 -1.25 5.25 -1.3125 L 5.25 0 C 4.820312 0.113281 4.410156 0.171875 4.015625 0.171875 C 3.285156 0.171875 2.734375 -0.046875 2.359375 -0.484375 C 1.992188 -0.921875 1.8125 -1.546875 1.8125 -2.359375 L 1.8125 -8.25 L 0.078125 -8.25 L 0.078125 -9.515625 L 1.8125 -9.515625 L 1.8125 -11.8125 Z M 3.4375 -11.8125 "/></g></g></g><g fill="#17191a" fill-opacity="1"><g transform="translate(193.330207, 31.353571)"><g><path d="M 7.109375 0 C 7.015625 -0.1875 6.9375 -0.519531 6.875 -1 C 6.113281 -0.21875 5.210938 0.171875 4.171875 0.171875 C 3.234375 0.171875 2.460938 -0.09375 1.859375 -0.625 C 1.253906 -1.15625 0.953125 -1.828125 0.953125 -2.640625 C 0.953125 -3.628906 1.328125 -4.394531 2.078125 -4.9375 C 2.835938 -5.488281 3.898438 -5.765625 5.265625 -5.765625 L 6.84375 -5.765625 L 6.84375 -6.515625 C 6.84375 -7.078125 6.671875 -7.523438 6.328125 -7.859375 C 5.992188 -8.203125 5.492188 -8.375 4.828125 -8.375 C 4.253906 -8.375 3.769531 -8.226562 3.375 -7.9375 C 2.976562 -7.644531 2.78125 -7.289062 2.78125 -6.875 L 1.15625 -6.875 C 1.15625 -7.34375 1.320312 -7.796875 1.65625 -8.234375 C 1.988281 -8.679688 2.441406 -9.035156 3.015625 -9.296875 C 3.597656 -9.554688 4.238281 -9.6875 4.9375 -9.6875 C 6.03125 -9.6875 6.882812 -9.410156 7.5 -8.859375 C 8.125 -8.316406 8.445312 -7.5625 8.46875 -6.59375 L 8.46875 -2.21875 C 8.46875 -1.351562 8.582031 -0.660156 8.8125 -0.140625 L 8.8125 0 Z M 4.40625 -1.234375 C 4.914062 -1.234375 5.398438 -1.363281 5.859375 -1.625 C 6.316406 -1.894531 6.644531 -2.238281 6.84375 -2.65625 L 6.84375 -4.609375 L 5.578125 -4.609375 C 3.578125 -4.609375 2.578125 -4.023438 2.578125 -2.859375 C 2.578125 -2.347656 2.75 -1.945312 3.09375 -1.65625 C 3.4375 -1.375 3.875 -1.234375 4.40625 -1.234375 Z M 4.40625 -1.234375 "/></g></g></g><g fill="#17191a" fill-opacity="1"><g transform="translate(203.114859, 31.353571)"><g><path d="M 5.828125 -8.046875 C 5.578125 -8.085938 5.3125 -8.109375 5.03125 -8.109375 C 3.957031 -8.109375 3.234375 -7.65625 2.859375 -6.75 L 2.859375 0 L 1.234375 0 L 1.234375 -9.515625 L 2.8125 -9.515625 L 2.84375 -8.40625 C 3.375 -9.257812 4.128906 -9.6875 5.109375 -9.6875 C 5.421875 -9.6875 5.660156 -9.644531 5.828125 -9.5625 Z M 5.828125 -8.046875 "/></g></g></g><g fill="#17191a" fill-opacity="1"><g transform="translate(209.201719, 31.353571)"><g/></g></g><g fill="#17191a" fill-opacity="1"><g transform="translate(213.654867, 31.353571)"><g><path d="M 3.890625 -4.40625 L 2.859375 -3.34375 L 2.859375 0 L 1.234375 0 L 1.234375 -13.5 L 2.859375 -13.5 L 2.859375 -5.328125 L 3.734375 -6.375 L 6.703125 -9.515625 L 8.671875 -9.515625 L 4.96875 -5.53125 L 9.109375 0 L 7.203125 0 Z M 3.890625 -4.40625 "/></g></g></g><g fill="#17191a" fill-opacity="1"><g transform="translate(222.771962, 31.353571)"><g/></g></g><g fill="#17191a" fill-opacity="1"><g transform="translate(227.225132, 31.353571)"><g><path d="M 7.109375 0 C 7.015625 -0.1875 6.9375 -0.519531 6.875 -1 C 6.113281 -0.21875 5.210938 0.171875 4.171875 0.171875 C 3.234375 0.171875 2.460938 -0.09375 1.859375 -0.625 C 1.253906 -1.15625 0.953125 -1.828125 0.953125 -2.640625 C 0.953125 -3.628906 1.328125 -4.394531 2.078125 -4.9375 C 2.835938 -5.488281 3.898438 -5.765625 5.265625 -5.765625 L 6.84375 -5.765625 L 6.84375 -6.515625 C 6.84375 -7.078125 6.671875 -7.523438 6.328125 -7.859375 C 5.992188 -8.203125 5.492188 -8.375 4.828125 -8.375 C 4.253906 -8.375 3.769531 -8.226562 3.375 -7.9375 C 2.976562 -7.644531 2.78125 -7.289062 2.78125 -6.875 L 1.15625 -6.875 C 1.15625 -7.34375 1.320312 -7.796875 1.65625 -8.234375 C 1.988281 -8.679688 2.441406 -9.035156 3.015625 -9.296875 C 3.597656 -9.554688 4.238281 -9.6875 4.9375 -9.6875 C 6.03125 -9.6875 6.882812 -9.410156 7.5 -8.859375 C 8.125 -8.316406 8.445312 -7.5625 8.46875 -6.59375 L 8.46875 -2.21875 C 8.46875 -1.351562 8.582031 -0.660156 8.8125 -0.140625 L 8.8125 0 Z M 4.40625 -1.234375 C 4.914062 -1.234375 5.398438 -1.363281 5.859375 -1.625 C 6.316406 -1.894531 6.644531 -2.238281 6.84375 -2.65625 L 6.84375 -4.609375 L 5.578125 -4.609375 C 3.578125 -4.609375 2.578125 -4.023438 2.578125 -2.859375 C 2.578125 -2.347656 2.75 -1.945312 3.09375 -1.65625 C 3.4375 -1.375 3.875 -1.234375 4.40625 -1.234375 Z M 4.40625 -1.234375 "/></g></g></g><g fill="#17191a" fill-opacity="1"><g transform="translate(237.009784, 31.353571)"><g><path d="M 3.890625 -4.40625 L 2.859375 -3.34375 L 2.859375 0 L 1.234375 0 L 1.234375 -13.5 L 2.859375 -13.5 L 2.859375 -5.328125 L 3.734375 -6.375 L 6.703125 -9.515625 L 8.671875 -9.515625 L 4.96875 -5.53125 L 9.109375 0 L 7.203125 0 Z M 3.890625 -4.40625 "/></g></g></g><g fill="#17191a" fill-opacity="1"><g transform="translate(246.12688, 31.353571)"><g><path d="M 0.796875 -4.84375 C 0.796875 -5.769531 0.976562 -6.601562 1.34375 -7.34375 C 1.71875 -8.09375 2.226562 -8.671875 2.875 -9.078125 C 3.53125 -9.484375 4.273438 -9.6875 5.109375 -9.6875 C 6.410156 -9.6875 7.457031 -9.238281 8.25 -8.34375 C 9.050781 -7.445312 9.453125 -6.253906 9.453125 -4.765625 L 9.453125 -4.65625 C 9.453125 -3.726562 9.273438 -2.894531 8.921875 -2.15625 C 8.566406 -1.425781 8.0625 -0.851562 7.40625 -0.4375 C 6.75 -0.03125 5.992188 0.171875 5.140625 0.171875 C 3.847656 0.171875 2.800781 -0.273438 2 -1.171875 C 1.195312 -2.066406 0.796875 -3.253906 0.796875 -4.734375 Z M 2.4375 -4.65625 C 2.4375 -3.59375 2.679688 -2.742188 3.171875 -2.109375 C 3.660156 -1.472656 4.316406 -1.15625 5.140625 -1.15625 C 5.960938 -1.15625 6.613281 -1.476562 7.09375 -2.125 C 7.582031 -2.769531 7.828125 -3.675781 7.828125 -4.84375 C 7.828125 -5.882812 7.578125 -6.726562 7.078125 -7.375 C 6.585938 -8.019531 5.929688 -8.34375 5.109375 -8.34375 C 4.304688 -8.34375 3.660156 -8.023438 3.171875 -7.390625 C 2.679688 -6.753906 2.4375 -5.84375 2.4375 -4.65625 Z M 2.4375 -4.65625 "/></g></g></g><g fill="#17191a" fill-opacity="1"><g transform="translate(256.38582, 31.353571)"><g/></g></g><g fill="#17191a" fill-opacity="1"><g transform="translate(260.838991, 31.353571)"><g><path d="M 6.765625 -2.515625 C 6.765625 -2.960938 6.597656 -3.304688 6.265625 -3.546875 C 5.941406 -3.785156 5.367188 -3.992188 4.546875 -4.171875 C 3.722656 -4.347656 3.066406 -4.554688 2.578125 -4.796875 C 2.097656 -5.046875 1.738281 -5.34375 1.5 -5.6875 C 1.269531 -6.03125 1.15625 -6.4375 1.15625 -6.90625 C 1.15625 -7.675781 1.484375 -8.332031 2.140625 -8.875 C 2.804688 -9.414062 3.648438 -9.6875 4.671875 -9.6875 C 5.753906 -9.6875 6.628906 -9.40625 7.296875 -8.84375 C 7.972656 -8.289062 8.3125 -7.582031 8.3125 -6.71875 L 6.671875 -6.71875 C 6.671875 -7.164062 6.476562 -7.546875 6.09375 -7.859375 C 5.71875 -8.179688 5.242188 -8.34375 4.671875 -8.34375 C 4.078125 -8.34375 3.613281 -8.210938 3.28125 -7.953125 C 2.945312 -7.703125 2.78125 -7.367188 2.78125 -6.953125 C 2.78125 -6.554688 2.9375 -6.257812 3.25 -6.0625 C 3.5625 -5.863281 4.125 -5.671875 4.9375 -5.484375 C 5.75 -5.304688 6.40625 -5.09375 6.90625 -4.84375 C 7.414062 -4.59375 7.789062 -4.289062 8.03125 -3.9375 C 8.269531 -3.582031 8.390625 -3.148438 8.390625 -2.640625 C 8.390625 -1.785156 8.050781 -1.101562 7.375 -0.59375 C 6.695312 -0.0820312 5.816406 0.171875 4.734375 0.171875 C 3.972656 0.171875 3.296875 0.0351562 2.703125 -0.234375 C 2.117188 -0.503906 1.660156 -0.878906 1.328125 -1.359375 C 0.992188 -1.835938 0.828125 -2.359375 0.828125 -2.921875 L 2.46875 -2.921875 C 2.488281 -2.378906 2.703125 -1.945312 3.109375 -1.625 C 3.523438 -1.3125 4.066406 -1.15625 4.734375 -1.15625 C 5.347656 -1.15625 5.835938 -1.28125 6.203125 -1.53125 C 6.578125 -1.78125 6.765625 -2.109375 6.765625 -2.515625 Z M 6.765625 -2.515625 "/></g></g></g><g fill="#17191a" fill-opacity="1"><g transform="translate(270.114198, 31.353571)"><g><path d="M 7.109375 -0.9375 C 6.472656 -0.195312 5.539062 0.171875 4.3125 0.171875 C 3.300781 0.171875 2.53125 -0.117188 2 -0.703125 C 1.46875 -1.296875 1.203125 -2.171875 1.203125 -3.328125 L 1.203125 -9.515625 L 2.828125 -9.515625 L 2.828125 -3.359375 C 2.828125 -1.921875 3.410156 -1.203125 4.578125 -1.203125 C 5.816406 -1.203125 6.644531 -1.664062 7.0625 -2.59375 L 7.0625 -9.515625 L 8.6875 -9.515625 L 8.6875 0 L 7.140625 0 Z M 7.109375 -0.9375 "/></g></g></g><g fill="#17191a" fill-opacity="1"><g transform="translate(0.0000075, 56.103569)"><g><path d="M 6.765625 -2.515625 C 6.765625 -2.960938 6.597656 -3.304688 6.265625 -3.546875 C 5.941406 -3.785156 5.367188 -3.992188 4.546875 -4.171875 C 3.722656 -4.347656 3.066406 -4.554688 2.578125 -4.796875 C 2.097656 -5.046875 1.738281 -5.34375 1.5 -5.6875 C 1.269531 -6.03125 1.15625 -6.4375 1.15625 -6.90625 C 1.15625 -7.675781 1.484375 -8.332031 2.140625 -8.875 C 2.804688 -9.414062 3.648438 -9.6875 4.671875 -9.6875 C 5.753906 -9.6875 6.628906 -9.40625 7.296875 -8.84375 C 7.972656 -8.289062 8.3125 -7.582031 8.3125 -6.71875 L 6.671875 -6.71875 C 6.671875 -7.164062 6.476562 -7.546875 6.09375 -7.859375 C 5.71875 -8.179688 5.242188 -8.34375 4.671875 -8.34375 C 4.078125 -8.34375 3.613281 -8.210938 3.28125 -7.953125 C 2.945312 -7.703125 2.78125 -7.367188 2.78125 -6.953125 C 2.78125 -6.554688 2.9375 -6.257812 3.25 -6.0625 C 3.5625 -5.863281 4.125 -5.671875 4.9375 -5.484375 C 5.75 -5.304688 6.40625 -5.09375 6.90625 -4.84375 C 7.414062 -4.59375 7.789062 -4.289062 8.03125 -3.9375 C 8.269531 -3.582031 8.390625 -3.148438 8.390625 -2.640625 C 8.390625 -1.785156 8.050781 -1.101562 7.375 -0.59375 C 6.695312 -0.0820312 5.816406 0.171875 4.734375 0.171875 C 3.972656 0.171875 3.296875 0.0351562 2.703125 -0.234375 C 2.117188 -0.503906 1.660156 -0.878906 1.328125 -1.359375 C 0.992188 -1.835938 0.828125 -2.359375 0.828125 -2.921875 L 2.46875 -2.921875 C 2.488281 -2.378906 2.703125 -1.945312 3.109375 -1.625 C 3.523438 -1.3125 4.066406 -1.15625 4.734375 -1.15625 C 5.347656 -1.15625 5.835938 -1.28125 6.203125 -1.53125 C 6.578125 -1.78125 6.765625 -2.109375 6.765625 -2.515625 Z M 6.765625 -2.515625 "/></g></g></g><g fill="#17191a" fill-opacity="1"><g transform="translate(9.275214, 56.103569)"><g><path d="M 7.109375 -0.9375 C 6.472656 -0.195312 5.539062 0.171875 4.3125 0.171875 C 3.300781 0.171875 2.53125 -0.117188 2 -0.703125 C 1.46875 -1.296875 1.203125 -2.171875 1.203125 -3.328125 L 1.203125 -9.515625 L 2.828125 -9.515625 L 2.828125 -3.359375 C 2.828125 -1.921875 3.410156 -1.203125 4.578125 -1.203125 C 5.816406 -1.203125 6.644531 -1.664062 7.0625 -2.59375 L 7.0625 -9.515625 L 8.6875 -9.515625 L 8.6875 0 L 7.140625 0 Z M 7.109375 -0.9375 "/></g></g></g><g fill="#17191a" fill-opacity="1"><g transform="translate(19.191611, 56.103569)"><g><path d="M 9.265625 -4.65625 C 9.265625 -3.207031 8.929688 -2.039062 8.265625 -1.15625 C 7.609375 -0.269531 6.710938 0.171875 5.578125 0.171875 C 4.421875 0.171875 3.515625 -0.191406 2.859375 -0.921875 L 2.859375 3.65625 L 1.234375 3.65625 L 1.234375 -9.515625 L 2.71875 -9.515625 L 2.796875 -8.453125 C 3.453125 -9.273438 4.375 -9.6875 5.5625 -9.6875 C 6.695312 -9.6875 7.597656 -9.253906 8.265625 -8.390625 C 8.929688 -7.535156 9.265625 -6.335938 9.265625 -4.796875 Z M 7.640625 -4.828125 C 7.640625 -5.898438 7.410156 -6.75 6.953125 -7.375 C 6.492188 -8 5.867188 -8.3125 5.078125 -8.3125 C 4.085938 -8.3125 3.347656 -7.875 2.859375 -7 L 2.859375 -2.453125 C 3.347656 -1.585938 4.09375 -1.15625 5.09375 -1.15625 C 5.875 -1.15625 6.492188 -1.460938 6.953125 -2.078125 C 7.410156 -2.691406 7.640625 -3.609375 7.640625 -4.828125 Z M 7.640625 -4.828125 "/></g></g></g><g fill="#17191a" fill-opacity="1"><g transform="translate(29.283674, 56.103569)"><g><path d="M 5.828125 -8.046875 C 5.578125 -8.085938 5.3125 -8.109375 5.03125 -8.109375 C 3.957031 -8.109375 3.234375 -7.65625 2.859375 -6.75 L 2.859375 0 L 1.234375 0 L 1.234375 -9.515625 L 2.8125 -9.515625 L 2.84375 -8.40625 C 3.375 -9.257812 4.128906 -9.6875 5.109375 -9.6875 C 5.421875 -9.6875 5.660156 -9.644531 5.828125 -9.5625 Z M 5.828125 -8.046875 "/></g></g></g><g fill="#17191a" fill-opacity="1"><g transform="translate(35.370534, 56.103569)"><g><path d="M 0.796875 -4.84375 C 0.796875 -5.769531 0.976562 -6.601562 1.34375 -7.34375 C 1.71875 -8.09375 2.226562 -8.671875 2.875 -9.078125 C 3.53125 -9.484375 4.273438 -9.6875 5.109375 -9.6875 C 6.410156 -9.6875 7.457031 -9.238281 8.25 -8.34375 C 9.050781 -7.445312 9.453125 -6.253906 9.453125 -4.765625 L 9.453125 -4.65625 C 9.453125 -3.726562 9.273438 -2.894531 8.921875 -2.15625 C 8.566406 -1.425781 8.0625 -0.851562 7.40625 -0.4375 C 6.75 -0.03125 5.992188 0.171875 5.140625 0.171875 C 3.847656 0.171875 2.800781 -0.273438 2 -1.171875 C 1.195312 -2.066406 0.796875 -3.253906 0.796875 -4.734375 Z M 2.4375 -4.65625 C 2.4375 -3.59375 2.679688 -2.742188 3.171875 -2.109375 C 3.660156 -1.472656 4.316406 -1.15625 5.140625 -1.15625 C 5.960938 -1.15625 6.613281 -1.476562 7.09375 -2.125 C 7.582031 -2.769531 7.828125 -3.675781 7.828125 -4.84375 C 7.828125 -5.882812 7.578125 -6.726562 7.078125 -7.375 C 6.585938 -8.019531 5.929688 -8.34375 5.109375 -8.34375 C 4.304688 -8.34375 3.660156 -8.023438 3.171875 -7.390625 C 2.679688 -6.753906 2.4375 -5.84375 2.4375 -4.65625 Z M 2.4375 -4.65625 "/></g></g></g><g fill="#17191a" fill-opacity="1"><g transform="translate(45.629475, 56.103569)"><g><path d="M 3.4375 -11.8125 L 3.4375 -9.515625 L 5.21875 -9.515625 L 5.21875 -8.25 L 3.4375 -8.25 L 3.4375 -2.359375 C 3.4375 -1.972656 3.515625 -1.6875 3.671875 -1.5 C 3.828125 -1.3125 4.097656 -1.21875 4.484375 -1.21875 C 4.671875 -1.21875 4.925781 -1.25 5.25 -1.3125 L 5.25 0 C 4.820312 0.113281 4.410156 0.171875 4.015625 0.171875 C 3.285156 0.171875 2.734375 -0.046875 2.359375 -0.484375 C 1.992188 -0.921875 1.8125 -1.546875 1.8125 -2.359375 L 1.8125 -8.25 L 0.078125 -8.25 L 0.078125 -9.515625 L 1.8125 -9.515625 L 1.8125 -11.8125 Z M 3.4375 -11.8125 "/></g></g></g><g fill="#17191a" fill-opacity="1"><g transform="translate(51.505535, 56.103569)"><g><path d="M 2.765625 -9.515625 L 2.828125 -8.3125 C 3.546875 -9.226562 4.492188 -9.6875 5.671875 -9.6875 C 7.679688 -9.6875 8.691406 -8.550781 8.703125 -6.28125 L 8.703125 0 L 7.078125 0 L 7.078125 -6.296875 C 7.078125 -6.984375 6.921875 -7.488281 6.609375 -7.8125 C 6.304688 -8.144531 5.828125 -8.3125 5.171875 -8.3125 C 4.648438 -8.3125 4.1875 -8.171875 3.78125 -7.890625 C 3.382812 -7.609375 3.078125 -7.238281 2.859375 -6.78125 L 2.859375 0 L 1.234375 0 L 1.234375 -9.515625 Z M 2.765625 -9.515625 "/></g></g></g><g fill="#17191a" fill-opacity="1"><g transform="translate(61.430709, 56.103569)"><g><path d="M 3 0 L 1.375 0 L 1.375 -9.515625 L 3 -9.515625 Z M 1.234375 -12.03125 C 1.234375 -12.289062 1.3125 -12.507812 1.46875 -12.6875 C 1.632812 -12.875 1.875 -12.96875 2.1875 -12.96875 C 2.507812 -12.96875 2.753906 -12.875 2.921875 -12.6875 C 3.085938 -12.507812 3.171875 -12.289062 3.171875 -12.03125 C 3.171875 -11.769531 3.085938 -11.550781 2.921875 -11.375 C 2.753906 -11.195312 2.507812 -11.109375 2.1875 -11.109375 C 1.875 -11.109375 1.632812 -11.195312 1.46875 -11.375 C 1.3125 -11.550781 1.234375 -11.769531 1.234375 -12.03125 Z M 1.234375 -12.03125 "/></g></g></g><g fill="#17191a" fill-opacity="1"><g transform="translate(65.796034, 56.103569)"><g><path d="M 1.265625 -0.859375 C 1.265625 -1.140625 1.347656 -1.375 1.515625 -1.5625 C 1.679688 -1.75 1.929688 -1.84375 2.265625 -1.84375 C 2.597656 -1.84375 2.847656 -1.75 3.015625 -1.5625 C 3.191406 -1.375 3.28125 -1.140625 3.28125 -0.859375 C 3.28125 -0.585938 3.191406 -0.359375 3.015625 -0.171875 C 2.847656 0.00390625 2.597656 0.09375 2.265625 0.09375 C 1.929688 0.09375 1.679688 0.00390625 1.515625 -0.171875 C 1.347656 -0.359375 1.265625 -0.585938 1.265625 -0.859375 Z M 1.265625 -0.859375 "/></g></g></g><g fill="#17191a" fill-opacity="1"><g transform="translate(70.523439, 56.103569)"><g/></g></g><g fill="#17191a" fill-opacity="1"><g transform="translate(74.976598, 56.103569)"><g/></g></g><path fill="#17191a" d="M 89.921875 44.191406 C 90.25 44.191406 90.601562 44.191406 90.601562 43.804688 C 90.601562 43.421875 90.25 43.421875 89.921875 43.421875 L 79.449219 43.421875 C 79.121094 43.421875 78.773438 43.421875 78.773438 43.804688 C 78.773438 44.191406 79.121094 44.191406 79.449219 44.191406 Z M 89.921875 44.191406 " fill-opacity="1" fill-rule="nonzero"/><path fill="#17191a" d="M 93.308594 44.191406 C 92.246094 44.992188 91.722656 45.78125 91.566406 46.027344 C 90.695312 47.351562 90.542969 48.558594 90.542969 48.578125 C 90.542969 48.804688 90.773438 48.804688 90.929688 48.804688 C 91.257812 48.804688 91.277344 48.769531 91.355469 48.421875 C 91.800781 46.546875 92.941406 44.9375 95.128906 44.054688 C 95.359375 43.980469 95.417969 43.941406 95.417969 43.804688 C 95.417969 43.671875 95.304688 43.613281 95.265625 43.59375 C 94.414062 43.269531 92.070312 42.3125 91.335938 39.09375 C 91.277344 38.863281 91.257812 38.808594 90.929688 38.808594 C 90.773438 38.808594 90.542969 38.808594 90.542969 39.035156 C 90.542969 39.074219 90.714844 40.28125 91.527344 41.566406 C 91.914062 42.140625 92.476562 42.808594 93.308594 43.421875 L 78.929688 43.421875 C 78.582031 43.421875 78.230469 43.421875 78.230469 43.804688 C 78.230469 44.191406 78.582031 44.191406 78.929688 44.191406 Z M 93.308594 44.191406 " fill-opacity="1" fill-rule="nonzero"/><path fill="#17191a" d="M 87.695312 54.5625 C 87.597656 54.890625 87.597656 54.925781 87.328125 55.289062 C 86.902344 55.828125 86.050781 56.652344 85.140625 56.652344 C 84.347656 56.652344 83.902344 55.941406 83.902344 54.8125 C 83.902344 53.757812 84.503906 51.613281 84.871094 50.808594 C 85.527344 49.46875 86.4375 48.777344 87.191406 48.777344 C 88.46875 48.777344 88.722656 50.347656 88.722656 50.503906 C 88.722656 50.519531 88.664062 50.769531 88.644531 50.808594 Z M 88.933594 49.660156 C 88.722656 49.160156 88.199219 48.394531 87.191406 48.394531 C 85.007812 48.394531 82.644531 51.191406 82.644531 54.027344 C 82.644531 55.921875 83.765625 57.035156 85.082031 57.035156 C 86.148438 57.035156 87.058594 56.210938 87.597656 55.578125 C 87.792969 56.707031 88.703125 57.035156 89.285156 57.035156 C 89.863281 57.035156 90.328125 56.6875 90.675781 56 C 90.988281 55.347656 91.257812 54.179688 91.257812 54.101562 C 91.257812 54.007812 91.179688 53.929688 91.0625 53.929688 C 90.890625 53.929688 90.871094 54.027344 90.792969 54.3125 C 90.503906 55.445312 90.136719 56.652344 89.339844 56.652344 C 88.78125 56.652344 88.742188 56.152344 88.742188 55.769531 C 88.742188 55.328125 88.800781 55.117188 88.972656 54.371094 C 89.109375 53.894531 89.207031 53.472656 89.359375 52.914062 C 90.078125 50.042969 90.25 49.351562 90.25 49.238281 C 90.25 48.96875 90.039062 48.757812 89.746094 48.757812 C 89.128906 48.757812 88.972656 49.429688 88.933594 49.660156 Z M 88.933594 49.660156 " fill-opacity="1" fill-rule="nonzero"/><path fill="#17191a" d="M 114.964844 50.636719 C 115.234375 50.636719 115.582031 50.636719 115.582031 50.292969 C 115.582031 49.925781 115.253906 49.925781 114.964844 49.925781 L 103.5625 49.925781 C 103.292969 49.925781 102.945312 49.925781 102.945312 50.273438 C 102.945312 50.636719 103.273438 50.636719 103.5625 50.636719 Z M 114.964844 54.199219 C 115.234375 54.199219 115.582031 54.199219 115.582031 53.855469 C 115.582031 53.492188 115.253906 53.492188 114.964844 53.492188 L 103.5625 53.492188 C 103.292969 53.492188 102.945312 53.492188 102.945312 53.835938 C 102.945312 54.199219 103.273438 54.199219 103.5625 54.199219 Z M 114.964844 54.199219 " fill-opacity="1" fill-rule="nonzero"/><path fill="#17191a" d="M 130.53125 53.625 L 130.105469 53.625 C 130.050781 53.949219 129.894531 55.003906 129.699219 55.308594 C 129.566406 55.484375 128.460938 55.484375 127.882812 55.484375 L 124.300781 55.484375 C 124.824219 55.042969 126.003906 53.816406 126.507812 53.355469 C 129.449219 50.675781 130.53125 49.679688 130.53125 47.78125 C 130.53125 45.578125 128.773438 44.105469 126.527344 44.105469 C 124.28125 44.105469 122.964844 46 122.964844 47.648438 C 122.964844 48.625 123.816406 48.625 123.875 48.625 C 124.28125 48.625 124.785156 48.335938 124.785156 47.722656 C 124.785156 47.1875 124.417969 46.824219 123.875 46.824219 C 123.699219 46.824219 123.660156 46.824219 123.605469 46.84375 C 123.972656 45.539062 125.015625 44.660156 126.273438 44.660156 C 127.917969 44.660156 128.925781 46.019531 128.925781 47.78125 C 128.925781 49.410156 127.976562 50.828125 126.875 52.054688 L 122.964844 56.382812 L 122.964844 56.84375 L 130.03125 56.84375 Z M 130.53125 53.625 " fill-opacity="1" fill-rule="nonzero"/><path fill="#17191a" d="M 144.246094 39.878906 C 144.578125 39.878906 144.925781 39.878906 144.925781 39.496094 C 144.925781 39.113281 144.578125 39.113281 144.246094 39.113281 L 133.777344 39.113281 C 133.449219 39.113281 133.097656 39.113281 133.097656 39.496094 C 133.097656 39.878906 133.449219 39.878906 133.777344 39.878906 Z M 144.246094 39.878906 " fill-opacity="1" fill-rule="nonzero"/><path fill="#17191a" d="M 147.636719 39.878906 C 146.570312 40.683594 146.046875 41.46875 145.894531 41.71875 C 145.023438 43.039062 144.867188 44.246094 144.867188 44.265625 C 144.867188 44.496094 145.097656 44.496094 145.253906 44.496094 C 145.582031 44.496094 145.601562 44.457031 145.679688 44.113281 C 146.125 42.234375 147.265625 40.625 149.453125 39.746094 C 149.6875 39.667969 149.746094 39.628906 149.746094 39.496094 C 149.746094 39.363281 149.628906 39.304688 149.589844 39.285156 C 148.738281 38.960938 146.394531 38.003906 145.660156 34.785156 C 145.601562 34.554688 145.582031 34.496094 145.253906 34.496094 C 145.097656 34.496094 144.867188 34.496094 144.867188 34.726562 C 144.867188 34.765625 145.042969 35.972656 145.855469 37.253906 C 146.242188 37.828125 146.800781 38.5 147.636719 39.113281 L 133.253906 39.113281 C 132.90625 39.113281 132.558594 39.113281 132.558594 39.496094 C 132.558594 39.878906 132.90625 39.878906 133.253906 39.878906 Z M 147.636719 39.878906 " fill-opacity="1" fill-rule="nonzero"/><path fill="#17191a" d="M 143.414062 54.101562 C 143.414062 54.007812 143.335938 53.929688 143.222656 53.929688 C 143.046875 53.929688 143.027344 53.988281 142.929688 54.3125 C 142.429688 56.058594 141.632812 56.652344 140.996094 56.652344 C 140.761719 56.652344 140.492188 56.59375 140.492188 56.019531 C 140.492188 55.5 140.726562 54.925781 140.9375 54.351562 L 142.292969 50.789062 C 142.351562 50.636719 142.484375 50.292969 142.484375 49.925781 C 142.484375 49.121094 141.90625 48.394531 140.957031 48.394531 C 139.175781 48.394531 138.460938 51.171875 138.460938 51.324219 C 138.460938 51.402344 138.539062 51.5 138.671875 51.5 C 138.847656 51.5 138.867188 51.421875 138.945312 51.152344 C 139.410156 49.542969 140.144531 48.777344 140.898438 48.777344 C 141.074219 48.777344 141.402344 48.796875 141.402344 49.410156 C 141.402344 49.90625 141.152344 50.539062 140.996094 50.960938 L 139.640625 54.523438 C 139.523438 54.832031 139.410156 55.136719 139.410156 55.484375 C 139.410156 56.34375 140.007812 57.035156 140.9375 57.035156 C 142.71875 57.035156 143.414062 54.238281 143.414062 54.101562 Z M 143.261719 44.890625 C 143.261719 44.601562 143.027344 44.257812 142.601562 44.257812 C 142.15625 44.257812 141.652344 44.679688 141.652344 45.175781 C 141.652344 45.65625 142.058594 45.808594 142.292969 45.808594 C 142.816406 45.808594 143.261719 45.3125 143.261719 44.890625 Z M 143.261719 44.890625 " fill-opacity="1" fill-rule="nonzero"/><path fill="#17191a" d="M 167.90625 52.4375 C 168.234375 52.4375 168.582031 52.4375 168.582031 52.054688 C 168.582031 51.671875 168.234375 51.671875 167.90625 51.671875 L 157.433594 51.671875 C 157.105469 51.671875 156.753906 51.671875 156.753906 52.054688 C 156.753906 52.4375 157.105469 52.4375 157.433594 52.4375 Z M 167.90625 52.4375 " fill-opacity="1" fill-rule="nonzero"/><path fill="#17191a" d="M 178.066406 49.964844 C 177.738281 49.984375 177.660156 50.003906 177.660156 50.175781 C 177.660156 50.367188 177.757812 50.367188 178.105469 50.367188 L 178.996094 50.367188 C 180.640625 50.367188 181.375 51.707031 181.375 53.546875 C 181.375 56.058594 180.058594 56.726562 179.109375 56.726562 C 178.183594 56.726562 176.59375 56.289062 176.035156 55.023438 C 176.652344 55.117188 177.214844 54.773438 177.214844 54.085938 C 177.214844 53.527344 176.808594 53.144531 176.265625 53.144531 C 175.800781 53.144531 175.296875 53.414062 175.296875 54.140625 C 175.296875 55.847656 177.019531 57.246094 179.167969 57.246094 C 181.472656 57.246094 183.175781 55.5 183.175781 53.566406 C 183.175781 51.804688 181.742188 50.425781 179.886719 50.101562 C 181.570312 49.621094 182.652344 48.222656 182.652344 46.726562 C 182.652344 45.214844 181.066406 44.105469 179.1875 44.105469 C 177.253906 44.105469 175.820312 45.273438 175.820312 46.671875 C 175.820312 47.4375 176.421875 47.589844 176.710938 47.589844 C 177.117188 47.589844 177.582031 47.304688 177.582031 46.726562 C 177.582031 46.113281 177.117188 45.847656 176.691406 45.847656 C 176.574219 45.847656 176.535156 45.847656 176.476562 45.867188 C 177.214844 44.5625 179.035156 44.5625 179.128906 44.5625 C 179.769531 44.5625 181.027344 44.851562 181.027344 46.726562 C 181.027344 47.09375 180.96875 48.164062 180.40625 48.988281 C 179.828125 49.832031 179.167969 49.890625 178.644531 49.90625 Z M 178.066406 49.964844 " fill-opacity="1" fill-rule="nonzero"/><path fill="#17191a" d="M 196.734375 39.878906 C 197.0625 39.878906 197.414062 39.878906 197.414062 39.496094 C 197.414062 39.113281 197.0625 39.113281 196.734375 39.113281 L 186.265625 39.113281 C 185.933594 39.113281 185.585938 39.113281 185.585938 39.496094 C 185.585938 39.878906 185.933594 39.878906 186.265625 39.878906 Z M 196.734375 39.878906 " fill-opacity="1" fill-rule="nonzero"/><path fill="#17191a" d="M 200.121094 39.878906 C 199.058594 40.683594 198.535156 41.46875 198.378906 41.71875 C 197.507812 43.039062 197.355469 44.246094 197.355469 44.265625 C 197.355469 44.496094 197.585938 44.496094 197.742188 44.496094 C 198.070312 44.496094 198.089844 44.457031 198.167969 44.113281 C 198.613281 42.234375 199.753906 40.625 201.941406 39.746094 C 202.175781 39.667969 202.230469 39.628906 202.230469 39.496094 C 202.230469 39.363281 202.117188 39.304688 202.078125 39.285156 C 201.226562 38.960938 198.882812 38.003906 198.148438 34.785156 C 198.089844 34.554688 198.070312 34.496094 197.742188 34.496094 C 197.585938 34.496094 197.355469 34.496094 197.355469 34.726562 C 197.355469 34.765625 197.527344 35.972656 198.34375 37.253906 C 198.730469 37.828125 199.289062 38.5 200.121094 39.113281 L 185.742188 39.113281 C 185.394531 39.113281 185.042969 39.113281 185.042969 39.496094 C 185.042969 39.878906 185.394531 39.878906 185.742188 39.878906 Z M 200.121094 39.878906 " fill-opacity="1" fill-rule="nonzero"/><g clip-path="url(#129145d68b)"><path fill="#17191a" d="M 195.96875 50.769531 C 196.046875 50.464844 196.046875 50.195312 196.046875 50.117188 C 196.046875 49.007812 195.210938 48.394531 194.34375 48.394531 C 192.386719 48.394531 191.339844 51.191406 191.339844 51.324219 C 191.339844 51.421875 191.417969 51.5 191.535156 51.5 C 191.691406 51.5 191.710938 51.421875 191.804688 51.230469 C 192.582031 49.371094 193.546875 48.777344 194.285156 48.777344 C 194.691406 48.777344 194.902344 48.988281 194.902344 49.660156 C 194.902344 50.117188 194.84375 50.308594 194.769531 50.65625 L 192.929688 57.878906 C 192.5625 59.292969 191.652344 60.367188 190.585938 60.367188 C 190.507812 60.367188 190.101562 60.367188 189.734375 60.175781 C 190.199219 60.078125 190.566406 59.714844 190.566406 59.257812 C 190.566406 58.949219 190.335938 58.644531 189.910156 58.644531 C 189.40625 58.644531 188.941406 59.066406 188.941406 59.640625 C 188.941406 60.425781 189.792969 60.75 190.585938 60.75 C 191.921875 60.75 193.683594 59.773438 194.167969 57.859375 Z M 196.761719 44.890625 C 196.761719 44.410156 196.355469 44.257812 196.121094 44.257812 C 195.601562 44.257812 195.15625 44.753906 195.15625 45.175781 C 195.15625 45.464844 195.386719 45.808594 195.8125 45.808594 C 196.257812 45.808594 196.761719 45.386719 196.761719 44.890625 Z M 196.761719 44.890625 " fill-opacity="1" fill-rule="nonzero"/></g><g clip-path="url(#b9e38cda1f)"><path fill="#17191a" d="M 207.109375 56.917969 C 207.109375 55.808594 206.742188 54.984375 205.949219 54.984375 C 205.328125 54.984375 205.019531 55.484375 205.019531 55.902344 C 205.019531 56.324219 205.308594 56.84375 205.96875 56.84375 C 206.21875 56.84375 206.433594 56.765625 206.605469 56.59375 C 206.644531 56.554688 206.664062 56.554688 206.683594 56.554688 C 206.722656 56.554688 206.722656 56.824219 206.722656 56.917969 C 206.722656 57.550781 206.605469 58.796875 205.484375 60.042969 C 205.269531 60.273438 205.269531 60.308594 205.269531 60.347656 C 205.269531 60.445312 205.367188 60.539062 205.464844 60.539062 C 205.621094 60.539062 207.109375 59.121094 207.109375 56.917969 Z M 207.109375 56.917969 " fill-opacity="1" fill-rule="nonzero"/></g><path fill="#17191a" d="M 235.332031 39.132812 C 235.664062 39.132812 236.011719 39.132812 236.011719 38.75 C 236.011719 38.367188 235.664062 38.367188 235.332031 38.367188 L 224.863281 38.367188 C 224.535156 38.367188 224.183594 38.367188 224.183594 38.75 C 224.183594 39.132812 224.535156 39.132812 224.863281 39.132812 Z M 235.332031 39.132812 " fill-opacity="1" fill-rule="nonzero"/><g clip-path="url(#e9eb4155ef)"><path fill="#17191a" d="M 238.722656 39.132812 C 237.65625 39.9375 237.132812 40.722656 236.980469 40.972656 C 236.109375 42.296875 235.953125 43.5 235.953125 43.519531 C 235.953125 43.75 236.183594 43.75 236.339844 43.75 C 236.667969 43.75 236.6875 43.710938 236.765625 43.367188 C 237.210938 41.492188 238.351562 39.882812 240.539062 39 C 240.773438 38.921875 240.832031 38.886719 240.832031 38.75 C 240.832031 38.617188 240.714844 38.558594 240.675781 38.539062 C 239.824219 38.214844 237.480469 37.257812 236.746094 34.039062 C 236.6875 33.808594 236.667969 33.75 236.339844 33.75 C 236.183594 33.75 235.953125 33.75 235.953125 33.980469 C 235.953125 34.019531 236.128906 35.226562 236.941406 36.511719 C 237.328125 37.085938 237.886719 37.753906 238.722656 38.367188 L 224.339844 38.367188 C 223.992188 38.367188 223.644531 38.367188 223.644531 38.75 C 223.644531 39.132812 223.992188 39.132812 224.339844 39.132812 Z M 238.722656 39.132812 " fill-opacity="1" fill-rule="nonzero"/></g><path fill="#17191a" d="M 232.699219 44.027344 C 232.71875 43.949219 232.757812 43.835938 232.757812 43.738281 C 232.757812 43.546875 232.5625 43.546875 232.523438 43.546875 C 232.503906 43.546875 231.808594 43.605469 231.460938 43.644531 C 231.128906 43.664062 230.839844 43.703125 230.492188 43.71875 C 230.027344 43.757812 229.890625 43.777344 229.890625 44.121094 C 229.890625 44.316406 230.085938 44.316406 230.277344 44.316406 C 231.265625 44.316406 231.265625 44.488281 231.265625 44.679688 C 231.265625 44.8125 231.109375 45.367188 231.035156 45.714844 L 230.570312 47.550781 C 230.375 48.316406 229.273438 52.667969 229.195312 53.011719 C 229.097656 53.492188 229.097656 53.816406 229.097656 54.066406 C 229.097656 56.019531 230.203125 57.035156 231.460938 57.035156 C 233.703125 57.035156 236.027344 54.179688 236.027344 51.402344 C 236.027344 49.640625 235.019531 48.394531 233.570312 48.394531 C 232.5625 48.394531 231.652344 49.21875 231.285156 49.601562 Z M 231.480469 56.652344 C 230.859375 56.652344 230.183594 56.191406 230.183594 54.695312 C 230.183594 54.066406 230.238281 53.699219 230.589844 52.359375 C 230.648438 52.109375 230.957031 50.886719 231.035156 50.636719 C 231.074219 50.484375 232.214844 48.777344 233.53125 48.777344 C 234.382812 48.777344 234.769531 49.621094 234.769531 50.617188 C 234.769531 51.535156 234.226562 53.699219 233.742188 54.695312 C 233.257812 55.730469 232.371094 56.652344 231.480469 56.652344 Z M 231.480469 56.652344 " fill-opacity="1" fill-rule="nonzero"/><path fill="#17191a" d="M 260.375 50.636719 C 260.644531 50.636719 260.996094 50.636719 260.996094 50.292969 C 260.996094 49.925781 260.664062 49.925781 260.375 49.925781 L 248.976562 49.925781 C 248.703125 49.925781 248.355469 49.925781 248.355469 50.273438 C 248.355469 50.636719 248.683594 50.636719 248.976562 50.636719 Z M 260.375 54.199219 C 260.644531 54.199219 260.996094 54.199219 260.996094 53.855469 C 260.996094 53.492188 260.664062 53.492188 260.375 53.492188 L 248.976562 53.492188 C 248.703125 53.492188 248.355469 53.492188 248.355469 53.835938 C 248.355469 54.199219 248.683594 54.199219 248.976562 54.199219 Z M 260.375 54.199219 " fill-opacity="1" fill-rule="nonzero"/><path fill="#17191a" d="M 280.183594 52.4375 C 280.511719 52.4375 280.859375 52.4375 280.859375 52.054688 C 280.859375 51.671875 280.511719 51.671875 280.183594 51.671875 L 269.710938 51.671875 C 269.382812 51.671875 269.035156 51.671875 269.035156 52.054688 C 269.035156 52.4375 269.382812 52.4375 269.710938 52.4375 Z M 280.183594 52.4375 " fill-opacity="1" fill-rule="nonzero"/><path fill="#17191a" d="M 290.996094 53.625 L 290.570312 53.625 C 290.515625 53.949219 290.359375 55.003906 290.164062 55.308594 C 290.03125 55.484375 288.925781 55.484375 288.347656 55.484375 L 284.765625 55.484375 C 285.289062 55.042969 286.46875 53.816406 286.972656 53.355469 C 289.914062 50.675781 290.996094 49.679688 290.996094 47.78125 C 290.996094 45.578125 289.234375 44.105469 286.992188 44.105469 C 284.746094 44.105469 283.429688 46 283.429688 47.648438 C 283.429688 48.625 284.28125 48.625 284.339844 48.625 C 284.746094 48.625 285.25 48.335938 285.25 47.722656 C 285.25 47.1875 284.882812 46.824219 284.339844 46.824219 C 284.164062 46.824219 284.125 46.824219 284.066406 46.84375 C 284.4375 45.539062 285.480469 44.660156 286.738281 44.660156 C 288.382812 44.660156 289.390625 46.019531 289.390625 47.78125 C 289.390625 49.410156 288.441406 50.828125 287.339844 52.054688 L 283.429688 56.382812 L 283.429688 56.84375 L 290.496094 56.84375 Z M 290.996094 53.625 " fill-opacity="1" fill-rule="nonzero"/><path fill="#17191a" d="M 304.710938 39.878906 C 305.042969 39.878906 305.390625 39.878906 305.390625 39.496094 C 305.390625 39.113281 305.042969 39.113281 304.710938 39.113281 L 294.242188 39.113281 C 293.910156 39.113281 293.5625 39.113281 293.5625 39.496094 C 293.5625 39.878906 293.910156 39.878906 294.242188 39.878906 Z M 304.710938 39.878906 " fill-opacity="1" fill-rule="nonzero"/><path fill="#17191a" d="M 308.101562 39.878906 C 307.035156 40.683594 306.515625 41.46875 306.359375 41.71875 C 305.488281 43.039062 305.332031 44.246094 305.332031 44.265625 C 305.332031 44.496094 305.566406 44.496094 305.71875 44.496094 C 306.050781 44.496094 306.070312 44.457031 306.144531 44.113281 C 306.589844 42.234375 307.734375 40.625 309.921875 39.746094 C 310.152344 39.667969 310.210938 39.628906 310.210938 39.496094 C 310.210938 39.363281 310.09375 39.304688 310.054688 39.285156 C 309.203125 38.960938 306.863281 38.003906 306.125 34.785156 C 306.070312 34.554688 306.050781 34.496094 305.71875 34.496094 C 305.566406 34.496094 305.332031 34.496094 305.332031 34.726562 C 305.332031 34.765625 305.507812 35.972656 306.320312 37.253906 C 306.707031 37.828125 307.269531 38.5 308.101562 39.113281 L 293.71875 39.113281 C 293.371094 39.113281 293.023438 39.113281 293.023438 39.496094 C 293.023438 39.878906 293.371094 39.878906 293.71875 39.878906 Z M 308.101562 39.878906 " fill-opacity="1" fill-rule="nonzero"/><path fill="#17191a" d="M 303.878906 54.101562 C 303.878906 54.007812 303.800781 53.929688 303.6875 53.929688 C 303.511719 53.929688 303.492188 53.988281 303.394531 54.3125 C 302.894531 56.058594 302.097656 56.652344 301.460938 56.652344 C 301.226562 56.652344 300.957031 56.59375 300.957031 56.019531 C 300.957031 55.5 301.191406 54.925781 301.402344 54.351562 L 302.757812 50.789062 C 302.816406 50.636719 302.949219 50.292969 302.949219 49.925781 C 302.949219 49.121094 302.371094 48.394531 301.421875 48.394531 C 299.640625 48.394531 298.925781 51.171875 298.925781 51.324219 C 298.925781 51.402344 299.003906 51.5 299.136719 51.5 C 299.3125 51.5 299.332031 51.421875 299.410156 51.152344 C 299.875 49.542969 300.609375 48.777344 301.363281 48.777344 C 301.539062 48.777344 301.867188 48.796875 301.867188 49.410156 C 301.867188 49.90625 301.617188 50.539062 301.460938 50.960938 L 300.105469 54.523438 C 299.988281 54.832031 299.875 55.136719 299.875 55.484375 C 299.875 56.34375 300.472656 57.035156 301.402344 57.035156 C 303.183594 57.035156 303.878906 54.238281 303.878906 54.101562 Z M 303.726562 44.890625 C 303.726562 44.601562 303.492188 44.257812 303.066406 44.257812 C 302.621094 44.257812 302.117188 44.679688 302.117188 45.175781 C 302.117188 45.65625 302.523438 45.808594 302.757812 45.808594 C 303.28125 45.808594 303.726562 45.3125 303.726562 44.890625 Z M 303.726562 44.890625 " fill-opacity="1" fill-rule="nonzero"/><path fill="#17191a" d="M 328.367188 52.4375 C 328.699219 52.4375 329.046875 52.4375 329.046875 52.054688 C 329.046875 51.671875 328.699219 51.671875 328.367188 51.671875 L 317.898438 51.671875 C 317.570312 51.671875 317.21875 51.671875 317.21875 52.054688 C 317.21875 52.4375 317.570312 52.4375 317.898438 52.4375 Z M 328.367188 52.4375 " fill-opacity="1" fill-rule="nonzero"/><path fill="#17191a" d="M 340.410156 44.027344 C 340.429688 43.949219 340.46875 43.835938 340.46875 43.738281 C 340.46875 43.546875 340.273438 43.546875 340.234375 43.546875 C 340.214844 43.546875 339.519531 43.605469 339.171875 43.644531 C 338.839844 43.664062 338.550781 43.703125 338.203125 43.71875 C 337.738281 43.757812 337.601562 43.777344 337.601562 44.121094 C 337.601562 44.316406 337.796875 44.316406 337.988281 44.316406 C 338.976562 44.316406 338.976562 44.488281 338.976562 44.679688 C 338.976562 44.753906 338.976562 44.792969 338.878906 45.136719 L 336.113281 56.09375 C 336.035156 56.382812 336.035156 56.421875 336.035156 56.535156 C 336.035156 56.957031 336.363281 57.035156 336.558594 57.035156 C 337.101562 57.035156 337.214844 56.613281 337.371094 56.019531 L 338.28125 52.4375 C 339.675781 52.589844 340.507812 53.164062 340.507812 54.085938 C 340.507812 54.199219 340.507812 54.277344 340.449219 54.5625 C 340.371094 54.851562 340.371094 55.082031 340.371094 55.175781 C 340.371094 56.289062 341.105469 57.035156 342.09375 57.035156 C 342.984375 57.035156 343.449219 56.230469 343.601562 55.960938 C 344.007812 55.253906 344.261719 54.179688 344.261719 54.101562 C 344.261719 54.007812 344.183594 53.929688 344.066406 53.929688 C 343.894531 53.929688 343.875 54.007812 343.796875 54.3125 C 343.527344 55.308594 343.117188 56.652344 342.132812 56.652344 C 341.746094 56.652344 341.492188 56.460938 341.492188 55.730469 C 341.492188 55.367188 341.570312 54.945312 341.648438 54.660156 C 341.726562 54.3125 341.726562 54.292969 341.726562 54.066406 C 341.726562 52.933594 340.699219 52.300781 338.917969 52.074219 C 339.617188 51.652344 340.3125 50.902344 340.582031 50.617188 C 341.6875 49.390625 342.441406 48.777344 343.332031 48.777344 C 343.777344 48.777344 343.894531 48.894531 344.027344 49.007812 C 343.3125 49.085938 343.042969 49.582031 343.042969 49.964844 C 343.042969 50.425781 343.410156 50.578125 343.679688 50.578125 C 344.203125 50.578125 344.667969 50.136719 344.667969 49.523438 C 344.667969 48.96875 344.222656 48.394531 343.351562 48.394531 C 342.285156 48.394531 341.414062 49.140625 340.042969 50.675781 C 339.847656 50.902344 339.132812 51.632812 338.414062 51.898438 Z M 340.410156 44.027344 " fill-opacity="1" fill-rule="nonzero"/><path fill="#17191a" d="M 358.230469 39.878906 C 358.558594 39.878906 358.910156 39.878906 358.910156 39.496094 C 358.910156 39.113281 358.558594 39.113281 358.230469 39.113281 L 347.761719 39.113281 C 347.429688 39.113281 347.082031 39.113281 347.082031 39.496094 C 347.082031 39.878906 347.429688 39.878906 347.761719 39.878906 Z M 358.230469 39.878906 " fill-opacity="1" fill-rule="nonzero"/><path fill="#17191a" d="M 361.617188 39.878906 C 360.554688 40.683594 360.03125 41.46875 359.875 41.71875 C 359.003906 43.039062 358.851562 44.246094 358.851562 44.265625 C 358.851562 44.496094 359.082031 44.496094 359.238281 44.496094 C 359.566406 44.496094 359.585938 44.457031 359.664062 44.113281 C 360.109375 42.234375 361.25 40.625 363.4375 39.746094 C 363.671875 39.667969 363.726562 39.628906 363.726562 39.496094 C 363.726562 39.363281 363.613281 39.304688 363.574219 39.285156 C 362.722656 38.960938 360.378906 38.003906 359.644531 34.785156 C 359.585938 34.554688 359.566406 34.496094 359.238281 34.496094 C 359.082031 34.496094 358.851562 34.496094 358.851562 34.726562 C 358.851562 34.765625 359.023438 35.972656 359.835938 37.253906 C 360.226562 37.828125 360.785156 38.5 361.617188 39.113281 L 347.238281 39.113281 C 346.890625 39.113281 346.539062 39.113281 346.539062 39.496094 C 346.539062 39.878906 346.890625 39.878906 347.238281 39.878906 Z M 361.617188 39.878906 " fill-opacity="1" fill-rule="nonzero"/><g clip-path="url(#d9ae853324)"><path fill="#17191a" d="M 357.464844 50.769531 C 357.542969 50.464844 357.542969 50.195312 357.542969 50.117188 C 357.542969 49.007812 356.707031 48.394531 355.835938 48.394531 C 353.882812 48.394531 352.835938 51.191406 352.835938 51.324219 C 352.835938 51.421875 352.914062 51.5 353.03125 51.5 C 353.1875 51.5 353.207031 51.421875 353.300781 51.230469 C 354.078125 49.371094 355.042969 48.777344 355.78125 48.777344 C 356.1875 48.777344 356.398438 48.988281 356.398438 49.660156 C 356.398438 50.117188 356.339844 50.308594 356.265625 50.65625 L 354.425781 57.878906 C 354.058594 59.292969 353.148438 60.367188 352.082031 60.367188 C 352.003906 60.367188 351.597656 60.367188 351.230469 60.175781 C 351.695312 60.078125 352.0625 59.714844 352.0625 59.257812 C 352.0625 58.949219 351.832031 58.644531 351.40625 58.644531 C 350.902344 58.644531 350.4375 59.066406 350.4375 59.640625 C 350.4375 60.425781 351.289062 60.75 352.082031 60.75 C 353.417969 60.75 355.179688 59.773438 355.664062 57.859375 Z M 358.257812 44.890625 C 358.257812 44.410156 357.851562 44.257812 357.617188 44.257812 C 357.097656 44.257812 356.652344 44.753906 356.652344 45.175781 C 356.652344 45.464844 356.882812 45.808594 357.308594 45.808594 C 357.753906 45.808594 358.257812 45.386719 358.257812 44.890625 Z M 358.257812 44.890625 " fill-opacity="1" fill-rule="nonzero"/></g></svg>