<svg xmlns="http://www.w3.org/2000/svg" xmlns:xlink="http://www.w3.org/1999/xlink" width="500" zoomAndPan="magnify" viewBox="0 0 375 74.999997" height="100" preserveAspectRatio="xMidYMid meet" version="1.0"><defs><clipPath id="cdc3e24800"><path d="M 109 30 L 129 30 L 129 49.875 L 109 49.875 Z M 109 30 " clip-rule="nonzero"/></clipPath><clipPath id="1396f89c97"><path d="M 169 30 L 178 30 L 178 49.875 L 169 49.875 Z M 169 30 " clip-rule="nonzero"/></clipPath><clipPath id="cc9ff27f41"><path d="M 182 30 L 192 30 L 192 49.875 L 182 49.875 Z M 182 30 " clip-rule="nonzero"/></clipPath><clipPath id="82f944986c"><path d="M 196 46 L 199 46 L 199 49.875 L 196 49.875 Z M 196 46 " clip-rule="nonzero"/></clipPath><clipPath id="fa9169acba"><path d="M 202 30 L 214 30 L 214 49.875 L 202 49.875 Z M 202 30 " clip-rule="nonzero"/></clipPath><clipPath id="4a972295d8"><path d="M 215 30 L 228 30 L 228 49.875 L 215 49.875 Z M 215 30 " clip-rule="nonzero"/></clipPath><clipPath id="883ba1943e"><path d="M 235 36 L 258 36 L 258 49.875 L 235 49.875 Z M 235 36 " clip-rule="nonzero"/></clipPath><clipPath id="c30be61dc7"><path d="M 259 25.125 L 267.09375 25.125 L 267.09375 38 L 259 38 Z M 259 25.125 " clip-rule="nonzero"/></clipPath></defs><g clip-path="url(#cdc3e24800)"><path fill="#a8180f" d="M 125.261719 33.21875 C 126.203125 31.722656 127.066406 31.058594 128.480469 30.949219 C 128.757812 30.921875 128.980469 30.921875 128.980469 30.421875 C 128.980469 30.3125 128.921875 30.144531 128.671875 30.144531 C 128.175781 30.144531 126.980469 30.199219 126.480469 30.199219 C 125.679688 30.199219 124.847656 30.144531 124.070312 30.144531 C 123.847656 30.144531 123.570312 30.144531 123.570312 30.671875 C 123.570312 30.921875 123.820312 30.949219 123.929688 30.949219 C 124.957031 31.03125 125.066406 31.53125 125.066406 31.863281 C 125.066406 32.277344 124.679688 32.914062 124.652344 32.941406 L 115.941406 46.738281 L 114 31.808594 C 114 31.003906 115.441406 30.949219 115.75 30.949219 C 116.164062 30.949219 116.414062 30.949219 116.414062 30.421875 C 116.414062 30.144531 116.109375 30.144531 116.027344 30.144531 C 115.554688 30.144531 115 30.199219 114.527344 30.199219 L 112.976562 30.199219 C 110.949219 30.199219 110.117188 30.144531 110.089844 30.144531 C 109.921875 30.144531 109.589844 30.144531 109.589844 30.644531 C 109.589844 30.949219 109.785156 30.949219 110.230469 30.949219 C 111.644531 30.949219 111.726562 31.199219 111.808594 31.890625 L 114.027344 48.984375 C 114.113281 49.566406 114.113281 49.648438 114.5 49.648438 C 114.832031 49.648438 114.972656 49.566406 115.25 49.121094 Z M 125.261719 33.21875 " fill-opacity="1" fill-rule="nonzero"/></g><path fill="#a8180f" d="M 156.386719 40.089844 C 156.777344 40.089844 157.277344 40.089844 157.277344 39.59375 C 157.277344 39.066406 156.804688 39.066406 156.386719 39.066406 L 140.050781 39.066406 C 139.664062 39.066406 139.164062 39.066406 139.164062 39.5625 C 139.164062 40.089844 139.636719 40.089844 140.050781 40.089844 Z M 156.386719 45.242188 C 156.777344 45.242188 157.277344 45.242188 157.277344 44.746094 C 157.277344 44.21875 156.804688 44.21875 156.386719 44.21875 L 140.050781 44.21875 C 139.664062 44.21875 139.164062 44.21875 139.164062 44.71875 C 139.164062 45.242188 139.636719 45.242188 140.050781 45.242188 Z M 156.386719 45.242188 " fill-opacity="1" fill-rule="nonzero"/><g clip-path="url(#1396f89c97)"><path fill="#a8180f" d="M 174.480469 31.308594 C 174.480469 30.671875 174.480469 30.644531 173.925781 30.644531 C 173.261719 31.390625 171.875 32.417969 169.015625 32.417969 L 169.015625 33.21875 C 169.65625 33.21875 171.042969 33.21875 172.566406 32.5 L 172.566406 46.933594 C 172.566406 47.929688 172.484375 48.261719 170.042969 48.261719 L 169.183594 48.261719 L 169.183594 49.066406 C 169.933594 49.011719 172.621094 49.011719 173.539062 49.011719 C 174.453125 49.011719 177.117188 49.011719 177.863281 49.066406 L 177.863281 48.261719 L 177.003906 48.261719 C 174.5625 48.261719 174.480469 47.929688 174.480469 46.933594 Z M 174.480469 31.308594 " fill-opacity="1" fill-rule="nonzero"/></g><g clip-path="url(#cc9ff27f41)"><path fill="#a8180f" d="M 188.058594 31.308594 C 188.058594 30.671875 188.058594 30.644531 187.503906 30.644531 C 186.839844 31.390625 185.453125 32.417969 182.597656 32.417969 L 182.597656 33.21875 C 183.234375 33.21875 184.621094 33.21875 186.144531 32.5 L 186.144531 46.933594 C 186.144531 47.929688 186.0625 48.261719 183.621094 48.261719 L 182.761719 48.261719 L 182.761719 49.066406 C 183.511719 49.011719 186.203125 49.011719 187.117188 49.011719 C 188.03125 49.011719 190.695312 49.011719 191.445312 49.066406 L 191.445312 48.261719 L 190.585938 48.261719 C 188.144531 48.261719 188.058594 47.929688 188.058594 46.933594 Z M 188.058594 31.308594 " fill-opacity="1" fill-rule="nonzero"/></g><g clip-path="url(#82f944986c)"><path fill="#a8180f" d="M 198.753906 47.738281 C 198.753906 46.933594 198.089844 46.378906 197.421875 46.378906 C 196.617188 46.378906 196.0625 47.042969 196.0625 47.710938 C 196.0625 48.511719 196.730469 49.066406 197.394531 49.066406 C 198.199219 49.066406 198.753906 48.402344 198.753906 47.738281 Z M 198.753906 47.738281 " fill-opacity="1" fill-rule="nonzero"/></g><g clip-path="url(#fa9169acba)"><path fill="#a8180f" d="M 204.609375 39.425781 C 204.609375 32.417969 208.019531 31.308594 209.515625 31.308594 C 210.515625 31.308594 211.515625 31.613281 212.039062 32.445312 C 211.707031 32.445312 210.652344 32.445312 210.652344 33.582031 C 210.652344 34.191406 211.070312 34.714844 211.792969 34.714844 C 212.484375 34.714844 212.957031 34.300781 212.957031 33.496094 C 212.957031 32.058594 211.902344 30.644531 209.488281 30.644531 C 205.996094 30.644531 202.332031 34.21875 202.332031 40.3125 C 202.332031 47.929688 205.660156 49.648438 208.019531 49.648438 C 211.042969 49.648438 213.621094 47.015625 213.621094 43.414062 C 213.621094 39.730469 211.042969 37.265625 208.269531 37.265625 C 205.800781 37.265625 204.886719 39.398438 204.609375 40.175781 Z M 208.019531 48.902344 C 206.273438 48.902344 205.441406 47.347656 205.191406 46.765625 C 204.941406 46.046875 204.664062 44.691406 204.664062 42.75 C 204.664062 40.5625 205.660156 37.820312 208.15625 37.820312 C 209.683594 37.820312 210.488281 38.84375 210.902344 39.785156 C 211.347656 40.8125 211.347656 42.195312 211.347656 43.386719 C 211.347656 44.800781 211.347656 46.046875 210.820312 47.101562 C 210.128906 48.429688 209.128906 48.902344 208.019531 48.902344 Z M 208.019531 48.902344 " fill-opacity="1" fill-rule="nonzero"/></g><g clip-path="url(#4a972295d8)"><path fill="#a8180f" d="M 224.925781 41.003906 C 224.925781 47.542969 222.015625 48.902344 220.351562 48.902344 C 219.683594 48.902344 218.214844 48.816406 217.519531 47.847656 L 217.6875 47.847656 C 217.882812 47.902344 218.878906 47.738281 218.878906 46.710938 C 218.878906 46.101562 218.464844 45.574219 217.742188 45.574219 C 217.023438 45.574219 216.578125 46.046875 216.578125 46.765625 C 216.578125 48.484375 217.964844 49.648438 220.378906 49.648438 C 223.84375 49.648438 227.199219 45.964844 227.199219 39.953125 C 227.199219 32.5 224.09375 30.644531 221.652344 30.644531 C 218.601562 30.644531 215.914062 33.191406 215.914062 36.847656 C 215.914062 40.507812 218.492188 43 221.265625 43 C 223.316406 43 224.371094 41.503906 224.925781 40.089844 Z M 221.375 42.445312 C 219.628906 42.445312 218.878906 41.03125 218.628906 40.507812 C 218.1875 39.453125 218.1875 38.125 218.1875 36.878906 C 218.1875 35.324219 218.1875 33.996094 218.90625 32.859375 C 219.40625 32.113281 220.15625 31.308594 221.652344 31.308594 C 223.234375 31.308594 224.039062 32.695312 224.316406 33.332031 C 224.871094 34.6875 224.871094 37.042969 224.871094 37.457031 C 224.871094 39.785156 223.816406 42.445312 221.375 42.445312 Z M 221.375 42.445312 " fill-opacity="1" fill-rule="nonzero"/></g><g clip-path="url(#883ba1943e)"><path fill="#a8180f" d="M 240.230469 40.949219 C 240.289062 40.785156 240.980469 39.398438 242.007812 38.511719 C 242.726562 37.847656 243.671875 37.402344 244.753906 37.402344 C 245.863281 37.402344 246.25 38.234375 246.25 39.34375 C 246.25 39.507812 246.25 40.0625 245.917969 41.363281 L 245.226562 44.21875 C 245.003906 45.050781 244.476562 47.101562 244.421875 47.40625 C 244.308594 47.820312 244.144531 48.539062 244.144531 48.652344 C 244.144531 49.039062 244.449219 49.34375 244.863281 49.34375 C 245.695312 49.34375 245.835938 48.707031 246.085938 47.710938 L 247.75 41.089844 C 247.804688 40.867188 249.246094 37.402344 252.296875 37.402344 C 253.40625 37.402344 253.796875 38.234375 253.796875 39.34375 C 253.796875 40.894531 252.714844 43.914062 252.101562 45.574219 C 251.855469 46.242188 251.714844 46.601562 251.714844 47.101562 C 251.714844 48.347656 252.574219 49.34375 253.90625 49.34375 C 256.484375 49.34375 257.457031 45.269531 257.457031 45.105469 C 257.457031 44.964844 257.34375 44.855469 257.179688 44.855469 C 256.929688 44.855469 256.902344 44.9375 256.761719 45.410156 C 256.125 47.625 255.097656 48.789062 253.988281 48.789062 C 253.710938 48.789062 253.269531 48.761719 253.269531 47.875 C 253.269531 47.15625 253.601562 46.269531 253.710938 45.964844 C 254.210938 44.632812 255.460938 41.363281 255.460938 39.757812 C 255.460938 38.097656 254.488281 36.847656 252.378906 36.847656 C 250.523438 36.847656 249.023438 37.902344 247.914062 39.535156 C 247.832031 38.039062 246.917969 36.847656 244.835938 36.847656 C 242.367188 36.847656 241.0625 38.59375 240.566406 39.289062 C 240.480469 37.707031 239.34375 36.847656 238.125 36.847656 C 237.320312 36.847656 236.683594 37.238281 236.15625 38.289062 C 235.65625 39.289062 235.265625 40.976562 235.265625 41.089844 C 235.265625 41.199219 235.378906 41.335938 235.574219 41.335938 C 235.792969 41.335938 235.820312 41.308594 235.988281 40.671875 C 236.40625 39.039062 236.929688 37.402344 238.039062 37.402344 C 238.679688 37.402344 238.902344 37.847656 238.902344 38.679688 C 238.902344 39.289062 238.625 40.367188 238.429688 41.226562 L 237.652344 44.21875 C 237.542969 44.746094 237.238281 45.992188 237.097656 46.492188 C 236.902344 47.210938 236.597656 48.511719 236.597656 48.652344 C 236.597656 49.039062 236.902344 49.34375 237.320312 49.34375 C 237.652344 49.34375 238.039062 49.175781 238.261719 48.761719 C 238.316406 48.625 238.566406 47.652344 238.707031 47.101562 L 239.316406 44.605469 Z M 240.230469 40.949219 " fill-opacity="1" fill-rule="nonzero"/></g><g clip-path="url(#c30be61dc7)"><path fill="#a8180f" d="M 263.488281 33.859375 C 263.785156 33.582031 264.558594 32.972656 264.855469 32.714844 C 266.003906 31.664062 267.09375 30.648438 267.09375 28.964844 C 267.09375 26.769531 265.246094 25.347656 262.933594 25.347656 C 260.714844 25.347656 259.253906 27.027344 259.253906 28.671875 C 259.253906 29.574219 259.972656 29.707031 260.234375 29.707031 C 260.621094 29.707031 261.195312 29.429688 261.195312 28.726562 C 261.195312 27.765625 260.269531 27.765625 260.046875 27.765625 C 260.585938 26.417969 261.824219 25.957031 262.730469 25.957031 C 264.449219 25.957031 265.335938 27.414062 265.335938 28.964844 C 265.335938 30.886719 263.988281 32.292969 261.804688 34.527344 L 259.476562 36.925781 C 259.253906 37.128906 259.253906 37.167969 259.253906 37.628906 L 266.558594 37.628906 L 267.09375 34.324219 L 266.519531 34.324219 C 266.464844 34.691406 266.316406 35.617188 266.09375 35.964844 C 265.984375 36.113281 264.578125 36.113281 264.28125 36.113281 L 260.992188 36.113281 Z M 263.488281 33.859375 " fill-opacity="1" fill-rule="nonzero"/></g></svg>