<svg xmlns="http://www.w3.org/2000/svg" xmlns:xlink="http://www.w3.org/1999/xlink" width="500" zoomAndPan="magnify" viewBox="0 0 375 74.999997" height="100" preserveAspectRatio="xMidYMid meet" version="1.0"><defs><clipPath id="02d5ef494b"><path d="M 212 8.585938 L 233 8.585938 L 233 35 L 212 35 Z M 212 8.585938 " clip-rule="nonzero"/></clipPath><clipPath id="8df7c7511f"><path d="M 232 8.585938 L 245 8.585938 L 245 10 L 232 10 Z M 232 8.585938 " clip-rule="nonzero"/></clipPath><clipPath id="be082078f9"><path d="M 210 48 L 222 48 L 222 66.335938 L 210 66.335938 Z M 210 48 " clip-rule="nonzero"/></clipPath></defs><path fill="#a8180f" d="M 145.976562 33.753906 C 146.855469 32.355469 147.660156 31.734375 148.980469 31.628906 C 149.238281 31.605469 149.445312 31.605469 149.445312 31.136719 C 149.445312 31.035156 149.394531 30.878906 149.160156 30.878906 C 148.695312 30.878906 147.582031 30.929688 147.117188 30.929688 C 146.363281 30.929688 145.589844 30.878906 144.863281 30.878906 C 144.65625 30.878906 144.398438 30.878906 144.398438 31.371094 C 144.398438 31.605469 144.628906 31.628906 144.734375 31.628906 C 145.691406 31.707031 145.796875 32.171875 145.796875 32.484375 C 145.796875 32.871094 145.433594 33.46875 145.40625 33.496094 L 137.273438 46.394531 L 135.460938 32.433594 C 135.460938 31.679688 136.808594 31.628906 137.09375 31.628906 C 137.480469 31.628906 137.714844 31.628906 137.714844 31.136719 C 137.714844 30.878906 137.429688 30.878906 137.351562 30.878906 C 136.914062 30.878906 136.394531 30.929688 135.953125 30.929688 L 134.503906 30.929688 C 132.613281 30.929688 131.835938 30.878906 131.808594 30.878906 C 131.65625 30.878906 131.34375 30.878906 131.34375 31.34375 C 131.34375 31.628906 131.523438 31.628906 131.941406 31.628906 C 133.261719 31.628906 133.339844 31.863281 133.414062 32.511719 L 135.488281 48.492188 C 135.566406 49.035156 135.566406 49.113281 135.929688 49.113281 C 136.238281 49.113281 136.367188 49.035156 136.628906 48.621094 Z M 145.976562 33.753906 " fill-opacity="1" fill-rule="nonzero"/><path fill="#a8180f" d="M 175.039062 40.175781 C 175.402344 40.175781 175.871094 40.175781 175.871094 39.710938 C 175.871094 39.21875 175.429688 39.21875 175.039062 39.21875 L 159.785156 39.21875 C 159.425781 39.21875 158.957031 39.21875 158.957031 39.683594 C 158.957031 40.175781 159.398438 40.175781 159.785156 40.175781 Z M 175.039062 44.996094 C 175.402344 44.996094 175.871094 44.996094 175.871094 44.527344 C 175.871094 44.035156 175.429688 44.035156 175.039062 44.035156 L 159.785156 44.035156 C 159.425781 44.035156 158.957031 44.035156 158.957031 44.503906 C 158.957031 44.996094 159.398438 44.996094 159.785156 44.996094 Z M 175.039062 44.996094 " fill-opacity="1" fill-rule="nonzero"/><path fill="#a8180f" d="M 194.863281 27.964844 C 194.730469 28.402344 194.730469 28.457031 194.371094 28.949219 C 193.800781 29.671875 192.660156 30.789062 191.441406 30.789062 C 190.382812 30.789062 189.785156 29.828125 189.785156 28.300781 C 189.785156 26.875 190.589844 23.976562 191.082031 22.886719 C 191.960938 21.074219 193.179688 20.140625 194.1875 20.140625 C 195.898438 20.140625 196.234375 22.265625 196.234375 22.472656 C 196.234375 22.5 196.15625 22.835938 196.128906 22.886719 Z M 196.519531 21.332031 C 196.234375 20.660156 195.535156 19.625 194.1875 19.625 C 191.261719 19.625 188.101562 23.40625 188.101562 27.238281 C 188.101562 29.804688 189.605469 31.304688 191.367188 31.304688 C 192.789062 31.304688 194.007812 30.191406 194.730469 29.335938 C 194.992188 30.863281 196.207031 31.304688 196.984375 31.304688 C 197.761719 31.304688 198.382812 30.839844 198.851562 29.90625 C 199.265625 29.027344 199.628906 27.445312 199.628906 27.34375 C 199.628906 27.210938 199.523438 27.109375 199.367188 27.109375 C 199.136719 27.109375 199.109375 27.238281 199.003906 27.628906 C 198.617188 29.15625 198.125 30.789062 197.0625 30.789062 C 196.3125 30.789062 196.261719 30.113281 196.261719 29.59375 C 196.261719 29 196.339844 28.714844 196.570312 27.703125 C 196.753906 27.058594 196.882812 26.488281 197.089844 25.738281 C 198.046875 21.851562 198.28125 20.917969 198.28125 20.761719 C 198.28125 20.402344 197.996094 20.117188 197.605469 20.117188 C 196.777344 20.117188 196.570312 21.023438 196.519531 21.332031 Z M 196.519531 21.332031 " fill-opacity="1" fill-rule="nonzero"/><path fill="#a8180f" d="M 204.746094 15.878906 C 206.109375 15.878906 206.972656 16.882812 206.972656 18.695312 C 206.972656 20.855469 205.746094 21.492188 204.832031 21.492188 C 203.882812 21.492188 202.589844 21.148438 201.984375 20.230469 C 202.605469 20.230469 203.035156 19.835938 203.035156 19.265625 C 203.035156 18.710938 202.640625 18.316406 202.085938 18.316406 C 201.621094 18.316406 201.136719 18.609375 201.136719 19.300781 C 201.136719 20.941406 202.898438 22.011719 204.867188 22.011719 C 207.164062 22.011719 208.769531 20.421875 208.769531 18.695312 C 208.769531 17.261719 207.628906 15.949219 205.867188 15.570312 C 207.234375 15.085938 208.25 13.910156 208.25 12.53125 C 208.25 11.148438 206.699219 10.164062 204.902344 10.164062 C 203.054688 10.164062 201.65625 11.167969 201.65625 12.480469 C 201.65625 13.117188 202.085938 13.394531 202.535156 13.394531 C 203.070312 13.394531 203.417969 13.015625 203.417969 12.511719 C 203.417969 11.875 202.863281 11.632812 202.484375 11.617188 C 203.210938 10.664062 204.539062 10.613281 204.851562 10.613281 C 205.300781 10.613281 206.609375 10.753906 206.609375 12.53125 C 206.609375 13.738281 206.109375 14.464844 205.867188 14.742188 C 205.351562 15.277344 204.953125 15.3125 203.898438 15.378906 C 203.574219 15.398438 203.433594 15.414062 203.433594 15.640625 C 203.433594 15.878906 203.589844 15.878906 203.882812 15.878906 Z M 204.746094 15.878906 " fill-opacity="1" fill-rule="nonzero"/><g clip-path="url(#02d5ef494b)"><path fill="#a8180f" d="M 220.703125 31.765625 L 216.144531 21.691406 C 215.964844 21.277344 215.835938 21.277344 215.757812 21.277344 C 215.730469 21.277344 215.601562 21.277344 215.316406 21.484375 L 212.855469 23.347656 C 212.519531 23.609375 212.519531 23.6875 212.519531 23.761719 C 212.519531 23.894531 212.597656 24.046875 212.777344 24.046875 C 212.933594 24.046875 213.375 23.6875 213.660156 23.480469 C 213.816406 23.347656 214.203125 23.0625 214.488281 22.855469 L 219.589844 34.070312 C 219.769531 34.488281 219.902344 34.488281 220.132812 34.488281 C 220.523438 34.488281 220.601562 34.332031 220.78125 33.96875 L 232.539062 9.621094 C 232.71875 9.257812 232.71875 9.15625 232.71875 9.101562 C 232.71875 8.84375 232.511719 8.585938 232.203125 8.585938 C 231.996094 8.585938 231.8125 8.714844 231.605469 9.128906 Z M 220.703125 31.765625 " fill-opacity="1" fill-rule="nonzero"/></g><g clip-path="url(#8df7c7511f)"><path fill="#a8180f" d="M 232.210938 8.582031 L 244.890625 8.582031 L 244.890625 9.621094 L 232.210938 9.621094 Z M 232.210938 8.582031 " fill-opacity="1" fill-rule="nonzero"/></g><path fill="#a8180f" d="M 236.976562 21.746094 C 236.535156 21.773438 236.433594 21.800781 236.433594 22.03125 C 236.433594 22.292969 236.5625 22.292969 237.027344 22.292969 L 238.21875 22.292969 C 240.421875 22.292969 241.40625 24.105469 241.40625 26.589844 C 241.40625 29.984375 239.644531 30.890625 238.375 30.890625 C 237.132812 30.890625 235.007812 30.296875 234.257812 28.585938 C 235.085938 28.714844 235.835938 28.25 235.835938 27.316406 C 235.835938 26.566406 235.292969 26.046875 234.570312 26.046875 C 233.945312 26.046875 233.273438 26.410156 233.273438 27.394531 C 233.273438 29.699219 235.578125 31.589844 238.453125 31.589844 C 241.535156 31.589844 243.8125 29.234375 243.8125 26.617188 C 243.8125 24.234375 241.898438 22.371094 239.410156 21.929688 C 241.664062 21.28125 243.113281 19.390625 243.113281 17.371094 C 243.113281 15.324219 240.992188 13.820312 238.480469 13.820312 C 235.890625 13.820312 233.972656 15.402344 233.972656 17.292969 C 233.972656 18.328125 234.777344 18.535156 235.164062 18.535156 C 235.707031 18.535156 236.328125 18.148438 236.328125 17.371094 C 236.328125 16.542969 235.707031 16.179688 235.136719 16.179688 C 234.984375 16.179688 234.929688 16.179688 234.851562 16.203125 C 235.835938 14.445312 238.273438 14.445312 238.402344 14.445312 C 239.257812 14.445312 240.941406 14.832031 240.941406 17.371094 C 240.941406 17.863281 240.863281 19.3125 240.109375 20.425781 C 239.332031 21.566406 238.453125 21.644531 237.753906 21.671875 Z M 236.976562 21.746094 " fill-opacity="1" fill-rule="nonzero"/><path fill="#a8180f" d="M 187.066406 41.574219 L 244.890625 41.574219 L 244.890625 42.609375 L 187.066406 42.609375 Z M 187.066406 41.574219 " fill-opacity="1" fill-rule="nonzero"/><g clip-path="url(#be082078f9)"><path fill="#a8180f" d="M 218.988281 49.476562 C 218.988281 48.984375 218.988281 48.851562 218.625 48.851562 C 218.417969 48.851562 218.339844 48.851562 218.132812 49.164062 L 210.339844 61.261719 L 210.339844 62.011719 L 217.148438 62.011719 L 217.148438 64.367188 C 217.148438 65.328125 217.097656 65.585938 215.207031 65.585938 L 214.6875 65.585938 L 214.6875 66.335938 C 215.285156 66.285156 217.332031 66.285156 218.054688 66.285156 C 218.78125 66.285156 220.851562 66.285156 221.449219 66.335938 L 221.449219 65.585938 L 220.929688 65.585938 C 219.066406 65.585938 218.988281 65.328125 218.988281 64.367188 L 218.988281 62.011719 L 221.605469 62.011719 L 221.605469 61.261719 L 218.988281 61.261719 Z M 217.277344 51.496094 L 217.277344 61.261719 L 210.984375 61.261719 Z M 217.277344 51.496094 " fill-opacity="1" fill-rule="nonzero"/></g></svg>