<svg xmlns="http://www.w3.org/2000/svg" xmlns:xlink="http://www.w3.org/1999/xlink" width="500" zoomAndPan="magnify" viewBox="0 0 375 74.999997" height="100" preserveAspectRatio="xMidYMid meet" version="1.0"><defs><clipPath id="ef00ee3452"><path d="M 166 29 L 179 29 L 179 50.851562 L 166 50.851562 Z M 166 29 " clip-rule="nonzero"/></clipPath><clipPath id="d824bb111c"><path d="M 181 29 L 194 29 L 194 50.851562 L 181 50.851562 Z M 181 29 " clip-rule="nonzero"/></clipPath><clipPath id="680ecd55d6"><path d="M 204 29 L 217 29 L 217 50.851562 L 204 50.851562 Z M 204 29 " clip-rule="nonzero"/></clipPath><clipPath id="527ce920da"><path d="M 241 36 L 253 36 L 253 50.851562 L 241 50.851562 Z M 241 36 " clip-rule="nonzero"/></clipPath><clipPath id="bf724d686a"><path d="M 253 36 L 279 36 L 279 50.851562 L 253 50.851562 Z M 253 36 " clip-rule="nonzero"/></clipPath><clipPath id="c147172b61"><path d="M 280 24 L 288.765625 24 L 288.765625 38 L 280 38 Z M 280 24 " clip-rule="nonzero"/></clipPath></defs><path fill="#a8180f" d="M 95.316406 40.359375 L 100.453125 40.359375 C 104.675781 40.359375 108.894531 37.277344 108.894531 33.828125 C 108.894531 31.46875 106.875 29.320312 103.023438 29.320312 L 93.574219 29.320312 C 92.992188 29.320312 92.71875 29.320312 92.71875 29.894531 C 92.71875 30.199219 92.992188 30.199219 93.453125 30.199219 C 95.316406 30.199219 95.316406 30.441406 95.316406 30.773438 C 95.316406 30.832031 95.316406 31.015625 95.195312 31.46875 L 91.066406 47.742188 C 90.792969 48.800781 90.730469 49.101562 88.589844 49.101562 C 88.007812 49.101562 87.703125 49.101562 87.703125 49.644531 C 87.703125 49.980469 87.980469 49.980469 88.164062 49.980469 C 88.742188 49.980469 89.355469 49.917969 89.9375 49.917969 L 93.511719 49.917969 C 94.09375 49.917969 94.738281 49.980469 95.316406 49.980469 C 95.5625 49.980469 95.898438 49.980469 95.898438 49.402344 C 95.898438 49.101562 95.625 49.101562 95.164062 49.101562 C 93.328125 49.101562 93.300781 48.890625 93.300781 48.585938 C 93.300781 48.4375 93.328125 48.222656 93.359375 48.074219 Z M 97.519531 31.378906 C 97.792969 30.257812 97.917969 30.199219 99.109375 30.199219 L 102.136719 30.199219 C 104.429688 30.199219 106.324219 30.925781 106.324219 33.191406 C 106.324219 33.980469 105.929688 36.550781 104.523438 37.941406 C 104.003906 38.484375 102.535156 39.632812 99.75 39.632812 L 95.441406 39.632812 Z M 97.519531 31.378906 " fill-opacity="1" fill-rule="nonzero"/><path fill="#a8180f" d="M 138.859375 40.179688 C 139.285156 40.179688 139.835938 40.179688 139.835938 39.632812 C 139.835938 39.058594 139.316406 39.058594 138.859375 39.058594 L 120.847656 39.058594 C 120.421875 39.058594 119.871094 39.058594 119.871094 39.605469 C 119.871094 40.179688 120.390625 40.179688 120.847656 40.179688 Z M 138.859375 45.804688 C 139.285156 45.804688 139.835938 45.804688 139.835938 45.261719 C 139.835938 44.6875 139.316406 44.6875 138.859375 44.6875 L 120.847656 44.6875 C 120.421875 44.6875 119.871094 44.6875 119.871094 45.230469 C 119.871094 45.804688 120.390625 45.804688 120.847656 45.804688 Z M 138.859375 45.804688 " fill-opacity="1" fill-rule="nonzero"/><path fill="#a8180f" d="M 158.808594 30.589844 C 158.808594 29.894531 158.808594 29.867188 158.195312 29.867188 C 157.460938 30.683594 155.933594 31.800781 152.785156 31.800781 L 152.785156 32.679688 C 153.488281 32.679688 155.015625 32.679688 156.699219 31.890625 L 156.699219 47.648438 C 156.699219 48.738281 156.605469 49.101562 153.914062 49.101562 L 152.96875 49.101562 L 152.96875 49.980469 C 153.792969 49.917969 156.757812 49.917969 157.769531 49.917969 C 158.777344 49.917969 161.714844 49.917969 162.539062 49.980469 L 162.539062 49.101562 L 161.589844 49.101562 C 158.898438 49.101562 158.808594 48.738281 158.808594 47.648438 Z M 158.808594 30.589844 " fill-opacity="1" fill-rule="nonzero"/><g clip-path="url(#ef00ee3452)"><path fill="#a8180f" d="M 176.164062 41.175781 C 176.164062 48.316406 172.953125 49.796875 171.117188 49.796875 C 170.382812 49.796875 168.765625 49.707031 168 48.648438 L 168.183594 48.648438 C 168.398438 48.707031 169.496094 48.527344 169.496094 47.40625 C 169.496094 46.742188 169.039062 46.167969 168.242188 46.167969 C 167.449219 46.167969 166.960938 46.683594 166.960938 47.46875 C 166.960938 49.34375 168.488281 50.613281 171.148438 50.613281 C 174.972656 50.613281 178.671875 46.589844 178.671875 40.027344 C 178.671875 31.890625 175.246094 29.867188 172.554688 29.867188 C 169.191406 29.867188 166.226562 32.648438 166.226562 36.640625 C 166.226562 40.632812 169.070312 43.355469 172.128906 43.355469 C 174.390625 43.355469 175.550781 41.722656 176.164062 40.179688 Z M 172.25 42.75 C 170.324219 42.75 169.496094 41.207031 169.222656 40.632812 C 168.734375 39.484375 168.734375 38.03125 168.734375 36.671875 C 168.734375 34.976562 168.734375 33.523438 169.527344 32.285156 C 170.078125 31.46875 170.90625 30.589844 172.554688 30.589844 C 174.296875 30.589844 175.183594 32.105469 175.492188 32.800781 C 176.101562 34.28125 176.101562 36.851562 176.101562 37.304688 C 176.101562 39.847656 174.941406 42.75 172.25 42.75 Z M 172.25 42.75 " fill-opacity="1" fill-rule="nonzero"/></g><g clip-path="url(#d824bb111c)"><path fill="#a8180f" d="M 185.570312 39.121094 C 185.050781 39.152344 184.925781 39.179688 184.925781 39.453125 C 184.925781 39.753906 185.082031 39.753906 185.628906 39.753906 L 187.039062 39.753906 C 189.636719 39.753906 190.796875 41.871094 190.796875 44.777344 C 190.796875 48.738281 188.71875 49.796875 187.21875 49.796875 C 185.753906 49.796875 183.246094 49.101562 182.359375 47.105469 C 183.335938 47.257812 184.222656 46.710938 184.222656 45.625 C 184.222656 44.746094 183.582031 44.140625 182.726562 44.140625 C 181.992188 44.140625 181.195312 44.566406 181.195312 45.714844 C 181.195312 48.40625 183.917969 50.613281 187.3125 50.613281 C 190.953125 50.613281 193.640625 47.863281 193.640625 44.804688 C 193.640625 42.023438 191.378906 39.847656 188.445312 39.332031 C 191.105469 38.574219 192.816406 36.367188 192.816406 34.007812 C 192.816406 31.621094 190.308594 29.867188 187.34375 29.867188 C 184.285156 29.867188 182.023438 31.710938 182.023438 33.917969 C 182.023438 35.128906 182.96875 35.371094 183.429688 35.371094 C 184.070312 35.371094 184.804688 34.917969 184.804688 34.007812 C 184.804688 33.042969 184.070312 32.617188 183.398438 32.617188 C 183.214844 32.617188 183.152344 32.617188 183.0625 32.648438 C 184.222656 30.589844 187.097656 30.589844 187.25 30.589844 C 188.261719 30.589844 190.246094 31.046875 190.246094 34.007812 C 190.246094 34.582031 190.15625 36.277344 189.269531 37.578125 C 188.351562 38.910156 187.3125 39 186.488281 39.03125 Z M 185.570312 39.121094 " fill-opacity="1" fill-rule="nonzero"/></g><path fill="#a8180f" d="M 200.539062 48.527344 C 200.539062 47.648438 199.804688 47.042969 199.074219 47.042969 C 198.1875 47.042969 197.574219 47.769531 197.574219 48.496094 C 197.574219 49.375 198.308594 49.980469 199.042969 49.980469 C 199.929688 49.980469 200.539062 49.253906 200.539062 48.527344 Z M 200.539062 48.527344 " fill-opacity="1" fill-rule="nonzero"/><g clip-path="url(#680ecd55d6)"><path fill="#a8180f" d="M 216.929688 40.300781 C 216.929688 37.789062 216.777344 35.339844 215.675781 33.042969 C 214.421875 30.53125 212.21875 29.867188 210.722656 29.867188 C 208.945312 29.867188 206.777344 30.742188 205.644531 33.253906 C 204.789062 35.160156 204.484375 37.035156 204.484375 40.300781 C 204.484375 43.234375 204.695312 45.441406 205.796875 47.589844 C 206.988281 49.886719 209.101562 50.613281 210.691406 50.613281 C 213.351562 50.613281 214.878906 49.039062 215.765625 47.285156 C 216.867188 45.019531 216.929688 42.054688 216.929688 40.300781 Z M 210.691406 50.007812 C 209.710938 50.007812 207.722656 49.464844 207.144531 46.167969 C 206.808594 44.351562 206.808594 42.054688 206.808594 39.9375 C 206.808594 37.457031 206.808594 35.21875 207.296875 33.433594 C 207.816406 31.40625 209.375 30.46875 210.691406 30.46875 C 211.851562 30.46875 213.625 31.164062 214.207031 33.765625 C 214.605469 35.492188 214.605469 37.878906 214.605469 39.9375 C 214.605469 41.964844 214.605469 44.261719 214.269531 46.105469 C 213.6875 49.433594 211.761719 50.007812 210.691406 50.007812 Z M 210.691406 50.007812 " fill-opacity="1" fill-rule="nonzero"/></g><path fill="#a8180f" d="M 231.65625 44.898438 L 230.980469 44.898438 C 230.890625 45.410156 230.644531 47.074219 230.339844 47.558594 C 230.125 47.832031 228.382812 47.832031 227.464844 47.832031 L 221.808594 47.832031 C 222.632812 47.136719 224.5 45.199219 225.292969 44.472656 C 229.941406 40.238281 231.65625 38.667969 231.65625 35.671875 C 231.65625 32.195312 228.871094 29.867188 225.324219 29.867188 C 221.777344 29.867188 219.699219 32.859375 219.699219 35.460938 C 219.699219 37.003906 221.042969 37.003906 221.136719 37.003906 C 221.777344 37.003906 222.574219 36.550781 222.574219 35.582031 C 222.574219 34.734375 221.992188 34.160156 221.136719 34.160156 C 220.859375 34.160156 220.800781 34.160156 220.707031 34.191406 C 221.289062 32.132812 222.941406 30.742188 224.925781 30.742188 C 227.527344 30.742188 229.117188 32.890625 229.117188 35.671875 C 229.117188 38.242188 227.617188 40.480469 225.875 42.417969 L 219.699219 49.253906 L 219.699219 49.980469 L 230.859375 49.980469 Z M 231.65625 44.898438 " fill-opacity="1" fill-rule="nonzero"/><g clip-path="url(#527ce920da)"><path fill="#a8180f" d="M 251.921875 38.605469 C 251.34375 38.605469 251.066406 38.605469 250.636719 38.96875 C 250.453125 39.121094 250.117188 39.574219 250.117188 40.058594 C 250.117188 40.664062 250.578125 41.027344 251.160156 41.027344 C 251.890625 41.027344 252.71875 40.421875 252.71875 39.210938 C 252.71875 37.757812 251.3125 36.640625 249.203125 36.640625 C 245.195312 36.640625 241.191406 40.964844 241.191406 45.261719 C 241.191406 47.890625 242.839844 50.28125 245.960938 50.28125 C 250.117188 50.28125 252.75 47.074219 252.75 46.683594 C 252.75 46.5 252.566406 46.347656 252.441406 46.347656 C 252.351562 46.347656 252.320312 46.378906 252.046875 46.652344 C 250.089844 49.222656 247.183594 49.675781 246.019531 49.675781 C 243.910156 49.675781 243.238281 47.863281 243.238281 46.347656 C 243.238281 45.289062 243.757812 42.355469 244.859375 40.300781 C 245.652344 38.878906 247.304688 37.246094 249.230469 37.246094 C 249.628906 37.246094 251.3125 37.304688 251.921875 38.605469 Z M 251.921875 38.605469 " fill-opacity="1" fill-rule="nonzero"/></g><g clip-path="url(#bf724d686a)"><path fill="#a8180f" d="M 259.152344 41.117188 C 259.214844 40.933594 259.976562 39.421875 261.109375 38.457031 C 261.902344 37.730469 262.945312 37.246094 264.136719 37.246094 C 265.359375 37.246094 265.789062 38.152344 265.789062 39.363281 C 265.789062 39.542969 265.789062 40.148438 265.421875 41.570312 L 264.65625 44.6875 C 264.410156 45.59375 263.832031 47.832031 263.769531 48.164062 C 263.648438 48.617188 263.464844 49.402344 263.464844 49.523438 C 263.464844 49.949219 263.800781 50.28125 264.257812 50.28125 C 265.175781 50.28125 265.328125 49.585938 265.605469 48.496094 L 267.4375 41.269531 C 267.5 41.027344 269.089844 37.246094 272.453125 37.246094 C 273.675781 37.246094 274.105469 38.152344 274.105469 39.363281 C 274.105469 41.054688 272.914062 44.351562 272.238281 46.167969 C 271.964844 46.894531 271.8125 47.285156 271.8125 47.832031 C 271.8125 49.191406 272.757812 50.28125 274.226562 50.28125 C 277.070312 50.28125 278.140625 45.835938 278.140625 45.652344 C 278.140625 45.503906 278.019531 45.382812 277.835938 45.382812 C 277.558594 45.382812 277.53125 45.472656 277.375 45.984375 C 276.671875 48.40625 275.542969 49.675781 274.320312 49.675781 C 274.011719 49.675781 273.523438 49.644531 273.523438 48.679688 C 273.523438 47.890625 273.890625 46.921875 274.011719 46.589844 C 274.5625 45.140625 275.941406 41.570312 275.941406 39.816406 C 275.941406 38 274.871094 36.640625 272.546875 36.640625 C 270.496094 36.640625 268.84375 37.789062 267.621094 39.574219 C 267.53125 37.941406 266.519531 36.640625 264.226562 36.640625 C 261.507812 36.640625 260.070312 38.546875 259.519531 39.300781 C 259.425781 37.578125 258.171875 36.640625 256.828125 36.640625 C 255.941406 36.640625 255.238281 37.0625 254.65625 38.214844 C 254.105469 39.300781 253.679688 41.148438 253.679688 41.269531 C 253.679688 41.390625 253.800781 41.539062 254.015625 41.539062 C 254.257812 41.539062 254.289062 41.511719 254.472656 40.8125 C 254.933594 39.03125 255.511719 37.246094 256.734375 37.246094 C 257.441406 37.246094 257.683594 37.730469 257.683594 38.636719 C 257.683594 39.300781 257.378906 40.480469 257.164062 41.417969 L 256.308594 44.6875 C 256.1875 45.261719 255.847656 46.621094 255.695312 47.164062 C 255.484375 47.953125 255.144531 49.375 255.144531 49.523438 C 255.144531 49.949219 255.484375 50.28125 255.941406 50.28125 C 256.308594 50.28125 256.734375 50.097656 256.980469 49.644531 C 257.042969 49.496094 257.316406 48.4375 257.46875 47.832031 L 258.144531 45.109375 Z M 259.152344 41.117188 " fill-opacity="1" fill-rule="nonzero"/></g><g clip-path="url(#c147172b61)"><path fill="#a8180f" d="M 284.789062 33.378906 C 285.117188 33.074219 285.972656 32.410156 286.300781 32.128906 C 287.5625 30.976562 288.765625 29.871094 288.765625 28.035156 C 288.765625 25.636719 286.726562 24.082031 284.179688 24.082031 C 281.734375 24.082031 280.121094 25.917969 280.121094 27.710938 C 280.121094 28.699219 280.917969 28.839844 281.203125 28.839844 C 281.632812 28.839844 282.261719 28.539062 282.261719 27.773438 C 282.261719 26.722656 281.242188 26.722656 281 26.722656 C 281.589844 25.25 282.957031 24.746094 283.953125 24.746094 C 285.851562 24.746094 286.828125 26.339844 286.828125 28.035156 C 286.828125 30.132812 285.339844 31.664062 282.9375 34.105469 L 280.367188 36.726562 C 280.121094 36.945312 280.121094 36.988281 280.121094 37.492188 L 288.175781 37.492188 L 288.765625 33.882812 L 288.132812 33.882812 C 288.074219 34.285156 287.910156 35.292969 287.664062 35.675781 C 287.542969 35.835938 285.992188 35.835938 285.667969 35.835938 L 282.039062 35.835938 Z M 284.789062 33.378906 " fill-opacity="1" fill-rule="nonzero"/></g></svg>