<svg xmlns="http://www.w3.org/2000/svg" xmlns:xlink="http://www.w3.org/1999/xlink" width="500" zoomAndPan="magnify" viewBox="0 0 375 74.999997" height="100" preserveAspectRatio="xMidYMid meet" version="1.0"><defs><g/><clipPath id="4477de5fed"><path d="M 234 24 L 259.644531 24 L 259.644531 26 L 234 26 Z M 234 24 " clip-rule="nonzero"/></clipPath></defs><path fill="#17191a" d="M 189.039062 38.664062 C 188.1875 38.824219 187.867188 39.464844 187.867188 39.972656 C 187.867188 40.613281 188.375 40.828125 188.746094 40.828125 C 189.546875 40.828125 190.109375 40.132812 190.109375 39.414062 C 190.109375 38.292969 188.828125 37.785156 187.707031 37.785156 C 186.078125 37.785156 185.171875 39.386719 184.929688 39.894531 C 184.316406 37.890625 182.664062 37.785156 182.183594 37.785156 C 179.460938 37.785156 178.019531 41.28125 178.019531 41.867188 C 178.019531 41.972656 178.125 42.109375 178.3125 42.109375 C 178.527344 42.109375 178.582031 41.949219 178.632812 41.839844 C 179.539062 38.878906 181.328125 38.316406 182.101562 38.316406 C 183.304688 38.316406 183.542969 39.4375 183.542969 40.078125 C 183.542969 40.667969 183.382812 41.28125 183.0625 42.5625 L 182.15625 46.21875 C 181.753906 47.816406 180.980469 49.285156 179.566406 49.285156 C 179.433594 49.285156 178.765625 49.285156 178.207031 48.9375 C 179.167969 48.753906 179.378906 47.953125 179.378906 47.632812 C 179.378906 47.097656 178.980469 46.777344 178.472656 46.777344 C 177.832031 46.777344 177.140625 47.335938 177.140625 48.191406 C 177.140625 49.3125 178.394531 49.820312 179.539062 49.820312 C 180.820312 49.820312 181.730469 48.804688 182.289062 47.710938 C 182.714844 49.285156 184.050781 49.820312 185.039062 49.820312 C 187.761719 49.820312 189.199219 46.324219 189.199219 45.738281 C 189.199219 45.601562 189.09375 45.496094 188.933594 45.496094 C 188.695312 45.496094 188.667969 45.628906 188.585938 45.84375 C 187.867188 48.191406 186.320312 49.285156 185.117188 49.285156 C 184.183594 49.285156 183.675781 48.59375 183.675781 47.496094 C 183.675781 46.910156 183.785156 46.484375 184.210938 44.722656 L 185.144531 41.09375 C 185.546875 39.492188 186.453125 38.316406 187.679688 38.316406 C 187.734375 38.316406 188.480469 38.316406 189.039062 38.664062 Z M 189.039062 38.664062 " fill-opacity="1" fill-rule="nonzero"/><path fill="#17191a" d="M 196.824219 27.203125 C 196.824219 26.722656 196.789062 26.703125 196.308594 26.703125 C 195.582031 27.417969 194.636719 27.84375 192.949219 27.84375 L 192.949219 28.429688 C 193.429688 28.429688 194.386719 28.429688 195.421875 27.949219 L 195.421875 37.078125 C 195.421875 37.734375 195.367188 37.949219 193.675781 37.949219 L 193.054688 37.949219 L 193.054688 38.535156 C 193.785156 38.480469 195.3125 38.480469 196.113281 38.480469 C 196.914062 38.480469 198.460938 38.480469 199.191406 38.535156 L 199.191406 37.949219 L 198.570312 37.949219 C 196.878906 37.949219 196.824219 37.734375 196.824219 37.078125 Z M 196.824219 27.203125 " fill-opacity="1" fill-rule="nonzero"/><path fill="#17191a" d="M 205.710938 34.90625 C 205.992188 34.640625 206.742188 34.050781 207.027344 33.804688 C 208.128906 32.789062 209.179688 31.8125 209.179688 30.191406 C 209.179688 28.074219 207.398438 26.703125 205.175781 26.703125 C 203.039062 26.703125 201.636719 28.324219 201.636719 29.90625 C 201.636719 30.777344 202.328125 30.902344 202.578125 30.902344 C 202.953125 30.902344 203.503906 30.636719 203.503906 29.960938 C 203.503906 29.035156 202.613281 29.035156 202.402344 29.035156 C 202.917969 27.738281 204.109375 27.292969 204.980469 27.292969 C 206.632812 27.292969 207.488281 28.699219 207.488281 30.191406 C 207.488281 32.042969 206.191406 33.394531 204.089844 35.546875 L 201.847656 37.859375 C 201.636719 38.054688 201.636719 38.089844 201.636719 38.535156 L 208.664062 38.535156 L 209.179688 35.351562 L 208.625 35.351562 C 208.574219 35.707031 208.429688 36.597656 208.21875 36.933594 C 208.109375 37.078125 206.757812 37.078125 206.472656 37.078125 L 203.308594 37.078125 Z M 205.710938 34.90625 " fill-opacity="1" fill-rule="nonzero"/><path fill="#17191a" d="M 222.589844 29.976562 C 223.722656 29.976562 224.484375 30.738281 224.484375 32.097656 C 224.484375 33.566406 223.605469 34.207031 222.628906 34.207031 C 222.269531 34.207031 220.894531 34.125 220.296875 33.351562 C 220.816406 33.296875 221.027344 32.953125 221.027344 32.589844 C 221.027344 32.136719 220.707031 31.832031 220.269531 31.832031 C 219.910156 31.832031 219.507812 32.058594 219.507812 32.617188 C 219.507812 33.9375 220.976562 34.6875 222.671875 34.6875 C 224.644531 34.6875 225.964844 33.417969 225.964844 32.097656 C 225.964844 31.125 225.21875 30.097656 223.628906 29.695312 C 224.683594 29.347656 225.539062 28.496094 225.539062 27.402344 C 225.539062 26.332031 224.285156 25.53125 222.683594 25.53125 C 221.121094 25.53125 219.933594 26.253906 219.933594 27.347656 C 219.933594 27.921875 220.375 28.082031 220.640625 28.082031 C 220.988281 28.082031 221.347656 27.839844 221.347656 27.375 C 221.347656 26.960938 221.054688 26.71875 220.695312 26.667969 C 221.324219 25.972656 222.535156 25.972656 222.65625 25.972656 C 223.335938 25.972656 224.191406 26.292969 224.191406 27.402344 C 224.191406 28.136719 223.777344 29.414062 222.441406 29.496094 C 222.203125 29.507812 221.84375 29.535156 221.722656 29.535156 C 221.589844 29.550781 221.441406 29.5625 221.441406 29.761719 C 221.441406 29.976562 221.589844 29.976562 221.816406 29.976562 Z M 222.589844 29.976562 " fill-opacity="1" fill-rule="nonzero"/><path fill="#17191a" d="M 222.375 48.003906 L 217.679688 37.621094 C 217.492188 37.195312 217.359375 37.195312 217.28125 37.195312 C 217.253906 37.195312 217.121094 37.195312 216.824219 37.410156 L 214.289062 39.332031 C 213.945312 39.597656 213.945312 39.675781 213.945312 39.757812 C 213.945312 39.890625 214.023438 40.050781 214.210938 40.050781 C 214.371094 40.050781 214.824219 39.675781 215.117188 39.464844 C 215.277344 39.332031 215.679688 39.035156 215.972656 38.824219 L 221.230469 50.378906 C 221.414062 50.804688 221.550781 50.804688 221.789062 50.804688 C 222.1875 50.804688 222.269531 50.644531 222.457031 50.269531 L 234.570312 25.1875 C 234.757812 24.8125 234.757812 24.707031 234.757812 24.652344 C 234.757812 24.386719 234.542969 24.121094 234.222656 24.121094 C 234.011719 24.121094 233.824219 24.253906 233.609375 24.679688 Z M 222.375 48.003906 " fill-opacity="1" fill-rule="nonzero"/><g clip-path="url(#4477de5fed)"><path fill="#17191a" d="M 234.234375 24.121094 L 259.644531 24.121094 L 259.644531 25.1875 L 234.234375 25.1875 Z M 234.234375 24.121094 " fill-opacity="1" fill-rule="nonzero"/></g><path fill="#17191a" d="M 246.882812 38.664062 C 246.027344 38.824219 245.707031 39.464844 245.707031 39.972656 C 245.707031 40.613281 246.214844 40.828125 246.589844 40.828125 C 247.390625 40.828125 247.949219 40.132812 247.949219 39.414062 C 247.949219 38.292969 246.667969 37.785156 245.546875 37.785156 C 243.921875 37.785156 243.011719 39.386719 242.773438 39.894531 C 242.160156 37.890625 240.503906 37.785156 240.023438 37.785156 C 237.300781 37.785156 235.863281 41.28125 235.863281 41.867188 C 235.863281 41.972656 235.96875 42.109375 236.15625 42.109375 C 236.367188 42.109375 236.421875 41.949219 236.476562 41.839844 C 237.382812 38.878906 239.171875 38.316406 239.945312 38.316406 C 241.144531 38.316406 241.386719 39.4375 241.386719 40.078125 C 241.386719 40.667969 241.226562 41.28125 240.90625 42.5625 L 239.996094 46.21875 C 239.597656 47.816406 238.824219 49.285156 237.410156 49.285156 C 237.277344 49.285156 236.609375 49.285156 236.046875 48.9375 C 237.007812 48.753906 237.222656 47.953125 237.222656 47.632812 C 237.222656 47.097656 236.820312 46.777344 236.316406 46.777344 C 235.675781 46.777344 234.980469 47.335938 234.980469 48.191406 C 234.980469 49.3125 236.234375 49.820312 237.382812 49.820312 C 238.664062 49.820312 239.570312 48.804688 240.132812 47.710938 C 240.558594 49.285156 241.890625 49.820312 242.878906 49.820312 C 245.601562 49.820312 247.042969 46.324219 247.042969 45.738281 C 247.042969 45.601562 246.9375 45.496094 246.777344 45.496094 C 246.535156 45.496094 246.507812 45.628906 246.429688 45.84375 C 245.707031 48.191406 244.160156 49.285156 242.960938 49.285156 C 242.027344 49.285156 241.519531 48.59375 241.519531 47.496094 C 241.519531 46.910156 241.625 46.484375 242.050781 44.722656 L 242.988281 41.09375 C 243.386719 39.492188 244.292969 38.316406 245.519531 38.316406 C 245.574219 38.316406 246.320312 38.316406 246.882812 38.664062 Z M 246.882812 38.664062 " fill-opacity="1" fill-rule="nonzero"/><path fill="#17191a" d="M 258.082031 31.011719 C 258.242188 30.816406 258.242188 30.78125 258.242188 30.386719 L 253.726562 30.386719 C 253.28125 30.386719 252.726562 30.371094 252.285156 30.335938 C 251.359375 30.265625 251.339844 30.105469 251.289062 29.820312 L 250.734375 29.820312 L 250.132812 33.574219 L 250.683594 33.574219 C 250.71875 33.304688 250.914062 32.078125 251.164062 31.9375 C 251.359375 31.847656 252.691406 31.847656 252.960938 31.847656 L 256.730469 31.847656 L 254.898438 34.300781 C 252.871094 37.007812 252.445312 39.816406 252.445312 41.222656 C 252.445312 41.402344 252.445312 42.21875 253.28125 42.21875 C 254.117188 42.21875 254.117188 41.417969 254.117188 41.203125 L 254.117188 40.351562 C 254.117188 37.789062 254.542969 35.691406 255.414062 34.535156 Z M 258.082031 31.011719 " fill-opacity="1" fill-rule="nonzero"/><g fill="#17191a" fill-opacity="1"><g transform="translate(15.000006, 43.333562)"><g><path d="M 6.40625 0 L 4.765625 0 L 4.765625 -10.84375 L 1.5 -9.640625 L 1.5 -11.109375 L 6.15625 -12.859375 L 6.40625 -12.859375 Z M 6.40625 0 "/></g></g></g><g fill="#17191a" fill-opacity="1"><g transform="translate(25.104909, 43.333562)"><g><path d="M 4.984375 -5.109375 C 4.984375 -3.796875 4.8125 -2.539062 4.46875 -1.34375 C 4.125 -0.144531 3.597656 0.957031 2.890625 1.96875 C 2.191406 2.976562 1.453125 3.695312 0.671875 4.125 L 0.328125 3.140625 C 1.234375 2.441406 1.957031 1.367188 2.5 -0.078125 C 3.050781 -1.535156 3.332031 -3.15625 3.34375 -4.9375 L 3.34375 -5.21875 C 3.34375 -6.445312 3.210938 -7.585938 2.953125 -8.640625 C 2.703125 -9.703125 2.347656 -10.648438 1.890625 -11.484375 C 1.429688 -12.328125 0.910156 -12.984375 0.328125 -13.453125 L 0.671875 -14.4375 C 1.453125 -14.007812 2.191406 -13.296875 2.890625 -12.296875 C 3.585938 -11.296875 4.109375 -10.191406 4.453125 -8.984375 C 4.804688 -7.773438 4.984375 -6.484375 4.984375 -5.109375 Z M 4.984375 -5.109375 "/></g></g></g><g fill="#17191a" fill-opacity="1"><g transform="translate(31.361161, 43.333562)"><g/></g></g><g fill="#17191a" fill-opacity="1"><g transform="translate(35.816106, 43.333562)"><g><path d="M 10.90625 -4.0625 C 10.738281 -2.707031 10.234375 -1.660156 9.390625 -0.921875 C 8.554688 -0.191406 7.441406 0.171875 6.046875 0.171875 C 4.535156 0.171875 3.320312 -0.367188 2.40625 -1.453125 C 1.5 -2.535156 1.046875 -3.984375 1.046875 -5.796875 L 1.046875 -7.03125 C 1.046875 -8.21875 1.257812 -9.257812 1.6875 -10.15625 C 2.113281 -11.0625 2.710938 -11.753906 3.484375 -12.234375 C 4.265625 -12.722656 5.171875 -12.96875 6.203125 -12.96875 C 7.554688 -12.96875 8.644531 -12.585938 9.46875 -11.828125 C 10.289062 -11.078125 10.769531 -10.03125 10.90625 -8.6875 L 9.203125 -8.6875 C 9.054688 -9.707031 8.738281 -10.441406 8.25 -10.890625 C 7.757812 -11.347656 7.078125 -11.578125 6.203125 -11.578125 C 5.117188 -11.578125 4.269531 -11.175781 3.65625 -10.375 C 3.050781 -9.582031 2.75 -8.453125 2.75 -6.984375 L 2.75 -5.75 C 2.75 -4.363281 3.035156 -3.257812 3.609375 -2.4375 C 4.191406 -1.613281 5.003906 -1.203125 6.046875 -1.203125 C 6.984375 -1.203125 7.703125 -1.414062 8.203125 -1.84375 C 8.703125 -2.269531 9.035156 -3.007812 9.203125 -4.0625 Z M 5.96875 -15.03125 L 7.28125 -16.515625 L 8.6875 -16.515625 L 8.6875 -16.4375 L 6.453125 -14.03125 L 5.46875 -14.03125 L 3.25 -16.4375 L 3.25 -16.515625 L 4.640625 -16.515625 Z M 5.96875 -15.03125 "/></g></g></g><g fill="#17191a" fill-opacity="1"><g transform="translate(47.529006, 43.333562)"><g><path d="M 5.171875 0.171875 C 3.890625 0.171875 2.84375 -0.25 2.03125 -1.09375 C 1.21875 -1.9375 0.8125 -3.066406 0.8125 -4.484375 L 0.8125 -4.796875 C 0.8125 -5.734375 0.992188 -6.570312 1.359375 -7.3125 C 1.722656 -8.050781 2.226562 -8.628906 2.875 -9.046875 C 3.519531 -9.472656 4.21875 -9.6875 4.96875 -9.6875 C 6.207031 -9.6875 7.171875 -9.28125 7.859375 -8.46875 C 8.546875 -7.65625 8.890625 -6.488281 8.890625 -4.96875 L 8.890625 -4.296875 L 2.4375 -4.296875 C 2.46875 -3.359375 2.742188 -2.597656 3.265625 -2.015625 C 3.785156 -1.441406 4.453125 -1.15625 5.265625 -1.15625 C 5.835938 -1.15625 6.320312 -1.269531 6.71875 -1.5 C 7.125 -1.738281 7.472656 -2.050781 7.765625 -2.4375 L 8.765625 -1.65625 C 7.960938 -0.4375 6.765625 0.171875 5.171875 0.171875 Z M 4.96875 -8.34375 C 4.3125 -8.34375 3.757812 -8.101562 3.3125 -7.625 C 2.875 -7.15625 2.601562 -6.488281 2.5 -5.625 L 7.265625 -5.625 L 7.265625 -5.75 C 7.210938 -6.570312 6.988281 -7.207031 6.59375 -7.65625 C 6.195312 -8.113281 5.65625 -8.34375 4.96875 -8.34375 Z M 4.96875 -8.34375 "/></g></g></g><g fill="#17191a" fill-opacity="1"><g transform="translate(57.062762, 43.333562)"><g><path d="M 2.765625 -9.515625 L 2.796875 -8.453125 C 3.492188 -9.273438 4.4375 -9.6875 5.625 -9.6875 C 6.957031 -9.6875 7.863281 -9.175781 8.34375 -8.15625 C 8.65625 -8.613281 9.066406 -8.984375 9.578125 -9.265625 C 10.085938 -9.546875 10.6875 -9.6875 11.375 -9.6875 C 13.457031 -9.6875 14.519531 -8.582031 14.5625 -6.375 L 14.5625 0 L 12.921875 0 L 12.921875 -6.28125 C 12.921875 -6.957031 12.765625 -7.460938 12.453125 -7.796875 C 12.148438 -8.140625 11.632812 -8.3125 10.90625 -8.3125 C 10.300781 -8.3125 9.796875 -8.128906 9.390625 -7.765625 C 8.992188 -7.398438 8.765625 -6.914062 8.703125 -6.3125 L 8.703125 0 L 7.0625 0 L 7.0625 -6.234375 C 7.0625 -7.617188 6.382812 -8.3125 5.03125 -8.3125 C 3.96875 -8.3125 3.238281 -7.851562 2.84375 -6.9375 L 2.84375 0 L 1.21875 0 L 1.21875 -9.515625 Z M 2.765625 -9.515625 "/></g></g></g><g fill="#17191a" fill-opacity="1"><g transform="translate(72.835196, 43.333562)"><g><path d="M 7.109375 -0.9375 C 6.472656 -0.195312 5.539062 0.171875 4.3125 0.171875 C 3.300781 0.171875 2.53125 -0.117188 2 -0.703125 C 1.46875 -1.296875 1.203125 -2.171875 1.203125 -3.328125 L 1.203125 -9.515625 L 2.828125 -9.515625 L 2.828125 -3.359375 C 2.828125 -1.921875 3.410156 -1.203125 4.578125 -1.203125 C 5.816406 -1.203125 6.644531 -1.664062 7.0625 -2.59375 L 7.0625 -9.515625 L 8.6875 -9.515625 L 8.6875 0 L 7.140625 0 Z M 7.109375 -0.9375 "/></g></g></g><g fill="#17191a" fill-opacity="1"><g transform="translate(82.755575, 43.333562)"><g/></g></g><g fill="#17191a" fill-opacity="1"><g transform="translate(87.210519, 43.333562)"><g><path d="M 2.90625 -9.515625 L 2.90625 1.09375 C 2.90625 2.925781 2.078125 3.84375 0.421875 3.84375 C 0.0664062 3.84375 -0.265625 3.789062 -0.578125 3.6875 L -0.578125 2.375 C -0.390625 2.425781 -0.140625 2.453125 0.171875 2.453125 C 0.535156 2.453125 0.8125 2.351562 1 2.15625 C 1.1875 1.957031 1.28125 1.617188 1.28125 1.140625 L 1.28125 -9.515625 Z M 1.109375 -12.03125 C 1.109375 -12.289062 1.1875 -12.507812 1.34375 -12.6875 C 1.507812 -12.875 1.75 -12.96875 2.0625 -12.96875 C 2.382812 -12.96875 2.625 -12.875 2.78125 -12.6875 C 2.945312 -12.507812 3.03125 -12.289062 3.03125 -12.03125 C 3.03125 -11.769531 2.945312 -11.550781 2.78125 -11.375 C 2.625 -11.195312 2.382812 -11.109375 2.0625 -11.109375 C 1.75 -11.109375 1.507812 -11.195312 1.34375 -11.375 C 1.1875 -11.550781 1.109375 -11.769531 1.109375 -12.03125 Z M 1.109375 -12.03125 "/></g></g></g><g fill="#17191a" fill-opacity="1"><g transform="translate(91.507299, 43.333562)"><g><path d="M 5.171875 0.171875 C 3.890625 0.171875 2.84375 -0.25 2.03125 -1.09375 C 1.21875 -1.9375 0.8125 -3.066406 0.8125 -4.484375 L 0.8125 -4.796875 C 0.8125 -5.734375 0.992188 -6.570312 1.359375 -7.3125 C 1.722656 -8.050781 2.226562 -8.628906 2.875 -9.046875 C 3.519531 -9.472656 4.21875 -9.6875 4.96875 -9.6875 C 6.207031 -9.6875 7.171875 -9.28125 7.859375 -8.46875 C 8.546875 -7.65625 8.890625 -6.488281 8.890625 -4.96875 L 8.890625 -4.296875 L 2.4375 -4.296875 C 2.46875 -3.359375 2.742188 -2.597656 3.265625 -2.015625 C 3.785156 -1.441406 4.453125 -1.15625 5.265625 -1.15625 C 5.835938 -1.15625 6.320312 -1.269531 6.71875 -1.5 C 7.125 -1.738281 7.472656 -2.050781 7.765625 -2.4375 L 8.765625 -1.65625 C 7.960938 -0.4375 6.765625 0.171875 5.171875 0.171875 Z M 4.96875 -8.34375 C 4.3125 -8.34375 3.757812 -8.101562 3.3125 -7.625 C 2.875 -7.15625 2.601562 -6.488281 2.5 -5.625 L 7.265625 -5.625 L 7.265625 -5.75 C 7.210938 -6.570312 6.988281 -7.207031 6.59375 -7.65625 C 6.195312 -8.113281 5.65625 -8.34375 4.96875 -8.34375 Z M 4.96875 -8.34375 "/></g></g></g><g fill="#17191a" fill-opacity="1"><g transform="translate(101.041055, 43.333562)"><g/></g></g><g fill="#17191a" fill-opacity="1"><g transform="translate(105.495999, 43.333562)"><g><path d="M 2.90625 -9.515625 L 2.90625 1.09375 C 2.90625 2.925781 2.078125 3.84375 0.421875 3.84375 C 0.0664062 3.84375 -0.265625 3.789062 -0.578125 3.6875 L -0.578125 2.375 C -0.390625 2.425781 -0.140625 2.453125 0.171875 2.453125 C 0.535156 2.453125 0.8125 2.351562 1 2.15625 C 1.1875 1.957031 1.28125 1.617188 1.28125 1.140625 L 1.28125 -9.515625 Z M 1.109375 -12.03125 C 1.109375 -12.289062 1.1875 -12.507812 1.34375 -12.6875 C 1.507812 -12.875 1.75 -12.96875 2.0625 -12.96875 C 2.382812 -12.96875 2.625 -12.875 2.78125 -12.6875 C 2.945312 -12.507812 3.03125 -12.289062 3.03125 -12.03125 C 3.03125 -11.769531 2.945312 -11.550781 2.78125 -11.375 C 2.625 -11.195312 2.382812 -11.109375 2.0625 -11.109375 C 1.75 -11.109375 1.507812 -11.195312 1.34375 -11.375 C 1.1875 -11.550781 1.109375 -11.769531 1.109375 -12.03125 Z M 1.109375 -12.03125 "/></g></g></g><g fill="#17191a" fill-opacity="1"><g transform="translate(109.792779, 43.333562)"><g><path d="M 5.171875 0.171875 C 3.890625 0.171875 2.84375 -0.25 2.03125 -1.09375 C 1.21875 -1.9375 0.8125 -3.066406 0.8125 -4.484375 L 0.8125 -4.796875 C 0.8125 -5.734375 0.992188 -6.570312 1.359375 -7.3125 C 1.722656 -8.050781 2.226562 -8.628906 2.875 -9.046875 C 3.519531 -9.472656 4.21875 -9.6875 4.96875 -9.6875 C 6.207031 -9.6875 7.171875 -9.28125 7.859375 -8.46875 C 8.546875 -7.65625 8.890625 -6.488281 8.890625 -4.96875 L 8.890625 -4.296875 L 2.4375 -4.296875 C 2.46875 -3.359375 2.742188 -2.597656 3.265625 -2.015625 C 3.785156 -1.441406 4.453125 -1.15625 5.265625 -1.15625 C 5.835938 -1.15625 6.320312 -1.269531 6.71875 -1.5 C 7.125 -1.738281 7.472656 -2.050781 7.765625 -2.4375 L 8.765625 -1.65625 C 7.960938 -0.4375 6.765625 0.171875 5.171875 0.171875 Z M 4.96875 -8.34375 C 4.3125 -8.34375 3.757812 -8.101562 3.3125 -7.625 C 2.875 -7.15625 2.601562 -6.488281 2.5 -5.625 L 7.265625 -5.625 L 7.265625 -5.75 C 7.210938 -6.570312 6.988281 -7.207031 6.59375 -7.65625 C 6.195312 -8.113281 5.65625 -8.34375 4.96875 -8.34375 Z M 4.96875 -8.34375 "/></g></g></g><g fill="#17191a" fill-opacity="1"><g transform="translate(119.326535, 43.333562)"><g><path d="M 0.828125 -4.828125 C 0.828125 -6.285156 1.171875 -7.457031 1.859375 -8.34375 C 2.554688 -9.238281 3.46875 -9.6875 4.59375 -9.6875 C 5.707031 -9.6875 6.585938 -9.304688 7.234375 -8.546875 L 7.234375 -13.5 L 8.859375 -13.5 L 8.859375 0 L 7.359375 0 L 7.28125 -1.015625 C 6.632812 -0.222656 5.734375 0.171875 4.578125 0.171875 C 3.472656 0.171875 2.570312 -0.273438 1.875 -1.171875 C 1.175781 -2.078125 0.828125 -3.257812 0.828125 -4.71875 Z M 2.46875 -4.65625 C 2.46875 -3.570312 2.6875 -2.722656 3.125 -2.109375 C 3.570312 -1.503906 4.1875 -1.203125 4.96875 -1.203125 C 6 -1.203125 6.753906 -1.664062 7.234375 -2.59375 L 7.234375 -6.96875 C 6.742188 -7.863281 6 -8.3125 5 -8.3125 C 4.195312 -8.3125 3.570312 -8 3.125 -7.375 C 2.6875 -6.757812 2.46875 -5.851562 2.46875 -4.65625 Z M 2.46875 -4.65625 "/></g></g></g><g fill="#17191a" fill-opacity="1"><g transform="translate(129.475372, 43.333562)"><g><path d="M 2.765625 -9.515625 L 2.828125 -8.3125 C 3.546875 -9.226562 4.492188 -9.6875 5.671875 -9.6875 C 7.679688 -9.6875 8.691406 -8.550781 8.703125 -6.28125 L 8.703125 0 L 7.078125 0 L 7.078125 -6.296875 C 7.078125 -6.984375 6.921875 -7.488281 6.609375 -7.8125 C 6.304688 -8.144531 5.828125 -8.3125 5.171875 -8.3125 C 4.648438 -8.3125 4.1875 -8.171875 3.78125 -7.890625 C 3.382812 -7.609375 3.078125 -7.238281 2.859375 -6.78125 L 2.859375 0 L 1.234375 0 L 1.234375 -9.515625 Z M 2.765625 -9.515625 "/></g></g></g><g fill="#17191a" fill-opacity="1"><g transform="translate(139.404538, 43.333562)"><g><path d="M 7.109375 0 C 7.015625 -0.1875 6.9375 -0.519531 6.875 -1 C 6.113281 -0.21875 5.210938 0.171875 4.171875 0.171875 C 3.234375 0.171875 2.460938 -0.09375 1.859375 -0.625 C 1.253906 -1.15625 0.953125 -1.828125 0.953125 -2.640625 C 0.953125 -3.628906 1.328125 -4.394531 2.078125 -4.9375 C 2.835938 -5.488281 3.898438 -5.765625 5.265625 -5.765625 L 6.84375 -5.765625 L 6.84375 -6.515625 C 6.84375 -7.078125 6.671875 -7.523438 6.328125 -7.859375 C 5.992188 -8.203125 5.492188 -8.375 4.828125 -8.375 C 4.253906 -8.375 3.769531 -8.226562 3.375 -7.9375 C 2.976562 -7.644531 2.78125 -7.289062 2.78125 -6.875 L 1.15625 -6.875 C 1.15625 -7.34375 1.320312 -7.796875 1.65625 -8.234375 C 1.988281 -8.679688 2.441406 -9.035156 3.015625 -9.296875 C 3.597656 -9.554688 4.238281 -9.6875 4.9375 -9.6875 C 6.03125 -9.6875 6.882812 -9.410156 7.5 -8.859375 C 8.125 -8.316406 8.445312 -7.5625 8.46875 -6.59375 L 8.46875 -2.21875 C 8.46875 -1.351562 8.582031 -0.660156 8.8125 -0.140625 L 8.8125 0 Z M 4.40625 -1.234375 C 4.914062 -1.234375 5.398438 -1.363281 5.859375 -1.625 C 6.316406 -1.894531 6.644531 -2.238281 6.84375 -2.65625 L 6.84375 -4.609375 L 5.578125 -4.609375 C 3.578125 -4.609375 2.578125 -4.023438 2.578125 -2.859375 C 2.578125 -2.347656 2.75 -1.945312 3.09375 -1.65625 C 3.4375 -1.375 3.875 -1.234375 4.40625 -1.234375 Z M 4.40625 -1.234375 "/></g></g></g><g fill="#17191a" fill-opacity="1"><g transform="translate(149.193113, 43.333562)"><g><path d="M 3.890625 -4.40625 L 2.859375 -3.34375 L 2.859375 0 L 1.234375 0 L 1.234375 -13.5 L 2.859375 -13.5 L 2.859375 -5.328125 L 3.734375 -6.375 L 6.703125 -9.515625 L 8.671875 -9.515625 L 4.96875 -5.53125 L 9.109375 0 L 7.203125 0 Z M 3.890625 -4.40625 "/></g></g></g><g fill="#17191a" fill-opacity="1"><g transform="translate(158.313886, 43.333562)"><g><path d="M 0.796875 -4.84375 C 0.796875 -5.769531 0.976562 -6.601562 1.34375 -7.34375 C 1.71875 -8.09375 2.226562 -8.671875 2.875 -9.078125 C 3.53125 -9.484375 4.273438 -9.6875 5.109375 -9.6875 C 6.410156 -9.6875 7.457031 -9.238281 8.25 -8.34375 C 9.050781 -7.445312 9.453125 -6.253906 9.453125 -4.765625 L 9.453125 -4.65625 C 9.453125 -3.726562 9.273438 -2.894531 8.921875 -2.15625 C 8.566406 -1.425781 8.0625 -0.851562 7.40625 -0.4375 C 6.75 -0.03125 5.992188 0.171875 5.140625 0.171875 C 3.847656 0.171875 2.800781 -0.273438 2 -1.171875 C 1.195312 -2.066406 0.796875 -3.253906 0.796875 -4.734375 Z M 2.4375 -4.65625 C 2.4375 -3.59375 2.679688 -2.742188 3.171875 -2.109375 C 3.660156 -1.472656 4.316406 -1.15625 5.140625 -1.15625 C 5.960938 -1.15625 6.613281 -1.476562 7.09375 -2.125 C 7.582031 -2.769531 7.828125 -3.675781 7.828125 -4.84375 C 7.828125 -5.882812 7.578125 -6.726562 7.078125 -7.375 C 6.585938 -8.019531 5.929688 -8.34375 5.109375 -8.34375 C 4.304688 -8.34375 3.660156 -8.023438 3.171875 -7.390625 C 2.679688 -6.753906 2.4375 -5.84375 2.4375 -4.65625 Z M 2.4375 -4.65625 "/></g></g></g><g fill="#17191a" fill-opacity="1"><g transform="translate(168.573875, 43.333562)"><g/></g></g><g fill="#17191a" fill-opacity="1"><g transform="translate(173.028819, 43.333562)"><g/></g></g><g fill="#17191a" fill-opacity="1"><g transform="translate(177.483763, 43.333562)"><g/></g></g><g fill="#17191a" fill-opacity="1"><g transform="translate(181.938707, 43.333562)"><g/></g></g><g fill="#17191a" fill-opacity="1"><g transform="translate(186.393651, 43.333562)"><g/></g></g><g fill="#17191a" fill-opacity="1"><g transform="translate(190.848595, 43.333562)"><g/></g></g><g fill="#17191a" fill-opacity="1"><g transform="translate(195.30354, 43.333562)"><g/></g></g><g fill="#17191a" fill-opacity="1"><g transform="translate(199.758484, 43.333562)"><g/></g></g><g fill="#17191a" fill-opacity="1"><g transform="translate(204.213428, 43.333562)"><g/></g></g><g fill="#17191a" fill-opacity="1"><g transform="translate(208.668372, 43.333562)"><g/></g></g><g fill="#17191a" fill-opacity="1"><g transform="translate(213.123316, 43.333562)"><g/></g></g><g fill="#17191a" fill-opacity="1"><g transform="translate(217.57826, 43.333562)"><g/></g></g><g fill="#17191a" fill-opacity="1"><g transform="translate(222.033204, 43.333562)"><g/></g></g><g fill="#17191a" fill-opacity="1"><g transform="translate(226.488148, 43.333562)"><g/></g></g><g fill="#17191a" fill-opacity="1"><g transform="translate(230.943092, 43.333562)"><g/></g></g><g fill="#17191a" fill-opacity="1"><g transform="translate(235.398036, 43.333562)"><g/></g></g><g fill="#17191a" fill-opacity="1"><g transform="translate(239.85298, 43.333562)"><g/></g></g><g fill="#17191a" fill-opacity="1"><g transform="translate(244.307924, 43.333562)"><g/></g></g><g fill="#17191a" fill-opacity="1"><g transform="translate(248.762868, 43.333562)"><g/></g></g><g fill="#17191a" fill-opacity="1"><g transform="translate(253.217812, 43.333562)"><g/></g></g><g fill="#17191a" fill-opacity="1"><g transform="translate(257.672756, 43.333562)"><g/></g></g><g fill="#17191a" fill-opacity="1"><g transform="translate(262.1277, 43.333562)"><g/></g></g><g fill="#17191a" fill-opacity="1"><g transform="translate(266.579111, 43.333562)"><g><path d="M 3.140625 -3.609375 C 3.148438 -4.304688 3.226562 -4.851562 3.375 -5.25 C 3.519531 -5.65625 3.816406 -6.101562 4.265625 -6.59375 L 5.421875 -7.78125 C 5.910156 -8.34375 6.15625 -8.941406 6.15625 -9.578125 C 6.15625 -10.191406 5.992188 -10.671875 5.671875 -11.015625 C 5.347656 -11.367188 4.878906 -11.546875 4.265625 -11.546875 C 3.671875 -11.546875 3.191406 -11.382812 2.828125 -11.0625 C 2.460938 -10.75 2.28125 -10.328125 2.28125 -9.796875 L 0.65625 -9.796875 C 0.664062 -10.742188 1.003906 -11.507812 1.671875 -12.09375 C 2.335938 -12.675781 3.203125 -12.96875 4.265625 -12.96875 C 5.378906 -12.96875 6.242188 -12.671875 6.859375 -12.078125 C 7.472656 -11.484375 7.78125 -10.671875 7.78125 -9.640625 C 7.78125 -8.609375 7.304688 -7.59375 6.359375 -6.59375 L 5.40625 -5.65625 C 4.976562 -5.175781 4.765625 -4.492188 4.765625 -3.609375 Z M 3.0625 -0.8125 C 3.0625 -1.082031 3.140625 -1.304688 3.296875 -1.484375 C 3.460938 -1.660156 3.703125 -1.75 4.015625 -1.75 C 4.335938 -1.75 4.582031 -1.660156 4.75 -1.484375 C 4.914062 -1.304688 5 -1.082031 5 -0.8125 C 5 -0.550781 4.914062 -0.332031 4.75 -0.15625 C 4.582031 0.0078125 4.335938 0.09375 4.015625 0.09375 C 3.703125 0.09375 3.460938 0.0078125 3.296875 -0.15625 C 3.140625 -0.332031 3.0625 -0.550781 3.0625 -0.8125 Z M 3.0625 -0.8125 "/></g></g></g><g fill="#17191a" fill-opacity="1"><g transform="translate(275.075543, 43.333562)"><g/></g></g></svg>