<svg xmlns="http://www.w3.org/2000/svg" xmlns:xlink="http://www.w3.org/1999/xlink" width="500" zoomAndPan="magnify" viewBox="0 0 375 74.999997" height="100" preserveAspectRatio="xMidYMid meet" version="1.0"><defs><clipPath id="2d0c9bc99a"><path d="M 160 40 L 183 40 L 183 60.828125 L 160 60.828125 Z M 160 40 " clip-rule="nonzero"/></clipPath><clipPath id="0541708796"><path d="M 189 14.328125 L 202 14.328125 L 202 30 L 189 30 Z M 189 14.328125 " clip-rule="nonzero"/></clipPath><clipPath id="a96732d6ee"><path d="M 203 14.328125 L 215 14.328125 L 215 31 L 203 31 Z M 203 14.328125 " clip-rule="nonzero"/></clipPath><clipPath id="d533011efb"><path d="M 188 33 L 215.613281 33 L 215.613281 35 L 188 35 Z M 188 33 " clip-rule="nonzero"/></clipPath></defs><g clip-path="url(#2d0c9bc99a)"><path fill="#a8180f" d="M 180.398438 41.964844 C 178.976562 42.230469 178.445312 43.300781 178.445312 44.148438 C 178.445312 45.214844 179.289062 45.574219 179.910156 45.574219 C 181.242188 45.574219 182.171875 44.414062 182.171875 43.210938 C 182.171875 41.339844 180.042969 40.496094 178.179688 40.496094 C 175.472656 40.496094 173.964844 43.167969 173.5625 44.015625 C 172.542969 40.671875 169.792969 40.496094 168.992188 40.496094 C 164.464844 40.496094 162.070312 46.332031 162.070312 47.308594 C 162.070312 47.488281 162.246094 47.710938 162.558594 47.710938 C 162.914062 47.710938 163.003906 47.445312 163.089844 47.265625 C 164.601562 42.320312 167.574219 41.386719 168.859375 41.386719 C 170.855469 41.386719 171.257812 43.257812 171.257812 44.324219 C 171.257812 45.304688 170.992188 46.332031 170.457031 48.46875 L 168.949219 54.570312 C 168.28125 57.242188 166.996094 59.695312 164.644531 59.695312 C 164.421875 59.695312 163.3125 59.695312 162.378906 59.113281 C 163.976562 58.804688 164.332031 57.464844 164.332031 56.933594 C 164.332031 56.042969 163.667969 55.507812 162.824219 55.507812 C 161.757812 55.507812 160.605469 56.441406 160.605469 57.867188 C 160.605469 59.738281 162.691406 60.585938 164.601562 60.585938 C 166.730469 60.585938 168.238281 58.890625 169.171875 57.066406 C 169.878906 59.695312 172.101562 60.585938 173.742188 60.585938 C 178.269531 60.585938 180.664062 54.75 180.664062 53.769531 C 180.664062 53.546875 180.488281 53.367188 180.222656 53.367188 C 179.820312 53.367188 179.777344 53.589844 179.644531 53.949219 C 178.445312 57.867188 175.871094 59.695312 173.875 59.695312 C 172.320312 59.695312 171.476562 58.535156 171.476562 56.710938 C 171.476562 55.730469 171.65625 55.015625 172.367188 52.078125 L 173.917969 46.019531 C 174.585938 43.347656 176.09375 41.386719 178.136719 41.386719 C 178.222656 41.386719 179.464844 41.386719 180.398438 41.964844 Z M 180.398438 41.964844 " fill-opacity="1" fill-rule="nonzero"/></g><g clip-path="url(#0541708796)"><path fill="#a8180f" d="M 201.011719 25.953125 L 201.011719 25.082031 L 198.414062 25.082031 L 198.414062 15.238281 C 198.414062 14.726562 198.414062 14.570312 197.859375 14.570312 C 197.460938 14.570312 197.414062 14.636719 197.214844 14.90625 L 189.515625 25.082031 L 189.515625 25.953125 L 196.417969 25.953125 L 196.417969 27.734375 C 196.417969 28.46875 196.417969 28.734375 194.554688 28.734375 L 193.910156 28.734375 L 193.910156 29.605469 C 194.355469 29.582031 196.441406 29.515625 197.414062 29.515625 C 198.390625 29.515625 200.476562 29.582031 200.921875 29.605469 L 200.921875 28.734375 L 200.277344 28.734375 C 198.414062 28.734375 198.414062 28.46875 198.414062 27.734375 L 198.414062 25.953125 Z M 196.574219 17 L 196.574219 25.082031 L 190.46875 25.082031 Z M 196.574219 17 " fill-opacity="1" fill-rule="nonzero"/></g><g clip-path="url(#a96732d6ee)"><path fill="#a8180f" d="M 208.578125 22.210938 C 210.464844 22.210938 211.730469 23.480469 211.730469 25.75 C 211.730469 28.203125 210.265625 29.269531 208.644531 29.269531 C 208.046875 29.269531 205.761719 29.136719 204.761719 27.84375 C 205.628906 27.757812 205.984375 27.175781 205.984375 26.574219 C 205.984375 25.816406 205.449219 25.304688 204.71875 25.304688 C 204.121094 25.304688 203.453125 25.683594 203.453125 26.621094 C 203.453125 28.824219 205.894531 30.070312 208.710938 30.070312 C 211.996094 30.070312 214.195312 27.957031 214.195312 25.75 C 214.195312 24.125 212.949219 22.410156 210.308594 21.742188 C 212.0625 21.164062 213.484375 19.738281 213.484375 17.910156 C 213.484375 16.128906 211.398438 14.792969 208.734375 14.792969 C 206.140625 14.792969 204.164062 15.996094 204.164062 17.824219 C 204.164062 18.78125 204.894531 19.046875 205.339844 19.046875 C 205.917969 19.046875 206.515625 18.644531 206.515625 17.867188 C 206.515625 17.175781 206.027344 16.777344 205.429688 16.6875 C 206.472656 15.527344 208.492188 15.527344 208.691406 15.527344 C 209.824219 15.527344 211.242188 16.0625 211.242188 17.910156 C 211.242188 19.136719 210.554688 21.273438 208.335938 21.40625 C 207.9375 21.429688 207.335938 21.476562 207.136719 21.476562 C 206.914062 21.496094 206.671875 21.519531 206.671875 21.855469 C 206.671875 22.210938 206.914062 22.210938 207.292969 22.210938 Z M 208.578125 22.210938 " fill-opacity="1" fill-rule="nonzero"/></g><g clip-path="url(#d533011efb)"><path fill="#a8180f" d="M 188.496094 33.65625 L 215.617188 33.65625 L 215.617188 34.992188 L 188.496094 34.992188 Z M 188.496094 33.65625 " fill-opacity="1" fill-rule="nonzero"/></g><path fill="#a8180f" d="M 201.796875 45.996094 C 203.683594 45.996094 204.949219 47.265625 204.949219 49.539062 C 204.949219 51.988281 203.484375 53.058594 201.863281 53.058594 C 201.265625 53.058594 198.980469 52.921875 197.980469 51.632812 C 198.847656 51.542969 199.203125 50.964844 199.203125 50.363281 C 199.203125 49.605469 198.667969 49.09375 197.9375 49.09375 C 197.335938 49.09375 196.671875 49.472656 196.671875 50.40625 C 196.671875 52.613281 199.113281 53.859375 201.929688 53.859375 C 205.214844 53.859375 207.410156 51.742188 207.410156 49.539062 C 207.410156 47.914062 206.167969 46.199219 203.527344 45.527344 C 205.28125 44.949219 206.703125 43.523438 206.703125 41.699219 C 206.703125 39.917969 204.617188 38.582031 201.953125 38.582031 C 199.355469 38.582031 197.382812 39.78125 197.382812 41.609375 C 197.382812 42.566406 198.113281 42.835938 198.558594 42.835938 C 199.136719 42.835938 199.734375 42.433594 199.734375 41.652344 C 199.734375 40.964844 199.246094 40.5625 198.648438 40.472656 C 199.691406 39.316406 201.707031 39.316406 201.910156 39.316406 C 203.039062 39.316406 204.460938 39.851562 204.460938 41.699219 C 204.460938 42.921875 203.773438 45.0625 201.554688 45.195312 C 201.152344 45.21875 200.554688 45.261719 200.355469 45.261719 C 200.132812 45.285156 199.890625 45.304688 199.890625 45.640625 C 199.890625 45.996094 200.132812 45.996094 200.511719 45.996094 Z M 201.796875 45.996094 " fill-opacity="1" fill-rule="nonzero"/></svg>