<svg xmlns="http://www.w3.org/2000/svg" xmlns:xlink="http://www.w3.org/1999/xlink" width="500" zoomAndPan="magnify" viewBox="0 0 375 74.999997" height="100" preserveAspectRatio="xMidYMid meet" version="1.0"><defs><g/><clipPath id="ee96fc9be1"><path d="M 133 10.347656 L 142 10.347656 L 142 22 L 133 22 Z M 133 10.347656 " clip-rule="nonzero"/></clipPath><clipPath id="dba834c7c6"><path d="M 154 10.347656 L 160 10.347656 L 160 22 L 154 22 Z M 154 10.347656 " clip-rule="nonzero"/></clipPath><clipPath id="15357b2da5"><path d="M 162 10.347656 L 170 10.347656 L 170 22 L 162 22 Z M 162 10.347656 " clip-rule="nonzero"/></clipPath><clipPath id="de5537b812"><path d="M 107.972656 40 L 170.972656 40 L 170.972656 42 L 107.972656 42 Z M 107.972656 40 " clip-rule="nonzero"/></clipPath><clipPath id="0162a149a9"><path d="M 108 47 L 119 47 L 119 64.347656 L 108 64.347656 Z M 108 47 " clip-rule="nonzero"/></clipPath><clipPath id="288d4f6698"><path d="M 120 52 L 132 52 L 132 64.347656 L 120 64.347656 Z M 120 52 " clip-rule="nonzero"/></clipPath><clipPath id="ddf4bb16ff"><path d="M 152 46 L 161 46 L 161 64.347656 L 152 64.347656 Z M 152 46 " clip-rule="nonzero"/></clipPath></defs><path fill="#17191a" d="M 118.777344 26.226562 L 118.238281 26.226562 C 118.164062 26.644531 117.96875 27.992188 117.722656 28.386719 C 117.550781 28.609375 116.148438 28.609375 115.414062 28.609375 L 110.871094 28.609375 C 111.535156 28.042969 113.03125 26.472656 113.671875 25.882812 C 117.402344 22.445312 118.777344 21.167969 118.777344 18.738281 C 118.777344 15.914062 116.542969 14.023438 113.695312 14.023438 C 110.847656 14.023438 109.175781 16.453125 109.175781 18.566406 C 109.175781 19.816406 110.257812 19.816406 110.332031 19.816406 C 110.847656 19.816406 111.484375 19.449219 111.484375 18.664062 C 111.484375 17.976562 111.019531 17.507812 110.332031 17.507812 C 110.109375 17.507812 110.0625 17.507812 109.988281 17.535156 C 110.453125 15.863281 111.78125 14.734375 113.375 14.734375 C 115.460938 14.734375 116.738281 16.476562 116.738281 18.738281 C 116.738281 20.824219 115.535156 22.640625 114.136719 24.210938 L 109.175781 29.761719 L 109.175781 30.351562 L 118.140625 30.351562 Z M 118.777344 26.226562 " fill-opacity="1" fill-rule="nonzero"/><path fill="#17191a" d="M 127.386719 27.429688 C 127.261719 27.847656 127.261719 27.894531 126.917969 28.363281 C 126.378906 29.050781 125.296875 30.105469 124.144531 30.105469 C 123.136719 30.105469 122.574219 29.195312 122.574219 27.75 C 122.574219 26.398438 123.335938 23.648438 123.800781 22.617188 C 124.636719 20.898438 125.789062 20.015625 126.746094 20.015625 C 128.367188 20.015625 128.6875 22.027344 128.6875 22.222656 C 128.6875 22.25 128.613281 22.566406 128.589844 22.617188 Z M 128.957031 21.144531 C 128.6875 20.503906 128.023438 19.523438 126.746094 19.523438 C 123.972656 19.523438 120.976562 23.109375 120.976562 26.742188 C 120.976562 29.171875 122.402344 30.597656 124.070312 30.597656 C 125.421875 30.597656 126.574219 29.539062 127.261719 28.730469 C 127.507812 30.179688 128.664062 30.597656 129.398438 30.597656 C 130.136719 30.597656 130.726562 30.15625 131.167969 29.269531 C 131.558594 28.4375 131.902344 26.9375 131.902344 26.839844 C 131.902344 26.71875 131.804688 26.617188 131.660156 26.617188 C 131.4375 26.617188 131.414062 26.742188 131.316406 27.109375 C 130.945312 28.558594 130.480469 30.105469 129.472656 30.105469 C 128.761719 30.105469 128.710938 29.46875 128.710938 28.976562 C 128.710938 28.410156 128.785156 28.140625 129.007812 27.183594 C 129.179688 26.570312 129.300781 26.03125 129.496094 25.316406 C 130.40625 21.632812 130.628906 20.75 130.628906 20.601562 C 130.628906 20.257812 130.355469 19.988281 129.988281 19.988281 C 129.203125 19.988281 129.007812 20.847656 128.957031 21.144531 Z M 128.957031 21.144531 " fill-opacity="1" fill-rule="nonzero"/><g clip-path="url(#ee96fc9be1)"><path fill="#17191a" d="M 140.898438 11.472656 C 141.046875 11.292969 141.046875 11.261719 141.046875 10.898438 L 136.886719 10.898438 C 136.480469 10.898438 135.972656 10.882812 135.5625 10.851562 C 134.710938 10.785156 134.695312 10.636719 134.644531 10.375 L 134.136719 10.375 L 133.582031 13.832031 L 134.089844 13.832031 C 134.121094 13.585938 134.300781 12.457031 134.53125 12.324219 C 134.710938 12.242188 135.9375 12.242188 136.183594 12.242188 L 139.65625 12.242188 L 137.96875 14.5 C 136.101562 16.988281 135.710938 19.574219 135.710938 20.867188 C 135.710938 21.03125 135.710938 21.785156 136.480469 21.785156 C 137.25 21.785156 137.25 21.046875 137.25 20.851562 L 137.25 20.066406 C 137.25 17.710938 137.640625 15.777344 138.445312 14.714844 Z M 140.898438 11.472656 " fill-opacity="1" fill-rule="nonzero"/></g><path fill="#17191a" d="M 148.007812 13.925781 C 148.03125 13.828125 148.082031 13.679688 148.082031 13.554688 C 148.082031 13.3125 147.835938 13.3125 147.785156 13.3125 C 147.761719 13.3125 146.878906 13.382812 146.4375 13.433594 C 146.019531 13.457031 145.648438 13.507812 145.207031 13.53125 C 144.617188 13.582031 144.445312 13.605469 144.445312 14.046875 C 144.445312 14.292969 144.691406 14.292969 144.9375 14.292969 C 146.191406 14.292969 146.191406 14.515625 146.191406 14.757812 C 146.191406 14.929688 145.992188 15.644531 145.894531 16.085938 L 145.304688 18.441406 C 145.0625 19.425781 143.660156 25 143.5625 25.441406 C 143.441406 26.054688 143.441406 26.472656 143.441406 26.789062 C 143.441406 29.296875 144.839844 30.597656 146.4375 30.597656 C 149.285156 30.597656 152.230469 26.9375 152.230469 23.378906 C 152.230469 21.117188 150.953125 19.523438 149.113281 19.523438 C 147.835938 19.523438 146.679688 20.578125 146.214844 21.070312 Z M 146.460938 30.105469 C 145.675781 30.105469 144.816406 29.515625 144.816406 27.601562 C 144.816406 26.789062 144.890625 26.324219 145.332031 24.605469 C 145.40625 24.285156 145.796875 22.714844 145.894531 22.394531 C 145.945312 22.199219 147.394531 20.015625 149.0625 20.015625 C 150.144531 20.015625 150.632812 21.09375 150.632812 22.371094 C 150.632812 23.550781 149.945312 26.324219 149.332031 27.601562 C 148.71875 28.925781 147.589844 30.105469 146.460938 30.105469 Z M 146.460938 30.105469 " fill-opacity="1" fill-rule="nonzero"/><g clip-path="url(#dba834c7c6)"><path fill="#17191a" d="M 157.699219 11.015625 C 157.699219 10.574219 157.664062 10.554688 157.222656 10.554688 C 156.550781 11.210938 155.683594 11.605469 154.128906 11.605469 L 154.128906 12.144531 C 154.570312 12.144531 155.453125 12.144531 156.402344 11.703125 L 156.402344 20.097656 C 156.402344 20.703125 156.355469 20.902344 154.800781 20.902344 L 154.226562 20.902344 L 154.226562 21.441406 C 154.898438 21.390625 156.304688 21.390625 157.042969 21.390625 C 157.777344 21.390625 159.203125 21.390625 159.875 21.441406 L 159.875 20.902344 L 159.300781 20.902344 C 157.746094 20.902344 157.699219 20.703125 157.699219 20.097656 Z M 157.699219 11.015625 " fill-opacity="1" fill-rule="nonzero"/></g><g clip-path="url(#15357b2da5)"><path fill="#17191a" d="M 165.871094 18.101562 C 166.132812 17.855469 166.820312 17.316406 167.082031 17.085938 C 168.097656 16.15625 169.0625 15.253906 169.0625 13.765625 C 169.0625 11.816406 167.425781 10.554688 165.378906 10.554688 C 163.414062 10.554688 162.121094 12.046875 162.121094 13.503906 C 162.121094 14.304688 162.757812 14.417969 162.988281 14.417969 C 163.332031 14.417969 163.839844 14.175781 163.839844 13.550781 C 163.839844 12.699219 163.019531 12.699219 162.824219 12.699219 C 163.300781 11.503906 164.394531 11.097656 165.199219 11.097656 C 166.722656 11.097656 167.507812 12.390625 167.507812 13.765625 C 167.507812 15.46875 166.3125 16.710938 164.378906 18.691406 L 162.316406 20.820312 C 162.121094 21 162.121094 21.03125 162.121094 21.441406 L 168.585938 21.441406 L 169.0625 18.511719 L 168.554688 18.511719 C 168.503906 18.839844 168.375 19.65625 168.179688 19.96875 C 168.078125 20.097656 166.835938 20.097656 166.574219 20.097656 L 163.660156 20.097656 Z M 165.871094 18.101562 " fill-opacity="1" fill-rule="nonzero"/></g><g clip-path="url(#de5537b812)"><path fill="#17191a" d="M 107.972656 40.332031 L 170.972656 40.332031 L 170.972656 41.3125 L 107.972656 41.3125 Z M 107.972656 40.332031 " fill-opacity="1" fill-rule="nonzero"/></g><g clip-path="url(#0162a149a9)"><path fill="#17191a" d="M 110.992188 55.257812 C 110.992188 49.046875 114.015625 48.0625 115.339844 48.0625 C 116.222656 48.0625 117.109375 48.335938 117.574219 49.070312 C 117.28125 49.070312 116.347656 49.070312 116.347656 50.078125 C 116.347656 50.617188 116.714844 51.085938 117.351562 51.085938 C 117.96875 51.085938 118.382812 50.714844 118.382812 50.003906 C 118.382812 48.726562 117.453125 47.476562 115.316406 47.476562 C 112.222656 47.476562 108.980469 50.640625 108.980469 56.042969 C 108.980469 62.796875 111.925781 64.316406 114.015625 64.316406 C 116.691406 64.316406 118.972656 61.984375 118.972656 58.792969 C 118.972656 55.527344 116.691406 53.34375 114.234375 53.34375 C 112.050781 53.34375 111.238281 55.234375 110.992188 55.921875 Z M 114.015625 63.65625 C 112.46875 63.65625 111.730469 62.28125 111.507812 61.765625 C 111.289062 61.125 111.042969 59.921875 111.042969 58.203125 C 111.042969 56.265625 111.925781 53.835938 114.136719 53.835938 C 115.488281 53.835938 116.199219 54.742188 116.566406 55.578125 C 116.960938 56.484375 116.960938 57.714844 116.960938 58.769531 C 116.960938 60.019531 116.960938 61.125 116.492188 62.058594 C 115.878906 63.238281 114.996094 63.65625 114.015625 63.65625 Z M 114.015625 63.65625 " fill-opacity="1" fill-rule="nonzero"/></g><g clip-path="url(#288d4f6698)"><path fill="#17191a" d="M 127.386719 60.878906 C 127.261719 61.296875 127.261719 61.347656 126.917969 61.8125 C 126.378906 62.5 125.296875 63.558594 124.144531 63.558594 C 123.136719 63.558594 122.574219 62.648438 122.574219 61.199219 C 122.574219 59.847656 123.335938 57.101562 123.800781 56.070312 C 124.636719 54.351562 125.789062 53.464844 126.746094 53.464844 C 128.367188 53.464844 128.6875 55.480469 128.6875 55.675781 C 128.6875 55.699219 128.613281 56.019531 128.589844 56.070312 Z M 128.957031 54.59375 C 128.6875 53.957031 128.023438 52.976562 126.746094 52.976562 C 123.972656 52.976562 120.976562 56.558594 120.976562 60.191406 C 120.976562 62.625 122.402344 64.046875 124.070312 64.046875 C 125.421875 64.046875 126.574219 62.992188 127.261719 62.183594 C 127.507812 63.628906 128.664062 64.046875 129.398438 64.046875 C 130.136719 64.046875 130.726562 63.605469 131.167969 62.722656 C 131.558594 61.886719 131.902344 60.390625 131.902344 60.292969 C 131.902344 60.167969 131.804688 60.070312 131.660156 60.070312 C 131.4375 60.070312 131.414062 60.191406 131.316406 60.5625 C 130.945312 62.011719 130.480469 63.558594 129.472656 63.558594 C 128.761719 63.558594 128.710938 62.917969 128.710938 62.425781 C 128.710938 61.863281 128.785156 61.59375 129.007812 60.636719 C 129.179688 60.019531 129.300781 59.480469 129.496094 58.769531 C 130.40625 55.085938 130.628906 54.203125 130.628906 54.054688 C 130.628906 53.710938 130.355469 53.441406 129.988281 53.441406 C 129.203125 53.441406 129.007812 54.300781 128.957031 54.59375 Z M 128.957031 54.59375 " fill-opacity="1" fill-rule="nonzero"/></g><path fill="#17191a" d="M 137.757812 46.285156 C 137.757812 45.84375 137.722656 45.824219 137.28125 45.824219 C 136.609375 46.480469 135.742188 46.875 134.1875 46.875 L 134.1875 47.414062 C 134.628906 47.414062 135.511719 47.414062 136.464844 46.972656 L 136.464844 55.367188 C 136.464844 55.972656 136.414062 56.171875 134.859375 56.171875 L 134.285156 56.171875 L 134.285156 56.710938 C 134.957031 56.660156 136.363281 56.660156 137.101562 56.660156 C 137.839844 56.660156 139.261719 56.660156 139.933594 56.710938 L 139.933594 56.171875 L 139.359375 56.171875 C 137.804688 56.171875 137.757812 55.972656 137.757812 55.367188 Z M 137.757812 46.285156 " fill-opacity="1" fill-rule="nonzero"/><path fill="#17191a" d="M 146.453125 46.285156 C 146.453125 45.84375 146.417969 45.824219 145.976562 45.824219 C 145.304688 46.480469 144.4375 46.875 142.882812 46.875 L 142.882812 47.414062 C 143.324219 47.414062 144.210938 47.414062 145.160156 46.972656 L 145.160156 55.367188 C 145.160156 55.972656 145.109375 56.171875 143.554688 56.171875 L 142.980469 56.171875 L 142.980469 56.710938 C 143.652344 56.660156 145.0625 56.660156 145.796875 56.660156 C 146.535156 56.660156 147.957031 56.660156 148.628906 56.710938 L 148.628906 56.171875 L 148.054688 56.171875 C 146.5 56.171875 146.453125 55.972656 146.453125 55.367188 Z M 146.453125 46.285156 " fill-opacity="1" fill-rule="nonzero"/><g clip-path="url(#ddf4bb16ff)"><path fill="#17191a" d="M 156.703125 47.375 C 156.726562 47.277344 156.777344 47.132812 156.777344 47.007812 C 156.777344 46.761719 156.53125 46.761719 156.480469 46.761719 C 156.457031 46.761719 155.574219 46.835938 155.132812 46.886719 C 154.714844 46.910156 154.347656 46.960938 153.902344 46.984375 C 153.316406 47.03125 153.144531 47.058594 153.144531 47.5 C 153.144531 47.746094 153.386719 47.746094 153.632812 47.746094 C 154.886719 47.746094 154.886719 47.964844 154.886719 48.210938 C 154.886719 48.382812 154.691406 49.09375 154.589844 49.539062 L 154.003906 51.894531 C 153.757812 52.875 152.355469 58.449219 152.257812 58.890625 C 152.136719 59.503906 152.136719 59.921875 152.136719 60.242188 C 152.136719 62.746094 153.535156 64.046875 155.132812 64.046875 C 157.980469 64.046875 160.925781 60.390625 160.925781 56.828125 C 160.925781 54.570312 159.648438 52.976562 157.808594 52.976562 C 156.53125 52.976562 155.378906 54.03125 154.910156 54.523438 Z M 155.15625 63.558594 C 154.371094 63.558594 153.511719 62.96875 153.511719 61.050781 C 153.511719 60.242188 153.585938 59.777344 154.027344 58.058594 C 154.101562 57.738281 154.492188 56.167969 154.589844 55.847656 C 154.640625 55.652344 156.089844 53.464844 157.757812 53.464844 C 158.839844 53.464844 159.332031 54.546875 159.332031 55.824219 C 159.332031 57 158.644531 59.777344 158.027344 61.050781 C 157.414062 62.378906 156.285156 63.558594 155.15625 63.558594 Z M 155.15625 63.558594 " fill-opacity="1" fill-rule="nonzero"/></g><path fill="#17191a" d="M 165.394531 51.242188 C 166.6875 51.242188 167.507812 52.191406 167.507812 53.910156 C 167.507812 55.957031 166.34375 56.5625 165.476562 56.5625 C 164.578125 56.5625 163.347656 56.234375 162.777344 55.367188 C 163.363281 55.367188 163.773438 54.992188 163.773438 54.453125 C 163.773438 53.929688 163.398438 53.550781 162.875 53.550781 C 162.433594 53.550781 161.972656 53.832031 161.972656 54.484375 C 161.972656 56.039062 163.644531 57.054688 165.507812 57.054688 C 167.6875 57.054688 169.210938 55.546875 169.210938 53.910156 C 169.210938 52.554688 168.128906 51.308594 166.460938 50.949219 C 167.753906 50.492188 168.71875 49.378906 168.71875 48.066406 C 168.71875 46.757812 167.246094 45.824219 165.542969 45.824219 C 163.789062 45.824219 162.464844 46.773438 162.464844 48.019531 C 162.464844 48.625 162.875 48.886719 163.300781 48.886719 C 163.808594 48.886719 164.132812 48.527344 164.132812 48.050781 C 164.132812 47.445312 163.609375 47.21875 163.25 47.199219 C 163.9375 46.300781 165.199219 46.25 165.492188 46.25 C 165.917969 46.25 167.164062 46.382812 167.164062 48.066406 C 167.164062 49.214844 166.6875 49.902344 166.460938 50.164062 C 165.96875 50.671875 165.589844 50.703125 164.59375 50.769531 C 164.28125 50.785156 164.152344 50.800781 164.152344 51.015625 C 164.152344 51.242188 164.296875 51.242188 164.578125 51.242188 Z M 165.394531 51.242188 " fill-opacity="1" fill-rule="nonzero"/><g fill="#17191a" fill-opacity="1"><g transform="translate(15.000006, 43.333573)"><g><path d="M 9.453125 0 L 1.0625 0 L 1.0625 -1.171875 L 5.5 -6.09375 C 6.15625 -6.832031 6.601562 -7.4375 6.84375 -7.90625 C 7.09375 -8.375 7.21875 -8.859375 7.21875 -9.359375 C 7.21875 -10.023438 7.015625 -10.570312 6.609375 -11 C 6.210938 -11.425781 5.675781 -11.640625 5 -11.640625 C 4.1875 -11.640625 3.554688 -11.40625 3.109375 -10.9375 C 2.660156 -10.476562 2.4375 -9.84375 2.4375 -9.03125 L 0.8125 -9.03125 C 0.8125 -10.207031 1.191406 -11.15625 1.953125 -11.875 C 2.710938 -12.601562 3.726562 -12.96875 5 -12.96875 C 6.1875 -12.96875 7.125 -12.65625 7.8125 -12.03125 C 8.507812 -11.40625 8.859375 -10.578125 8.859375 -9.546875 C 8.859375 -8.285156 8.054688 -6.785156 6.453125 -5.046875 L 3.03125 -1.328125 L 9.453125 -1.328125 Z M 9.453125 0 "/></g></g></g><g fill="#17191a" fill-opacity="1"><g transform="translate(25.104909, 43.333573)"><g><path d="M 4.984375 -5.109375 C 4.984375 -3.796875 4.8125 -2.539062 4.46875 -1.34375 C 4.125 -0.144531 3.597656 0.957031 2.890625 1.96875 C 2.191406 2.976562 1.453125 3.695312 0.671875 4.125 L 0.328125 3.140625 C 1.234375 2.441406 1.957031 1.367188 2.5 -0.078125 C 3.050781 -1.535156 3.332031 -3.15625 3.34375 -4.9375 L 3.34375 -5.21875 C 3.34375 -6.445312 3.210938 -7.585938 2.953125 -8.640625 C 2.703125 -9.703125 2.347656 -10.648438 1.890625 -11.484375 C 1.429688 -12.328125 0.910156 -12.984375 0.328125 -13.453125 L 0.671875 -14.4375 C 1.453125 -14.007812 2.191406 -13.296875 2.890625 -12.296875 C 3.585938 -11.296875 4.109375 -10.191406 4.453125 -8.984375 C 4.804688 -7.773438 4.984375 -6.484375 4.984375 -5.109375 Z M 4.984375 -5.109375 "/></g></g></g><g fill="#17191a" fill-opacity="1"><g transform="translate(31.361161, 43.333573)"><g/></g></g><g fill="#17191a" fill-opacity="1"><g transform="translate(35.816106, 43.333573)"><g><path d="M 4.734375 -5.953125 L 3.171875 -4.328125 L 3.171875 0 L 1.484375 0 L 1.484375 -12.796875 L 3.171875 -12.796875 L 3.171875 -6.46875 L 8.859375 -12.796875 L 10.90625 -12.796875 L 5.859375 -7.140625 L 11.296875 0 L 9.265625 0 Z M 4.734375 -5.953125 "/></g></g></g><g fill="#17191a" fill-opacity="1"><g transform="translate(47.098449, 43.333573)"><g><path d="M 0.796875 -4.84375 C 0.796875 -5.769531 0.976562 -6.601562 1.34375 -7.34375 C 1.71875 -8.09375 2.226562 -8.671875 2.875 -9.078125 C 3.53125 -9.484375 4.273438 -9.6875 5.109375 -9.6875 C 6.410156 -9.6875 7.457031 -9.238281 8.25 -8.34375 C 9.050781 -7.445312 9.453125 -6.253906 9.453125 -4.765625 L 9.453125 -4.65625 C 9.453125 -3.726562 9.273438 -2.894531 8.921875 -2.15625 C 8.566406 -1.425781 8.0625 -0.851562 7.40625 -0.4375 C 6.75 -0.03125 5.992188 0.171875 5.140625 0.171875 C 3.847656 0.171875 2.800781 -0.273438 2 -1.171875 C 1.195312 -2.066406 0.796875 -3.253906 0.796875 -4.734375 Z M 2.4375 -4.65625 C 2.4375 -3.59375 2.679688 -2.742188 3.171875 -2.109375 C 3.660156 -1.472656 4.316406 -1.15625 5.140625 -1.15625 C 5.960938 -1.15625 6.613281 -1.476562 7.09375 -2.125 C 7.582031 -2.769531 7.828125 -3.675781 7.828125 -4.84375 C 7.828125 -5.882812 7.578125 -6.726562 7.078125 -7.375 C 6.585938 -8.019531 5.929688 -8.34375 5.109375 -8.34375 C 4.304688 -8.34375 3.660156 -8.023438 3.171875 -7.390625 C 2.679688 -6.753906 2.4375 -5.84375 2.4375 -4.65625 Z M 2.4375 -4.65625 "/></g></g></g><g fill="#17191a" fill-opacity="1"><g transform="translate(57.361515, 43.333573)"><g><path d="M 3 0 L 1.375 0 L 1.375 -13.5 L 3 -13.5 Z M 3 0 "/></g></g></g><g fill="#17191a" fill-opacity="1"><g transform="translate(61.728591, 43.333573)"><g><path d="M 3 0 L 1.375 0 L 1.375 -9.515625 L 3 -9.515625 Z M 1.234375 -12.03125 C 1.234375 -12.289062 1.3125 -12.507812 1.46875 -12.6875 C 1.632812 -12.875 1.875 -12.96875 2.1875 -12.96875 C 2.507812 -12.96875 2.753906 -12.875 2.921875 -12.6875 C 3.085938 -12.507812 3.171875 -12.289062 3.171875 -12.03125 C 3.171875 -11.769531 3.085938 -11.550781 2.921875 -11.375 C 2.753906 -11.195312 2.507812 -11.109375 2.1875 -11.109375 C 1.875 -11.109375 1.632812 -11.195312 1.46875 -11.375 C 1.3125 -11.550781 1.234375 -11.769531 1.234375 -12.03125 Z M 1.234375 -12.03125 "/></g></g></g><g fill="#17191a" fill-opacity="1"><g transform="translate(66.095666, 43.333573)"><g><path d="M 3.890625 -4.40625 L 2.859375 -3.34375 L 2.859375 0 L 1.234375 0 L 1.234375 -13.5 L 2.859375 -13.5 L 2.859375 -5.328125 L 3.734375 -6.375 L 6.703125 -9.515625 L 8.671875 -9.515625 L 4.96875 -5.53125 L 9.109375 0 L 7.203125 0 Z M 3.890625 -4.40625 "/></g></g></g><g fill="#17191a" fill-opacity="1"><g transform="translate(75.216439, 43.333573)"><g><path d="M 0.796875 -4.84375 C 0.796875 -5.769531 0.976562 -6.601562 1.34375 -7.34375 C 1.71875 -8.09375 2.226562 -8.671875 2.875 -9.078125 C 3.53125 -9.484375 4.273438 -9.6875 5.109375 -9.6875 C 6.410156 -9.6875 7.457031 -9.238281 8.25 -8.34375 C 9.050781 -7.445312 9.453125 -6.253906 9.453125 -4.765625 L 9.453125 -4.65625 C 9.453125 -3.726562 9.273438 -2.894531 8.921875 -2.15625 C 8.566406 -1.425781 8.0625 -0.851562 7.40625 -0.4375 C 6.75 -0.03125 5.992188 0.171875 5.140625 0.171875 C 3.847656 0.171875 2.800781 -0.273438 2 -1.171875 C 1.195312 -2.066406 0.796875 -3.253906 0.796875 -4.734375 Z M 2.4375 -4.65625 C 2.4375 -3.59375 2.679688 -2.742188 3.171875 -2.109375 C 3.660156 -1.472656 4.316406 -1.15625 5.140625 -1.15625 C 5.960938 -1.15625 6.613281 -1.476562 7.09375 -2.125 C 7.582031 -2.769531 7.828125 -3.675781 7.828125 -4.84375 C 7.828125 -5.882812 7.578125 -6.726562 7.078125 -7.375 C 6.585938 -8.019531 5.929688 -8.34375 5.109375 -8.34375 C 4.304688 -8.34375 3.660156 -8.023438 3.171875 -7.390625 C 2.679688 -6.753906 2.4375 -5.84375 2.4375 -4.65625 Z M 2.4375 -4.65625 "/></g></g></g><g fill="#17191a" fill-opacity="1"><g transform="translate(85.479505, 43.333573)"><g/></g></g><g fill="#17191a" fill-opacity="1"><g transform="translate(89.934449, 43.333573)"><g><path d="M 2.90625 -9.515625 L 2.90625 1.09375 C 2.90625 2.925781 2.078125 3.84375 0.421875 3.84375 C 0.0664062 3.84375 -0.265625 3.789062 -0.578125 3.6875 L -0.578125 2.375 C -0.390625 2.425781 -0.140625 2.453125 0.171875 2.453125 C 0.535156 2.453125 0.8125 2.351562 1 2.15625 C 1.1875 1.957031 1.28125 1.617188 1.28125 1.140625 L 1.28125 -9.515625 Z M 1.109375 -12.03125 C 1.109375 -12.289062 1.1875 -12.507812 1.34375 -12.6875 C 1.507812 -12.875 1.75 -12.96875 2.0625 -12.96875 C 2.382812 -12.96875 2.625 -12.875 2.78125 -12.6875 C 2.945312 -12.507812 3.03125 -12.289062 3.03125 -12.03125 C 3.03125 -11.769531 2.945312 -11.550781 2.78125 -11.375 C 2.625 -11.195312 2.382812 -11.109375 2.0625 -11.109375 C 1.75 -11.109375 1.507812 -11.195312 1.34375 -11.375 C 1.1875 -11.550781 1.109375 -11.769531 1.109375 -12.03125 Z M 1.109375 -12.03125 "/></g></g></g><g fill="#17191a" fill-opacity="1"><g transform="translate(94.231229, 43.333573)"><g><path d="M 5.171875 0.171875 C 3.890625 0.171875 2.84375 -0.25 2.03125 -1.09375 C 1.21875 -1.9375 0.8125 -3.066406 0.8125 -4.484375 L 0.8125 -4.796875 C 0.8125 -5.734375 0.992188 -6.570312 1.359375 -7.3125 C 1.722656 -8.050781 2.226562 -8.628906 2.875 -9.046875 C 3.519531 -9.472656 4.21875 -9.6875 4.96875 -9.6875 C 6.207031 -9.6875 7.171875 -9.28125 7.859375 -8.46875 C 8.546875 -7.65625 8.890625 -6.488281 8.890625 -4.96875 L 8.890625 -4.296875 L 2.4375 -4.296875 C 2.46875 -3.359375 2.742188 -2.597656 3.265625 -2.015625 C 3.785156 -1.441406 4.453125 -1.15625 5.265625 -1.15625 C 5.835938 -1.15625 6.320312 -1.269531 6.71875 -1.5 C 7.125 -1.738281 7.472656 -2.050781 7.765625 -2.4375 L 8.765625 -1.65625 C 7.960938 -0.4375 6.765625 0.171875 5.171875 0.171875 Z M 4.96875 -8.34375 C 4.3125 -8.34375 3.757812 -8.101562 3.3125 -7.625 C 2.875 -7.15625 2.601562 -6.488281 2.5 -5.625 L 7.265625 -5.625 L 7.265625 -5.75 C 7.210938 -6.570312 6.988281 -7.207031 6.59375 -7.65625 C 6.195312 -8.113281 5.65625 -8.34375 4.96875 -8.34375 Z M 4.96875 -8.34375 "/></g></g></g><g fill="#17191a" fill-opacity="1"><g transform="translate(103.760079, 43.333573)"><g/></g></g><g fill="#17191a" fill-opacity="1"><g transform="translate(108.215023, 43.333573)"><g/></g></g><g fill="#17191a" fill-opacity="1"><g transform="translate(112.669967, 43.333573)"><g/></g></g><g fill="#17191a" fill-opacity="1"><g transform="translate(117.124912, 43.333573)"><g/></g></g><g fill="#17191a" fill-opacity="1"><g transform="translate(121.579856, 43.333573)"><g/></g></g><g fill="#17191a" fill-opacity="1"><g transform="translate(126.0348, 43.333573)"><g/></g></g><g fill="#17191a" fill-opacity="1"><g transform="translate(130.489744, 43.333573)"><g/></g></g><g fill="#17191a" fill-opacity="1"><g transform="translate(134.944688, 43.333573)"><g/></g></g><g fill="#17191a" fill-opacity="1"><g transform="translate(139.399632, 43.333573)"><g/></g></g><g fill="#17191a" fill-opacity="1"><g transform="translate(143.854576, 43.333573)"><g/></g></g><g fill="#17191a" fill-opacity="1"><g transform="translate(148.30952, 43.333573)"><g/></g></g><g fill="#17191a" fill-opacity="1"><g transform="translate(152.764464, 43.333573)"><g/></g></g><g fill="#17191a" fill-opacity="1"><g transform="translate(157.219408, 43.333573)"><g/></g></g><g fill="#17191a" fill-opacity="1"><g transform="translate(161.674352, 43.333573)"><g/></g></g><g fill="#17191a" fill-opacity="1"><g transform="translate(166.129296, 43.333573)"><g/></g></g><g fill="#17191a" fill-opacity="1"><g transform="translate(170.58424, 43.333573)"><g/></g></g><g fill="#17191a" fill-opacity="1"><g transform="translate(175.039184, 43.333573)"><g/></g></g><g fill="#17191a" fill-opacity="1"><g transform="translate(179.492284, 43.333573)"><g><path d="M 6.765625 -2.515625 C 6.765625 -2.960938 6.597656 -3.304688 6.265625 -3.546875 C 5.941406 -3.785156 5.367188 -3.992188 4.546875 -4.171875 C 3.722656 -4.347656 3.066406 -4.554688 2.578125 -4.796875 C 2.097656 -5.046875 1.738281 -5.34375 1.5 -5.6875 C 1.269531 -6.03125 1.15625 -6.4375 1.15625 -6.90625 C 1.15625 -7.675781 1.484375 -8.332031 2.140625 -8.875 C 2.804688 -9.414062 3.648438 -9.6875 4.671875 -9.6875 C 5.753906 -9.6875 6.628906 -9.40625 7.296875 -8.84375 C 7.972656 -8.289062 8.3125 -7.582031 8.3125 -6.71875 L 6.671875 -6.71875 C 6.671875 -7.164062 6.476562 -7.546875 6.09375 -7.859375 C 5.71875 -8.179688 5.242188 -8.34375 4.671875 -8.34375 C 4.078125 -8.34375 3.613281 -8.210938 3.28125 -7.953125 C 2.945312 -7.703125 2.78125 -7.367188 2.78125 -6.953125 C 2.78125 -6.554688 2.9375 -6.257812 3.25 -6.0625 C 3.5625 -5.863281 4.125 -5.671875 4.9375 -5.484375 C 5.75 -5.304688 6.40625 -5.09375 6.90625 -4.84375 C 7.414062 -4.59375 7.789062 -4.289062 8.03125 -3.9375 C 8.269531 -3.582031 8.390625 -3.148438 8.390625 -2.640625 C 8.390625 -1.785156 8.050781 -1.101562 7.375 -0.59375 C 6.695312 -0.0820312 5.816406 0.171875 4.734375 0.171875 C 3.972656 0.171875 3.296875 0.0351562 2.703125 -0.234375 C 2.117188 -0.503906 1.660156 -0.878906 1.328125 -1.359375 C 0.992188 -1.835938 0.828125 -2.359375 0.828125 -2.921875 L 2.46875 -2.921875 C 2.488281 -2.378906 2.703125 -1.945312 3.109375 -1.625 C 3.523438 -1.3125 4.066406 -1.15625 4.734375 -1.15625 C 5.347656 -1.15625 5.835938 -1.28125 6.203125 -1.53125 C 6.578125 -1.78125 6.765625 -2.109375 6.765625 -2.515625 Z M 6.765625 -2.515625 "/></g></g></g><g fill="#17191a" fill-opacity="1"><g transform="translate(188.771221, 43.333573)"><g><path d="M 3.890625 -4.40625 L 2.859375 -3.34375 L 2.859375 0 L 1.234375 0 L 1.234375 -13.5 L 2.859375 -13.5 L 2.859375 -5.328125 L 3.734375 -6.375 L 6.703125 -9.515625 L 8.671875 -9.515625 L 4.96875 -5.53125 L 9.109375 0 L 7.203125 0 Z M 3.890625 -4.40625 "/></g></g></g><g fill="#17191a" fill-opacity="1"><g transform="translate(197.891994, 43.333573)"><g><path d="M 5.828125 -8.046875 C 5.578125 -8.085938 5.3125 -8.109375 5.03125 -8.109375 C 3.957031 -8.109375 3.234375 -7.65625 2.859375 -6.75 L 2.859375 0 L 1.234375 0 L 1.234375 -9.515625 L 2.8125 -9.515625 L 2.84375 -8.40625 C 3.375 -9.257812 4.128906 -9.6875 5.109375 -9.6875 C 5.421875 -9.6875 5.660156 -9.644531 5.828125 -9.5625 Z M 5.828125 -8.046875 "/></g></g></g><g fill="#17191a" fill-opacity="1"><g transform="translate(203.981296, 43.333573)"><g><path d="M 7.109375 0 C 7.015625 -0.1875 6.9375 -0.519531 6.875 -1 C 6.113281 -0.21875 5.210938 0.171875 4.171875 0.171875 C 3.234375 0.171875 2.460938 -0.09375 1.859375 -0.625 C 1.253906 -1.15625 0.953125 -1.828125 0.953125 -2.640625 C 0.953125 -3.628906 1.328125 -4.394531 2.078125 -4.9375 C 2.835938 -5.488281 3.898438 -5.765625 5.265625 -5.765625 L 6.84375 -5.765625 L 6.84375 -6.515625 C 6.84375 -7.078125 6.671875 -7.523438 6.328125 -7.859375 C 5.992188 -8.203125 5.492188 -8.375 4.828125 -8.375 C 4.253906 -8.375 3.769531 -8.226562 3.375 -7.9375 C 2.976562 -7.644531 2.78125 -7.289062 2.78125 -6.875 L 1.15625 -6.875 C 1.15625 -7.34375 1.320312 -7.796875 1.65625 -8.234375 C 1.988281 -8.679688 2.441406 -9.035156 3.015625 -9.296875 C 3.597656 -9.554688 4.238281 -9.6875 4.9375 -9.6875 C 6.03125 -9.6875 6.882812 -9.410156 7.5 -8.859375 C 8.125 -8.316406 8.445312 -7.5625 8.46875 -6.59375 L 8.46875 -2.21875 C 8.46875 -1.351562 8.582031 -0.660156 8.8125 -0.140625 L 8.8125 0 Z M 4.40625 -1.234375 C 4.914062 -1.234375 5.398438 -1.363281 5.859375 -1.625 C 6.316406 -1.894531 6.644531 -2.238281 6.84375 -2.65625 L 6.84375 -4.609375 L 5.578125 -4.609375 C 3.578125 -4.609375 2.578125 -4.023438 2.578125 -2.859375 C 2.578125 -2.347656 2.75 -1.945312 3.09375 -1.65625 C 3.4375 -1.375 3.875 -1.234375 4.40625 -1.234375 Z M 4.40625 -1.234375 "/></g></g></g><g fill="#17191a" fill-opacity="1"><g transform="translate(213.769871, 43.333573)"><g><path d="M 5.046875 -1.15625 C 5.628906 -1.15625 6.132812 -1.328125 6.5625 -1.671875 C 7 -2.023438 7.238281 -2.46875 7.28125 -3 L 8.828125 -3 C 8.796875 -2.457031 8.609375 -1.9375 8.265625 -1.4375 C 7.921875 -0.945312 7.457031 -0.554688 6.875 -0.265625 C 6.300781 0.0234375 5.691406 0.171875 5.046875 0.171875 C 3.753906 0.171875 2.722656 -0.257812 1.953125 -1.125 C 1.191406 -1.988281 0.8125 -3.171875 0.8125 -4.671875 L 0.8125 -4.9375 C 0.8125 -5.863281 0.976562 -6.6875 1.3125 -7.40625 C 1.65625 -8.125 2.144531 -8.679688 2.78125 -9.078125 C 3.414062 -9.484375 4.164062 -9.6875 5.03125 -9.6875 C 6.101562 -9.6875 6.988281 -9.363281 7.6875 -8.71875 C 8.394531 -8.082031 8.773438 -7.253906 8.828125 -6.234375 L 7.28125 -6.234375 C 7.238281 -6.847656 7.003906 -7.351562 6.578125 -7.75 C 6.160156 -8.144531 5.644531 -8.34375 5.03125 -8.34375 C 4.207031 -8.34375 3.566406 -8.046875 3.109375 -7.453125 C 2.660156 -6.859375 2.4375 -6 2.4375 -4.875 L 2.4375 -4.578125 C 2.4375 -3.472656 2.660156 -2.625 3.109375 -2.03125 C 3.554688 -1.445312 4.203125 -1.15625 5.046875 -1.15625 Z M 5.484375 -13.5 L 7.453125 -13.5 L 5.09375 -10.921875 L 3.78125 -10.921875 Z M 5.484375 -13.5 "/></g></g></g><g fill="#17191a" fill-opacity="1"><g transform="translate(223.189398, 43.333573)"><g><path d="M 5.171875 0.171875 C 3.890625 0.171875 2.84375 -0.25 2.03125 -1.09375 C 1.21875 -1.9375 0.8125 -3.066406 0.8125 -4.484375 L 0.8125 -4.796875 C 0.8125 -5.734375 0.992188 -6.570312 1.359375 -7.3125 C 1.722656 -8.050781 2.226562 -8.628906 2.875 -9.046875 C 3.519531 -9.472656 4.21875 -9.6875 4.96875 -9.6875 C 6.207031 -9.6875 7.171875 -9.28125 7.859375 -8.46875 C 8.546875 -7.65625 8.890625 -6.488281 8.890625 -4.96875 L 8.890625 -4.296875 L 2.4375 -4.296875 C 2.46875 -3.359375 2.742188 -2.597656 3.265625 -2.015625 C 3.785156 -1.441406 4.453125 -1.15625 5.265625 -1.15625 C 5.835938 -1.15625 6.320312 -1.269531 6.71875 -1.5 C 7.125 -1.738281 7.472656 -2.050781 7.765625 -2.4375 L 8.765625 -1.65625 C 7.960938 -0.4375 6.765625 0.171875 5.171875 0.171875 Z M 4.96875 -8.34375 C 4.3125 -8.34375 3.757812 -8.101562 3.3125 -7.625 C 2.875 -7.15625 2.601562 -6.488281 2.5 -5.625 L 7.265625 -5.625 L 7.265625 -5.75 C 7.210938 -6.570312 6.988281 -7.207031 6.59375 -7.65625 C 6.195312 -8.113281 5.65625 -8.34375 4.96875 -8.34375 Z M 4.96875 -8.34375 "/></g></g></g><g fill="#17191a" fill-opacity="1"><g transform="translate(232.723154, 43.333573)"><g><path d="M 2.765625 -9.515625 L 2.828125 -8.3125 C 3.546875 -9.226562 4.492188 -9.6875 5.671875 -9.6875 C 7.679688 -9.6875 8.691406 -8.550781 8.703125 -6.28125 L 8.703125 0 L 7.078125 0 L 7.078125 -6.296875 C 7.078125 -6.984375 6.921875 -7.488281 6.609375 -7.8125 C 6.304688 -8.144531 5.828125 -8.3125 5.171875 -8.3125 C 4.648438 -8.3125 4.1875 -8.171875 3.78125 -7.890625 C 3.382812 -7.609375 3.078125 -7.238281 2.859375 -6.78125 L 2.859375 0 L 1.234375 0 L 1.234375 -9.515625 Z M 2.765625 -9.515625 "/></g></g></g><g fill="#17191a" fill-opacity="1"><g transform="translate(242.652319, 43.333573)"><g><path d="M 0.796875 -4.84375 C 0.796875 -5.769531 0.976562 -6.601562 1.34375 -7.34375 C 1.71875 -8.09375 2.226562 -8.671875 2.875 -9.078125 C 3.53125 -9.484375 4.273438 -9.6875 5.109375 -9.6875 C 6.410156 -9.6875 7.457031 -9.238281 8.25 -8.34375 C 9.050781 -7.445312 9.453125 -6.253906 9.453125 -4.765625 L 9.453125 -4.65625 C 9.453125 -3.726562 9.273438 -2.894531 8.921875 -2.15625 C 8.566406 -1.425781 8.0625 -0.851562 7.40625 -0.4375 C 6.75 -0.03125 5.992188 0.171875 5.140625 0.171875 C 3.847656 0.171875 2.800781 -0.273438 2 -1.171875 C 1.195312 -2.066406 0.796875 -3.253906 0.796875 -4.734375 Z M 2.4375 -4.65625 C 2.4375 -3.59375 2.679688 -2.742188 3.171875 -2.109375 C 3.660156 -1.472656 4.316406 -1.15625 5.140625 -1.15625 C 5.960938 -1.15625 6.613281 -1.476562 7.09375 -2.125 C 7.582031 -2.769531 7.828125 -3.675781 7.828125 -4.84375 C 7.828125 -5.882812 7.578125 -6.726562 7.078125 -7.375 C 6.585938 -8.019531 5.929688 -8.34375 5.109375 -8.34375 C 4.304688 -8.34375 3.660156 -8.023438 3.171875 -7.390625 C 2.679688 -6.753906 2.4375 -5.84375 2.4375 -4.65625 Z M 2.4375 -4.65625 "/></g></g></g><g fill="#17191a" fill-opacity="1"><g transform="translate(252.915385, 43.333573)"><g/></g></g><g fill="#17191a" fill-opacity="1"><g transform="translate(257.370329, 43.333573)"><g><path d="M 0.828125 -4.828125 C 0.828125 -6.285156 1.171875 -7.457031 1.859375 -8.34375 C 2.554688 -9.238281 3.46875 -9.6875 4.59375 -9.6875 C 5.707031 -9.6875 6.585938 -9.304688 7.234375 -8.546875 L 7.234375 -13.5 L 8.859375 -13.5 L 8.859375 0 L 7.359375 0 L 7.28125 -1.015625 C 6.632812 -0.222656 5.734375 0.171875 4.578125 0.171875 C 3.472656 0.171875 2.570312 -0.273438 1.875 -1.171875 C 1.175781 -2.078125 0.828125 -3.257812 0.828125 -4.71875 Z M 2.46875 -4.65625 C 2.46875 -3.570312 2.6875 -2.722656 3.125 -2.109375 C 3.570312 -1.503906 4.1875 -1.203125 4.96875 -1.203125 C 6 -1.203125 6.753906 -1.664062 7.234375 -2.59375 L 7.234375 -6.96875 C 6.742188 -7.863281 6 -8.3125 5 -8.3125 C 4.195312 -8.3125 3.570312 -8 3.125 -7.375 C 2.6875 -6.757812 2.46875 -5.851562 2.46875 -4.65625 Z M 2.46875 -4.65625 "/></g></g></g><g fill="#17191a" fill-opacity="1"><g transform="translate(267.519166, 43.333573)"><g><path d="M 0.796875 -4.84375 C 0.796875 -5.769531 0.976562 -6.601562 1.34375 -7.34375 C 1.71875 -8.09375 2.226562 -8.671875 2.875 -9.078125 C 3.53125 -9.484375 4.273438 -9.6875 5.109375 -9.6875 C 6.410156 -9.6875 7.457031 -9.238281 8.25 -8.34375 C 9.050781 -7.445312 9.453125 -6.253906 9.453125 -4.765625 L 9.453125 -4.65625 C 9.453125 -3.726562 9.273438 -2.894531 8.921875 -2.15625 C 8.566406 -1.425781 8.0625 -0.851562 7.40625 -0.4375 C 6.75 -0.03125 5.992188 0.171875 5.140625 0.171875 C 3.847656 0.171875 2.800781 -0.273438 2 -1.171875 C 1.195312 -2.066406 0.796875 -3.253906 0.796875 -4.734375 Z M 2.4375 -4.65625 C 2.4375 -3.59375 2.679688 -2.742188 3.171875 -2.109375 C 3.660156 -1.472656 4.316406 -1.15625 5.140625 -1.15625 C 5.960938 -1.15625 6.613281 -1.476562 7.09375 -2.125 C 7.582031 -2.769531 7.828125 -3.675781 7.828125 -4.84375 C 7.828125 -5.882812 7.578125 -6.726562 7.078125 -7.375 C 6.585938 -8.019531 5.929688 -8.34375 5.109375 -8.34375 C 4.304688 -8.34375 3.660156 -8.023438 3.171875 -7.390625 C 2.679688 -6.753906 2.4375 -5.84375 2.4375 -4.65625 Z M 2.4375 -4.65625 "/></g></g></g><g fill="#17191a" fill-opacity="1"><g transform="translate(277.782233, 43.333573)"><g/></g></g><g fill="#17191a" fill-opacity="1"><g transform="translate(282.237177, 43.333573)"><g><path d="M 3.890625 -4.40625 L 2.859375 -3.34375 L 2.859375 0 L 1.234375 0 L 1.234375 -13.5 L 2.859375 -13.5 L 2.859375 -5.328125 L 3.734375 -6.375 L 6.703125 -9.515625 L 8.671875 -9.515625 L 4.96875 -5.53125 L 9.109375 0 L 7.203125 0 Z M 3.890625 -4.40625 "/></g></g></g><g fill="#17191a" fill-opacity="1"><g transform="translate(291.35795, 43.333573)"><g><path d="M 5.828125 -8.046875 C 5.578125 -8.085938 5.3125 -8.109375 5.03125 -8.109375 C 3.957031 -8.109375 3.234375 -7.65625 2.859375 -6.75 L 2.859375 0 L 1.234375 0 L 1.234375 -9.515625 L 2.8125 -9.515625 L 2.84375 -8.40625 C 3.375 -9.257812 4.128906 -9.6875 5.109375 -9.6875 C 5.421875 -9.6875 5.660156 -9.644531 5.828125 -9.5625 Z M 5.828125 -8.046875 "/></g></g></g><g fill="#17191a" fill-opacity="1"><g transform="translate(297.447252, 43.333573)"><g><path d="M 7.109375 0 C 7.015625 -0.1875 6.9375 -0.519531 6.875 -1 C 6.113281 -0.21875 5.210938 0.171875 4.171875 0.171875 C 3.234375 0.171875 2.460938 -0.09375 1.859375 -0.625 C 1.253906 -1.15625 0.953125 -1.828125 0.953125 -2.640625 C 0.953125 -3.628906 1.328125 -4.394531 2.078125 -4.9375 C 2.835938 -5.488281 3.898438 -5.765625 5.265625 -5.765625 L 6.84375 -5.765625 L 6.84375 -6.515625 C 6.84375 -7.078125 6.671875 -7.523438 6.328125 -7.859375 C 5.992188 -8.203125 5.492188 -8.375 4.828125 -8.375 C 4.253906 -8.375 3.769531 -8.226562 3.375 -7.9375 C 2.976562 -7.644531 2.78125 -7.289062 2.78125 -6.875 L 1.15625 -6.875 C 1.15625 -7.34375 1.320312 -7.796875 1.65625 -8.234375 C 1.988281 -8.679688 2.441406 -9.035156 3.015625 -9.296875 C 3.597656 -9.554688 4.238281 -9.6875 4.9375 -9.6875 C 6.03125 -9.6875 6.882812 -9.410156 7.5 -8.859375 C 8.125 -8.316406 8.445312 -7.5625 8.46875 -6.59375 L 8.46875 -2.21875 C 8.46875 -1.351562 8.582031 -0.660156 8.8125 -0.140625 L 8.8125 0 Z M 4.40625 -1.234375 C 4.914062 -1.234375 5.398438 -1.363281 5.859375 -1.625 C 6.316406 -1.894531 6.644531 -2.238281 6.84375 -2.65625 L 6.84375 -4.609375 L 5.578125 -4.609375 C 3.578125 -4.609375 2.578125 -4.023438 2.578125 -2.859375 C 2.578125 -2.347656 2.75 -1.945312 3.09375 -1.65625 C 3.4375 -1.375 3.875 -1.234375 4.40625 -1.234375 Z M 4.40625 -1.234375 "/></g></g></g><g fill="#17191a" fill-opacity="1"><g transform="translate(307.235827, 43.333573)"><g><path d="M 2.90625 -9.515625 L 2.90625 1.09375 C 2.90625 2.925781 2.078125 3.84375 0.421875 3.84375 C 0.0664062 3.84375 -0.265625 3.789062 -0.578125 3.6875 L -0.578125 2.375 C -0.390625 2.425781 -0.140625 2.453125 0.171875 2.453125 C 0.535156 2.453125 0.8125 2.351562 1 2.15625 C 1.1875 1.957031 1.28125 1.617188 1.28125 1.140625 L 1.28125 -9.515625 Z M 1.109375 -12.03125 C 1.109375 -12.289062 1.1875 -12.507812 1.34375 -12.6875 C 1.507812 -12.875 1.75 -12.96875 2.0625 -12.96875 C 2.382812 -12.96875 2.625 -12.875 2.78125 -12.6875 C 2.945312 -12.507812 3.03125 -12.289062 3.03125 -12.03125 C 3.03125 -11.769531 2.945312 -11.550781 2.78125 -11.375 C 2.625 -11.195312 2.382812 -11.109375 2.0625 -11.109375 C 1.75 -11.109375 1.507812 -11.195312 1.34375 -11.375 C 1.1875 -11.550781 1.109375 -11.769531 1.109375 -12.03125 Z M 1.109375 -12.03125 "/></g></g></g><g fill="#17191a" fill-opacity="1"><g transform="translate(311.532607, 43.333573)"><g><path d="M 7.109375 0 C 7.015625 -0.1875 6.9375 -0.519531 6.875 -1 C 6.113281 -0.21875 5.210938 0.171875 4.171875 0.171875 C 3.234375 0.171875 2.460938 -0.09375 1.859375 -0.625 C 1.253906 -1.15625 0.953125 -1.828125 0.953125 -2.640625 C 0.953125 -3.628906 1.328125 -4.394531 2.078125 -4.9375 C 2.835938 -5.488281 3.898438 -5.765625 5.265625 -5.765625 L 6.84375 -5.765625 L 6.84375 -6.515625 C 6.84375 -7.078125 6.671875 -7.523438 6.328125 -7.859375 C 5.992188 -8.203125 5.492188 -8.375 4.828125 -8.375 C 4.253906 -8.375 3.769531 -8.226562 3.375 -7.9375 C 2.976562 -7.644531 2.78125 -7.289062 2.78125 -6.875 L 1.15625 -6.875 C 1.15625 -7.34375 1.320312 -7.796875 1.65625 -8.234375 C 1.988281 -8.679688 2.441406 -9.035156 3.015625 -9.296875 C 3.597656 -9.554688 4.238281 -9.6875 4.9375 -9.6875 C 6.03125 -9.6875 6.882812 -9.410156 7.5 -8.859375 C 8.125 -8.316406 8.445312 -7.5625 8.46875 -6.59375 L 8.46875 -2.21875 C 8.46875 -1.351562 8.582031 -0.660156 8.8125 -0.140625 L 8.8125 0 Z M 4.40625 -1.234375 C 4.914062 -1.234375 5.398438 -1.363281 5.859375 -1.625 C 6.316406 -1.894531 6.644531 -2.238281 6.84375 -2.65625 L 6.84375 -4.609375 L 5.578125 -4.609375 C 3.578125 -4.609375 2.578125 -4.023438 2.578125 -2.859375 C 2.578125 -2.347656 2.75 -1.945312 3.09375 -1.65625 C 3.4375 -1.375 3.875 -1.234375 4.40625 -1.234375 Z M 4.40625 -1.234375 "/></g></g></g><g fill="#17191a" fill-opacity="1"><g transform="translate(321.321183, 43.333573)"><g><path d="M 3.140625 -3.609375 C 3.148438 -4.304688 3.226562 -4.851562 3.375 -5.25 C 3.519531 -5.65625 3.816406 -6.101562 4.265625 -6.59375 L 5.421875 -7.78125 C 5.910156 -8.34375 6.15625 -8.941406 6.15625 -9.578125 C 6.15625 -10.191406 5.992188 -10.671875 5.671875 -11.015625 C 5.347656 -11.367188 4.878906 -11.546875 4.265625 -11.546875 C 3.671875 -11.546875 3.191406 -11.382812 2.828125 -11.0625 C 2.460938 -10.75 2.28125 -10.328125 2.28125 -9.796875 L 0.65625 -9.796875 C 0.664062 -10.742188 1.003906 -11.507812 1.671875 -12.09375 C 2.335938 -12.675781 3.203125 -12.96875 4.265625 -12.96875 C 5.378906 -12.96875 6.242188 -12.671875 6.859375 -12.078125 C 7.472656 -11.484375 7.78125 -10.671875 7.78125 -9.640625 C 7.78125 -8.609375 7.304688 -7.59375 6.359375 -6.59375 L 5.40625 -5.65625 C 4.976562 -5.175781 4.765625 -4.492188 4.765625 -3.609375 Z M 3.0625 -0.8125 C 3.0625 -1.082031 3.140625 -1.304688 3.296875 -1.484375 C 3.460938 -1.660156 3.703125 -1.75 4.015625 -1.75 C 4.335938 -1.75 4.582031 -1.660156 4.75 -1.484375 C 4.914062 -1.304688 5 -1.082031 5 -0.8125 C 5 -0.550781 4.914062 -0.332031 4.75 -0.15625 C 4.582031 0.0078125 4.335938 0.09375 4.015625 0.09375 C 3.703125 0.09375 3.460938 0.0078125 3.296875 -0.15625 C 3.140625 -0.332031 3.0625 -0.550781 3.0625 -0.8125 Z M 3.0625 -0.8125 "/></g></g></g></svg>