<svg xmlns="http://www.w3.org/2000/svg" xmlns:xlink="http://www.w3.org/1999/xlink" width="500" zoomAndPan="magnify" viewBox="0 0 375 74.999997" height="100" preserveAspectRatio="xMidYMid meet" version="1.0"><defs><clipPath id="22586d3ee2"><path d="M 167.429688 41 L 207.929688 41 L 207.929688 43 L 167.429688 43 Z M 167.429688 41 " clip-rule="nonzero"/></clipPath><clipPath id="ed0b578f76"><path d="M 168 49 L 181 49 L 181 69.558594 L 168 69.558594 Z M 168 49 " clip-rule="nonzero"/></clipPath></defs><path fill="#a8180f" d="M 182.609375 10.054688 C 182.640625 9.9375 182.699219 9.765625 182.699219 9.621094 C 182.699219 9.332031 182.410156 9.332031 182.351562 9.332031 C 182.320312 9.332031 181.28125 9.417969 180.757812 9.476562 C 180.265625 9.507812 179.832031 9.5625 179.3125 9.59375 C 178.617188 9.652344 178.414062 9.679688 178.414062 10.199219 C 178.414062 10.488281 178.703125 10.488281 178.992188 10.488281 C 180.46875 10.488281 180.46875 10.746094 180.46875 11.035156 C 180.46875 11.238281 180.238281 12.074219 180.121094 12.59375 L 179.425781 15.363281 C 179.136719 16.515625 177.488281 23.066406 177.371094 23.585938 C 177.226562 24.308594 177.226562 24.796875 177.226562 25.171875 C 177.226562 28.117188 178.878906 29.644531 180.757812 29.644531 C 184.117188 29.644531 187.589844 25.34375 187.589844 21.164062 C 187.589844 18.507812 186.082031 16.632812 183.914062 16.632812 C 182.410156 16.632812 181.046875 17.875 180.5 18.449219 Z M 180.789062 29.066406 C 179.863281 29.066406 178.847656 28.375 178.847656 26.125 C 178.847656 25.171875 178.933594 24.625 179.457031 22.605469 C 179.542969 22.230469 180.007812 20.382812 180.121094 20.007812 C 180.179688 19.777344 181.886719 17.210938 183.855469 17.210938 C 185.128906 17.210938 185.707031 18.480469 185.707031 19.980469 C 185.707031 21.363281 184.898438 24.625 184.171875 26.125 C 183.449219 27.683594 182.117188 29.066406 180.789062 29.066406 Z M 180.789062 29.066406 " fill-opacity="1" fill-rule="nonzero"/><path fill="#a8180f" d="M 195.535156 13.214844 C 195.535156 17.90625 193.300781 18.714844 192.179688 18.714844 C 191.773438 18.714844 190.773438 18.65625 190.25 18.058594 C 191.097656 17.984375 191.15625 17.347656 191.15625 17.15625 C 191.15625 16.578125 190.714844 16.253906 190.25 16.253906 C 189.902344 16.253906 189.34375 16.464844 189.34375 17.195312 C 189.34375 18.503906 190.425781 19.292969 192.199219 19.292969 C 194.84375 19.292969 197.351562 16.675781 197.351562 12.558594 C 197.351562 7.558594 195.132812 6.097656 193.144531 6.097656 C 190.867188 6.097656 188.824219 7.867188 188.824219 10.386719 C 188.824219 12.867188 190.695312 14.675781 192.875 14.675781 C 194.246094 14.675781 195.074219 13.808594 195.535156 12.828125 Z M 192.953125 14.136719 C 192.0625 14.136719 191.503906 13.734375 191.082031 13.019531 C 190.636719 12.308594 190.636719 11.386719 190.636719 10.40625 C 190.636719 9.269531 190.636719 8.460938 191.15625 7.671875 C 191.640625 6.980469 192.257812 6.597656 193.164062 6.597656 C 194.457031 6.597656 195.015625 7.867188 195.074219 7.960938 C 195.480469 8.90625 195.5 10.40625 195.5 10.789062 C 195.5 12.308594 194.667969 14.136719 192.953125 14.136719 Z M 192.953125 14.136719 " fill-opacity="1" fill-rule="nonzero"/><g clip-path="url(#22586d3ee2)"><path fill="#a8180f" d="M 167.429688 41.085938 L 207.929688 41.085938 L 207.929688 42.238281 L 167.429688 42.238281 Z M 167.429688 41.085938 " fill-opacity="1" fill-rule="nonzero"/></g><g clip-path="url(#ed0b578f76)"><path fill="#a8180f" d="M 172.753906 58.304688 C 172.261719 58.335938 172.144531 58.363281 172.144531 58.625 C 172.144531 58.910156 172.289062 58.910156 172.8125 58.910156 L 174.144531 58.910156 C 176.601562 58.910156 177.703125 60.929688 177.703125 63.699219 C 177.703125 67.480469 175.734375 68.488281 174.316406 68.488281 C 172.925781 68.488281 170.554688 67.828125 169.714844 65.921875 C 170.640625 66.066406 171.480469 65.546875 171.480469 64.507812 C 171.480469 63.671875 170.871094 63.09375 170.0625 63.09375 C 169.367188 63.09375 168.613281 63.5 168.613281 64.59375 C 168.613281 67.164062 171.191406 69.269531 174.402344 69.269531 C 177.847656 69.269531 180.394531 66.644531 180.394531 63.730469 C 180.394531 61.074219 178.253906 59 175.472656 58.507812 C 177.992188 57.785156 179.613281 55.679688 179.613281 53.429688 C 179.613281 51.152344 177.238281 49.476562 174.433594 49.476562 C 171.539062 49.476562 169.398438 51.238281 169.398438 53.34375 C 169.398438 54.496094 170.292969 54.726562 170.726562 54.726562 C 171.335938 54.726562 172.03125 54.296875 172.03125 53.429688 C 172.03125 52.507812 171.335938 52.101562 170.699219 52.101562 C 170.523438 52.101562 170.46875 52.101562 170.378906 52.132812 C 171.480469 50.167969 174.199219 50.167969 174.34375 50.167969 C 175.300781 50.167969 177.183594 50.601562 177.183594 53.429688 C 177.183594 53.976562 177.09375 55.59375 176.253906 56.835938 C 175.386719 58.105469 174.402344 58.191406 173.621094 58.21875 Z M 172.753906 58.304688 " fill-opacity="1" fill-rule="nonzero"/></g><path fill="#a8180f" d="M 190.308594 65.230469 C 190.164062 65.71875 190.164062 65.777344 189.757812 66.328125 C 189.121094 67.132812 187.847656 68.375 186.488281 68.375 C 185.300781 68.375 184.636719 67.308594 184.636719 65.605469 C 184.636719 64.019531 185.535156 60.785156 186.082031 59.574219 C 187.066406 57.554688 188.425781 56.515625 189.554688 56.515625 C 191.464844 56.515625 191.84375 58.882812 191.84375 59.113281 C 191.84375 59.140625 191.753906 59.515625 191.726562 59.574219 Z M 192.160156 57.84375 C 191.84375 57.09375 191.0625 55.941406 189.554688 55.941406 C 186.285156 55.941406 182.753906 60.152344 182.753906 64.421875 C 182.753906 67.277344 184.433594 68.953125 186.402344 68.953125 C 187.992188 68.953125 189.355469 67.710938 190.164062 66.757812 C 190.453125 68.460938 191.8125 68.953125 192.683594 68.953125 C 193.550781 68.953125 194.246094 68.433594 194.765625 67.394531 C 195.230469 66.414062 195.632812 64.652344 195.632812 64.539062 C 195.632812 64.394531 195.519531 64.277344 195.34375 64.277344 C 195.082031 64.277344 195.054688 64.421875 194.9375 64.855469 C 194.503906 66.558594 193.957031 68.375 192.769531 68.375 C 191.929688 68.375 191.871094 67.625 191.871094 67.046875 C 191.871094 66.382812 191.957031 66.066406 192.21875 64.941406 C 192.421875 64.21875 192.566406 63.585938 192.796875 62.75 C 193.867188 58.421875 194.128906 57.382812 194.128906 57.210938 C 194.128906 56.804688 193.8125 56.488281 193.375 56.488281 C 192.449219 56.488281 192.21875 57.496094 192.160156 57.84375 Z M 192.160156 57.84375 " fill-opacity="1" fill-rule="nonzero"/><path fill="#a8180f" d="M 204.074219 47.886719 C 204.074219 47.5 204.074219 47.347656 203.667969 47.347656 C 203.417969 47.347656 203.398438 47.367188 203.207031 47.636719 L 197.050781 56.542969 L 197.050781 57.175781 L 202.492188 57.175781 L 202.492188 58.773438 C 202.492188 59.484375 202.433594 59.695312 200.949219 59.695312 L 200.503906 59.695312 L 200.503906 60.332031 C 202.144531 60.273438 202.183594 60.273438 203.285156 60.273438 C 204.382812 60.273438 204.421875 60.273438 206.0625 60.332031 L 206.0625 59.695312 L 205.617188 59.695312 C 204.132812 59.695312 204.074219 59.484375 204.074219 58.773438 L 204.074219 57.175781 L 206.121094 57.175781 L 206.121094 56.542969 L 204.074219 56.542969 Z M 202.628906 49.445312 L 202.628906 56.542969 L 197.726562 56.542969 Z M 202.628906 49.445312 " fill-opacity="1" fill-rule="nonzero"/></svg>