<svg xmlns="http://www.w3.org/2000/svg" xmlns:xlink="http://www.w3.org/1999/xlink" width="500" zoomAndPan="magnify" viewBox="0 0 375 74.999997" height="100" preserveAspectRatio="xMidYMid meet" version="1.0"><defs><g/><clipPath id="e1f68e5df7"><path d="M 198 27.855469 L 205 27.855469 L 205 38 L 198 38 Z M 198 27.855469 " clip-rule="nonzero"/></clipPath><clipPath id="d3624d5eb0"><path d="M 238 32 L 247 32 L 247 47.355469 L 238 47.355469 Z M 238 32 " clip-rule="nonzero"/></clipPath><clipPath id="89ba098699"><path d="M 248 27.855469 L 255 27.855469 L 255 38 L 248 38 Z M 248 27.855469 " clip-rule="nonzero"/></clipPath><clipPath id="9cbcd28f46"><path d="M 263 28 L 269.972656 28 L 269.972656 39 L 263 39 Z M 263 28 " clip-rule="nonzero"/></clipPath></defs><g fill="#17191a" fill-opacity="1"><g transform="translate(15.000006, 43.333573)"><g><path d="M 3.421875 -7.1875 L 4.65625 -7.1875 C 5.414062 -7.195312 6.015625 -7.398438 6.453125 -7.796875 C 6.898438 -8.191406 7.125 -8.722656 7.125 -9.390625 C 7.125 -10.890625 6.375 -11.640625 4.875 -11.640625 C 4.175781 -11.640625 3.613281 -11.4375 3.1875 -11.03125 C 2.769531 -10.632812 2.5625 -10.101562 2.5625 -9.4375 L 0.9375 -9.4375 C 0.9375 -10.445312 1.304688 -11.285156 2.046875 -11.953125 C 2.796875 -12.628906 3.738281 -12.96875 4.875 -12.96875 C 6.082031 -12.96875 7.03125 -12.648438 7.71875 -12.015625 C 8.40625 -11.378906 8.75 -10.492188 8.75 -9.359375 C 8.75 -8.796875 8.566406 -8.253906 8.203125 -7.734375 C 7.847656 -7.210938 7.359375 -6.820312 6.734375 -6.5625 C 7.429688 -6.34375 7.972656 -5.972656 8.359375 -5.453125 C 8.742188 -4.941406 8.9375 -4.3125 8.9375 -3.5625 C 8.9375 -2.414062 8.5625 -1.503906 7.8125 -0.828125 C 7.0625 -0.160156 6.082031 0.171875 4.875 0.171875 C 3.675781 0.171875 2.703125 -0.148438 1.953125 -0.796875 C 1.203125 -1.453125 0.828125 -2.3125 0.828125 -3.375 L 2.46875 -3.375 C 2.46875 -2.695312 2.6875 -2.15625 3.125 -1.75 C 3.5625 -1.351562 4.148438 -1.15625 4.890625 -1.15625 C 5.671875 -1.15625 6.269531 -1.359375 6.6875 -1.765625 C 7.101562 -2.171875 7.3125 -2.757812 7.3125 -3.53125 C 7.3125 -4.28125 7.082031 -4.851562 6.625 -5.25 C 6.164062 -5.644531 5.507812 -5.847656 4.65625 -5.859375 L 3.421875 -5.859375 Z M 3.421875 -7.1875 "/></g></g></g><g fill="#17191a" fill-opacity="1"><g transform="translate(25.104909, 43.333573)"><g><path d="M 4.984375 -5.109375 C 4.984375 -3.796875 4.8125 -2.539062 4.46875 -1.34375 C 4.125 -0.144531 3.597656 0.957031 2.890625 1.96875 C 2.191406 2.976562 1.453125 3.695312 0.671875 4.125 L 0.328125 3.140625 C 1.234375 2.441406 1.957031 1.367188 2.5 -0.078125 C 3.050781 -1.535156 3.332031 -3.15625 3.34375 -4.9375 L 3.34375 -5.21875 C 3.34375 -6.445312 3.210938 -7.585938 2.953125 -8.640625 C 2.703125 -9.703125 2.347656 -10.648438 1.890625 -11.484375 C 1.429688 -12.328125 0.910156 -12.984375 0.328125 -13.453125 L 0.671875 -14.4375 C 1.453125 -14.007812 2.191406 -13.296875 2.890625 -12.296875 C 3.585938 -11.296875 4.109375 -10.191406 4.453125 -8.984375 C 4.804688 -7.773438 4.984375 -6.484375 4.984375 -5.109375 Z M 4.984375 -5.109375 "/></g></g></g><g fill="#17191a" fill-opacity="1"><g transform="translate(31.361161, 43.333573)"><g/></g></g><g fill="#17191a" fill-opacity="1"><g transform="translate(35.816106, 43.333573)"><g><path d="M 4.734375 -5.953125 L 3.171875 -4.328125 L 3.171875 0 L 1.484375 0 L 1.484375 -12.796875 L 3.171875 -12.796875 L 3.171875 -6.46875 L 8.859375 -12.796875 L 10.90625 -12.796875 L 5.859375 -7.140625 L 11.296875 0 L 9.265625 0 Z M 4.734375 -5.953125 "/></g></g></g><g fill="#17191a" fill-opacity="1"><g transform="translate(47.098449, 43.333573)"><g><path d="M 0.796875 -4.84375 C 0.796875 -5.769531 0.976562 -6.601562 1.34375 -7.34375 C 1.71875 -8.09375 2.226562 -8.671875 2.875 -9.078125 C 3.53125 -9.484375 4.273438 -9.6875 5.109375 -9.6875 C 6.410156 -9.6875 7.457031 -9.238281 8.25 -8.34375 C 9.050781 -7.445312 9.453125 -6.253906 9.453125 -4.765625 L 9.453125 -4.65625 C 9.453125 -3.726562 9.273438 -2.894531 8.921875 -2.15625 C 8.566406 -1.425781 8.0625 -0.851562 7.40625 -0.4375 C 6.75 -0.03125 5.992188 0.171875 5.140625 0.171875 C 3.847656 0.171875 2.800781 -0.273438 2 -1.171875 C 1.195312 -2.066406 0.796875 -3.253906 0.796875 -4.734375 Z M 2.4375 -4.65625 C 2.4375 -3.59375 2.679688 -2.742188 3.171875 -2.109375 C 3.660156 -1.472656 4.316406 -1.15625 5.140625 -1.15625 C 5.960938 -1.15625 6.613281 -1.476562 7.09375 -2.125 C 7.582031 -2.769531 7.828125 -3.675781 7.828125 -4.84375 C 7.828125 -5.882812 7.578125 -6.726562 7.078125 -7.375 C 6.585938 -8.019531 5.929688 -8.34375 5.109375 -8.34375 C 4.304688 -8.34375 3.660156 -8.023438 3.171875 -7.390625 C 2.679688 -6.753906 2.4375 -5.84375 2.4375 -4.65625 Z M 2.4375 -4.65625 "/></g></g></g><g fill="#17191a" fill-opacity="1"><g transform="translate(57.361515, 43.333573)"><g><path d="M 3 0 L 1.375 0 L 1.375 -13.5 L 3 -13.5 Z M 3 0 "/></g></g></g><g fill="#17191a" fill-opacity="1"><g transform="translate(61.728591, 43.333573)"><g><path d="M 3 0 L 1.375 0 L 1.375 -9.515625 L 3 -9.515625 Z M 1.234375 -12.03125 C 1.234375 -12.289062 1.3125 -12.507812 1.46875 -12.6875 C 1.632812 -12.875 1.875 -12.96875 2.1875 -12.96875 C 2.507812 -12.96875 2.753906 -12.875 2.921875 -12.6875 C 3.085938 -12.507812 3.171875 -12.289062 3.171875 -12.03125 C 3.171875 -11.769531 3.085938 -11.550781 2.921875 -11.375 C 2.753906 -11.195312 2.507812 -11.109375 2.1875 -11.109375 C 1.875 -11.109375 1.632812 -11.195312 1.46875 -11.375 C 1.3125 -11.550781 1.234375 -11.769531 1.234375 -12.03125 Z M 1.234375 -12.03125 "/></g></g></g><g fill="#17191a" fill-opacity="1"><g transform="translate(66.095666, 43.333573)"><g><path d="M 3.890625 -4.40625 L 2.859375 -3.34375 L 2.859375 0 L 1.234375 0 L 1.234375 -13.5 L 2.859375 -13.5 L 2.859375 -5.328125 L 3.734375 -6.375 L 6.703125 -9.515625 L 8.671875 -9.515625 L 4.96875 -5.53125 L 9.109375 0 L 7.203125 0 Z M 3.890625 -4.40625 "/></g></g></g><g fill="#17191a" fill-opacity="1"><g transform="translate(75.216439, 43.333573)"><g><path d="M 0.796875 -4.84375 C 0.796875 -5.769531 0.976562 -6.601562 1.34375 -7.34375 C 1.71875 -8.09375 2.226562 -8.671875 2.875 -9.078125 C 3.53125 -9.484375 4.273438 -9.6875 5.109375 -9.6875 C 6.410156 -9.6875 7.457031 -9.238281 8.25 -8.34375 C 9.050781 -7.445312 9.453125 -6.253906 9.453125 -4.765625 L 9.453125 -4.65625 C 9.453125 -3.726562 9.273438 -2.894531 8.921875 -2.15625 C 8.566406 -1.425781 8.0625 -0.851562 7.40625 -0.4375 C 6.75 -0.03125 5.992188 0.171875 5.140625 0.171875 C 3.847656 0.171875 2.800781 -0.273438 2 -1.171875 C 1.195312 -2.066406 0.796875 -3.253906 0.796875 -4.734375 Z M 2.4375 -4.65625 C 2.4375 -3.59375 2.679688 -2.742188 3.171875 -2.109375 C 3.660156 -1.472656 4.316406 -1.15625 5.140625 -1.15625 C 5.960938 -1.15625 6.613281 -1.476562 7.09375 -2.125 C 7.582031 -2.769531 7.828125 -3.675781 7.828125 -4.84375 C 7.828125 -5.882812 7.578125 -6.726562 7.078125 -7.375 C 6.585938 -8.019531 5.929688 -8.34375 5.109375 -8.34375 C 4.304688 -8.34375 3.660156 -8.023438 3.171875 -7.390625 C 2.679688 -6.753906 2.4375 -5.84375 2.4375 -4.65625 Z M 2.4375 -4.65625 "/></g></g></g><g fill="#17191a" fill-opacity="1"><g transform="translate(85.479505, 43.333573)"><g/></g></g><g fill="#17191a" fill-opacity="1"><g transform="translate(89.934449, 43.333573)"><g><path d="M 9.09375 -5.453125 C 9.09375 -3.554688 8.765625 -2.144531 8.109375 -1.21875 C 7.460938 -0.289062 6.445312 0.171875 5.0625 0.171875 C 3.695312 0.171875 2.6875 -0.28125 2.03125 -1.1875 C 1.375 -2.09375 1.035156 -3.441406 1.015625 -5.234375 L 1.015625 -7.40625 C 1.015625 -9.289062 1.335938 -10.6875 1.984375 -11.59375 C 2.640625 -12.507812 3.660156 -12.96875 5.046875 -12.96875 C 6.421875 -12.96875 7.429688 -12.523438 8.078125 -11.640625 C 8.734375 -10.765625 9.070312 -9.40625 9.09375 -7.5625 Z M 7.46875 -7.6875 C 7.46875 -9.0625 7.269531 -10.0625 6.875 -10.6875 C 6.488281 -11.320312 5.878906 -11.640625 5.046875 -11.640625 C 4.210938 -11.640625 3.601562 -11.320312 3.21875 -10.6875 C 2.84375 -10.0625 2.648438 -9.101562 2.640625 -7.8125 L 2.640625 -5.203125 C 2.640625 -3.816406 2.835938 -2.796875 3.234375 -2.140625 C 3.640625 -1.484375 4.25 -1.15625 5.0625 -1.15625 C 5.863281 -1.15625 6.457031 -1.460938 6.84375 -2.078125 C 7.238281 -2.703125 7.445312 -3.679688 7.46875 -5.015625 Z M 7.46875 -7.6875 "/></g></g></g><g fill="#17191a" fill-opacity="1"><g transform="translate(100.039352, 43.333573)"><g/></g></g><g fill="#17191a" fill-opacity="1"><g transform="translate(104.494296, 43.333573)"><g><path d="M 3 0 L 1.375 0 L 1.375 -9.515625 L 3 -9.515625 Z M 1.234375 -12.03125 C 1.234375 -12.289062 1.3125 -12.507812 1.46875 -12.6875 C 1.632812 -12.875 1.875 -12.96875 2.1875 -12.96875 C 2.507812 -12.96875 2.753906 -12.875 2.921875 -12.6875 C 3.085938 -12.507812 3.171875 -12.289062 3.171875 -12.03125 C 3.171875 -11.769531 3.085938 -11.550781 2.921875 -11.375 C 2.753906 -11.195312 2.507812 -11.109375 2.1875 -11.109375 C 1.875 -11.109375 1.632812 -11.195312 1.46875 -11.375 C 1.3125 -11.550781 1.234375 -11.769531 1.234375 -12.03125 Z M 1.234375 -12.03125 "/></g></g></g><g fill="#17191a" fill-opacity="1"><g transform="translate(108.861371, 43.333573)"><g><path d="M 2.765625 -9.515625 L 2.796875 -8.453125 C 3.492188 -9.273438 4.4375 -9.6875 5.625 -9.6875 C 6.957031 -9.6875 7.863281 -9.175781 8.34375 -8.15625 C 8.65625 -8.613281 9.066406 -8.984375 9.578125 -9.265625 C 10.085938 -9.546875 10.6875 -9.6875 11.375 -9.6875 C 13.457031 -9.6875 14.519531 -8.582031 14.5625 -6.375 L 14.5625 0 L 12.921875 0 L 12.921875 -6.28125 C 12.921875 -6.957031 12.765625 -7.460938 12.453125 -7.796875 C 12.148438 -8.140625 11.632812 -8.3125 10.90625 -8.3125 C 10.300781 -8.3125 9.796875 -8.128906 9.390625 -7.765625 C 8.992188 -7.398438 8.765625 -6.914062 8.703125 -6.3125 L 8.703125 0 L 7.0625 0 L 7.0625 -6.234375 C 7.0625 -7.617188 6.382812 -8.3125 5.03125 -8.3125 C 3.96875 -8.3125 3.238281 -7.851562 2.84375 -6.9375 L 2.84375 0 L 1.21875 0 L 1.21875 -9.515625 Z M 2.765625 -9.515625 "/></g></g></g><g fill="#17191a" fill-opacity="1"><g transform="translate(124.633806, 43.333573)"><g><path d="M 7.109375 0 C 7.015625 -0.1875 6.9375 -0.519531 6.875 -1 C 6.113281 -0.21875 5.210938 0.171875 4.171875 0.171875 C 3.234375 0.171875 2.460938 -0.09375 1.859375 -0.625 C 1.253906 -1.15625 0.953125 -1.828125 0.953125 -2.640625 C 0.953125 -3.628906 1.328125 -4.394531 2.078125 -4.9375 C 2.835938 -5.488281 3.898438 -5.765625 5.265625 -5.765625 L 6.84375 -5.765625 L 6.84375 -6.515625 C 6.84375 -7.078125 6.671875 -7.523438 6.328125 -7.859375 C 5.992188 -8.203125 5.492188 -8.375 4.828125 -8.375 C 4.253906 -8.375 3.769531 -8.226562 3.375 -7.9375 C 2.976562 -7.644531 2.78125 -7.289062 2.78125 -6.875 L 1.15625 -6.875 C 1.15625 -7.34375 1.320312 -7.796875 1.65625 -8.234375 C 1.988281 -8.679688 2.441406 -9.035156 3.015625 -9.296875 C 3.597656 -9.554688 4.238281 -9.6875 4.9375 -9.6875 C 6.03125 -9.6875 6.882812 -9.410156 7.5 -8.859375 C 8.125 -8.316406 8.445312 -7.5625 8.46875 -6.59375 L 8.46875 -2.21875 C 8.46875 -1.351562 8.582031 -0.660156 8.8125 -0.140625 L 8.8125 0 Z M 4.40625 -1.234375 C 4.914062 -1.234375 5.398438 -1.363281 5.859375 -1.625 C 6.316406 -1.894531 6.644531 -2.238281 6.84375 -2.65625 L 6.84375 -4.609375 L 5.578125 -4.609375 C 3.578125 -4.609375 2.578125 -4.023438 2.578125 -2.859375 C 2.578125 -2.347656 2.75 -1.945312 3.09375 -1.65625 C 3.4375 -1.375 3.875 -1.234375 4.40625 -1.234375 Z M 4.40625 -1.234375 "/></g></g></g><g fill="#17191a" fill-opacity="1"><g transform="translate(134.422381, 43.333573)"><g/></g></g><g fill="#17191a" fill-opacity="1"><g transform="translate(138.877325, 43.333573)"><g><path d="M 9.28125 -4.65625 C 9.28125 -3.195312 8.945312 -2.023438 8.28125 -1.140625 C 7.613281 -0.265625 6.71875 0.171875 5.59375 0.171875 C 4.382812 0.171875 3.453125 -0.25 2.796875 -1.09375 L 2.71875 0 L 1.234375 0 L 1.234375 -13.5 L 2.859375 -13.5 L 2.859375 -8.46875 C 3.515625 -9.28125 4.414062 -9.6875 5.5625 -9.6875 C 6.71875 -9.6875 7.625 -9.25 8.28125 -8.375 C 8.945312 -7.5 9.28125 -6.304688 9.28125 -4.796875 Z M 7.65625 -4.828125 C 7.65625 -5.941406 7.441406 -6.800781 7.015625 -7.40625 C 6.585938 -8.007812 5.972656 -8.3125 5.171875 -8.3125 C 4.097656 -8.3125 3.328125 -7.8125 2.859375 -6.8125 L 2.859375 -2.703125 C 3.359375 -1.703125 4.132812 -1.203125 5.1875 -1.203125 C 5.96875 -1.203125 6.570312 -1.503906 7 -2.109375 C 7.4375 -2.710938 7.65625 -3.617188 7.65625 -4.828125 Z M 7.65625 -4.828125 "/></g></g></g><g fill="#17191a" fill-opacity="1"><g transform="translate(148.973441, 43.333573)"><g><path d="M 5.828125 -8.046875 C 5.578125 -8.085938 5.3125 -8.109375 5.03125 -8.109375 C 3.957031 -8.109375 3.234375 -7.65625 2.859375 -6.75 L 2.859375 0 L 1.234375 0 L 1.234375 -9.515625 L 2.8125 -9.515625 L 2.84375 -8.40625 C 3.375 -9.257812 4.128906 -9.6875 5.109375 -9.6875 C 5.421875 -9.6875 5.660156 -9.644531 5.828125 -9.5625 Z M 5.828125 -8.046875 "/></g></g></g><g fill="#17191a" fill-opacity="1"><g transform="translate(155.062743, 43.333573)"><g><path d="M 0.796875 -4.84375 C 0.796875 -5.769531 0.976562 -6.601562 1.34375 -7.34375 C 1.71875 -8.09375 2.226562 -8.671875 2.875 -9.078125 C 3.53125 -9.484375 4.273438 -9.6875 5.109375 -9.6875 C 6.410156 -9.6875 7.457031 -9.238281 8.25 -8.34375 C 9.050781 -7.445312 9.453125 -6.253906 9.453125 -4.765625 L 9.453125 -4.65625 C 9.453125 -3.726562 9.273438 -2.894531 8.921875 -2.15625 C 8.566406 -1.425781 8.0625 -0.851562 7.40625 -0.4375 C 6.75 -0.03125 5.992188 0.171875 5.140625 0.171875 C 3.847656 0.171875 2.800781 -0.273438 2 -1.171875 C 1.195312 -2.066406 0.796875 -3.253906 0.796875 -4.734375 Z M 2.4375 -4.65625 C 2.4375 -3.59375 2.679688 -2.742188 3.171875 -2.109375 C 3.660156 -1.472656 4.316406 -1.15625 5.140625 -1.15625 C 5.960938 -1.15625 6.613281 -1.476562 7.09375 -2.125 C 7.582031 -2.769531 7.828125 -3.675781 7.828125 -4.84375 C 7.828125 -5.882812 7.578125 -6.726562 7.078125 -7.375 C 6.585938 -8.019531 5.929688 -8.34375 5.109375 -8.34375 C 4.304688 -8.34375 3.660156 -8.023438 3.171875 -7.390625 C 2.679688 -6.753906 2.4375 -5.84375 2.4375 -4.65625 Z M 2.4375 -4.65625 "/></g></g></g><g fill="#17191a" fill-opacity="1"><g transform="translate(165.325809, 43.333573)"><g><path d="M 2.90625 -9.515625 L 2.90625 1.09375 C 2.90625 2.925781 2.078125 3.84375 0.421875 3.84375 C 0.0664062 3.84375 -0.265625 3.789062 -0.578125 3.6875 L -0.578125 2.375 C -0.390625 2.425781 -0.140625 2.453125 0.171875 2.453125 C 0.535156 2.453125 0.8125 2.351562 1 2.15625 C 1.1875 1.957031 1.28125 1.617188 1.28125 1.140625 L 1.28125 -9.515625 Z M 1.109375 -12.03125 C 1.109375 -12.289062 1.1875 -12.507812 1.34375 -12.6875 C 1.507812 -12.875 1.75 -12.96875 2.0625 -12.96875 C 2.382812 -12.96875 2.625 -12.875 2.78125 -12.6875 C 2.945312 -12.507812 3.03125 -12.289062 3.03125 -12.03125 C 3.03125 -11.769531 2.945312 -11.550781 2.78125 -11.375 C 2.625 -11.195312 2.382812 -11.109375 2.0625 -11.109375 C 1.75 -11.109375 1.507812 -11.195312 1.34375 -11.375 C 1.1875 -11.550781 1.109375 -11.769531 1.109375 -12.03125 Z M 1.109375 -12.03125 "/></g></g></g><g fill="#17191a" fill-opacity="1"><g transform="translate(169.622096, 43.333573)"><g/></g></g><g fill="#17191a" fill-opacity="1"><g transform="translate(174.077041, 43.333573)"><g/></g></g><g fill="#17191a" fill-opacity="1"><g transform="translate(178.531985, 43.333573)"><g/></g></g><g fill="#17191a" fill-opacity="1"><g transform="translate(182.986929, 43.333573)"><g/></g></g><g fill="#17191a" fill-opacity="1"><g transform="translate(187.441873, 43.333573)"><g/></g></g><g fill="#17191a" fill-opacity="1"><g transform="translate(191.896817, 43.333573)"><g/></g></g><g fill="#17191a" fill-opacity="1"><g transform="translate(196.351761, 43.333573)"><g/></g></g><g fill="#17191a" fill-opacity="1"><g transform="translate(200.806705, 43.333573)"><g/></g></g><g fill="#17191a" fill-opacity="1"><g transform="translate(205.261649, 43.333573)"><g/></g></g><g fill="#17191a" fill-opacity="1"><g transform="translate(209.716593, 43.333573)"><g/></g></g><g fill="#17191a" fill-opacity="1"><g transform="translate(214.171537, 43.333573)"><g/></g></g><g fill="#17191a" fill-opacity="1"><g transform="translate(218.626481, 43.333573)"><g/></g></g><g fill="#17191a" fill-opacity="1"><g transform="translate(223.081425, 43.333573)"><g/></g></g><g fill="#17191a" fill-opacity="1"><g transform="translate(227.536369, 43.333573)"><g/></g></g><g fill="#17191a" fill-opacity="1"><g transform="translate(231.991313, 43.333573)"><g/></g></g><g fill="#17191a" fill-opacity="1"><g transform="translate(236.446257, 43.333573)"><g/></g></g><g fill="#17191a" fill-opacity="1"><g transform="translate(240.901201, 43.333573)"><g/></g></g><g fill="#17191a" fill-opacity="1"><g transform="translate(245.356145, 43.333573)"><g/></g></g><g fill="#17191a" fill-opacity="1"><g transform="translate(249.811089, 43.333573)"><g/></g></g><g fill="#17191a" fill-opacity="1"><g transform="translate(254.266033, 43.333573)"><g/></g></g><g fill="#17191a" fill-opacity="1"><g transform="translate(258.720977, 43.333573)"><g/></g></g><g fill="#17191a" fill-opacity="1"><g transform="translate(263.175921, 43.333573)"><g/></g></g><g fill="#17191a" fill-opacity="1"><g transform="translate(267.630865, 43.333573)"><g/></g></g><g fill="#17191a" fill-opacity="1"><g transform="translate(272.080632, 43.333573)"><g><path d="M 3.140625 -3.609375 C 3.148438 -4.304688 3.226562 -4.851562 3.375 -5.25 C 3.519531 -5.65625 3.816406 -6.101562 4.265625 -6.59375 L 5.421875 -7.78125 C 5.910156 -8.34375 6.15625 -8.941406 6.15625 -9.578125 C 6.15625 -10.191406 5.992188 -10.671875 5.671875 -11.015625 C 5.347656 -11.367188 4.878906 -11.546875 4.265625 -11.546875 C 3.671875 -11.546875 3.191406 -11.382812 2.828125 -11.0625 C 2.460938 -10.75 2.28125 -10.328125 2.28125 -9.796875 L 0.65625 -9.796875 C 0.664062 -10.742188 1.003906 -11.507812 1.671875 -12.09375 C 2.335938 -12.675781 3.203125 -12.96875 4.265625 -12.96875 C 5.378906 -12.96875 6.242188 -12.671875 6.859375 -12.078125 C 7.472656 -11.484375 7.78125 -10.671875 7.78125 -9.640625 C 7.78125 -8.609375 7.304688 -7.59375 6.359375 -6.59375 L 5.40625 -5.65625 C 4.976562 -5.175781 4.765625 -4.492188 4.765625 -3.609375 Z M 3.0625 -0.8125 C 3.0625 -1.082031 3.140625 -1.304688 3.296875 -1.484375 C 3.460938 -1.660156 3.703125 -1.75 4.015625 -1.75 C 4.335938 -1.75 4.582031 -1.660156 4.75 -1.484375 C 4.914062 -1.304688 5 -1.082031 5 -0.8125 C 5 -0.550781 4.914062 -0.332031 4.75 -0.15625 C 4.582031 0.0078125 4.335938 0.09375 4.015625 0.09375 C 3.703125 0.09375 3.460938 0.0078125 3.296875 -0.15625 C 3.140625 -0.332031 3.0625 -0.550781 3.0625 -0.8125 Z M 3.0625 -0.8125 "/></g></g></g><path fill="#17191a" d="M 181.21875 43.117188 L 180.746094 43.117188 C 180.679688 43.484375 180.507812 44.683594 180.292969 45.03125 C 180.140625 45.230469 178.910156 45.230469 178.261719 45.230469 L 174.269531 45.230469 C 174.851562 44.726562 176.167969 43.332031 176.730469 42.8125 C 180.011719 39.761719 181.21875 38.628906 181.21875 36.46875 C 181.21875 33.964844 179.257812 32.289062 176.753906 32.289062 C 174.25 32.289062 172.78125 34.445312 172.78125 36.316406 C 172.78125 37.429688 173.730469 37.429688 173.792969 37.429688 C 174.25 37.429688 174.808594 37.101562 174.808594 36.40625 C 174.808594 35.796875 174.398438 35.382812 173.792969 35.382812 C 173.601562 35.382812 173.558594 35.382812 173.492188 35.402344 C 173.902344 33.921875 175.070312 32.917969 176.472656 32.917969 C 178.304688 32.917969 179.429688 34.464844 179.429688 36.46875 C 179.429688 38.324219 178.371094 39.933594 177.140625 41.328125 L 172.78125 46.253906 L 172.78125 46.777344 L 180.660156 46.777344 Z M 181.21875 43.117188 " fill-opacity="1" fill-rule="nonzero"/><path fill="#17191a" d="M 184.277344 32.972656 C 184.277344 31.765625 184.378906 30.707031 184.894531 29.820312 C 185.328125 29.09375 186.0625 28.5 186.96875 28.5 C 187.253906 28.5 187.917969 28.542969 188.246094 29.050781 C 187.601562 29.078125 187.542969 29.574219 187.542969 29.734375 C 187.542969 30.167969 187.875 30.417969 188.21875 30.417969 C 188.476562 30.417969 188.894531 30.257812 188.894531 29.703125 C 188.894531 28.832031 188.246094 28.121094 186.953125 28.121094 C 184.953125 28.121094 182.921875 30.039062 182.921875 33.175781 C 182.921875 37.113281 184.738281 38.085938 186.132812 38.085938 C 186.824219 38.085938 187.570312 37.898438 188.21875 37.273438 C 188.792969 36.707031 189.285156 36.09375 189.285156 34.832031 C 189.285156 32.929688 187.859375 31.59375 186.261719 31.59375 C 185.226562 31.59375 184.605469 32.261719 184.277344 32.972656 Z M 186.132812 37.648438 C 185.371094 37.648438 184.894531 37.113281 184.679688 36.707031 C 184.347656 36.050781 184.320312 35.0625 184.320312 34.511719 C 184.320312 33.074219 185.097656 32 186.203125 32 C 186.925781 32 187.355469 32.378906 187.628906 32.886719 C 187.929688 33.421875 187.929688 34.078125 187.929688 34.816406 C 187.929688 35.558594 187.929688 36.195312 187.644531 36.71875 C 187.269531 37.386719 186.765625 37.648438 186.132812 37.648438 Z M 186.132812 37.648438 " fill-opacity="1" fill-rule="nonzero"/><path fill="#17191a" d="M 196.972656 33.148438 C 196.972656 31.59375 196.8125 30.648438 196.339844 29.71875 C 195.707031 28.441406 194.539062 28.121094 193.75 28.121094 C 191.933594 28.121094 191.273438 29.488281 191.070312 29.894531 C 190.554688 30.953125 190.523438 32.390625 190.523438 33.148438 C 190.523438 34.105469 190.566406 35.574219 191.257812 36.734375 C 191.921875 37.808594 192.984375 38.085938 193.75 38.085938 C 194.4375 38.085938 195.675781 37.867188 196.394531 36.429688 C 196.929688 35.382812 196.972656 34.089844 196.972656 33.148438 Z M 193.75 37.679688 C 193.257812 37.679688 192.265625 37.445312 191.964844 35.921875 C 191.804688 35.09375 191.804688 33.726562 191.804688 32.972656 C 191.804688 31.96875 191.804688 30.953125 191.964844 30.15625 C 192.265625 28.671875 193.390625 28.527344 193.75 28.527344 C 194.238281 28.527344 195.230469 28.773438 195.519531 30.097656 C 195.691406 30.894531 195.691406 31.984375 195.691406 32.972656 C 195.691406 33.828125 195.691406 35.136719 195.519531 35.949219 C 195.214844 37.476562 194.222656 37.679688 193.75 37.679688 Z M 193.75 37.679688 " fill-opacity="1" fill-rule="nonzero"/><g clip-path="url(#e1f68e5df7)"><path fill="#17191a" d="M 203.25 28.382812 C 203.25 28.09375 203.25 27.976562 202.949219 27.976562 C 202.761719 27.976562 202.746094 27.992188 202.605469 28.195312 L 198.011719 34.917969 L 198.011719 35.398438 L 202.070312 35.398438 L 202.070312 36.605469 C 202.070312 37.140625 202.027344 37.300781 200.921875 37.300781 L 200.589844 37.300781 L 200.589844 37.78125 C 201.8125 37.738281 201.839844 37.738281 202.660156 37.738281 C 203.480469 37.738281 203.511719 37.738281 204.734375 37.78125 L 204.734375 37.300781 L 204.402344 37.300781 C 203.292969 37.300781 203.25 37.140625 203.25 36.605469 L 203.25 35.398438 L 204.777344 35.398438 L 204.777344 34.917969 L 203.25 34.917969 Z M 202.171875 29.558594 L 202.171875 34.917969 L 198.515625 34.917969 Z M 202.171875 29.558594 " fill-opacity="1" fill-rule="nonzero"/></g><path fill="#17191a" d="M 216.859375 37.472656 C 216.878906 37.167969 216.878906 36.644531 216.320312 36.644531 C 215.972656 36.644531 215.691406 36.929688 215.757812 37.210938 L 215.757812 37.496094 L 216.058594 40.871094 L 213.296875 38.84375 C 213.101562 38.738281 213.058594 38.691406 212.910156 38.691406 C 212.605469 38.691406 212.324219 38.996094 212.324219 39.304688 C 212.324219 39.652344 212.542969 39.738281 212.757812 39.847656 L 215.824219 41.328125 L 212.84375 42.789062 C 212.5 42.964844 212.324219 43.050781 212.324219 43.378906 C 212.324219 43.703125 212.605469 43.988281 212.910156 43.988281 C 213.058594 43.988281 213.101562 43.988281 213.640625 43.574219 L 216.058594 41.808594 L 215.734375 45.46875 C 215.734375 45.925781 216.125 46.035156 216.296875 46.035156 C 216.554688 46.035156 216.878906 45.882812 216.878906 45.46875 L 216.554688 41.808594 L 219.320312 43.835938 C 219.515625 43.945312 219.558594 43.988281 219.707031 43.988281 C 220.011719 43.988281 220.289062 43.683594 220.289062 43.378906 C 220.289062 43.050781 220.097656 42.941406 219.835938 42.8125 C 218.542969 42.15625 218.5 42.15625 216.792969 41.351562 L 219.773438 39.890625 C 220.117188 39.71875 220.289062 39.628906 220.289062 39.304688 C 220.289062 38.976562 220.011719 38.691406 219.707031 38.691406 C 219.558594 38.691406 219.515625 38.691406 218.972656 39.105469 L 216.554688 40.871094 Z M 216.859375 37.472656 " fill-opacity="1" fill-rule="nonzero"/><path fill="#17191a" d="M 232.726562 32.808594 C 232.726562 32.308594 232.726562 32.289062 232.296875 32.289062 C 231.777344 32.875 230.699219 33.679688 228.476562 33.679688 L 228.476562 34.3125 C 228.972656 34.3125 230.050781 34.3125 231.238281 33.746094 L 231.238281 45.097656 C 231.238281 45.882812 231.175781 46.144531 229.273438 46.144531 L 228.605469 46.144531 L 228.605469 46.777344 C 229.1875 46.734375 231.28125 46.734375 231.996094 46.734375 C 232.707031 46.734375 234.777344 46.734375 235.363281 46.777344 L 235.363281 46.144531 L 234.691406 46.144531 C 232.792969 46.144531 232.726562 45.882812 232.726562 45.097656 Z M 232.726562 32.808594 " fill-opacity="1" fill-rule="nonzero"/><g clip-path="url(#d3624d5eb0)"><path fill="#17191a" d="M 239.84375 34.292969 C 240.769531 34.597656 241.527344 34.617188 241.761719 34.617188 C 244.203125 34.617188 245.757812 32.808594 245.757812 32.503906 C 245.757812 32.417969 245.714844 32.308594 245.585938 32.308594 C 245.539062 32.308594 245.496094 32.308594 245.304688 32.394531 C 244.09375 32.917969 243.058594 32.984375 242.496094 32.984375 C 241.074219 32.984375 240.058594 32.546875 239.648438 32.375 C 239.496094 32.308594 239.453125 32.308594 239.433594 32.308594 C 239.257812 32.308594 239.257812 32.441406 239.257812 32.789062 L 239.257812 39.257812 C 239.257812 39.652344 239.257812 39.78125 239.519531 39.78125 C 239.625 39.78125 239.648438 39.761719 239.863281 39.5 C 240.46875 38.605469 241.484375 38.082031 242.5625 38.082031 C 243.707031 38.082031 244.265625 39.152344 244.441406 39.519531 C 244.808594 40.371094 244.828125 41.4375 244.828125 42.265625 C 244.828125 43.09375 244.828125 44.335938 244.222656 45.316406 C 243.75 46.101562 242.90625 46.644531 241.957031 46.644531 C 240.53125 46.644531 239.128906 45.664062 238.742188 44.074219 C 238.847656 44.117188 238.980469 44.140625 239.085938 44.140625 C 239.453125 44.140625 240.035156 43.921875 240.035156 43.179688 C 240.035156 42.570312 239.625 42.222656 239.085938 42.222656 C 238.699219 42.222656 238.136719 42.417969 238.136719 43.269531 C 238.136719 45.121094 239.605469 47.234375 242 47.234375 C 244.441406 47.234375 246.578125 45.164062 246.578125 42.398438 C 246.578125 39.804688 244.851562 37.648438 242.582031 37.648438 C 241.351562 37.648438 240.402344 38.191406 239.84375 38.800781 Z M 239.84375 34.292969 " fill-opacity="1" fill-rule="nonzero"/></g><g clip-path="url(#89ba098699)"><path fill="#17191a" d="M 253.316406 28.382812 C 253.316406 28.09375 253.316406 27.976562 253.015625 27.976562 C 252.828125 27.976562 252.8125 27.992188 252.667969 28.195312 L 248.078125 34.917969 L 248.078125 35.398438 L 252.136719 35.398438 L 252.136719 36.605469 C 252.136719 37.140625 252.09375 37.300781 250.984375 37.300781 L 250.65625 37.300781 L 250.65625 37.78125 C 251.878906 37.738281 251.90625 37.738281 252.726562 37.738281 C 253.546875 37.738281 253.574219 37.738281 254.800781 37.78125 L 254.800781 37.300781 L 254.46875 37.300781 C 253.359375 37.300781 253.316406 37.140625 253.316406 36.605469 L 253.316406 35.398438 L 254.84375 35.398438 L 254.84375 34.917969 L 253.316406 34.917969 Z M 252.238281 29.558594 L 252.238281 34.917969 L 248.582031 34.917969 Z M 252.238281 29.558594 " fill-opacity="1" fill-rule="nonzero"/></g><path fill="#17191a" d="M 257.304688 29.617188 C 257.492188 29.675781 258.070312 29.820312 258.671875 29.820312 C 260.472656 29.820312 261.566406 28.542969 261.566406 28.324219 C 261.566406 28.164062 261.464844 28.121094 261.394531 28.121094 C 261.363281 28.121094 261.335938 28.121094 261.207031 28.195312 C 260.644531 28.410156 259.984375 28.585938 259.207031 28.585938 C 258.355469 28.585938 257.652344 28.367188 257.207031 28.195312 C 257.0625 28.121094 257.03125 28.121094 257.019531 28.121094 C 256.832031 28.121094 256.832031 28.28125 256.832031 28.542969 L 256.832031 32.796875 C 256.832031 33.058594 256.832031 33.234375 257.0625 33.234375 C 257.175781 33.234375 257.21875 33.175781 257.292969 33.058594 C 257.464844 32.84375 258.011719 32.101562 259.234375 32.101562 C 260.039062 32.101562 260.429688 32.769531 260.558594 33.046875 C 260.804688 33.566406 260.832031 34.234375 260.832031 34.804688 C 260.832031 35.339844 260.816406 36.125 260.414062 36.765625 C 260.140625 37.199219 259.566406 37.648438 258.804688 37.648438 C 257.867188 37.648438 256.945312 37.054688 256.617188 36.109375 C 256.660156 36.125 256.746094 36.125 256.757812 36.125 C 257.164062 36.125 257.480469 35.863281 257.480469 35.414062 C 257.480469 34.875 257.0625 34.6875 256.773438 34.6875 C 256.515625 34.6875 256.054688 34.832031 256.054688 35.457031 C 256.054688 36.765625 257.175781 38.085938 258.832031 38.085938 C 260.628906 38.085938 262.15625 36.675781 262.15625 34.875 C 262.15625 33.191406 260.949219 31.695312 259.25 31.695312 C 258.53125 31.695312 257.851562 31.925781 257.304688 32.421875 Z M 257.304688 29.617188 " fill-opacity="1" fill-rule="nonzero"/><g clip-path="url(#9cbcd28f46)"><path fill="#17191a" d="M 269.972656 33.148438 C 269.972656 31.59375 269.816406 30.648438 269.339844 29.71875 C 268.707031 28.441406 267.542969 28.121094 266.75 28.121094 C 264.9375 28.121094 264.273438 29.488281 264.074219 29.894531 C 263.554688 30.953125 263.527344 32.390625 263.527344 33.148438 C 263.527344 34.105469 263.570312 35.574219 264.261719 36.734375 C 264.921875 37.808594 265.988281 38.085938 266.75 38.085938 C 267.441406 38.085938 268.679688 37.867188 269.398438 36.429688 C 269.929688 35.382812 269.972656 34.089844 269.972656 33.148438 Z M 266.75 37.679688 C 266.261719 37.679688 265.269531 37.445312 264.964844 35.921875 C 264.808594 35.09375 264.808594 33.726562 264.808594 32.972656 C 264.808594 31.96875 264.808594 30.953125 264.964844 30.15625 C 265.269531 28.671875 266.390625 28.527344 266.75 28.527344 C 267.238281 28.527344 268.230469 28.773438 268.519531 30.097656 C 268.691406 30.894531 268.691406 31.984375 268.691406 32.972656 C 268.691406 33.828125 268.691406 35.136719 268.519531 35.949219 C 268.21875 37.476562 267.226562 37.679688 266.75 37.679688 Z M 266.75 37.679688 " fill-opacity="1" fill-rule="nonzero"/></g></svg>