<svg xmlns="http://www.w3.org/2000/svg" xmlns:xlink="http://www.w3.org/1999/xlink" width="40" zoomAndPan="magnify" viewBox="0 0 30 30.000001" height="40" preserveAspectRatio="xMidYMid meet" version="1.0"><defs><clipPath id="d4e0de8aa4"><path d="M 0.484375 0 L 29.515625 0 L 29.515625 29 L 0.484375 29 Z M 0.484375 0 " clip-rule="nonzero"/></clipPath><clipPath id="69063998bf"><path d="M 0.484375 0 L 29.515625 0 L 29.515625 29.03125 L 0.484375 29.03125 Z M 0.484375 0 " clip-rule="nonzero"/></clipPath></defs><g clip-path="url(#d4e0de8aa4)"><path fill="#a9a9a9" d="M 8.359375 1.820312 L 7.632812 1.820312 L 7.632812 0.371094 L 8.359375 0.371094 Z M 9.445312 21.164062 L 9.445312 21.886719 L 7.996094 21.886719 L 7.996094 21.390625 L 7.632812 21.390625 L 7.632812 19.941406 L 8.359375 19.941406 L 8.359375 21.164062 Z M 0.59375 28.414062 L 1.171875 27.839844 L 1.683594 28.351562 L 1.109375 28.925781 Z M 2.195312 27.839844 L 1.683594 27.324219 L 2.710938 26.300781 L 3.222656 26.8125 Z M 3.734375 26.300781 L 3.222656 25.789062 L 4.246094 24.761719 L 4.761719 25.273438 Z M 5.273438 24.761719 L 6.296875 23.738281 L 5.785156 23.226562 L 4.761719 24.25 Z M 6.808594 23.226562 L 7.835938 22.199219 L 7.324219 21.6875 L 6.296875 22.710938 Z M 8.359375 19.21875 L 7.632812 19.21875 L 7.632812 17.769531 L 8.359375 17.769531 Z M 8.359375 17.042969 L 7.632812 17.042969 L 7.632812 15.59375 L 8.359375 15.59375 Z M 8.359375 14.867188 L 7.632812 14.867188 L 7.632812 13.417969 L 8.359375 13.417969 Z M 8.359375 12.695312 L 7.632812 12.695312 L 7.632812 11.242188 L 8.359375 11.242188 Z M 8.359375 10.519531 L 7.632812 10.519531 L 7.632812 9.070312 L 8.359375 9.070312 Z M 8.359375 8.34375 L 7.632812 8.34375 L 7.632812 6.894531 L 8.359375 6.894531 Z M 8.359375 6.167969 L 7.632812 6.167969 L 7.632812 4.71875 L 8.359375 4.71875 Z M 8.359375 3.996094 L 7.632812 3.996094 L 7.632812 2.546875 L 8.359375 2.546875 Z M 29.019531 21.164062 L 29.019531 21.886719 L 27.566406 21.886719 L 27.566406 21.164062 Z M 26.84375 21.164062 L 26.84375 21.886719 L 25.394531 21.886719 L 25.394531 21.164062 Z M 24.667969 21.164062 L 24.667969 21.886719 L 23.21875 21.886719 L 23.21875 21.164062 Z M 22.492188 21.164062 L 22.492188 21.886719 L 21.042969 21.886719 L 21.042969 21.164062 Z M 20.320312 21.164062 L 20.320312 21.886719 L 18.871094 21.886719 L 18.871094 21.164062 Z M 18.144531 21.164062 L 18.144531 21.886719 L 16.695312 21.886719 L 16.695312 21.164062 Z M 15.96875 21.164062 L 15.96875 21.886719 L 14.519531 21.886719 L 14.519531 21.164062 Z M 13.796875 21.164062 L 13.796875 21.886719 L 12.347656 21.886719 L 12.347656 21.164062 Z M 11.621094 21.164062 L 11.621094 21.886719 L 10.171875 21.886719 L 10.171875 21.164062 Z M 11.621094 21.164062 " fill-opacity="1" fill-rule="evenodd"/></g><g clip-path="url(#69063998bf)"><path fill="#231f20" d="M 1.726562 7.152344 L 21.855469 7.152344 L 28.277344 0.734375 L 8.148438 0.734375 Z M 29.136719 0.0078125 C 29.347656 0 29.515625 0.164062 29.515625 0.371094 L 29.515625 21.527344 C 29.515625 21.625 29.472656 21.714844 29.40625 21.78125 L 22.261719 28.925781 L 21.996094 29.03125 L 0.851562 29.03125 C 0.652344 29.03125 0.488281 28.871094 0.488281 28.671875 L 0.488281 7.515625 L 0.59375 7.257812 L 7.742188 0.113281 C 7.8125 0.0429688 7.902344 0.0078125 7.996094 0.0078125 Z M 22.371094 7.664062 L 28.789062 1.246094 L 28.789062 21.375 L 22.371094 27.796875 Z M 21.644531 7.878906 L 1.214844 7.878906 L 1.214844 28.308594 L 21.644531 28.308594 Z M 21.644531 7.878906 " fill-opacity="1" fill-rule="evenodd"/></g></svg>