<svg xmlns="http://www.w3.org/2000/svg" xmlns:xlink="http://www.w3.org/1999/xlink" width="96" zoomAndPan="magnify" viewBox="0 0 72 72" height="96" preserveAspectRatio="xMidYMid meet" version="1.0"><defs><clipPath id="860d21efed"><path d="M 1.238281 0.628906 L 70.761719 0.628906 L 70.761719 68.539062 L 1.238281 68.539062 Z M 1.238281 0.628906 " clip-rule="nonzero"/></clipPath></defs><g clip-path="url(#860d21efed)"><path fill="#17191a" d="M 69.019531 30.804688 C 70.902344 32.679688 70.902344 35.726562 69.019531 37.601562 L 39.261719 67.132812 C 38.316406 68.070312 37.070312 68.539062 35.832031 68.539062 C 34.59375 68.539062 33.355469 68.070312 32.410156 67.132812 L 2.652344 37.601562 C 0.757812 35.726562 0.757812 32.679688 2.652344 30.804688 C 4.546875 28.929688 7.613281 28.929688 9.507812 30.804688 L 35.832031 56.933594 L 62.15625 30.804688 C 64.058594 28.929688 67.125 28.929688 69.019531 30.804688 Z M 32.410156 38.363281 C 33.355469 39.300781 34.59375 39.769531 35.832031 39.769531 C 37.070312 39.769531 38.316406 39.300781 39.261719 38.363281 L 69.019531 8.839844 C 70.902344 6.957031 70.902344 3.910156 69.019531 2.035156 C 67.125 0.160156 64.058594 0.160156 62.15625 2.035156 L 35.832031 28.164062 L 9.507812 2.035156 C 7.613281 0.160156 4.546875 0.160156 2.652344 2.035156 C 0.757812 3.910156 0.757812 6.957031 2.652344 8.839844 Z M 32.410156 38.363281 " fill-opacity="1" fill-rule="nonzero"/></g></svg>