<svg xmlns="http://www.w3.org/2000/svg" xmlns:xlink="http://www.w3.org/1999/xlink" width="40" zoomAndPan="magnify" viewBox="0 0 30 30.000001" height="40" preserveAspectRatio="xMidYMid meet" version="1.0"><defs><clipPath id="665382bebd"><path d="M 0.515625 0.261719 L 29.484375 0.261719 L 29.484375 28.558594 L 0.515625 28.558594 Z M 0.515625 0.261719 " clip-rule="nonzero"/></clipPath></defs><g clip-path="url(#665382bebd)"><path fill="#fffdfa" d="M 28.757812 12.835938 C 29.542969 13.617188 29.542969 14.886719 28.757812 15.667969 L 16.359375 27.972656 C 15.964844 28.363281 15.445312 28.558594 14.929688 28.558594 C 14.414062 28.558594 13.898438 28.363281 13.503906 27.972656 L 1.105469 15.667969 C 0.316406 14.886719 0.316406 13.617188 1.105469 12.835938 C 1.894531 12.054688 3.171875 12.054688 3.960938 12.835938 L 14.929688 23.722656 L 25.898438 12.835938 C 26.691406 12.054688 27.96875 12.054688 28.757812 12.835938 Z M 13.503906 15.984375 C 13.898438 16.375 14.414062 16.570312 14.929688 16.570312 C 15.445312 16.570312 15.964844 16.375 16.359375 15.984375 L 28.757812 3.683594 C 29.542969 2.898438 29.542969 1.628906 28.757812 0.847656 C 27.96875 0.0664062 26.691406 0.0664062 25.898438 0.847656 L 14.929688 11.734375 L 3.960938 0.847656 C 3.171875 0.0664062 1.894531 0.0664062 1.105469 0.847656 C 0.316406 1.628906 0.316406 2.898438 1.105469 3.683594 Z M 13.503906 15.984375 " fill-opacity="1" fill-rule="nonzero"/></g></svg>