<svg xmlns="http://www.w3.org/2000/svg" xmlns:xlink="http://www.w3.org/1999/xlink" width="200" zoomAndPan="magnify" viewBox="0 0 150 74.999997" height="100" preserveAspectRatio="xMidYMid meet" version="1.0"><defs><g/></defs><g fill="#ffffff" fill-opacity="1"><g transform="translate(5.171952, 41.999996)"><g><path d="M -0.1875 9.421875 C -0.238281 9.515625 -0.285156 9.578125 -0.328125 9.609375 C -0.378906 9.648438 -0.578125 9.769531 -0.921875 9.96875 C -1.273438 10.164062 -1.59375 10.265625 -1.875 10.265625 C -2.15625 10.265625 -2.296875 10.195312 -2.296875 10.0625 C -2.296875 10 -2.273438 9.921875 -2.234375 9.828125 C -1.890625 9.160156 -0.0976562 4.691406 3.140625 -3.578125 C 2.535156 -3.492188 2.085938 -3.453125 1.796875 -3.453125 C 1.515625 -3.453125 1.289062 -3.515625 1.125 -3.640625 C 0.957031 -3.773438 0.875 -3.941406 0.875 -4.140625 C 0.875 -4.347656 1.09375 -4.53125 1.53125 -4.6875 C 1.96875 -4.851562 2.300781 -4.9375 2.53125 -4.9375 C 2.757812 -4.9375 2.953125 -4.859375 3.109375 -4.703125 C 3.265625 -4.546875 3.375 -4.46875 3.4375 -4.46875 L 3.515625 -4.46875 L 4.359375 -6.625 C 4.710938 -7.59375 5.242188 -8.859375 5.953125 -10.421875 C 6.671875 -11.984375 7.320312 -13.226562 7.90625 -14.15625 C 9.207031 -16.113281 10.503906 -17.09375 11.796875 -17.09375 L 12.5 -17 L 13.078125 -16.796875 C 13.640625 -16.460938 13.921875 -16.007812 13.921875 -15.4375 C 13.921875 -14.875 13.765625 -14.257812 13.453125 -13.59375 C 12.929688 -12.476562 11.863281 -11.019531 10.25 -9.21875 C 8.644531 -7.414062 7.097656 -5.910156 5.609375 -4.703125 C 7.203125 -4.835938 8.222656 -4.90625 8.671875 -4.90625 C 9.128906 -4.90625 9.367188 -4.847656 9.390625 -4.734375 C 9.390625 -4.660156 9.203125 -4.566406 8.828125 -4.453125 C 8.460938 -4.347656 6.972656 -4.101562 4.359375 -3.71875 C 2.054688 2.132812 0.882812 5.484375 0.84375 6.328125 C 0.820312 6.753906 0.773438 7.0625 0.703125 7.25 C 0.640625 7.4375 0.5625 7.648438 0.46875 7.890625 C 0.375 8.128906 0.300781 8.3125 0.25 8.4375 C 0.195312 8.5625 0.140625 8.703125 0.078125 8.859375 C 0.0234375 9.015625 -0.015625 9.125 -0.046875 9.1875 C -0.0859375 9.257812 -0.132812 9.335938 -0.1875 9.421875 Z M 12.640625 -14.015625 C 12.972656 -14.566406 13.140625 -15.09375 13.140625 -15.59375 C 13.140625 -16.101562 12.957031 -16.359375 12.59375 -16.359375 C 11.851562 -16.359375 10.804688 -15.410156 9.453125 -13.515625 C 8.648438 -12.390625 7.941406 -11.273438 7.328125 -10.171875 C 6.085938 -7.847656 5.289062 -6.15625 4.9375 -5.09375 L 4.703125 -4.625 C 6.066406 -5.625 7.515625 -7.054688 9.046875 -8.921875 C 10.578125 -10.785156 11.773438 -12.484375 12.640625 -14.015625 Z M 12.640625 -14.015625 "/></g></g></g><g fill="#ffffff" fill-opacity="1"><g transform="translate(13.483807, 41.999996)"><g><path d="M 13.421875 -16.359375 C 13.578125 -16.359375 13.65625 -16.289062 13.65625 -16.15625 C 13.613281 -15.96875 13.441406 -15.804688 13.140625 -15.671875 C 10.984375 -14.972656 9.015625 -13.785156 7.234375 -12.109375 C 5.453125 -10.429688 4.164062 -8.457031 3.375 -6.1875 C 2.8125 -4.519531 2.53125 -2.722656 2.53125 -0.796875 C 2.53125 1.128906 2.859375 2.757812 3.515625 4.09375 C 3.609375 4.289062 3.5625 4.492188 3.375 4.703125 C 3.175781 4.921875 2.960938 5.03125 2.734375 5.03125 C 2.503906 5.03125 2.328125 4.953125 2.203125 4.796875 C 1.316406 3.015625 0.875 1.113281 0.875 -0.90625 C 0.875 -3.070312 1.367188 -5.238281 2.359375 -7.40625 C 3.359375 -9.582031 4.863281 -11.492188 6.875 -13.140625 C 8.894531 -14.785156 11.007812 -15.847656 13.21875 -16.328125 C 13.300781 -16.347656 13.367188 -16.359375 13.421875 -16.359375 Z M 13.421875 -16.359375 "/></g></g></g><g fill="#ffffff" fill-opacity="1"><g transform="translate(24.527538, 41.999996)"><g><path d="M 12.40625 -7.671875 C 12.40625 -7.441406 12.179688 -7.328125 11.734375 -7.328125 C 10.734375 -6.941406 9.816406 -6.390625 8.984375 -5.671875 L 6.890625 -4.046875 C 6.890625 -3.484375 7.25 -2.550781 7.96875 -1.25 C 8.289062 -0.613281 8.707031 -0.296875 9.21875 -0.296875 C 9.738281 -0.296875 10.347656 -0.648438 11.046875 -1.359375 C 11.367188 -1.710938 12.160156 -2.691406 13.421875 -4.296875 C 13.523438 -4.410156 13.617188 -4.4375 13.703125 -4.375 C 13.785156 -4.320312 13.828125 -4.265625 13.828125 -4.203125 C 13.828125 -4.148438 13.8125 -4.085938 13.78125 -4.015625 C 12.882812 -2.648438 11.992188 -1.546875 11.109375 -0.703125 C 10.191406 0.128906 9.347656 0.546875 8.578125 0.546875 C 8.421875 0.546875 8.265625 0.53125 8.109375 0.5 C 7.140625 0.28125 6.316406 -0.84375 5.640625 -2.875 C 1.679688 1.132812 -0.332031 3.960938 -0.40625 5.609375 C -0.40625 5.835938 -0.472656 5.953125 -0.609375 5.953125 L -0.75 5.90625 C -0.832031 5.820312 -0.875 5.722656 -0.875 5.609375 C -0.875 4.566406 -0.363281 3.300781 0.65625 1.8125 C 1.6875 0.332031 2.71875 -0.945312 3.75 -2.03125 C 4.78125 -3.113281 5.296875 -3.6875 5.296875 -3.75 C 5.296875 -4.21875 5.15625 -4.6875 4.875 -5.15625 C 4.601562 -5.632812 4.378906 -5.90625 4.203125 -5.96875 C 4.035156 -6.039062 3.851562 -6.019531 3.65625 -5.90625 C 3.351562 -5.707031 3.039062 -5.398438 2.71875 -4.984375 C 2.394531 -4.566406 2.207031 -4.328125 2.15625 -4.265625 C 2.113281 -4.210938 2.050781 -4.132812 1.96875 -4.03125 C 1.894531 -3.9375 1.804688 -3.835938 1.703125 -3.734375 C 1.609375 -3.628906 1.507812 -3.582031 1.40625 -3.59375 C 1.300781 -3.601562 1.25 -3.65625 1.25 -3.75 C 1.25 -3.84375 1.285156 -3.941406 1.359375 -4.046875 C 1.441406 -4.160156 1.671875 -4.46875 2.046875 -4.96875 C 2.421875 -5.46875 2.738281 -5.890625 3 -6.234375 C 3.269531 -6.578125 3.582031 -6.898438 3.9375 -7.203125 C 4.289062 -7.515625 4.601562 -7.671875 4.875 -7.671875 C 5.15625 -7.671875 5.410156 -7.570312 5.640625 -7.375 C 5.867188 -7.1875 6.019531 -6.992188 6.09375 -6.796875 C 6.175781 -6.609375 6.289062 -6.265625 6.4375 -5.765625 C 6.582031 -5.273438 6.6875 -4.941406 6.75 -4.765625 C 8.195312 -6.203125 9.648438 -7.375 11.109375 -8.28125 C 11.253906 -8.34375 11.394531 -8.375 11.53125 -8.375 L 11.96875 -8.28125 C 12.257812 -8.144531 12.40625 -7.941406 12.40625 -7.671875 Z M 12.40625 -7.671875 "/></g></g></g><g fill="#ffffff" fill-opacity="1"><g transform="translate(36.443136, 41.999996)"><g><path d="M -0.78125 4.828125 C -0.9375 4.828125 -1.015625 4.769531 -1.015625 4.65625 C -1.015625 4.4375 -0.847656 4.269531 -0.515625 4.15625 C 1.628906 3.457031 3.59375 2.265625 5.375 0.578125 C 7.15625 -1.109375 8.445312 -3.082031 9.25 -5.34375 C 9.820312 -6.894531 10.109375 -8.660156 10.109375 -10.640625 C 10.109375 -12.628906 9.769531 -14.296875 9.09375 -15.640625 C 9 -15.828125 9.039062 -16.019531 9.21875 -16.21875 C 9.425781 -16.445312 9.644531 -16.5625 9.875 -16.5625 C 10.113281 -16.5625 10.289062 -16.484375 10.40625 -16.328125 C 11.300781 -14.546875 11.75 -12.640625 11.75 -10.609375 C 11.75 -8.441406 11.289062 -6.378906 10.375 -4.421875 C 9.3125 -2.054688 7.769531 -0.0507812 5.75 1.59375 C 3.738281 3.238281 1.628906 4.304688 -0.578125 4.796875 C -0.660156 4.816406 -0.726562 4.828125 -0.78125 4.828125 Z M -0.78125 4.828125 "/></g></g></g><g fill="#ffffff" fill-opacity="1"><g transform="translate(57.833104, 41.999996)"><g><path d="M 5.640625 -7.671875 L 14.09375 -7.703125 C 15.144531 -7.703125 15.671875 -7.585938 15.671875 -7.359375 C 15.671875 -7.160156 15.144531 -7.003906 14.09375 -6.890625 C 14.039062 -6.890625 11.132812 -6.800781 5.375 -6.625 C 4.90625 -6.582031 4.679688 -6.6875 4.703125 -6.9375 C 4.722656 -7.195312 4.921875 -7.410156 5.296875 -7.578125 C 5.429688 -7.640625 5.546875 -7.671875 5.640625 -7.671875 Z M 4.453125 -2.4375 C 4.078125 -2.4375 3.890625 -2.535156 3.890625 -2.734375 C 3.890625 -3.023438 4.101562 -3.265625 4.53125 -3.453125 L 4.828125 -3.546875 L 13.28125 -3.546875 C 14.320312 -3.546875 14.84375 -3.421875 14.84375 -3.171875 C 14.84375 -3.035156 14.726562 -2.941406 14.5 -2.890625 C 14.269531 -2.835938 14.085938 -2.804688 13.953125 -2.796875 C 13.546875 -2.734375 11.957031 -2.660156 9.1875 -2.578125 C 6.414062 -2.503906 4.941406 -2.460938 4.765625 -2.453125 C 4.585938 -2.441406 4.484375 -2.4375 4.453125 -2.4375 Z M 4.453125 -2.4375 "/></g></g></g><g fill="#ffffff" fill-opacity="1"><g transform="translate(79.86244, 41.999996)"><g><path d="M 4.96875 -7.5625 C 4.96875 -7.425781 4.859375 -7.128906 4.640625 -6.671875 C 4.429688 -6.210938 3.820312 -4.644531 2.8125 -1.96875 C 3.507812 -2.820312 4.394531 -3.8125 5.46875 -4.9375 C 7.613281 -7.1875 9.09375 -8.3125 9.90625 -8.3125 C 10.082031 -8.3125 10.253906 -8.257812 10.421875 -8.15625 C 10.585938 -8.0625 10.671875 -7.84375 10.671875 -7.5 C 10.671875 -7.164062 10.5625 -6.789062 10.34375 -6.375 C 10.132812 -5.957031 9.894531 -5.445312 9.625 -4.84375 C 9.351562 -4.25 9.164062 -3.875 9.0625 -3.71875 C 10.695312 -5.1875 11.929688 -6.082031 12.765625 -6.40625 C 13.597656 -6.726562 14.148438 -6.890625 14.421875 -6.890625 C 14.691406 -6.890625 14.828125 -6.789062 14.828125 -6.59375 C 14.828125 -6.476562 14.679688 -6.195312 14.390625 -5.75 C 14.097656 -5.3125 13.773438 -4.65625 13.421875 -3.78125 C 13.078125 -2.90625 12.882812 -2.289062 12.84375 -1.9375 C 12.800781 -1.59375 12.78125 -1.285156 12.78125 -1.015625 C 12.78125 -0.742188 12.859375 -0.519531 13.015625 -0.34375 C 13.304688 -0.0390625 13.703125 -0.0234375 14.203125 -0.296875 C 14.710938 -0.566406 15.414062 -1.109375 16.3125 -1.921875 C 17.21875 -2.734375 17.941406 -3.523438 18.484375 -4.296875 C 18.554688 -4.398438 18.644531 -4.425781 18.75 -4.375 C 18.863281 -4.320312 18.921875 -4.269531 18.921875 -4.21875 C 18.921875 -4.175781 18.898438 -4.125 18.859375 -4.0625 C 18.566406 -3.539062 18.046875 -2.875 17.296875 -2.0625 C 16.054688 -0.726562 15.019531 0.09375 14.1875 0.40625 C 13.269531 0.71875 12.609375 0.753906 12.203125 0.515625 C 11.796875 0.285156 11.546875 0.0234375 11.453125 -0.265625 C 11.359375 -0.554688 11.3125 -0.847656 11.3125 -1.140625 C 11.3125 -2.046875 11.488281 -2.953125 11.84375 -3.859375 C 12.195312 -4.773438 12.484375 -5.394531 12.703125 -5.71875 C 11.960938 -5.414062 11.332031 -5.03125 10.8125 -4.5625 C 10.019531 -3.863281 9.378906 -3.253906 8.890625 -2.734375 L 8.3125 -2.09375 C 8.132812 -1.664062 7.828125 -1.421875 7.390625 -1.359375 C 6.960938 -1.304688 6.753906 -1.453125 6.765625 -1.796875 C 6.804688 -2.171875 7.164062 -2.992188 7.84375 -4.265625 C 8.519531 -5.546875 8.859375 -6.257812 8.859375 -6.40625 C 8.859375 -6.550781 8.78125 -6.625 8.625 -6.625 C 8.28125 -6.625 7.65625 -6.226562 6.75 -5.4375 C 6.144531 -4.875 5.253906 -3.8125 4.078125 -2.25 C 2.910156 -0.6875 2.25 0.140625 2.09375 0.234375 C 1.394531 0.578125 0.957031 0.75 0.78125 0.75 C 0.601562 0.75 0.515625 0.71875 0.515625 0.65625 C 0.515625 0.601562 0.546875 0.519531 0.609375 0.40625 C 0.671875 0.289062 1.265625 -1.394531 2.390625 -4.65625 C 1.960938 -3.988281 1.570312 -3.484375 1.21875 -3.140625 C 1.0625 -2.960938 0.984375 -2.992188 0.984375 -3.234375 C 0.984375 -3.484375 1.050781 -3.691406 1.1875 -3.859375 C 2.0625 -5.003906 2.703125 -5.972656 3.109375 -6.765625 C 3.222656 -7.441406 3.457031 -7.84375 3.8125 -7.96875 C 4.019531 -8.039062 4.265625 -8.035156 4.546875 -7.953125 C 4.828125 -7.878906 4.96875 -7.75 4.96875 -7.5625 Z M 4.96875 -7.5625 "/></g></g></g><g fill="#ffffff" fill-opacity="1"><g transform="translate(96.834908, 41.999996)"><g><path d="M 2.609375 0.3125 C 2.304688 0.3125 1.972656 0.21875 1.609375 0.03125 C 1.253906 -0.144531 0.945312 -0.398438 0.6875 -0.734375 C 0.4375 -1.078125 0.3125 -1.441406 0.3125 -1.828125 C 0.3125 -2.210938 0.398438 -2.582031 0.578125 -2.9375 C 0.960938 -3.75 1.585938 -4.535156 2.453125 -5.296875 C 3.316406 -6.066406 4.210938 -6.722656 5.140625 -7.265625 C 6.078125 -7.804688 6.816406 -8.144531 7.359375 -8.28125 C 7.898438 -8.414062 8.425781 -8.484375 8.9375 -8.484375 C 9.445312 -8.484375 9.882812 -8.351562 10.25 -8.09375 C 10.625 -7.832031 10.8125 -7.554688 10.8125 -7.265625 C 10.8125 -7.171875 10.800781 -7.113281 10.78125 -7.09375 C 10.757812 -7.070312 10.710938 -7.082031 10.640625 -7.125 C 10.398438 -7.488281 9.914062 -7.671875 9.1875 -7.671875 C 8.46875 -7.671875 7.644531 -7.429688 6.71875 -6.953125 C 5.800781 -6.484375 4.9375 -5.890625 4.125 -5.171875 C 3.445312 -4.535156 2.847656 -3.8125 2.328125 -3 C 1.816406 -2.195312 1.5625 -1.613281 1.5625 -1.25 C 1.5625 -0.53125 1.765625 -0.171875 2.171875 -0.171875 C 2.585938 -0.171875 3.210938 -0.5 4.046875 -1.15625 C 5.421875 -2.320312 6.359375 -3.175781 6.859375 -3.71875 C 8.640625 -5.632812 9.597656 -6.59375 9.734375 -6.59375 C 9.960938 -6.59375 10.242188 -6.523438 10.578125 -6.390625 C 10.910156 -6.253906 11.019531 -6.09375 10.90625 -5.90625 C 9.914062 -4.507812 9.332031 -3.101562 9.15625 -1.6875 C 9.132812 -1.507812 9.125 -1.285156 9.125 -1.015625 C 9.125 -0.742188 9.203125 -0.519531 9.359375 -0.34375 C 9.648438 -0.0390625 10.046875 -0.0234375 10.546875 -0.296875 C 11.054688 -0.566406 11.757812 -1.109375 12.65625 -1.921875 C 13.5625 -2.734375 14.285156 -3.523438 14.828125 -4.296875 C 14.898438 -4.398438 14.984375 -4.425781 15.078125 -4.375 C 15.179688 -4.320312 15.234375 -4.28125 15.234375 -4.25 C 15.234375 -3.957031 14.769531 -3.320312 13.84375 -2.34375 C 12.925781 -1.363281 12.222656 -0.695312 11.734375 -0.34375 C 10.828125 0.332031 9.988281 0.671875 9.21875 0.671875 C 8.476562 0.671875 7.984375 0.300781 7.734375 -0.4375 C 7.671875 -0.664062 7.640625 -0.925781 7.640625 -1.21875 C 7.640625 -2.09375 7.828125 -3.015625 8.203125 -3.984375 C 8.117188 -3.941406 7.753906 -3.550781 7.109375 -2.8125 C 6.472656 -2.082031 5.734375 -1.378906 4.890625 -0.703125 C 4.054688 -0.0234375 3.296875 0.3125 2.609375 0.3125 Z M 2.609375 0.3125 "/></g></g></g><g fill="#ffffff" fill-opacity="1"><g transform="translate(110.116451, 41.999996)"><g><path d="M 5.8125 -8.140625 C 7.300781 -8.273438 8.207031 -8.34375 8.53125 -8.34375 C 8.851562 -8.34375 9.015625 -8.296875 9.015625 -8.203125 C 9.015625 -8.078125 8.785156 -7.953125 8.328125 -7.828125 C 7.867188 -7.703125 6.757812 -7.546875 5 -7.359375 C 4.90625 -7.179688 4.789062 -6.976562 4.65625 -6.75 C 4.363281 -6.28125 4.207031 -6 4.1875 -5.90625 C 3.082031 -3.695312 2.5 -2.289062 2.4375 -1.6875 C 2.414062 -1.507812 2.40625 -1.285156 2.40625 -1.015625 C 2.40625 -0.742188 2.484375 -0.519531 2.640625 -0.34375 C 2.910156 -0.0390625 3.296875 -0.0234375 3.796875 -0.296875 C 4.304688 -0.566406 5.007812 -1.109375 5.90625 -1.921875 C 6.8125 -2.734375 7.546875 -3.523438 8.109375 -4.296875 C 8.179688 -4.398438 8.28125 -4.421875 8.40625 -4.359375 C 8.6875 -4.222656 8.179688 -3.457031 6.890625 -2.0625 C 5.648438 -0.726562 4.613281 0.09375 3.78125 0.40625 C 3.289062 0.582031 2.882812 0.671875 2.5625 0.671875 C 1.78125 0.671875 1.265625 0.300781 1.015625 -0.4375 C 0.972656 -0.570312 0.953125 -0.738281 0.953125 -0.9375 C 0.953125 -1.613281 1.265625 -2.640625 1.890625 -4.015625 C 1.796875 -3.796875 1.414062 -3.3125 0.75 -2.5625 C 0.582031 -2.363281 0.445312 -2.363281 0.34375 -2.5625 C 0.320312 -2.59375 0.3125 -2.640625 0.3125 -2.703125 C 0.3125 -2.773438 0.351562 -2.863281 0.4375 -2.96875 C 1.382812 -4.144531 2.128906 -5.140625 2.671875 -5.953125 C 2.671875 -5.972656 2.882812 -6.378906 3.3125 -7.171875 C 3.113281 -7.140625 2.910156 -7.125 2.703125 -7.125 C 2.503906 -7.125 2.359375 -7.1875 2.265625 -7.3125 C 2.171875 -7.4375 2.160156 -7.585938 2.234375 -7.765625 C 2.367188 -8.066406 2.882812 -8.238281 3.78125 -8.28125 C 3.800781 -8.320312 3.835938 -8.34375 3.890625 -8.34375 L 5.34375 -11.046875 C 5.425781 -11.203125 5.515625 -11.359375 5.609375 -11.515625 C 5.703125 -11.679688 5.773438 -11.804688 5.828125 -11.890625 C 5.878906 -11.984375 5.929688 -12.078125 5.984375 -12.171875 C 6.046875 -12.273438 6.09375 -12.34375 6.125 -12.375 C 6.164062 -12.414062 6.207031 -12.457031 6.25 -12.5 C 6.320312 -12.613281 6.546875 -12.671875 6.921875 -12.671875 C 7.304688 -12.671875 7.566406 -12.566406 7.703125 -12.359375 C 7.753906 -12.273438 7.78125 -12.140625 7.78125 -11.953125 C 7.78125 -11.773438 7.710938 -11.570312 7.578125 -11.34375 C 7.441406 -11.125 7.296875 -10.960938 7.140625 -10.859375 C 6.992188 -10.765625 6.890625 -10.660156 6.828125 -10.546875 L 5.4375 -8.109375 Z M 5.8125 -8.140625 "/></g></g></g><g fill="#ffffff" fill-opacity="1"><g transform="translate(116.68457, 41.999996)"><g><path d="M 3.953125 -8.046875 C 4.429688 -8.046875 4.722656 -7.890625 4.828125 -7.578125 C 4.859375 -7.410156 4.832031 -7.242188 4.75 -7.078125 C 4.664062 -6.910156 4.601562 -6.78125 4.5625 -6.6875 C 4.519531 -6.59375 4.488281 -6.515625 4.46875 -6.453125 C 4.375 -6.253906 4.28125 -6.070312 4.1875 -5.90625 C 3.082031 -3.695312 2.5 -2.289062 2.4375 -1.6875 C 2.414062 -1.507812 2.40625 -1.285156 2.40625 -1.015625 C 2.40625 -0.742188 2.484375 -0.519531 2.640625 -0.34375 C 2.910156 -0.0390625 3.296875 -0.0234375 3.796875 -0.296875 C 4.304688 -0.566406 5.007812 -1.109375 5.90625 -1.921875 C 6.8125 -2.734375 7.546875 -3.523438 8.109375 -4.296875 C 8.179688 -4.398438 8.265625 -4.425781 8.359375 -4.375 C 8.460938 -4.320312 8.515625 -4.269531 8.515625 -4.21875 C 8.515625 -4.175781 8.492188 -4.125 8.453125 -4.0625 C 8.160156 -3.539062 7.640625 -2.875 6.890625 -2.0625 C 5.648438 -0.726562 4.613281 0.09375 3.78125 0.40625 C 3.289062 0.582031 2.882812 0.671875 2.5625 0.671875 C 1.78125 0.671875 1.265625 0.300781 1.015625 -0.4375 C 0.972656 -0.570312 0.953125 -0.738281 0.953125 -0.9375 C 0.953125 -1.613281 1.265625 -2.640625 1.890625 -4.015625 C 1.796875 -3.796875 1.414062 -3.3125 0.75 -2.5625 C 0.582031 -2.363281 0.445312 -2.363281 0.34375 -2.5625 C 0.320312 -2.59375 0.3125 -2.640625 0.3125 -2.703125 C 0.3125 -2.773438 0.351562 -2.863281 0.4375 -2.96875 C 1.382812 -4.144531 2.128906 -5.140625 2.671875 -5.953125 C 2.628906 -6.054688 2.648438 -6.179688 2.734375 -6.328125 C 3.117188 -7.421875 3.457031 -7.992188 3.75 -8.046875 C 3.8125 -8.046875 3.878906 -8.046875 3.953125 -8.046875 Z M 6.25 -11.921875 L 6.015625 -10.984375 C 6.015625 -10.804688 5.890625 -10.523438 5.640625 -10.140625 C 5.390625 -9.753906 5.195312 -9.5625 5.0625 -9.5625 C 4.226562 -9.5625 3.8125 -9.765625 3.8125 -10.171875 C 3.8125 -10.242188 4.226562 -10.601562 5.0625 -11.25 L 5.546875 -11.625 C 5.859375 -11.894531 6.050781 -12.03125 6.125 -12.03125 C 6.207031 -12.03125 6.25 -11.992188 6.25 -11.921875 Z M 6.25 -11.921875 "/></g></g></g><g fill="#ffffff" fill-opacity="1"><g transform="translate(123.252688, 41.999996)"><g><path d="M 1.453125 0.296875 C 1.203125 0.585938 1.148438 0.816406 1.296875 0.984375 C 1.441406 1.160156 1.601562 1.25 1.78125 1.25 C 1.96875 1.25 2.160156 1.21875 2.359375 1.15625 C 3.191406 0.90625 4 0.410156 4.78125 -0.328125 C 5.5625 -1.078125 5.953125 -1.835938 5.953125 -2.609375 C 5.953125 -3.035156 5.476562 -3.503906 4.53125 -4.015625 C 4.082031 -4.242188 3.832031 -4.378906 3.78125 -4.421875 C 3.257812 -4.765625 2.929688 -5.113281 2.796875 -5.46875 C 2.523438 -5 2.085938 -4.328125 1.484375 -3.453125 C 1.347656 -3.296875 1.222656 -3.257812 1.109375 -3.34375 C 0.992188 -3.4375 0.984375 -3.5625 1.078125 -3.71875 C 1.867188 -4.800781 2.390625 -5.710938 2.640625 -6.453125 C 2.773438 -7.515625 3.550781 -8.472656 4.96875 -9.328125 C 6.382812 -10.179688 7.671875 -10.609375 8.828125 -10.609375 C 9.566406 -10.609375 10.085938 -10.476562 10.390625 -10.21875 C 10.691406 -9.957031 10.84375 -9.695312 10.84375 -9.4375 C 10.84375 -9.1875 10.769531 -8.894531 10.625 -8.5625 C 10.476562 -8.238281 10.179688 -7.929688 9.734375 -7.640625 C 9.617188 -7.566406 9.523438 -7.585938 9.453125 -7.703125 C 9.410156 -7.816406 9.488281 -7.972656 9.6875 -8.171875 C 9.894531 -8.378906 10.023438 -8.65625 10.078125 -9 C 10.140625 -9.351562 9.988281 -9.570312 9.625 -9.65625 C 9.5625 -9.65625 9.503906 -9.65625 9.453125 -9.65625 C 8.691406 -9.65625 7.742188 -9.375 6.609375 -8.8125 C 5.472656 -8.25 4.585938 -7.519531 3.953125 -6.625 C 3.703125 -6.289062 3.578125 -5.953125 3.578125 -5.609375 C 3.578125 -5.273438 3.804688 -4.972656 4.265625 -4.703125 C 4.460938 -4.585938 4.789062 -4.40625 5.25 -4.15625 C 5.71875 -3.90625 6.050781 -3.71875 6.25 -3.59375 C 6.445312 -3.476562 6.679688 -3.296875 6.953125 -3.046875 C 7.222656 -2.796875 7.363281 -2.566406 7.375 -2.359375 C 7.476562 -1.773438 7.207031 -1.132812 6.5625 -0.4375 C 5.65625 0.570312 4.300781 1.28125 2.5 1.6875 C 2.09375 1.78125 1.679688 1.828125 1.265625 1.828125 C 0.847656 1.828125 0.5625 1.671875 0.40625 1.359375 C 0.34375 1.285156 0.3125 1.164062 0.3125 1 C 0.3125 0.832031 0.46875 0.566406 0.78125 0.203125 C 1.070312 -0.0859375 1.539062 -0.367188 2.1875 -0.640625 C 2.238281 -0.660156 2.285156 -0.648438 2.328125 -0.609375 C 2.367188 -0.566406 2.378906 -0.515625 2.359375 -0.453125 C 2.335938 -0.398438 2.234375 -0.332031 2.046875 -0.25 C 1.859375 -0.175781 1.660156 0.00390625 1.453125 0.296875 Z M 6.71875 -14.09375 C 6.632812 -14.226562 6.59375 -14.359375 6.59375 -14.484375 C 6.59375 -14.609375 6.632812 -14.671875 6.71875 -14.671875 C 6.8125 -14.671875 6.894531 -14.632812 6.96875 -14.5625 C 7.050781 -14.5 7.289062 -14.300781 7.6875 -13.96875 C 8.082031 -13.644531 8.445312 -13.34375 8.78125 -13.0625 C 9.125 -12.78125 9.347656 -12.582031 9.453125 -12.46875 C 9.753906 -12.664062 10.1875 -12.984375 10.75 -13.421875 C 11.3125 -13.867188 11.757812 -14.195312 12.09375 -14.40625 C 12.4375 -14.625 12.609375 -14.644531 12.609375 -14.46875 C 12.609375 -14.300781 12.53125 -14.15625 12.375 -14.03125 C 12.21875 -13.914062 11.890625 -13.632812 11.390625 -13.1875 C 10.097656 -12.007812 9.320312 -11.421875 9.0625 -11.421875 C 8.632812 -11.578125 7.851562 -12.46875 6.71875 -14.09375 Z M 6.71875 -14.09375 "/></g></g></g><g fill="#ffffff" fill-opacity="1"><g transform="translate(131.535486, 41.999996)"><g><path d="M 2.609375 0.3125 C 2.304688 0.3125 1.972656 0.21875 1.609375 0.03125 C 1.253906 -0.144531 0.945312 -0.398438 0.6875 -0.734375 C 0.4375 -1.078125 0.3125 -1.441406 0.3125 -1.828125 C 0.3125 -2.210938 0.398438 -2.582031 0.578125 -2.9375 C 0.960938 -3.75 1.585938 -4.535156 2.453125 -5.296875 C 3.316406 -6.066406 4.210938 -6.722656 5.140625 -7.265625 C 6.078125 -7.804688 6.816406 -8.144531 7.359375 -8.28125 C 7.898438 -8.414062 8.425781 -8.484375 8.9375 -8.484375 C 9.445312 -8.484375 9.882812 -8.351562 10.25 -8.09375 C 10.625 -7.832031 10.8125 -7.554688 10.8125 -7.265625 C 10.8125 -7.171875 10.800781 -7.113281 10.78125 -7.09375 C 10.757812 -7.070312 10.710938 -7.082031 10.640625 -7.125 C 10.398438 -7.488281 9.914062 -7.671875 9.1875 -7.671875 C 8.46875 -7.671875 7.644531 -7.429688 6.71875 -6.953125 C 5.800781 -6.484375 4.9375 -5.890625 4.125 -5.171875 C 3.445312 -4.535156 2.847656 -3.8125 2.328125 -3 C 1.816406 -2.195312 1.5625 -1.613281 1.5625 -1.25 C 1.5625 -0.53125 1.765625 -0.171875 2.171875 -0.171875 C 2.585938 -0.171875 3.210938 -0.5 4.046875 -1.15625 C 5.421875 -2.320312 6.359375 -3.175781 6.859375 -3.71875 C 8.640625 -5.632812 9.597656 -6.59375 9.734375 -6.59375 C 9.960938 -6.59375 10.242188 -6.523438 10.578125 -6.390625 C 10.910156 -6.253906 11.019531 -6.09375 10.90625 -5.90625 C 9.914062 -4.507812 9.332031 -3.101562 9.15625 -1.6875 C 9.132812 -1.507812 9.125 -1.285156 9.125 -1.015625 C 9.125 -0.742188 9.203125 -0.519531 9.359375 -0.34375 C 9.648438 -0.0390625 10.046875 -0.0234375 10.546875 -0.296875 C 11.054688 -0.566406 11.757812 -1.109375 12.65625 -1.921875 C 13.5625 -2.734375 14.285156 -3.523438 14.828125 -4.296875 C 14.898438 -4.398438 14.984375 -4.425781 15.078125 -4.375 C 15.179688 -4.320312 15.234375 -4.28125 15.234375 -4.25 C 15.234375 -3.957031 14.769531 -3.320312 13.84375 -2.34375 C 12.925781 -1.363281 12.222656 -0.695312 11.734375 -0.34375 C 10.828125 0.332031 9.988281 0.671875 9.21875 0.671875 C 8.476562 0.671875 7.984375 0.300781 7.734375 -0.4375 C 7.671875 -0.664062 7.640625 -0.925781 7.640625 -1.21875 C 7.640625 -2.09375 7.828125 -3.015625 8.203125 -3.984375 C 8.117188 -3.941406 7.753906 -3.550781 7.109375 -2.8125 C 6.472656 -2.082031 5.734375 -1.378906 4.890625 -0.703125 C 4.054688 -0.0234375 3.296875 0.3125 2.609375 0.3125 Z M 2.609375 0.3125 "/></g></g></g></svg>