<svg xmlns="http://www.w3.org/2000/svg" xmlns:xlink="http://www.w3.org/1999/xlink" width="45" zoomAndPan="magnify" viewBox="0 0 33.75 67.499996" height="90" preserveAspectRatio="xMidYMid meet" version="1.0"><defs><clipPath id="d6b9020d6a"><path d="M 9.375 26.25 L 24.375 26.25 L 24.375 41.25 L 9.375 41.25 Z M 9.375 26.25 " clip-rule="nonzero"/></clipPath><clipPath id="58c40874b0"><path d="M 16.875 26.25 C 12.734375 26.25 9.375 29.609375 9.375 33.75 C 9.375 37.890625 12.734375 41.25 16.875 41.25 C 21.015625 41.25 24.375 37.890625 24.375 33.75 C 24.375 29.609375 21.015625 26.25 16.875 26.25 " clip-rule="nonzero"/></clipPath><clipPath id="35b88c6527"><path d="M 9.375 3.75 L 24.375 3.75 L 24.375 18.75 L 9.375 18.75 Z M 9.375 3.75 " clip-rule="nonzero"/></clipPath><clipPath id="244762d98c"><path d="M 16.875 3.75 C 12.734375 3.75 9.375 7.109375 9.375 11.25 C 9.375 15.390625 12.734375 18.75 16.875 18.75 C 21.015625 18.75 24.375 15.390625 24.375 11.25 C 24.375 7.109375 21.015625 3.75 16.875 3.75 " clip-rule="nonzero"/></clipPath><clipPath id="7ff1d3395b"><path d="M 9.375 48.75 L 24.375 48.75 L 24.375 63.75 L 9.375 63.75 Z M 9.375 48.75 " clip-rule="nonzero"/></clipPath><clipPath id="ec4df4bb22"><path d="M 16.875 48.75 C 12.734375 48.75 9.375 52.109375 9.375 56.25 C 9.375 60.390625 12.734375 63.75 16.875 63.75 C 21.015625 63.75 24.375 60.390625 24.375 56.25 C 24.375 52.109375 21.015625 48.75 16.875 48.75 " clip-rule="nonzero"/></clipPath></defs><g clip-path="url(#d6b9020d6a)"><g clip-path="url(#58c40874b0)"><path fill="#17191a" d="M 9.375 26.25 L 24.375 26.25 L 24.375 41.25 L 9.375 41.25 Z M 9.375 26.25 " fill-opacity="1" fill-rule="nonzero"/></g></g><g clip-path="url(#35b88c6527)"><g clip-path="url(#244762d98c)"><path fill="#17191a" d="M 9.375 3.75 L 24.375 3.75 L 24.375 18.75 L 9.375 18.75 Z M 9.375 3.75 " fill-opacity="1" fill-rule="nonzero"/></g></g><g clip-path="url(#7ff1d3395b)"><g clip-path="url(#ec4df4bb22)"><path fill="#17191a" d="M 9.375 48.75 L 24.375 48.75 L 24.375 63.75 L 9.375 63.75 Z M 9.375 48.75 " fill-opacity="1" fill-rule="nonzero"/></g></g></svg>