<svg xmlns="http://www.w3.org/2000/svg" xmlns:xlink="http://www.w3.org/1999/xlink" width="96" zoomAndPan="magnify" viewBox="0 0 72 72" height="96" preserveAspectRatio="xMidYMid meet" version="1.0"><defs><clipPath id="e8dc64add8"><path d="M 1.238281 1.125 L 70.761719 1.125 L 70.761719 68.539062 L 1.238281 68.539062 Z M 1.238281 1.125 " clip-rule="nonzero"/></clipPath></defs><g clip-path="url(#e8dc64add8)"><path fill="#17191a" d="M 69.019531 38.867188 C 70.902344 36.984375 70.902344 33.945312 69.019531 32.0625 L 39.261719 2.53125 C 38.316406 1.59375 37.070312 1.125 35.832031 1.125 C 34.59375 1.125 33.355469 1.59375 32.410156 2.53125 L 2.652344 32.0625 C 0.757812 33.945312 0.757812 36.984375 2.652344 38.867188 C 4.546875 40.742188 7.613281 40.742188 9.507812 38.867188 L 35.832031 12.742188 L 62.15625 38.867188 C 64.058594 40.742188 67.125 40.742188 69.019531 38.867188 Z M 32.410156 31.304688 C 33.355469 30.367188 34.59375 29.898438 35.832031 29.898438 C 37.070312 29.898438 38.316406 30.367188 39.261719 31.304688 L 69.019531 60.835938 C 70.902344 62.71875 70.902344 65.757812 69.019531 67.640625 C 67.125 69.515625 64.058594 69.515625 62.15625 67.640625 L 35.832031 41.511719 L 9.507812 67.640625 C 7.613281 69.515625 4.546875 69.515625 2.652344 67.640625 C 0.757812 65.757812 0.757812 62.71875 2.652344 60.835938 Z M 32.410156 31.304688 " fill-opacity="1" fill-rule="nonzero"/></g></svg>