<svg xmlns="http://www.w3.org/2000/svg" xmlns:xlink="http://www.w3.org/1999/xlink" width="40" zoomAndPan="magnify" viewBox="0 0 30 30.000001" height="40" preserveAspectRatio="xMidYMid meet" version="1.0"><defs><clipPath id="4b79a4014c"><path d="M 0.515625 0.46875 L 29.484375 0.46875 L 29.484375 28.558594 L 0.515625 28.558594 Z M 0.515625 0.46875 " clip-rule="nonzero"/></clipPath></defs><g clip-path="url(#4b79a4014c)"><path fill="#fffdfa" d="M 28.757812 16.195312 C 29.542969 15.410156 29.542969 14.144531 28.757812 13.359375 L 16.359375 1.054688 C 15.964844 0.664062 15.445312 0.46875 14.929688 0.46875 C 14.414062 0.46875 13.898438 0.664062 13.503906 1.054688 L 1.105469 13.359375 C 0.316406 14.144531 0.316406 15.410156 1.105469 16.195312 C 1.894531 16.976562 3.171875 16.976562 3.960938 16.195312 L 14.929688 5.308594 L 25.898438 16.195312 C 26.691406 16.976562 27.96875 16.976562 28.757812 16.195312 Z M 13.503906 13.042969 C 13.898438 12.652344 14.414062 12.457031 14.929688 12.457031 C 15.445312 12.457031 15.964844 12.652344 16.359375 13.042969 L 28.757812 25.347656 C 29.542969 26.132812 29.542969 27.398438 28.757812 28.183594 C 27.96875 28.964844 26.691406 28.964844 25.898438 28.183594 L 14.929688 17.296875 L 3.960938 28.183594 C 3.171875 28.964844 1.894531 28.964844 1.105469 28.183594 C 0.316406 27.398438 0.316406 26.132812 1.105469 25.347656 Z M 13.503906 13.042969 " fill-opacity="1" fill-rule="nonzero"/></g></svg>