<svg xmlns="http://www.w3.org/2000/svg" xmlns:xlink="http://www.w3.org/1999/xlink" width="500" zoomAndPan="magnify" viewBox="0 0 375 74.999997" height="100" preserveAspectRatio="xMidYMid meet" version="1.0"><defs><g/><clipPath id="a8ebc8992d"><path d="M 286 29.25 L 300 29.25 L 300 46 L 286 46 Z M 286 29.25 " clip-rule="nonzero"/></clipPath><clipPath id="44fb94bb27"><path d="M 299 29.25 L 358.902344 29.25 L 358.902344 30 L 299 30 Z M 299 29.25 " clip-rule="nonzero"/></clipPath></defs><g fill="#17191a" fill-opacity="1"><g transform="translate(18.667805, 43.124995)"><g><path d="M 6.40625 0 L 4.765625 0 L 4.765625 -10.84375 L 1.5 -9.640625 L 1.5 -11.109375 L 6.15625 -12.859375 L 6.40625 -12.859375 Z M 6.40625 0 "/></g></g></g><g fill="#17191a" fill-opacity="1"><g transform="translate(28.768645, 43.124995)"><g><path d="M 4.984375 -5.109375 C 4.984375 -3.796875 4.8125 -2.539062 4.46875 -1.34375 C 4.125 -0.144531 3.597656 0.957031 2.890625 1.96875 C 2.191406 2.976562 1.453125 3.695312 0.671875 4.125 L 0.328125 3.140625 C 1.234375 2.441406 1.957031 1.367188 2.5 -0.078125 C 3.050781 -1.535156 3.332031 -3.15625 3.34375 -4.9375 L 3.34375 -5.21875 C 3.34375 -6.445312 3.210938 -7.585938 2.953125 -8.640625 C 2.703125 -9.703125 2.347656 -10.648438 1.890625 -11.484375 C 1.429688 -12.328125 0.910156 -12.984375 0.328125 -13.453125 L 0.671875 -14.4375 C 1.453125 -14.007812 2.191406 -13.296875 2.890625 -12.296875 C 3.585938 -11.296875 4.109375 -10.191406 4.453125 -8.984375 C 4.804688 -7.773438 4.984375 -6.484375 4.984375 -5.109375 Z M 4.984375 -5.109375 "/></g></g></g><g fill="#17191a" fill-opacity="1"><g transform="translate(35.022383, 43.124995)"><g/></g></g><g fill="#17191a" fill-opacity="1"><g transform="translate(39.475542, 43.124995)"><g><path d="M 11.328125 -5.984375 C 11.328125 -4.734375 11.113281 -3.640625 10.6875 -2.703125 C 10.269531 -1.765625 9.675781 -1.050781 8.90625 -0.5625 C 8.132812 -0.0703125 7.234375 0.171875 6.203125 0.171875 C 5.191406 0.171875 4.296875 -0.0703125 3.515625 -0.5625 C 2.734375 -1.0625 2.128906 -1.769531 1.703125 -2.6875 C 1.273438 -3.601562 1.050781 -4.664062 1.03125 -5.875 L 1.03125 -6.796875 C 1.03125 -8.023438 1.242188 -9.109375 1.671875 -10.046875 C 2.109375 -10.992188 2.71875 -11.71875 3.5 -12.21875 C 4.28125 -12.71875 5.171875 -12.96875 6.171875 -12.96875 C 7.203125 -12.96875 8.109375 -12.71875 8.890625 -12.21875 C 9.671875 -11.726562 10.269531 -11.015625 10.6875 -10.078125 C 11.113281 -9.140625 11.328125 -8.046875 11.328125 -6.796875 Z M 9.65625 -6.8125 C 9.65625 -8.332031 9.347656 -9.492188 8.734375 -10.296875 C 8.128906 -11.109375 7.273438 -11.515625 6.171875 -11.515625 C 5.109375 -11.515625 4.269531 -11.109375 3.65625 -10.296875 C 3.050781 -9.492188 2.738281 -8.367188 2.71875 -6.921875 L 2.71875 -5.984375 C 2.71875 -4.515625 3.023438 -3.359375 3.640625 -2.515625 C 4.265625 -1.671875 5.117188 -1.25 6.203125 -1.25 C 7.285156 -1.25 8.125 -1.644531 8.71875 -2.4375 C 9.320312 -3.238281 9.632812 -4.378906 9.65625 -5.859375 Z M 9.65625 -6.8125 "/></g></g></g><g fill="#17191a" fill-opacity="1"><g transform="translate(51.842484, 43.124995)"><g><path d="M 0.828125 -4.828125 C 0.828125 -6.285156 1.171875 -7.457031 1.859375 -8.34375 C 2.554688 -9.238281 3.46875 -9.6875 4.59375 -9.6875 C 5.707031 -9.6875 6.585938 -9.304688 7.234375 -8.546875 L 7.234375 -13.5 L 8.859375 -13.5 L 8.859375 0 L 7.359375 0 L 7.28125 -1.015625 C 6.632812 -0.222656 5.734375 0.171875 4.578125 0.171875 C 3.472656 0.171875 2.570312 -0.273438 1.875 -1.171875 C 1.175781 -2.078125 0.828125 -3.257812 0.828125 -4.71875 Z M 2.46875 -4.65625 C 2.46875 -3.570312 2.6875 -2.722656 3.125 -2.109375 C 3.570312 -1.503906 4.1875 -1.203125 4.96875 -1.203125 C 6 -1.203125 6.753906 -1.664062 7.234375 -2.59375 L 7.234375 -6.96875 C 6.742188 -7.863281 6 -8.3125 5 -8.3125 C 4.195312 -8.3125 3.570312 -8 3.125 -7.375 C 2.6875 -6.757812 2.46875 -5.851562 2.46875 -4.65625 Z M 2.46875 -4.65625 "/></g></g></g><g fill="#17191a" fill-opacity="1"><g transform="translate(61.987248, 43.124995)"><g><path d="M 5.828125 -8.046875 C 5.578125 -8.085938 5.3125 -8.109375 5.03125 -8.109375 C 3.957031 -8.109375 3.234375 -7.65625 2.859375 -6.75 L 2.859375 0 L 1.234375 0 L 1.234375 -9.515625 L 2.8125 -9.515625 L 2.84375 -8.40625 C 3.375 -9.257812 4.128906 -9.6875 5.109375 -9.6875 C 5.421875 -9.6875 5.660156 -9.644531 5.828125 -9.5625 Z M 5.828125 -8.046875 "/></g></g></g><g fill="#17191a" fill-opacity="1"><g transform="translate(68.074108, 43.124995)"><g><path d="M 5.171875 0.171875 C 3.890625 0.171875 2.84375 -0.25 2.03125 -1.09375 C 1.21875 -1.9375 0.8125 -3.066406 0.8125 -4.484375 L 0.8125 -4.796875 C 0.8125 -5.734375 0.992188 -6.570312 1.359375 -7.3125 C 1.722656 -8.050781 2.226562 -8.628906 2.875 -9.046875 C 3.519531 -9.472656 4.21875 -9.6875 4.96875 -9.6875 C 6.207031 -9.6875 7.171875 -9.28125 7.859375 -8.46875 C 8.546875 -7.65625 8.890625 -6.488281 8.890625 -4.96875 L 8.890625 -4.296875 L 2.4375 -4.296875 C 2.46875 -3.359375 2.742188 -2.597656 3.265625 -2.015625 C 3.785156 -1.441406 4.453125 -1.15625 5.265625 -1.15625 C 5.835938 -1.15625 6.320312 -1.269531 6.71875 -1.5 C 7.125 -1.738281 7.472656 -2.050781 7.765625 -2.4375 L 8.765625 -1.65625 C 7.960938 -0.4375 6.765625 0.171875 5.171875 0.171875 Z M 4.96875 -8.34375 C 4.3125 -8.34375 3.757812 -8.101562 3.3125 -7.625 C 2.875 -7.15625 2.601562 -6.488281 2.5 -5.625 L 7.265625 -5.625 L 7.265625 -5.75 C 7.210938 -6.570312 6.988281 -7.207031 6.59375 -7.65625 C 6.195312 -8.113281 5.65625 -8.34375 4.96875 -8.34375 Z M 4.96875 -8.34375 "/></g></g></g><g fill="#17191a" fill-opacity="1"><g transform="translate(77.604037, 43.124995)"><g><path d="M 0.828125 -4.828125 C 0.828125 -6.285156 1.171875 -7.457031 1.859375 -8.34375 C 2.554688 -9.238281 3.46875 -9.6875 4.59375 -9.6875 C 5.707031 -9.6875 6.585938 -9.304688 7.234375 -8.546875 L 7.234375 -13.5 L 8.859375 -13.5 L 8.859375 0 L 7.359375 0 L 7.28125 -1.015625 C 6.632812 -0.222656 5.734375 0.171875 4.578125 0.171875 C 3.472656 0.171875 2.570312 -0.273438 1.875 -1.171875 C 1.175781 -2.078125 0.828125 -3.257812 0.828125 -4.71875 Z M 2.46875 -4.65625 C 2.46875 -3.570312 2.6875 -2.722656 3.125 -2.109375 C 3.570312 -1.503906 4.1875 -1.203125 4.96875 -1.203125 C 6 -1.203125 6.753906 -1.664062 7.234375 -2.59375 L 7.234375 -6.96875 C 6.742188 -7.863281 6 -8.3125 5 -8.3125 C 4.195312 -8.3125 3.570312 -8 3.125 -7.375 C 2.6875 -6.757812 2.46875 -5.851562 2.46875 -4.65625 Z M 2.46875 -4.65625 "/></g></g></g><g fill="#17191a" fill-opacity="1"><g transform="translate(87.7488, 43.124995)"><g><path d="M 3 0 L 1.375 0 L 1.375 -9.515625 L 3 -9.515625 Z M 1.234375 -12.03125 C 1.234375 -12.289062 1.3125 -12.507812 1.46875 -12.6875 C 1.632812 -12.875 1.875 -12.96875 2.1875 -12.96875 C 2.507812 -12.96875 2.753906 -12.875 2.921875 -12.6875 C 3.085938 -12.507812 3.171875 -12.289062 3.171875 -12.03125 C 3.171875 -11.769531 3.085938 -11.550781 2.921875 -11.375 C 2.753906 -11.195312 2.507812 -11.109375 2.1875 -11.109375 C 1.875 -11.109375 1.632812 -11.195312 1.46875 -11.375 C 1.3125 -11.550781 1.234375 -11.769531 1.234375 -12.03125 Z M 1.234375 -12.03125 "/></g></g></g><g fill="#17191a" fill-opacity="1"><g transform="translate(92.114126, 43.124995)"><g/></g></g><g fill="#17191a" fill-opacity="1"><g transform="translate(96.567285, 43.124995)"><g><path d="M 0.828125 -4.828125 C 0.828125 -6.285156 1.171875 -7.457031 1.859375 -8.34375 C 2.554688 -9.238281 3.46875 -9.6875 4.59375 -9.6875 C 5.707031 -9.6875 6.585938 -9.304688 7.234375 -8.546875 L 7.234375 -13.5 L 8.859375 -13.5 L 8.859375 0 L 7.359375 0 L 7.28125 -1.015625 C 6.632812 -0.222656 5.734375 0.171875 4.578125 0.171875 C 3.472656 0.171875 2.570312 -0.273438 1.875 -1.171875 C 1.175781 -2.078125 0.828125 -3.257812 0.828125 -4.71875 Z M 2.46875 -4.65625 C 2.46875 -3.570312 2.6875 -2.722656 3.125 -2.109375 C 3.570312 -1.503906 4.1875 -1.203125 4.96875 -1.203125 C 6 -1.203125 6.753906 -1.664062 7.234375 -2.59375 L 7.234375 -6.96875 C 6.742188 -7.863281 6 -8.3125 5 -8.3125 C 4.195312 -8.3125 3.570312 -8 3.125 -7.375 C 2.6875 -6.757812 2.46875 -5.851562 2.46875 -4.65625 Z M 2.46875 -4.65625 "/></g></g></g><g fill="#17191a" fill-opacity="1"><g transform="translate(106.712048, 43.124995)"><g><path d="M 0.796875 -4.84375 C 0.796875 -5.769531 0.976562 -6.601562 1.34375 -7.34375 C 1.71875 -8.09375 2.226562 -8.671875 2.875 -9.078125 C 3.53125 -9.484375 4.273438 -9.6875 5.109375 -9.6875 C 6.410156 -9.6875 7.457031 -9.238281 8.25 -8.34375 C 9.050781 -7.445312 9.453125 -6.253906 9.453125 -4.765625 L 9.453125 -4.65625 C 9.453125 -3.726562 9.273438 -2.894531 8.921875 -2.15625 C 8.566406 -1.425781 8.0625 -0.851562 7.40625 -0.4375 C 6.75 -0.03125 5.992188 0.171875 5.140625 0.171875 C 3.847656 0.171875 2.800781 -0.273438 2 -1.171875 C 1.195312 -2.066406 0.796875 -3.253906 0.796875 -4.734375 Z M 2.4375 -4.65625 C 2.4375 -3.59375 2.679688 -2.742188 3.171875 -2.109375 C 3.660156 -1.472656 4.316406 -1.15625 5.140625 -1.15625 C 5.960938 -1.15625 6.613281 -1.476562 7.09375 -2.125 C 7.582031 -2.769531 7.828125 -3.675781 7.828125 -4.84375 C 7.828125 -5.882812 7.578125 -6.726562 7.078125 -7.375 C 6.585938 -8.019531 5.929688 -8.34375 5.109375 -8.34375 C 4.304688 -8.34375 3.660156 -8.023438 3.171875 -7.390625 C 2.679688 -6.753906 2.4375 -5.84375 2.4375 -4.65625 Z M 2.4375 -4.65625 "/></g></g></g><g fill="#17191a" fill-opacity="1"><g transform="translate(116.970989, 43.124995)"><g><path d="M 2.765625 -9.515625 L 2.796875 -8.453125 C 3.492188 -9.273438 4.4375 -9.6875 5.625 -9.6875 C 6.957031 -9.6875 7.863281 -9.175781 8.34375 -8.15625 C 8.65625 -8.613281 9.066406 -8.984375 9.578125 -9.265625 C 10.085938 -9.546875 10.6875 -9.6875 11.375 -9.6875 C 13.457031 -9.6875 14.519531 -8.582031 14.5625 -6.375 L 14.5625 0 L 12.921875 0 L 12.921875 -6.28125 C 12.921875 -6.957031 12.765625 -7.460938 12.453125 -7.796875 C 12.148438 -8.140625 11.632812 -8.3125 10.90625 -8.3125 C 10.300781 -8.3125 9.796875 -8.128906 9.390625 -7.765625 C 8.992188 -7.398438 8.765625 -6.914062 8.703125 -6.3125 L 8.703125 0 L 7.0625 0 L 7.0625 -6.234375 C 7.0625 -7.617188 6.382812 -8.3125 5.03125 -8.3125 C 3.96875 -8.3125 3.238281 -7.851562 2.84375 -6.9375 L 2.84375 0 L 1.21875 0 L 1.21875 -9.515625 Z M 2.765625 -9.515625 "/></g></g></g><g fill="#17191a" fill-opacity="1"><g transform="translate(132.737089, 43.124995)"><g><path d="M 5.171875 0.171875 C 3.890625 0.171875 2.84375 -0.25 2.03125 -1.09375 C 1.21875 -1.9375 0.8125 -3.066406 0.8125 -4.484375 L 0.8125 -4.796875 C 0.8125 -5.734375 0.992188 -6.570312 1.359375 -7.3125 C 1.722656 -8.050781 2.226562 -8.628906 2.875 -9.046875 C 3.519531 -9.472656 4.21875 -9.6875 4.96875 -9.6875 C 6.207031 -9.6875 7.171875 -9.28125 7.859375 -8.46875 C 8.546875 -7.65625 8.890625 -6.488281 8.890625 -4.96875 L 8.890625 -4.296875 L 2.4375 -4.296875 C 2.46875 -3.359375 2.742188 -2.597656 3.265625 -2.015625 C 3.785156 -1.441406 4.453125 -1.15625 5.265625 -1.15625 C 5.835938 -1.15625 6.320312 -1.269531 6.71875 -1.5 C 7.125 -1.738281 7.472656 -2.050781 7.765625 -2.4375 L 8.765625 -1.65625 C 7.960938 -0.4375 6.765625 0.171875 5.171875 0.171875 Z M 4.96875 -8.34375 C 4.3125 -8.34375 3.757812 -8.101562 3.3125 -7.625 C 2.875 -7.15625 2.601562 -6.488281 2.5 -5.625 L 7.265625 -5.625 L 7.265625 -5.75 C 7.210938 -6.570312 6.988281 -7.207031 6.59375 -7.65625 C 6.195312 -8.113281 5.65625 -8.34375 4.96875 -8.34375 Z M 4.96875 -8.34375 "/></g></g></g><g fill="#17191a" fill-opacity="1"><g transform="translate(142.267018, 43.124995)"><g><path d="M 2.765625 -9.515625 L 2.828125 -8.3125 C 3.546875 -9.226562 4.492188 -9.6875 5.671875 -9.6875 C 7.679688 -9.6875 8.691406 -8.550781 8.703125 -6.28125 L 8.703125 0 L 7.078125 0 L 7.078125 -6.296875 C 7.078125 -6.984375 6.921875 -7.488281 6.609375 -7.8125 C 6.304688 -8.144531 5.828125 -8.3125 5.171875 -8.3125 C 4.648438 -8.3125 4.1875 -8.171875 3.78125 -7.890625 C 3.382812 -7.609375 3.078125 -7.238281 2.859375 -6.78125 L 2.859375 0 L 1.234375 0 L 1.234375 -9.515625 Z M 2.765625 -9.515625 "/></g></g></g><g fill="#17191a" fill-opacity="1"><g transform="translate(152.192192, 43.124995)"><g><path d="M 7.109375 -0.9375 C 6.472656 -0.195312 5.539062 0.171875 4.3125 0.171875 C 3.300781 0.171875 2.53125 -0.117188 2 -0.703125 C 1.46875 -1.296875 1.203125 -2.171875 1.203125 -3.328125 L 1.203125 -9.515625 L 2.828125 -9.515625 L 2.828125 -3.359375 C 2.828125 -1.921875 3.410156 -1.203125 4.578125 -1.203125 C 5.816406 -1.203125 6.644531 -1.664062 7.0625 -2.59375 L 7.0625 -9.515625 L 8.6875 -9.515625 L 8.6875 0 L 7.140625 0 Z M 7.109375 -0.9375 "/></g></g></g><g fill="#17191a" fill-opacity="1"><g transform="translate(162.108589, 43.124995)"><g/></g></g><g fill="#17191a" fill-opacity="1"><g transform="translate(166.561748, 43.124995)"><g><path d="M 2.03125 0 L 2.03125 -8.25 L 0.53125 -8.25 L 0.53125 -9.515625 L 2.03125 -9.515625 L 2.03125 -10.484375 C 2.03125 -11.503906 2.300781 -12.289062 2.84375 -12.84375 C 3.394531 -13.40625 4.164062 -13.6875 5.15625 -13.6875 C 5.53125 -13.6875 5.90625 -13.632812 6.28125 -13.53125 L 6.1875 -12.21875 C 5.914062 -12.269531 5.625 -12.296875 5.3125 -12.296875 C 4.78125 -12.296875 4.367188 -12.140625 4.078125 -11.828125 C 3.796875 -11.523438 3.65625 -11.085938 3.65625 -10.515625 L 3.65625 -9.515625 L 5.6875 -9.515625 L 5.6875 -8.25 L 3.65625 -8.25 L 3.65625 0 Z M 2.03125 0 "/></g></g></g><g fill="#17191a" fill-opacity="1"><g transform="translate(172.806708, 43.124995)"><g><path d="M 7.109375 -0.9375 C 6.472656 -0.195312 5.539062 0.171875 4.3125 0.171875 C 3.300781 0.171875 2.53125 -0.117188 2 -0.703125 C 1.46875 -1.296875 1.203125 -2.171875 1.203125 -3.328125 L 1.203125 -9.515625 L 2.828125 -9.515625 L 2.828125 -3.359375 C 2.828125 -1.921875 3.410156 -1.203125 4.578125 -1.203125 C 5.816406 -1.203125 6.644531 -1.664062 7.0625 -2.59375 L 7.0625 -9.515625 L 8.6875 -9.515625 L 8.6875 0 L 7.140625 0 Z M 7.109375 -0.9375 "/></g></g></g><g fill="#17191a" fill-opacity="1"><g transform="translate(182.723104, 43.124995)"><g><path d="M 2.765625 -9.515625 L 2.828125 -8.3125 C 3.546875 -9.226562 4.492188 -9.6875 5.671875 -9.6875 C 7.679688 -9.6875 8.691406 -8.550781 8.703125 -6.28125 L 8.703125 0 L 7.078125 0 L 7.078125 -6.296875 C 7.078125 -6.984375 6.921875 -7.488281 6.609375 -7.8125 C 6.304688 -8.144531 5.828125 -8.3125 5.171875 -8.3125 C 4.648438 -8.3125 4.1875 -8.171875 3.78125 -7.890625 C 3.382812 -7.609375 3.078125 -7.238281 2.859375 -6.78125 L 2.859375 0 L 1.234375 0 L 1.234375 -9.515625 Z M 2.765625 -9.515625 "/></g></g></g><g fill="#17191a" fill-opacity="1"><g transform="translate(192.648278, 43.124995)"><g><path d="M 3.890625 -4.40625 L 2.859375 -3.34375 L 2.859375 0 L 1.234375 0 L 1.234375 -13.5 L 2.859375 -13.5 L 2.859375 -5.328125 L 3.734375 -6.375 L 6.703125 -9.515625 L 8.671875 -9.515625 L 4.96875 -5.53125 L 9.109375 0 L 7.203125 0 Z M 3.890625 -4.40625 "/></g></g></g><g fill="#17191a" fill-opacity="1"><g transform="translate(201.765385, 43.124995)"><g><path d="M 5.046875 -1.15625 C 5.628906 -1.15625 6.132812 -1.328125 6.5625 -1.671875 C 7 -2.023438 7.238281 -2.46875 7.28125 -3 L 8.828125 -3 C 8.796875 -2.457031 8.609375 -1.9375 8.265625 -1.4375 C 7.921875 -0.945312 7.457031 -0.554688 6.875 -0.265625 C 6.300781 0.0234375 5.691406 0.171875 5.046875 0.171875 C 3.753906 0.171875 2.722656 -0.257812 1.953125 -1.125 C 1.191406 -1.988281 0.8125 -3.171875 0.8125 -4.671875 L 0.8125 -4.9375 C 0.8125 -5.863281 0.976562 -6.6875 1.3125 -7.40625 C 1.65625 -8.125 2.144531 -8.679688 2.78125 -9.078125 C 3.414062 -9.484375 4.164062 -9.6875 5.03125 -9.6875 C 6.101562 -9.6875 6.988281 -9.363281 7.6875 -8.71875 C 8.394531 -8.082031 8.773438 -7.253906 8.828125 -6.234375 L 7.28125 -6.234375 C 7.238281 -6.847656 7.003906 -7.351562 6.578125 -7.75 C 6.160156 -8.144531 5.644531 -8.34375 5.03125 -8.34375 C 4.207031 -8.34375 3.566406 -8.046875 3.109375 -7.453125 C 2.660156 -6.859375 2.4375 -6 2.4375 -4.875 L 2.4375 -4.578125 C 2.4375 -3.472656 2.660156 -2.625 3.109375 -2.03125 C 3.554688 -1.445312 4.203125 -1.15625 5.046875 -1.15625 Z M 5.046875 -1.15625 "/></g></g></g><g fill="#17191a" fill-opacity="1"><g transform="translate(211.181125, 43.124995)"><g><path d="M 3 0 L 1.375 0 L 1.375 -9.515625 L 3 -9.515625 Z M 1.234375 -12.03125 C 1.234375 -12.289062 1.3125 -12.507812 1.46875 -12.6875 C 1.632812 -12.875 1.875 -12.96875 2.1875 -12.96875 C 2.507812 -12.96875 2.753906 -12.875 2.921875 -12.6875 C 3.085938 -12.507812 3.171875 -12.289062 3.171875 -12.03125 C 3.171875 -11.769531 3.085938 -11.550781 2.921875 -11.375 C 2.753906 -11.195312 2.507812 -11.109375 2.1875 -11.109375 C 1.875 -11.109375 1.632812 -11.195312 1.46875 -11.375 C 1.3125 -11.550781 1.234375 -11.769531 1.234375 -12.03125 Z M 1.234375 -12.03125 "/></g></g></g><g fill="#17191a" fill-opacity="1"><g transform="translate(215.546451, 43.124995)"><g><path d="M 2.90625 -9.515625 L 2.90625 1.09375 C 2.90625 2.925781 2.078125 3.84375 0.421875 3.84375 C 0.0664062 3.84375 -0.265625 3.789062 -0.578125 3.6875 L -0.578125 2.375 C -0.390625 2.425781 -0.140625 2.453125 0.171875 2.453125 C 0.535156 2.453125 0.8125 2.351562 1 2.15625 C 1.1875 1.957031 1.28125 1.617188 1.28125 1.140625 L 1.28125 -9.515625 Z M 1.109375 -12.03125 C 1.109375 -12.289062 1.1875 -12.507812 1.34375 -12.6875 C 1.507812 -12.875 1.75 -12.96875 2.0625 -12.96875 C 2.382812 -12.96875 2.625 -12.875 2.78125 -12.6875 C 2.945312 -12.507812 3.03125 -12.289062 3.03125 -12.03125 C 3.03125 -11.769531 2.945312 -11.550781 2.78125 -11.375 C 2.625 -11.195312 2.382812 -11.109375 2.0625 -11.109375 C 1.75 -11.109375 1.507812 -11.195312 1.34375 -11.375 C 1.1875 -11.550781 1.109375 -11.769531 1.109375 -12.03125 Z M 1.109375 -12.03125 "/></g></g></g><g fill="#17191a" fill-opacity="1"><g transform="translate(219.841509, 43.124995)"><g><path d="M 5.171875 0.171875 C 3.890625 0.171875 2.84375 -0.25 2.03125 -1.09375 C 1.21875 -1.9375 0.8125 -3.066406 0.8125 -4.484375 L 0.8125 -4.796875 C 0.8125 -5.734375 0.992188 -6.570312 1.359375 -7.3125 C 1.722656 -8.050781 2.226562 -8.628906 2.875 -9.046875 C 3.519531 -9.472656 4.21875 -9.6875 4.96875 -9.6875 C 6.207031 -9.6875 7.171875 -9.28125 7.859375 -8.46875 C 8.546875 -7.65625 8.890625 -6.488281 8.890625 -4.96875 L 8.890625 -4.296875 L 2.4375 -4.296875 C 2.46875 -3.359375 2.742188 -2.597656 3.265625 -2.015625 C 3.785156 -1.441406 4.453125 -1.15625 5.265625 -1.15625 C 5.835938 -1.15625 6.320312 -1.269531 6.71875 -1.5 C 7.125 -1.738281 7.472656 -2.050781 7.765625 -2.4375 L 8.765625 -1.65625 C 7.960938 -0.4375 6.765625 0.171875 5.171875 0.171875 Z M 4.96875 -8.34375 C 4.3125 -8.34375 3.757812 -8.101562 3.3125 -7.625 C 2.875 -7.15625 2.601562 -6.488281 2.5 -5.625 L 7.265625 -5.625 L 7.265625 -5.75 C 7.210938 -6.570312 6.988281 -7.207031 6.59375 -7.65625 C 6.195312 -8.113281 5.65625 -8.34375 4.96875 -8.34375 Z M 4.96875 -8.34375 "/></g></g></g><g fill="#17191a" fill-opacity="1"><g transform="translate(229.370912, 43.124995)"><g/></g></g><g fill="#17191a" fill-opacity="1"><g transform="translate(233.824071, 43.124995)"><g/></g></g><g fill="#17191a" fill-opacity="1"><g transform="translate(238.27723, 43.124995)"><g/></g></g><g fill="#17191a" fill-opacity="1"><g transform="translate(242.730389, 43.124995)"><g/></g></g><g fill="#17191a" fill-opacity="1"><g transform="translate(247.183548, 43.124995)"><g/></g></g><g fill="#17191a" fill-opacity="1"><g transform="translate(251.636707, 43.124995)"><g/></g></g><g fill="#17191a" fill-opacity="1"><g transform="translate(256.089866, 43.124995)"><g/></g></g><g fill="#17191a" fill-opacity="1"><g transform="translate(260.543025, 43.124995)"><g/></g></g><g fill="#17191a" fill-opacity="1"><g transform="translate(264.996184, 43.124995)"><g/></g></g><g fill="#17191a" fill-opacity="1"><g transform="translate(269.449343, 43.124995)"><g/></g></g><g fill="#17191a" fill-opacity="1"><g transform="translate(273.902502, 43.124995)"><g/></g></g><g fill="#17191a" fill-opacity="1"><g transform="translate(278.355661, 43.124995)"><g/></g></g><g fill="#17191a" fill-opacity="1"><g transform="translate(282.80882, 43.124995)"><g/></g></g><g fill="#17191a" fill-opacity="1"><g transform="translate(287.261979, 43.124995)"><g/></g></g><g fill="#17191a" fill-opacity="1"><g transform="translate(291.715138, 43.124995)"><g/></g></g><g fill="#17191a" fill-opacity="1"><g transform="translate(296.168297, 43.124995)"><g/></g></g><g fill="#17191a" fill-opacity="1"><g transform="translate(300.621456, 43.124995)"><g/></g></g><g fill="#17191a" fill-opacity="1"><g transform="translate(305.074615, 43.124995)"><g/></g></g><g fill="#17191a" fill-opacity="1"><g transform="translate(309.527774, 43.124995)"><g/></g></g><g fill="#17191a" fill-opacity="1"><g transform="translate(313.980933, 43.124995)"><g/></g></g><g fill="#17191a" fill-opacity="1"><g transform="translate(318.434092, 43.124995)"><g/></g></g><g fill="#17191a" fill-opacity="1"><g transform="translate(322.887251, 43.124995)"><g/></g></g><g fill="#17191a" fill-opacity="1"><g transform="translate(327.34041, 43.124995)"><g/></g></g><g fill="#17191a" fill-opacity="1"><g transform="translate(331.793569, 43.124995)"><g/></g></g><g fill="#17191a" fill-opacity="1"><g transform="translate(336.246728, 43.124995)"><g/></g></g><g fill="#17191a" fill-opacity="1"><g transform="translate(340.699887, 43.124995)"><g/></g></g><g fill="#17191a" fill-opacity="1"><g transform="translate(345.153046, 43.124995)"><g/></g></g><g fill="#17191a" fill-opacity="1"><g transform="translate(349.606205, 43.124995)"><g/></g></g><g fill="#17191a" fill-opacity="1"><g transform="translate(354.059364, 43.124995)"><g/></g></g><g fill="#17191a" fill-opacity="1"><g transform="translate(358.511527, 43.124995)"><g><path d="M 1.265625 -0.859375 C 1.265625 -1.140625 1.347656 -1.375 1.515625 -1.5625 C 1.679688 -1.75 1.929688 -1.84375 2.265625 -1.84375 C 2.597656 -1.84375 2.847656 -1.75 3.015625 -1.5625 C 3.191406 -1.375 3.28125 -1.140625 3.28125 -0.859375 C 3.28125 -0.585938 3.191406 -0.359375 3.015625 -0.171875 C 2.847656 0.00390625 2.597656 0.09375 2.265625 0.09375 C 1.929688 0.09375 1.679688 0.00390625 1.515625 -0.171875 C 1.347656 -0.359375 1.265625 -0.585938 1.265625 -0.859375 Z M 1.265625 -0.859375 "/></g></g></g><path fill="#17191a" d="M 238.769531 37.121094 C 239.105469 37.121094 239.238281 37.121094 239.238281 36.800781 C 239.238281 36.636719 239.105469 36.636719 238.800781 36.636719 L 237.445312 36.636719 C 237.761719 34.921875 238 33.738281 238.132812 33.203125 C 238.234375 32.804688 238.585938 32.421875 239.019531 32.421875 C 239.371094 32.421875 239.722656 32.570312 239.890625 32.722656 C 239.238281 32.789062 239.035156 33.269531 239.035156 33.554688 C 239.035156 33.886719 239.289062 34.085938 239.605469 34.085938 C 239.941406 34.085938 240.445312 33.804688 240.445312 33.171875 C 240.445312 32.472656 239.742188 32.085938 239.003906 32.085938 C 238.28125 32.085938 237.578125 32.621094 237.242188 33.269531 C 236.941406 33.855469 236.773438 34.453125 236.390625 36.636719 L 235.265625 36.636719 C 234.949219 36.636719 234.78125 36.636719 234.78125 36.9375 C 234.78125 37.121094 234.882812 37.121094 235.214844 37.121094 L 236.289062 37.121094 C 235.988281 38.667969 235.300781 42.433594 234.914062 44.21875 C 234.628906 45.667969 234.378906 46.882812 233.542969 46.882812 C 233.492188 46.882812 233.003906 46.882812 232.703125 46.566406 C 233.558594 46.5 233.558594 45.765625 233.558594 45.75 C 233.558594 45.417969 233.304688 45.214844 232.988281 45.214844 C 232.652344 45.214844 232.148438 45.5 232.148438 46.132812 C 232.148438 46.847656 232.886719 47.214844 233.542969 47.214844 C 235.25 47.214844 235.953125 44.167969 236.136719 43.332031 C 236.441406 42.050781 237.261719 37.617188 237.34375 37.121094 Z M 238.769531 37.121094 " fill-opacity="1" fill-rule="nonzero"/><path fill="#17191a" d="M 246.617188 47.867188 C 246.617188 47.816406 246.617188 47.78125 246.332031 47.5 C 244.65625 45.816406 243.71875 43.066406 243.71875 39.667969 C 243.71875 36.4375 244.507812 33.652344 246.449219 31.6875 C 246.617188 31.539062 246.617188 31.503906 246.617188 31.453125 C 246.617188 31.355469 246.535156 31.320312 246.46875 31.320312 C 246.25 31.320312 244.875 32.519531 244.054688 34.152344 C 243.199219 35.835938 242.816406 37.617188 242.816406 39.667969 C 242.816406 41.152344 243.050781 43.132812 243.921875 44.917969 C 244.910156 46.917969 246.28125 48 246.46875 48 C 246.535156 48 246.617188 47.964844 246.617188 47.867188 Z M 246.617188 47.867188 " fill-opacity="1" fill-rule="nonzero"/><path fill="#17191a" d="M 255.496094 37.019531 C 254.957031 37.121094 254.757812 37.519531 254.757812 37.835938 C 254.757812 38.234375 255.074219 38.367188 255.308594 38.367188 C 255.8125 38.367188 256.164062 37.9375 256.164062 37.484375 C 256.164062 36.785156 255.359375 36.46875 254.65625 36.46875 C 253.632812 36.46875 253.066406 37.46875 252.914062 37.785156 C 252.527344 36.535156 251.488281 36.46875 251.1875 36.46875 C 249.480469 36.46875 248.574219 38.652344 248.574219 39.019531 C 248.574219 39.085938 248.640625 39.167969 248.757812 39.167969 C 248.894531 39.167969 248.925781 39.070312 248.960938 39.003906 C 249.53125 37.152344 250.652344 36.800781 251.136719 36.800781 C 251.890625 36.800781 252.042969 37.503906 252.042969 37.902344 C 252.042969 38.269531 251.941406 38.652344 251.742188 39.453125 L 251.171875 41.734375 C 250.921875 42.734375 250.433594 43.652344 249.546875 43.652344 C 249.460938 43.652344 249.042969 43.652344 248.691406 43.433594 C 249.296875 43.316406 249.429688 42.816406 249.429688 42.617188 C 249.429688 42.285156 249.175781 42.085938 248.859375 42.085938 C 248.457031 42.085938 248.023438 42.433594 248.023438 42.96875 C 248.023438 43.667969 248.808594 43.984375 249.53125 43.984375 C 250.332031 43.984375 250.902344 43.351562 251.253906 42.667969 C 251.523438 43.652344 252.359375 43.984375 252.980469 43.984375 C 254.691406 43.984375 255.59375 41.800781 255.59375 41.433594 C 255.59375 41.351562 255.527344 41.285156 255.425781 41.285156 C 255.277344 41.285156 255.261719 41.367188 255.210938 41.5 C 254.757812 42.96875 253.785156 43.652344 253.03125 43.652344 C 252.445312 43.652344 252.125 43.21875 252.125 42.535156 C 252.125 42.167969 252.195312 41.902344 252.460938 40.800781 L 253.046875 38.535156 C 253.300781 37.535156 253.871094 36.800781 254.640625 36.800781 C 254.671875 36.800781 255.144531 36.800781 255.496094 37.019531 Z M 255.496094 37.019531 " fill-opacity="1" fill-rule="nonzero"/><path fill="#17191a" d="M 261.601562 39.667969 C 261.601562 38.402344 261.433594 36.335938 260.496094 34.402344 C 259.507812 32.402344 258.132812 31.320312 257.949219 31.320312 C 257.882812 31.320312 257.796875 31.355469 257.796875 31.453125 C 257.796875 31.503906 257.796875 31.539062 258.082031 31.820312 C 259.757812 33.503906 260.695312 36.253906 260.695312 39.652344 C 260.695312 42.882812 259.910156 45.667969 257.964844 47.632812 C 257.796875 47.78125 257.796875 47.816406 257.796875 47.867188 C 257.796875 47.964844 257.882812 48 257.949219 48 C 258.164062 48 259.539062 46.800781 260.359375 45.167969 C 261.214844 43.46875 261.601562 41.667969 261.601562 39.667969 Z M 261.601562 39.667969 " fill-opacity="1" fill-rule="nonzero"/><path fill="#17191a" d="M 279.21875 38.417969 C 279.453125 38.417969 279.757812 38.417969 279.757812 38.117188 C 279.757812 37.800781 279.472656 37.800781 279.21875 37.800781 L 269.351562 37.800781 C 269.117188 37.800781 268.816406 37.800781 268.816406 38.101562 C 268.816406 38.417969 269.101562 38.417969 269.351562 38.417969 Z M 279.21875 41.519531 C 279.453125 41.519531 279.757812 41.519531 279.757812 41.21875 C 279.757812 40.902344 279.472656 40.902344 279.21875 40.902344 L 269.351562 40.902344 C 269.117188 40.902344 268.816406 40.902344 268.816406 41.203125 C 268.816406 41.519531 269.101562 41.519531 269.351562 41.519531 Z M 279.21875 41.519531 " fill-opacity="1" fill-rule="nonzero"/><g clip-path="url(#a8ebc8992d)"><path fill="#17191a" d="M 291.84375 44.160156 L 288.894531 37.679688 C 288.777344 37.414062 288.695312 37.414062 288.644531 37.414062 C 288.625 37.414062 288.542969 37.414062 288.359375 37.546875 L 286.765625 38.746094 C 286.550781 38.914062 286.550781 38.960938 286.550781 39.011719 C 286.550781 39.097656 286.597656 39.195312 286.714844 39.195312 C 286.816406 39.195312 287.101562 38.960938 287.285156 38.828125 C 287.386719 38.746094 287.636719 38.5625 287.824219 38.429688 L 291.125 45.644531 C 291.242188 45.910156 291.324219 45.910156 291.476562 45.910156 C 291.726562 45.910156 291.777344 45.808594 291.894531 45.578125 L 299.5 29.914062 C 299.617188 29.683594 299.617188 29.617188 299.617188 29.582031 C 299.617188 29.414062 299.484375 29.25 299.285156 29.25 C 299.148438 29.25 299.03125 29.332031 298.898438 29.597656 Z M 291.84375 44.160156 " fill-opacity="1" fill-rule="nonzero"/></g><g clip-path="url(#44fb94bb27)"><path fill="#17191a" d="M 299.289062 29.25 L 358.257812 29.25 L 358.257812 29.914062 L 299.289062 29.914062 Z M 299.289062 29.25 " fill-opacity="1" fill-rule="nonzero"/></g><path fill="#17191a" d="M 310.332031 39.984375 C 310.613281 39.984375 310.917969 39.984375 310.917969 39.652344 C 310.917969 39.320312 310.613281 39.320312 310.332031 39.320312 L 301.265625 39.320312 C 300.980469 39.320312 300.679688 39.320312 300.679688 39.652344 C 300.679688 39.984375 300.980469 39.984375 301.265625 39.984375 Z M 310.332031 39.984375 " fill-opacity="1" fill-rule="nonzero"/><path fill="#17191a" d="M 314.464844 34.269531 C 315.1875 34.503906 315.773438 34.519531 315.957031 34.519531 C 317.851562 34.519531 319.058594 33.136719 319.058594 32.902344 C 319.058594 32.835938 319.023438 32.753906 318.921875 32.753906 C 318.890625 32.753906 318.855469 32.753906 318.703125 32.820312 C 317.765625 33.21875 316.960938 33.269531 316.527344 33.269531 C 315.421875 33.269531 314.632812 32.9375 314.316406 32.804688 C 314.199219 32.753906 314.164062 32.753906 314.148438 32.753906 C 314.011719 32.753906 314.011719 32.855469 314.011719 33.121094 L 314.011719 38.070312 C 314.011719 38.367188 314.011719 38.46875 314.214844 38.46875 C 314.296875 38.46875 314.316406 38.453125 314.484375 38.253906 C 314.953125 37.570312 315.738281 37.167969 316.578125 37.167969 C 317.464844 37.167969 317.902344 37.984375 318.035156 38.269531 C 318.320312 38.917969 318.335938 39.734375 318.335938 40.367188 C 318.335938 41 318.335938 41.949219 317.867188 42.699219 C 317.5 43.300781 316.84375 43.71875 316.109375 43.71875 C 315.003906 43.71875 313.914062 42.96875 313.609375 41.75 C 313.695312 41.785156 313.796875 41.800781 313.878906 41.800781 C 314.164062 41.800781 314.617188 41.632812 314.617188 41.066406 C 314.617188 40.601562 314.296875 40.335938 313.878906 40.335938 C 313.578125 40.335938 313.140625 40.484375 313.140625 41.132812 C 313.140625 42.550781 314.28125 44.167969 316.140625 44.167969 C 318.035156 44.167969 319.695312 42.585938 319.695312 40.46875 C 319.695312 38.484375 318.351562 36.835938 316.59375 36.835938 C 315.640625 36.835938 314.902344 37.253906 314.464844 37.71875 Z M 314.464844 34.269531 " fill-opacity="1" fill-rule="nonzero"/><path fill="#17191a" d="M 328.464844 37.019531 C 327.929688 37.121094 327.730469 37.519531 327.730469 37.835938 C 327.730469 38.234375 328.046875 38.367188 328.28125 38.367188 C 328.785156 38.367188 329.136719 37.9375 329.136719 37.484375 C 329.136719 36.785156 328.332031 36.46875 327.628906 36.46875 C 326.605469 36.46875 326.035156 37.46875 325.886719 37.785156 C 325.5 36.535156 324.460938 36.46875 324.160156 36.46875 C 322.453125 36.46875 321.546875 38.652344 321.546875 39.019531 C 321.546875 39.085938 321.613281 39.167969 321.730469 39.167969 C 321.863281 39.167969 321.898438 39.070312 321.933594 39.003906 C 322.5 37.152344 323.625 36.800781 324.109375 36.800781 C 324.863281 36.800781 325.015625 37.503906 325.015625 37.902344 C 325.015625 38.269531 324.914062 38.652344 324.714844 39.453125 L 324.144531 41.734375 C 323.890625 42.734375 323.40625 43.652344 322.519531 43.652344 C 322.433594 43.652344 322.015625 43.652344 321.664062 43.433594 C 322.265625 43.316406 322.402344 42.816406 322.402344 42.617188 C 322.402344 42.285156 322.148438 42.085938 321.832031 42.085938 C 321.429688 42.085938 320.992188 42.433594 320.992188 42.96875 C 320.992188 43.667969 321.78125 43.984375 322.5 43.984375 C 323.304688 43.984375 323.875 43.351562 324.226562 42.667969 C 324.496094 43.652344 325.332031 43.984375 325.953125 43.984375 C 327.664062 43.984375 328.566406 41.800781 328.566406 41.433594 C 328.566406 41.351562 328.5 41.285156 328.398438 41.285156 C 328.25 41.285156 328.230469 41.367188 328.183594 41.5 C 327.730469 42.96875 326.757812 43.652344 326.003906 43.652344 C 325.417969 43.652344 325.097656 43.21875 325.097656 42.535156 C 325.097656 42.167969 325.164062 41.902344 325.433594 40.800781 L 326.019531 38.535156 C 326.273438 37.535156 326.839844 36.800781 327.613281 36.800781 C 327.644531 36.800781 328.113281 36.800781 328.464844 37.019531 Z M 328.464844 37.019531 " fill-opacity="1" fill-rule="nonzero"/><path fill="#17191a" d="M 340.257812 39.96875 L 344.882812 39.96875 C 345.117188 39.96875 345.417969 39.96875 345.417969 39.667969 C 345.417969 39.351562 345.132812 39.351562 344.882812 39.351562 L 340.257812 39.351562 L 340.257812 34.753906 C 340.257812 34.519531 340.257812 34.21875 339.957031 34.21875 C 339.636719 34.21875 339.636719 34.503906 339.636719 34.753906 L 339.636719 39.351562 L 335.011719 39.351562 C 334.777344 39.351562 334.476562 39.351562 334.476562 39.652344 C 334.476562 39.96875 334.761719 39.96875 335.011719 39.96875 L 339.636719 39.96875 L 339.636719 44.566406 C 339.636719 44.800781 339.636719 45.101562 339.9375 45.101562 C 340.257812 45.101562 340.257812 44.816406 340.257812 44.566406 Z M 340.257812 39.96875 " fill-opacity="1" fill-rule="nonzero"/><path fill="#17191a" d="M 353.136719 37.835938 C 352.851562 37.851562 352.785156 37.867188 352.785156 38.019531 C 352.785156 38.1875 352.871094 38.1875 353.171875 38.1875 L 353.941406 38.1875 C 355.367188 38.1875 356.003906 39.351562 356.003906 40.953125 C 356.003906 43.132812 354.863281 43.71875 354.042969 43.71875 C 353.238281 43.71875 351.863281 43.332031 351.378906 42.234375 C 351.914062 42.316406 352.402344 42.019531 352.402344 41.417969 C 352.402344 40.933594 352.050781 40.601562 351.578125 40.601562 C 351.179688 40.601562 350.742188 40.835938 350.742188 41.46875 C 350.742188 42.949219 352.234375 44.167969 354.09375 44.167969 C 356.085938 44.167969 357.5625 42.652344 357.5625 40.96875 C 357.5625 39.433594 356.320312 38.234375 354.714844 37.953125 C 356.171875 37.535156 357.109375 36.320312 357.109375 35.019531 C 357.109375 33.703125 355.734375 32.738281 354.109375 32.738281 C 352.433594 32.738281 351.195312 33.753906 351.195312 34.96875 C 351.195312 35.636719 351.714844 35.769531 351.964844 35.769531 C 352.316406 35.769531 352.71875 35.519531 352.71875 35.019531 C 352.71875 34.488281 352.316406 34.253906 351.949219 34.253906 C 351.847656 34.253906 351.816406 34.253906 351.765625 34.269531 C 352.402344 33.136719 353.976562 33.136719 354.058594 33.136719 C 354.613281 33.136719 355.703125 33.386719 355.703125 35.019531 C 355.703125 35.335938 355.652344 36.269531 355.164062 36.984375 C 354.664062 37.71875 354.09375 37.769531 353.640625 37.785156 Z M 353.136719 37.835938 " fill-opacity="1" fill-rule="nonzero"/></svg>