<svg xmlns="http://www.w3.org/2000/svg" xmlns:xlink="http://www.w3.org/1999/xlink" width="500" zoomAndPan="magnify" viewBox="0 0 375 74.999997" height="100" preserveAspectRatio="xMidYMid meet" version="1.0"><defs><clipPath id="0a253b99a4"><path d="M 132.105469 34 L 143 34 L 143 44 L 132.105469 44 Z M 132.105469 34 " clip-rule="nonzero"/></clipPath><clipPath id="4d10fda902"><path d="M 229 17.09375 L 238 17.09375 L 238 31 L 229 31 Z M 229 17.09375 " clip-rule="nonzero"/></clipPath><clipPath id="699a3a34fd"><path d="M 229 44 L 238 44 L 238 57.59375 L 229 57.59375 Z M 229 44 " clip-rule="nonzero"/></clipPath><clipPath id="3e6b09eb10"><path d="M 240 28 L 243.105469 28 L 243.105469 49 L 240 49 Z M 240 28 " clip-rule="nonzero"/></clipPath></defs><g clip-path="url(#0a253b99a4)"><path fill="#a8180f" d="M 141.5 35.5625 C 140.867188 35.679688 140.628906 36.148438 140.628906 36.523438 C 140.628906 36.992188 141.003906 37.152344 141.28125 37.152344 C 141.875 37.152344 142.292969 36.640625 142.292969 36.109375 C 142.292969 35.285156 141.339844 34.914062 140.507812 34.914062 C 139.300781 34.914062 138.625 36.089844 138.449219 36.464844 C 137.992188 34.992188 136.761719 34.914062 136.40625 34.914062 C 134.386719 34.914062 133.316406 37.484375 133.316406 37.917969 C 133.316406 37.996094 133.394531 38.09375 133.53125 38.09375 C 133.691406 38.09375 133.730469 37.976562 133.769531 37.898438 C 134.445312 35.71875 135.773438 35.304688 136.347656 35.304688 C 137.238281 35.304688 137.417969 36.128906 137.417969 36.601562 C 137.417969 37.035156 137.296875 37.484375 137.058594 38.425781 L 136.386719 41.117188 C 136.089844 42.292969 135.515625 43.375 134.464844 43.375 C 134.367188 43.375 133.871094 43.375 133.453125 43.117188 C 134.167969 42.980469 134.324219 42.390625 134.324219 42.15625 C 134.324219 41.765625 134.027344 41.527344 133.652344 41.527344 C 133.175781 41.527344 132.660156 41.941406 132.660156 42.570312 C 132.660156 43.394531 133.59375 43.765625 134.445312 43.765625 C 135.394531 43.765625 136.070312 43.019531 136.484375 42.214844 C 136.804688 43.375 137.792969 43.765625 138.527344 43.765625 C 140.546875 43.765625 141.617188 41.195312 141.617188 40.761719 C 141.617188 40.664062 141.539062 40.585938 141.421875 40.585938 C 141.242188 40.585938 141.222656 40.683594 141.164062 40.839844 C 140.628906 42.570312 139.476562 43.375 138.585938 43.375 C 137.894531 43.375 137.515625 42.863281 137.515625 42.058594 C 137.515625 41.625 137.59375 41.3125 137.914062 40.015625 L 138.605469 37.347656 C 138.902344 36.167969 139.578125 35.304688 140.488281 35.304688 C 140.527344 35.304688 141.082031 35.304688 141.5 35.5625 Z M 141.5 35.5625 " fill-opacity="1" fill-rule="nonzero"/></g><path fill="#a8180f" d="M 159.496094 39.054688 C 159.835938 39.054688 160.191406 39.054688 160.191406 38.664062 C 160.191406 38.269531 159.835938 38.269531 159.496094 38.269531 L 151.09375 38.269531 C 151.332031 35.640625 153.613281 33.753906 156.40625 33.753906 L 159.496094 33.753906 C 159.835938 33.753906 160.191406 33.753906 160.191406 33.363281 C 160.191406 32.96875 159.835938 32.96875 159.496094 32.96875 L 156.367188 32.96875 C 152.976562 32.96875 150.28125 35.523438 150.28125 38.664062 C 150.28125 41.804688 152.976562 44.355469 156.367188 44.355469 L 159.496094 44.355469 C 159.835938 44.355469 160.191406 44.355469 160.191406 43.960938 C 160.191406 43.570312 159.835938 43.570312 159.496094 43.570312 L 156.40625 43.570312 C 153.613281 43.570312 151.332031 41.683594 151.09375 39.054688 Z M 159.496094 39.054688 " fill-opacity="1" fill-rule="nonzero"/><path fill="#a8180f" d="M 174.910156 34.011719 C 175.265625 33.851562 175.304688 33.714844 175.304688 33.597656 C 175.304688 33.382812 175.144531 33.226562 174.929688 33.226562 C 174.886719 33.226562 174.867188 33.246094 174.589844 33.363281 L 163.871094 38.25 C 163.511719 38.40625 163.472656 38.542969 163.472656 38.664062 C 163.472656 38.800781 163.492188 38.917969 163.871094 39.09375 L 174.589844 43.980469 C 174.847656 44.101562 174.886719 44.121094 174.929688 44.121094 C 175.144531 44.121094 175.304688 43.960938 175.304688 43.746094 C 175.304688 43.628906 175.265625 43.492188 174.910156 43.335938 L 164.703125 38.683594 Z M 174.910156 34.011719 " fill-opacity="1" fill-rule="nonzero"/><path fill="#a8180f" d="M 195.503906 39.054688 C 195.84375 39.054688 196.199219 39.054688 196.199219 38.664062 C 196.199219 38.269531 195.84375 38.269531 195.503906 38.269531 L 184.785156 38.269531 C 184.449219 38.269531 184.089844 38.269531 184.089844 38.664062 C 184.089844 39.054688 184.449219 39.054688 184.785156 39.054688 Z M 195.503906 39.054688 " fill-opacity="1" fill-rule="nonzero"/><path fill="#a8180f" d="M 207.925781 38.25 C 206.855469 36.914062 206.617188 36.621094 206.003906 36.128906 C 204.894531 35.246094 203.785156 34.894531 202.773438 34.894531 C 200.453125 34.894531 198.949219 37.054688 198.949219 39.347656 C 198.949219 41.605469 200.414062 43.785156 202.695312 43.785156 C 204.972656 43.785156 206.617188 42 207.589844 40.429688 C 208.660156 41.765625 208.898438 42.058594 209.511719 42.550781 C 210.621094 43.433594 211.730469 43.785156 212.742188 43.785156 C 215.058594 43.785156 216.566406 41.625 216.566406 39.328125 C 216.566406 37.074219 215.101562 34.894531 212.820312 34.894531 C 210.542969 34.894531 208.898438 36.679688 207.925781 38.25 Z M 208.441406 38.917969 C 209.253906 37.503906 210.71875 35.523438 212.960938 35.523438 C 215.058594 35.523438 216.128906 37.5625 216.128906 39.328125 C 216.128906 41.253906 214.800781 42.84375 213.058594 42.84375 C 211.910156 42.84375 211.015625 42.019531 210.601562 41.605469 C 210.105469 41.078125 209.648438 40.46875 208.441406 38.917969 Z M 207.074219 39.761719 C 206.261719 41.175781 204.792969 43.15625 202.554688 43.15625 C 200.453125 43.15625 199.382812 41.117188 199.382812 39.347656 C 199.382812 37.425781 200.710938 35.835938 202.457031 35.835938 C 203.605469 35.835938 204.496094 36.660156 204.914062 37.074219 C 205.410156 37.601562 205.863281 38.210938 207.074219 39.761719 Z M 207.074219 39.761719 " fill-opacity="1" fill-rule="nonzero"/><path fill="#a8180f" d="M 221.542969 43.648438 C 221.542969 42.511719 221.164062 41.664062 220.351562 41.664062 C 219.71875 41.664062 219.402344 42.175781 219.402344 42.609375 C 219.402344 43.039062 219.699219 43.570312 220.371094 43.570312 C 220.628906 43.570312 220.847656 43.492188 221.027344 43.316406 C 221.066406 43.277344 221.085938 43.277344 221.105469 43.277344 C 221.144531 43.277344 221.144531 43.550781 221.144531 43.648438 C 221.144531 44.296875 221.027344 45.570312 219.875 46.847656 C 219.660156 47.082031 219.660156 47.121094 219.660156 47.164062 C 219.660156 47.261719 219.757812 47.359375 219.855469 47.359375 C 220.015625 47.359375 221.542969 45.90625 221.542969 43.648438 Z M 221.542969 43.648438 " fill-opacity="1" fill-rule="nonzero"/><g clip-path="url(#4d10fda902)"><path fill="#a8180f" d="M 231.996094 23.246094 C 231.660156 23.265625 231.582031 23.285156 231.582031 23.460938 C 231.582031 23.65625 231.679688 23.65625 232.035156 23.65625 L 232.949219 23.65625 C 234.632812 23.65625 235.386719 25.03125 235.386719 26.914062 C 235.386719 29.488281 234.039062 30.175781 233.066406 30.175781 C 232.117188 30.175781 230.492188 29.722656 229.917969 28.425781 C 230.550781 28.523438 231.125 28.171875 231.125 27.464844 C 231.125 26.894531 230.707031 26.503906 230.152344 26.503906 C 229.679688 26.503906 229.164062 26.777344 229.164062 27.523438 C 229.164062 29.269531 230.925781 30.703125 233.125 30.703125 C 235.484375 30.703125 237.230469 28.917969 237.230469 26.933594 C 237.230469 25.128906 235.761719 23.714844 233.859375 23.382812 C 235.582031 22.890625 236.695312 21.457031 236.695312 19.925781 C 236.695312 18.375 235.070312 17.238281 233.144531 17.238281 C 231.164062 17.238281 229.699219 18.433594 229.699219 19.867188 C 229.699219 20.652344 230.3125 20.808594 230.609375 20.808594 C 231.027344 20.808594 231.5 20.515625 231.5 19.925781 C 231.5 19.300781 231.027344 19.023438 230.589844 19.023438 C 230.472656 19.023438 230.429688 19.023438 230.371094 19.042969 C 231.125 17.710938 232.988281 17.710938 233.085938 17.710938 C 233.742188 17.710938 235.027344 18.003906 235.027344 19.925781 C 235.027344 20.300781 234.96875 21.398438 234.394531 22.242188 C 233.800781 23.105469 233.125 23.167969 232.589844 23.1875 Z M 231.996094 23.246094 " fill-opacity="1" fill-rule="nonzero"/></g><path fill="#a8180f" d="M 228.351562 38.269531 L 238.050781 38.269531 L 238.050781 39.054688 L 228.351562 39.054688 Z M 228.351562 38.269531 " fill-opacity="1" fill-rule="nonzero"/><g clip-path="url(#699a3a34fd)"><path fill="#a8180f" d="M 230.886719 45.789062 C 231.738281 46.0625 232.433594 46.082031 232.652344 46.082031 C 234.890625 46.082031 236.316406 44.453125 236.316406 44.179688 C 236.316406 44.097656 236.277344 44 236.160156 44 C 236.117188 44 236.078125 44 235.902344 44.078125 C 234.792969 44.550781 233.839844 44.609375 233.324219 44.609375 C 232.015625 44.609375 231.085938 44.21875 230.707031 44.058594 C 230.570312 44 230.53125 44 230.511719 44 C 230.351562 44 230.351562 44.121094 230.351562 44.433594 L 230.351562 50.261719 C 230.351562 50.617188 230.351562 50.734375 230.589844 50.734375 C 230.6875 50.734375 230.707031 50.714844 230.90625 50.480469 C 231.460938 49.675781 232.394531 49.203125 233.382812 49.203125 C 234.433594 49.203125 234.949219 50.164062 235.109375 50.5 C 235.445312 51.265625 235.464844 52.226562 235.464844 52.972656 C 235.464844 53.71875 235.464844 54.835938 234.910156 55.71875 C 234.472656 56.425781 233.703125 56.917969 232.828125 56.917969 C 231.519531 56.917969 230.234375 56.035156 229.875 54.601562 C 229.976562 54.640625 230.09375 54.660156 230.195312 54.660156 C 230.53125 54.660156 231.066406 54.464844 231.066406 53.796875 C 231.066406 53.246094 230.6875 52.933594 230.195312 52.933594 C 229.835938 52.933594 229.320312 53.109375 229.320312 53.875 C 229.320312 55.542969 230.667969 57.449219 232.867188 57.449219 C 235.109375 57.449219 237.070312 55.582031 237.070312 53.089844 C 237.070312 50.753906 235.484375 48.8125 233.402344 48.8125 C 232.273438 48.8125 231.402344 49.300781 230.886719 49.851562 Z M 230.886719 45.789062 " fill-opacity="1" fill-rule="nonzero"/></g><g clip-path="url(#3e6b09eb10)"><path fill="#a8180f" d="M 243.105469 28.847656 L 240.453125 28.847656 L 240.453125 29.574219 L 242.375 29.574219 L 242.375 47.75 L 240.453125 47.75 L 240.453125 48.476562 L 243.105469 48.476562 Z M 243.105469 28.847656 " fill-opacity="1" fill-rule="nonzero"/></g></svg>