<svg xmlns="http://www.w3.org/2000/svg" xmlns:xlink="http://www.w3.org/1999/xlink" width="500" zoomAndPan="magnify" viewBox="0 0 375 74.999997" height="100" preserveAspectRatio="xMidYMid meet" version="1.0"><defs><clipPath id="edfdaaf6ba"><path d="M 204 15.152344 L 213 15.152344 L 213 30 L 204 30 Z M 204 15.152344 " clip-rule="nonzero"/></clipPath><clipPath id="f9405db259"><path d="M 203 38 L 213.707031 38 L 213.707031 40 L 203 40 Z M 203 38 " clip-rule="nonzero"/></clipPath><clipPath id="16b512748c"><path d="M 204 44 L 213 44 L 213 59.402344 L 204 59.402344 Z M 204 44 " clip-rule="nonzero"/></clipPath></defs><path fill="#a8180f" d="M 167.894531 29.789062 C 167.914062 29.703125 167.957031 29.578125 167.957031 29.46875 C 167.957031 29.257812 167.746094 29.257812 167.703125 29.257812 C 167.683594 29.257812 166.921875 29.320312 166.542969 29.363281 C 166.183594 29.386719 165.867188 29.425781 165.484375 29.449219 C 164.976562 29.492188 164.832031 29.511719 164.832031 29.894531 C 164.832031 30.109375 165.042969 30.109375 165.253906 30.109375 C 166.332031 30.109375 166.332031 30.300781 166.332031 30.511719 C 166.332031 30.597656 166.332031 30.640625 166.226562 31.023438 L 163.203125 43.203125 C 163.117188 43.523438 163.117188 43.566406 163.117188 43.695312 C 163.117188 44.160156 163.476562 44.246094 163.691406 44.246094 C 164.28125 44.246094 164.40625 43.777344 164.578125 43.117188 L 165.570312 39.136719 C 167.089844 39.308594 168 39.945312 168 40.96875 C 168 41.097656 168 41.179688 167.9375 41.5 C 167.851562 41.820312 167.851562 42.074219 167.851562 42.183594 C 167.851562 43.417969 168.65625 44.246094 169.730469 44.246094 C 170.703125 44.246094 171.210938 43.351562 171.378906 43.054688 C 171.824219 42.265625 172.097656 41.074219 172.097656 40.988281 C 172.097656 40.882812 172.011719 40.796875 171.886719 40.796875 C 171.695312 40.796875 171.675781 40.882812 171.589844 41.222656 C 171.296875 42.332031 170.851562 43.820312 169.773438 43.820312 C 169.351562 43.820312 169.078125 43.609375 169.078125 42.800781 C 169.078125 42.394531 169.160156 41.925781 169.246094 41.605469 C 169.332031 41.222656 169.332031 41.203125 169.332031 40.945312 C 169.332031 39.691406 168.210938 38.988281 166.265625 38.730469 C 167.027344 38.265625 167.789062 37.433594 168.082031 37.113281 C 169.289062 35.75 170.113281 35.070312 171.082031 35.070312 C 171.570312 35.070312 171.695312 35.199219 171.84375 35.324219 C 171.0625 35.410156 170.765625 35.964844 170.765625 36.390625 C 170.765625 36.902344 171.167969 37.070312 171.464844 37.070312 C 172.035156 37.070312 172.542969 36.582031 172.542969 35.902344 C 172.542969 35.28125 172.054688 34.644531 171.105469 34.644531 C 169.941406 34.644531 168.992188 35.472656 167.492188 37.179688 C 167.28125 37.433594 166.5 38.242188 165.71875 38.539062 Z M 167.894531 29.789062 " fill-opacity="1" fill-rule="nonzero"/><path fill="#a8180f" d="M 193.554688 37.136719 C 193.851562 37.136719 194.230469 37.136719 194.230469 36.753906 C 194.230469 36.347656 193.871094 36.347656 193.554688 36.347656 L 181.113281 36.347656 C 180.816406 36.347656 180.4375 36.347656 180.4375 36.730469 C 180.4375 37.136719 180.792969 37.136719 181.113281 37.136719 Z M 193.554688 41.097656 C 193.851562 41.097656 194.230469 41.097656 194.230469 40.710938 C 194.230469 40.308594 193.871094 40.308594 193.554688 40.308594 L 181.113281 40.308594 C 180.816406 40.308594 180.4375 40.308594 180.4375 40.691406 C 180.4375 41.097656 180.792969 41.097656 181.113281 41.097656 Z M 193.554688 41.097656 " fill-opacity="1" fill-rule="nonzero"/><g clip-path="url(#edfdaaf6ba)"><path fill="#a8180f" d="M 212.660156 26.054688 L 212.195312 26.054688 C 212.132812 26.414062 211.964844 27.585938 211.753906 27.925781 C 211.605469 28.121094 210.402344 28.121094 209.765625 28.121094 L 205.859375 28.121094 C 206.429688 27.628906 207.71875 26.265625 208.265625 25.757812 C 211.476562 22.773438 212.660156 21.667969 212.660156 19.558594 C 212.660156 17.109375 210.738281 15.472656 208.289062 15.472656 C 205.835938 15.472656 204.402344 17.578125 204.402344 19.410156 C 204.402344 20.496094 205.332031 20.496094 205.394531 20.496094 C 205.835938 20.496094 206.386719 20.175781 206.386719 19.496094 C 206.386719 18.898438 205.984375 18.496094 205.394531 18.496094 C 205.203125 18.496094 205.160156 18.496094 205.097656 18.515625 C 205.5 17.070312 206.640625 16.089844 208.011719 16.089844 C 209.808594 16.089844 210.90625 17.601562 210.90625 19.558594 C 210.90625 21.371094 209.871094 22.945312 208.667969 24.308594 L 204.402344 29.121094 L 204.402344 29.632812 L 212.113281 29.632812 Z M 212.660156 26.054688 " fill-opacity="1" fill-rule="nonzero"/></g><g clip-path="url(#f9405db259)"><path fill="#a8180f" d="M 203.367188 38.285156 L 213.707031 38.285156 L 213.707031 39.136719 L 203.367188 39.136719 Z M 203.367188 38.285156 " fill-opacity="1" fill-rule="nonzero"/></g><g clip-path="url(#16b512748c)"><path fill="#a8180f" d="M 207.253906 50.996094 C 206.894531 51.015625 206.808594 51.039062 206.808594 51.230469 C 206.808594 51.441406 206.914062 51.441406 207.296875 51.441406 L 208.265625 51.441406 C 210.0625 51.441406 210.867188 52.933594 210.867188 54.976562 C 210.867188 57.765625 209.429688 58.511719 208.394531 58.511719 C 207.378906 58.511719 205.648438 58.023438 205.035156 56.617188 C 205.710938 56.722656 206.324219 56.339844 206.324219 55.574219 C 206.324219 54.957031 205.878906 54.53125 205.289062 54.53125 C 204.78125 54.53125 204.230469 54.828125 204.230469 55.636719 C 204.230469 57.53125 206.113281 59.085938 208.457031 59.085938 C 210.972656 59.085938 212.832031 57.148438 212.832031 55 C 212.832031 53.039062 211.265625 51.507812 209.238281 51.144531 C 211.078125 50.613281 212.261719 49.058594 212.261719 47.398438 C 212.261719 45.714844 210.527344 44.480469 208.476562 44.480469 C 206.367188 44.480469 204.800781 45.78125 204.800781 47.332031 C 204.800781 48.1875 205.457031 48.355469 205.773438 48.355469 C 206.21875 48.355469 206.726562 48.035156 206.726562 47.398438 C 206.726562 46.714844 206.21875 46.417969 205.753906 46.417969 C 205.625 46.417969 205.582031 46.417969 205.519531 46.441406 C 206.324219 44.992188 208.308594 44.992188 208.414062 44.992188 C 209.113281 44.992188 210.484375 45.3125 210.484375 47.398438 C 210.484375 47.800781 210.421875 48.996094 209.808594 49.910156 C 209.175781 50.847656 208.457031 50.910156 207.886719 50.933594 Z M 207.253906 50.996094 " fill-opacity="1" fill-rule="nonzero"/></g></svg>