<svg xmlns="http://www.w3.org/2000/svg" xmlns:xlink="http://www.w3.org/1999/xlink" width="500" zoomAndPan="magnify" viewBox="0 0 375 74.999997" height="100" preserveAspectRatio="xMidYMid meet" version="1.0"><defs><clipPath id="a95cf2eded"><path d="M 184 18.828125 L 193 18.828125 L 193 32 L 184 32 Z M 184 18.828125 " clip-rule="nonzero"/></clipPath><clipPath id="a8abca0418"><path d="M 184 43 L 193 43 L 193 56.328125 L 184 56.328125 Z M 184 43 " clip-rule="nonzero"/></clipPath><clipPath id="0997c9facd"><path d="M 227 33 L 238.066406 33 L 238.066406 44 L 227 44 Z M 227 33 " clip-rule="nonzero"/></clipPath></defs><path fill="#a8180f" d="M 141.886719 31.195312 C 141.902344 31.121094 141.9375 31.015625 141.9375 30.921875 C 141.9375 30.742188 141.757812 30.742188 141.722656 30.742188 C 141.703125 30.742188 141.054688 30.796875 140.730469 30.832031 C 140.421875 30.851562 140.152344 30.886719 139.828125 30.90625 C 139.394531 30.941406 139.269531 30.960938 139.269531 31.285156 C 139.269531 31.46875 139.449219 31.46875 139.628906 31.46875 C 140.550781 31.46875 140.550781 31.628906 140.550781 31.8125 C 140.550781 31.886719 140.550781 31.921875 140.460938 32.246094 L 137.878906 42.625 C 137.808594 42.898438 137.808594 42.933594 137.808594 43.042969 C 137.808594 43.441406 138.113281 43.515625 138.292969 43.515625 C 138.800781 43.515625 138.90625 43.117188 139.050781 42.554688 L 139.902344 39.160156 C 141.199219 39.304688 141.976562 39.851562 141.976562 40.71875 C 141.976562 40.828125 141.976562 40.902344 141.921875 41.175781 C 141.847656 41.445312 141.847656 41.664062 141.847656 41.753906 C 141.847656 42.808594 142.535156 43.515625 143.453125 43.515625 C 144.285156 43.515625 144.71875 42.753906 144.863281 42.5 C 145.242188 41.828125 145.476562 40.8125 145.476562 40.738281 C 145.476562 40.648438 145.402344 40.574219 145.296875 40.574219 C 145.132812 40.574219 145.113281 40.648438 145.042969 40.9375 C 144.789062 41.882812 144.410156 43.152344 143.492188 43.152344 C 143.128906 43.152344 142.894531 42.96875 142.894531 42.28125 C 142.894531 41.9375 142.96875 41.535156 143.039062 41.265625 C 143.113281 40.9375 143.113281 40.921875 143.113281 40.703125 C 143.113281 39.632812 142.15625 39.035156 140.496094 38.816406 C 141.144531 38.417969 141.796875 37.707031 142.046875 37.4375 C 143.074219 36.277344 143.78125 35.695312 144.609375 35.695312 C 145.023438 35.695312 145.132812 35.804688 145.257812 35.914062 C 144.589844 35.984375 144.339844 36.457031 144.339844 36.820312 C 144.339844 37.253906 144.683594 37.398438 144.933594 37.398438 C 145.421875 37.398438 145.855469 36.984375 145.855469 36.402344 C 145.855469 35.875 145.441406 35.332031 144.628906 35.332031 C 143.636719 35.332031 142.824219 36.039062 141.542969 37.492188 C 141.363281 37.707031 140.695312 38.398438 140.027344 38.652344 Z M 141.886719 31.195312 " fill-opacity="1" fill-rule="nonzero"/><path fill="#a8180f" d="M 161.507812 39.160156 C 161.816406 39.160156 162.140625 39.160156 162.140625 38.796875 C 162.140625 38.433594 161.816406 38.433594 161.507812 38.433594 L 153.859375 38.433594 C 154.074219 36.003906 156.152344 34.261719 158.695312 34.261719 L 161.507812 34.261719 C 161.816406 34.261719 162.140625 34.261719 162.140625 33.898438 C 162.140625 33.535156 161.816406 33.535156 161.507812 33.535156 L 158.660156 33.535156 C 155.574219 33.535156 153.121094 35.894531 153.121094 38.796875 C 153.121094 41.699219 155.574219 44.058594 158.660156 44.058594 L 161.507812 44.058594 C 161.816406 44.058594 162.140625 44.058594 162.140625 43.695312 C 162.140625 43.332031 161.816406 43.332031 161.507812 43.332031 L 158.695312 43.332031 C 156.152344 43.332031 154.074219 41.589844 153.859375 39.160156 Z M 161.507812 39.160156 " fill-opacity="1" fill-rule="nonzero"/><path fill="#a8180f" d="M 175.539062 34.496094 C 175.867188 34.351562 175.902344 34.226562 175.902344 34.117188 C 175.902344 33.917969 175.757812 33.773438 175.558594 33.773438 C 175.523438 33.773438 175.503906 33.789062 175.253906 33.898438 L 165.492188 38.417969 C 165.167969 38.5625 165.128906 38.6875 165.128906 38.796875 C 165.128906 38.925781 165.148438 39.035156 165.492188 39.195312 L 175.253906 43.714844 C 175.488281 43.824219 175.523438 43.839844 175.558594 43.839844 C 175.757812 43.839844 175.902344 43.695312 175.902344 43.496094 C 175.902344 43.386719 175.867188 43.261719 175.539062 43.117188 L 166.25 38.816406 Z M 175.539062 34.496094 " fill-opacity="1" fill-rule="nonzero"/><g clip-path="url(#a95cf2eded)"><path fill="#a8180f" d="M 190.8125 25.78125 C 190.8125 30.0625 188.917969 30.953125 187.835938 30.953125 C 187.402344 30.953125 186.445312 30.898438 185.992188 30.261719 L 186.101562 30.261719 C 186.226562 30.296875 186.878906 30.1875 186.878906 29.519531 C 186.878906 29.117188 186.605469 28.773438 186.136719 28.773438 C 185.667969 28.773438 185.378906 29.082031 185.378906 29.554688 C 185.378906 30.679688 186.28125 31.441406 187.851562 31.441406 C 190.109375 31.441406 192.289062 29.027344 192.289062 25.089844 C 192.289062 20.210938 190.269531 18.996094 188.683594 18.996094 C 186.699219 18.996094 184.949219 20.664062 184.949219 23.058594 C 184.949219 25.453125 186.625 27.085938 188.429688 27.085938 C 189.765625 27.085938 190.449219 26.105469 190.8125 25.183594 Z M 188.5 26.722656 C 187.363281 26.722656 186.878906 25.796875 186.714844 25.453125 C 186.425781 24.765625 186.425781 23.894531 186.425781 23.078125 C 186.425781 22.0625 186.425781 21.191406 186.894531 20.445312 C 187.222656 19.957031 187.707031 19.429688 188.683594 19.429688 C 189.710938 19.429688 190.234375 20.335938 190.414062 20.753906 C 190.773438 21.644531 190.773438 23.1875 190.773438 23.457031 C 190.773438 24.980469 190.089844 26.722656 188.5 26.722656 Z M 188.5 26.722656 " fill-opacity="1" fill-rule="nonzero"/></g><path fill="#a8180f" d="M 184.207031 38.4375 L 193.042969 38.4375 L 193.042969 39.160156 L 184.207031 39.160156 Z M 184.207031 38.4375 " fill-opacity="1" fill-rule="nonzero"/><g clip-path="url(#a8abca0418)"><path fill="#a8180f" d="M 189.585938 49.230469 C 190.488281 48.738281 191.804688 47.90625 191.804688 46.382812 C 191.804688 44.800781 190.289062 43.714844 188.628906 43.714844 C 186.84375 43.714844 185.433594 45.039062 185.433594 46.6875 C 185.433594 47.304688 185.613281 47.921875 186.121094 48.539062 C 186.320312 48.777344 186.335938 48.792969 187.601562 49.683594 C 185.847656 50.5 184.949219 51.714844 184.949219 53.039062 C 184.949219 54.960938 186.769531 56.160156 188.609375 56.160156 C 190.613281 56.160156 192.289062 54.671875 192.289062 52.765625 C 192.289062 50.917969 190.992188 50.101562 189.585938 49.230469 Z M 187.128906 47.597656 C 186.894531 47.433594 186.175781 46.960938 186.175781 46.074219 C 186.175781 44.894531 187.402344 44.148438 188.609375 44.148438 C 189.910156 44.148438 191.0625 45.09375 191.0625 46.398438 C 191.0625 47.503906 190.269531 48.394531 189.222656 48.976562 Z M 187.980469 49.9375 L 190.160156 51.371094 C 190.632812 51.679688 191.460938 52.242188 191.460938 53.347656 C 191.460938 54.726562 190.070312 55.671875 188.628906 55.671875 C 187.09375 55.671875 185.777344 54.546875 185.777344 53.039062 C 185.777344 51.625 186.804688 50.480469 187.980469 49.9375 Z M 187.980469 49.9375 " fill-opacity="1" fill-rule="nonzero"/></g><path fill="#a8180f" d="M 198.363281 43.40625 C 198.363281 42.351562 198.019531 41.574219 197.28125 41.574219 C 196.703125 41.574219 196.414062 42.046875 196.414062 42.445312 C 196.414062 42.84375 196.683594 43.332031 197.296875 43.332031 C 197.53125 43.332031 197.730469 43.261719 197.894531 43.097656 C 197.929688 43.0625 197.949219 43.0625 197.964844 43.0625 C 198.003906 43.0625 198.003906 43.316406 198.003906 43.40625 C 198.003906 44.003906 197.894531 45.183594 196.847656 46.363281 C 196.648438 46.582031 196.648438 46.617188 196.648438 46.652344 C 196.648438 46.742188 196.738281 46.835938 196.828125 46.835938 C 196.972656 46.835938 198.363281 45.492188 198.363281 43.40625 Z M 198.363281 43.40625 " fill-opacity="1" fill-rule="nonzero"/><path fill="#a8180f" d="M 211.925781 38.417969 C 210.949219 37.183594 210.734375 36.910156 210.175781 36.457031 C 209.164062 35.640625 208.152344 35.3125 207.234375 35.3125 C 205.121094 35.3125 203.75 37.308594 203.75 39.433594 C 203.75 41.519531 205.085938 43.53125 207.160156 43.53125 C 209.238281 43.53125 210.734375 41.882812 211.617188 40.429688 C 212.59375 41.664062 212.808594 41.9375 213.367188 42.390625 C 214.378906 43.207031 215.390625 43.53125 216.308594 43.53125 C 218.421875 43.53125 219.792969 41.535156 219.792969 39.414062 C 219.792969 37.328125 218.457031 35.3125 216.382812 35.3125 C 214.304688 35.3125 212.808594 36.964844 211.925781 38.417969 Z M 212.394531 39.035156 C 213.132812 37.726562 214.46875 35.894531 216.507812 35.894531 C 218.421875 35.894531 219.394531 37.78125 219.394531 39.414062 C 219.394531 41.191406 218.1875 42.660156 216.597656 42.660156 C 215.550781 42.660156 214.738281 41.898438 214.359375 41.519531 C 213.910156 41.027344 213.496094 40.464844 212.394531 39.035156 Z M 211.148438 39.8125 C 210.410156 41.121094 209.074219 42.953125 207.035156 42.953125 C 205.121094 42.953125 204.148438 41.066406 204.148438 39.433594 C 204.148438 37.65625 205.355469 36.183594 206.945312 36.183594 C 207.992188 36.183594 208.804688 36.945312 209.183594 37.328125 C 209.632812 37.816406 210.046875 38.378906 211.148438 39.8125 Z M 211.148438 39.8125 " fill-opacity="1" fill-rule="nonzero"/><g clip-path="url(#0997c9facd)"><path fill="#a8180f" d="M 237.703125 39.195312 C 238.046875 39.035156 238.066406 38.925781 238.066406 38.796875 C 238.066406 38.6875 238.027344 38.5625 237.703125 38.417969 L 227.941406 33.898438 C 227.707031 33.789062 227.671875 33.773438 227.636719 33.773438 C 227.417969 33.773438 227.292969 33.953125 227.292969 34.097656 C 227.292969 34.316406 227.4375 34.386719 227.671875 34.496094 L 236.945312 38.796875 L 227.652344 43.117188 C 227.292969 43.277344 227.292969 43.40625 227.292969 43.515625 C 227.292969 43.660156 227.417969 43.839844 227.636719 43.839844 C 227.671875 43.839844 227.691406 43.824219 227.941406 43.714844 Z M 237.703125 39.195312 " fill-opacity="1" fill-rule="nonzero"/></g></svg>