<svg xmlns="http://www.w3.org/2000/svg" xmlns:xlink="http://www.w3.org/1999/xlink" width="500" zoomAndPan="magnify" viewBox="0 0 375 74.999997" height="100" preserveAspectRatio="xMidYMid meet" version="1.0"><defs><g/><clipPath id="c2c01d5233"><path d="M 154 37.5 L 168 37.5 L 168 72.75 L 154 72.75 Z M 154 37.5 " clip-rule="nonzero"/></clipPath><clipPath id="0673f10d15"><path d="M 167 37.5 L 178 37.5 L 178 39 L 167 39 Z M 167 37.5 " clip-rule="nonzero"/></clipPath></defs><g fill="#17191a" fill-opacity="1"><g transform="translate(15.000006, 31.534077)"><g><path d="M 6.40625 0 L 4.765625 0 L 4.765625 -10.84375 L 1.5 -9.640625 L 1.5 -11.109375 L 6.15625 -12.859375 L 6.40625 -12.859375 Z M 6.40625 0 "/></g></g></g><g fill="#17191a" fill-opacity="1"><g transform="translate(25.104909, 31.534077)"><g><path d="M 4.984375 -5.109375 C 4.984375 -3.796875 4.8125 -2.539062 4.46875 -1.34375 C 4.125 -0.144531 3.597656 0.957031 2.890625 1.96875 C 2.191406 2.976562 1.453125 3.695312 0.671875 4.125 L 0.328125 3.140625 C 1.234375 2.441406 1.957031 1.367188 2.5 -0.078125 C 3.050781 -1.535156 3.332031 -3.15625 3.34375 -4.9375 L 3.34375 -5.21875 C 3.34375 -6.445312 3.210938 -7.585938 2.953125 -8.640625 C 2.703125 -9.703125 2.347656 -10.648438 1.890625 -11.484375 C 1.429688 -12.328125 0.910156 -12.984375 0.328125 -13.453125 L 0.671875 -14.4375 C 1.453125 -14.007812 2.191406 -13.296875 2.890625 -12.296875 C 3.585938 -11.296875 4.109375 -10.191406 4.453125 -8.984375 C 4.804688 -7.773438 4.984375 -6.484375 4.984375 -5.109375 Z M 4.984375 -5.109375 "/></g></g></g><g fill="#17191a" fill-opacity="1"><g transform="translate(31.361161, 31.534077)"><g/></g></g><g fill="#17191a" fill-opacity="1"><g transform="translate(35.816106, 31.534077)"><g><path d="M 4.734375 -5.953125 L 3.171875 -4.328125 L 3.171875 0 L 1.484375 0 L 1.484375 -12.796875 L 3.171875 -12.796875 L 3.171875 -6.46875 L 8.859375 -12.796875 L 10.90625 -12.796875 L 5.859375 -7.140625 L 11.296875 0 L 9.265625 0 Z M 4.734375 -5.953125 "/></g></g></g><g fill="#17191a" fill-opacity="1"><g transform="translate(47.098449, 31.534077)"><g><path d="M 0.796875 -4.84375 C 0.796875 -5.769531 0.976562 -6.601562 1.34375 -7.34375 C 1.71875 -8.09375 2.226562 -8.671875 2.875 -9.078125 C 3.53125 -9.484375 4.273438 -9.6875 5.109375 -9.6875 C 6.410156 -9.6875 7.457031 -9.238281 8.25 -8.34375 C 9.050781 -7.445312 9.453125 -6.253906 9.453125 -4.765625 L 9.453125 -4.65625 C 9.453125 -3.726562 9.273438 -2.894531 8.921875 -2.15625 C 8.566406 -1.425781 8.0625 -0.851562 7.40625 -0.4375 C 6.75 -0.03125 5.992188 0.171875 5.140625 0.171875 C 3.847656 0.171875 2.800781 -0.273438 2 -1.171875 C 1.195312 -2.066406 0.796875 -3.253906 0.796875 -4.734375 Z M 2.4375 -4.65625 C 2.4375 -3.59375 2.679688 -2.742188 3.171875 -2.109375 C 3.660156 -1.472656 4.316406 -1.15625 5.140625 -1.15625 C 5.960938 -1.15625 6.613281 -1.476562 7.09375 -2.125 C 7.582031 -2.769531 7.828125 -3.675781 7.828125 -4.84375 C 7.828125 -5.882812 7.578125 -6.726562 7.078125 -7.375 C 6.585938 -8.019531 5.929688 -8.34375 5.109375 -8.34375 C 4.304688 -8.34375 3.660156 -8.023438 3.171875 -7.390625 C 2.679688 -6.753906 2.4375 -5.84375 2.4375 -4.65625 Z M 2.4375 -4.65625 "/></g></g></g><g fill="#17191a" fill-opacity="1"><g transform="translate(57.361515, 31.534077)"><g><path d="M 3 0 L 1.375 0 L 1.375 -13.5 L 3 -13.5 Z M 3 0 "/></g></g></g><g fill="#17191a" fill-opacity="1"><g transform="translate(61.728591, 31.534077)"><g><path d="M 3 0 L 1.375 0 L 1.375 -9.515625 L 3 -9.515625 Z M 1.234375 -12.03125 C 1.234375 -12.289062 1.3125 -12.507812 1.46875 -12.6875 C 1.632812 -12.875 1.875 -12.96875 2.1875 -12.96875 C 2.507812 -12.96875 2.753906 -12.875 2.921875 -12.6875 C 3.085938 -12.507812 3.171875 -12.289062 3.171875 -12.03125 C 3.171875 -11.769531 3.085938 -11.550781 2.921875 -11.375 C 2.753906 -11.195312 2.507812 -11.109375 2.1875 -11.109375 C 1.875 -11.109375 1.632812 -11.195312 1.46875 -11.375 C 1.3125 -11.550781 1.234375 -11.769531 1.234375 -12.03125 Z M 1.234375 -12.03125 "/></g></g></g><g fill="#17191a" fill-opacity="1"><g transform="translate(66.095666, 31.534077)"><g><path d="M 3.890625 -4.40625 L 2.859375 -3.34375 L 2.859375 0 L 1.234375 0 L 1.234375 -13.5 L 2.859375 -13.5 L 2.859375 -5.328125 L 3.734375 -6.375 L 6.703125 -9.515625 L 8.671875 -9.515625 L 4.96875 -5.53125 L 9.109375 0 L 7.203125 0 Z M 3.890625 -4.40625 "/></g></g></g><g fill="#17191a" fill-opacity="1"><g transform="translate(75.216439, 31.534077)"><g><path d="M 0.796875 -4.84375 C 0.796875 -5.769531 0.976562 -6.601562 1.34375 -7.34375 C 1.71875 -8.09375 2.226562 -8.671875 2.875 -9.078125 C 3.53125 -9.484375 4.273438 -9.6875 5.109375 -9.6875 C 6.410156 -9.6875 7.457031 -9.238281 8.25 -8.34375 C 9.050781 -7.445312 9.453125 -6.253906 9.453125 -4.765625 L 9.453125 -4.65625 C 9.453125 -3.726562 9.273438 -2.894531 8.921875 -2.15625 C 8.566406 -1.425781 8.0625 -0.851562 7.40625 -0.4375 C 6.75 -0.03125 5.992188 0.171875 5.140625 0.171875 C 3.847656 0.171875 2.800781 -0.273438 2 -1.171875 C 1.195312 -2.066406 0.796875 -3.253906 0.796875 -4.734375 Z M 2.4375 -4.65625 C 2.4375 -3.59375 2.679688 -2.742188 3.171875 -2.109375 C 3.660156 -1.472656 4.316406 -1.15625 5.140625 -1.15625 C 5.960938 -1.15625 6.613281 -1.476562 7.09375 -2.125 C 7.582031 -2.769531 7.828125 -3.675781 7.828125 -4.84375 C 7.828125 -5.882812 7.578125 -6.726562 7.078125 -7.375 C 6.585938 -8.019531 5.929688 -8.34375 5.109375 -8.34375 C 4.304688 -8.34375 3.660156 -8.023438 3.171875 -7.390625 C 2.679688 -6.753906 2.4375 -5.84375 2.4375 -4.65625 Z M 2.4375 -4.65625 "/></g></g></g><g fill="#17191a" fill-opacity="1"><g transform="translate(85.479505, 31.534077)"><g/></g></g><g fill="#17191a" fill-opacity="1"><g transform="translate(89.934449, 31.534077)"><g><path d="M 3 0 L 1.375 0 L 1.375 -9.515625 L 3 -9.515625 Z M 1.234375 -12.03125 C 1.234375 -12.289062 1.3125 -12.507812 1.46875 -12.6875 C 1.632812 -12.875 1.875 -12.96875 2.1875 -12.96875 C 2.507812 -12.96875 2.753906 -12.875 2.921875 -12.6875 C 3.085938 -12.507812 3.171875 -12.289062 3.171875 -12.03125 C 3.171875 -11.769531 3.085938 -11.550781 2.921875 -11.375 C 2.753906 -11.195312 2.507812 -11.109375 2.1875 -11.109375 C 1.875 -11.109375 1.632812 -11.195312 1.46875 -11.375 C 1.3125 -11.550781 1.234375 -11.769531 1.234375 -12.03125 Z M 1.234375 -12.03125 "/></g></g></g><g fill="#17191a" fill-opacity="1"><g transform="translate(94.301524, 31.534077)"><g><path d="M 2.765625 -9.515625 L 2.796875 -8.453125 C 3.492188 -9.273438 4.4375 -9.6875 5.625 -9.6875 C 6.957031 -9.6875 7.863281 -9.175781 8.34375 -8.15625 C 8.65625 -8.613281 9.066406 -8.984375 9.578125 -9.265625 C 10.085938 -9.546875 10.6875 -9.6875 11.375 -9.6875 C 13.457031 -9.6875 14.519531 -8.582031 14.5625 -6.375 L 14.5625 0 L 12.921875 0 L 12.921875 -6.28125 C 12.921875 -6.957031 12.765625 -7.460938 12.453125 -7.796875 C 12.148438 -8.140625 11.632812 -8.3125 10.90625 -8.3125 C 10.300781 -8.3125 9.796875 -8.128906 9.390625 -7.765625 C 8.992188 -7.398438 8.765625 -6.914062 8.703125 -6.3125 L 8.703125 0 L 7.0625 0 L 7.0625 -6.234375 C 7.0625 -7.617188 6.382812 -8.3125 5.03125 -8.3125 C 3.96875 -8.3125 3.238281 -7.851562 2.84375 -6.9375 L 2.84375 0 L 1.21875 0 L 1.21875 -9.515625 Z M 2.765625 -9.515625 "/></g></g></g><g fill="#17191a" fill-opacity="1"><g transform="translate(110.073959, 31.534077)"><g><path d="M 7.109375 0 C 7.015625 -0.1875 6.9375 -0.519531 6.875 -1 C 6.113281 -0.21875 5.210938 0.171875 4.171875 0.171875 C 3.234375 0.171875 2.460938 -0.09375 1.859375 -0.625 C 1.253906 -1.15625 0.953125 -1.828125 0.953125 -2.640625 C 0.953125 -3.628906 1.328125 -4.394531 2.078125 -4.9375 C 2.835938 -5.488281 3.898438 -5.765625 5.265625 -5.765625 L 6.84375 -5.765625 L 6.84375 -6.515625 C 6.84375 -7.078125 6.671875 -7.523438 6.328125 -7.859375 C 5.992188 -8.203125 5.492188 -8.375 4.828125 -8.375 C 4.253906 -8.375 3.769531 -8.226562 3.375 -7.9375 C 2.976562 -7.644531 2.78125 -7.289062 2.78125 -6.875 L 1.15625 -6.875 C 1.15625 -7.34375 1.320312 -7.796875 1.65625 -8.234375 C 1.988281 -8.679688 2.441406 -9.035156 3.015625 -9.296875 C 3.597656 -9.554688 4.238281 -9.6875 4.9375 -9.6875 C 6.03125 -9.6875 6.882812 -9.410156 7.5 -8.859375 C 8.125 -8.316406 8.445312 -7.5625 8.46875 -6.59375 L 8.46875 -2.21875 C 8.46875 -1.351562 8.582031 -0.660156 8.8125 -0.140625 L 8.8125 0 Z M 4.40625 -1.234375 C 4.914062 -1.234375 5.398438 -1.363281 5.859375 -1.625 C 6.316406 -1.894531 6.644531 -2.238281 6.84375 -2.65625 L 6.84375 -4.609375 L 5.578125 -4.609375 C 3.578125 -4.609375 2.578125 -4.023438 2.578125 -2.859375 C 2.578125 -2.347656 2.75 -1.945312 3.09375 -1.65625 C 3.4375 -1.375 3.875 -1.234375 4.40625 -1.234375 Z M 4.40625 -1.234375 "/></g></g></g><g fill="#17191a" fill-opacity="1"><g transform="translate(119.862534, 31.534077)"><g/></g></g><g fill="#17191a" fill-opacity="1"><g transform="translate(124.317478, 31.534077)"><g><path d="M 5.828125 -8.046875 C 5.578125 -8.085938 5.3125 -8.109375 5.03125 -8.109375 C 3.957031 -8.109375 3.234375 -7.65625 2.859375 -6.75 L 2.859375 0 L 1.234375 0 L 1.234375 -9.515625 L 2.8125 -9.515625 L 2.84375 -8.40625 C 3.375 -9.257812 4.128906 -9.6875 5.109375 -9.6875 C 5.421875 -9.6875 5.660156 -9.644531 5.828125 -9.5625 Z M 5.828125 -8.046875 "/></g></g></g><g fill="#17191a" fill-opacity="1"><g transform="translate(130.406781, 31.534077)"><g><path d="M 7.109375 0 C 7.015625 -0.1875 6.9375 -0.519531 6.875 -1 C 6.113281 -0.21875 5.210938 0.171875 4.171875 0.171875 C 3.234375 0.171875 2.460938 -0.09375 1.859375 -0.625 C 1.253906 -1.15625 0.953125 -1.828125 0.953125 -2.640625 C 0.953125 -3.628906 1.328125 -4.394531 2.078125 -4.9375 C 2.835938 -5.488281 3.898438 -5.765625 5.265625 -5.765625 L 6.84375 -5.765625 L 6.84375 -6.515625 C 6.84375 -7.078125 6.671875 -7.523438 6.328125 -7.859375 C 5.992188 -8.203125 5.492188 -8.375 4.828125 -8.375 C 4.253906 -8.375 3.769531 -8.226562 3.375 -7.9375 C 2.976562 -7.644531 2.78125 -7.289062 2.78125 -6.875 L 1.15625 -6.875 C 1.15625 -7.34375 1.320312 -7.796875 1.65625 -8.234375 C 1.988281 -8.679688 2.441406 -9.035156 3.015625 -9.296875 C 3.597656 -9.554688 4.238281 -9.6875 4.9375 -9.6875 C 6.03125 -9.6875 6.882812 -9.410156 7.5 -8.859375 C 8.125 -8.316406 8.445312 -7.5625 8.46875 -6.59375 L 8.46875 -2.21875 C 8.46875 -1.351562 8.582031 -0.660156 8.8125 -0.140625 L 8.8125 0 Z M 4.40625 -1.234375 C 4.914062 -1.234375 5.398438 -1.363281 5.859375 -1.625 C 6.316406 -1.894531 6.644531 -2.238281 6.84375 -2.65625 L 6.84375 -4.609375 L 5.578125 -4.609375 C 3.578125 -4.609375 2.578125 -4.023438 2.578125 -2.859375 C 2.578125 -2.347656 2.75 -1.945312 3.09375 -1.65625 C 3.4375 -1.375 3.875 -1.234375 4.40625 -1.234375 Z M 4.40625 -1.234375 "/></g></g></g><g fill="#17191a" fill-opacity="1"><g transform="translate(140.195356, 31.534077)"><g><path d="M 5.046875 -1.15625 C 5.628906 -1.15625 6.132812 -1.328125 6.5625 -1.671875 C 7 -2.023438 7.238281 -2.46875 7.28125 -3 L 8.828125 -3 C 8.796875 -2.457031 8.609375 -1.9375 8.265625 -1.4375 C 7.921875 -0.945312 7.457031 -0.554688 6.875 -0.265625 C 6.300781 0.0234375 5.691406 0.171875 5.046875 0.171875 C 3.753906 0.171875 2.722656 -0.257812 1.953125 -1.125 C 1.191406 -1.988281 0.8125 -3.171875 0.8125 -4.671875 L 0.8125 -4.9375 C 0.8125 -5.863281 0.976562 -6.6875 1.3125 -7.40625 C 1.65625 -8.125 2.144531 -8.679688 2.78125 -9.078125 C 3.414062 -9.484375 4.164062 -9.6875 5.03125 -9.6875 C 6.101562 -9.6875 6.988281 -9.363281 7.6875 -8.71875 C 8.394531 -8.082031 8.773438 -7.253906 8.828125 -6.234375 L 7.28125 -6.234375 C 7.238281 -6.847656 7.003906 -7.351562 6.578125 -7.75 C 6.160156 -8.144531 5.644531 -8.34375 5.03125 -8.34375 C 4.207031 -8.34375 3.566406 -8.046875 3.109375 -7.453125 C 2.660156 -6.859375 2.4375 -6 2.4375 -4.875 L 2.4375 -4.578125 C 2.4375 -3.472656 2.660156 -2.625 3.109375 -2.03125 C 3.554688 -1.445312 4.203125 -1.15625 5.046875 -1.15625 Z M 5.046875 -1.15625 "/></g></g></g><g fill="#17191a" fill-opacity="1"><g transform="translate(149.614882, 31.534077)"><g><path d="M 3 0 L 1.375 0 L 1.375 -9.515625 L 3 -9.515625 Z M 1.234375 -12.03125 C 1.234375 -12.289062 1.3125 -12.507812 1.46875 -12.6875 C 1.632812 -12.875 1.875 -12.96875 2.1875 -12.96875 C 2.507812 -12.96875 2.753906 -12.875 2.921875 -12.6875 C 3.085938 -12.507812 3.171875 -12.289062 3.171875 -12.03125 C 3.171875 -11.769531 3.085938 -11.550781 2.921875 -11.375 C 2.753906 -11.195312 2.507812 -11.109375 2.1875 -11.109375 C 1.875 -11.109375 1.632812 -11.195312 1.46875 -11.375 C 1.3125 -11.550781 1.234375 -11.769531 1.234375 -12.03125 Z M 1.234375 -12.03125 "/></g></g></g><g fill="#17191a" fill-opacity="1"><g transform="translate(153.981958, 31.534077)"><g><path d="M 0.796875 -4.84375 C 0.796875 -5.769531 0.976562 -6.601562 1.34375 -7.34375 C 1.71875 -8.09375 2.226562 -8.671875 2.875 -9.078125 C 3.53125 -9.484375 4.273438 -9.6875 5.109375 -9.6875 C 6.410156 -9.6875 7.457031 -9.238281 8.25 -8.34375 C 9.050781 -7.445312 9.453125 -6.253906 9.453125 -4.765625 L 9.453125 -4.65625 C 9.453125 -3.726562 9.273438 -2.894531 8.921875 -2.15625 C 8.566406 -1.425781 8.0625 -0.851562 7.40625 -0.4375 C 6.75 -0.03125 5.992188 0.171875 5.140625 0.171875 C 3.847656 0.171875 2.800781 -0.273438 2 -1.171875 C 1.195312 -2.066406 0.796875 -3.253906 0.796875 -4.734375 Z M 2.4375 -4.65625 C 2.4375 -3.59375 2.679688 -2.742188 3.171875 -2.109375 C 3.660156 -1.472656 4.316406 -1.15625 5.140625 -1.15625 C 5.960938 -1.15625 6.613281 -1.476562 7.09375 -2.125 C 7.582031 -2.769531 7.828125 -3.675781 7.828125 -4.84375 C 7.828125 -5.882812 7.578125 -6.726562 7.078125 -7.375 C 6.585938 -8.019531 5.929688 -8.34375 5.109375 -8.34375 C 4.304688 -8.34375 3.660156 -8.023438 3.171875 -7.390625 C 2.679688 -6.753906 2.4375 -5.84375 2.4375 -4.65625 Z M 2.4375 -4.65625 "/></g></g></g><g fill="#17191a" fill-opacity="1"><g transform="translate(164.245024, 31.534077)"><g><path d="M 2.765625 -9.515625 L 2.828125 -8.3125 C 3.546875 -9.226562 4.492188 -9.6875 5.671875 -9.6875 C 7.679688 -9.6875 8.691406 -8.550781 8.703125 -6.28125 L 8.703125 0 L 7.078125 0 L 7.078125 -6.296875 C 7.078125 -6.984375 6.921875 -7.488281 6.609375 -7.8125 C 6.304688 -8.144531 5.828125 -8.3125 5.171875 -8.3125 C 4.648438 -8.3125 4.1875 -8.171875 3.78125 -7.890625 C 3.382812 -7.609375 3.078125 -7.238281 2.859375 -6.78125 L 2.859375 0 L 1.234375 0 L 1.234375 -9.515625 Z M 2.765625 -9.515625 "/></g></g></g><g fill="#17191a" fill-opacity="1"><g transform="translate(174.174189, 31.534077)"><g><path d="M 7.109375 0 C 7.015625 -0.1875 6.9375 -0.519531 6.875 -1 C 6.113281 -0.21875 5.210938 0.171875 4.171875 0.171875 C 3.234375 0.171875 2.460938 -0.09375 1.859375 -0.625 C 1.253906 -1.15625 0.953125 -1.828125 0.953125 -2.640625 C 0.953125 -3.628906 1.328125 -4.394531 2.078125 -4.9375 C 2.835938 -5.488281 3.898438 -5.765625 5.265625 -5.765625 L 6.84375 -5.765625 L 6.84375 -6.515625 C 6.84375 -7.078125 6.671875 -7.523438 6.328125 -7.859375 C 5.992188 -8.203125 5.492188 -8.375 4.828125 -8.375 C 4.253906 -8.375 3.769531 -8.226562 3.375 -7.9375 C 2.976562 -7.644531 2.78125 -7.289062 2.78125 -6.875 L 1.15625 -6.875 C 1.15625 -7.34375 1.320312 -7.796875 1.65625 -8.234375 C 1.988281 -8.679688 2.441406 -9.035156 3.015625 -9.296875 C 3.597656 -9.554688 4.238281 -9.6875 4.9375 -9.6875 C 6.03125 -9.6875 6.882812 -9.410156 7.5 -8.859375 C 8.125 -8.316406 8.445312 -7.5625 8.46875 -6.59375 L 8.46875 -2.21875 C 8.46875 -1.351562 8.582031 -0.660156 8.8125 -0.140625 L 8.8125 0 Z M 4.40625 -1.234375 C 4.914062 -1.234375 5.398438 -1.363281 5.859375 -1.625 C 6.316406 -1.894531 6.644531 -2.238281 6.84375 -2.65625 L 6.84375 -4.609375 L 5.578125 -4.609375 C 3.578125 -4.609375 2.578125 -4.023438 2.578125 -2.859375 C 2.578125 -2.347656 2.75 -1.945312 3.09375 -1.65625 C 3.4375 -1.375 3.875 -1.234375 4.40625 -1.234375 Z M 4.40625 -1.234375 "/></g></g></g><g fill="#17191a" fill-opacity="1"><g transform="translate(183.962765, 31.534077)"><g><path d="M 3 0 L 1.375 0 L 1.375 -13.5 L 3 -13.5 Z M 3 0 "/></g></g></g><g fill="#17191a" fill-opacity="1"><g transform="translate(188.32984, 31.534077)"><g><path d="M 2.765625 -9.515625 L 2.828125 -8.3125 C 3.546875 -9.226562 4.492188 -9.6875 5.671875 -9.6875 C 7.679688 -9.6875 8.691406 -8.550781 8.703125 -6.28125 L 8.703125 0 L 7.078125 0 L 7.078125 -6.296875 C 7.078125 -6.984375 6.921875 -7.488281 6.609375 -7.8125 C 6.304688 -8.144531 5.828125 -8.3125 5.171875 -8.3125 C 4.648438 -8.3125 4.1875 -8.171875 3.78125 -7.890625 C 3.382812 -7.609375 3.078125 -7.238281 2.859375 -6.78125 L 2.859375 0 L 1.234375 0 L 1.234375 -9.515625 Z M 2.765625 -9.515625 "/></g></g></g><g fill="#17191a" fill-opacity="1"><g transform="translate(198.259005, 31.534077)"><g><path d="M 3 0 L 1.375 0 L 1.375 -9.515625 L 3 -9.515625 Z M 1.234375 -12.03125 C 1.234375 -12.289062 1.3125 -12.507812 1.46875 -12.6875 C 1.632812 -12.875 1.875 -12.96875 2.1875 -12.96875 C 2.507812 -12.96875 2.753906 -12.875 2.921875 -12.6875 C 3.085938 -12.507812 3.171875 -12.289062 3.171875 -12.03125 C 3.171875 -11.769531 3.085938 -11.550781 2.921875 -11.375 C 2.753906 -11.195312 2.507812 -11.109375 2.1875 -11.109375 C 1.875 -11.109375 1.632812 -11.195312 1.46875 -11.375 C 1.3125 -11.550781 1.234375 -11.769531 1.234375 -12.03125 Z M 1.234375 -12.03125 "/></g></g></g><g fill="#17191a" fill-opacity="1"><g transform="translate(202.626081, 31.534077)"><g><path d="M 2.859375 -8.359375 C 3.578125 -9.242188 4.515625 -9.6875 5.671875 -9.6875 C 7.679688 -9.6875 8.691406 -8.550781 8.703125 -6.28125 L 8.703125 0 L 7.078125 0 L 7.078125 -6.296875 C 7.078125 -6.984375 6.921875 -7.488281 6.609375 -7.8125 C 6.304688 -8.144531 5.828125 -8.3125 5.171875 -8.3125 C 4.648438 -8.3125 4.1875 -8.171875 3.78125 -7.890625 C 3.382812 -7.609375 3.078125 -7.238281 2.859375 -6.78125 L 2.859375 0 L 1.234375 0 L 1.234375 -13.5 L 2.859375 -13.5 Z M 2.859375 -8.359375 "/></g></g></g><g fill="#17191a" fill-opacity="1"><g transform="translate(212.537672, 31.534077)"><g/></g></g><g fill="#17191a" fill-opacity="1"><g transform="translate(216.992616, 31.534077)"><g><path d="M 9.28125 -4.65625 C 9.28125 -3.195312 8.945312 -2.023438 8.28125 -1.140625 C 7.613281 -0.265625 6.71875 0.171875 5.59375 0.171875 C 4.382812 0.171875 3.453125 -0.25 2.796875 -1.09375 L 2.71875 0 L 1.234375 0 L 1.234375 -13.5 L 2.859375 -13.5 L 2.859375 -8.46875 C 3.515625 -9.28125 4.414062 -9.6875 5.5625 -9.6875 C 6.71875 -9.6875 7.625 -9.25 8.28125 -8.375 C 8.945312 -7.5 9.28125 -6.304688 9.28125 -4.796875 Z M 7.65625 -4.828125 C 7.65625 -5.941406 7.441406 -6.800781 7.015625 -7.40625 C 6.585938 -8.007812 5.972656 -8.3125 5.171875 -8.3125 C 4.097656 -8.3125 3.328125 -7.8125 2.859375 -6.8125 L 2.859375 -2.703125 C 3.359375 -1.703125 4.132812 -1.203125 5.1875 -1.203125 C 5.96875 -1.203125 6.570312 -1.503906 7 -2.109375 C 7.4375 -2.710938 7.65625 -3.617188 7.65625 -4.828125 Z M 7.65625 -4.828125 "/></g></g></g><g fill="#17191a" fill-opacity="1"><g transform="translate(227.088732, 31.534077)"><g><path d="M 5.828125 -8.046875 C 5.578125 -8.085938 5.3125 -8.109375 5.03125 -8.109375 C 3.957031 -8.109375 3.234375 -7.65625 2.859375 -6.75 L 2.859375 0 L 1.234375 0 L 1.234375 -9.515625 L 2.8125 -9.515625 L 2.84375 -8.40625 C 3.375 -9.257812 4.128906 -9.6875 5.109375 -9.6875 C 5.421875 -9.6875 5.660156 -9.644531 5.828125 -9.5625 Z M 5.828125 -8.046875 "/></g></g></g><g fill="#17191a" fill-opacity="1"><g transform="translate(233.178034, 31.534077)"><g><path d="M 0.796875 -4.84375 C 0.796875 -5.769531 0.976562 -6.601562 1.34375 -7.34375 C 1.71875 -8.09375 2.226562 -8.671875 2.875 -9.078125 C 3.53125 -9.484375 4.273438 -9.6875 5.109375 -9.6875 C 6.410156 -9.6875 7.457031 -9.238281 8.25 -8.34375 C 9.050781 -7.445312 9.453125 -6.253906 9.453125 -4.765625 L 9.453125 -4.65625 C 9.453125 -3.726562 9.273438 -2.894531 8.921875 -2.15625 C 8.566406 -1.425781 8.0625 -0.851562 7.40625 -0.4375 C 6.75 -0.03125 5.992188 0.171875 5.140625 0.171875 C 3.847656 0.171875 2.800781 -0.273438 2 -1.171875 C 1.195312 -2.066406 0.796875 -3.253906 0.796875 -4.734375 Z M 2.4375 -4.65625 C 2.4375 -3.59375 2.679688 -2.742188 3.171875 -2.109375 C 3.660156 -1.472656 4.316406 -1.15625 5.140625 -1.15625 C 5.960938 -1.15625 6.613281 -1.476562 7.09375 -2.125 C 7.582031 -2.769531 7.828125 -3.675781 7.828125 -4.84375 C 7.828125 -5.882812 7.578125 -6.726562 7.078125 -7.375 C 6.585938 -8.019531 5.929688 -8.34375 5.109375 -8.34375 C 4.304688 -8.34375 3.660156 -8.023438 3.171875 -7.390625 C 2.679688 -6.753906 2.4375 -5.84375 2.4375 -4.65625 Z M 2.4375 -4.65625 "/></g></g></g><g fill="#17191a" fill-opacity="1"><g transform="translate(243.4411, 31.534077)"><g><path d="M 2.90625 -9.515625 L 2.90625 1.09375 C 2.90625 2.925781 2.078125 3.84375 0.421875 3.84375 C 0.0664062 3.84375 -0.265625 3.789062 -0.578125 3.6875 L -0.578125 2.375 C -0.390625 2.425781 -0.140625 2.453125 0.171875 2.453125 C 0.535156 2.453125 0.8125 2.351562 1 2.15625 C 1.1875 1.957031 1.28125 1.617188 1.28125 1.140625 L 1.28125 -9.515625 Z M 1.109375 -12.03125 C 1.109375 -12.289062 1.1875 -12.507812 1.34375 -12.6875 C 1.507812 -12.875 1.75 -12.96875 2.0625 -12.96875 C 2.382812 -12.96875 2.625 -12.875 2.78125 -12.6875 C 2.945312 -12.507812 3.03125 -12.289062 3.03125 -12.03125 C 3.03125 -11.769531 2.945312 -11.550781 2.78125 -11.375 C 2.625 -11.195312 2.382812 -11.109375 2.0625 -11.109375 C 1.75 -11.109375 1.507812 -11.195312 1.34375 -11.375 C 1.1875 -11.550781 1.109375 -11.769531 1.109375 -12.03125 Z M 1.109375 -12.03125 "/></g></g></g><g fill="#17191a" fill-opacity="1"><g transform="translate(247.737868, 31.534077)"><g><path d="M 5.171875 0.171875 C 3.890625 0.171875 2.84375 -0.25 2.03125 -1.09375 C 1.21875 -1.9375 0.8125 -3.066406 0.8125 -4.484375 L 0.8125 -4.796875 C 0.8125 -5.734375 0.992188 -6.570312 1.359375 -7.3125 C 1.722656 -8.050781 2.226562 -8.628906 2.875 -9.046875 C 3.519531 -9.472656 4.21875 -9.6875 4.96875 -9.6875 C 6.207031 -9.6875 7.171875 -9.28125 7.859375 -8.46875 C 8.546875 -7.65625 8.890625 -6.488281 8.890625 -4.96875 L 8.890625 -4.296875 L 2.4375 -4.296875 C 2.46875 -3.359375 2.742188 -2.597656 3.265625 -2.015625 C 3.785156 -1.441406 4.453125 -1.15625 5.265625 -1.15625 C 5.835938 -1.15625 6.320312 -1.269531 6.71875 -1.5 C 7.125 -1.738281 7.472656 -2.050781 7.765625 -2.4375 L 8.765625 -1.65625 C 7.960938 -0.4375 6.765625 0.171875 5.171875 0.171875 Z M 4.96875 -8.34375 C 4.3125 -8.34375 3.757812 -8.101562 3.3125 -7.625 C 2.875 -7.15625 2.601562 -6.488281 2.5 -5.625 L 7.265625 -5.625 L 7.265625 -5.75 C 7.210938 -6.570312 6.988281 -7.207031 6.59375 -7.65625 C 6.195312 -8.113281 5.65625 -8.34375 4.96875 -8.34375 Z M 4.96875 -8.34375 "/></g></g></g><g fill="#17191a" fill-opacity="1"><g transform="translate(257.271637, 31.534077)"><g><path d="M 4.375 -2.203125 L 6.71875 -9.515625 L 8.390625 -9.515625 L 4.96875 0 L 3.734375 0 L 0.296875 -9.515625 L 1.953125 -9.515625 Z M 4.375 -2.203125 "/></g></g></g><g fill="#17191a" fill-opacity="1"><g transform="translate(265.988213, 31.534077)"><g><path d="M 7.109375 0 C 7.015625 -0.1875 6.9375 -0.519531 6.875 -1 C 6.113281 -0.21875 5.210938 0.171875 4.171875 0.171875 C 3.234375 0.171875 2.460938 -0.09375 1.859375 -0.625 C 1.253906 -1.15625 0.953125 -1.828125 0.953125 -2.640625 C 0.953125 -3.628906 1.328125 -4.394531 2.078125 -4.9375 C 2.835938 -5.488281 3.898438 -5.765625 5.265625 -5.765625 L 6.84375 -5.765625 L 6.84375 -6.515625 C 6.84375 -7.078125 6.671875 -7.523438 6.328125 -7.859375 C 5.992188 -8.203125 5.492188 -8.375 4.828125 -8.375 C 4.253906 -8.375 3.769531 -8.226562 3.375 -7.9375 C 2.976562 -7.644531 2.78125 -7.289062 2.78125 -6.875 L 1.15625 -6.875 C 1.15625 -7.34375 1.320312 -7.796875 1.65625 -8.234375 C 1.988281 -8.679688 2.441406 -9.035156 3.015625 -9.296875 C 3.597656 -9.554688 4.238281 -9.6875 4.9375 -9.6875 C 6.03125 -9.6875 6.882812 -9.410156 7.5 -8.859375 C 8.125 -8.316406 8.445312 -7.5625 8.46875 -6.59375 L 8.46875 -2.21875 C 8.46875 -1.351562 8.582031 -0.660156 8.8125 -0.140625 L 8.8125 0 Z M 4.40625 -1.234375 C 4.914062 -1.234375 5.398438 -1.363281 5.859375 -1.625 C 6.316406 -1.894531 6.644531 -2.238281 6.84375 -2.65625 L 6.84375 -4.609375 L 5.578125 -4.609375 C 3.578125 -4.609375 2.578125 -4.023438 2.578125 -2.859375 C 2.578125 -2.347656 2.75 -1.945312 3.09375 -1.65625 C 3.4375 -1.375 3.875 -1.234375 4.40625 -1.234375 Z M 4.40625 -1.234375 "/></g></g></g><g fill="#17191a" fill-opacity="1"><g transform="translate(275.776789, 31.534077)"><g/></g></g><g fill="#17191a" fill-opacity="1"><g transform="translate(280.231745, 31.534077)"><g><path d="M 7.109375 -0.9375 C 6.472656 -0.195312 5.539062 0.171875 4.3125 0.171875 C 3.300781 0.171875 2.53125 -0.117188 2 -0.703125 C 1.46875 -1.296875 1.203125 -2.171875 1.203125 -3.328125 L 1.203125 -9.515625 L 2.828125 -9.515625 L 2.828125 -3.359375 C 2.828125 -1.921875 3.410156 -1.203125 4.578125 -1.203125 C 5.816406 -1.203125 6.644531 -1.664062 7.0625 -2.59375 L 7.0625 -9.515625 L 8.6875 -9.515625 L 8.6875 0 L 7.140625 0 Z M 7.109375 -0.9375 "/></g></g></g><g fill="#17191a" fill-opacity="1"><g transform="translate(290.152136, 31.534077)"><g/></g></g><g fill="#17191a" fill-opacity="1"><g transform="translate(294.607068, 31.534077)"><g><path d="M 6.765625 -2.515625 C 6.765625 -2.960938 6.597656 -3.304688 6.265625 -3.546875 C 5.941406 -3.785156 5.367188 -3.992188 4.546875 -4.171875 C 3.722656 -4.347656 3.066406 -4.554688 2.578125 -4.796875 C 2.097656 -5.046875 1.738281 -5.34375 1.5 -5.6875 C 1.269531 -6.03125 1.15625 -6.4375 1.15625 -6.90625 C 1.15625 -7.675781 1.484375 -8.332031 2.140625 -8.875 C 2.804688 -9.414062 3.648438 -9.6875 4.671875 -9.6875 C 5.753906 -9.6875 6.628906 -9.40625 7.296875 -8.84375 C 7.972656 -8.289062 8.3125 -7.582031 8.3125 -6.71875 L 6.671875 -6.71875 C 6.671875 -7.164062 6.476562 -7.546875 6.09375 -7.859375 C 5.71875 -8.179688 5.242188 -8.34375 4.671875 -8.34375 C 4.078125 -8.34375 3.613281 -8.210938 3.28125 -7.953125 C 2.945312 -7.703125 2.78125 -7.367188 2.78125 -6.953125 C 2.78125 -6.554688 2.9375 -6.257812 3.25 -6.0625 C 3.5625 -5.863281 4.125 -5.671875 4.9375 -5.484375 C 5.75 -5.304688 6.40625 -5.09375 6.90625 -4.84375 C 7.414062 -4.59375 7.789062 -4.289062 8.03125 -3.9375 C 8.269531 -3.582031 8.390625 -3.148438 8.390625 -2.640625 C 8.390625 -1.785156 8.050781 -1.101562 7.375 -0.59375 C 6.695312 -0.0820312 5.816406 0.171875 4.734375 0.171875 C 3.972656 0.171875 3.296875 0.0351562 2.703125 -0.234375 C 2.117188 -0.503906 1.660156 -0.878906 1.328125 -1.359375 C 0.992188 -1.835938 0.828125 -2.359375 0.828125 -2.921875 L 2.46875 -2.921875 C 2.488281 -2.378906 2.703125 -1.945312 3.109375 -1.625 C 3.523438 -1.3125 4.066406 -1.15625 4.734375 -1.15625 C 5.347656 -1.15625 5.835938 -1.28125 6.203125 -1.53125 C 6.578125 -1.78125 6.765625 -2.109375 6.765625 -2.515625 Z M 6.765625 -2.515625 "/></g></g></g><g fill="#17191a" fill-opacity="1"><g transform="translate(303.886004, 31.534077)"><g><path d="M 3.890625 -4.40625 L 2.859375 -3.34375 L 2.859375 0 L 1.234375 0 L 1.234375 -13.5 L 2.859375 -13.5 L 2.859375 -5.328125 L 3.734375 -6.375 L 6.703125 -9.515625 L 8.671875 -9.515625 L 4.96875 -5.53125 L 9.109375 0 L 7.203125 0 Z M 3.890625 -4.40625 "/></g></g></g><g fill="#17191a" fill-opacity="1"><g transform="translate(313.006777, 31.534077)"><g><path d="M 7.109375 -0.9375 C 6.472656 -0.195312 5.539062 0.171875 4.3125 0.171875 C 3.300781 0.171875 2.53125 -0.117188 2 -0.703125 C 1.46875 -1.296875 1.203125 -2.171875 1.203125 -3.328125 L 1.203125 -9.515625 L 2.828125 -9.515625 L 2.828125 -3.359375 C 2.828125 -1.921875 3.410156 -1.203125 4.578125 -1.203125 C 5.816406 -1.203125 6.644531 -1.664062 7.0625 -2.59375 L 7.0625 -9.515625 L 8.6875 -9.515625 L 8.6875 0 L 7.140625 0 Z M 7.109375 -0.9375 "/></g></g></g><g fill="#17191a" fill-opacity="1"><g transform="translate(322.927143, 31.534077)"><g><path d="M 9.265625 -4.65625 C 9.265625 -3.207031 8.929688 -2.039062 8.265625 -1.15625 C 7.609375 -0.269531 6.710938 0.171875 5.578125 0.171875 C 4.421875 0.171875 3.515625 -0.191406 2.859375 -0.921875 L 2.859375 3.65625 L 1.234375 3.65625 L 1.234375 -9.515625 L 2.71875 -9.515625 L 2.796875 -8.453125 C 3.453125 -9.273438 4.375 -9.6875 5.5625 -9.6875 C 6.695312 -9.6875 7.597656 -9.253906 8.265625 -8.390625 C 8.929688 -7.535156 9.265625 -6.335938 9.265625 -4.796875 Z M 7.640625 -4.828125 C 7.640625 -5.898438 7.410156 -6.75 6.953125 -7.375 C 6.492188 -8 5.867188 -8.3125 5.078125 -8.3125 C 4.085938 -8.3125 3.347656 -7.875 2.859375 -7 L 2.859375 -2.453125 C 3.347656 -1.585938 4.09375 -1.15625 5.09375 -1.15625 C 5.875 -1.15625 6.492188 -1.460938 6.953125 -2.078125 C 7.410156 -2.691406 7.640625 -3.609375 7.640625 -4.828125 Z M 7.640625 -4.828125 "/></g></g></g><g fill="#17191a" fill-opacity="1"><g transform="translate(333.023271, 31.534077)"><g><path d="M 7.109375 -0.9375 C 6.472656 -0.195312 5.539062 0.171875 4.3125 0.171875 C 3.300781 0.171875 2.53125 -0.117188 2 -0.703125 C 1.46875 -1.296875 1.203125 -2.171875 1.203125 -3.328125 L 1.203125 -9.515625 L 2.828125 -9.515625 L 2.828125 -3.359375 C 2.828125 -1.921875 3.410156 -1.203125 4.578125 -1.203125 C 5.816406 -1.203125 6.644531 -1.664062 7.0625 -2.59375 L 7.0625 -9.515625 L 8.6875 -9.515625 L 8.6875 0 L 7.140625 0 Z M 7.109375 -0.9375 "/></g></g></g><g fill="#17191a" fill-opacity="1"><g transform="translate(342.943662, 31.534077)"><g><path d="M 1.171875 -0.859375 C 1.171875 -1.140625 1.253906 -1.375 1.421875 -1.5625 C 1.585938 -1.75 1.835938 -1.84375 2.171875 -1.84375 C 2.503906 -1.84375 2.753906 -1.75 2.921875 -1.5625 C 3.097656 -1.375 3.1875 -1.140625 3.1875 -0.859375 C 3.1875 -0.585938 3.097656 -0.359375 2.921875 -0.171875 C 2.753906 0.00390625 2.503906 0.09375 2.171875 0.09375 C 1.835938 0.09375 1.585938 0.00390625 1.421875 -0.171875 C 1.253906 -0.359375 1.171875 -0.585938 1.171875 -0.859375 Z M 1.1875 -8.625 C 1.1875 -8.90625 1.269531 -9.140625 1.4375 -9.328125 C 1.601562 -9.515625 1.851562 -9.609375 2.1875 -9.609375 C 2.519531 -9.609375 2.769531 -9.515625 2.9375 -9.328125 C 3.113281 -9.140625 3.203125 -8.90625 3.203125 -8.625 C 3.203125 -8.351562 3.113281 -8.125 2.9375 -7.9375 C 2.769531 -7.757812 2.519531 -7.671875 2.1875 -7.671875 C 1.851562 -7.671875 1.601562 -7.757812 1.4375 -7.9375 C 1.269531 -8.125 1.1875 -8.351562 1.1875 -8.625 Z M 1.1875 -8.625 "/></g></g></g><g fill="#17191a" fill-opacity="1"><g transform="translate(19.45495, 63.202014)"><g/></g></g><g fill="#17191a" fill-opacity="1"><g transform="translate(23.909894, 63.202014)"><g/></g></g><g fill="#17191a" fill-opacity="1"><g transform="translate(28.364838, 63.202014)"><g/></g></g><g fill="#17191a" fill-opacity="1"><g transform="translate(32.819782, 63.202014)"><g/></g></g><g fill="#17191a" fill-opacity="1"><g transform="translate(37.274726, 63.202014)"><g/></g></g><g fill="#17191a" fill-opacity="1"><g transform="translate(41.729671, 63.202014)"><g/></g></g><g fill="#17191a" fill-opacity="1"><g transform="translate(46.184615, 63.202014)"><g/></g></g><g fill="#17191a" fill-opacity="1"><g transform="translate(50.639559, 63.202014)"><g/></g></g><g fill="#17191a" fill-opacity="1"><g transform="translate(55.094503, 63.202014)"><g/></g></g><g fill="#17191a" fill-opacity="1"><g transform="translate(59.549447, 63.202014)"><g/></g></g><g fill="#17191a" fill-opacity="1"><g transform="translate(64.004391, 63.202014)"><g/></g></g><g fill="#17191a" fill-opacity="1"><g transform="translate(68.459335, 63.202014)"><g/></g></g><g fill="#17191a" fill-opacity="1"><g transform="translate(72.914279, 63.202014)"><g/></g></g><g fill="#17191a" fill-opacity="1"><g transform="translate(77.369223, 63.202014)"><g/></g></g><g fill="#17191a" fill-opacity="1"><g transform="translate(81.824167, 63.202014)"><g/></g></g><g fill="#17191a" fill-opacity="1"><g transform="translate(86.279111, 63.202014)"><g/></g></g><g fill="#17191a" fill-opacity="1"><g transform="translate(90.734055, 63.202014)"><g/></g></g><g fill="#17191a" fill-opacity="1"><g transform="translate(95.188999, 63.202014)"><g/></g></g><g fill="#17191a" fill-opacity="1"><g transform="translate(99.643943, 63.202014)"><g/></g></g><g fill="#17191a" fill-opacity="1"><g transform="translate(104.098887, 63.202014)"><g/></g></g><g fill="#17191a" fill-opacity="1"><g transform="translate(108.553831, 63.202014)"><g/></g></g><g fill="#17191a" fill-opacity="1"><g transform="translate(113.008775, 63.202014)"><g/></g></g><g fill="#17191a" fill-opacity="1"><g transform="translate(117.463719, 63.202014)"><g/></g></g><g fill="#17191a" fill-opacity="1"><g transform="translate(121.918663, 63.202014)"><g/></g></g><g fill="#17191a" fill-opacity="1"><g transform="translate(126.373607, 63.202014)"><g/></g></g><g fill="#17191a" fill-opacity="1"><g transform="translate(130.828551, 63.202014)"><g/></g></g><g fill="#17191a" fill-opacity="1"><g transform="translate(135.283495, 63.202014)"><g/></g></g><g fill="#17191a" fill-opacity="1"><g transform="translate(139.73844, 63.202014)"><g/></g></g><g fill="#17191a" fill-opacity="1"><g transform="translate(144.193384, 63.202014)"><g/></g></g><g fill="#17191a" fill-opacity="1"><g transform="translate(148.648328, 63.202014)"><g/></g></g><g fill="#17191a" fill-opacity="1"><g transform="translate(153.103272, 63.202014)"><g/></g></g><g fill="#17191a" fill-opacity="1"><g transform="translate(157.558216, 63.202014)"><g/></g></g><g fill="#17191a" fill-opacity="1"><g transform="translate(162.01316, 63.202014)"><g/></g></g><g fill="#17191a" fill-opacity="1"><g transform="translate(166.468104, 63.202014)"><g/></g></g><g fill="#17191a" fill-opacity="1"><g transform="translate(170.923048, 63.202014)"><g/></g></g><g fill="#17191a" fill-opacity="1"><g transform="translate(175.377992, 63.202014)"><g/></g></g><g fill="#17191a" fill-opacity="1"><g transform="translate(179.832936, 63.202014)"><g/></g></g><g fill="#17191a" fill-opacity="1"><g transform="translate(184.28788, 63.202014)"><g/></g></g><g fill="#17191a" fill-opacity="1"><g transform="translate(188.742824, 63.202014)"><g/></g></g><g fill="#17191a" fill-opacity="1"><g transform="translate(193.197768, 63.202014)"><g/></g></g><g fill="#17191a" fill-opacity="1"><g transform="translate(197.652712, 63.202014)"><g/></g></g><g fill="#17191a" fill-opacity="1"><g transform="translate(202.107656, 63.202014)"><g/></g></g><g fill="#17191a" fill-opacity="1"><g transform="translate(206.5626, 63.202014)"><g/></g></g><g fill="#17191a" fill-opacity="1"><g transform="translate(211.017544, 63.202014)"><g/></g></g><g fill="#17191a" fill-opacity="1"><g transform="translate(215.472488, 63.202014)"><g/></g></g><g fill="#17191a" fill-opacity="1"><g transform="translate(219.923593, 63.202014)"><g><path d="M 3.140625 -3.609375 C 3.148438 -4.304688 3.226562 -4.851562 3.375 -5.25 C 3.519531 -5.65625 3.816406 -6.101562 4.265625 -6.59375 L 5.421875 -7.78125 C 5.910156 -8.34375 6.15625 -8.941406 6.15625 -9.578125 C 6.15625 -10.191406 5.992188 -10.671875 5.671875 -11.015625 C 5.347656 -11.367188 4.878906 -11.546875 4.265625 -11.546875 C 3.671875 -11.546875 3.191406 -11.382812 2.828125 -11.0625 C 2.460938 -10.75 2.28125 -10.328125 2.28125 -9.796875 L 0.65625 -9.796875 C 0.664062 -10.742188 1.003906 -11.507812 1.671875 -12.09375 C 2.335938 -12.675781 3.203125 -12.96875 4.265625 -12.96875 C 5.378906 -12.96875 6.242188 -12.671875 6.859375 -12.078125 C 7.472656 -11.484375 7.78125 -10.671875 7.78125 -9.640625 C 7.78125 -8.609375 7.304688 -7.59375 6.359375 -6.59375 L 5.40625 -5.65625 C 4.976562 -5.175781 4.765625 -4.492188 4.765625 -3.609375 Z M 3.0625 -0.8125 C 3.0625 -1.082031 3.140625 -1.304688 3.296875 -1.484375 C 3.460938 -1.660156 3.703125 -1.75 4.015625 -1.75 C 4.335938 -1.75 4.582031 -1.660156 4.75 -1.484375 C 4.914062 -1.304688 5 -1.082031 5 -0.8125 C 5 -0.550781 4.914062 -0.332031 4.75 -0.15625 C 4.582031 0.0078125 4.335938 0.09375 4.015625 0.09375 C 3.703125 0.09375 3.460938 0.0078125 3.296875 -0.15625 C 3.140625 -0.332031 3.0625 -0.550781 3.0625 -0.8125 Z M 3.0625 -0.8125 "/></g></g></g><path fill="#000000" d="M 41.453125 59.535156 C 40.933594 60.402344 40.429688 60.695312 39.714844 60.742188 C 39.554688 60.753906 39.433594 60.753906 39.433594 61.019531 C 39.433594 61.109375 39.507812 61.167969 39.613281 61.167969 C 39.878906 61.167969 40.546875 61.136719 40.816406 61.136719 C 41.246094 61.136719 41.71875 61.167969 42.136719 61.167969 C 42.226562 61.167969 42.402344 61.167969 42.402344 60.886719 C 42.402344 60.753906 42.285156 60.742188 42.195312 60.742188 C 41.855469 60.710938 41.570312 60.59375 41.570312 60.242188 C 41.570312 60.035156 41.660156 59.875 41.855469 59.550781 L 42.980469 57.699219 L 46.765625 57.699219 C 46.78125 57.832031 46.78125 57.949219 46.796875 58.082031 C 46.839844 58.464844 47.019531 59.992188 47.019531 60.269531 C 47.019531 60.710938 46.261719 60.742188 46.023438 60.742188 C 45.863281 60.742188 45.699219 60.742188 45.699219 61.003906 C 45.699219 61.167969 45.832031 61.167969 45.921875 61.167969 C 46.171875 61.167969 46.46875 61.136719 46.722656 61.136719 L 47.570312 61.136719 C 48.476562 61.136719 49.128906 61.167969 49.144531 61.167969 C 49.246094 61.167969 49.410156 61.167969 49.410156 60.886719 C 49.410156 60.742188 49.277344 60.742188 49.054688 60.742188 C 48.238281 60.742188 48.222656 60.609375 48.179688 60.167969 L 47.273438 51.003906 C 47.242188 50.710938 47.183594 50.679688 47.019531 50.679688 C 46.871094 50.679688 46.78125 50.710938 46.648438 50.929688 Z M 43.234375 57.273438 L 46.21875 52.339844 L 46.722656 57.273438 Z M 43.234375 57.273438 " fill-opacity="1" fill-rule="nonzero"/><path fill="#000000" d="M 63.96875 56.40625 C 64.175781 56.40625 64.445312 56.40625 64.445312 56.144531 C 64.445312 55.863281 64.191406 55.863281 63.96875 55.863281 L 55.226562 55.863281 C 55.019531 55.863281 54.75 55.863281 54.75 56.128906 C 54.75 56.40625 55.003906 56.40625 55.226562 56.40625 Z M 63.96875 59.140625 C 64.175781 59.140625 64.445312 59.140625 64.445312 58.875 C 64.445312 58.597656 64.191406 58.597656 63.96875 58.597656 L 55.226562 58.597656 C 55.019531 58.597656 54.75 58.597656 54.75 58.859375 C 54.75 59.140625 55.003906 59.140625 55.226562 59.140625 Z M 63.96875 59.140625 " fill-opacity="1" fill-rule="nonzero"/><path fill="#000000" d="M 73.578125 52.105469 C 73.578125 51.515625 73.964844 50.578125 75.582031 50.472656 C 75.65625 50.460938 75.714844 50.402344 75.714844 50.3125 C 75.714844 50.152344 75.597656 50.152344 75.433594 50.152344 C 73.949219 50.152344 72.597656 50.898438 72.585938 51.988281 L 72.585938 55.335938 C 72.585938 55.910156 72.585938 56.378906 71.992188 56.863281 C 71.472656 57.289062 70.90625 57.320312 70.582031 57.332031 C 70.507812 57.347656 70.445312 57.40625 70.445312 57.496094 C 70.445312 57.640625 70.535156 57.640625 70.683594 57.65625 C 71.664062 57.714844 72.375 58.242188 72.539062 58.964844 C 72.585938 59.125 72.585938 59.15625 72.585938 59.683594 L 72.585938 62.589844 C 72.585938 63.207031 72.585938 63.679688 73.296875 64.238281 C 73.875 64.675781 74.855469 64.839844 75.433594 64.839844 C 75.597656 64.839844 75.714844 64.839844 75.714844 64.675781 C 75.714844 64.53125 75.628906 64.53125 75.480469 64.515625 C 74.542969 64.457031 73.816406 63.988281 73.625 63.238281 C 73.578125 63.105469 73.578125 63.078125 73.578125 62.546875 L 73.578125 59.464844 C 73.578125 58.789062 73.460938 58.539062 72.984375 58.066406 C 72.671875 57.757812 72.242188 57.613281 71.828125 57.496094 C 73.042969 57.15625 73.578125 56.480469 73.578125 55.628906 Z M 73.578125 52.105469 " fill-opacity="1" fill-rule="nonzero"/><path fill="#000000" d="M 86.582031 57.789062 C 86.835938 57.789062 87.101562 57.789062 87.101562 57.496094 C 87.101562 57.203125 86.835938 57.203125 86.582031 57.203125 L 78.550781 57.203125 C 78.300781 57.203125 78.03125 57.203125 78.03125 57.496094 C 78.03125 57.789062 78.300781 57.789062 78.550781 57.789062 Z M 86.582031 57.789062 " fill-opacity="1" fill-rule="nonzero"/><path fill="#000000" d="M 94.878906 58.699219 L 94.550781 58.699219 C 94.507812 58.949219 94.386719 59.757812 94.238281 59.992188 C 94.136719 60.125 93.289062 60.125 92.84375 60.125 L 90.097656 60.125 C 90.5 59.785156 91.402344 58.847656 91.789062 58.492188 C 94.046875 56.4375 94.878906 55.671875 94.878906 54.21875 C 94.878906 52.53125 93.527344 51.398438 91.804688 51.398438 C 90.082031 51.398438 89.074219 52.855469 89.074219 54.117188 C 89.074219 54.867188 89.726562 54.867188 89.769531 54.867188 C 90.082031 54.867188 90.46875 54.644531 90.46875 54.175781 C 90.46875 53.765625 90.1875 53.484375 89.769531 53.484375 C 89.636719 53.484375 89.609375 53.484375 89.5625 53.5 C 89.84375 52.5 90.648438 51.824219 91.613281 51.824219 C 92.875 51.824219 93.644531 52.867188 93.644531 54.21875 C 93.644531 55.46875 92.917969 56.554688 92.070312 57.496094 L 89.074219 60.8125 L 89.074219 61.167969 L 94.492188 61.167969 Z M 94.878906 58.699219 " fill-opacity="1" fill-rule="nonzero"/><path fill="#000000" d="M 98.34375 60.460938 C 98.34375 60.035156 97.988281 59.742188 97.632812 59.742188 C 97.203125 59.742188 96.90625 60.09375 96.90625 60.445312 C 96.90625 60.875 97.261719 61.167969 97.617188 61.167969 C 98.046875 61.167969 98.34375 60.8125 98.34375 60.460938 Z M 98.34375 60.460938 " fill-opacity="1" fill-rule="nonzero"/><path fill="#000000" d="M 102.382812 55.894531 C 102.128906 55.910156 102.070312 55.921875 102.070312 56.054688 C 102.070312 56.203125 102.144531 56.203125 102.410156 56.203125 L 103.09375 56.203125 C 104.355469 56.203125 104.921875 57.230469 104.921875 58.640625 C 104.921875 60.566406 103.910156 61.078125 103.183594 61.078125 C 102.472656 61.078125 101.253906 60.742188 100.824219 59.773438 C 101.296875 59.84375 101.730469 59.582031 101.730469 59.050781 C 101.730469 58.625 101.417969 58.332031 101 58.332031 C 100.644531 58.332031 100.257812 58.539062 100.257812 59.097656 C 100.257812 60.402344 101.582031 61.476562 103.230469 61.476562 C 104.996094 61.476562 106.300781 60.140625 106.300781 58.65625 C 106.300781 57.304688 105.203125 56.246094 103.777344 55.996094 C 105.070312 55.628906 105.902344 54.558594 105.902344 53.410156 C 105.902344 52.25 104.683594 51.398438 103.242188 51.398438 C 101.757812 51.398438 100.660156 52.296875 100.660156 53.367188 C 100.660156 53.957031 101.121094 54.074219 101.34375 54.074219 C 101.65625 54.074219 102.011719 53.851562 102.011719 53.410156 C 102.011719 52.941406 101.65625 52.734375 101.328125 52.734375 C 101.238281 52.734375 101.210938 52.734375 101.164062 52.75 C 101.730469 51.753906 103.125 51.753906 103.199219 51.753906 C 103.6875 51.753906 104.652344 51.972656 104.652344 53.410156 C 104.652344 53.691406 104.609375 54.511719 104.179688 55.144531 C 103.734375 55.792969 103.230469 55.835938 102.828125 55.851562 Z M 102.382812 55.894531 " fill-opacity="1" fill-rule="nonzero"/><path fill="#000000" d="M 109.8125 61.226562 C 109.8125 60.375 109.53125 59.742188 108.921875 59.742188 C 108.449219 59.742188 108.210938 60.125 108.210938 60.445312 C 108.210938 60.769531 108.433594 61.167969 108.9375 61.167969 C 109.128906 61.167969 109.292969 61.109375 109.425781 60.976562 C 109.457031 60.945312 109.472656 60.945312 109.488281 60.945312 C 109.515625 60.945312 109.515625 61.152344 109.515625 61.226562 C 109.515625 61.710938 109.425781 62.664062 108.566406 63.621094 C 108.402344 63.796875 108.402344 63.824219 108.402344 63.855469 C 108.402344 63.929688 108.476562 64 108.550781 64 C 108.671875 64 109.8125 62.914062 109.8125 61.226562 Z M 109.8125 61.226562 " fill-opacity="1" fill-rule="nonzero"/><path fill="#000000" d="M 118.757812 45.691406 L 120.4375 45.691406 C 120.035156 47.339844 119.78125 48.410156 119.78125 49.585938 C 119.78125 49.789062 119.78125 51.378906 120.390625 51.378906 C 120.703125 51.378906 120.96875 51.097656 120.96875 50.847656 C 120.96875 50.773438 120.96875 50.746094 120.867188 50.523438 C 120.464844 49.511719 120.464844 48.25 120.464844 48.144531 C 120.464844 48.058594 120.464844 47.015625 120.777344 45.691406 L 122.441406 45.691406 C 122.632812 45.691406 123.121094 45.691406 123.121094 45.222656 C 123.121094 44.898438 122.839844 44.898438 122.574219 44.898438 L 117.691406 44.898438 C 117.347656 44.898438 116.84375 44.898438 116.160156 45.621094 C 115.773438 46.046875 115.300781 46.824219 115.300781 46.914062 C 115.300781 47 115.375 47.03125 115.460938 47.03125 C 115.566406 47.03125 115.582031 46.984375 115.65625 46.898438 C 116.429688 45.691406 117.199219 45.691406 117.570312 45.691406 L 118.417969 45.691406 C 118.089844 46.792969 117.71875 48.074219 116.503906 50.644531 C 116.382812 50.878906 116.382812 50.90625 116.382812 50.996094 C 116.382812 51.304688 116.652344 51.378906 116.785156 51.378906 C 117.214844 51.378906 117.332031 50.996094 117.511719 50.378906 C 117.75 49.628906 117.75 49.601562 117.898438 49.011719 Z M 118.757812 45.691406 " fill-opacity="1" fill-rule="nonzero"/><path fill="#000000" d="M 114.914062 57.199219 L 123.691406 57.199219 L 123.691406 57.789062 L 114.914062 57.789062 Z M 114.914062 57.199219 " fill-opacity="1" fill-rule="nonzero"/><path fill="#000000" d="M 121.027344 61.679688 C 121.027344 61.402344 121.027344 61.328125 120.820312 61.328125 C 120.699219 61.328125 120.65625 61.328125 120.539062 61.503906 L 116.070312 68.363281 L 116.070312 68.789062 L 119.972656 68.789062 L 119.972656 70.125 C 119.972656 70.667969 119.945312 70.816406 118.859375 70.816406 L 118.5625 70.816406 L 118.5625 71.242188 C 118.90625 71.214844 120.078125 71.214844 120.492188 71.214844 C 120.910156 71.214844 122.097656 71.214844 122.4375 71.242188 L 122.4375 70.816406 L 122.140625 70.816406 C 121.070312 70.816406 121.027344 70.667969 121.027344 70.125 L 121.027344 68.789062 L 122.527344 68.789062 L 122.527344 68.363281 L 121.027344 68.363281 Z M 120.046875 62.828125 L 120.046875 68.363281 L 116.441406 68.363281 Z M 120.046875 62.828125 " fill-opacity="1" fill-rule="nonzero"/><path fill="#000000" d="M 128.070312 61.226562 C 128.070312 60.375 127.789062 59.742188 127.179688 59.742188 C 126.703125 59.742188 126.46875 60.125 126.46875 60.445312 C 126.46875 60.769531 126.691406 61.167969 127.195312 61.167969 C 127.386719 61.167969 127.550781 61.109375 127.683594 60.976562 C 127.714844 60.945312 127.730469 60.945312 127.742188 60.945312 C 127.773438 60.945312 127.773438 61.152344 127.773438 61.226562 C 127.773438 61.710938 127.683594 62.664062 126.824219 63.621094 C 126.660156 63.796875 126.660156 63.824219 126.660156 63.855469 C 126.660156 63.929688 126.734375 64 126.808594 64 C 126.925781 64 128.070312 62.914062 128.070312 61.226562 Z M 128.070312 61.226562 " fill-opacity="1" fill-rule="nonzero"/><path fill="#000000" d="M 138.21875 58.699219 L 137.890625 58.699219 C 137.847656 58.949219 137.730469 59.757812 137.582031 59.992188 C 137.476562 60.125 136.628906 60.125 136.183594 60.125 L 133.4375 60.125 C 133.839844 59.785156 134.746094 58.847656 135.132812 58.492188 C 137.386719 56.4375 138.21875 55.671875 138.21875 54.21875 C 138.21875 52.53125 136.867188 51.398438 135.144531 51.398438 C 133.425781 51.398438 132.414062 52.855469 132.414062 54.117188 C 132.414062 54.867188 133.066406 54.867188 133.113281 54.867188 C 133.425781 54.867188 133.808594 54.644531 133.808594 54.175781 C 133.808594 53.765625 133.527344 53.484375 133.113281 53.484375 C 132.980469 53.484375 132.949219 53.484375 132.90625 53.5 C 133.1875 52.5 133.988281 51.824219 134.953125 51.824219 C 136.214844 51.824219 136.988281 52.867188 136.988281 54.21875 C 136.988281 55.46875 136.257812 56.554688 135.414062 57.496094 L 132.414062 60.8125 L 132.414062 61.167969 L 137.832031 61.167969 Z M 138.21875 58.699219 " fill-opacity="1" fill-rule="nonzero"/><path fill="#000000" d="M 145.488281 58.699219 L 145.160156 58.699219 C 145.113281 58.949219 144.996094 59.757812 144.847656 59.992188 C 144.742188 60.125 143.898438 60.125 143.453125 60.125 L 140.707031 60.125 C 141.105469 59.785156 142.011719 58.847656 142.398438 58.492188 C 144.65625 56.4375 145.488281 55.671875 145.488281 54.21875 C 145.488281 52.53125 144.136719 51.398438 142.414062 51.398438 C 140.691406 51.398438 139.683594 52.855469 139.683594 54.117188 C 139.683594 54.867188 140.335938 54.867188 140.378906 54.867188 C 140.691406 54.867188 141.078125 54.644531 141.078125 54.175781 C 141.078125 53.765625 140.796875 53.484375 140.378906 53.484375 C 140.246094 53.484375 140.214844 53.484375 140.171875 53.5 C 140.453125 52.5 141.253906 51.824219 142.21875 51.824219 C 143.480469 51.824219 144.253906 52.867188 144.253906 54.21875 C 144.253906 55.46875 143.527344 56.554688 142.679688 57.496094 L 139.683594 60.8125 L 139.683594 61.167969 L 145.101562 61.167969 Z M 145.488281 58.699219 " fill-opacity="1" fill-rule="nonzero"/><path fill="#000000" d="M 149.117188 61.226562 C 149.117188 60.375 148.835938 59.742188 148.226562 59.742188 C 147.75 59.742188 147.515625 60.125 147.515625 60.445312 C 147.515625 60.769531 147.738281 61.167969 148.242188 61.167969 C 148.433594 61.167969 148.597656 61.109375 148.730469 60.976562 C 148.761719 60.945312 148.777344 60.945312 148.789062 60.945312 C 148.820312 60.945312 148.820312 61.152344 148.820312 61.226562 C 148.820312 61.710938 148.730469 62.664062 147.871094 63.621094 C 147.707031 63.796875 147.707031 63.824219 147.707031 63.855469 C 147.707031 63.929688 147.78125 64 147.855469 64 C 147.972656 64 149.117188 62.914062 149.117188 61.226562 Z M 149.117188 61.226562 " fill-opacity="1" fill-rule="nonzero"/><g clip-path="url(#c2c01d5233)"><path fill="#000000" d="M 159.652344 69.84375 L 159.636719 69.84375 L 156.429688 55.125 L 154.484375 58.152344 C 154.382812 58.285156 154.382812 58.3125 154.382812 58.328125 C 154.382812 58.386719 154.574219 58.546875 154.589844 58.5625 L 155.597656 56.992188 L 159.027344 72.75 C 159.515625 72.75 159.5625 72.75 159.652344 72.371094 L 167.816406 38.101562 C 167.84375 38 167.875 37.867188 167.875 37.792969 C 167.875 37.632812 167.757812 37.5 167.578125 37.5 C 167.339844 37.5 167.296875 37.691406 167.25 37.898438 Z M 159.652344 69.84375 " fill-opacity="1" fill-rule="nonzero"/></g><g clip-path="url(#0673f10d15)"><path fill="#000000" d="M 167.578125 37.5 L 177.816406 37.5 L 177.816406 38.085938 L 167.578125 38.085938 Z M 167.578125 37.5 " fill-opacity="1" fill-rule="nonzero"/></g><path fill="#000000" d="M 173.339844 41.816406 C 173.339844 41.476562 173.339844 41.464844 173.042969 41.464844 C 172.683594 41.859375 171.941406 42.402344 170.414062 42.402344 L 170.414062 42.828125 C 170.753906 42.828125 171.496094 42.828125 172.3125 42.445312 L 172.3125 50.097656 C 172.3125 50.628906 172.269531 50.804688 170.960938 50.804688 L 170.503906 50.804688 L 170.503906 51.230469 C 170.902344 51.199219 172.34375 51.199219 172.832031 51.199219 C 173.324219 51.199219 174.75 51.199219 175.148438 51.230469 L 175.148438 50.804688 L 174.6875 50.804688 C 173.382812 50.804688 173.339844 50.628906 173.339844 50.097656 Z M 173.339844 41.816406 " fill-opacity="1" fill-rule="nonzero"/><path fill="#000000" d="M 169.0625 57.199219 L 176.332031 57.199219 L 176.332031 57.789062 L 169.0625 57.789062 Z M 169.0625 57.199219 " fill-opacity="1" fill-rule="nonzero"/><path fill="#000000" d="M 174.421875 61.679688 C 174.421875 61.402344 174.421875 61.328125 174.214844 61.328125 C 174.09375 61.328125 174.050781 61.328125 173.933594 61.503906 L 169.464844 68.363281 L 169.464844 68.789062 L 173.367188 68.789062 L 173.367188 70.125 C 173.367188 70.667969 173.339844 70.816406 172.253906 70.816406 L 171.957031 70.816406 L 171.957031 71.242188 C 172.300781 71.214844 173.472656 71.214844 173.886719 71.214844 C 174.304688 71.214844 175.492188 71.214844 175.832031 71.242188 L 175.832031 70.816406 L 175.535156 70.816406 C 174.464844 70.816406 174.421875 70.667969 174.421875 70.125 L 174.421875 68.789062 L 175.921875 68.789062 L 175.921875 68.363281 L 174.421875 68.363281 Z M 173.441406 62.828125 L 173.441406 68.363281 L 169.835938 68.363281 Z M 173.441406 62.828125 " fill-opacity="1" fill-rule="nonzero"/><path fill="#000000" d="M 180.710938 61.226562 C 180.710938 60.375 180.429688 59.742188 179.820312 59.742188 C 179.34375 59.742188 179.105469 60.125 179.105469 60.445312 C 179.105469 60.769531 179.328125 61.167969 179.835938 61.167969 C 180.027344 61.167969 180.191406 61.109375 180.324219 60.976562 C 180.355469 60.945312 180.367188 60.945312 180.382812 60.945312 C 180.414062 60.945312 180.414062 61.152344 180.414062 61.226562 C 180.414062 61.710938 180.324219 62.664062 179.464844 63.621094 C 179.300781 63.796875 179.300781 63.824219 179.300781 63.855469 C 179.300781 63.929688 179.375 64 179.449219 64 C 179.566406 64 180.710938 62.914062 180.710938 61.226562 Z M 180.710938 61.226562 " fill-opacity="1" fill-rule="nonzero"/><path fill="#000000" d="M 190.101562 60.859375 L 187.488281 55.144531 C 187.382812 54.910156 187.308594 54.910156 187.265625 54.910156 C 187.25 54.910156 187.175781 54.910156 187.011719 55.027344 L 185.601562 56.085938 C 185.410156 56.230469 185.410156 56.277344 185.410156 56.320312 C 185.410156 56.394531 185.453125 56.480469 185.558594 56.480469 C 185.648438 56.480469 185.898438 56.277344 186.0625 56.15625 C 186.152344 56.085938 186.375 55.921875 186.539062 55.804688 L 189.460938 62.164062 C 189.566406 62.398438 189.640625 62.398438 189.773438 62.398438 C 189.996094 62.398438 190.042969 62.3125 190.144531 62.105469 L 196.886719 48.300781 C 196.988281 48.09375 196.988281 48.035156 196.988281 48.007812 C 196.988281 47.859375 196.871094 47.710938 196.691406 47.710938 C 196.574219 47.710938 196.46875 47.785156 196.351562 48.019531 Z M 190.101562 60.859375 " fill-opacity="1" fill-rule="nonzero"/><path fill="#000000" d="M 196.695312 47.714844 L 211.230469 47.714844 L 211.230469 48.300781 L 196.695312 48.300781 Z M 196.695312 47.714844 " fill-opacity="1" fill-rule="nonzero"/><path fill="#000000" d="M 200.972656 51.753906 C 200.972656 51.414062 200.972656 51.398438 200.675781 51.398438 C 200.316406 51.796875 199.574219 52.339844 198.046875 52.339844 L 198.046875 52.765625 C 198.386719 52.765625 199.128906 52.765625 199.945312 52.382812 L 199.945312 60.035156 C 199.945312 60.566406 199.902344 60.742188 198.597656 60.742188 L 198.136719 60.742188 L 198.136719 61.167969 C 198.535156 61.136719 199.976562 61.136719 200.464844 61.136719 C 200.957031 61.136719 202.382812 61.136719 202.78125 61.167969 L 202.78125 60.742188 L 202.320312 60.742188 C 201.015625 60.742188 200.972656 60.566406 200.972656 60.035156 Z M 200.972656 51.753906 " fill-opacity="1" fill-rule="nonzero"/><path fill="#000000" d="M 210.496094 58.699219 L 210.167969 58.699219 C 210.125 58.949219 210.003906 59.757812 209.855469 59.992188 C 209.753906 60.125 208.90625 60.125 208.460938 60.125 L 205.714844 60.125 C 206.117188 59.785156 207.023438 58.847656 207.40625 58.492188 C 209.664062 56.4375 210.496094 55.671875 210.496094 54.21875 C 210.496094 52.53125 209.144531 51.398438 207.421875 51.398438 C 205.699219 51.398438 204.691406 52.855469 204.691406 54.117188 C 204.691406 54.867188 205.34375 54.867188 205.386719 54.867188 C 205.699219 54.867188 206.085938 54.644531 206.085938 54.175781 C 206.085938 53.765625 205.804688 53.484375 205.386719 53.484375 C 205.253906 53.484375 205.226562 53.484375 205.179688 53.5 C 205.460938 52.5 206.265625 51.824219 207.230469 51.824219 C 208.492188 51.824219 209.261719 52.867188 209.261719 54.21875 C 209.261719 55.46875 208.535156 56.554688 207.691406 57.496094 L 204.691406 60.8125 L 204.691406 61.167969 L 210.109375 61.167969 Z M 210.496094 58.699219 " fill-opacity="1" fill-rule="nonzero"/><path fill="#000000" d="M 214.4375 62.886719 C 214.4375 63.472656 214.050781 64.414062 212.433594 64.515625 C 212.359375 64.53125 212.300781 64.589844 212.300781 64.675781 C 212.300781 64.839844 212.464844 64.839844 212.597656 64.839844 C 214.035156 64.839844 215.417969 64.121094 215.433594 63.003906 L 215.433594 59.652344 C 215.433594 59.082031 215.433594 58.609375 216.027344 58.125 C 216.546875 57.699219 217.109375 57.671875 217.4375 57.65625 C 217.511719 57.640625 217.570312 57.582031 217.570312 57.496094 C 217.570312 57.347656 217.480469 57.347656 217.332031 57.332031 C 216.351562 57.273438 215.640625 56.746094 215.476562 56.027344 C 215.433594 55.863281 215.433594 55.835938 215.433594 55.304688 L 215.433594 52.398438 C 215.433594 51.78125 215.433594 51.3125 214.71875 50.753906 C 214.125 50.296875 213.101562 50.152344 212.597656 50.152344 C 212.464844 50.152344 212.300781 50.152344 212.300781 50.3125 C 212.300781 50.460938 212.390625 50.460938 212.539062 50.472656 C 213.472656 50.53125 214.199219 51.003906 214.394531 51.753906 C 214.4375 51.882812 214.4375 51.914062 214.4375 52.441406 L 214.4375 55.527344 C 214.4375 56.203125 214.554688 56.453125 215.03125 56.921875 C 215.34375 57.230469 215.773438 57.378906 216.1875 57.496094 C 214.972656 57.832031 214.4375 58.507812 214.4375 59.359375 Z M 214.4375 62.886719 " fill-opacity="1" fill-rule="nonzero"/></svg>