<svg xmlns="http://www.w3.org/2000/svg" xmlns:xlink="http://www.w3.org/1999/xlink" width="500" zoomAndPan="magnify" viewBox="0 0 375 74.999997" height="100" preserveAspectRatio="xMidYMid meet" version="1.0"><defs><g/><clipPath id="acf632c4ea"><path d="M 103 37.5 L 118 37.5 L 118 57 L 103 57 Z M 103 37.5 " clip-rule="nonzero"/></clipPath><clipPath id="c6c8dbdea5"><path d="M 117 37.5 L 135 37.5 L 135 39 L 117 39 Z M 117 37.5 " clip-rule="nonzero"/></clipPath><clipPath id="e59d7c4374"><path d="M 139 40 L 141.75 40 L 141.75 59.25 L 139 59.25 Z M 139 40 " clip-rule="nonzero"/></clipPath></defs><g fill="#17191a" fill-opacity="1"><g transform="translate(15.000006, 31.200004)"><g><path d="M 9.453125 0 L 1.0625 0 L 1.0625 -1.171875 L 5.5 -6.09375 C 6.15625 -6.832031 6.601562 -7.4375 6.84375 -7.90625 C 7.09375 -8.375 7.21875 -8.859375 7.21875 -9.359375 C 7.21875 -10.023438 7.015625 -10.570312 6.609375 -11 C 6.210938 -11.425781 5.675781 -11.640625 5 -11.640625 C 4.1875 -11.640625 3.554688 -11.40625 3.109375 -10.9375 C 2.660156 -10.476562 2.4375 -9.84375 2.4375 -9.03125 L 0.8125 -9.03125 C 0.8125 -10.207031 1.191406 -11.15625 1.953125 -11.875 C 2.710938 -12.601562 3.726562 -12.96875 5 -12.96875 C 6.1875 -12.96875 7.125 -12.65625 7.8125 -12.03125 C 8.507812 -11.40625 8.859375 -10.578125 8.859375 -9.546875 C 8.859375 -8.285156 8.054688 -6.785156 6.453125 -5.046875 L 3.03125 -1.328125 L 9.453125 -1.328125 Z M 9.453125 0 "/></g></g></g><g fill="#17191a" fill-opacity="1"><g transform="translate(25.100847, 31.200004)"><g><path d="M 4.984375 -5.109375 C 4.984375 -3.796875 4.8125 -2.539062 4.46875 -1.34375 C 4.125 -0.144531 3.597656 0.957031 2.890625 1.96875 C 2.191406 2.976562 1.453125 3.695312 0.671875 4.125 L 0.328125 3.140625 C 1.234375 2.441406 1.957031 1.367188 2.5 -0.078125 C 3.050781 -1.535156 3.332031 -3.15625 3.34375 -4.9375 L 3.34375 -5.21875 C 3.34375 -6.445312 3.210938 -7.585938 2.953125 -8.640625 C 2.703125 -9.703125 2.347656 -10.648438 1.890625 -11.484375 C 1.429688 -12.328125 0.910156 -12.984375 0.328125 -13.453125 L 0.671875 -14.4375 C 1.453125 -14.007812 2.191406 -13.296875 2.890625 -12.296875 C 3.585938 -11.296875 4.109375 -10.191406 4.453125 -8.984375 C 4.804688 -7.773438 4.984375 -6.484375 4.984375 -5.109375 Z M 4.984375 -5.109375 "/></g></g></g><g fill="#17191a" fill-opacity="1"><g transform="translate(31.354585, 31.200004)"><g/></g></g><g fill="#17191a" fill-opacity="1"><g transform="translate(35.807744, 31.200004)"><g><path d="M 3.171875 -5.015625 L 3.171875 0 L 1.484375 0 L 1.484375 -12.796875 L 6.203125 -12.796875 C 7.609375 -12.796875 8.707031 -12.4375 9.5 -11.71875 C 10.289062 -11.007812 10.6875 -10.066406 10.6875 -8.890625 C 10.6875 -7.640625 10.296875 -6.679688 9.515625 -6.015625 C 8.742188 -5.347656 7.632812 -5.015625 6.1875 -5.015625 Z M 3.171875 -6.390625 L 6.203125 -6.390625 C 7.109375 -6.390625 7.800781 -6.601562 8.28125 -7.03125 C 8.757812 -7.457031 9 -8.070312 9 -8.875 C 9 -9.632812 8.757812 -10.238281 8.28125 -10.6875 C 7.800781 -11.144531 7.140625 -11.382812 6.296875 -11.40625 L 3.171875 -11.40625 Z M 3.171875 -6.390625 "/></g></g></g><g fill="#17191a" fill-opacity="1"><g transform="translate(47.155819, 31.200004)"><g><path d="M 5.828125 -8.046875 C 5.578125 -8.085938 5.3125 -8.109375 5.03125 -8.109375 C 3.957031 -8.109375 3.234375 -7.65625 2.859375 -6.75 L 2.859375 0 L 1.234375 0 L 1.234375 -9.515625 L 2.8125 -9.515625 L 2.84375 -8.40625 C 3.375 -9.257812 4.128906 -9.6875 5.109375 -9.6875 C 5.421875 -9.6875 5.660156 -9.644531 5.828125 -9.5625 Z M 5.828125 -8.046875 "/></g></g></g><g fill="#17191a" fill-opacity="1"><g transform="translate(53.242679, 31.200004)"><g><path d="M 3 0 L 1.375 0 L 1.375 -9.515625 L 3 -9.515625 Z M 1.234375 -12.03125 C 1.234375 -12.289062 1.3125 -12.507812 1.46875 -12.6875 C 1.632812 -12.875 1.875 -12.96875 2.1875 -12.96875 C 2.507812 -12.96875 2.753906 -12.875 2.921875 -12.6875 C 3.085938 -12.507812 3.171875 -12.289062 3.171875 -12.03125 C 3.171875 -11.769531 3.085938 -11.550781 2.921875 -11.375 C 2.753906 -11.195312 2.507812 -11.109375 2.1875 -11.109375 C 1.875 -11.109375 1.632812 -11.195312 1.46875 -11.375 C 1.3125 -11.550781 1.234375 -11.769531 1.234375 -12.03125 Z M 1.234375 -12.03125 "/></g></g></g><g fill="#17191a" fill-opacity="1"><g transform="translate(57.608005, 31.200004)"><g><path d="M 9.265625 -4.65625 C 9.265625 -3.207031 8.929688 -2.039062 8.265625 -1.15625 C 7.609375 -0.269531 6.710938 0.171875 5.578125 0.171875 C 4.421875 0.171875 3.515625 -0.191406 2.859375 -0.921875 L 2.859375 3.65625 L 1.234375 3.65625 L 1.234375 -9.515625 L 2.71875 -9.515625 L 2.796875 -8.453125 C 3.453125 -9.273438 4.375 -9.6875 5.5625 -9.6875 C 6.695312 -9.6875 7.597656 -9.253906 8.265625 -8.390625 C 8.929688 -7.535156 9.265625 -6.335938 9.265625 -4.796875 Z M 7.640625 -4.828125 C 7.640625 -5.898438 7.410156 -6.75 6.953125 -7.375 C 6.492188 -8 5.867188 -8.3125 5.078125 -8.3125 C 4.085938 -8.3125 3.347656 -7.875 2.859375 -7 L 2.859375 -2.453125 C 3.347656 -1.585938 4.09375 -1.15625 5.09375 -1.15625 C 5.875 -1.15625 6.492188 -1.460938 6.953125 -2.078125 C 7.410156 -2.691406 7.640625 -3.609375 7.640625 -4.828125 Z M 7.640625 -4.828125 "/></g></g></g><g fill="#17191a" fill-opacity="1"><g transform="translate(67.700068, 31.200004)"><g><path d="M 7.109375 0 C 7.015625 -0.1875 6.9375 -0.519531 6.875 -1 C 6.113281 -0.21875 5.210938 0.171875 4.171875 0.171875 C 3.234375 0.171875 2.460938 -0.09375 1.859375 -0.625 C 1.253906 -1.15625 0.953125 -1.828125 0.953125 -2.640625 C 0.953125 -3.628906 1.328125 -4.394531 2.078125 -4.9375 C 2.835938 -5.488281 3.898438 -5.765625 5.265625 -5.765625 L 6.84375 -5.765625 L 6.84375 -6.515625 C 6.84375 -7.078125 6.671875 -7.523438 6.328125 -7.859375 C 5.992188 -8.203125 5.492188 -8.375 4.828125 -8.375 C 4.253906 -8.375 3.769531 -8.226562 3.375 -7.9375 C 2.976562 -7.644531 2.78125 -7.289062 2.78125 -6.875 L 1.15625 -6.875 C 1.15625 -7.34375 1.320312 -7.796875 1.65625 -8.234375 C 1.988281 -8.679688 2.441406 -9.035156 3.015625 -9.296875 C 3.597656 -9.554688 4.238281 -9.6875 4.9375 -9.6875 C 6.03125 -9.6875 6.882812 -9.410156 7.5 -8.859375 C 8.125 -8.316406 8.445312 -7.5625 8.46875 -6.59375 L 8.46875 -2.21875 C 8.46875 -1.351562 8.582031 -0.660156 8.8125 -0.140625 L 8.8125 0 Z M 4.40625 -1.234375 C 4.914062 -1.234375 5.398438 -1.363281 5.859375 -1.625 C 6.316406 -1.894531 6.644531 -2.238281 6.84375 -2.65625 L 6.84375 -4.609375 L 5.578125 -4.609375 C 3.578125 -4.609375 2.578125 -4.023438 2.578125 -2.859375 C 2.578125 -2.347656 2.75 -1.945312 3.09375 -1.65625 C 3.4375 -1.375 3.875 -1.234375 4.40625 -1.234375 Z M 4.40625 -1.234375 "/></g></g></g><g fill="#17191a" fill-opacity="1"><g transform="translate(77.484708, 31.200004)"><g><path d="M 0.828125 -4.828125 C 0.828125 -6.285156 1.171875 -7.457031 1.859375 -8.34375 C 2.554688 -9.238281 3.46875 -9.6875 4.59375 -9.6875 C 5.707031 -9.6875 6.585938 -9.304688 7.234375 -8.546875 L 7.234375 -13.5 L 8.859375 -13.5 L 8.859375 0 L 7.359375 0 L 7.28125 -1.015625 C 6.632812 -0.222656 5.734375 0.171875 4.578125 0.171875 C 3.472656 0.171875 2.570312 -0.273438 1.875 -1.171875 C 1.175781 -2.078125 0.828125 -3.257812 0.828125 -4.71875 Z M 2.46875 -4.65625 C 2.46875 -3.570312 2.6875 -2.722656 3.125 -2.109375 C 3.570312 -1.503906 4.1875 -1.203125 4.96875 -1.203125 C 6 -1.203125 6.753906 -1.664062 7.234375 -2.59375 L 7.234375 -6.96875 C 6.742188 -7.863281 6 -8.3125 5 -8.3125 C 4.195312 -8.3125 3.570312 -8 3.125 -7.375 C 2.6875 -6.757812 2.46875 -5.851562 2.46875 -4.65625 Z M 2.46875 -4.65625 "/></g></g></g><g fill="#17191a" fill-opacity="1"><g transform="translate(87.629471, 31.200004)"><g><path d="M 7.109375 0 C 7.015625 -0.1875 6.9375 -0.519531 6.875 -1 C 6.113281 -0.21875 5.210938 0.171875 4.171875 0.171875 C 3.234375 0.171875 2.460938 -0.09375 1.859375 -0.625 C 1.253906 -1.15625 0.953125 -1.828125 0.953125 -2.640625 C 0.953125 -3.628906 1.328125 -4.394531 2.078125 -4.9375 C 2.835938 -5.488281 3.898438 -5.765625 5.265625 -5.765625 L 6.84375 -5.765625 L 6.84375 -6.515625 C 6.84375 -7.078125 6.671875 -7.523438 6.328125 -7.859375 C 5.992188 -8.203125 5.492188 -8.375 4.828125 -8.375 C 4.253906 -8.375 3.769531 -8.226562 3.375 -7.9375 C 2.976562 -7.644531 2.78125 -7.289062 2.78125 -6.875 L 1.15625 -6.875 C 1.15625 -7.34375 1.320312 -7.796875 1.65625 -8.234375 C 1.988281 -8.679688 2.441406 -9.035156 3.015625 -9.296875 C 3.597656 -9.554688 4.238281 -9.6875 4.9375 -9.6875 C 6.03125 -9.6875 6.882812 -9.410156 7.5 -8.859375 C 8.125 -8.316406 8.445312 -7.5625 8.46875 -6.59375 L 8.46875 -2.21875 C 8.46875 -1.351562 8.582031 -0.660156 8.8125 -0.140625 L 8.8125 0 Z M 4.40625 -1.234375 C 4.914062 -1.234375 5.398438 -1.363281 5.859375 -1.625 C 6.316406 -1.894531 6.644531 -2.238281 6.84375 -2.65625 L 6.84375 -4.609375 L 5.578125 -4.609375 C 3.578125 -4.609375 2.578125 -4.023438 2.578125 -2.859375 C 2.578125 -2.347656 2.75 -1.945312 3.09375 -1.65625 C 3.4375 -1.375 3.875 -1.234375 4.40625 -1.234375 Z M 4.40625 -1.234375 "/></g></g></g><g fill="#17191a" fill-opacity="1"><g transform="translate(97.414112, 31.200004)"><g/></g></g><g fill="#17191a" fill-opacity="1"><g transform="translate(101.867271, 31.200004)"><g><path d="M 3 0 L 1.375 0 L 1.375 -13.5 L 3 -13.5 Z M 3 0 "/></g></g></g><g fill="#17191a" fill-opacity="1"><g transform="translate(106.232596, 31.200004)"><g><path d="M 3 0 L 1.375 0 L 1.375 -9.515625 L 3 -9.515625 Z M 1.234375 -12.03125 C 1.234375 -12.289062 1.3125 -12.507812 1.46875 -12.6875 C 1.632812 -12.875 1.875 -12.96875 2.1875 -12.96875 C 2.507812 -12.96875 2.753906 -12.875 2.921875 -12.6875 C 3.085938 -12.507812 3.171875 -12.289062 3.171875 -12.03125 C 3.171875 -11.769531 3.085938 -11.550781 2.921875 -11.375 C 2.753906 -11.195312 2.507812 -11.109375 2.1875 -11.109375 C 1.875 -11.109375 1.632812 -11.195312 1.46875 -11.375 C 1.3125 -11.550781 1.234375 -11.769531 1.234375 -12.03125 Z M 1.234375 -12.03125 "/></g></g></g><g fill="#17191a" fill-opacity="1"><g transform="translate(110.597922, 31.200004)"><g/></g></g><g fill="#17191a" fill-opacity="1"><g transform="translate(115.051081, 31.200004)"><g><path d="M 9.28125 -4.65625 C 9.28125 -3.195312 8.945312 -2.023438 8.28125 -1.140625 C 7.613281 -0.265625 6.71875 0.171875 5.59375 0.171875 C 4.382812 0.171875 3.453125 -0.25 2.796875 -1.09375 L 2.71875 0 L 1.234375 0 L 1.234375 -13.5 L 2.859375 -13.5 L 2.859375 -8.46875 C 3.515625 -9.28125 4.414062 -9.6875 5.5625 -9.6875 C 6.71875 -9.6875 7.625 -9.25 8.28125 -8.375 C 8.945312 -7.5 9.28125 -6.304688 9.28125 -4.796875 Z M 7.65625 -4.828125 C 7.65625 -5.941406 7.441406 -6.800781 7.015625 -7.40625 C 6.585938 -8.007812 5.972656 -8.3125 5.171875 -8.3125 C 4.097656 -8.3125 3.328125 -7.8125 2.859375 -6.8125 L 2.859375 -2.703125 C 3.359375 -1.703125 4.132812 -1.203125 5.1875 -1.203125 C 5.96875 -1.203125 6.570312 -1.503906 7 -2.109375 C 7.4375 -2.710938 7.65625 -3.617188 7.65625 -4.828125 Z M 7.65625 -4.828125 "/></g></g></g><g fill="#17191a" fill-opacity="1"><g transform="translate(125.143144, 31.200004)"><g><path d="M 5.828125 -8.046875 C 5.578125 -8.085938 5.3125 -8.109375 5.03125 -8.109375 C 3.957031 -8.109375 3.234375 -7.65625 2.859375 -6.75 L 2.859375 0 L 1.234375 0 L 1.234375 -9.515625 L 2.8125 -9.515625 L 2.84375 -8.40625 C 3.375 -9.257812 4.128906 -9.6875 5.109375 -9.6875 C 5.421875 -9.6875 5.660156 -9.644531 5.828125 -9.5625 Z M 5.828125 -8.046875 "/></g></g></g><g fill="#17191a" fill-opacity="1"><g transform="translate(131.230004, 31.200004)"><g><path d="M 0.796875 -4.84375 C 0.796875 -5.769531 0.976562 -6.601562 1.34375 -7.34375 C 1.71875 -8.09375 2.226562 -8.671875 2.875 -9.078125 C 3.53125 -9.484375 4.273438 -9.6875 5.109375 -9.6875 C 6.410156 -9.6875 7.457031 -9.238281 8.25 -8.34375 C 9.050781 -7.445312 9.453125 -6.253906 9.453125 -4.765625 L 9.453125 -4.65625 C 9.453125 -3.726562 9.273438 -2.894531 8.921875 -2.15625 C 8.566406 -1.425781 8.0625 -0.851562 7.40625 -0.4375 C 6.75 -0.03125 5.992188 0.171875 5.140625 0.171875 C 3.847656 0.171875 2.800781 -0.273438 2 -1.171875 C 1.195312 -2.066406 0.796875 -3.253906 0.796875 -4.734375 Z M 2.4375 -4.65625 C 2.4375 -3.59375 2.679688 -2.742188 3.171875 -2.109375 C 3.660156 -1.472656 4.316406 -1.15625 5.140625 -1.15625 C 5.960938 -1.15625 6.613281 -1.476562 7.09375 -2.125 C 7.582031 -2.769531 7.828125 -3.675781 7.828125 -4.84375 C 7.828125 -5.882812 7.578125 -6.726562 7.078125 -7.375 C 6.585938 -8.019531 5.929688 -8.34375 5.109375 -8.34375 C 4.304688 -8.34375 3.660156 -8.023438 3.171875 -7.390625 C 2.679688 -6.753906 2.4375 -5.84375 2.4375 -4.65625 Z M 2.4375 -4.65625 "/></g></g></g><g fill="#17191a" fill-opacity="1"><g transform="translate(141.488945, 31.200004)"><g><path d="M 2.90625 -9.515625 L 2.90625 1.09375 C 2.90625 2.925781 2.078125 3.84375 0.421875 3.84375 C 0.0664062 3.84375 -0.265625 3.789062 -0.578125 3.6875 L -0.578125 2.375 C -0.390625 2.425781 -0.140625 2.453125 0.171875 2.453125 C 0.535156 2.453125 0.8125 2.351562 1 2.15625 C 1.1875 1.957031 1.28125 1.617188 1.28125 1.140625 L 1.28125 -9.515625 Z M 1.109375 -12.03125 C 1.109375 -12.289062 1.1875 -12.507812 1.34375 -12.6875 C 1.507812 -12.875 1.75 -12.96875 2.0625 -12.96875 C 2.382812 -12.96875 2.625 -12.875 2.78125 -12.6875 C 2.945312 -12.507812 3.03125 -12.289062 3.03125 -12.03125 C 3.03125 -11.769531 2.945312 -11.550781 2.78125 -11.375 C 2.625 -11.195312 2.382812 -11.109375 2.0625 -11.109375 C 1.75 -11.109375 1.507812 -11.195312 1.34375 -11.375 C 1.1875 -11.550781 1.109375 -11.769531 1.109375 -12.03125 Z M 1.109375 -12.03125 "/></g></g></g><g fill="#17191a" fill-opacity="1"><g transform="translate(145.784004, 31.200004)"><g/></g></g><g fill="#17191a" fill-opacity="1"><g transform="translate(150.237163, 31.200004)"><g><path d="M 4.609375 -4.765625 L 0.328125 -4.765625 L 0.328125 -6.09375 L 4.609375 -6.09375 Z M 4.609375 -4.765625 "/></g></g></g><g fill="#17191a" fill-opacity="1"><g transform="translate(155.199755, 31.200004)"><g><path d="M 3.421875 -7.1875 L 4.65625 -7.1875 C 5.414062 -7.195312 6.015625 -7.398438 6.453125 -7.796875 C 6.898438 -8.191406 7.125 -8.722656 7.125 -9.390625 C 7.125 -10.890625 6.375 -11.640625 4.875 -11.640625 C 4.175781 -11.640625 3.613281 -11.4375 3.1875 -11.03125 C 2.769531 -10.632812 2.5625 -10.101562 2.5625 -9.4375 L 0.9375 -9.4375 C 0.9375 -10.445312 1.304688 -11.285156 2.046875 -11.953125 C 2.796875 -12.628906 3.738281 -12.96875 4.875 -12.96875 C 6.082031 -12.96875 7.03125 -12.648438 7.71875 -12.015625 C 8.40625 -11.378906 8.75 -10.492188 8.75 -9.359375 C 8.75 -8.796875 8.566406 -8.253906 8.203125 -7.734375 C 7.847656 -7.210938 7.359375 -6.820312 6.734375 -6.5625 C 7.429688 -6.34375 7.972656 -5.972656 8.359375 -5.453125 C 8.742188 -4.941406 8.9375 -4.3125 8.9375 -3.5625 C 8.9375 -2.414062 8.5625 -1.503906 7.8125 -0.828125 C 7.0625 -0.160156 6.082031 0.171875 4.875 0.171875 C 3.675781 0.171875 2.703125 -0.148438 1.953125 -0.796875 C 1.203125 -1.453125 0.828125 -2.3125 0.828125 -3.375 L 2.46875 -3.375 C 2.46875 -2.695312 2.6875 -2.15625 3.125 -1.75 C 3.5625 -1.351562 4.148438 -1.15625 4.890625 -1.15625 C 5.671875 -1.15625 6.269531 -1.359375 6.6875 -1.765625 C 7.101562 -2.171875 7.3125 -2.757812 7.3125 -3.53125 C 7.3125 -4.28125 7.082031 -4.851562 6.625 -5.25 C 6.164062 -5.644531 5.507812 -5.847656 4.65625 -5.859375 L 3.421875 -5.859375 Z M 3.421875 -7.1875 "/></g></g></g><g fill="#17191a" fill-opacity="1"><g transform="translate(165.300596, 31.200004)"><g/></g></g><g fill="#17191a" fill-opacity="1"><g transform="translate(169.753755, 31.200004)"><g><path d="M 3 0 L 1.375 0 L 1.375 -9.515625 L 3 -9.515625 Z M 1.234375 -12.03125 C 1.234375 -12.289062 1.3125 -12.507812 1.46875 -12.6875 C 1.632812 -12.875 1.875 -12.96875 2.1875 -12.96875 C 2.507812 -12.96875 2.753906 -12.875 2.921875 -12.6875 C 3.085938 -12.507812 3.171875 -12.289062 3.171875 -12.03125 C 3.171875 -11.769531 3.085938 -11.550781 2.921875 -11.375 C 2.753906 -11.195312 2.507812 -11.109375 2.1875 -11.109375 C 1.875 -11.109375 1.632812 -11.195312 1.46875 -11.375 C 1.3125 -11.550781 1.234375 -11.769531 1.234375 -12.03125 Z M 1.234375 -12.03125 "/></g></g></g><g fill="#17191a" fill-opacity="1"><g transform="translate(174.119081, 31.200004)"><g><path d="M 2.765625 -9.515625 L 2.828125 -8.3125 C 3.546875 -9.226562 4.492188 -9.6875 5.671875 -9.6875 C 7.679688 -9.6875 8.691406 -8.550781 8.703125 -6.28125 L 8.703125 0 L 7.078125 0 L 7.078125 -6.296875 C 7.078125 -6.984375 6.921875 -7.488281 6.609375 -7.8125 C 6.304688 -8.144531 5.828125 -8.3125 5.171875 -8.3125 C 4.648438 -8.3125 4.1875 -8.171875 3.78125 -7.890625 C 3.382812 -7.609375 3.078125 -7.238281 2.859375 -6.78125 L 2.859375 0 L 1.234375 0 L 1.234375 -9.515625 Z M 2.765625 -9.515625 "/></g></g></g><g fill="#17191a" fill-opacity="1"><g transform="translate(184.044255, 31.200004)"><g><path d="M 3.4375 -11.8125 L 3.4375 -9.515625 L 5.21875 -9.515625 L 5.21875 -8.25 L 3.4375 -8.25 L 3.4375 -2.359375 C 3.4375 -1.972656 3.515625 -1.6875 3.671875 -1.5 C 3.828125 -1.3125 4.097656 -1.21875 4.484375 -1.21875 C 4.671875 -1.21875 4.925781 -1.25 5.25 -1.3125 L 5.25 0 C 4.820312 0.113281 4.410156 0.171875 4.015625 0.171875 C 3.285156 0.171875 2.734375 -0.046875 2.359375 -0.484375 C 1.992188 -0.921875 1.8125 -1.546875 1.8125 -2.359375 L 1.8125 -8.25 L 0.078125 -8.25 L 0.078125 -9.515625 L 1.8125 -9.515625 L 1.8125 -11.8125 Z M 3.4375 -11.8125 "/></g></g></g><g fill="#17191a" fill-opacity="1"><g transform="translate(189.920315, 31.200004)"><g><path d="M 5.171875 0.171875 C 3.890625 0.171875 2.84375 -0.25 2.03125 -1.09375 C 1.21875 -1.9375 0.8125 -3.066406 0.8125 -4.484375 L 0.8125 -4.796875 C 0.8125 -5.734375 0.992188 -6.570312 1.359375 -7.3125 C 1.722656 -8.050781 2.226562 -8.628906 2.875 -9.046875 C 3.519531 -9.472656 4.21875 -9.6875 4.96875 -9.6875 C 6.207031 -9.6875 7.171875 -9.28125 7.859375 -8.46875 C 8.546875 -7.65625 8.890625 -6.488281 8.890625 -4.96875 L 8.890625 -4.296875 L 2.4375 -4.296875 C 2.46875 -3.359375 2.742188 -2.597656 3.265625 -2.015625 C 3.785156 -1.441406 4.453125 -1.15625 5.265625 -1.15625 C 5.835938 -1.15625 6.320312 -1.269531 6.71875 -1.5 C 7.125 -1.738281 7.472656 -2.050781 7.765625 -2.4375 L 8.765625 -1.65625 C 7.960938 -0.4375 6.765625 0.171875 5.171875 0.171875 Z M 4.96875 -8.34375 C 4.3125 -8.34375 3.757812 -8.101562 3.3125 -7.625 C 2.875 -7.15625 2.601562 -6.488281 2.5 -5.625 L 7.265625 -5.625 L 7.265625 -5.75 C 7.210938 -6.570312 6.988281 -7.207031 6.59375 -7.65625 C 6.195312 -8.113281 5.65625 -8.34375 4.96875 -8.34375 Z M 4.96875 -8.34375 "/></g></g></g><g fill="#17191a" fill-opacity="1"><g transform="translate(199.450244, 31.200004)"><g><path d="M 5.828125 -8.046875 C 5.578125 -8.085938 5.3125 -8.109375 5.03125 -8.109375 C 3.957031 -8.109375 3.234375 -7.65625 2.859375 -6.75 L 2.859375 0 L 1.234375 0 L 1.234375 -9.515625 L 2.8125 -9.515625 L 2.84375 -8.40625 C 3.375 -9.257812 4.128906 -9.6875 5.109375 -9.6875 C 5.421875 -9.6875 5.660156 -9.644531 5.828125 -9.5625 Z M 5.828125 -8.046875 "/></g></g></g><g fill="#17191a" fill-opacity="1"><g transform="translate(205.537104, 31.200004)"><g><path d="M 4.375 -2.203125 L 6.71875 -9.515625 L 8.390625 -9.515625 L 4.96875 0 L 3.734375 0 L 0.296875 -9.515625 L 1.953125 -9.515625 Z M 4.375 -2.203125 "/></g></g></g><g fill="#17191a" fill-opacity="1"><g transform="translate(214.250189, 31.200004)"><g><path d="M 7.109375 0 C 7.015625 -0.1875 6.9375 -0.519531 6.875 -1 C 6.113281 -0.21875 5.210938 0.171875 4.171875 0.171875 C 3.234375 0.171875 2.460938 -0.09375 1.859375 -0.625 C 1.253906 -1.15625 0.953125 -1.828125 0.953125 -2.640625 C 0.953125 -3.628906 1.328125 -4.394531 2.078125 -4.9375 C 2.835938 -5.488281 3.898438 -5.765625 5.265625 -5.765625 L 6.84375 -5.765625 L 6.84375 -6.515625 C 6.84375 -7.078125 6.671875 -7.523438 6.328125 -7.859375 C 5.992188 -8.203125 5.492188 -8.375 4.828125 -8.375 C 4.253906 -8.375 3.769531 -8.226562 3.375 -7.9375 C 2.976562 -7.644531 2.78125 -7.289062 2.78125 -6.875 L 1.15625 -6.875 C 1.15625 -7.34375 1.320312 -7.796875 1.65625 -8.234375 C 1.988281 -8.679688 2.441406 -9.035156 3.015625 -9.296875 C 3.597656 -9.554688 4.238281 -9.6875 4.9375 -9.6875 C 6.03125 -9.6875 6.882812 -9.410156 7.5 -8.859375 C 8.125 -8.316406 8.445312 -7.5625 8.46875 -6.59375 L 8.46875 -2.21875 C 8.46875 -1.351562 8.582031 -0.660156 8.8125 -0.140625 L 8.8125 0 Z M 4.40625 -1.234375 C 4.914062 -1.234375 5.398438 -1.363281 5.859375 -1.625 C 6.316406 -1.894531 6.644531 -2.238281 6.84375 -2.65625 L 6.84375 -4.609375 L 5.578125 -4.609375 C 3.578125 -4.609375 2.578125 -4.023438 2.578125 -2.859375 C 2.578125 -2.347656 2.75 -1.945312 3.09375 -1.65625 C 3.4375 -1.375 3.875 -1.234375 4.40625 -1.234375 Z M 4.40625 -1.234375 "/></g></g></g><g fill="#17191a" fill-opacity="1"><g transform="translate(224.034841, 31.200004)"><g><path d="M 3 0 L 1.375 0 L 1.375 -13.5 L 3 -13.5 Z M 3 0 "/></g></g></g><g fill="#17191a" fill-opacity="1"><g transform="translate(228.400166, 31.200004)"><g><path d="M 7.109375 -0.9375 C 6.472656 -0.195312 5.539062 0.171875 4.3125 0.171875 C 3.300781 0.171875 2.53125 -0.117188 2 -0.703125 C 1.46875 -1.296875 1.203125 -2.171875 1.203125 -3.328125 L 1.203125 -9.515625 L 2.828125 -9.515625 L 2.828125 -3.359375 C 2.828125 -1.921875 3.410156 -1.203125 4.578125 -1.203125 C 5.816406 -1.203125 6.644531 -1.664062 7.0625 -2.59375 L 7.0625 -9.515625 L 8.6875 -9.515625 L 8.6875 0 L 7.140625 0 Z M 7.109375 -0.9375 "/></g></g></g><g fill="#17191a" fill-opacity="1"><g transform="translate(19.453165, 55.950002)"><g/></g></g><g fill="#17191a" fill-opacity="1"><g transform="translate(23.906324, 55.950002)"><g/></g></g><g fill="#17191a" fill-opacity="1"><g transform="translate(28.359483, 55.950002)"><g/></g></g><g fill="#17191a" fill-opacity="1"><g transform="translate(32.812642, 55.950002)"><g/></g></g><g fill="#17191a" fill-opacity="1"><g transform="translate(37.265801, 55.950002)"><g/></g></g><g fill="#17191a" fill-opacity="1"><g transform="translate(41.71896, 55.950002)"><g/></g></g><g fill="#17191a" fill-opacity="1"><g transform="translate(46.172119, 55.950002)"><g/></g></g><g fill="#17191a" fill-opacity="1"><g transform="translate(50.625278, 55.950002)"><g/></g></g><g fill="#17191a" fill-opacity="1"><g transform="translate(55.078437, 55.950002)"><g/></g></g><g fill="#17191a" fill-opacity="1"><g transform="translate(59.531596, 55.950002)"><g/></g></g><g fill="#17191a" fill-opacity="1"><g transform="translate(63.984755, 55.950002)"><g/></g></g><g fill="#17191a" fill-opacity="1"><g transform="translate(68.437914, 55.950002)"><g/></g></g><g fill="#17191a" fill-opacity="1"><g transform="translate(72.891073, 55.950002)"><g/></g></g><g fill="#17191a" fill-opacity="1"><g transform="translate(77.344232, 55.950002)"><g/></g></g><g fill="#17191a" fill-opacity="1"><g transform="translate(81.797391, 55.950002)"><g/></g></g><g fill="#17191a" fill-opacity="1"><g transform="translate(86.25055, 55.950002)"><g/></g></g><g fill="#17191a" fill-opacity="1"><g transform="translate(90.703709, 55.950002)"><g/></g></g><g fill="#17191a" fill-opacity="1"><g transform="translate(95.156868, 55.950002)"><g/></g></g><g fill="#17191a" fill-opacity="1"><g transform="translate(99.610027, 55.950002)"><g/></g></g><g fill="#17191a" fill-opacity="1"><g transform="translate(104.063186, 55.950002)"><g/></g></g><g fill="#17191a" fill-opacity="1"><g transform="translate(108.516345, 55.950002)"><g/></g></g><g fill="#17191a" fill-opacity="1"><g transform="translate(112.969504, 55.950002)"><g/></g></g><g fill="#17191a" fill-opacity="1"><g transform="translate(117.422663, 55.950002)"><g/></g></g><g fill="#17191a" fill-opacity="1"><g transform="translate(121.875822, 55.950002)"><g/></g></g><g fill="#17191a" fill-opacity="1"><g transform="translate(126.328981, 55.950002)"><g/></g></g><g fill="#17191a" fill-opacity="1"><g transform="translate(130.78214, 55.950002)"><g/></g></g><g fill="#17191a" fill-opacity="1"><g transform="translate(135.235299, 55.950002)"><g/></g></g><g fill="#17191a" fill-opacity="1"><g transform="translate(139.688458, 55.950002)"><g/></g></g><g fill="#17191a" fill-opacity="1"><g transform="translate(144.140621, 55.950002)"><g><path d="M 3.140625 -3.609375 C 3.148438 -4.304688 3.226562 -4.851562 3.375 -5.25 C 3.519531 -5.65625 3.816406 -6.101562 4.265625 -6.59375 L 5.421875 -7.78125 C 5.910156 -8.34375 6.15625 -8.941406 6.15625 -9.578125 C 6.15625 -10.191406 5.992188 -10.671875 5.671875 -11.015625 C 5.347656 -11.367188 4.878906 -11.546875 4.265625 -11.546875 C 3.671875 -11.546875 3.191406 -11.382812 2.828125 -11.0625 C 2.460938 -10.75 2.28125 -10.328125 2.28125 -9.796875 L 0.65625 -9.796875 C 0.664062 -10.742188 1.003906 -11.507812 1.671875 -12.09375 C 2.335938 -12.675781 3.203125 -12.96875 4.265625 -12.96875 C 5.378906 -12.96875 6.242188 -12.671875 6.859375 -12.078125 C 7.472656 -11.484375 7.78125 -10.671875 7.78125 -9.640625 C 7.78125 -8.609375 7.304688 -7.59375 6.359375 -6.59375 L 5.40625 -5.65625 C 4.976562 -5.175781 4.765625 -4.492188 4.765625 -3.609375 Z M 3.0625 -0.8125 C 3.0625 -1.082031 3.140625 -1.304688 3.296875 -1.484375 C 3.460938 -1.660156 3.703125 -1.75 4.015625 -1.75 C 4.335938 -1.75 4.582031 -1.660156 4.75 -1.484375 C 4.914062 -1.304688 5 -1.082031 5 -0.8125 C 5 -0.550781 4.914062 -0.332031 4.75 -0.15625 C 4.582031 0.0078125 4.335938 0.09375 4.015625 0.09375 C 3.703125 0.09375 3.460938 0.0078125 3.296875 -0.15625 C 3.140625 -0.332031 3.0625 -0.550781 3.0625 -0.8125 Z M 3.0625 -0.8125 "/></g></g></g><path fill="#17191a" d="M 49.523438 45.554688 C 49.855469 45.40625 49.890625 45.277344 49.890625 45.167969 C 49.890625 44.964844 49.746094 44.820312 49.542969 44.820312 C 49.507812 44.820312 49.488281 44.839844 49.234375 44.949219 L 39.359375 49.511719 C 39.03125 49.660156 38.996094 49.785156 38.996094 49.898438 C 38.996094 50.023438 39.015625 50.136719 39.359375 50.300781 L 49.234375 54.863281 C 49.46875 54.972656 49.507812 54.992188 49.542969 54.992188 C 49.746094 54.992188 49.890625 54.84375 49.890625 54.644531 C 49.890625 54.535156 49.855469 54.40625 49.523438 54.257812 L 40.128906 49.914062 Z M 49.523438 45.554688 " fill-opacity="1" fill-rule="nonzero"/><path fill="#17191a" d="M 68.492188 50.261719 C 68.800781 50.261719 69.132812 50.261719 69.132812 49.898438 C 69.132812 49.53125 68.800781 49.53125 68.492188 49.53125 L 58.621094 49.53125 C 58.308594 49.53125 57.980469 49.53125 57.980469 49.898438 C 57.980469 50.261719 58.308594 50.261719 58.621094 50.261719 Z M 68.492188 50.261719 " fill-opacity="1" fill-rule="nonzero"/><path fill="#17191a" d="M 72.902344 48.101562 C 72.902344 43.464844 75.148438 42.730469 76.132812 42.730469 C 76.789062 42.730469 77.449219 42.933594 77.792969 43.480469 C 77.574219 43.480469 76.882812 43.480469 76.882812 44.234375 C 76.882812 44.636719 77.15625 44.984375 77.628906 44.984375 C 78.085938 44.984375 78.394531 44.710938 78.394531 44.179688 C 78.394531 43.226562 77.703125 42.289062 76.113281 42.289062 C 73.816406 42.289062 71.40625 44.65625 71.40625 48.6875 C 71.40625 53.726562 73.597656 54.863281 75.148438 54.863281 C 77.136719 54.863281 78.835938 53.121094 78.835938 50.738281 C 78.835938 48.300781 77.136719 46.671875 75.3125 46.671875 C 73.6875 46.671875 73.085938 48.082031 72.902344 48.59375 Z M 75.148438 54.367188 C 74 54.367188 73.449219 53.34375 73.285156 52.957031 C 73.121094 52.480469 72.941406 51.582031 72.941406 50.300781 C 72.941406 48.851562 73.597656 47.039062 75.238281 47.039062 C 76.242188 47.039062 76.773438 47.714844 77.046875 48.339844 C 77.335938 49.015625 77.335938 49.933594 77.335938 50.722656 C 77.335938 51.65625 77.335938 52.480469 76.992188 53.175781 C 76.535156 54.058594 75.878906 54.367188 75.148438 54.367188 Z M 75.148438 54.367188 " fill-opacity="1" fill-rule="nonzero"/><path fill="#17191a" d="M 83.152344 54.550781 C 83.152344 53.488281 82.804688 52.699219 82.054688 52.699219 C 81.472656 52.699219 81.179688 53.175781 81.179688 53.582031 C 81.179688 53.984375 81.453125 54.480469 82.074219 54.480469 C 82.3125 54.480469 82.511719 54.40625 82.675781 54.242188 C 82.714844 54.203125 82.730469 54.203125 82.75 54.203125 C 82.785156 54.203125 82.785156 54.460938 82.785156 54.550781 C 82.785156 55.15625 82.675781 56.347656 81.617188 57.539062 C 81.417969 57.757812 81.417969 57.796875 81.417969 57.832031 C 81.417969 57.925781 81.507812 58.015625 81.601562 58.015625 C 81.746094 58.015625 83.152344 56.660156 83.152344 54.550781 Z M 83.152344 54.550781 " fill-opacity="1" fill-rule="nonzero"/><path fill="#17191a" d="M 99.621094 50.261719 C 99.933594 50.261719 100.261719 50.261719 100.261719 49.898438 C 100.261719 49.53125 99.933594 49.53125 99.621094 49.53125 L 89.75 49.53125 C 89.441406 49.53125 89.113281 49.53125 89.113281 49.898438 C 89.113281 50.261719 89.441406 50.261719 89.75 50.261719 Z M 99.621094 50.261719 " fill-opacity="1" fill-rule="nonzero"/><g clip-path="url(#acf632c4ea)"><path fill="#17191a" d="M 108.890625 54.09375 L 105.679688 46.964844 C 105.550781 46.671875 105.460938 46.671875 105.40625 46.671875 C 105.386719 46.671875 105.296875 46.671875 105.09375 46.816406 L 103.359375 48.136719 C 103.125 48.320312 103.125 48.375 103.125 48.429688 C 103.125 48.523438 103.179688 48.632812 103.304688 48.632812 C 103.414062 48.632812 103.726562 48.375 103.925781 48.226562 C 104.035156 48.136719 104.308594 47.933594 104.511719 47.789062 L 108.105469 55.722656 C 108.234375 56.019531 108.324219 56.019531 108.488281 56.019531 C 108.761719 56.019531 108.816406 55.90625 108.945312 55.652344 L 117.230469 38.421875 C 117.355469 38.167969 117.355469 38.09375 117.355469 38.054688 C 117.355469 37.871094 117.210938 37.691406 116.992188 37.691406 C 116.847656 37.691406 116.71875 37.78125 116.574219 38.074219 Z M 108.890625 54.09375 " fill-opacity="1" fill-rule="nonzero"/></g><g clip-path="url(#c6c8dbdea5)"><path fill="#17191a" d="M 117 37.691406 L 134.867188 37.691406 L 134.867188 38.421875 L 117 38.421875 Z M 117 37.691406 " fill-opacity="1" fill-rule="nonzero"/></g><path fill="#17191a" d="M 122.253906 42.730469 C 122.253906 42.308594 122.253906 42.289062 121.890625 42.289062 C 121.453125 42.785156 120.539062 43.464844 118.660156 43.464844 L 118.660156 43.996094 C 119.078125 43.996094 119.992188 43.996094 120.996094 43.519531 L 120.996094 53.066406 C 120.996094 53.726562 120.941406 53.945312 119.335938 53.945312 L 118.769531 53.945312 L 118.769531 54.480469 C 119.261719 54.441406 121.03125 54.441406 121.632812 54.441406 C 122.234375 54.441406 123.988281 54.441406 124.480469 54.480469 L 124.480469 53.945312 L 123.914062 53.945312 C 122.308594 53.945312 122.253906 53.726562 122.253906 53.066406 Z M 122.253906 42.730469 " fill-opacity="1" fill-rule="nonzero"/><path fill="#17191a" d="M 134.109375 48.613281 C 134.109375 47.09375 134.015625 45.609375 133.359375 44.214844 C 132.613281 42.695312 131.296875 42.289062 130.402344 42.289062 C 129.34375 42.289062 128.050781 42.820312 127.375 44.34375 C 126.863281 45.496094 126.679688 46.632812 126.679688 48.613281 C 126.679688 50.390625 126.808594 51.730469 127.464844 53.03125 C 128.175781 54.421875 129.4375 54.863281 130.386719 54.863281 C 131.972656 54.863281 132.886719 53.910156 133.414062 52.847656 C 134.070312 51.472656 134.109375 49.675781 134.109375 48.613281 Z M 130.386719 54.496094 C 129.800781 54.496094 128.613281 54.167969 128.269531 52.167969 C 128.066406 51.070312 128.066406 49.675781 128.066406 48.394531 C 128.066406 46.890625 128.066406 45.535156 128.359375 44.453125 C 128.671875 43.226562 129.601562 42.65625 130.386719 42.65625 C 131.078125 42.65625 132.136719 43.078125 132.484375 44.65625 C 132.722656 45.699219 132.722656 47.148438 132.722656 48.394531 C 132.722656 49.621094 132.722656 51.015625 132.519531 52.132812 C 132.171875 54.148438 131.023438 54.496094 130.386719 54.496094 Z M 130.386719 54.496094 " fill-opacity="1" fill-rule="nonzero"/><g clip-path="url(#e59d7c4374)"><path fill="#17191a" d="M 141.75 40.734375 L 139.304688 40.734375 L 139.304688 41.410156 L 141.074219 41.410156 L 141.074219 58.382812 L 139.304688 58.382812 L 139.304688 59.0625 L 141.75 59.0625 Z M 141.75 40.734375 " fill-opacity="1" fill-rule="nonzero"/></g></svg>