<svg xmlns="http://www.w3.org/2000/svg" xmlns:xlink="http://www.w3.org/1999/xlink" width="500" zoomAndPan="magnify" viewBox="0 0 375 74.999997" height="100" preserveAspectRatio="xMidYMid meet" version="1.0"><defs><g/><clipPath id="29219b6b0d"><path d="M 64 30.375 L 66 30.375 L 66 44.625 L 64 44.625 Z M 64 30.375 " clip-rule="nonzero"/></clipPath><clipPath id="b277441a71"><path d="M 308 30.375 L 311 30.375 L 311 44.625 L 308 44.625 Z M 308 30.375 " clip-rule="nonzero"/></clipPath><clipPath id="1b8e842f35"><path d="M 247 30.375 L 250 30.375 L 250 44.625 L 247 44.625 Z M 247 30.375 " clip-rule="nonzero"/></clipPath><clipPath id="5a3543f11a"><path d="M 125 30.375 L 127 30.375 L 127 44.625 L 125 44.625 Z M 125 30.375 " clip-rule="nonzero"/></clipPath><clipPath id="ae2a09580b"><path d="M 186 30.375 L 188 30.375 L 188 44.625 L 186 44.625 Z M 186 30.375 " clip-rule="nonzero"/></clipPath></defs><g clip-path="url(#29219b6b0d)"><path fill="#17191a" d="M 64.003906 30.375 L 65.335938 30.375 L 65.335938 44.644531 L 64.003906 44.644531 Z M 64.003906 30.375 " fill-opacity="1" fill-rule="nonzero"/></g><g clip-path="url(#b277441a71)"><path fill="#17191a" d="M 308.917969 30.375 L 310.25 30.375 L 310.25 44.644531 L 308.917969 44.644531 Z M 308.917969 30.375 " fill-opacity="1" fill-rule="nonzero"/></g><g clip-path="url(#1b8e842f35)"><path fill="#17191a" d="M 247.691406 30.375 L 249.019531 30.375 L 249.019531 44.644531 L 247.691406 44.644531 Z M 247.691406 30.375 " fill-opacity="1" fill-rule="nonzero"/></g><g clip-path="url(#5a3543f11a)"><path fill="#17191a" d="M 125.234375 30.375 L 126.566406 30.375 L 126.566406 44.644531 L 125.234375 44.644531 Z M 125.234375 30.375 " fill-opacity="1" fill-rule="nonzero"/></g><g clip-path="url(#ae2a09580b)"><path fill="#17191a" d="M 186.460938 30.375 L 187.792969 30.375 L 187.792969 44.644531 L 186.460938 44.644531 Z M 186.460938 30.375 " fill-opacity="1" fill-rule="nonzero"/></g><path fill="#17191a" d="M 45.113281 36.507812 L 329.90625 36.507812 L 329.90625 37.839844 L 45.113281 37.839844 Z M 45.113281 36.507812 " fill-opacity="1" fill-rule="nonzero"/><path fill="#17191a" d="M 45.652344 37.171875 C 47.042969 35.78125 47.710938 33.03125 47.761719 31.121094 C 45.851562 33.683594 43.375 35.921875 40.371094 37.171875 C 43.367188 38.371094 45.738281 40.742188 47.757812 43.226562 C 47.589844 41.183594 47.089844 38.699219 45.644531 37.171875 Z M 45.652344 37.171875 " fill-opacity="1" fill-rule="nonzero"/><path fill="#17191a" d="M 329.367188 37.171875 C 327.976562 35.78125 327.308594 33.03125 327.257812 31.121094 C 329.167969 33.683594 331.644531 35.921875 334.640625 37.171875 C 331.644531 38.371094 329.273438 40.742188 327.257812 43.226562 C 327.421875 41.183594 327.921875 38.699219 329.367188 37.171875 Z M 329.367188 37.171875 " fill-opacity="1" fill-rule="nonzero"/><g fill="#a8180f" fill-opacity="1"><g transform="translate(120.130289, 58.874994)"><g><path d="M 7.90625 -4.40625 C 7.90625 -2.9375 7.597656 -1.8125 6.984375 -1.03125 C 6.378906 -0.25 5.488281 0.140625 4.3125 0.140625 C 3.144531 0.140625 2.253906 -0.238281 1.640625 -1 C 1.023438 -1.769531 0.710938 -2.867188 0.703125 -4.296875 L 0.703125 -6.265625 C 0.703125 -7.753906 1.007812 -8.882812 1.625 -9.65625 C 2.238281 -10.425781 3.125 -10.8125 4.28125 -10.8125 C 5.445312 -10.8125 6.335938 -10.425781 6.953125 -9.65625 C 7.566406 -8.894531 7.882812 -7.800781 7.90625 -6.375 Z M 5.78125 -6.5625 C 5.78125 -7.445312 5.660156 -8.085938 5.421875 -8.484375 C 5.179688 -8.890625 4.804688 -9.09375 4.296875 -9.09375 C 3.796875 -9.09375 3.425781 -8.898438 3.1875 -8.515625 C 2.945312 -8.140625 2.820312 -7.539062 2.8125 -6.71875 L 2.8125 -4.125 C 2.8125 -3.257812 2.925781 -2.613281 3.15625 -2.1875 C 3.394531 -1.769531 3.78125 -1.5625 4.3125 -1.5625 C 4.820312 -1.5625 5.191406 -1.765625 5.421875 -2.171875 C 5.648438 -2.578125 5.769531 -3.195312 5.78125 -4.03125 Z M 5.78125 -6.5625 "/></g></g></g><g fill="#a8180f" fill-opacity="1"><g transform="translate(183.193351, 58.874994)"><g><path d="M 8.03125 0 L 0.71875 0 L 0.71875 -1.453125 L 4.171875 -5.125 C 4.648438 -5.644531 5 -6.097656 5.21875 -6.484375 C 5.445312 -6.867188 5.5625 -7.234375 5.5625 -7.578125 C 5.5625 -8.054688 5.441406 -8.429688 5.203125 -8.703125 C 4.960938 -8.972656 4.625 -9.109375 4.1875 -9.109375 C 3.707031 -9.109375 3.328125 -8.941406 3.046875 -8.609375 C 2.773438 -8.273438 2.640625 -7.84375 2.640625 -7.3125 L 0.515625 -7.3125 C 0.515625 -7.957031 0.664062 -8.546875 0.96875 -9.078125 C 1.28125 -9.617188 1.71875 -10.039062 2.28125 -10.34375 C 2.851562 -10.65625 3.5 -10.8125 4.21875 -10.8125 C 5.3125 -10.8125 6.160156 -10.546875 6.765625 -10.015625 C 7.378906 -9.492188 7.6875 -8.75 7.6875 -7.78125 C 7.6875 -7.257812 7.550781 -6.722656 7.28125 -6.171875 C 7.007812 -5.628906 6.539062 -4.992188 5.875 -4.265625 L 3.453125 -1.703125 L 8.03125 -1.703125 Z M 8.03125 0 "/></g></g></g><g fill="#a8180f" fill-opacity="1"><g transform="translate(244.742904, 58.874994)"><g><path d="M 2.875 -6.265625 L 4 -6.265625 C 4.539062 -6.265625 4.941406 -6.398438 5.203125 -6.671875 C 5.460938 -6.941406 5.59375 -7.296875 5.59375 -7.734375 C 5.59375 -8.171875 5.460938 -8.507812 5.203125 -8.75 C 4.941406 -8.988281 4.585938 -9.109375 4.140625 -9.109375 C 3.734375 -9.109375 3.394531 -8.992188 3.125 -8.765625 C 2.851562 -8.546875 2.71875 -8.257812 2.71875 -7.90625 L 0.59375 -7.90625 C 0.59375 -8.457031 0.742188 -8.953125 1.046875 -9.390625 C 1.347656 -9.835938 1.769531 -10.1875 2.3125 -10.4375 C 2.851562 -10.6875 3.445312 -10.8125 4.09375 -10.8125 C 5.21875 -10.8125 6.097656 -10.539062 6.734375 -10 C 7.378906 -9.457031 7.703125 -8.710938 7.703125 -7.765625 C 7.703125 -7.273438 7.550781 -6.828125 7.25 -6.421875 C 6.957031 -6.015625 6.570312 -5.703125 6.09375 -5.484375 C 6.6875 -5.265625 7.128906 -4.941406 7.421875 -4.515625 C 7.722656 -4.085938 7.875 -3.578125 7.875 -2.984375 C 7.875 -2.035156 7.523438 -1.273438 6.828125 -0.703125 C 6.140625 -0.140625 5.226562 0.140625 4.09375 0.140625 C 3.03125 0.140625 2.160156 -0.132812 1.484375 -0.6875 C 0.804688 -1.25 0.46875 -1.992188 0.46875 -2.921875 L 2.578125 -2.921875 C 2.578125 -2.523438 2.726562 -2.195312 3.03125 -1.9375 C 3.332031 -1.6875 3.703125 -1.5625 4.140625 -1.5625 C 4.648438 -1.5625 5.046875 -1.691406 5.328125 -1.953125 C 5.609375 -2.222656 5.75 -2.578125 5.75 -3.015625 C 5.75 -4.078125 5.164062 -4.609375 4 -4.609375 L 2.875 -4.609375 Z M 2.875 -6.265625 "/></g></g></g><g fill="#a5e7f0" fill-opacity="1"><g transform="translate(46.987819, 43.375015)"><g><path d="M 0 -14.21875 L 2.875 -14.21875 L 8.8125 1.21875 L 5.921875 1.21875 Z M 0 -14.21875 "/></g></g></g><g fill="#a5e7f0" fill-opacity="1"><g transform="translate(55.422022, 43.375015)"><g><path d="M 0 -14.21875 L 2.875 -14.21875 L 8.8125 1.21875 L 5.921875 1.21875 Z M 0 -14.21875 "/></g></g></g><g fill="#a5e7f0" fill-opacity="1"><g transform="translate(63.856225, 43.375015)"><g><path d="M 0 -14.21875 L 2.875 -14.21875 L 8.8125 1.21875 L 5.921875 1.21875 Z M 0 -14.21875 "/></g></g></g><g fill="#a5e7f0" fill-opacity="1"><g transform="translate(72.290429, 43.375015)"><g><path d="M 0 -14.21875 L 2.875 -14.21875 L 8.8125 1.21875 L 5.921875 1.21875 Z M 0 -14.21875 "/></g></g></g><g fill="#a5e7f0" fill-opacity="1"><g transform="translate(80.724632, 43.375015)"><g><path d="M 0 -14.21875 L 2.875 -14.21875 L 8.8125 1.21875 L 5.921875 1.21875 Z M 0 -14.21875 "/></g></g></g><g fill="#a5e7f0" fill-opacity="1"><g transform="translate(89.158836, 43.375015)"><g><path d="M 0 -14.21875 L 2.875 -14.21875 L 8.8125 1.21875 L 5.921875 1.21875 Z M 0 -14.21875 "/></g></g></g><g fill="#a5e7f0" fill-opacity="1"><g transform="translate(97.593039, 43.375015)"><g><path d="M 0 -14.21875 L 2.875 -14.21875 L 8.8125 1.21875 L 5.921875 1.21875 Z M 0 -14.21875 "/></g></g></g><g fill="#a5e7f0" fill-opacity="1"><g transform="translate(106.027243, 43.375015)"><g><path d="M 0 -14.21875 L 2.875 -14.21875 L 8.8125 1.21875 L 5.921875 1.21875 Z M 0 -14.21875 "/></g></g></g><g fill="#a8180f" fill-opacity="1"><g transform="translate(114.452657, 43.375015)"><g><path d="M 6.84375 -6.0625 L 1.171875 -8.046875 L 1.171875 -10.765625 L 9.671875 -7.203125 L 9.671875 -4.90625 L 1.171875 -1.328125 L 1.171875 -4.046875 Z M 6.84375 -6.0625 "/></g></g></g><g fill="#a8180f" fill-opacity="1"><g transform="translate(187.064055, 43.375015)"><g><path d="M 3.375 -6.03125 L 8.9375 -4.078125 L 8.9375 -1.34375 L 0.53125 -4.90625 L 0.53125 -7.203125 L 8.9375 -10.765625 L 8.9375 -8.03125 Z M 3.375 -6.03125 "/></g></g></g><g fill="#a5e7f0" fill-opacity="1"><g transform="translate(197.22421, 43.375015)"><g><path d="M 0 -14.21875 L 2.875 -14.21875 L 8.8125 1.21875 L 5.921875 1.21875 Z M 0 -14.21875 "/></g></g></g><g fill="#a5e7f0" fill-opacity="1"><g transform="translate(205.658414, 43.375015)"><g><path d="M 0 -14.21875 L 2.875 -14.21875 L 8.8125 1.21875 L 5.921875 1.21875 Z M 0 -14.21875 "/></g></g></g><g fill="#a5e7f0" fill-opacity="1"><g transform="translate(214.092617, 43.375015)"><g><path d="M 0 -14.21875 L 2.875 -14.21875 L 8.8125 1.21875 L 5.921875 1.21875 Z M 0 -14.21875 "/></g></g></g><g fill="#a5e7f0" fill-opacity="1"><g transform="translate(222.52682, 43.375015)"><g><path d="M 0 -14.21875 L 2.875 -14.21875 L 8.8125 1.21875 L 5.921875 1.21875 Z M 0 -14.21875 "/></g></g></g><g fill="#a5e7f0" fill-opacity="1"><g transform="translate(230.961024, 43.375015)"><g><path d="M 0 -14.21875 L 2.875 -14.21875 L 8.8125 1.21875 L 5.921875 1.21875 Z M 0 -14.21875 "/></g></g></g><g fill="#a8180f" fill-opacity="1"><g transform="translate(239.388269, 43.375015)"><g><path d="M 6.84375 -6.0625 L 1.171875 -8.046875 L 1.171875 -10.765625 L 9.671875 -7.203125 L 9.671875 -4.90625 L 1.171875 -1.328125 L 1.171875 -4.046875 Z M 6.84375 -6.0625 "/></g></g></g></svg>